<?xml version="1.0" encoding="iso-8859-1"?>
<!-- Generator: Adobe Illustrator 16.0.0, SVG Export Plug-In . SVG Version: 6.00 Build 0)  -->
<!DOCTYPE svg PUBLIC "-//W3C//DTD SVG 1.0//EN" "http://www.w3.org/TR/2001/REC-SVG-20010904/DTD/svg10.dtd">
<svg version="1.0" id="Layer_1" xmlns="http://www.w3.org/2000/svg" xmlns:xlink="http://www.w3.org/1999/xlink" x="0px" y="0px"
	 width="500px" height="500px" viewBox="0 0 500 500" style="enable-background:new 0 0 500 500;" xml:space="preserve">
<style type="text/css">
<![CDATA[
	.st0{fill:#FCCE08;}
	
		.st1{fill-rule:evenodd;clip-rule:evenodd;stroke:#231F20;stroke-width:7.6464;stroke-linecap:round;stroke-linejoin:round;stroke-miterlimit:10;}
	.st2{fill-rule:evenodd;clip-rule:evenodd;fill:#F9B50B;}
	.st3{fill:none;stroke:#231F20;stroke-width:6.1171;stroke-linecap:round;stroke-linejoin:round;stroke-miterlimit:10;}
	.st4{fill-rule:evenodd;clip-rule:evenodd;fill:#FFFFFF;}
]]>
</style>
<polygon class="st0" points="229.699,92.058 346.036,79.713 266.116,196.108 370.361,185.766 163.148,435.9 232.03,266.184 
	142.314,275.782 "/>
<path class="st3" d="M289.76,46.005"/>
<g>
	<line class="st1" x1="355.701" y1="124.899" x2="400.681" y2="79.713"/>
	<line class="st1" x1="381.601" y1="230.217" x2="445.517" y2="230.217"/>
	<line class="st1" x1="342.818" y1="324.101" x2="368.584" y2="349.986"/>
	<line class="st1" x1="380.232" y1="360.718" x2="388.001" y2="368.683"/>
	<line class="st1" x1="157.046" y1="323.24" x2="111.391" y2="368.127"/>
	<line class="st1" x1="118.301" y1="230.214" x2="54.483" y2="230.214"/>
	<line class="st1" x1="157.184" y1="137.036" x2="111.878" y2="91.85"/>
</g>
<path class="st4" d="M243.117,91.85c-25.615,60.823-85.256,162.903-65.758,176.667c8.768,6.189-35.045,7.266-35.045,7.266
	l87.385-183.724C229.699,92.058,244.804,87.848,243.117,91.85z"/>
<path class="st2" d="M329.778,191.03c1.132-5.133,40.583-5.265,40.583-5.265L163.148,435.9c0,0,8.439-28.896,14.774-36.402
	C230.629,337.044,318.309,243.026,329.778,191.03z"/>
<polygon class="st3" points="229.699,92.058 346.036,79.713 266.116,196.109 370.361,185.766 163.148,435.9 232.03,266.184 
	142.314,275.782 "/>
</svg>
