<?xml version="1.0" encoding="iso-8859-1"?>
<!-- Generator: Adobe Illustrator 16.0.0, SVG Export Plug-In . SVG Version: 6.00 Build 0)  -->
<!DOCTYPE svg PUBLIC "-//W3C//DTD SVG 1.0//EN" "http://www.w3.org/TR/2001/REC-SVG-20010904/DTD/svg10.dtd">
<svg version="1.0" id="Layer_1" xmlns="http://www.w3.org/2000/svg" xmlns:xlink="http://www.w3.org/1999/xlink" x="0px" y="0px"
	 width="400px" height="400px" viewBox="0 0 500 500" style="enable-background:new 0 0 500 500;" xml:space="preserve">
<style type="text/css">
<![CDATA[
	.st0{fill-rule:evenodd;clip-rule:evenodd;fill:#A7A9AC;}
	.st1{fill:none;stroke:#000000;stroke-width:3.0532;stroke-linecap:round;stroke-linejoin:round;stroke-miterlimit:10;}
	.st2{fill:#ED1C24;}
	.st3{fill:#EF481B;}
	.st4{fill:#EFEDEE;}
	.st5{fill:#F76A1E;}
	.st6{fill:#F9B50B;}
	.st7{fill:#FAFAFA;}
	.st8{fill:#FCCE08;}
	.st9{fill:#FCEBA2;}
	.st10{fill-rule:evenodd;clip-rule:evenodd;}
	.st11{fill:#FFDF59;}
	.st12{fill:none;}
	.st13{fill:#D4D2D3;}
	.st14{fill:none;stroke:#000000;stroke-width:8.8918;stroke-linecap:round;stroke-linejoin:round;stroke-miterlimit:10;}
	.st15{fill:#A7A9AC;}
]]>
</style>
<path class="st13" d="M356.246,79.932l40.535-4.458c40.027,0,28.044,45.632,28.044,45.632h-59.279L356.246,79.932z"/>
<path class="st4" d="M86.678,386.895l216.326,45.632h22.527c71.25,0-4.004-357.051,71.25-357.051H128.777
	C70.363,75.475,102.635,290.614,86.678,386.895z"/>
<g>
	<g>
		<polygon class="st5" points="144.811,224.682 140.24,226.587 157.314,307.842 235.157,333.764 202.195,171.776 		"/>
		<polygon class="st3" points="298.887,280.35 281.696,199.129 202.536,171.462 202.195,171.776 235.157,333.764 237.368,334.501 		
			"/>
	</g>
	<path class="st10" d="M286.578,200.474c5.192,26.146,10.22,51.485,15.259,76.816c0.515,2.566,0.662,4.7-1.753,6.787
		c-20.339,17.585-40.58,35.28-60.76,53.052c-2.196,1.936-4.014,2.27-6.778,1.315c-25.305-8.73-50.651-17.347-76.026-25.874
		c-2.667-0.897-3.803-2.396-4.316-5.036c-4.324-22.2-8.744-44.381-13.129-66.572c-0.83-4.203-1.429-8.463-2.522-12.591
		c-0.688-2.594-0.07-4.138,1.909-5.857c20.492-17.817,40.921-35.71,61.306-53.649c1.892-1.665,3.557-1.673,5.809-0.899
		c24.683,8.482,49.375,16.94,74.132,25.205C283.927,194.577,287.147,196.182,286.578,200.474z M255.594,222.251
		c-27.699,5.782-54.215,11.316-81.657,17.045c18.423,21.44,36.217,42.152,54.731,63.702
		C237.771,275.704,246.532,249.423,255.594,222.251z M234.747,303.167c1.686-0.514,2.207-0.619,2.685-0.825
		c17.049-7.393,34.079-14.821,51.143-22.17c2.943-1.269,1.903-2.893,0.834-4.751c-7.534-13.083-15.038-26.187-22.569-39.271
		c-1.818-3.162-3.711-6.283-6.228-10.533C251.809,252.009,243.433,277.126,234.747,303.167z M221.643,305.619
		c0.195-0.394,0.395-0.788,0.588-1.181c-17.009-19.795-34.02-39.592-51.8-60.285c-3.136,20.447-6.1,39.761-9.154,59.667
		C181.768,304.431,201.705,305.026,221.643,305.619z M251.579,217.154c0.385-0.132,0.702-0.166,0.71-0.471
		c0.006-0.25-0.143-0.549-0.424-0.764c-15.627-11.777-31.256-23.556-47.372-35.7c-10.129,17.671-19.953,34.81-29.778,51.947
		c0.153,0.155-0.39,0.478,0.128,0.902c0.268,0.22,0.452-0.012,0.712-0.053C200.896,227.729,226.238,222.441,251.579,217.154z
		 M199.236,178.65c-0.286-0.253-0.569-0.506-0.853-0.759c-17.704,15.492-35.408,30.986-53.765,47.052
		c7.123,2.796,13.351,5.129,19.477,7.703c2.352,0.987,3.548,0.489,4.787-1.692c5.28-9.3,10.731-18.504,16.108-27.749
		C189.749,195.024,194.487,186.838,199.236,178.65z M209.851,175.594c0.028,0.857-0.017,1.048,0.044,1.097
		c16.084,12.236,32.151,24.492,48.334,36.594c0.689,0.517,2.779,0.043,3.622-0.668c4.593-3.892,9.015-7.987,13.452-12.062
		c0.511-0.47,1.429-1.076,1.985-2.049C254.938,190.891,232.235,183.223,209.851,175.594z M293.48,270.754
		c0.337-0.149,0.671-0.298,1.008-0.446c-4.37-22.07-8.734-44.137-13.304-67.208c-5.969,5.422-11.242,10.067-16.271,14.966
		c-0.561,0.546-0.097,2.718,0.502,3.793c5.87,10.495,11.854,20.926,17.841,31.353C286.627,259.081,290.07,264.907,293.48,270.754z
		 M142.91,230.587c4.37,22.043,8.527,43,12.684,63.958c0.409-0.056,0.817-0.116,1.229-0.172c2.715-17.68,5.461-35.355,8.073-53.05
		c0.121-0.824-0.734-2.341-1.498-2.659C157.005,236.007,150.528,233.555,142.91,230.587z M285.95,288.551
		c-0.169-0.235-0.335-0.473-0.5-0.708c-2.303,0.99-4.608,1.98-6.908,2.979c-14.222,6.16-28.461,12.295-42.643,18.55
		c-0.976,0.431-2.32,1.903-2.191,2.671c1.02,5.996,2.36,11.935,3.804,18.864C254.151,316.354,270.051,302.452,285.95,288.551z
		 M231.729,331.943c-1.354-6.398-2.567-11.581-3.509-16.815c-0.499-2.765-1.771-3.608-4.589-3.667
		c-14.563-0.3-29.12-0.86-43.681-1.302c-3.007-0.092-6.021-0.051-9.033-0.071c-0.061,0.358-0.124,0.719-0.187,1.077
		C190.739,317.981,210.749,324.798,231.729,331.943z"/>
	<line class="st12" x1="235.255" y1="335.079" x2="203.175" y2="174.893"/>
</g>
<path class="st15" d="M386.023,78.78c0,0-9.958,32.981,13.481,35.885c23.438,2.904,10.785,4.564,10.785,4.564h-42.936
	C367.354,119.229,372.538,84.795,386.023,78.78z"/>
<path class="st14" d="M84.459,386.107l216.327,45.632h22.526c71.25,0-4.003-357.051,71.25-357.051H126.559
	C68.145,74.688,100.417,289.827,84.459,386.107z"/>
<path class="st14" d="M372.626,90.395c6.074-15.058,22.36-15.706,22.36-15.706c40.027,0,28.045,45.633,28.045,45.633h-59.278
	C363.753,120.321,367.354,103.459,372.626,90.395z"/>
<g>
	<path class="st13" d="M57.528,432.526c-40.027,0-28.044-45.632-28.044-45.632h268.003c0,0-11.985,45.632,28.045,45.632H57.528z"/>
	<path class="st0" d="M31.804,390.595h15.924c0,0-18.385,35.799,27.227,41.932c42.124,5.663-43.098,5.925-43.948-14.563
		C30.106,396.245,31.804,390.595,31.804,390.595z"/>
	<path class="st14" d="M57.528,432.526c-40.027,0-28.044-45.632-28.044-45.632h268.003c0,0-11.985,45.632,28.045,45.632H57.528z"/>
</g>
<g>
	<line class="st1" x1="219.191" y1="129.196" x2="219.191" y2="141.925"/>
	<line class="st1" x1="244.185" y1="131.764" x2="241.567" y2="144.344"/>
	<line class="st1" x1="268.063" y1="139.587" x2="262.745" y2="151.19"/>
	<line class="st1" x1="289.628" y1="151.93" x2="282.305" y2="162.458"/>
	<line class="st1" x1="308.579" y1="168.932" x2="299.094" y2="177.601"/>
	<line class="st1" x1="323.363" y1="189.3" x2="312.354" y2="195.824"/>
	<line class="st1" x1="333.606" y1="212.132" x2="321.482" y2="216.279"/>
	<line class="st1" x1="338.777" y1="236.683" x2="326.121" y2="238.208"/>
	<line class="st1" x1="338.814" y1="262.023" x2="326.121" y2="260.792"/>
	<line class="st1" x1="333.541" y1="286.783" x2="321.395" y2="282.875"/>
	<line class="st1" x1="323.353" y1="309.703" x2="312.236" y2="303.264"/>
	<line class="st1" x1="308.672" y1="329.859" x2="299.115" y2="321.322"/>
	<line class="st1" x1="289.988" y1="346.735" x2="282.316" y2="336.438"/>
	<line class="st1" x1="268.166" y1="359.341" x2="263.14" y2="347.56"/>
	<line class="st1" x1="246.119" y1="366.535" x2="243.366" y2="353.985"/>
	<line class="st1" x1="221.178" y1="369.092" x2="221.178" y2="356.364"/>
	<line class="st1" x1="195.745" y1="366.619" x2="198.959" y2="353.985"/>
	<line class="st1" x1="170.229" y1="359.341" x2="175.203" y2="347.56"/>
	<line class="st1" x1="148.345" y1="346.708" x2="155.752" y2="336.245"/>
	<line class="st1" x1="129.714" y1="329.895" x2="139.262" y2="321.355"/>
	<line class="st1" x1="114.901" y1="309.472" x2="126.104" y2="303.223"/>
	<line class="st1" x1="104.751" y1="286.553" x2="116.855" y2="282.518"/>
	<line class="st1" x1="99.617" y1="261.921" x2="112.193" y2="260.519"/>
	<line class="st1" x1="99.617" y1="236.885" x2="112.193" y2="238.005"/>
	<line class="st1" x1="104.851" y1="212.12" x2="116.929" y2="216.142"/>
	<line class="st1" x1="114.941" y1="189.375" x2="126.162" y2="195.582"/>
	<line class="st1" x1="129.75" y1="168.976" x2="139.282" y2="177.576"/>
	<line class="st1" x1="148.772" y1="151.891" x2="156.114" y2="162.433"/>
	<line class="st1" x1="170.058" y1="139.704" x2="175.701" y2="151.166"/>
	<line class="st1" x1="193.71" y1="131.199" x2="196.935" y2="144.315"/>
</g>
<g>
	<g>
		<path class="st8" d="M410.413,174.132c-93.244,39.879-93.244,39.881-133.304,56.986c-3.398,1.451-6.268,3.018-7.564,6.752
			c-0.626,1.795-1.807,3.393-2.709,5.093c-1.366,2.583-3.51,5.718-4.942,8.46c6.222,1.702,11.955,3.716,17.904,5.226
			c0.878,0.223,3.521-0.487,4.418-0.872c38.624-16.56,77.077-32.774,115.69-49.366c0.749-0.321,20.305-9.467,20.308-9.467
			C416.055,187.261,410.413,174.132,410.413,174.132z"/>
		<path class="st9" d="M257.213,256.856c-3.163-0.858-4.396-2.476-2.896-5.345c1.408-2.688,3.338-5.354,4.762-8.037
			c1.791-3.367,3.277-6.626,5.132-10.163c-5.336-1.475-11.675-3.298-16.617-4.811c-1.696-0.519-2.645-0.265-3.661,1.214
			c-4.9,7.135-9.907,14.196-14.883,21.276c-3.158,4.494-6.327,8.974-9.835,13.949c3.572-1.286,7.161-3.883,9.181,0.554
			c2.168,4.756-2.584,5.343-5.704,7.218c14.73,2.152,28.928,4.205,43.118,6.339c1.327,0.202,2.637,0.642,3.169-0.385
			c1.812-3.479,3.896-7.29,5.729-10.762c0.707-1.332,1.56-4.291,2.309-5.781c-1.102-0.355-2.498-0.383-3.345-0.617
			C268.031,259.96,262.856,258.391,257.213,256.856z"/>
		<path class="st11" d="M256.607,222.504c4.139,1.121,6.622,2.842,9.35,3.729c1.623,0.528,3.727,0.453,5.225-0.192
			c38.601-16.617,136.333-59.324,136.336-59.324c-1.008-2.349-2.525-5.196-3.53-7.538
			C355.054,180.204,305.915,201.319,256.607,222.504z"/>
		<path class="st6" d="M423.396,204.348c0,0-19.725,8.341-20.475,8.663c-38.609,16.595-77.221,33.184-115.827,49.793
			c-0.855,0.367-1.951,0.762-2.363,1.475c-1.989,3.432-3.78,6.979-5.511,10.241c49.062-21.084,98.243-42.214,147.158-63.231
			C425.145,208.412,423.396,204.348,423.396,204.348z"/>
		<path class="st7" d="M434.33,146.165c-2.254,0.938-4.686,1.951-6.979,2.907c7.485,17.426,15.018,34.948,22.506,52.382
			c2.275-1.009,4.687-2.079,6.911-3.066C449.278,180.959,441.754,163.444,434.33,146.165z"/>
		<path class="st7" d="M412.038,155.387c7.604,17.698,15.144,35.23,22.618,52.615c2.345-0.952,4.788-1.941,6.859-2.782
			c-7.567-17.612-15.112-35.175-22.668-52.757C416.759,153.359,414.39,154.376,412.038,155.387z"/>
		<path class="st2" d="M441.661,142.992c7.488,17.414,14.667,35.097,22.119,52.43c11.832-7.008,18.072-23.471,12.254-36.72
			C470.49,146.084,453.98,139.133,441.661,142.992z"/>
	</g>
	<path d="M474.686,144.275c-10.327-10.179-26.376-13.259-39.951-7.42c-63.707,27.403-127.39,54.861-191.058,82.356
		c-1.342,0.579-2.678,1.65-3.522,2.841c-11.661,16.465-23.243,32.992-34.828,49.515c-2.493,3.555-1.151,6.601,3.191,7.242
		c19.418,2.859,38.845,5.665,58.252,8.585c2.589,0.391,4.861,0.096,7.26-0.948c26.982-11.691,53.997-23.304,81.003-34.941
		c35.804-15.427,71.597-30.89,107.424-46.26c9.765-4.189,16.76-10.999,20.038-18.861
		C488.812,170.501,485.474,154.913,474.686,144.275z M274.102,267.334c-1.823,3.455-3.696,6.884-5.496,10.349
		c-0.532,1.021-1.062,1.521-2.38,1.324c-14.098-2.113-28.203-4.147-42.843-6.282c3.101-1.865,7.823-2.452,5.674-7.182
		c-2.007-4.419-5.57-1.829-9.124-0.551c3.489-4.948,6.641-9.411,9.786-13.885c4.947-7.053,9.926-14.083,14.801-21.187
		c1.011-1.474,1.953-1.725,3.641-1.21c4.909,1.504,9.886,2.785,15.188,4.25c-1.846,3.52-3.598,6.894-5.38,10.247
		c-1.411,2.671-2.898,5.305-4.298,7.981c-1.491,2.855-0.192,5.663,2.95,6.516c5.607,1.522,11.215,3.045,16.819,4.58
		c0.843,0.235,1.668,0.532,2.761,0.882C275.456,264.649,274.81,266.007,274.102,267.334z M279.553,274.482
		c1.726-3.244,3.507-6.774,5.485-10.19c0.412-0.711,1.501-1.105,2.347-1.47c38.379-16.56,76.759-33.095,115.143-49.636
		c0.744-0.321,20.351-8.637,20.351-8.637l-0.732-1.706c-0.81-1.887-1.612-3.77-2.422-5.659c-0.006,0.001-19.807,8.213-20.553,8.534
		c-38.38,16.54-76.764,33.08-115.157,49.591c-0.891,0.38-2.032,0.733-2.904,0.511c-5.911-1.5-11.781-3.159-17.964-4.847
		c1.428-2.729,2.766-5.313,4.127-7.885c0.896-1.693,2.073-3.283,2.693-5.071c1.292-3.716,4.146-5.276,7.522-6.725
		c39.822-17.048,39.822-17.052,132.51-56.804l-2.676-6.241c-0.232-0.544-0.467-1.084-0.696-1.628
		c-0.002,0-96.9,41.926-135.271,58.49c-1.487,0.644-2.797,0.857-4.413,0.333c-3.209-1.043-6.511-1.812-9.819-2.708
		c49.013-21.117,97.858-42.164,146.498-63.123c1.002,2.33,2.002,4.673,3.006,7.008c0.229,0.543,0.464,1.084,0.696,1.628
		c4.129,9.634,8.271,19.304,12.401,28.937c0.81,1.89,1.612,3.772,2.422,5.659c1.232,2.873,2.466,5.75,3.69,8.612
		C377.213,232.407,328.325,253.471,279.553,274.482z M434.063,208.179c-7.414-17.295-14.891-34.739-22.439-52.346
		c2.338-1.008,4.694-2.021,6.769-2.916c7.498,17.493,14.983,34.965,22.49,52.489C438.828,206.244,436.396,207.231,434.063,208.179z
		 M449.177,201.653c-7.436-17.345-14.903-34.777-22.332-52.116c2.282-0.951,4.698-1.963,6.938-2.899
		c7.365,17.191,14.834,34.619,22.263,51.958C453.833,199.582,451.437,200.647,449.177,201.653z M464.426,194.903
		c-7.395-17.245-14.802-34.523-22.23-51.849c12.242-3.85,27.521,3.48,33.021,16.032
		C480.992,172.268,476.188,187.921,464.426,194.903z"/>
</g>
</svg>
