<?xml version="1.0" encoding="iso-8859-1"?>
<!-- Generator: Adobe Illustrator 16.0.0, SVG Export Plug-In . SVG Version: 6.00 Build 0)  -->
<!DOCTYPE svg PUBLIC "-//W3C//DTD SVG 1.0//EN" "http://www.w3.org/TR/2001/REC-SVG-20010904/DTD/svg10.dtd">
<svg version="1.0" id="Layer_1" xmlns="http://www.w3.org/2000/svg" xmlns:xlink="http://www.w3.org/1999/xlink" x="0px" y="0px"
	 width="500px" height="500px" viewBox="0 0 500 500" style="enable-background:new 0 0 500 500;" xml:space="preserve">
<style type="text/css">
<![CDATA[
	
		.st0{fill-rule:evenodd;clip-rule:evenodd;fill:none;stroke:#231F20;stroke-width:6.2428;stroke-linecap:round;stroke-linejoin:round;stroke-miterlimit:10;}
	.st1{fill-rule:evenodd;clip-rule:evenodd;fill:#FFEB97;stroke:#231F20;stroke-width:6.2428;stroke-miterlimit:10;}
	.st2{opacity:0.5;fill-rule:evenodd;clip-rule:evenodd;fill:#B0B0B0;}
	.st3{fill-rule:evenodd;clip-rule:evenodd;fill:#DDDDDD;}
	.st4{fill:#ED1C24;}
	.st5{fill:#231F20;}
	.st6{fill:none;stroke:#58595B;stroke-width:6.2428;stroke-linecap:round;stroke-linejoin:round;stroke-miterlimit:10;}
	.st7{fill-rule:evenodd;clip-rule:evenodd;fill:#FCCE08;stroke:#231F20;stroke-width:6.2428;stroke-miterlimit:10;}
	.st8{fill-rule:evenodd;clip-rule:evenodd;fill:#ED1C24;}
	.st9{fill-rule:evenodd;clip-rule:evenodd;fill:#808285;stroke:#231F20;stroke-width:6.2428;stroke-miterlimit:10;}
	.st10{fill-rule:evenodd;clip-rule:evenodd;fill:none;stroke:#231F20;stroke-width:6.2428;stroke-miterlimit:10;}
	.st11{fill-rule:evenodd;clip-rule:evenodd;fill:#F5F7F7;}
	.st12{fill-rule:evenodd;clip-rule:evenodd;fill:#FAFAFA;}
	.st13{fill:none;stroke:#231F20;stroke-width:6.2428;stroke-linecap:round;stroke-linejoin:round;stroke-miterlimit:10;}
	.st14{fill-rule:evenodd;clip-rule:evenodd;fill:#BCBEC0;stroke:#231F20;stroke-width:6.2428;stroke-miterlimit:10;}
	
		.st15{fill-rule:evenodd;clip-rule:evenodd;fill:#FAFAFA;stroke:#231F20;stroke-width:6.2428;stroke-linecap:round;stroke-linejoin:round;stroke-miterlimit:10;}
]]>
</style>
<g>
	<g>
		<polygon class="st12" points="333.085,138.118 333.085,267.325 149.454,267.325 149.454,176.812 189.559,176.812 189.559,138.118 
					"/>
	</g>
	<path class="st11" d="M392.718,272.082c0-2.509-2.179-4.547-4.865-4.547H94.684c-2.687,0-4.866,2.038-4.866,4.547v65.648h302.899
		V272.082z"/>
	<path class="st3" d="M94.684,407.924h293.168c2.687,0,4.865-2.036,4.865-4.546V337.73H89.818v65.647
		C89.818,405.888,91.998,407.924,94.684,407.924z"/>
	<path class="st14" d="M357.702,225.582c7.642,1.061,7.359,3.847,7.359,3.847v37.666h-31.977v-41.513H357.702z"/>
	<path class="st14" d="M125.019,225.582c-7.757,1.061-7.471,3.847-7.471,3.847v37.664h32.469v-41.511H125.019z"/>
	<path class="st7" d="M141.67,312.28c0,0.689-0.565,1.25-1.262,1.25h-13.251c-0.696,0-1.262-0.561-1.262-1.25v-13.526
		c0-0.69,0.566-1.248,1.262-1.248h13.251c0.697,0,1.262,0.558,1.262,1.248V312.28z"/>
	<line class="st13" x1="149.768" y1="176.812" x2="189.874" y2="138.118"/>
	<path class="st1" d="M363.854,307.479c0,1.906-1.354,3.453-3.021,3.453h-57.389c-1.669,0-3.022-1.547-3.022-3.453v-4.175
		c0-1.904,1.354-3.451,3.022-3.451h57.389c1.668,0,3.021,1.547,3.021,3.451V307.479z"/>
	<path class="st2" d="M95.632,407.924h293.168c2.688,0,4.866-2.036,4.866-4.546l-0.424-7.652c0,0-88.608,11.653-302.991,0
		c-1.157-0.064,0.514,7.652,0.514,7.652C90.766,405.888,92.946,407.924,95.632,407.924z"/>
	<path class="st9" d="M361.903,383.656c0-2.758-2.261-4.994-5.048-4.994H127.576c-2.788,0-5.048,2.236-5.048,4.994v23.724h239.375
		V383.656z"/>
	<path class="st3" d="M152.934,180.664l0.677,14.99c0,0,24.485-3.075,39.199-16.499"/>
	<polygon class="st0" points="333.398,138.118 333.398,267.325 149.768,267.325 149.768,176.812 189.874,176.812 189.874,138.118 	
		"/>
	<path class="st10" d="M393.667,403.321c0,2.765-2.237,5.008-4.995,5.008H94.838c-2.758,0-4.995-2.243-4.995-5.008V272.555
		c0-2.767,2.236-5.009,4.995-5.009h293.833c2.758,0,4.995,2.242,4.995,5.009V403.321z"/>
	<polygon class="st15" points="159.76,379.078 323.41,379.078 342.551,435.679 139.987,435.679 	"/>
	<line class="st6" x1="172.872" y1="395.726" x2="309.42" y2="395.726"/>
	<line class="st6" x1="243.387" y1="413.622" x2="311.303" y2="413.622"/>
	<g>
		<g>
			<path class="st4" d="M254.734,116.533c-7.397-3.545-13.296-7.623-18.032-12.466c-3.778-3.863-6.387-7.781-7.975-11.975
				c-1.021-2.691-1.476-5.121-1.393-7.431c0.21-5.937,2.729-10.08,7.702-12.667c1.417-0.738,3.018-1.097,4.894-1.098
				c4.373,0,7.776,1.596,10.411,4.878c1.049,1.304,1.648,2.804,1.834,4.586c0.015,0.175,0.058,0.388,0.112,0.596
				c0.284,1.102,1.303,1.97,2.441,1.97l0.182-0.001c1.196-0.027,2.205-0.899,2.405-2.079l0.084-0.527
				c0.046-0.302,0.09-0.604,0.16-0.902c0.712-3.054,2.55-5.328,5.624-6.964c2.031-1.082,4.096-1.63,6.135-1.63
				c1.463,0,2.947,0.283,4.412,0.842c3.877,1.476,6.438,4.292,7.833,8.612c1.146,3.556,0.91,7.426-0.721,11.83
				c-1.519,4.091-4.072,7.952-7.806,11.802c-4.767,4.916-10.716,9.045-18.188,12.625c-0.02,0.009-0.039,0.019-0.058,0.027
				C254.773,116.552,254.754,116.542,254.734,116.533z"/>
			<path class="st5" d="M269.318,73.318c1.158,0,2.343,0.228,3.525,0.679c3.122,1.188,5.196,3.493,6.343,7.043
				c0.98,3.045,0.764,6.285-0.684,10.194c-1.396,3.762-3.771,7.338-7.258,10.935c-4.341,4.476-9.731,8.283-16.453,11.615
				c-6.652-3.298-11.994-7.055-16.305-11.463c-3.533-3.612-5.961-7.247-7.426-11.116c-0.899-2.372-1.302-4.483-1.231-6.457
				c0.178-5.025,2.199-8.374,6.36-10.54c1.052-0.548,2.276-0.815,3.748-0.816c3.608,0,6.295,1.253,8.458,3.949
				c0.733,0.911,1.156,1.977,1.292,3.257c0.039,0.395,0.11,0.709,0.181,0.981c0.533,2.25,2.543,3.842,4.859,3.842
				c0.078,0,0.157,0,0.239-0.002c2.392-0.054,4.409-1.798,4.81-4.158c0.032-0.188,0.062-0.377,0.09-0.566
				c0.043-0.276,0.083-0.537,0.128-0.726c0.543-2.33,1.929-4.019,4.361-5.314C266.023,73.768,267.693,73.318,269.318,73.318
				 M269.318,68.324c-2.487,0-4.937,0.661-7.309,1.923c-3.497,1.862-5.957,4.632-6.879,8.589c-0.125,0.524-0.188,1.061-0.277,1.591
				c-0.043,0.001-0.084,0.001-0.125,0.001c-0.024-0.108-0.061-0.216-0.07-0.327c-0.228-2.191-0.993-4.18-2.37-5.891
				c-3.162-3.939-7.318-5.812-12.35-5.812c-0.003,0-0.006,0-0.01,0c-2.121,0.001-4.168,0.403-6.044,1.38
				c-5.969,3.106-8.811,8.196-9.044,14.792c-0.104,2.887,0.525,5.696,1.553,8.405c1.865,4.928,4.868,9.098,8.525,12.837
				c5.411,5.534,11.798,9.646,18.738,12.973c0.411,0.197,0.773,0.295,1.137,0.295c0.362,0,0.725-0.099,1.137-0.295
				c7.013-3.36,13.456-7.524,18.901-13.139c3.586-3.698,6.549-7.81,8.354-12.673c1.63-4.402,2.226-8.901,0.755-13.464
				c-1.546-4.791-4.554-8.365-9.319-10.179C272.844,68.652,271.071,68.324,269.318,68.324L269.318,68.324z"/>
		</g>
		<g>
			<path class="st8" d="M254.734,116.533c-7.397-3.545-13.296-7.623-18.032-12.466c-3.778-3.863-6.387-7.781-7.975-11.975
				c-1.021-2.691-1.476-5.121-1.393-7.431c0.21-5.937,2.729-10.08,7.702-12.667c1.417-0.738,3.018-1.097,4.894-1.098
				c4.373,0,7.776,1.596,10.411,4.878c1.049,1.304,1.648,2.804,1.834,4.586c0.015,0.175,0.058,0.388,0.112,0.596
				c0.284,1.102,1.303,1.97,2.441,1.97l0.182-0.001c1.196-0.027,2.205-0.899,2.405-2.079l0.084-0.527
				c0.046-0.302,0.09-0.604,0.16-0.902c0.712-3.054,2.55-5.328,5.624-6.964c2.031-1.082,4.096-1.63,6.135-1.63
				c1.463,0,2.947,0.283,4.412,0.842c3.877,1.476,6.438,4.292,7.833,8.612c1.146,3.556,0.91,7.426-0.721,11.83
				c-1.519,4.091-4.072,7.952-7.806,11.802c-4.767,4.916-10.716,9.045-18.188,12.625c-0.02,0.009-0.039,0.019-0.058,0.027
				C254.773,116.552,254.754,116.542,254.734,116.533z"/>
			<path class="st5" d="M269.319,73.318L269.319,73.318c1.157,0,2.342,0.228,3.524,0.679c3.122,1.188,5.196,3.493,6.343,7.043
				c0.98,3.045,0.764,6.285-0.684,10.194c-1.396,3.762-3.771,7.338-7.258,10.935c-4.341,4.476-9.731,8.283-16.453,11.615
				c-6.652-3.298-11.994-7.055-16.305-11.463c-3.533-3.612-5.961-7.247-7.426-11.116c-0.899-2.372-1.302-4.483-1.231-6.457
				c0.178-5.025,2.199-8.374,6.36-10.54c1.052-0.548,2.276-0.815,3.748-0.816c3.608,0,6.295,1.253,8.458,3.949
				c0.733,0.911,1.156,1.977,1.292,3.257c0.039,0.395,0.11,0.709,0.181,0.981c0.533,2.25,2.543,3.842,4.859,3.842
				c0.078,0,0.157,0,0.239-0.002c2.392-0.054,4.409-1.798,4.81-4.158c0.032-0.188,0.062-0.377,0.09-0.566
				c0.043-0.276,0.083-0.537,0.128-0.726c0.543-2.33,1.929-4.019,4.361-5.314C266.023,73.768,267.693,73.318,269.319,73.318
				 M269.318,68.324c-2.487,0-4.938,0.661-7.309,1.923c-3.497,1.862-5.957,4.632-6.879,8.589c-0.125,0.524-0.188,1.061-0.277,1.591
				c-0.043,0.001-0.084,0.001-0.125,0.001c-0.024-0.108-0.061-0.216-0.07-0.327c-0.228-2.191-0.993-4.18-2.37-5.891
				c-3.162-3.939-7.317-5.812-12.35-5.812c-0.003,0-0.007,0-0.01,0c-2.121,0.001-4.168,0.403-6.044,1.38
				c-5.969,3.106-8.811,8.196-9.044,14.792c-0.104,2.887,0.525,5.696,1.553,8.405c1.865,4.928,4.868,9.098,8.525,12.837
				c5.411,5.534,11.798,9.646,18.738,12.973c0.411,0.197,0.773,0.295,1.137,0.295c0.362,0,0.725-0.099,1.137-0.295
				c7.013-3.36,13.456-7.524,18.901-13.139c3.586-3.698,6.549-7.81,8.354-12.673c1.63-4.402,2.226-8.901,0.755-13.464
				c-1.546-4.791-4.554-8.365-9.319-10.179C272.844,68.652,271.072,68.324,269.318,68.324L269.318,68.324z"/>
		</g>
	</g>
</g>
</svg>
