<?xml version="1.0" encoding="UTF-8"?>
<svg width="317px" height="43px" viewBox="0 0 317 43" version="1.1" xmlns="http://www.w3.org/2000/svg" xmlns:xlink="http://www.w3.org/1999/xlink">
    <!-- Generator: Sketch 61.2 (89653) - https://sketch.com -->
    <title>Logo</title>
    <desc>Created with Sketch.</desc>
    <defs>
        <linearGradient x1="-1325.73542%" y1="0%" x2="5764.0127%" y2="0%" id="linearGradient-1">
            <stop stop-color="#FFFFFF" offset="0%"></stop>
            <stop stop-color="#D9D9D9" offset="26.8272912%"></stop>
            <stop stop-color="#C8C8C8" offset="69.0520153%"></stop>
            <stop stop-color="#FFFFFF" offset="100%"></stop>
        </linearGradient>
        <linearGradient x1="-1325.73542%" y1="0%" x2="5764.0127%" y2="0%" id="linearGradient-2">
            <stop stop-color="#FFFFFF" offset="0%"></stop>
            <stop stop-color="#D9D9D9" offset="26.8272912%"></stop>
            <stop stop-color="#C8C8C8" offset="69.0520153%"></stop>
            <stop stop-color="#FFFFFF" offset="100%"></stop>
        </linearGradient>
        <linearGradient x1="-1325.73542%" y1="0%" x2="5764.0127%" y2="0%" id="linearGradient-3">
            <stop stop-color="#FFFFFF" offset="0%"></stop>
            <stop stop-color="#D9D9D9" offset="26.8272912%"></stop>
            <stop stop-color="#C8C8C8" offset="69.0520153%"></stop>
            <stop stop-color="#FFFFFF" offset="100%"></stop>
        </linearGradient>
        <linearGradient x1="-1325.73542%" y1="0%" x2="5764.0127%" y2="0%" id="linearGradient-4">
            <stop stop-color="#FFFFFF" offset="0%"></stop>
            <stop stop-color="#D9D9D9" offset="26.8272912%"></stop>
            <stop stop-color="#C8C8C8" offset="69.0520153%"></stop>
            <stop stop-color="#FFFFFF" offset="100%"></stop>
        </linearGradient>
        <linearGradient x1="-1325.73542%" y1="0%" x2="5764.0127%" y2="0%" id="linearGradient-5">
            <stop stop-color="#FFFFFF" offset="0%"></stop>
            <stop stop-color="#D9D9D9" offset="26.8272912%"></stop>
            <stop stop-color="#C8C8C8" offset="69.0520153%"></stop>
            <stop stop-color="#FFFFFF" offset="100%"></stop>
        </linearGradient>
    </defs>
    <g id="Page-4" stroke="none" stroke-width="1" fill="none" fill-rule="evenodd">
        <g id="Caroki" transform="translate(-135.000000, -1649.000000)">
            <g id="Logo" transform="translate(135.000000, 1649.000000)">
                <polygon id="Fill-1" fill="url(#linearGradient-1)" points="44 24.8334655 50 24.8334655 50 18.8334655 44 18.8334655"></polygon>
                <path d="M39.9344676,0.833465504 L11.0653856,0.833465504 C4.96406115,0.833465504 0,5.42008089 0,11.0578091 L0,32.6091219 C0,38.2467065 4.96406115,42.8334655 11.0653856,42.8334655 L39.9344676,42.8334655 C46.0357554,42.8334655 51,38.2467065 51,32.6091219 L51,29.8124604 L44.9464101,29.8124604 L44.9464101,32.6091219 C44.9464101,35.162686 42.6980072,37.2401424 39.9344676,37.2401424 L11.0653856,37.2401424 C8.30177266,37.2401424 6.05344317,35.162686 6.05344317,32.6091219 L6.05344317,11.0578091 C6.05344317,8.50424499 8.30177266,6.42664499 11.0653856,6.42664499 L39.9344676,6.42664499 C42.6980072,6.42664499 44.9464101,8.50449627 44.9464101,11.0578091 L44.9464101,13.8544706 L51,13.8544706 L51,11.0578091 C51,5.42008089 46.0361223,0.833465504 39.9344676,0.833465504 Z" id="Fill-2" fill="url(#linearGradient-2)"></path>
                <path d="M82.0735,0.833465504 L58,42.8334655 L64.8482333,42.8334655 L70.1612333,33.5645322 L100.836567,33.5645322 L106.1492,42.8334655 L113,42.8334655 L88.9243,0.833465504 L82.0735,0.833465504 Z M97.4871795,28.3744491 L73.5128205,28.3744491 L73.5128205,28.3739784 L85.5014494,7.03018682 L97.4871795,28.3739784 L97.4871795,28.3744491 Z" id="Fill-3" fill="url(#linearGradient-3)"></path>
                <path d="M165.913455,33.3719783 C170.959273,32.4392552 174.774545,28.2995988 174.774545,23.3474758 L174.774545,11.0557988 C174.774545,5.41936294 169.832364,0.833465504 163.758182,0.833465504 L124,0.833465504 L124,42.8251373 L130.026545,42.8251373 L130.026545,33.5698091 L157.646545,33.5698091 L167.522182,42.8334655 L176,42.8334655 L165.915636,33.3733424 L165.913455,33.3719783 Z M129.621622,27.6859245 L129.621622,6.34166222 L163.289834,6.34166222 C166.036297,6.34166222 168.27027,8.39902019 168.27027,10.9272561 L168.27027,23.1004373 C168.27027,25.6288865 166.036297,27.6859245 163.289834,27.6859245 L129.621622,27.6859245 Z" id="Fill-4" fill="url(#linearGradient-4)"></path>
                <path d="M226.664245,0.856798837 C226.424288,0.840286016 226.179561,0.833465504 225.935201,0.833465504 L197.065165,0.833465504 C196.820806,0.833465504 196.575712,0.840286016 196.336489,0.856798837 C190.572755,1.20392704 186,5.64623473 186,11.0578809 L186,32.6090501 C186,38.2468501 190.963878,42.8334655 197.065165,42.8334655 L225.935201,42.8334655 C232.036122,42.8334655 237,38.2468501 237,32.6090501 L237,11.0578809 C237,5.64623473 232.427245,1.20392704 226.664245,0.856798837 Z M230.712329,32.6687002 C230.712329,35.2371855 228.489582,37.3252688 225.761172,37.3252688 L197.23919,37.3252688 C194.50788,37.3252688 192.287671,35.2371855 192.287671,32.6687002 L192.287671,10.9982669 C192.287671,8.42978158 194.50788,6.34166222 197.23919,6.34166222 L225.761172,6.34166222 C228.489582,6.34166222 230.712329,8.42978158 230.712329,10.9982669 L230.712329,32.6687002 Z" id="Fill-5" fill="url(#linearGradient-2)"></path>
                <polygon id="Fill-6" fill="url(#linearGradient-4)" points="292.522545 0.857157811 272.232727 19.8915578 272.197455 19.9241886 270.125818 21.8253527 270.148364 21.8465322 255.026545 36.0298604 255.026545 0.833465504 249 0.833465504 249 42.8334655 256.252364 42.8334655 274.387273 25.8216706 292.522545 42.8334655 301 42.8334655 278.626182 21.8465322 301 0.857157811"></polygon>
                <polygon id="Fill-7" fill="url(#linearGradient-5)" points="311 42.8334655 317 42.8334655 317 0.833465504 311 0.833465504"></polygon>
            </g>
        </g>
    </g>
</svg>