<?xml version="1.0" encoding="iso-8859-1"?>
<!-- Generator: Adobe Illustrator 16.0.0, SVG Export Plug-In . SVG Version: 6.00 Build 0)  -->
<!DOCTYPE svg PUBLIC "-//W3C//DTD SVG 1.0//EN" "http://www.w3.org/TR/2001/REC-SVG-20010904/DTD/svg10.dtd">
<svg version="1.0" id="Layer_1" xmlns="http://www.w3.org/2000/svg" xmlns:xlink="http://www.w3.org/1999/xlink" x="0px" y="0px"
	 width="309.708px" height="345.986px" viewBox="0 0 309.708 345.986" style="enable-background:new 0 0 309.708 345.986;"
	 xml:space="preserve">
<style type="text/css">
<![CDATA[
	.st0{fill:#FFFFFF;}
	.st1{fill:#331136;}
	.st2{fill:#340A37;}
	.st3{fill-rule:evenodd;clip-rule:evenodd;fill:#340A37;}
]]>
</style>
<circle class="st0" cx="155.728" cy="125" r="125"/>
<g>
	<g>
		<g>
			<path class="st3" d="M154.856,159.646c-4.114-0.023-8.202,0.211-12.235-1.391c-0.062,0.204-0.126,0.408-0.185,0.615
				c1.38,0.665,2.722,1.514,4.151,1.955c2.691,0.831,5.415,1.556,8.238,0.706c0.013-0.006,0.019-0.006,0.031-0.008
				c0.009,0.002,0.019,0.002,0.03,0.008c2.822,0.85,5.546,0.125,8.24-0.706c1.426-0.441,2.771-1.29,4.152-1.955
				c-0.062-0.207-0.125-0.411-0.186-0.615C163.054,159.856,158.97,159.622,154.856,159.646z"/>
		</g>
		<g>
			<path class="st3" d="M175.746,125.614c2.797-0.053,5.035-0.095,7.273-0.138c-8.676-4.717-15.848-3.57-19.139,3.08
				c1.307-1.045,2.152-1.72,3.023-2.413C170.246,129.011,173.466,128.63,175.746,125.614z"/>
		</g>
		<g>
			<path class="st3" d="M156.634,166.666c-0.005,0-0.009,0-0.015,0c-1.157,0-2.34,0-3.53,0c-0.006,0-0.01,0-0.014,0v0.113
				c-0.247,1.887-0.525,4.005-0.871,6.622c0.293,0,0.581,0,0.871,0c1.21,0,2.395,0,3.559,0c0.29,0,0.575,0,0.87,0
				c-0.346-2.617-0.621-4.735-0.87-6.622V166.666z"/>
		</g>
		<g>
			<path class="st3" d="M126.783,125.476c2.24,0.043,4.478,0.082,7.271,0.138c2.282,3.016,5.504,3.397,8.847,0.529
				c0.868,0.693,1.715,1.368,3.023,2.413C142.631,121.905,135.46,120.759,126.783,125.476z"/>
		</g>
		<g>
			<path class="st3" d="M233.541,144.453c0.186-1.749,0.305-3.518,0.373-5.302c9.709-5.311,19.426-10.616,29.143-15.914
				c1.398-0.762,1.885-1.573,1.697-3.117c-0.506-4.139-0.889-8.289-1.363-12.896c-9.977,7.09-19.898,14.143-29.797,21.179
				c-0.242-2.509-0.607-4.981-1.082-7.419c8.918-7.352,17.842-14.7,26.766-22.041c1.348-1.107,1.709-2.028,1.088-3.655
				c-1.732-4.555-3.322-9.169-5.139-14.226c-8.738,9.281-17.439,18.525-26.117,27.744c-0.996-2.701-2.141-5.331-3.416-7.882
				c7.594-9.081,15.189-18.162,22.791-27.236c1.229-1.466,1.447-2.462,0.295-4.038c-3.248-4.446-6.346-9.001-9.703-13.795
				c-6.965,11.031-13.904,22.021-20.83,32.987c-2.328-3.107-4.881-6.038-7.629-8.768c5.689-10.882,11.387-21.764,17.088-32.643
				c0.723-1.381,0.668-2.098-0.566-3.13c-6.408-5.359-13.234-10.071-20.924-14.069c-3.879,12.522-7.76,25.035-11.635,37.546
				c-3.211-1.863-6.566-3.507-10.041-4.912c2.637-12.859,5.275-25.729,7.914-38.615c-8.854-3.159-17.51-4.395-27.438-5.837
				c0,0-5.494-0.629-8.082-0.618c-0.695,0.004-1.391,0.021-2.077,0.047c-0.684-0.026-1.382-0.043-2.075-0.047
				c-2.587-0.011-8.083,0.618-8.083,0.618c-9.929,1.442-18.586,2.678-27.439,5.837c2.641,12.886,5.278,25.756,7.915,38.615
				c-3.477,1.405-6.83,3.049-10.039,4.912c-3.878-12.511-7.757-25.023-11.638-37.546c-7.688,3.998-14.513,8.71-20.921,14.069
				c-1.233,1.032-1.291,1.749-0.567,3.13c5.701,10.879,11.396,21.761,17.089,32.643c-2.751,2.729-5.303,5.66-7.63,8.768
				c-6.926-10.966-13.865-21.956-20.831-32.987c-3.355,4.794-6.456,9.349-9.702,13.795c-1.152,1.576-0.933,2.572,0.295,4.038
				c7.6,9.074,15.195,18.155,22.787,27.236c-1.273,2.551-2.417,5.181-3.412,7.882c-8.678-9.219-17.378-18.463-26.12-27.744
				c-1.814,5.057-3.404,9.671-5.138,14.226c-0.621,1.627-0.258,2.548,1.089,3.655c8.926,7.341,17.846,14.689,26.765,22.041
				c-0.474,2.438-0.838,4.91-1.083,7.419c-9.896-7.036-19.821-14.089-29.793-21.179c-0.48,4.606-0.86,8.757-1.364,12.896
				c-0.188,1.544,0.297,2.355,1.694,3.117c9.72,5.298,19.433,10.604,29.146,15.914c0.066,1.784,0.188,3.553,0.37,5.302
				c-10.453-5.044-20.936-10.104-31.465-15.188c0.283,3.719,0.576,7.047,0.774,10.381c0.081,1.384,0.658,2.043,2.009,2.522
				c10.018,3.579,20.029,7.173,30.039,10.765c0.423,1.959,0.918,3.891,1.482,5.788c-10.677-3.36-21.379-6.736-32.124-10.12
				c0.61,2.488,1.182,4.559,1.608,6.654c0.266,1.307,0.947,1.816,2.242,2.11c10.062,2.282,20.115,4.612,30.167,6.939
				c0.424,1.118,0.874,2.218,1.348,3.309c-10.664-2.338-21.354-4.68-32.089-7.035c0.422,1.296,0.708,2.246,1.047,3.182
				c2.126,5.876,2.14,5.789,8.315,6.523c8.503,1.008,17.002,2.04,25.503,3.078c0.579,1.079,1.181,2.147,1.809,3.203
				c-10.532-1.138-21.109-2.271-31.767-3.414c1.158,2.261,2.047,4.152,3.097,5.938c0.237,0.407,1.025,0.669,1.57,0.687
				c9.899,0.298,19.799,0.582,29.699,0.865c0.699,1.022,1.42,2.03,2.166,3.021c-10.028,0.388-20.096,0.771-30.24,1.165
				c2.06,2.89,3.912,5.31,5.563,7.861c0.188,0.292,0.379,0.54,0.58,0.748c3.621,4.585,6.769,8.074,11.117,12.045
				c0.386-0.293,1.406-1.375,1.631-1.677c4.397-5.889-5.749-8.721,1.232-11.447c6.789-2.655,13.088-5.635,20.118-7.643
				c0.477-0.136,2.042-0.484,7.603-2.239c3.268-0.869,8.9-2,12.617-2.611c4.549-0.751,8.32,0.458,9.104-1.945
				c0.322-0.98,0.113-0.798,0.203-1.628c0.889,0.973,4.95,3.771,5.905,4.629c4.792,4.316,6.431,5.759,12.389,7.512
				c1.583,0.465,2.5,2.284,3.963,2.951c0.432,0.2,0.944,0.355,1.469,0.452c0.524-0.097,1.034-0.252,1.471-0.452
				c1.461-0.667,2.377-2.486,3.959-2.951c5.959-1.753,7.598-3.195,12.393-7.512c0.951-0.857,5.014-3.656,5.906-4.629
				c0.088,0.83-0.123,0.647,0.203,1.628c0.781,2.403,4.551,1.194,9.1,1.945c3.719,0.611,9.352,1.742,12.621,2.611
				c5.559,1.755,7.127,2.104,7.6,2.239c7.031,2.008,13.33,4.987,20.119,7.643c6.98,2.727-3.164,5.559,1.23,11.447
				c0.227,0.302,1.246,1.384,1.633,1.677c4.346-3.971,7.496-7.46,11.117-12.045c0.199-0.208,0.389-0.456,0.582-0.748
				c1.646-2.552,3.502-4.972,5.562-7.861c-10.146-0.395-20.213-0.777-30.24-1.165c0.742-0.99,1.467-1.998,2.164-3.021
				c9.898-0.283,19.801-0.567,29.699-0.865c0.545-0.018,1.332-0.279,1.57-0.687c1.049-1.786,1.939-3.678,3.096-5.938
				c-10.658,1.144-21.234,2.276-31.764,3.414c0.625-1.056,1.229-2.124,1.809-3.203c8.5-1.038,16.998-2.07,25.502-3.078
				c6.176-0.734,6.188-0.647,8.314-6.523c0.34-0.936,0.623-1.886,1.049-3.182c-10.734,2.355-21.426,4.697-32.09,7.035
				c0.475-1.091,0.922-2.19,1.348-3.309c10.055-2.327,20.104-4.657,30.166-6.939c1.297-0.294,1.975-0.804,2.24-2.11
				c0.428-2.096,1.002-4.166,1.611-6.654c-10.744,3.384-21.449,6.76-32.127,10.12c0.564-1.897,1.061-3.829,1.484-5.788
				c10.008-3.592,20.021-7.186,30.039-10.765c1.35-0.479,1.928-1.139,2.01-2.522c0.197-3.334,0.488-6.662,0.773-10.381
				C254.476,134.349,243.996,139.409,233.541,144.453z M213.507,129.74c-3.469,6.817-10.727,11.845-18.35,12.708l-1.631,0.042
				C194.054,134.4,204.818,130.508,213.507,129.74z M193.378,95.779c0.863,0.176,1.441,1.826,1.871,2.697
				c1.293,2.609,2.662,5.13,3.309,8.087c0.865,3.649,1.439,12.607-0.719,15.912c0.543-0.853,0.432-2.393,0.432-5.219
				c0-2.435-0.072-4.781-0.287-7.217c-0.215-2.867-1.754-5.585-2.76-8.107c-0.721-1.912-0.836-4.501-1.918-6.064L193.378,95.779z
				 M189.205,96.211c2.16,1.512,4.316,5.469,5.254,7.845c1.223,3.166,2.016,7.554,1.223,10.866c-0.432-0.938-0.709-3.84-0.996-4.919
				c-0.65-2.229-0.945-2.926-1.953-5.012c-0.936-1.728-2.09-3.455-2.736-5.253c-0.43-1.152-0.43-2.446-0.863-3.527H189.205z
				 M190.716,104.774c1.859,4.003,2.791,8.787,2.805,13.223c-0.041-0.974-1.299-6.861-2.686-5.056
				c-0.938-2.733-1.439-4.965-2.594-7.625c-0.934-2.161-1.41-5.507-3.137-7.162l-0.145-0.144
				C188.195,98.083,189.708,102.472,190.716,104.774z M191.31,138.721c0,0-3.105-6.758-7.123-9.222
				c2.916-2.73,3.572-2.952,6.49-4.775c0.928,1.68,1.475,4.561,1.484,5.891C192.197,134.637,191.919,134.806,191.31,138.721z
				 M184.529,100.602v0.071c0.719,2.303,1.656,3.956,2.014,6.404c0.262,1.826-0.004,3.826,0.373,5.63
				c0.059,0.186,0.107,0.373,0.131,0.559c-0.055-0.185-0.094-0.371-0.131-0.559c-0.307-0.962-1.475-1.811-1.838-2.715
				c-0.576-1.369-1.225-2.591-1.512-4.104C183.351,104.666,183.593,101.464,184.529,100.602z M181.392,110.497
				c-0.18-2.884-2.223-3.957-3.654-6.44c-0.984-1.522-1.965-2.386-2.59-4.067c-0.18-0.479-0.244-2.738-0.332-2.898
				C179.376,100.774,181.392,104.971,181.392,110.497z M173.376,107.651c-0.074-1.077-0.074-3.094-1.008-3.741
				c-0.145,0.146-0.459,0.973-0.602,1.117c-1.297-1.296-1.125-5.794-1.27-7.52C173.015,99.233,174.525,104.774,173.376,107.651z
				 M167.187,104.343c0.143-0.792,0.766-3.271,0.693-3.849c0.791,1.006,0.961,4.135,0.676,5.36c-0.146,1.006-0.314,2.122-0.531,3.13
				c-0.217,0.792-0.623,1.475-0.98,2.268C167.33,109.163,166.755,106.429,167.187,104.343z M157.761,99.233
				c1.799,3.381,0.865,6.549-1.226,9.643C156.97,105.854,156.323,102.111,157.761,99.233z M156.656,96.608
				c0,1.87-0.048,6.51-1.413,8.021C155.243,103.48,154.856,98.769,156.656,96.608z M150.782,103.695
				c0.143-2.877,0.017-4.481,1.814-6.638c-0.689,1.205,0.302,2.626,0.202,4.983c-0.073,1.439-0.577,2.517-1.081,3.741
				c-0.577,1.511-0.433,3.814-0.648,5.324C151.07,108.659,150.71,106.142,150.782,103.695z M150.148,117.336h4.702h0.013h4.699
				h0.307c-0.158,0.508-2.986,4.09-4.847,6.127l-0.158,0.188l-0.174-0.188c-1.858-2.037-4.688-5.619-4.846-6.127H150.148z
				 M143.297,95.061c0,1.223,0.649,2.59,0.649,3.812c0,1.32-0.662,3.063-0.331,4.452C142.737,100.403,142.884,98.028,143.297,95.061
				z M138.045,105.782c0.072-1.368,0.36-2.807,0.793-4.103c0.287-0.937,1.149-1.941,1.149-3.022
				c0.288,2.376,1.306,4.752,0.803,7.125c-0.506,2.591-2.531,5.47-1.305,7.987C138.478,111.896,137.901,107.869,138.045,105.782z
				 M136.822,101.391c-0.143,0.721,0.576,3.312,0.29,4.535c-0.433,2.303-0.974,3.634-1.298,5.971
				C135.813,108.084,135.097,104.846,136.822,101.391z M131.641,94.305c0.937,3.021-0.205,6.98-0.781,9.859
				c-0.719,4.027-1.665,8.06-0.657,11.945c-1.871-4.176-2.303-9.356-0.935-13.89C129.986,99.631,131.21,96.966,131.641,94.305z
				 M128.979,99.738c0.072,3.237-1.224,6.188-1.511,9.354c-0.217,2.735-0.144,5.109-0.072,7.844
				c-0.361-3.743-1.368-7.557-0.578-11.298C127.18,103.91,128.835,101.033,128.979,99.738z M126.532,98.873
				c0.287,0.865-0.216,1.8-0.431,2.591c-0.287,1.224-0.359,2.446-0.719,3.67c-0.936,3.6-1.294,7.268-1.294,11.011
				C123.78,107.147,124.014,106.142,126.532,98.873z M122.36,100.89c0.864,1.006,0.503,3.453,0.503,4.748
				c-0.072,2.446-0.576,4.893-0.576,7.411c-0.359-2.084-0.936-4.173-0.936-6.33C121.352,105.134,121.208,102.111,122.36,100.89z
				 M125.524,129.499c-4.017,2.464-7.123,9.222-7.123,9.222c-0.61-3.915-0.886-4.084-0.852-8.106
				c0.012-1.33,0.561-4.211,1.485-5.891C121.954,126.547,122.609,126.769,125.524,129.499z M120.848,117.294
				c-1.943-2.088-2.95-6.979-2.663-9.786c0.288-3.021,1.511-4.604,3.021-7.05c-0.071,1.078-0.575,2.087-0.791,3.166
				c-0.216,1.295-0.288,2.732-0.432,4.102C119.554,111.035,119.696,114.201,120.848,117.294z M118.893,87.217
				c0.218,0.411,0.037,1.774-1.201,3.455c-1.146,1.44-1.792,2.915-3.13,4.208c-2.291,2.519-4.168,4.858-3.309,8.024
				C109.248,97.435,113.831,90.745,118.893,87.217z M115.883,104.056c-0.36,1.366-0.598,4.179-0.647,5.757
				c-1.08-3.311-0.577-10.074,1.871-12.666C117.898,99.233,116.387,101.97,115.883,104.056z M110.055,114.417
				c0.215,2.808,1.224,4.819,2.519,7.265c-3.597-1.438-5.037-7.912-4.101-11.223c0.504-1.8,1.439-3.382,2.374-4.821
				C110.487,108.444,109.839,111.539,110.055,114.417z M105.064,108.912c0.667-1.907,4.177-3.073,3.842-2.84
				c1.149-0.794-1.153,2.372-1.511,3.595c-0.433,1.655-1.585,3.023-2.088,4.676C105.02,112.69,104.417,110.497,105.064,108.912z
				 M116.186,142.49l-1.631-0.042c-7.623-0.861-14.882-5.891-18.351-12.708C104.896,130.508,115.657,134.4,116.186,142.49z
				 M82.079,142.101c13.898-1.639,23.521-2.734,34.107,6.448l-2.486,0.431C101.286,150.2,95.515,148.962,82.079,142.101z
				 M118.258,160.546c0.567,4.933-2.497,4.996-7.689,3.164c0.287,2.092,4.248,4.553,4.083,5.751
				c0.265,4.337-4.167,3.235-6.603,1.489c-0.37,6.896-11.35,1.292-7.146-5.685l-2.718,2.695
				c-3.89-9.953,12.597-21.525,22.441-14.948C114.778,155.978,118.144,156.508,118.258,160.546z M163.867,155.854
				c0,0,0.006,0.198,0.031,0.52c0.016,0.207,0.016,0.207,0.016,0.207s16.377-0.141,23.652-3.024
				c-0.268,1.952-1.031,3.844-1.676,5.445c-2.156,5.353-5.533,9.482-10.584,12.293c-0.279,0.159-5.34,3.22-7.486,4.781
				c-0.758,0.554-1.354,1.324-2.088,1.909c-3.244,2.572-6.93,3.251-10.869,3.144c-3.944,0.107-7.638-0.569-10.882-3.144
				c-0.737-0.585-1.332-1.355-2.09-1.909c-2.146-1.562-7.206-4.622-7.484-4.781c-5.053-2.811-8.429-6.94-10.584-12.293
				c-0.646-1.602-1.408-3.493-1.677-5.445c7.276,2.884,23.65,3.024,23.65,3.024s0,0,0.019-0.207c0.029-0.321,0.032-0.52,0.032-0.52
				s-17.552-1.905-24.453-5.266c-0.397-1.815-0.97-4.213-1.115-4.932c1.257,0.062,3.1,0.405,3.145,0.417
				c3.047,0.675,6.261,1.562,9.384,2.365c3.269,0.848,6.594,1.477,9.895,2.205c0.065-0.183,0.255-1.105,0.321-1.284
				c-1.395-0.464-13.194-3.449-17.764-4.684c-1.972-0.534-2.187-1.573-1.628-3.019c0.983-2.546,2.233-4.289,4.381-6.728
				c-0.066-0.105-0.856-1.061-0.935-1.005c-1.953,1.486-7.569,8.564-7.569,8.564l-0.378-1.536c0,0,3.775-7.397,6.743-9.818
				c0.747-0.607,1.51-1.195,2.191-1.735c-1.938-1.245-3.738-3.371-5.058-4.564c2.856-6.045,5.939-7.55,13.36-7.119
				c7.692,0.764,12.655,2.191,17.347,6.609c-1.147,0.906-2.08,1.937-3.272,2.871c0.492,0.3,1.229,1.279,1.229,1.279
				s1.257-1.134,3.18-2.521v-0.008c0.002,0,0.002,0.004,0.006,0.004c0,0,0.005-0.004,0.007-0.004v0.008
				c1.921,1.387,3.177,2.521,3.177,2.521s0.736-0.979,1.229-1.279c-1.191-0.935-2.125-1.965-3.269-2.871
				c4.691-4.418,9.654-5.846,17.345-6.609c7.422-0.431,10.506,1.074,13.359,7.119c-1.32,1.193-3.115,3.319-5.057,4.564
				c0.684,0.54,1.443,1.128,2.191,1.735c2.969,2.421,6.742,9.818,6.742,9.818l-0.379,1.536c0,0-5.615-7.078-7.57-8.564
				c-0.074-0.056-0.867,0.899-0.932,1.005c2.15,2.438,3.396,4.182,4.381,6.728c0.559,1.445,0.344,2.484-1.631,3.019
				c-4.568,1.234-16.363,4.22-17.758,4.684c0.062,0.179,0.254,1.102,0.318,1.284c3.299-0.729,6.625-1.359,9.896-2.205
				c3.121-0.804,6.332-1.69,9.381-2.369c0.045-0.008,1.887-0.352,3.145-0.413c-0.146,0.719-0.717,3.116-1.115,4.932
				C181.416,153.949,163.867,155.854,163.867,155.854z M211.527,167.961l-2.715-2.695c4.199,6.977-6.779,12.577-7.15,5.685
				c-2.436,1.746-6.869,2.848-6.602-1.489c-0.166-1.198,3.795-3.659,4.08-5.751c-5.189,1.832-8.254,1.769-7.688-3.164
				c0.115-4.038,3.482-4.568-2.367-7.533C198.929,146.436,215.414,158.008,211.527,167.961z M196.013,148.307l-2.486-0.427
				c10.586-9.183,20.211-8.093,34.107-6.452C214.197,148.293,208.427,149.533,196.013,148.307z"/>
		</g>
		<g>
			<path class="st3" d="M149.182,147.988c1.498-0.94,2.533-1.159,4.18-0.446c0.569,0.244,0.978,0.527,1.431,0.575v0.02
				c0.021,0,0.043-0.008,0.064-0.012c0.019,0.004,0.043,0.012,0.065,0.012v-0.02c0.454-0.048,0.881-0.286,1.428-0.575
				c1.539-0.816,2.585-0.413,4.179,0.446c1.469,0.788,1.828,0.4,2.559-0.367c-0.912-0.54-1.66-0.899-2.338-1.407
				c-1.16-0.867-2.268-1.32-3.607-0.413c-0.761,0.515-1.518,0.882-2.286,0.971c-0.768-0.089-1.522-0.456-2.288-0.971
				c-1.34-0.907-2.445-0.454-3.609,0.413c-0.676,0.508-1.425,0.867-2.336,1.407C147.356,148.389,147.772,148.873,149.182,147.988z"
				/>
		</g>
		<g>
			<path class="st3" d="M202.951,107.207c0.074-0.176,0.137-0.352,0.193-0.529"/>
		</g>
		<g>
			<path class="st3" d="M200.105,99.204c-0.678-0.773-1.668-1.628-2.582-2.574"/>
		</g>
	</g>
	<g>
		<path class="st2" d="M142.534,223.819c0.511-0.192,1.066-0.402,1.74-0.646c-0.769-0.961-1.245-1.623-1.79-2.227
			c-10.277-11.443-16.043-24.832-17.197-40.164c-0.146-1.927-2.843-4.405-2.843-4.405s-21.019,5.041-32.552,6.345
			c-13.809,1.565-25.815,0.339-25.815,0.339s9.532,14.058,10.204,15.492c1.323,2.213,2.81,4.358,4.46,6.431
			c0.258,0.321,0.521,0.639,0.783,0.953c5.254,6.273,11.634,11.261,18.691,14.785c0.084,0.04,0.17,0.085,0.254,0.125
			c0.241,0.121,0.484,0.236,0.726,0.355c0.276,0.129,0.554,0.26,0.834,0.385c0.077,0.032,0.152,0.069,0.227,0.105
			C113.485,227.63,128.627,228.454,142.534,223.819z M108.401,184.468c3.675-0.106,6.817-0.229,9.961-0.24
			c0.303,0,0.795,0.686,0.878,1.114c0.331,1.725,0.538,3.475,0.796,5.245C116.359,190.668,111.344,188.134,108.401,184.468z
			 M123.818,205.797c-0.597,0.034-1.197,0.062-1.792,0.019c-9.925-0.675-18.387-4.483-25.146-11.851
			c-4.2-4.583-4.124-4.779,1.77-6.756c1.317-0.437,2.499-0.927,3.681,0.5c4.581,5.52,10.608,8.513,17.584,9.784
			c0.712,0.131,1.746,0.399,1.986,0.909c1.077,2.261,1.915,4.634,2.806,6.881C124.109,205.639,123.968,205.787,123.818,205.797z
			 M84.806,202.322c-3.924-4.428-3.812-4.768,0.958-8.175c1.419-1.017,2.378-0.927,3.44,0.477
			c9.293,12.235,21.722,17.925,37.002,17.663c0.796-0.014,1.938,0.131,2.336,0.648c1.481,1.945,2.721,4.073,4.348,6.594
			c-1.308,0.256-2.041,0.466-2.787,0.533C112.035,221.742,96.875,215.944,84.806,202.322z"/>
		<g>
			<path class="st2" d="M102.079,190.293"/>
			<g>
				<path class="st1" d="M102.079,192.596c2.97,0,2.97-4.605,0-4.605S99.109,192.596,102.079,192.596L102.079,192.596z"/>
			</g>
		</g>
		<g>
			<line class="st2" x1="107.9" y1="195.368" x2="107.758" y2="195.189"/>
			<g>
				<path class="st1" d="M109.528,193.739c-0.047-0.06-0.095-0.119-0.142-0.179c-0.783-0.983-2.445-0.812-3.257,0
					c-0.962,0.963-0.78,2.275,0,3.258c0.047,0.06,0.095,0.119,0.142,0.179c0.783,0.983,2.445,0.812,3.257,0
					C110.491,196.034,110.309,194.722,109.528,193.739L109.528,193.739z"/>
			</g>
		</g>
		<g>
			<path class="st2" d="M114.841,197.785"/>
			<g>
				<path class="st1" d="M114.841,200.088c2.97,0,2.97-4.605,0-4.605S111.871,200.088,114.841,200.088L114.841,200.088z"/>
			</g>
		</g>
		<g>
			<path class="st2" d="M93.366,200.79"/>
			<g>
				<path class="st1" d="M93.366,203.093c2.97,0,2.97-4.605,0-4.605S90.396,203.093,93.366,203.093L93.366,203.093z"/>
			</g>
		</g>
		<g>
			<path class="st2" d="M99.224,205.539"/>
			<g>
				<path class="st1" d="M99.224,207.842c2.97,0,2.97-4.605,0-4.605S96.254,207.842,99.224,207.842L99.224,207.842z"/>
			</g>
		</g>
		<g>
			<path class="st2" d="M104.939,208.638c-0.034,0.327-0.034,0.327,0.144,0.182"/>
			<g>
				<path class="st1" d="M102.637,208.638c-0.03,0.301,0.005,0.572,0.074,0.88c0.158,0.697,0.87,1.505,1.608,1.609
					c0.521,0.072,0.733,0.146,1.252,0.003c0.489-0.134,0.752-0.371,1.14-0.682c0.982-0.786,0.814-2.443,0-3.258
					c-0.96-0.96-2.278-0.783-3.257,0c0.114-0.09,0.228-0.18,0.342-0.27c0.591-0.077,1.183-0.154,1.774-0.232
					c-0.009-0.001-0.018-0.002-0.027-0.003c0.536,0.536,1.072,1.072,1.608,1.608c0.042,0.527,0.072,0.643,0.09,0.344
					c0.124-1.252-1.141-2.303-2.303-2.303C103.59,206.335,102.76,207.389,102.637,208.638L102.637,208.638z"/>
			</g>
		</g>
		<g>
			<line class="st2" x1="111.449" y1="210.517" x2="111.591" y2="210.693"/>
			<g>
				<path class="st1" d="M109.82,212.146c0.047,0.059,0.095,0.117,0.143,0.177c0.789,0.979,2.44,0.816,3.257,0
					c0.958-0.958,0.788-2.281,0-3.258c-0.047-0.059-0.095-0.117-0.143-0.177c-0.789-0.979-2.44-0.816-3.257,0
					C108.862,209.846,109.033,211.169,109.82,212.146L109.82,212.146z"/>
			</g>
		</g>
		<g>
			<path class="st2" d="M117.271,212.641"/>
			<g>
				<path class="st1" d="M117.271,214.943c2.97,0,2.97-4.605,0-4.605S114.301,214.943,117.271,214.943L117.271,214.943z"/>
			</g>
		</g>
		<g>
			<line class="st2" x1="123.962" y1="212.9" x2="124.105" y2="213.083"/>
			<g>
				<path class="st1" d="M122.333,214.529c0.048,0.061,0.096,0.121,0.144,0.183c0.777,0.988,2.449,0.808,3.257,0
					c0.43-0.431,0.674-1.021,0.674-1.629c0-0.669-0.278-1.125-0.674-1.629c-0.048-0.061-0.096-0.121-0.144-0.183
					c-0.777-0.988-2.449-0.808-3.257,0c-0.43,0.431-0.674,1.021-0.674,1.629C121.659,213.569,121.938,214.025,122.333,214.529
					L122.333,214.529z"/>
			</g>
		</g>
		<g>
			<path class="st2" d="M81.777,209.157"/>
			<g>
				<path class="st1" d="M81.777,211.46c2.97,0,2.97-4.605,0-4.605S78.807,211.46,81.777,211.46L81.777,211.46z"/>
			</g>
		</g>
		<g>
			<path class="st2" d="M86.196,213.587"/>
			<g>
				<path class="st1" d="M86.196,215.89c2.97,0,2.97-4.605,0-4.605S83.226,215.89,86.196,215.89L86.196,215.89z"/>
			</g>
		</g>
		<g>
			<path class="st2" d="M91.517,217.294c0.144,0.185,0.144,0.185,0.144,0.185"/>
			<g>
				<path class="st1" d="M89.888,218.923c0.048,0.062,0.096,0.123,0.144,0.185c0.774,0.991,2.451,0.806,3.257,0
					c0.43-0.431,0.674-1.021,0.674-1.629c0-0.67-0.279-1.123-0.674-1.629c-0.048-0.062-0.096-0.123-0.144-0.185
					c-0.774-0.991-2.451-0.806-3.257,0c-0.43,0.431-0.674,1.021-0.674,1.629C89.214,217.964,89.493,218.416,89.888,218.923
					L89.888,218.923z"/>
			</g>
		</g>
		<g>
			<path class="st2" d="M97.376,220.571c-0.18,0.148-0.036,0.325,0.106,0.506"/>
			<g>
				<path class="st1" d="M95.388,219.409c-0.571,0.839-0.501,2.03,0.106,2.83c0.381,0.501,0.745,0.885,1.376,1.059
					c0.595,0.163,1.243,0.079,1.774-0.232c0.985-0.577,1.588-2.148,0.827-3.15c-0.071-0.08-0.129-0.169-0.174-0.266
					c0.105,0.388,0.209,0.775,0.314,1.163c-0.004-0.042-0.008-0.083-0.012-0.125c-0.104,0.388-0.209,0.775-0.314,1.162
					c0.026-0.038,0.053-0.077,0.08-0.116c0.708-1.039,0.2-2.55-0.827-3.15C97.399,217.915,96.093,218.374,95.388,219.409
					L95.388,219.409z"/>
			</g>
		</g>
		<g>
			<line class="st2" x1="103.309" y1="223.202" x2="103.451" y2="223.387"/>
			<g>
				<path class="st1" d="M101.32,224.364c0.047,0.062,0.095,0.123,0.142,0.185c0.385,0.5,0.742,0.884,1.376,1.059
					c0.595,0.163,1.243,0.079,1.775-0.232c0.979-0.573,1.594-2.153,0.826-3.15c-0.047-0.062-0.095-0.123-0.142-0.185
					c-0.385-0.5-0.742-0.884-1.376-1.059c-0.595-0.163-1.243-0.079-1.774,0.232C101.167,221.787,100.553,223.367,101.32,224.364
					L101.32,224.364z"/>
			</g>
		</g>
		<g>
			<path class="st2" d="M108.989,225.149"/>
			<g>
				<path class="st1" d="M108.989,227.452c2.97,0,2.97-4.605,0-4.605S106.019,227.452,108.989,227.452L108.989,227.452z"/>
			</g>
		</g>
		<g>
			<path class="st2" d="M115.678,226.882"/>
			<g>
				<path class="st1" d="M115.678,229.185c2.97,0,2.97-4.605,0-4.605S112.708,229.185,115.678,229.185L115.678,229.185z"/>
			</g>
		</g>
		<g>
			<path class="st2" d="M121.54,227.212c-0.036,0.323-0.036,0.323,0.145,0.181"/>
			<g>
				<path class="st1" d="M119.237,227.212c-0.032,0.3,0.003,0.57,0.073,0.877c0.159,0.699,0.869,1.502,1.608,1.608
					c0.517,0.075,0.738,0.146,1.252,0.004c0.497-0.136,0.743-0.372,1.142-0.68c0.995-0.77,0.803-2.454,0-3.258
					c-0.43-0.43-1.02-0.674-1.628-0.674c-0.672,0-1.12,0.281-1.628,0.674c0.113-0.09,0.227-0.181,0.341-0.271
					c0.591-0.077,1.183-0.154,1.774-0.232c-0.009-0.001-0.019-0.002-0.028-0.004c0.536,0.536,1.072,1.072,1.608,1.608
					c0.042,0.529,0.072,0.645,0.091,0.348c0.131-1.251-1.146-2.303-2.303-2.303C120.186,224.909,119.367,225.964,119.237,227.212
					L119.237,227.212z"/>
			</g>
		</g>
		<g>
			<path class="st2" d="M129.344,227.762"/>
			<g>
				<path class="st1" d="M129.344,230.064c2.97,0,2.97-4.605,0-4.605S126.374,230.064,129.344,230.064L129.344,230.064z"/>
			</g>
		</g>
		<g>
			<line class="st2" x1="135.928" y1="226.039" x2="136.108" y2="225.896"/>
			<g>
				<path class="st1" d="M137.556,227.668c0.06-0.048,0.12-0.096,0.18-0.144c0.983-0.784,0.812-2.445,0-3.258
					c-0.962-0.962-2.276-0.781-3.257,0c-0.06,0.048-0.12,0.096-0.18,0.144c-0.983,0.784-0.812,2.445,0,3.258
					C135.261,228.629,136.575,228.449,137.556,227.668L137.556,227.668z"/>
			</g>
		</g>
	</g>
	<g>
		<path class="st2" d="M209.451,221.692c0.074-0.036,0.15-0.073,0.229-0.105c0.277-0.125,0.557-0.256,0.83-0.385
			c0.244-0.119,0.486-0.234,0.727-0.355c0.086-0.04,0.172-0.085,0.256-0.125c7.059-3.524,13.439-8.512,18.691-14.785
			c0.262-0.314,0.525-0.632,0.783-0.953c1.654-2.072,3.137-4.218,4.461-6.431c0.67-1.435,10.205-15.492,10.205-15.492
			s-12.01,1.227-25.816-0.339c-11.533-1.304-32.555-6.345-32.555-6.345s-2.695,2.479-2.84,4.405
			c-1.156,15.332-6.92,28.721-17.199,40.164c-0.543,0.604-1.02,1.266-1.789,2.227c0.676,0.244,1.23,0.454,1.74,0.646
			C181.082,228.454,196.226,227.63,209.451,221.692z M189.669,190.587c0.262-1.771,0.467-3.521,0.795-5.245
			c0.086-0.429,0.58-1.114,0.881-1.114c3.145,0.011,6.287,0.134,9.961,0.24C198.365,188.134,193.347,190.668,189.669,190.587z
			 M185.001,205.283c0.891-2.247,1.729-4.62,2.805-6.881c0.24-0.51,1.271-0.778,1.986-0.909c6.977-1.271,13.004-4.265,17.584-9.784
			c1.182-1.427,2.363-0.937,3.682-0.5c5.893,1.977,5.969,2.173,1.768,6.756c-6.758,7.367-15.223,11.176-25.143,11.851
			c-0.596,0.043-1.197,0.016-1.793-0.019C185.738,205.787,185.599,205.639,185.001,205.283z M179.605,220.062
			c-0.748-0.067-1.479-0.277-2.787-0.533c1.627-2.521,2.865-4.648,4.348-6.594c0.396-0.518,1.539-0.662,2.336-0.648
			c15.281,0.262,27.707-5.428,37.002-17.663c1.059-1.403,2.021-1.493,3.441-0.477c4.768,3.407,4.879,3.747,0.959,8.175
			C212.832,215.944,197.675,221.742,179.605,220.062z"/>
		<g>
			<path class="st2" d="M207.63,190.293"/>
			<g>
				<path class="st1" d="M207.63,192.596c2.971,0,2.971-4.605,0-4.605S204.66,192.596,207.63,192.596L207.63,192.596z"/>
			</g>
		</g>
		<g>
			<line class="st2" x1="201.808" y1="195.368" x2="201.953" y2="195.189"/>
			<g>
				<path class="st1" d="M203.437,196.997c0.048-0.06,0.096-0.119,0.145-0.179c0.788-0.976,0.957-2.301,0-3.258
					c-0.817-0.816-2.467-0.977-3.258,0c-0.048,0.06-0.096,0.119-0.145,0.179c-0.788,0.976-0.957,2.3,0,3.258
					C200.997,197.813,202.646,197.974,203.437,196.997L203.437,196.997z"/>
			</g>
		</g>
		<g>
			<path class="st2" d="M194.867,197.785"/>
			<g>
				<path class="st1" d="M194.867,200.088c2.971,0,2.971-4.605,0-4.605S191.896,200.088,194.867,200.088L194.867,200.088z"/>
			</g>
		</g>
		<g>
			<path class="st2" d="M216.341,200.79"/>
			<g>
				<path class="st1" d="M216.341,203.093c2.971,0,2.971-4.605,0-4.605S213.371,203.093,216.341,203.093L216.341,203.093z"/>
			</g>
		</g>
		<g>
			<path class="st2" d="M210.482,205.539"/>
			<g>
				<path class="st1" d="M210.482,207.842c2.971,0,2.971-4.605,0-4.605S207.511,207.842,210.482,207.842L210.482,207.842z"/>
			</g>
		</g>
		<g>
			<path class="st2" d="M204.765,208.638c0.039,0.327,0.039,0.327-0.141,0.182"/>
			<g>
				<path class="st1" d="M202.462,208.638c0.021,0.299,0.053,0.184,0.094-0.344c0.536-0.536,1.072-1.072,1.608-1.608
					c-0.009,0.001-0.019,0.002-0.027,0.003c0.592,0.078,1.184,0.155,1.774,0.232c0.114,0.09,0.228,0.18,0.342,0.27
					c-0.502-0.396-0.962-0.674-1.629-0.674c-0.608,0-1.198,0.244-1.629,0.674c-0.81,0.811-0.985,2.477,0,3.258
					c0.194,0.153,0.381,0.32,0.592,0.45c0.583,0.359,1.158,0.318,1.802,0.229c0.73-0.104,1.462-0.912,1.608-1.609
					c0.065-0.312,0.105-0.577,0.07-0.88c-0.142-1.247-0.939-2.303-2.303-2.303C203.618,206.335,202.32,207.388,202.462,208.638
					L202.462,208.638z"/>
			</g>
		</g>
		<g>
			<line class="st2" x1="198.259" y1="210.517" x2="198.119" y2="210.693"/>
			<g>
				<path class="st1" d="M196.63,208.888c-0.047,0.06-0.094,0.118-0.141,0.177c-0.78,0.981-0.962,2.295,0,3.258
					c0.812,0.812,2.475,0.983,3.258,0c0.047-0.06,0.094-0.118,0.141-0.177c0.78-0.981,0.962-2.295,0-3.258
					C199.076,208.076,197.414,207.904,196.63,208.888L196.63,208.888z"/>
			</g>
		</g>
		<g>
			<path class="st2" d="M192.435,212.641"/>
			<g>
				<path class="st1" d="M192.435,214.943c2.971,0,2.971-4.605,0-4.605S189.464,214.943,192.435,214.943L192.435,214.943z"/>
			</g>
		</g>
		<g>
			<line class="st2" x1="185.746" y1="212.9" x2="185.601" y2="213.083"/>
			<g>
				<path class="st1" d="M184.117,211.271c-0.048,0.062-0.096,0.122-0.145,0.183c-0.396,0.502-0.674,0.962-0.674,1.629
					c0,0.608,0.244,1.198,0.674,1.629c0.811,0.81,2.477,0.985,3.258,0c0.048-0.062,0.096-0.122,0.145-0.183
					c0.396-0.502,0.674-0.962,0.674-1.629c0-0.608-0.244-1.198-0.674-1.629C186.564,210.462,184.898,210.286,184.117,211.271
					L184.117,211.271z"/>
			</g>
		</g>
		<g>
			<path class="st2" d="M227.931,209.157"/>
			<g>
				<path class="st1" d="M227.931,211.46c2.971,0,2.971-4.605,0-4.605S224.96,211.46,227.931,211.46L227.931,211.46z"/>
			</g>
		</g>
		<g>
			<path class="st2" d="M223.511,213.587"/>
			<g>
				<path class="st1" d="M223.511,215.89c2.971,0,2.971-4.605,0-4.605S220.541,215.89,223.511,215.89L223.511,215.89z"/>
			</g>
		</g>
		<g>
			<path class="st2" d="M218.191,217.294c-0.145,0.185-0.145,0.185-0.145,0.185"/>
			<g>
				<path class="st1" d="M216.562,215.665c-0.048,0.062-0.096,0.123-0.145,0.185c-0.395,0.505-0.674,0.96-0.674,1.629
					c0,0.608,0.244,1.198,0.674,1.629c0.808,0.807,2.482,0.989,3.258,0c0.048-0.062,0.096-0.123,0.145-0.185
					c0.395-0.505,0.674-0.96,0.674-1.629c0-0.608-0.244-1.198-0.674-1.629C219.012,214.858,217.337,214.676,216.562,215.665
					L216.562,215.665z"/>
			</g>
		</g>
		<g>
			<path class="st2" d="M212.332,220.571c0.18,0.148,0.037,0.325-0.105,0.506"/>
			<g>
				<path class="st1" d="M210.343,221.733c0.026,0.039,0.053,0.078,0.079,0.116c-0.104-0.387-0.21-0.774-0.314-1.162
					c-0.004,0.042-0.008,0.083-0.011,0.125c0.104-0.388,0.209-0.775,0.313-1.163c-0.044,0.097-0.103,0.186-0.173,0.266
					c-0.761,1.003-0.16,2.573,0.826,3.15c0.531,0.312,1.18,0.396,1.774,0.232c0.632-0.174,0.996-0.558,1.376-1.059
					c0.607-0.8,0.678-1.992,0.105-2.83c-0.706-1.035-2.01-1.494-3.15-0.826C210.143,219.184,209.634,220.695,210.343,221.733
					L210.343,221.733z"/>
			</g>
		</g>
		<g>
			<line class="st2" x1="206.398" y1="223.202" x2="206.257" y2="223.387"/>
			<g>
				<path class="st1" d="M204.41,222.04c-0.047,0.062-0.094,0.123-0.141,0.185c-0.763,1.001-0.158,2.574,0.826,3.15
					c0.531,0.312,1.18,0.396,1.774,0.232c0.633-0.174,0.995-0.558,1.376-1.059c0.047-0.062,0.094-0.123,0.141-0.185
					c0.763-1.001,0.158-2.574-0.826-3.15c-0.531-0.312-1.18-0.396-1.774-0.232C205.153,221.155,204.791,221.539,204.41,222.04
					L204.41,222.04z"/>
			</g>
		</g>
		<g>
			<path class="st2" d="M200.716,225.149"/>
			<g>
				<path class="st1" d="M200.716,227.452c2.971,0,2.971-4.605,0-4.605S197.746,227.452,200.716,227.452L200.716,227.452z"/>
			</g>
		</g>
		<g>
			<path class="st2" d="M194.029,226.882"/>
			<g>
				<path class="st1" d="M194.029,229.185c2.971,0,2.971-4.605,0-4.605S191.058,229.185,194.029,229.185L194.029,229.185z"/>
			</g>
		</g>
		<g>
			<path class="st2" d="M188.167,227.212c0.037,0.323,0.037,0.323-0.141,0.181"/>
			<g>
				<path class="st1" d="M185.865,227.212c0.021,0.297,0.051,0.182,0.092-0.348c0.537-0.536,1.073-1.072,1.609-1.608
					c-0.01,0.002-0.019,0.003-0.027,0.004c0.591,0.078,1.183,0.155,1.774,0.232c0.114,0.091,0.229,0.182,0.343,0.271
					c-0.505-0.396-0.96-0.674-1.629-0.674c-0.608,0-1.198,0.244-1.629,0.674c-0.807,0.808-0.989,2.481,0,3.258
					c0.194,0.152,0.379,0.319,0.59,0.448c0.585,0.354,1.158,0.323,1.802,0.228c0.735-0.108,1.457-0.907,1.608-1.608
					c0.067-0.31,0.105-0.576,0.072-0.877c-0.136-1.247-0.944-2.303-2.303-2.303C187.015,224.909,185.728,225.961,185.865,227.212
					L185.865,227.212z"/>
			</g>
		</g>
		<g>
			<path class="st2" d="M180.365,227.762"/>
			<g>
				<path class="st1" d="M180.365,230.064c2.971,0,2.971-4.605,0-4.605S177.394,230.064,180.365,230.064L180.365,230.064z"/>
			</g>
		</g>
		<g>
			<line class="st2" x1="173.781" y1="226.039" x2="173.599" y2="225.896"/>
			<g>
				<path class="st1" d="M175.41,224.41c-0.061-0.048-0.121-0.096-0.182-0.144c-0.503-0.396-0.962-0.674-1.629-0.674
					c-0.608,0-1.198,0.244-1.629,0.674c-0.81,0.811-0.986,2.478,0,3.258c0.061,0.048,0.121,0.096,0.182,0.144
					c0.503,0.396,0.962,0.674,1.629,0.674c0.608,0,1.198-0.244,1.629-0.674C176.219,226.857,176.396,225.19,175.41,224.41
					L175.41,224.41z"/>
			</g>
		</g>
	</g>
</g>
<path class="st0" d="M300.556,329.771h-0.273c-0.06,0-0.123-0.033-0.184-0.097l-0.089-0.086c-0.303,0-0.409,0.086-0.314,0.269
	c0.089,0.184-0.018,0.427-0.32,0.727l-0.089,0.092l-0.272-0.454l-0.543,0.454l-0.092-0.092c0-0.06-0.061-0.166-0.181-0.317
	c-0.121-0.148-0.244-0.226-0.361-0.226v-0.27c-0.424,0-0.638,0.21-0.638,0.634l-0.452-0.184c-0.059,0-0.12-0.031-0.181-0.092h-0.181
	l-0.181,0.275c-0.06-0.061-0.168-0.228-0.317-0.498c-0.153-0.272-0.226-0.468-0.226-0.59l-0.361,0.54l-0.365-0.183
	c-0.059-0.053-0.121-0.086-0.181-0.086l-0.45,0.183l-0.365-0.183l-0.092-0.271c-0.059-0.061-0.089-0.121-0.089-0.184l-0.361-0.722
	c-0.062-0.062-0.092-0.121-0.092-0.183l-0.092-0.271c-0.18,0-0.271-0.151-0.271-0.456v-2.625l0.271-0.907v-1.18
	c0-0.118,0.015-0.407,0.047-0.858c0.029-0.453,0.045-0.711,0.045-0.769l-0.092-9.062c-0.122-0.181-0.243-0.573-0.362-1.18
	c-0.124-0.604-0.21-1.028-0.271-1.269v-0.18c0-0.121-0.031-0.274-0.091-0.453c-0.061-0.182-0.092-0.303-0.092-0.365v-0.542
	c-0.06-0.062-0.088-0.183-0.088-0.36v-0.361c0-0.125-0.034-0.396-0.093-0.82c-0.06-0.419-0.12-0.692-0.183-0.815v-1.357
	c0-0.848-0.044-1.769-0.134-2.765c-0.093-0.994-0.136-1.795-0.136-2.399v-0.724c0-0.121,0.043-0.409,0.136-0.862
	c0.09-0.452,0.134-0.829,0.134-1.131v-2.446c0-0.062,0.049-0.272,0.14-0.639c0.089-0.36,0.136-0.663,0.136-0.905v-0.541
	c0-0.303,0.028-0.485,0.088-0.546v-0.633c0-1.027,0.077-1.887,0.227-2.582c0.149-0.693,0.227-1.616,0.227-2.764v-0.091
	c0-0.059,0.013-0.211,0.047-0.454c0.029-0.24,0.044-0.392,0.044-0.452v-0.544c0-0.12,0.014-0.452,0.046-0.996
	c0.031-0.546,0.06-1.102,0.091-1.677c0.027-0.572,0.058-1.132,0.092-1.675c0.027-0.545,0.043-0.876,0.043-0.999v-0.181
	c0-0.12-0.043-0.559-0.135-1.312c-0.091-0.756-0.137-1.193-0.137-1.316v-0.813c0-0.123,0.046-0.5,0.137-1.133
	c0.092-0.635,0.193-1.162,0.318-1.588l0.181-1.086c0-0.12,0.027-0.211,0.089-0.271l0.092-0.183c0-0.118,0.03-0.255,0.089-0.409
	c0.06-0.148,0.092-0.315,0.092-0.496l0.365-0.455c0.118-0.3,0.27-0.452,0.45-0.452l0.089-0.091c0.06,0,0.122-0.027,0.184-0.09
	l0.635-0.636h0.183c0.056,0,0.12-0.028,0.18-0.088l0.272-0.184c0.118,0,0.27-0.057,0.45-0.181c0.184-0.119,0.423-0.181,0.725-0.181
	h5.258c0.181,0,0.511-0.027,0.996-0.091c0.48-0.061,0.784-0.12,0.904-0.183l0.092,0.183l0.635,0.271l0.092-0.181
	c0.06-0.057,0.12-0.091,0.179-0.091l0.906,0.091c0.12,0,0.209-0.027,0.274-0.091l0.271-0.183c0.061,0.062,0.195,0.169,0.404,0.317
	c0.213,0.151,0.379,0.227,0.501,0.227l0.092,0.274c0.057,0.303,0.119,0.543,0.178,0.724c0.06,0.181,0.122,0.333,0.184,0.453
	l0.451,0.725c0.184,0.24,0.317,0.575,0.409,0.998c0.089,0.423,0.136,1.087,0.136,1.992c0,0.123-0.018,0.361-0.047,0.725
	s-0.042,0.758-0.042,1.179v1.269c0,0.481,0.013,0.921,0.042,1.313c0.029,0.395,0.061,0.815,0.092,1.268
	c0.028,0.455,0.058,0.969,0.092,1.541c0.028,0.575,0.045,1.312,0.045,2.219c0,1.693-0.031,2.841-0.092,3.443
	c-0.06,0.606-0.09,1.211-0.09,1.812v1.18c-0.123,0.122-0.181,0.454-0.181,0.996v0.998c-0.062,0.301-0.106,0.83-0.136,1.586
	c-0.033,0.756-0.045,1.191-0.045,1.314v2.083c0,0.124-0.018,0.332-0.045,0.633c-0.032,0.304-0.047,0.483-0.047,0.545v2.898
	c0,0.123,0.015,0.44,0.047,0.956c0.027,0.513,0.045,0.827,0.045,0.947v0.724c0,0.126,0.029,0.379,0.089,0.773
	c0.06,0.392,0.092,0.646,0.092,0.768v2.536c0,0.424,0.058,0.695,0.181,0.82v0.268c0,0.546,0.03,1.016,0.09,1.405
	c0.061,0.393,0.092,1.104,0.092,2.13v3.354c0,0.301,0.015,0.59,0.044,0.857c0.03,0.273,0.048,0.475,0.048,0.591
	c0,1.089-0.077,1.962-0.229,2.627c-0.151,0.666-0.226,1.393-0.226,2.177v0.904c-0.062,0.061-0.106,0.302-0.136,0.725
	c-0.033,0.424-0.045,0.666-0.045,0.724v1.091c0,0.299-0.034,0.679-0.092,1.132c-0.062,0.449-0.211,1.039-0.453,1.766
	c0,0.183-0.077,0.349-0.226,0.5c-0.149,0.146-0.226,0.375-0.226,0.679l-0.272,0.272c0,0.06-0.091,0.211-0.273,0.449
	c-0.184,0.247-0.302,0.397-0.361,0.454l-0.184,0.275c-0.06,0.061-0.089,0.12-0.089,0.178l-0.089,0.092l-0.363-0.27
	c-0.063,0-0.123-0.033-0.183-0.097l-0.269,0.097c-0.242,0-0.366,0.21-0.366,0.634l-0.271,0.179c0-0.06-0.017-0.191-0.046-0.406
	c-0.031-0.211-0.075-0.346-0.135-0.406l-0.092-0.275h-0.362l-0.181-0.179c-0.121-0.121-0.184-0.213-0.184-0.275l0.092-0.086h-0.178
	c-0.065,0-0.125-0.031-0.184-0.092l-0.273,0.092c0,0.118-0.029,0.215-0.089,0.27c-0.062,0.063-0.092,0.122-0.092,0.181l-0.272,0.269
	c-0.06,0.063-0.121,0.097-0.18,0.097l-0.997,0.634h-0.271c-0.06-0.061-0.091-0.121-0.091-0.184l-0.181-0.45l-0.725,0.996
	l-0.094-0.184c0-0.119-0.027-0.271-0.089-0.454c-0.061-0.181-0.09-0.358-0.09-0.541L300.556,329.771z M301.006,331.041l-0.183,0.087
	v-0.27L301.006,331.041z M304.358,323.519c-0.057,0-0.119-0.033-0.178-0.094l-0.092,0.094c0,0.059,0.027,0.121,0.092,0.184
	L304.358,323.519z"/>
<path class="st0" d="M0.271,304.308l-0.091,0.091c-0.121,0-0.18-0.061-0.18-0.18s0.059-0.181,0.18-0.181L0.271,304.308z
	 M42.496,320.526c-0.123,0-0.182-0.029-0.182-0.09l-0.271-0.091c-0.122,0.064-0.348,0.134-0.68,0.226
	c-0.333,0.092-0.559,0.138-0.68,0.138c0.182,0.183,0.455,0.269,0.817,0.269h0.633c0.12,0,0.181-0.025,0.181-0.086l-0.091,0.271
	h0.273c0.06,0,0.181-0.015,0.363-0.049c0.18-0.027,0.301-0.073,0.362-0.137c0,0.186-0.092,0.272-0.272,0.272l-1.086,0.366
	l1.81,0.273l0.091,0.539c-0.06,0-0.18,0.029-0.362,0.093c-0.181,0.062-0.333,0.122-0.454,0.182v0.272h1.269l-0.815,0.451
	c-0.422,0.242-1.088,0.362-1.994,0.362l-0.543,0.089c-0.061,0-0.153,0.045-0.271,0.139c-0.124,0.092-0.213,0.166-0.273,0.227
	l0.181,0.089c0.061,0.063,0.12,0.092,0.181,0.092h0.455c0.603,0,1.266-0.092,1.991-0.272c0.725-0.182,1.148-0.273,1.269-0.273
	l-0.181,0.365l-0.454,0.089c-0.06,0.063-0.151,0.092-0.27,0.092l-1.18,0.636c-0.061,0.06-0.212,0.122-0.452,0.18
	c-0.244,0.061-0.396,0.092-0.454,0.092c0.059,0.12,0.302,0.212,0.725,0.27c0.423,0.06,0.784,0.094,1.088,0.094
	c0,0.06-0.061,0.089-0.182,0.089l-0.996,0.455c-0.061,0.057-0.258,0.149-0.589,0.27c-0.333,0.123-0.529,0.181-0.589,0.181
	l-0.182,0.181l0.726,0.094c0.059,0,0.21-0.015,0.454-0.051c0.24-0.025,0.391-0.043,0.452-0.043l-1.449,0.727h0.181l-1.722,0.452
	c-0.062,0-0.181,0.015-0.363,0.049c-0.181,0.029-0.305,0.045-0.362,0.045c0.057,0,0.137,0.029,0.226,0.084
	c0.091,0.064,0.166,0.094,0.226,0.094h0.907c0.06,0,0.226-0.029,0.501-0.094c0.269-0.055,0.435-0.084,0.495-0.084l-0.09,0.178
	c-1.028,0-2.025,0.184-2.99,0.544l-0.273,0.093c-0.059,0.06-0.12,0.088-0.179,0.088l0.542,0.453l-1.902,0.546
	c0,0.061-0.09,0.089-0.271,0.089h-0.272c-0.605,0.421-1.269,0.635-1.995,0.635h-1.81c-0.123,0-0.333-0.06-0.635-0.182
	c-0.303-0.121-0.515-0.183-0.635-0.183h-1.812c-0.124,0-0.182-0.025-0.182-0.088h-4.893c-0.122,0-0.453,0.014-0.995,0.046
	c-0.544,0.026-1.134,0.074-1.768,0.134c-0.634,0.059-1.223,0.107-1.765,0.136c-0.545,0.031-0.877,0.045-0.999,0.045h-6.161
	l-0.725,0.542c-0.122,0.125-0.394,0.184-0.815,0.184H9.423c-0.484,0-0.937-0.121-1.359-0.359h-0.18c0,0.061-0.063,0.102-0.182,0.132
	c-0.121,0.029-0.211,0.044-0.271,0.044H6.797c-0.124,0-0.26-0.029-0.409-0.089c-0.151-0.058-0.349-0.087-0.588-0.087H5.708
	c-0.061,0-0.181-0.096-0.362-0.274l-1.268-1.176c-0.242-0.063-0.365-0.152-0.365-0.274l-0.179-0.09c0-0.304-0.105-0.603-0.319-0.907
	c-0.212-0.303-0.285-0.451-0.226-0.451l-0.632-0.366c0-0.058-0.032-0.117-0.093-0.179l-0.542-2.084l-0.272-0.273v-1.721l0.272-0.181
	l-0.272-0.089c0-0.063-0.016-0.184-0.045-0.363c-0.031-0.184-0.046-0.332-0.046-0.452l-0.181-0.544l0.181-0.366
	c0.06,0,0.091-0.116,0.091-0.358c-0.061-0.061-0.121-0.092-0.181-0.092l-0.182-0.454l0.271-1.18c0-0.058-0.03-0.191-0.09-0.404
	c-0.062-0.215-0.091-0.35-0.091-0.409l-0.09-0.274c-0.06,0-0.106-0.072-0.135-0.226c-0.032-0.149-0.046-0.256-0.046-0.315v-0.361
	c0-0.42-0.044-0.801-0.136-1.131c-0.092-0.337-0.136-0.714-0.136-1.133v-0.818c0-0.724-0.046-1.356-0.136-1.901
	c-0.09-0.543-0.136-1.149-0.136-1.813c0-0.965,0.029-1.478,0.09-1.535c-0.123,0-0.182-0.097-0.182-0.277v-0.543
	c0-0.121,0.017-0.408,0.046-0.859c0.029-0.453,0.074-0.741,0.135-0.861v-0.093c-0.061-0.117-0.106-0.375-0.135-0.767
	c-0.029-0.396-0.046-0.649-0.046-0.775v-0.087c0-0.119,0.091-0.528,0.273-1.225c0.181-0.694,0.269-1.342,0.269-1.95v-4.889
	c-0.119,0-0.179-0.122-0.179-0.365v-0.178c0-0.062,0.014-0.169,0.044-0.32c0.031-0.148,0.076-0.258,0.135-0.316
	c0-0.362-0.028-0.573-0.088-0.635l-0.454-1.269v-8.153c0-0.302,0.059-0.708,0.182-1.224c0.121-0.512,0.182-1.042,0.182-1.585v-0.453
	c0-0.543,0.031-0.965,0.09-1.27c0.06-0.301,0.12-0.542,0.181-0.726l0.271-0.631l0.091-0.637c0.06-0.181,0.09-0.3,0.09-0.361v-0.365
	c0-0.059,0.015-0.166,0.046-0.314c0.03-0.149,0.045-0.258,0.045-0.318l0.272-0.272v-0.269c0-0.061,0.029-0.122,0.091-0.184
	l0.18-0.996c0-0.06,0.015-0.137,0.046-0.226c0.028-0.092,0.044-0.166,0.044-0.227l0.181-0.272l-0.181-0.271l0.181-0.271
	c-0.12-0.121-0.181-0.304-0.181-0.545l-0.09-1.178c0-0.361,0.03-0.575,0.09-0.634v-0.092c0-0.119,0.061-0.239,0.181-0.36
	l-0.181-0.727c0-0.12,0.061-0.181,0.181-0.181l0.272-0.091c0-0.058,0.03-0.121,0.09-0.181l-0.27-0.09l0.542-0.362
	c0.482,0,1.012-0.062,1.585-0.184c0.574-0.119,0.892-0.21,0.951-0.271l0.545-0.363l4.167-1.089c0.423,0,0.863-0.056,1.313-0.18
	c0.455-0.119,1.011-0.255,1.678-0.406c0.664-0.151,1.477-0.287,2.446-0.409c0.966-0.121,2.172-0.181,3.624-0.181l0.362,0.089
	c0.06,0.065,0.15,0.092,0.273,0.092h0.633c0.12,0,0.454,0.015,0.998,0.048c0.543,0.029,0.875,0.044,0.997,0.044h0.182
	c0.119,0,0.285-0.015,0.497-0.044c0.21-0.033,0.348-0.048,0.407-0.048c0.061,0,0.332,0.015,0.818,0.048
	c0.483,0.029,0.753,0.044,0.814,0.044h0.453c0.121,0,0.423-0.015,0.907-0.044c0.48-0.033,0.752-0.048,0.814-0.048h1.722
	c0.06,0,0.194,0.015,0.408,0.048c0.21,0.029,0.345,0.044,0.408,0.044h1.178c0.061,0,0.256,0.045,0.587,0.137
	c0.333,0.089,0.529,0.136,0.589,0.136h1.905c0.059,0,0.121-0.029,0.18-0.092h0.814l-0.271,0.092v0.182l0.362,0.181h0.726
	c0.058,0,0.148-0.06,0.271-0.181l0.273-0.182h-0.998l0.544-0.272c0.181,0,0.513,0.045,0.998,0.137
	c0.482,0.089,0.994,0.195,1.539,0.317l1.631,0.361c0.544,0.122,0.996,0.24,1.358,0.364l0.907,0.182
	c-0.062,0-0.123,0.029-0.182,0.089v0.181l0.363,0.272c0.059,0.062,0.15,0.089,0.271,0.089v0.273c0,0.121,0.06,0.168,0.181,0.136
	c0.122-0.029,0.241,0.016,0.365,0.137l0.179,0.452c0.061,0,0.167,0.061,0.318,0.183c0.15,0.119,0.256,0.213,0.317,0.271l0.543,0.904
	c0.06,0,0.241,0.137,0.544,0.409c0.3,0.272,0.454,0.438,0.454,0.498l0.544,0.907v0.272c0.059,0.06,0.09,0.18,0.09,0.362v1.539
	c0,0.182-0.031,0.273-0.09,0.273v0.27c0,0.303-0.122,0.575-0.363,0.818l-1.357,1.448c0,0.183-0.124,0.271-0.364,0.271l-0.272,0.361
	c-0.121,0-0.363,0.031-0.725,0.092c-0.362,0.06-0.604,0.091-0.724,0.091l-0.363,0.09c-0.121,0-0.181,0.137-0.181,0.409
	c0,0.271-0.18,0.405-0.543,0.405l-0.635,0.726l-1.178,0.635c0,0.181-0.03,0.287-0.09,0.317c-0.063,0.029-0.153,0.106-0.272,0.226
	l-0.452,0.272c-0.123,0-0.394,0.047-0.818,0.136c-0.42,0.09-0.846,0.137-1.265,0.137h-1.995c-1.449,0-2.916,0.06-4.394,0.18
	c-1.481,0.123-2.613,0.425-3.398,0.906l-2.265,0.545c-0.122,0-0.484,0.077-1.086,0.227c-0.605,0.151-1.087,0.227-1.451,0.227h-0.271
	c-0.183,0-0.68,0.046-1.496,0.135c-0.816,0.092-1.315,0.137-1.496,0.137h-0.271c-0.063,0.06-0.273,0.089-0.636,0.089h-0.723
	c-0.363,0-0.576,0.032-0.637,0.089l-0.09,0.095c0,0.06-0.015,0.148-0.046,0.271c-0.03,0.12-0.044,0.241-0.044,0.363v0.634
	c0,0.485,0.06,0.967,0.18,1.448c0.122,0.485,0.182,0.878,0.182,1.179v2.444c0,1.21,0.028,1.844,0.092,1.904
	c0.119,0,0.346,0.017,0.677,0.045c0.333,0.031,0.681,0.061,1.044,0.092s0.679,0.061,0.95,0.089c0.272,0.034,0.467,0.048,0.589,0.048
	h0.725c0.362,0,0.755,0.041,1.178,0.136c0.422,0.089,1.118,0.134,2.084,0.134l0.362-0.181l0.273,0.272l0.723,0.272h-2.172
	l0.271,0.088c0.239,0.363,0.905,0.547,1.993,0.547h0.271c0,0.06,0.06,0.089,0.182,0.089l1.269,0.094l-0.453,0.269l0.09,0.09
	l-0.271,0.183c-0.061,0-0.09,0.06-0.09,0.184v0.27c-0.666,0-0.998,0.106-0.998,0.317s-0.244,0.317-0.725,0.317h-0.09l0.362,0.087
	c0.058,0,0.136,0.037,0.227,0.094c0.09,0.062,0.165,0.09,0.227,0.09l-0.272,0.182h2.267l-0.636,0.181
	c0.059,0.063,0.12,0.094,0.181,0.094l0.362,0.27l-0.18,0.362h1.086c0,0.124-0.12,0.213-0.361,0.273
	c-0.243,0.06-0.362,0.183-0.362,0.366l0.089,0.084l-1.45,0.546c0.242,0,0.393,0.029,0.452,0.092h0.726
	c0,0.057,0.076,0.163,0.226,0.314c0.151,0.152,0.257,0.227,0.319,0.227l0.181,0.093l-0.091,0.09c0,0.06-0.06,0.089-0.18,0.089
	h-0.093c-0.06,0.061-0.09,0.124-0.09,0.179v0.094c-0.061,0.06-0.121,0.089-0.179,0.089h-0.182c-0.062,0-0.122,0.033-0.183,0.091
	v0.272l0.365-0.088c0.059,0.06,0.179,0.103,0.362,0.133c0.18,0.031,0.331,0.081,0.451,0.138c-0.302,0-0.484,0.029-0.544,0.087
	l-0.269,0.182h1.267c-0.122,0.127-0.227,0.173-0.316,0.141c-0.091-0.03-0.137,0.015-0.137,0.132h-0.18l-0.181,0.364
	c-0.062,0.058-0.123,0.089-0.183,0.089l-0.09,0.094c-0.179,0-0.408,0.061-0.679,0.184c-0.273,0.119-0.408,0.209-0.408,0.27
	l0.182,0.177c0.059,0.062,0.182,0.097,0.361,0.097h0.365l-0.273,0.179c-0.243,0-0.363,0.092-0.363,0.272
	c0.059,0,0.165,0.016,0.317,0.045c0.15,0.029,0.256,0.045,0.319,0.045l0.09,0.089c0.059,0.062,0.119,0.095,0.179,0.095l-0.905,0.361
	l-0.09,0.543l-0.545,0.637c-0.122,0.119-0.211,0.181-0.271,0.181h0.361c-0.121,0.119-0.422,0.374-0.906,0.769
	c-0.481,0.393-0.876,0.649-1.176,0.767h0.814l-1.359,0.726l-1.902,0.547c-0.544,0-0.969,0.017-1.269,0.043
	c-0.304,0.034-0.544,0.079-0.725,0.135c-0.182,0.062-0.348,0.108-0.499,0.14c-0.152,0.031-0.378,0.043-0.679,0.043l-0.182,0.092
	c-0.061,0-0.135,0.017-0.227,0.045c-0.09,0.032-0.195,0.044-0.317,0.044v3.716c0,0.124,0.015,0.437,0.046,0.955
	c0.029,0.513,0.046,0.827,0.046,0.947v1.085h3.714l-0.271,0.366h1.087c0.24,0,0.619-0.029,1.131-0.094
	c0.51-0.059,0.83-0.114,0.952-0.175h0.271c0.062,0,0.122-0.035,0.183-0.098h0.544c0.482,0,0.919-0.058,1.312-0.178
	c0.392-0.12,0.92-0.184,1.586-0.184c0.12,0,0.271,0.018,0.454,0.05c0.181,0.028,0.363,0.043,0.542,0.043l1.179,0.091
	c0.121,0.12,0.363,0.178,0.724,0.178l0.908-0.269l0.272,0.541c0.119,0.123,0.239,0.184,0.361,0.184h1.178
	c0.06,0.06,0.15,0.091,0.273,0.091h0.452c0.422,0,0.664,0.032,0.724,0.092h0.906c0.122,0,0.212,0.03,0.272,0.091h0.183
	c-0.062,0-0.093,0.063-0.093,0.182c0,0.119,0.031,0.18,0.093,0.18c0.118,0,0.181-0.061,0.181-0.18c0-0.118-0.063-0.182-0.181-0.182
	h0.271c0,0.123,0.029,0.182,0.092,0.182h0.27v-0.272c0.12,0,0.182,0.058,0.182,0.18l-0.091,0.364h3.081l-0.363,0.183l0.181,0.087
	c0.059,0,0.151,0.017,0.272,0.045c0.121,0.034,0.183,0.079,0.183,0.138h0.362l-1.088,0.725h-1.268l0.181,0.182
	c0.059,0.062,0.151,0.087,0.272,0.087h0.362c0.06,0.062,0.121,0.097,0.182,0.097l0.181,0.089l-0.09,0.089
	c0,0.123,0.09,0.181,0.271,0.181l0.453-0.181h0.817l-0.364,0.544c0.059,0,0.166,0.046,0.316,0.135
	c0.15,0.092,0.257,0.135,0.318,0.135v0.547l0.181-0.449c0.06,0,0.15,0.025,0.273,0.085c0.121,0.061,0.239,0.092,0.363,0.092v0.363
	h0.543l-0.725,0.361c-0.06,0.062-0.121,0.089-0.181,0.089V320.526z M3.534,269.151c0.362,0,0.572-0.026,0.635-0.089h0.18
	c0,0.062-0.122,0.154-0.362,0.272c-0.243,0.122-0.452,0.18-0.634,0.18H3.17c-0.061,0-0.15-0.014-0.272-0.046
	c-0.121-0.029-0.211-0.044-0.272-0.044c0.242,0,0.362-0.09,0.362-0.273H3.534z M3.081,270.149c-0.061,0-0.092,0.061-0.092,0.183
	H3.17L3.081,270.149z M3.807,271.871l-0.094,0.362h0.273c0.06,0,0.12-0.03,0.183-0.092l0.543-0.36H4.078L3.807,271.871z
	 M4.712,268.882h0.271l-0.181,0.089L4.712,268.882z M25.462,293.707c-0.064,0.063-0.124,0.092-0.183,0.092L25.462,293.707z
	 M26.095,293.888l-0.362,0.092v-0.092c0-0.117,0.061-0.181,0.181-0.181L26.095,293.888z M26.366,295.338
	c-0.181,0-0.271,0.029-0.271,0.09l0.181,0.094C26.335,295.521,26.366,295.459,26.366,295.338z M26.366,294.252
	c0-0.121,0.06-0.181,0.183-0.181c0.12,0,0.18,0.06,0.18,0.181H26.366z M27.455,296.063l-0.183,0.089
	c-0.061,0-0.151-0.061-0.271-0.178c0-0.062,0.059-0.092,0.181-0.092l0.362,0.092L27.455,296.063z M27.544,295.521l-0.18,0.089
	v-0.272L27.544,295.521z M27.816,302.496c0,0.122-0.061,0.183-0.179,0.183c-0.063,0-0.093-0.061-0.093-0.183
	c0-0.124,0.03-0.181,0.093-0.181L27.816,302.496z M27.637,295.338v-0.088c0-0.123,0.059-0.181,0.179-0.181L27.637,295.338z
	 M28.27,297.15l-0.181-0.092h0.361L28.27,297.15z M33.436,315.45v-0.085c0-0.124,0.058-0.184,0.18-0.184L33.436,315.45z
	 M37.422,315.723l-0.092,0.094c-0.123,0-0.182-0.062-0.182-0.181c0-0.123,0.059-0.186,0.182-0.186L37.422,315.723z M37.601,315.365
	l-0.179,0.085v-0.269L37.601,315.365z M38.509,316.269l-0.273,0.093c-0.123,0-0.211-0.032-0.272-0.093l-0.09-0.089
	c0-0.061,0.121-0.091,0.362-0.091c0.241,0,0.362,0.03,0.362,0.091L38.509,316.269z M38.599,315.816l-0.181,0.181l-0.273-0.181
	H38.599z M39.143,315.272c0,0.059-0.029,0.12-0.092,0.178l-0.179,0.366v-0.269l-0.273-0.275H39.143z M38.96,316.361
	c-0.06,0-0.089-0.059-0.089-0.182h0.179L38.96,316.361z M39.143,317.356c0,0.121,0.06,0.181,0.181,0.181
	c0.119,0,0.181-0.06,0.181-0.181c0-0.12-0.062-0.181-0.181-0.181L39.143,317.356z M40.32,315.272v0.178h-0.634
	c-0.122,0-0.182-0.058-0.182-0.178H40.32z M39.596,316.089c-0.063,0-0.092-0.06-0.092-0.183h0.182L39.596,316.089z M40.954,315.723
	l-0.09,0.094c-0.124,0-0.182-0.062-0.182-0.181c0-0.123,0.059-0.186,0.182-0.186L40.954,315.723z M40.864,316.633h1.178l-0.18,0.183
	h-0.908L40.864,316.633z M41.68,327.688l-0.181-0.186c0-0.058,0.029-0.117,0.089-0.179c0.121,0,0.183,0.062,0.183,0.179
	L41.68,327.688z M41.862,317.085c0.12,0,0.329-0.044,0.634-0.138c0.302-0.092,0.483-0.132,0.542-0.132h0.182
	c0.121,0,0.181,0.087,0.181,0.27c-0.123,0-0.288,0.017-0.5,0.043c-0.212,0.034-0.347,0.048-0.406,0.048L41.862,317.085z
	 M42.223,318.625l-0.09,0.639l-0.09-0.55L42.223,318.625z M42.496,315.45l-0.182,0.098v-0.275L42.496,315.45z M42.496,316.722
	l-0.182,0.094v-0.274L42.496,316.722z M42.586,319.166l-0.09,0.098c-0.123,0-0.182-0.062-0.182-0.187
	c0-0.121,0.059-0.181,0.182-0.181L42.586,319.166z M42.313,325.515v-0.098c0-0.117,0.059-0.178,0.182-0.178L42.313,325.515z
	 M42.676,318.353l-0.181-0.089l0.09-0.089c0.181,0,0.272,0.029,0.272,0.089L42.676,318.353z M42.676,325.239v-0.091
	c0-0.12,0.059-0.183,0.182-0.183L42.676,325.239z M43.22,316.541c-0.061,0-0.122,0.029-0.182,0.092c-0.18,0-0.271-0.062-0.271-0.184
	c0-0.062,0.059-0.088,0.181-0.088C43.128,316.361,43.22,316.424,43.22,316.541z M43.22,318.264v-0.089
	c0-0.122,0.059-0.184,0.181-0.184L43.22,318.264z M43.401,319.44l-0.181,0.089v-0.266L43.401,319.44z M43.22,323.789v-0.09
	c0-0.119,0.059-0.181,0.181-0.181L43.22,323.789z M43.401,326.688H43.22l0.273-0.181L43.401,326.688z M43.672,325.515
	c0,0.117-0.06,0.18-0.179,0.18c-0.062,0-0.092-0.062-0.092-0.18c0-0.125,0.03-0.184,0.092-0.184L43.672,325.515z M43.493,319.804
	v-0.091c0-0.121,0.06-0.184,0.179-0.184L43.493,319.804z M43.945,316.541l-0.182,0.092v-0.271L43.945,316.541z M43.945,317.085
	l-0.182,0.091v-0.273L43.945,317.085z M43.854,324.693v-0.089c0-0.12,0.06-0.181,0.181-0.181L43.854,324.693z"/>
<path class="st0" d="M59.619,267.159l-0.179,0.089c0,0.062,0.073,0.154,0.226,0.273c0.149,0.123,0.255,0.213,0.315,0.272
	l0.634-0.727l-0.179,0.364c0,0.06,0.013,0.137,0.042,0.226c0.03,0.09,0.047,0.196,0.047,0.317l0.362-0.27
	c0.122-0.061,0.317-0.151,0.59-0.273c0.272-0.121,0.466-0.184,0.59-0.184l0.179,0.184c0.06,0.06,0.124,0.09,0.183,0.09l0.272,0.272
	c0.06,0.121,0.208,0.226,0.452,0.318c0.241,0.091,0.394,0.135,0.454,0.135l0.271,0.273h0.362c0,0.299,0.183,0.45,0.545,0.45
	l0.272,0.092c0,0.062,0.03,0.12,0.089,0.181l0.362-0.181v0.272c0.062,0.18,0.077,0.285,0.047,0.316
	c-0.032,0.031,0.015,0.105,0.136,0.225l0.179,0.183v0.544c0,1.21,0.047,2.132,0.136,2.762c0.094,0.635,0.183,1.15,0.273,1.541
	c0.089,0.395,0.183,0.741,0.272,1.044c0.092,0.303,0.136,0.693,0.136,1.176v0.183c0.058,0,0.09,0.059,0.09,0.181v1.905
	c0,0.06,0.047,0.285,0.136,0.678c0.089,0.392,0.136,0.621,0.136,0.679v2.175c0,0.123-0.029,0.498-0.089,1.133
	c-0.062,0.634-0.124,1.103-0.183,1.404v0.724c0,0.427-0.032,0.669-0.09,0.727v0.271c0,0.484-0.032,0.982-0.091,1.494
	c-0.062,0.516-0.09,0.894-0.09,1.135v0.812c0,0.062-0.015,0.243-0.044,0.546c-0.033,0.304-0.079,0.637-0.136,0.996l-0.092,2.355
	c0,0.424-0.017,0.874-0.045,1.36c-0.032,0.486-0.046,0.939-0.046,1.359v0.814c0,0.124-0.03,0.439-0.09,0.952
	c-0.06,0.513-0.089,0.981-0.089,1.4v5.26c0,0.667,0.042,1.467,0.136,2.399c0.089,0.937,0.134,1.766,0.134,2.491v1.27
	c0,0.483,0.045,0.951,0.134,1.402c0.094,0.458,0.139,0.836,0.139,1.134l0.181,0.092c0.058,0.06,0.149,0.091,0.273,0.091h0.362
	c0.06,0.062,0.241,0.104,0.543,0.136c0.3,0.028,0.513,0.045,0.635,0.045c1.509,0,2.883-0.076,4.122-0.228
	c1.237-0.147,2.523-0.227,3.852-0.227c0.119,0,0.241,0.016,0.362,0.045c0.119,0.034,0.272,0.046,0.454,0.046h0.634
	c0.845,0,1.706,0.076,2.583,0.227c0.873,0.151,1.614,0.227,2.218,0.227l2.9,0.547c0.665,0.122,1.252,0.258,1.768,0.406
	c0.511,0.149,0.767,0.288,0.767,0.408l-0.269,0.089v0.364l0.269,0.089c0.059,0.062,0.183,0.094,0.364,0.094h0.273l0.092,0.449
	c-0.06,0.062-0.092,0.123-0.092,0.184l0.272,0.449c0.057,0.063,0.122,0.094,0.181,0.094c-0.124,0.123-0.181,0.394-0.181,0.814v0.458
	c-0.122,0.117-0.181,0.209-0.181,0.266l0.723,0.184v0.362c-0.123,0-0.225,0.063-0.315,0.179c-0.091,0.126-0.17,0.183-0.228,0.183
	v0.636h1.178v0.269h-0.182l-0.091,0.275h-1.358c0.119,0.12,0.24,0.214,0.364,0.273c0.117,0.058,0.33,0.085,0.632,0.085l-0.542,0.366
	c0,0.057-0.089,0.117-0.272,0.181c-0.181,0.062-0.303,0.122-0.362,0.182v0.185h0.634l-0.272,0.177l0.272,0.272
	c-0.122,0-0.272,0.09-0.454,0.271h0.454l0.181-0.271h0.454c0.06,0.062,0.09,0.122,0.09,0.182v0.181h-1.178
	c0,0.124,0.03,0.212,0.09,0.271c0.059,0.064,0.091,0.123,0.091,0.182c-0.122,0.124-0.303,0.181-0.543,0.181l0.271,0.092
	c0.06,0.061,0.151,0.091,0.273,0.091h0.092c0.059,0,0.119,0.032,0.181,0.09c-0.062,0.06-0.122,0.089-0.181,0.089l-0.454,0.272
	c-0.182,0-0.275,0.094-0.275,0.273l0.275,0.361v0.366c-0.424,0.117-0.68,0.194-0.771,0.226c-0.089,0.029-0.198,0.046-0.318,0.046
	c0.12,0.115,0.241,0.178,0.362,0.178c0.12,0,0.243,0.032,0.366,0.092h0.179l-0.362,0.092c0,0.062-0.046,0.137-0.136,0.226
	c-0.091,0.087-0.136,0.169-0.136,0.226h0.272l-0.454,0.545l0.092,0.272h0.452l-0.907,0.543c0,0.062,0.093,0.137,0.272,0.226
	c0.184,0.09,0.362,0.136,0.545,0.136l-0.272,0.271h-0.452c-0.242,0-0.396,0.029-0.456,0.092l-0.181,0.181
	c-0.24,0.242-0.56,0.421-0.952,0.543c-0.392,0.121-0.679,0.184-0.86,0.184h-0.635l0.09-0.092c0.059,0,0.122-0.015,0.183-0.043
	c0.059-0.032,0.149-0.049,0.272-0.049l-0.272-0.269h-0.818c-0.724,0-1.116-0.032-1.175-0.094h-0.272
	c-0.06,0.062-0.303,0.094-0.727,0.094h-0.453l-0.271,0.269l0.271,0.092h-1.357c-0.606,0-1.254,0.017-1.948,0.044
	c-0.697,0.033-1.346,0.048-1.949,0.048H74.39c-0.062,0-0.258,0.017-0.59,0.044c-0.333,0.032-0.711,0.045-1.133,0.045
	s-0.8,0.017-1.132,0.045c-0.333,0.029-0.53,0.044-0.588,0.044h-2.174c-0.424,0-0.846,0.018-1.271,0.049
	c-0.422,0.03-0.724,0.045-0.905,0.045h-0.362c-1.45,0-2.688,0.072-3.715,0.227c-1.027,0.148-1.993,0.226-2.9,0.226h-1.178
	c-0.302,0-0.664-0.018-1.088-0.045c-0.421-0.032-0.783-0.106-1.085-0.228h-0.635c0-0.18-0.181-0.273-0.543-0.273l-0.543-0.361
	h-0.635v-0.269l-0.453-0.547c-0.06-0.121-0.122-0.192-0.182-0.224c-0.061-0.034-0.121-0.079-0.182-0.138l-0.088-0.271l-0.363,0.361
	v0.544h-0.182v-0.272c-0.122-0.121-0.18-0.241-0.18-0.361l-0.091-0.457c0-0.117-0.032-0.209-0.091-0.268l-0.453-1.181
	c0-0.116-0.032-0.207-0.09-0.27l-0.09-0.813c0-0.123-0.031-0.424-0.09-0.909c-0.062-0.481-0.09-0.779-0.09-0.907v-2.715
	c0-0.122,0.029-0.466,0.09-1.041c0.059-0.576,0.09-0.92,0.09-1.045v-7.608c0-0.123-0.016-0.486-0.044-1.09
	c-0.033-0.602-0.045-1.255-0.045-1.948c0-0.692-0.016-1.342-0.046-1.948c-0.03-0.604-0.044-0.999-0.044-1.177
	c0-0.061,0.014-0.258,0.044-0.59c0.03-0.331,0.046-0.678,0.046-1.039c0-0.365,0.013-0.697,0.045-0.998
	c0.028-0.307,0.044-0.517,0.044-0.636v-0.541c0-0.063,0.015-0.32,0.047-0.773c0.029-0.452,0.043-0.706,0.043-0.77v-5.888
	c0-0.301-0.015-0.727-0.043-1.269c-0.032-0.544-0.107-1.059-0.227-1.54v-1.814c-0.063-0.06-0.107-0.179-0.137-0.361
	c-0.031-0.182-0.043-0.303-0.043-0.362l-0.092-0.182c0-0.122-0.031-0.394-0.09-0.815c-0.061-0.421-0.091-0.694-0.091-0.815v-1.45
	c0-0.059-0.031-0.166-0.09-0.316c-0.063-0.149-0.092-0.258-0.092-0.317v-0.184c0-0.66-0.06-1.252-0.181-1.763
	c-0.121-0.516-0.182-1.103-0.182-1.767l-0.18-0.184v-8.245c0.059-0.184,0.135-0.468,0.225-0.859c0.091-0.395,0.167-0.59,0.227-0.59
	l0.997-1.994l0.726-0.723c0,0.059,0.075-0.03,0.226-0.273c0.15-0.24,0.287-0.424,0.408-0.542l0.092-0.273
	c0-0.059,0.059-0.106,0.179-0.136c0.121-0.03,0.213-0.048,0.273-0.048l0.453-0.089l1.087,0.272c0,0.06,0.059,0.09,0.183,0.09h1.175
	c0.121,0,0.213-0.014,0.272-0.045c0.06-0.032,0.12-0.045,0.181-0.045h0.362l0.275,0.273h0.27c0.121-0.061,0.392-0.137,0.815-0.229
	c0.422-0.092,0.665-0.166,0.724-0.229h0.09l-0.09-0.089c0-0.118,0.06-0.184,0.183-0.184L59.619,267.159z M53.641,330.585
	c0,0.062-0.062,0.09-0.182,0.09v-0.181L53.641,330.585z M82.998,330.043l0.178,0.178h-0.813c-0.062-0.058-0.124-0.089-0.181-0.089
	l-0.092-0.089H82.998z M88.523,326.869c-0.062,0.062-0.151,0.094-0.271,0.094l-0.093-0.094l0.183-0.092
	C88.401,326.777,88.461,326.812,88.523,326.869z M88.796,325.515l-0.181,0.086v-0.27L88.796,325.515z"/>
<path class="st0" d="M134.198,330.312c-0.06,0-0.09-0.06-0.09-0.184l0.362-0.089c0,0.181,0.089,0.272,0.272,0.272l0.181-0.272
	c-0.121-0.121-0.181-0.24-0.181-0.366l-1.542,0.097l-0.089-0.275c-0.062,0-0.17-0.016-0.319-0.045
	c-0.149-0.028-0.258-0.072-0.315-0.134l-0.726-0.453c0-0.061-0.032-0.14-0.092-0.227c-0.06-0.091-0.089-0.196-0.089-0.317v-0.274
	l-0.452-0.449c0.06,0,0.119-0.062,0.182-0.181c0.057-0.126,0.089-0.211,0.089-0.274v-0.092c0-0.055-0.015-0.149-0.045-0.271
	c-0.029-0.118-0.044-0.212-0.044-0.27l-0.182-0.094l-0.635,0.635c-0.062,0.06-0.123,0.092-0.183,0.092h-0.451l-0.092-0.272
	l-0.633-0.454c-0.063-0.058-0.123-0.087-0.183-0.087l-0.09-0.184l0.543-0.995l-0.091-0.183c-0.122,0.308-0.332,0.515-0.636,0.632
	h-0.271c-0.119,0-0.211-0.026-0.271-0.084l-0.451-0.365v-0.183c-0.423,0-0.637-0.118-0.637-0.361l-0.724,0.993
	c-0.06,0.062-0.09,0.126-0.09,0.184h-0.272c0.119-0.301,0.272-0.619,0.451-0.949c0.183-0.332,0.362-0.589,0.545-0.771l0.089-0.996
	c0-0.06,0.047-0.227,0.136-0.498c0.094-0.272,0.136-0.438,0.136-0.501v-0.089l-0.091,0.089c-0.122,0.363-0.33,0.697-0.633,0.999
	l-0.089-0.178c0-0.062,0.089-0.29,0.268-0.685c0.183-0.387,0.272-0.649,0.272-0.767l-0.089-0.094
	c-0.122,0.18-0.35,0.635-0.682,1.359c-0.332,0.724-0.558,1.239-0.677,1.542l-0.816,0.905l0.906-2.537
	c0-0.122,0.029-0.214,0.089-0.272l0.183-0.362c0.119-0.119,0.302-0.469,0.545-1.039c0.239-0.577,0.451-1.075,0.634-1.499
	l0.179-0.545c0.364-0.481,0.558-0.936,0.59-1.356c0.028-0.421,0.164-0.756,0.407-0.999v-0.361l-0.453,0.637l1.177-2.812
	c0-0.06,0.047-0.148,0.137-0.271c0.094-0.12,0.137-0.241,0.137-0.36c0.421-0.966,0.756-1.739,0.996-2.312
	c0.243-0.574,0.362-0.923,0.362-1.042l0.091-0.543c0.122-0.181,0.258-0.486,0.407-0.907c0.153-0.424,0.228-0.667,0.228-0.724
	l0.453-0.725c0.061-0.061,0.285-0.466,0.682-1.224c0.388-0.758,0.618-1.496,0.677-2.221c0.061,0,0.166-0.181,0.317-0.546
	c0.151-0.358,0.331-0.782,0.543-1.266c0.213-0.486,0.409-0.938,0.59-1.359c0.182-0.421,0.364-0.727,0.543-0.908l0.092-0.36
	c0.364-0.362,0.662-0.815,0.907-1.359c0.238-0.547,0.359-0.847,0.359-0.906l0.456-0.905c0.422-1.088,0.949-2.055,1.584-2.902
	c0.635-0.843,1.163-1.721,1.584-2.625l0.635-1.36c0-0.24,0.106-0.543,0.319-0.907c0.211-0.362,0.438-0.873,0.678-1.537l0.363-0.455
	c0-0.303,0.164-0.647,0.501-1.042c0.328-0.392,0.498-0.738,0.498-1.041l0.633-1.18c0.119-0.12,0.271-0.375,0.453-0.769
	c0.179-0.394,0.272-0.62,0.272-0.68c0-0.183,0.193-0.634,0.588-1.357c0.392-0.729,0.592-1.33,0.592-1.814l4.526-9.242
	c0.06-0.12,0.196-0.376,0.409-0.771c0.211-0.392,0.375-0.681,0.498-0.859l0.451-0.183c0.06,0,0.122-0.031,0.184-0.091l0.272,0.182
	l0.451-0.362c0.06,0,0.119-0.012,0.182-0.044c0.059-0.03,0.121-0.048,0.181-0.048l0.362,0.181c0.06,0.062,0.123,0.092,0.183,0.092
	h2.082l0.546,0.182c0.059,0.062,0.213,0.092,0.453,0.092h0.542l0.273,0.27l0.816-0.181c0.118,0,0.21-0.029,0.27-0.089h0.455
	c0.061,0,0.135,0.044,0.227,0.136c0.089,0.09,0.166,0.134,0.226,0.134l0.455,0.363l0.178-0.092l-0.088-0.088
	c0-0.06-0.032-0.121-0.09-0.184l-0.366-0.27h0.544l0.091,0.179c0.12,0.063,0.272,0.153,0.456,0.274
	c0.179,0.122,0.3,0.211,0.362,0.271h0.723l2.267,2.173c0,0.364,0.272,0.786,0.812,1.269c0.545,0.483,1.088,1.179,1.632,2.086
	l0.996,1.63c0.483,0.485,0.801,0.938,0.95,1.358c0.152,0.427,0.259,0.818,0.318,1.18c0.06,0.363,0.151,0.695,0.273,0.995
	c0.118,0.304,0.361,0.542,0.723,0.726l0.457,0.904c0.118,0.365,0.27,0.623,0.45,0.773c0.184,0.148,0.273,0.375,0.273,0.678
	l1.086,2.356c0,0.062,0.046,0.182,0.137,0.362c0.092,0.181,0.136,0.302,0.136,0.364l1.088,2.172c0.119,0.361,0.348,0.907,0.68,1.631
	c0.332,0.725,0.498,1.12,0.498,1.18s0.076,0.243,0.225,0.541c0.15,0.307,0.303,0.621,0.452,0.953
	c0.153,0.333,0.306,0.651,0.455,0.95c0.149,0.305,0.229,0.485,0.229,0.545c0.058,0.06,0.194,0.378,0.406,0.952
	c0.212,0.572,0.375,0.98,0.499,1.224c0,0.062,0.03,0.134,0.089,0.226c0.06,0.089,0.092,0.166,0.092,0.226l0.904,2.266
	c0.303,0.729,0.561,1.312,0.771,1.768c0.21,0.453,0.347,0.801,0.409,1.043l0.45,0.995c0.061,0.121,0.197,0.426,0.409,0.907
	c0.212,0.483,0.317,0.785,0.317,0.902l1.268,2.811c0.118,0.304,0.272,0.59,0.456,0.859c0.178,0.277,0.267,0.712,0.267,1.316
	l0.095,0.272l0.362,0.182c0.059,0.121,0.136,0.316,0.225,0.588c0.091,0.271,0.137,0.442,0.137,0.5v0.451
	c0,0.303-0.06,0.454-0.181,0.454c-0.122,0-0.181,0.06-0.181,0.181l-0.362,0.996v0.454c0,0.121,0.03,0.213,0.089,0.274
	c0,0.119,0.092,0.327,0.273,0.633c0.181,0.302,0.361,0.645,0.545,1.04c0.179,0.393,0.362,0.759,0.54,1.087
	c0.182,0.335,0.272,0.562,0.272,0.683l0.09,0.177c0.122,0,0.273,0.243,0.456,0.727c0.179,0.485,0.298,0.813,0.361,0.999v0.45
	c0.12,0.306,0.256,0.893,0.404,1.769c0.154,0.876,0.32,1.583,0.501,2.129v0.179c0,0.062,0.03,0.171,0.092,0.319
	c0.06,0.151,0.091,0.261,0.091,0.315l0.271,0.636l-0.184,0.454l0.184,0.813h-0.271c-0.063-0.055-0.168-0.134-0.317-0.226
	c-0.152-0.089-0.259-0.137-0.318-0.137s-0.12,0.016-0.18,0.048c-0.061,0.029-0.123,0.044-0.183,0.044v1.086
	c-0.181,0-0.333,0.044-0.451,0.139c-0.124,0.088-0.214,0.166-0.273,0.226l-0.634,0.907l-0.089,0.452c0,0.059-0.06,0.091-0.184,0.091
	l-0.091,0.087c-0.423,0-0.695,0.063-0.814,0.184l0.271,0.363h-0.362c-0.059,0-0.123-0.029-0.184-0.092h-0.723
	c-0.119,0-0.333,0.077-0.631,0.224c-0.307,0.156-0.516,0.231-0.637,0.231l-0.727,0.361c0,0.305-0.212,0.454-0.633,0.454
	l-0.091,0.178c-0.061,0.062-0.213,0.092-0.453,0.092h-0.271c-0.063,0-0.153,0.015-0.272,0.047c-0.121,0.03-0.213,0.042-0.272,0.042
	h-0.361c-0.06,0-0.125-0.025-0.182-0.089l-0.272-0.092c-0.305,0-0.619-0.042-0.951-0.136c-0.332-0.09-0.648-0.139-0.95-0.139
	l-0.094,0.097c-0.06,0.061-0.089,0.178-0.089,0.358c-0.122,0-0.214-0.025-0.272-0.089l-0.452-0.545c-0.727,0-1.269-0.179-1.631-0.54
	l-0.09-0.363c-0.123,0-0.289-0.212-0.498-0.634c-0.213-0.424-0.409-0.727-0.592-0.909l-0.633-0.722
	c-0.061-0.122-0.121-0.214-0.183-0.274c-0.058-0.057-0.087-0.149-0.087-0.271l-0.092-0.364c-0.543-0.421-0.815-0.875-0.815-1.356
	l-0.181-0.271c-0.062-0.061-0.092-0.149-0.092-0.271l-0.543-0.907c0-0.058-0.092-0.24-0.275-0.546l-1.176-2.444
	c-0.12-0.24-0.226-0.47-0.318-0.679c-0.09-0.212-0.196-0.436-0.314-0.679l-0.091-0.186h-0.816l0.181-0.087h-2.173
	c-0.363,0-0.544,0.15-0.544,0.455h-0.727c-0.303,0-0.664,0.013-1.086,0.043c-0.424,0.029-0.815,0.047-1.176,0.047h-1.362
	l-0.635,0.357h-5.8c-0.119,0-0.559,0.034-1.312,0.094c-0.758,0.059-1.192,0.149-1.313,0.272h-1.267
	c-0.427,0-0.941,0.029-1.542,0.087c-0.604,0.064-0.997,0.092-1.178,0.092c-0.062,0-0.121,0.045-0.182,0.139
	c-0.063,0.089-0.123,0.135-0.183,0.135l-0.635,1.36c-0.06,0.062-0.089,0.178-0.089,0.363l-0.453,0.903
	c-0.122,0.121-0.182,0.244-0.182,0.362l-0.635,1.088c0,0.303-0.121,0.62-0.361,0.952c-0.243,0.333-0.498,0.661-0.771,0.996
	c-0.272,0.332-0.513,0.649-0.724,0.95c-0.213,0.307-0.319,0.544-0.319,0.728l-0.635,1.085c-0.119,0.303-0.243,0.515-0.361,0.633
	l-0.995,1.45c-0.304,0.184-0.56,0.407-0.771,0.682c-0.21,0.274-0.5,0.467-0.862,0.59l-1.265-0.638
	c-0.124-0.059-0.336-0.176-0.637-0.358c-0.305-0.184-0.483-0.275-0.543-0.275h-0.456L134.198,330.312z M127.582,317.356
	c-0.122,0.181-0.241,0.438-0.362,0.771c-0.122,0.332-0.211,0.558-0.271,0.678v-0.358c0-0.245,0.089-0.455,0.271-0.637
	L127.582,317.356z M128.398,315.996c0.06,0,0.123-0.028,0.183-0.092c0-0.119-0.06-0.182-0.183-0.182V315.996z M128.669,324.693
	l0.362-0.45h-0.362V324.693z M152.59,301.406c0.06,0.188,0.15,0.275,0.272,0.275h0.545c0.303,0,0.709-0.048,1.222-0.137
	c0.516-0.09,0.952-0.139,1.316-0.139h0.813l1.631-0.451l-0.996-2.355c-0.124-0.301-0.272-0.621-0.454-0.951
	c-0.181-0.332-0.362-0.649-0.543-0.952l-0.183-0.453c-0.06-0.18-0.166-0.467-0.315-0.861c-0.151-0.393-0.226-0.649-0.226-0.768
	l-0.184,0.183c-0.06,0.06-0.118,0.09-0.182,0.09l-1.538,3.261c-0.362,0.725-0.649,1.312-0.86,1.764
	C152.697,300.367,152.59,300.867,152.59,301.406z M159.386,319.074l-0.27,0.092c-0.182,0-0.271-0.029-0.271-0.092
	c0-0.055,0.09-0.087,0.271-0.087l0.361,0.087H159.386z M160.382,318.894l0.363,0.181h-0.903l0.451-0.181H160.382z M163.013,319.074
	l-0.364,0.092c-0.362,0-0.575-0.029-0.635-0.092h0.092c0.12,0,0.211-0.011,0.271-0.044c0.058-0.025,0.151-0.043,0.271-0.043
	c0.06,0,0.121,0.032,0.181,0.087H163.013z M163.829,318.623c0,0.122-0.063,0.182-0.184,0.182c-0.06,0-0.089-0.06-0.089-0.182
	c0-0.116,0.029-0.177,0.089-0.177L163.829,318.623z M163.737,319.074l-0.092-0.181h0.184L163.737,319.074z M164.641,318.987
	l-0.178,0.087c-0.125,0-0.243-0.055-0.362-0.181h0.632L164.641,318.987z M165.729,317.81c0,0.122,0.061,0.182,0.184,0.182
	c0.117,0,0.181-0.06,0.181-0.182c0-0.121-0.063-0.184-0.181-0.184L165.729,317.81z"/>
<path class="st0" d="M185.483,299.959v-0.092c0-0.122,0.06-0.184,0.181-0.184L185.483,299.959z M185.483,306.21v-0.092
	c0-0.119,0.06-0.18,0.181-0.18L185.483,306.21z M198.075,344.449l0.272,0.087l-0.361-0.272c-0.061,0-0.151-0.062-0.272-0.181
	l0.634,0.181l-0.089-0.181h-0.272c-0.061,0-0.121-0.031-0.181-0.088l-0.092-0.092l0.361,0.092l-0.27-0.275h0.181l-0.181-0.183
	l0.815,0.183l-0.815-0.361l0.453,0.092l-0.634-0.366l0.361,0.097c-0.181-0.184-0.393-0.271-0.635-0.271v-0.274l-0.271-0.092h0.181
	l-0.361-0.272l0.905,0.181l-0.544-0.361c0.184,0,0.303,0.032,0.363,0.093l0.361,0.088l-0.09-0.088h0.179L197.713,342h0.183
	l-1.27-0.634h0.092c0.058,0.061,0.119,0.092,0.182,0.092h0.181c0.181,0.178,0.422,0.27,0.725,0.27l0.636,0.092l-0.183-0.184h0.089
	l-0.272-0.178l0.184-0.092l-0.453-0.18c-0.062,0-0.122-0.032-0.181-0.094l0.271-0.087l-0.545-0.366h0.183
	c0.06,0,0.209,0.031,0.452,0.092c0.24,0.06,0.395,0.089,0.455,0.089h0.269c-0.06-0.058-0.119-0.089-0.18-0.089l-0.455-0.179
	c-0.06,0-0.166-0.034-0.315-0.094c-0.152-0.06-0.257-0.089-0.314-0.089l-0.274-0.183l0.815,0.183l-0.09-0.183l-0.451-0.093
	c-0.063-0.06-0.154-0.088-0.274-0.088l-0.09-0.089l1.629,0.177l-0.904-0.271h0.27l-0.361-0.184h0.183
	c0.238,0,0.451,0.034,0.634,0.097c0.18,0.058,0.363,0.087,0.541,0.087h0.725c-0.058-0.062-0.119-0.087-0.179-0.087l-0.089-0.097
	c-0.062,0-0.125-0.015-0.184-0.043c-0.06-0.031-0.119-0.042-0.179-0.042h-0.636c-0.061,0-0.197-0.015-0.407-0.049
	c-0.214-0.029-0.35-0.075-0.409-0.136l-0.089-0.088c0.059,0.058,0.181,0.1,0.361,0.132c0.181,0.03,0.303,0.049,0.361,0.049h0.724
	c0.065,0,0.166,0.014,0.32,0.043c0.151,0.034,0.285,0.049,0.404,0.049h1.271c0.06,0,0.258-0.015,0.59-0.049
	c0.328-0.029,0.528-0.043,0.589-0.043h2.448c0.06,0,0.119-0.032,0.179-0.093h0.366c0.118,0,0.209-0.03,0.268-0.088h0.092
	c0.058-0.062,0.122-0.093,0.182-0.093h0.09c0.06,0,0.12-0.031,0.183-0.091h0.089c0.121,0,0.243-0.06,0.362-0.181l0.815-0.724
	c0.24-0.244,0.365-0.407,0.365-0.501c0-0.089,0.059-0.195,0.181-0.314l0.181-0.451c0.06-0.062,0.089-0.126,0.089-0.186l0.09-0.724
	c0-0.061,0.017-0.135,0.047-0.227c0.029-0.091,0.044-0.166,0.044-0.226v-0.363c0-0.118,0.03-0.213,0.092-0.272v-0.091
	c-0.062-0.061-0.092-0.241-0.092-0.539l-0.091-0.999c0-0.06-0.013-0.123-0.042-0.184c-0.034-0.06-0.048-0.117-0.048-0.18
	l-0.089-0.361c0-0.123-0.029-0.255-0.092-0.406c-0.06-0.154-0.089-0.317-0.089-0.503l-0.092-0.452h0.451l-0.451-0.089v-0.183
	c0-0.062,0.121-0.087,0.361-0.087c-0.118-0.062-0.315-0.109-0.587-0.137c-0.272-0.034-0.438-0.047-0.499-0.047h-0.724
	c-0.787,0-1.56-0.106-2.312-0.317c-0.756-0.211-1.283-0.467-1.586-0.77h0.181l0.183-0.271l-0.183-0.184
	c-0.06,0-0.118-0.029-0.181-0.092h-0.722l0.541,0.454h-0.541l-0.094-0.179h-0.361c-0.363,0-0.636-0.092-0.816-0.275h-0.091
	c-0.061,0-0.12-0.026-0.18-0.086l-0.726-0.455c-0.06,0-0.168-0.017-0.317-0.042c-0.149-0.032-0.258-0.047-0.315-0.047h-0.456
	c0-0.121-0.089-0.27-0.272-0.453l-0.361-0.362l-1.359-0.728c-0.061,0-0.118-0.03-0.178-0.091l-0.272-0.09
	c0.059,0.421,0.299,0.636,0.723,0.636l0.362,0.272h-0.545l1.001,0.815c0.058,0.062,0.148,0.089,0.269,0.089l0.092,0.184h-0.092
	c-0.06,0-0.149-0.047-0.269-0.138c-0.123-0.088-0.215-0.135-0.274-0.135l-1.812-1.18c-0.303,0-0.486-0.045-0.545-0.137
	c-0.06-0.086-0.48-0.466-1.267-1.13l-1.54-1.722c0-0.061-0.152-0.378-0.45-0.95c-0.306-0.578-0.759-1.165-1.364-1.771l-0.087-0.086
	v0.086c-0.062,0-0.138-0.18-0.228-0.544c-0.092-0.361-0.198-0.542-0.316-0.542l-0.999-2.085c-0.06-0.117-0.137-0.332-0.226-0.63
	c-0.09-0.305-0.166-0.486-0.227-0.548v-0.54l0.184-0.186l-0.184-0.182c-0.123-0.06-0.166-0.137-0.137-0.226
	c0.031-0.089-0.017-0.285-0.135-0.59v-0.449c0-0.061-0.015-0.134-0.046-0.227c-0.031-0.091-0.045-0.166-0.045-0.227l-0.182-0.273
	l0.182-0.181l0.091,0.092c0.06,0,0.118,0.028,0.183,0.089l0.089,0.273c0.061,0,0.106,0.061,0.137,0.179
	c0.029,0.122,0.047,0.214,0.047,0.274v0.089c0,0.183,0.028,0.303,0.089,0.36l0.272,0.366l-0.093,0.088l0.272,0.184v-0.092
	c0-0.06-0.014-0.194-0.045-0.407c-0.027-0.208-0.045-0.377-0.045-0.499l-0.635-1.179l0.09-0.09c-0.061,0-0.121,0.015-0.179,0.047
	c-0.064,0.03-0.153,0.043-0.273,0.043c-0.062,0-0.123-0.029-0.182-0.09l-0.091-0.544l-0.181-0.183
	c-0.062-0.057-0.092-0.114-0.092-0.176l-0.181-0.186h0.453v-0.271c0-0.058,0.014-0.12,0.048-0.183
	c0.026-0.058,0.043-0.118,0.043-0.178v-0.453c0-0.062-0.017-0.135-0.043-0.226c-0.034-0.095-0.048-0.167-0.048-0.229l-0.453,0.635
	l-0.181-0.181c-0.06,0-0.09-0.062-0.09-0.18l-0.092-0.096l0.182-0.269l-0.271-0.359l0.632-0.186v-0.364l-0.27-0.179l-0.092,0.271
	l-0.454-0.092v-1.356c-0.06-0.062-0.092-0.213-0.092-0.455v-0.271c-0.118-0.119-0.269-0.24-0.451-0.36
	c-0.181-0.123-0.272-0.304-0.272-0.547l0.092-0.904l0.454-0.363v-3.085l0.453-0.63c0.057-0.06,0.089-0.149,0.089-0.271v-0.632
	c0-0.245-0.032-0.397-0.089-0.454h-0.275l-0.089-0.185c0-0.362,0.074-0.707,0.229-1.039c0.148-0.332,0.225-0.833,0.225-1.496h0.273
	l0.361-0.723c0.06-0.308,0.104-0.548,0.135-0.729c0.029-0.179,0.046-0.302,0.046-0.361h-0.272v0.816h-0.451l0.09-0.274
	c0-0.117,0.059-0.347,0.181-0.679c0.121-0.333,0.181-0.526,0.181-0.59v-0.994c0-0.245,0.061-0.472,0.184-0.68
	c0.119-0.21,0.18-0.533,0.18-0.956v-1.538c0-0.602,0.12-1.357,0.361-2.265c0.243-0.907,0.366-1.478,0.366-1.721l0.269-0.271v0.45
	c-0.06,0.064-0.091,0.154-0.091,0.272v0.273l0.814-2.357c0.242-0.241,0.456-0.71,0.637-1.403c0.183-0.693,0.27-1.073,0.27-1.133
	l-0.087,0.094c0,0.12-0.031,0.209-0.091,0.269c-0.062,0.062-0.092,0.123-0.092,0.184l-0.092,0.089c0,0.121-0.06,0.332-0.184,0.635
	c-0.119,0.302-0.24,0.516-0.361,0.634v-0.453l0.275-0.635c0.059-0.06,0.086-0.151,0.086-0.27l0.458-0.907l0.994-1.18
	c0.06-0.058,0.094-0.12,0.094-0.18l0.09-0.453c-0.063,0.062-0.124,0.151-0.184,0.271c-0.06,0.123-0.121,0.183-0.181,0.183
	l-0.089-0.094c0-0.058,0.028-0.118,0.089-0.179l0.181-0.361c0.06-0.122,0.166-0.365,0.32-0.724c0.148-0.365,0.314-0.635,0.495-0.815
	l0.092-0.092c0.058-0.061,0.12-0.184,0.18-0.364c0.06-0.18,0.093-0.3,0.093-0.362l0.724-0.815l1.268-0.725
	c0.062,0,0.121-0.029,0.184-0.089l1.088-1.086c0-0.064,0.025-0.123,0.089-0.183l0.362-0.454c0.061-0.058,0.121-0.092,0.184-0.092
	l0.178-0.089c0.122-0.121,0.303-0.286,0.546-0.498c0.238-0.213,0.361-0.347,0.361-0.409h0.184c0.119,0,0.209-0.029,0.269-0.09
	l0.545-0.454h-0.272l-0.452,0.363l-0.089-0.092l1.085-0.815c0.12-0.12,0.303-0.271,0.541-0.449c0.243-0.186,0.395-0.275,0.457-0.275
	l1.446-0.727c0.486,0,1.044-0.237,1.68-0.722c0.634-0.483,1.162-0.725,1.586-0.725c0,0.059,0.21-0.048,0.632-0.317
	c0.424-0.272,1.026-0.529,1.813-0.771l4.438-1.179c0.484,0,1.025-0.044,1.63-0.136c0.605-0.09,1.118-0.196,1.545-0.317l1.356-0.091
	c0.059,0,0.195-0.014,0.407-0.043c0.209-0.03,0.346-0.077,0.409-0.14h0.452c0,0.183,0.06,0.273,0.183,0.273
	c0,0.121,0.028,0.181,0.09,0.181l0.724,0.272c0.664,0,1.146,0.045,1.452,0.137c0.3,0.092,0.588,0.195,0.86,0.315
	c0.269,0.123,0.587,0.226,0.951,0.318c0.362,0.091,0.906,0.135,1.629,0.135h0.452l0.183,0.181c-0.06,0-0.121,0.033-0.183,0.093
	v0.182l0.817,0.815l0.542,0.998c0,0.059,0.093,0.314,0.273,0.766c0.182,0.455,0.271,0.954,0.271,1.499l0.183,0.27
	c0,0.243,0.061,0.424,0.184,0.544c0,0.123-0.034,0.362-0.094,0.724c-0.059,0.364-0.149,0.604-0.272,0.727l-0.179,0.364
	c-0.064,0.06-0.092,0.119-0.092,0.178v0.091c0,0.063-0.031,0.123-0.091,0.183v0.361c0,0.124-0.046,0.215-0.137,0.272
	c-0.09,0.06-0.135,0.122-0.135,0.181l-0.181,0.093l0.543,0.54c0,0.243-0.181,0.472-0.543,0.682
	c-0.361,0.213-0.545,0.469-0.545,0.771l0.184,0.361l-0.907,0.454l-0.09,0.181h0.451l-0.451,0.361v0.362
	c-0.063,0.063-0.124,0.092-0.184,0.092l-0.089,0.089c-0.184,0-0.364,0.092-0.545,0.271h0.817l-1.09,0.546
	c-0.483,0.485-0.86,0.728-1.13,0.728c-0.275,0-0.59,0.18-0.953,0.541h-0.544c-0.18,0-0.273,0.03-0.273,0.094h-0.268
	c-0.065-0.063-0.243-0.094-0.546-0.094l-1.086-0.092c-0.786,0-1.451,0.122-1.992,0.364h-0.273c-0.063,0.06-0.123,0.09-0.184,0.09
	l-1.446,0.272l-2.267,0.724c-0.123,0-0.304,0.077-0.543,0.227c-0.242,0.152-0.428,0.259-0.545,0.318l-2.084,1.45l-3.171,3.17
	l-0.815,1.089c-0.907,1.209-1.36,2.08-1.36,2.628l-0.088,0.272c-0.123,0.118-0.184,0.329-0.184,0.634v0.454
	c-0.302,0.904-0.45,1.81-0.45,2.717v0.178c0,0.064-0.018,0.197-0.048,0.412c-0.031,0.208-0.046,0.347-0.046,0.406v0.272
	c-0.061,0.062-0.106,0.243-0.135,0.541c-0.031,0.305-0.044,0.488-0.044,0.546v0.181c0,0.123-0.017,0.515-0.048,1.182
	c-0.029,0.661-0.076,1.083-0.135,1.265v0.268c0.118,0.491,0.183,0.97,0.183,1.454c0,0.483,0.059,0.938,0.179,1.361v1.629
	c0,0.664,0.151,1.147,0.455,1.448l1.721,2.902c0.06,0.061,0.09,0.118,0.09,0.181l0.092,0.092c0.118,0.118,0.332,0.318,0.634,0.585
	c0.3,0.273,0.483,0.475,0.543,0.589l0.907,0.457c0.179,0.179,0.498,0.316,0.95,0.401c0.455,0.097,0.919,0.2,1.404,0.321h0.09
	c0.061,0,0.228,0.016,0.498,0.045c0.272,0.031,0.438,0.08,0.499,0.138h1.179c0.603,0,0.937,0.031,0.997,0.091h2.354
	c0.121,0,0.527,0.027,1.227,0.09c0.692,0.06,1.099,0.089,1.222,0.089h2.808c0.361,0,0.693-0.043,0.996-0.135
	c0.302-0.091,0.693-0.135,1.18-0.135h0.724l1.631-0.363l-1.993,0.633c-0.302,0-0.679,0.017-1.132,0.048
	c-0.452,0.031-0.741,0.108-0.861,0.227l-0.544,0.362h1.449c0.424,0,0.803-0.062,1.136-0.183c0.327-0.12,0.735-0.18,1.222-0.18h0.453
	l-0.727,0.362h0.546c-0.304,0.059-0.604,0.242-0.907,0.541v0.092l-0.092,0.181l0.092-0.272l-0.635,0.272h-0.453l0.183,0.089
	c0,0.121-0.031,0.182-0.091,0.182l3.352-0.725c-0.061,0.062-0.183,0.123-0.36,0.182c-0.186,0.063-0.304,0.092-0.364,0.092
	l-0.181,0.181c-0.062,0.063-0.122,0.089-0.182,0.089h-0.455l-0.269,0.453c-0.364,0-0.682,0.062-0.954,0.183
	c-0.272,0.125-0.409,0.215-0.409,0.271l2.991-0.726l-0.27,0.186c-0.062,0.06-0.123,0.086-0.183,0.086h-0.09
	c-0.062,0-0.26,0.095-0.59,0.273c-0.33,0.181-0.56,0.272-0.68,0.272l-0.453,0.361c-0.062,0.062-0.121,0.095-0.181,0.095h-0.089
	c-0.06,0-0.125,0.029-0.184,0.089h-0.09c-0.062,0.058-0.213,0.092-0.453,0.092h-0.635v0.177h0.363c0.482,0,0.95-0.087,1.405-0.269
	c0.452-0.184,0.95-0.272,1.496-0.272h0.179l-0.09,0.089c-0.062,0.062-0.122,0.095-0.181,0.095l-0.637,0.454
	c0,0.115-0.029,0.176-0.09,0.176l0.635,0.096v0.268c-0.179,0-0.422,0.077-0.724,0.229c-0.303,0.149-0.516,0.287-0.635,0.404
	l0.272,0.274l-0.545,0.363l0.181,0.178l-0.27,0.273l0.996-0.273c0.24-0.121,0.483-0.191,0.724-0.224
	c0.241-0.034,0.482-0.108,0.726-0.227l0.271-0.091c0.06-0.06,0.195-0.138,0.409-0.227c0.21-0.092,0.376-0.135,0.495-0.135
	l0.184,0.087c-0.544,0.308-1.119,0.606-1.723,0.909c-0.603,0.303-0.968,0.512-1.086,0.637h0.724l-0.09,0.085
	c-0.121,0-0.304,0.062-0.545,0.186c-0.242,0.117-0.392,0.212-0.451,0.272l-0.272,0.086l0.635-0.086l-0.09,0.36l0.813-0.36
	c0.362-0.186,0.604-0.272,0.726-0.272h0.089l-0.089,0.087c-0.243,0-0.438,0.108-0.59,0.32c-0.152,0.209-0.287,0.319-0.406,0.319
	l-0.092,0.176h0.272c0.119,0,0.211-0.026,0.273-0.089l0.453-0.181c0.058-0.062,0.148-0.092,0.271-0.092l-0.182-0.183l0.271-0.086
	v0.269h0.361v0.186l-0.271,0.176c-0.062,0.062-0.122,0.095-0.181,0.095l-0.182,0.269h0.271c0,0.183-0.122,0.272-0.36,0.272
	l-0.186,0.54c-0.118,0-0.33,0.096-0.63,0.277c-0.305,0.184-0.516,0.33-0.635,0.451l-0.093,0.091c0.301,0,0.513-0.06,0.636-0.184
	h0.271l-0.179,0.184c-0.062,0.058-0.124,0.091-0.184,0.091l-0.451,0.092c-0.124,0.12-0.396,0.284-0.817,0.498
	c-0.424,0.21-0.633,0.378-0.633,0.498h0.087c0.303,0,0.623-0.12,0.955-0.362c0.33-0.243,0.558-0.362,0.677-0.362h0.183v0.179
	c-0.06,0-0.121,0.03-0.183,0.094h-0.269c0-0.063-0.228,0.045-0.682,0.315c-0.45,0.272-0.648,0.411-0.588,0.411h0.18
	c0.059,0,0.272-0.064,0.634-0.186c0.363-0.119,0.605-0.24,0.725-0.362l0.094-0.089c0.119,0,0.181-0.029,0.181-0.09
	c0,0.061-0.062,0.149-0.181,0.271c-0.123,0.122-0.213,0.182-0.272,0.182l-0.727,0.45c-0.181,0-0.27,0.122-0.27,0.363h0.27
	l0.637-0.539h0.269l-0.452,0.539h0.184c0.119,0,0.196-0.043,0.226-0.135c0.03-0.094,0.104-0.137,0.226-0.137h0.092l-0.092,0.271
	c-0.121,0-0.302,0.061-0.544,0.183c-0.24,0.121-0.393,0.179-0.452,0.179l-0.272,0.454h0.181c0.424-0.36,0.876-0.541,1.36-0.541
	h0.273l-1.361,0.722c-0.062,0.06-0.151,0.092-0.272,0.092l-0.181,0.091v0.364l0.725-0.364c-0.061,0.058-0.091,0.151-0.091,0.271
	c0,0.06,0.06,0.094,0.184,0.094l0.09-0.181c0-0.062-0.031-0.126-0.09-0.184l0.724-0.363l-0.272,0.272h0.272
	c-0.121,0.12-0.242,0.183-0.361,0.183l-0.907,0.905c-0.06,0-0.137,0.027-0.226,0.091c-0.095,0.061-0.195,0.121-0.319,0.181
	l-0.273,0.092c-0.118,0.122-0.21,0.18-0.27,0.18l-0.092,0.184l-0.362,0.086l0.362,0.184c-0.421,0-0.875,0.24-1.358,0.724
	l-0.541,0.272c-0.307,0.123-0.545,0.229-0.726,0.317c-0.181,0.092-0.395,0.137-0.635,0.137h-0.184c0,0.058-0.24,0.121-0.722,0.184
	c-0.485,0.058-1.088,0.087-1.814,0.087h-0.178l-0.184,0.183l0.09,0.455c0.06,0.058,0.094,0.116,0.094,0.18l0.178,0.907h-0.178
	v-0.272h-0.184c0,0.119,0.029,0.238,0.09,0.359c0.06,0.122,0.094,0.215,0.094,0.274l0.272,0.088l0.178,0.999h-0.178l0.089,0.723
	l0.18,0.091v1.18l0.181,0.183v0.449l-0.36,0.637h0.089l-0.089,0.363h-0.272l-0.089,0.177l0.272,0.092l-0.184,0.456l-0.272-0.272
	v0.543h0.184l-0.094-0.092h0.183l-0.089,0.092h0.089l-0.272,0.452h-0.273l-0.181,0.273c-0.061,0.06-0.089,0.119-0.089,0.177v0.097
	c0,0.058-0.015,0.117-0.047,0.181c-0.03,0.058-0.042,0.117-0.042,0.177l0.542-0.812l0.09,0.088l-0.182,0.27v0.454l-0.181,0.093
	l0.089,0.365c-0.121,0.118-0.181,0.238-0.181,0.356v0.097c-0.061,0-0.151,0.1-0.272,0.312c-0.12,0.212-0.211,0.378-0.27,0.502
	l-0.273,0.363c-0.059,0.06-0.135,0.146-0.226,0.269c-0.09,0.121-0.168,0.184-0.225,0.184l-0.457,0.632
	c0,0.121-0.166,0.271-0.496,0.453c-0.334,0.184-0.498,0.332-0.498,0.457l-0.724,0.449c-0.304,0.184-0.547,0.273-0.727,0.273
	l-0.272,0.091l0.635-0.454h-0.091l0.363-0.272h-0.181c-0.667,0.186-0.999,0.395-0.999,0.636h-0.541
	c-0.063,0.057-0.123,0.091-0.183,0.091l-1.177,0.361l0.27-0.181h-0.45l0.089,0.181l-0.272,0.183c-0.362,0-0.589,0.046-0.68,0.135
	c-0.09,0.092-0.376,0.138-0.857,0.138h-0.999c-0.062,0-0.122-0.035-0.182-0.093c0.06-0.062,0.09-0.119,0.09-0.18l-0.454,0.09
	l0.184,0.09l-1.36-0.09v0.09c-0.06,0-0.194,0.015-0.406,0.047c-0.214,0.031-0.378,0.046-0.497,0.046h-0.093l0.093,0.18h-0.456
	c0.061,0-0.06-0.029-0.361-0.092c-0.303-0.06-0.575-0.088-0.817-0.088h-0.361c-0.18,0-0.331-0.061-0.452-0.183l-0.453-0.09
	c-0.06-0.06-0.122-0.091-0.182-0.091l-0.451-0.272h0.179l-0.724-0.361c-0.061,0-0.136-0.046-0.227-0.137
	c-0.092-0.092-0.167-0.137-0.227-0.137l-0.181-0.182h0.181l-0.181-0.091L198.075,344.449z M186.118,300.503l-0.362,0.089v-0.089
	c0-0.118,0.06-0.183,0.179-0.183L186.118,300.503z M186.027,297.875l0.36-0.094v0.818c-0.06,0.06-0.092,0.18-0.092,0.362v0.451
	c-0.06,0.06-0.089,0.122-0.089,0.182v0.182c0,0.062-0.029,0.125-0.089,0.183l-0.184-0.092c0.121-0.42,0.184-0.739,0.184-0.95
	s0.06-0.469,0.178-0.77L186.027,297.875z M186.118,306.668c0,0.118,0.06,0.176,0.178,0.176l0.092-0.176
	c0-0.062-0.031-0.123-0.092-0.188L186.118,306.668z M186.118,307.392v0.087l0.27-0.087l-0.092-0.186L186.118,307.392z
	 M186.66,294.797v-0.094c0-0.117,0.06-0.181,0.182-0.181L186.66,294.797z M187.114,294.249l-0.181,0.092v-0.27L187.114,294.249z
	 M187.022,312.645v-0.092c0-0.119,0.061-0.182,0.181-0.182L187.022,312.645z M187.566,295.067c0.059,0,0.12-0.029,0.182-0.092
	c0-0.119-0.062-0.179-0.182-0.179V295.067z M187.838,300.14h0.271v-0.181L187.838,300.14z M187.927,290.444
	c0,0.122,0.029,0.18,0.094,0.18l0.089-0.088c0-0.121-0.031-0.21-0.089-0.274L187.927,290.444z M188.11,289.268v0.542
	c0.061,0,0.106-0.074,0.137-0.225c0.029-0.151,0.047-0.258,0.047-0.317H188.11z M188.745,289.176
	c-0.062,0.062-0.124,0.213-0.183,0.452l-0.18,0.363l0.089,0.816c0-0.12,0.031-0.349,0.091-0.681
	c0.059-0.329,0.121-0.558,0.183-0.679V289.176z M189.017,292.619c-0.183,0.181-0.289,0.453-0.317,0.813
	c-0.031,0.366-0.045,0.606-0.045,0.729c0,0.117,0.014,0.238,0.045,0.36c0.028,0.121,0.045,0.21,0.045,0.274
	c0.119-0.124,0.211-0.334,0.272-0.635V292.619z M188.923,285.913l0.184-0.271v0.091c0,0.062-0.047,0.169-0.137,0.317
	c-0.09,0.151-0.136,0.317-0.136,0.499h-0.09c0-0.061,0.018-0.135,0.045-0.227c0.031-0.092,0.045-0.166,0.045-0.226L188.923,285.913z
	 M189.107,287.001v0.092l0.271-0.092l-0.093-0.181L189.107,287.001z M189.286,297.781l0.093,0.094c0.061,0,0.12-0.029,0.183-0.094
	H189.286z M189.561,294.071v0.27l0.086-0.633L189.561,294.071z M189.922,316.088l0.183,0.178h0.087c0.06,0,0.125-0.025,0.184-0.089
	c0-0.119-0.059-0.181-0.184-0.181l-0.087,0.27v-0.361L189.922,316.088z M190.192,284.465c0.06,0,0.125-0.029,0.184-0.091
	c0-0.121-0.059-0.181-0.184-0.181V284.465z M190.284,293.072l0.182,0.183c0.059,0.062,0.092,0.146,0.092,0.271
	c0,0.118,0.026,0.241,0.092,0.359c0.059-0.056,0.089-0.118,0.089-0.178l0.092-0.729h-0.181v-1.174h-0.184
	c-0.182,0.182-0.273,0.543-0.273,1.087L190.284,293.072z M190.649,294.162l-0.184,0.635l0.184-0.183
	c0-0.245,0.059-0.423,0.181-0.543L190.649,294.162z M190.83,282.925c-0.062,0.12-0.092,0.24-0.092,0.361l0.361-0.725L190.83,282.925
	z M190.83,292.979l0.181-0.813c0.06-0.058,0.089-0.179,0.089-0.36v-0.542l-0.181,0.178c-0.061,0-0.089,0.184-0.089,0.546V292.979z
	 M191.645,280.48v0.086l0.089-0.086c0.12,0,0.181-0.095,0.181-0.272v-0.092L191.645,280.48z M192.279,280.48
	c0.059,0,0.119-0.032,0.182-0.095c0-0.119-0.062-0.178-0.182-0.178V280.48z M193.276,278.03l0.181,0.091
	c0.058,0,0.121-0.03,0.181-0.091c0-0.118-0.06-0.183-0.181-0.183L193.276,278.03z M193.909,277.397v0.089l0.273-0.089l-0.092-0.183
	L193.909,277.397z M196.444,274.77l-0.09,0.089c-0.118,0-0.178-0.058-0.178-0.178s0.06-0.184,0.178-0.184L196.444,274.77z
	 M196.9,274.317c0,0.12-0.062,0.18-0.182,0.18c-0.062,0-0.092-0.06-0.092-0.18s0.03-0.183,0.092-0.183L196.9,274.317z
	 M196.81,340.459h0.09c0.059,0.06,0.118,0.094,0.181,0.094l0.09,0.179l-0.09-0.092C197.018,340.64,196.929,340.577,196.81,340.459z
	 M196.989,274.135v-0.09c0-0.122,0.061-0.183,0.182-0.183L196.989,274.135z M197.986,328.045c0,0.123-0.061,0.184-0.181,0.184
	c-0.062,0-0.092-0.061-0.092-0.184c0-0.119,0.029-0.178,0.092-0.178L197.986,328.045z M198.258,343.995h0.183
	c0-0.124-0.061-0.184-0.183-0.184l-0.272-0.092L198.258,343.995z M200.613,344.899c0.061,0.057,0.149,0.091,0.272,0.091v0.091
	c0.06,0.062,0.12,0.09,0.181,0.09l2.358-0.181l-0.092-0.091v-0.181c0-0.061,0.061-0.093,0.181-0.093l0.454-0.09l-0.906,0.09
	c-0.063,0.062-0.093,0.123-0.093,0.184h-0.362l0.092,0.09H200.613z M202.245,344.626l-0.363-0.09l0.095,0.183L202.245,344.626z
	 M203.605,340.459c-0.062,0-0.139-0.018-0.229-0.045c-0.089-0.032-0.166-0.044-0.225-0.044c-0.243,0-0.363,0.059-0.363,0.183
	L203.605,340.459z M202.968,329.588c0,0.122,0.062,0.183,0.184,0.183c0.118,0,0.181-0.061,0.181-0.183H202.968z M204.417,270.6
	c-0.057,0.06-0.086,0.123-0.086,0.184c0.06,0,0.135-0.029,0.223-0.092c0.092-0.062,0.166-0.092,0.228-0.092H204.417z
	 M205.055,330.04c0.183,0.181,0.376,0.288,0.587,0.317c0.212,0.034,0.347,0.047,0.409,0.047h0.361l-0.089-0.092
	c-0.123-0.06-0.289-0.123-0.498-0.184c-0.213-0.057-0.35-0.089-0.409-0.089H205.055z M205.328,339.824
	c-0.063,0-0.124,0.03-0.184,0.094L205.328,339.824z M205.417,329.588c0.06,0.183,0.149,0.269,0.272,0.269h0.362
	c0.118,0,0.21,0.034,0.272,0.092h0.361l-0.183-0.092c-0.241,0-0.451-0.086-0.634-0.269H205.417z M206.14,269.876l-0.089,0.091
	l0.361-0.091l-0.089-0.09L206.14,269.876z M206.592,345.534h-0.18c-0.183,0-0.304,0.031-0.361,0.09L206.592,345.534z
	 M208.133,315.723v-0.089c-0.06,0-0.151-0.028-0.27-0.087c-0.122-0.064-0.212-0.097-0.272-0.097L208.133,315.723z M214.023,330.767
	l0.275-0.092h-0.999c-0.122,0-0.255-0.014-0.409-0.045c-0.148-0.029-0.285-0.047-0.406-0.047h-0.453l-0.091-0.179l-0.181,0.179
	h-0.909v-0.271c-0.058,0-0.118,0.031-0.179,0.092h-0.091l0.183,0.179h-1.54l0.363-0.271l-0.184-0.184
	c-0.06-0.057-0.119-0.089-0.18-0.089h-0.635c0,0.121,0.014,0.226,0.043,0.317c0.03,0.092,0.048,0.166,0.048,0.226l-0.273,0.275
	h-0.272l0.907,0.087c0.119,0,0.211-0.029,0.272-0.087l3.986-0.092v0.361c0.06,0,0.089,0.058,0.089,0.184l0.089,0.089l0.184-0.359
	c0-0.125-0.029-0.215-0.089-0.274H214.023l-0.181,0.45c0.062-0.059,0.121-0.089,0.181-0.089h0.181v0.455l0.184,0.18v-0.451
	c0-0.126-0.032-0.184-0.089-0.184h0.089c0.06,0,0.163-0.029,0.317-0.087c0.149-0.064,0.286-0.096,0.409-0.096L214.023,330.767z
	 M210.581,327.688l0.726,0.088c0.119,0,0.272,0.031,0.453,0.092c0.181,0.059,0.271,0.241,0.271,0.544h0.816v-0.453h0.63
	c-0.057-0.06-0.148-0.091-0.267-0.091h-0.363c-0.183,0-0.271,0.091-0.271,0.274l-0.364-0.546c-0.122-0.062-0.331-0.094-0.633-0.094
	c-0.305,0-0.515-0.027-0.635-0.087h-0.363l-0.18,0.181L210.581,327.688z M211.306,328.863l0.09,0.092
	c0.06,0,0.195,0.017,0.409,0.042c0.208,0.034,0.344,0.044,0.406,0.044h1.266c0.062,0,0.32-0.01,0.772-0.044
	c0.455-0.025,0.741-0.042,0.864-0.042h0.541v0.178h0.544c0.121,0,0.238-0.029,0.361-0.092c0.12-0.057,0.242-0.086,0.363-0.086
	l-0.089-0.184l1.357-0.543l-0.45-0.087c-0.184,0-0.367,0.087-0.546,0.27h-2.355c-0.184,0-0.682,0.047-1.495,0.135
	c-0.816,0.091-1.617,0.138-2.401,0.138L211.306,328.863z M211.849,317.265l1.178-0.092c-0.123-0.057-0.273-0.117-0.451-0.181
	c-0.184-0.06-0.305-0.091-0.364-0.091c-0.122,0-0.288,0.015-0.497,0.044c-0.212,0.034-0.379,0.047-0.499,0.047L211.849,317.265z
	 M211.759,326.235v0.092l0.271-0.092l-0.091-0.183L211.759,326.235z M212.847,326.235h0.541l0.364-0.183v-0.271h-0.905V326.235z
	 M213.027,328.411v0.089l0.272-0.089l-0.089-0.183L213.027,328.411z M213.477,331.128l-0.089-0.361h0.089V331.128z M213.572,328.142
	l-0.095,0.087h0.275L213.572,328.142z M214.387,328.142h-0.089c-0.184,0-0.275,0.026-0.275,0.087c0,0.062,0.061,0.091,0.181,0.091
	c0.121,0,0.184-0.029,0.184-0.091V328.142z M214.298,327.867c0.057,0,0.148-0.017,0.27-0.043c0.12-0.037,0.209-0.049,0.272-0.049
	c0-0.058-0.018-0.12-0.047-0.18c-0.029-0.062-0.045-0.121-0.045-0.181h-0.45l-0.184,0.36L214.298,327.867z M215.748,330.04
	c0.119,0,0.209-0.029,0.271-0.092h-0.632L215.748,330.04z M215.564,333.119l0.091,0.451c0,0.125,0.029,0.186,0.093,0.186
	l-0.093,0.091l-0.091-0.276c-0.061-0.058-0.089-0.119-0.089-0.179v-0.452h0.18L215.564,333.119z M216.471,329.771v0.178l0.363-0.36
	h-0.274L216.471,329.771z M216.923,324.243c0.06,0,0.119-0.031,0.183-0.092c0-0.12-0.063-0.182-0.183-0.182V324.243z
	 M219.372,328.955l0.269-0.184h-0.452L219.372,328.955z M219.913,318.987v0.087l0.273-0.087l-0.091-0.183L219.913,318.987z
	 M221.183,325.417c-0.123,0-0.215,0.015-0.274,0.049c-0.059,0.032-0.121,0.048-0.181,0.048h-0.271v0.176L221.183,325.417z
	 M220.458,329.316h0.179v-0.275L220.458,329.316z M220.728,328.319l0.181,0.092c0.06,0,0.122-0.031,0.183-0.092
	c0-0.12-0.061-0.178-0.183-0.178L220.728,328.319z M221,316.447h0.362l-0.092-0.271c-0.06,0-0.119,0.018-0.18,0.044
	c-0.061,0.037-0.123,0.045-0.183,0.045L221,316.447z M221.363,327.502c0,0.06,0.06,0.094,0.183,0.094v-0.181L221.363,327.502z
	 M221.545,327.958c0,0.124,0.028,0.184,0.087,0.184c0.122,0,0.184-0.06,0.184-0.184c0-0.119-0.062-0.183-0.184-0.183
	L221.545,327.958z M221.632,322.611v0.09l0.273-0.09l-0.09-0.183L221.632,322.611z M222.359,328.592l-0.181,0.092v-0.272
	L222.359,328.592z M222.451,318.351l0.181,0.186c0.06,0,0.092-0.062,0.092-0.186H222.451z M222.54,321.072v0.091l0.272-0.091
	l-0.089-0.18L222.54,321.072z M222.54,322.339h0.456l0.09-0.179h-0.183L222.54,322.339z M223.264,319.528l-0.179,0.093
	c-0.06,0-0.09-0.06-0.09-0.183l0.09-0.092L223.264,319.528z M223.539,319.801l0.092-0.18l0.089,0.091L223.539,319.801z
	 M223.539,321.436v-0.094c0-0.121,0.06-0.179,0.181-0.179L223.539,321.436z M223.719,325.417l-0.181,0.097v-0.274L223.719,325.417z
	 M223.993,315.272c0,0.12-0.062,0.178-0.184,0.178c-0.06,0-0.09-0.058-0.09-0.178s0.03-0.183,0.09-0.183L223.993,315.272z
	 M223.809,314.818c0-0.061,0.059-0.092,0.184-0.092l0.089,0.092H223.809z M223.809,318.987v-0.094c0-0.117,0.059-0.18,0.184-0.18
	L223.809,318.987z M224.082,319.621l-0.089,0.091c-0.125,0-0.184-0.058-0.184-0.184c0-0.117,0.059-0.182,0.184-0.182
	L224.082,319.621z M223.993,325.689l-0.184,0.092v-0.268L223.993,325.689z M224.354,318.623l-0.094,0.091
	c-0.118,0-0.179-0.059-0.179-0.178c0-0.124,0.061-0.186,0.179-0.186L224.354,318.623z M224.354,320.8l-0.094,0.093
	c-0.118,0-0.179-0.062-0.179-0.184c0-0.123,0.061-0.183,0.179-0.183L224.354,320.8z M224.26,326.868l-0.179,0.095v-0.275
	L224.26,326.868z M224.354,320.709v-0.093c0-0.119,0.06-0.181,0.181-0.181L224.354,320.709z M224.624,314.638h-0.178l0.178-0.09
	V314.638z M224.535,318.446v-0.096c0.06,0,0.149-0.061,0.271-0.176h0.272L224.535,318.446z M225.259,317.265l-0.636,0.361v-0.453
	c0.122,0,0.212-0.031,0.273-0.088l0.637-0.093L225.259,317.265z M224.806,322.887h-0.183l0.273-0.186L224.806,322.887z
	 M225.35,322.611l-0.183,0.09v-0.272L225.35,322.611z M225.534,323.702c0,0.118-0.063,0.175-0.184,0.175s-0.183-0.057-0.183-0.175
	c0-0.125,0.062-0.184,0.183-0.184L225.534,323.702z M226.075,317.173l-0.364,0.092v-0.092c0-0.117,0.062-0.181,0.184-0.181
	L226.075,317.173z M226.347,316.813l-0.179,0.088v-0.269L226.347,316.813z M226.892,317.721l-0.183,0.089v-0.272L226.892,317.721z
	 M226.892,318.894l-0.183,0.094v-0.273L226.892,318.894z M226.892,321.072l-0.183,0.091v-0.271L226.892,321.072z M227.16,317.448
	c0,0.12-0.057,0.178-0.178,0.178c-0.062,0-0.09-0.058-0.09-0.178c0-0.124,0.027-0.184,0.09-0.184L227.16,317.448z M227.343,317.448
	l-0.089-0.184h0.179L227.343,317.448z"/>
<path class="st0" d="M236.222,330.312c-0.059,0-0.089-0.06-0.089-0.184l0.362-0.089c0,0.181,0.089,0.272,0.268,0.272l0.183-0.272
	c-0.123-0.121-0.183-0.24-0.183-0.366l-1.537,0.097l-0.095-0.275c-0.059,0-0.163-0.016-0.314-0.045
	c-0.15-0.028-0.258-0.072-0.315-0.134l-0.725-0.453c0-0.061-0.033-0.14-0.092-0.227c-0.06-0.091-0.091-0.196-0.091-0.317v-0.274
	l-0.45-0.449c0.058,0,0.118-0.062,0.179-0.181c0.06-0.126,0.089-0.211,0.089-0.274v-0.092c0-0.055-0.013-0.149-0.042-0.271
	c-0.032-0.118-0.047-0.212-0.047-0.27l-0.179-0.094l-0.638,0.635c-0.061,0.06-0.12,0.092-0.181,0.092h-0.453l-0.091-0.272
	l-0.633-0.454c-0.06-0.058-0.123-0.087-0.184-0.087l-0.088-0.184l0.541-0.995l-0.089-0.183c-0.121,0.308-0.332,0.515-0.635,0.632
	h-0.272c-0.119,0-0.211-0.026-0.272-0.084l-0.451-0.365v-0.183c-0.424,0-0.636-0.118-0.636-0.361l-0.723,0.993
	c-0.062,0.062-0.094,0.126-0.094,0.184h-0.269c0.12-0.301,0.269-0.619,0.452-0.949c0.183-0.332,0.361-0.589,0.542-0.771l0.091-0.996
	c0-0.06,0.046-0.227,0.138-0.498c0.091-0.272,0.134-0.438,0.134-0.501v-0.089l-0.092,0.089c-0.119,0.363-0.329,0.697-0.63,0.999
	l-0.092-0.178c0-0.062,0.092-0.29,0.271-0.685c0.181-0.387,0.271-0.649,0.271-0.767l-0.091-0.094
	c-0.121,0.18-0.347,0.635-0.679,1.359c-0.333,0.724-0.559,1.239-0.68,1.542l-0.815,0.905l0.907-2.537
	c0-0.122,0.029-0.214,0.089-0.272l0.184-0.362c0.12-0.119,0.301-0.469,0.543-1.039c0.241-0.577,0.451-1.075,0.634-1.499l0.18-0.545
	c0.364-0.481,0.561-0.936,0.59-1.356s0.166-0.756,0.409-0.999v-0.361l-0.454,0.637l1.178-2.812c0-0.06,0.047-0.148,0.136-0.271
	c0.091-0.12,0.137-0.241,0.137-0.36c0.421-0.966,0.756-1.739,0.996-2.312c0.243-0.574,0.363-0.923,0.363-1.042l0.091-0.543
	c0.121-0.181,0.256-0.486,0.407-0.907c0.15-0.424,0.225-0.667,0.225-0.724l0.456-0.725c0.058-0.061,0.285-0.466,0.677-1.224
	s0.621-1.496,0.682-2.221c0.06,0,0.166-0.181,0.314-0.546c0.154-0.358,0.332-0.782,0.546-1.266c0.213-0.486,0.409-0.938,0.588-1.359
	c0.183-0.421,0.366-0.727,0.544-0.908l0.091-0.36c0.361-0.362,0.664-0.815,0.907-1.359c0.238-0.547,0.361-0.847,0.361-0.906
	l0.455-0.905c0.423-1.088,0.95-2.055,1.585-2.902c0.634-0.843,1.16-1.721,1.584-2.625l0.635-1.36c0-0.24,0.106-0.543,0.317-0.907
	c0.21-0.362,0.436-0.873,0.679-1.537l0.361-0.455c0-0.303,0.166-0.647,0.498-1.042c0.332-0.392,0.5-0.738,0.5-1.041l0.634-1.18
	c0.119-0.12,0.271-0.375,0.455-0.769c0.18-0.394,0.271-0.62,0.271-0.68c0-0.183,0.194-0.634,0.588-1.357
	c0.395-0.729,0.59-1.33,0.59-1.814l4.531-9.242c0.06-0.12,0.193-0.376,0.403-0.771c0.218-0.392,0.38-0.681,0.504-0.859l0.451-0.183
	c0.06,0,0.121-0.031,0.184-0.091l0.27,0.182l0.454-0.362c0.059,0,0.118-0.012,0.181-0.044c0.06-0.03,0.121-0.048,0.181-0.048
	l0.363,0.181c0.059,0.062,0.12,0.092,0.181,0.092h2.084l0.545,0.182c0.059,0.062,0.211,0.092,0.451,0.092h0.546l0.268,0.27
	l0.818-0.181c0.119,0,0.211-0.029,0.27-0.089h0.456c0.058,0,0.136,0.044,0.228,0.136c0.088,0.09,0.162,0.134,0.226,0.134
	l0.452,0.363l0.181-0.092l-0.092-0.088c0-0.06-0.029-0.121-0.089-0.184l-0.362-0.27h0.543l0.092,0.179
	c0.119,0.063,0.272,0.153,0.453,0.274c0.182,0.122,0.3,0.211,0.362,0.271h0.724l2.268,2.173c0,0.364,0.269,0.786,0.813,1.269
	c0.543,0.483,1.087,1.179,1.631,2.086l0.996,1.63c0.484,0.485,0.802,0.938,0.95,1.358c0.153,0.427,0.261,0.818,0.319,1.18
	c0.06,0.363,0.148,0.695,0.273,0.995c0.118,0.304,0.361,0.542,0.724,0.726l0.453,0.904c0.121,0.365,0.27,0.623,0.453,0.773
	c0.18,0.148,0.271,0.375,0.271,0.678l1.088,2.356c0,0.062,0.047,0.182,0.137,0.362s0.136,0.302,0.136,0.364l1.087,2.172
	c0.118,0.361,0.344,0.907,0.682,1.631c0.332,0.725,0.498,1.12,0.498,1.18s0.074,0.243,0.226,0.541
	c0.149,0.307,0.299,0.621,0.45,0.953c0.151,0.333,0.303,0.651,0.454,0.95c0.151,0.305,0.228,0.485,0.228,0.545
	c0.06,0.06,0.196,0.378,0.406,0.952c0.212,0.572,0.378,0.98,0.501,1.224c0,0.062,0.028,0.134,0.089,0.226
	c0.061,0.089,0.091,0.166,0.091,0.226l0.907,2.266c0.302,0.729,0.557,1.312,0.771,1.768c0.208,0.453,0.347,0.801,0.406,1.043
	l0.453,0.995c0.06,0.121,0.196,0.426,0.409,0.907c0.209,0.483,0.314,0.785,0.314,0.902l1.271,2.811
	c0.118,0.304,0.271,0.59,0.452,0.859c0.182,0.277,0.271,0.712,0.271,1.316l0.093,0.272l0.362,0.182
	c0.061,0.121,0.135,0.316,0.227,0.588c0.089,0.271,0.135,0.442,0.135,0.5v0.451c0,0.303-0.061,0.454-0.183,0.454
	c-0.118,0-0.179,0.06-0.179,0.181l-0.362,0.996v0.454c0,0.121,0.03,0.213,0.088,0.274c0,0.119,0.092,0.327,0.274,0.633
	c0.179,0.302,0.361,0.645,0.545,1.04c0.18,0.393,0.36,0.759,0.541,1.087c0.183,0.335,0.272,0.562,0.272,0.683l0.09,0.177
	c0.119,0,0.272,0.243,0.451,0.727c0.183,0.485,0.305,0.813,0.366,0.999v0.45c0.119,0.306,0.254,0.893,0.405,1.769
	c0.15,0.876,0.318,1.583,0.499,2.129v0.179c0,0.062,0.03,0.171,0.091,0.319c0.061,0.151,0.091,0.261,0.091,0.315l0.271,0.636
	l-0.181,0.454l0.181,0.813h-0.271c-0.062-0.055-0.166-0.134-0.317-0.226c-0.153-0.089-0.257-0.137-0.317-0.137
	c-0.063,0-0.122,0.016-0.183,0.048c-0.06,0.029-0.12,0.044-0.18,0.044v1.086c-0.184,0-0.332,0.044-0.455,0.139
	c-0.119,0.088-0.209,0.166-0.268,0.226l-0.635,0.907l-0.092,0.452c0,0.059-0.062,0.091-0.181,0.091l-0.092,0.087
	c-0.424,0-0.697,0.063-0.815,0.184l0.27,0.363h-0.361c-0.058,0-0.122-0.029-0.181-0.092h-0.724c-0.12,0-0.332,0.077-0.636,0.224
	c-0.303,0.156-0.515,0.231-0.635,0.231l-0.724,0.361c0,0.305-0.213,0.454-0.634,0.454l-0.092,0.178
	c-0.062,0.062-0.211,0.092-0.454,0.092h-0.27c-0.062,0-0.151,0.015-0.272,0.047c-0.12,0.03-0.211,0.042-0.271,0.042h-0.361
	c-0.064,0-0.123-0.025-0.183-0.089l-0.273-0.092c-0.302,0-0.617-0.042-0.949-0.136c-0.334-0.09-0.646-0.139-0.952-0.139
	l-0.089,0.097c-0.062,0.061-0.092,0.178-0.092,0.358c-0.123,0-0.213-0.025-0.272-0.089l-0.451-0.545
	c-0.727,0-1.271-0.179-1.632-0.54l-0.089-0.363c-0.126,0-0.289-0.212-0.501-0.634c-0.21-0.424-0.406-0.727-0.59-0.909l-0.635-0.722
	c-0.059-0.122-0.118-0.214-0.181-0.274c-0.061-0.057-0.089-0.149-0.089-0.271l-0.092-0.364c-0.541-0.421-0.815-0.875-0.815-1.356
	l-0.181-0.271c-0.06-0.061-0.089-0.149-0.089-0.271l-0.546-0.907c0-0.058-0.09-0.24-0.272-0.546l-1.177-2.444
	c-0.122-0.24-0.224-0.47-0.317-0.679c-0.09-0.212-0.197-0.436-0.315-0.679l-0.091-0.186h-0.816l0.184-0.087h-2.176
	c-0.363,0-0.546,0.15-0.546,0.455h-0.725c-0.304,0-0.666,0.013-1.088,0.043c-0.424,0.029-0.815,0.047-1.177,0.047h-1.361
	l-0.633,0.357h-5.8c-0.118,0-0.558,0.034-1.316,0.094c-0.753,0.059-1.188,0.149-1.311,0.272h-1.267
	c-0.424,0-0.938,0.029-1.542,0.087c-0.602,0.064-0.996,0.092-1.177,0.092c-0.061,0-0.122,0.045-0.18,0.139
	c-0.063,0.089-0.123,0.135-0.184,0.135l-0.634,1.36c-0.06,0.062-0.09,0.178-0.09,0.363l-0.455,0.903
	c-0.119,0.121-0.179,0.244-0.179,0.362l-0.635,1.088c0,0.303-0.123,0.62-0.361,0.952c-0.243,0.333-0.498,0.661-0.771,0.996
	c-0.272,0.332-0.516,0.649-0.726,0.95c-0.211,0.307-0.317,0.544-0.317,0.728l-0.635,1.085c-0.12,0.303-0.243,0.515-0.361,0.633
	l-0.997,1.45c-0.303,0.184-0.558,0.407-0.769,0.682c-0.215,0.274-0.501,0.467-0.862,0.59l-1.27-0.638
	c-0.121-0.059-0.332-0.176-0.634-0.358c-0.301-0.184-0.486-0.275-0.546-0.275h-0.449L236.222,330.312z M229.609,317.356
	c-0.123,0.181-0.242,0.438-0.366,0.771c-0.119,0.332-0.211,0.558-0.271,0.678v-0.358c0-0.245,0.091-0.455,0.271-0.637
	L229.609,317.356z M230.422,315.996c0.06,0,0.121-0.028,0.184-0.092c0-0.119-0.062-0.182-0.184-0.182V315.996z M230.695,324.693
	l0.362-0.45h-0.362V324.693z M254.615,301.406c0.061,0.188,0.151,0.275,0.272,0.275h0.544c0.301,0,0.708-0.048,1.223-0.137
	c0.512-0.09,0.95-0.139,1.314-0.139h0.815l1.629-0.451l-0.994-2.355c-0.123-0.301-0.272-0.621-0.455-0.951
	c-0.18-0.332-0.363-0.649-0.541-0.952l-0.181-0.453c-0.062-0.18-0.169-0.467-0.317-0.861c-0.154-0.393-0.227-0.649-0.227-0.768
	l-0.183,0.183c-0.062,0.06-0.121,0.09-0.179,0.09l-1.542,3.261c-0.363,0.725-0.649,1.312-0.86,1.764
	C254.721,300.367,254.615,300.867,254.615,301.406z M261.412,319.074l-0.272,0.092c-0.184,0-0.271-0.029-0.271-0.092
	c0-0.055,0.087-0.087,0.271-0.087l0.362,0.087H261.412z M262.408,318.894l0.362,0.181h-0.907l0.456-0.181H262.408z M265.035,319.074
	l-0.361,0.092c-0.363,0-0.575-0.029-0.635-0.092h0.089c0.123,0,0.214-0.011,0.274-0.044c0.059-0.025,0.148-0.043,0.271-0.043
	c0.061,0,0.12,0.032,0.181,0.087H265.035z M265.853,318.623c0,0.122-0.063,0.182-0.183,0.182c-0.061,0-0.09-0.06-0.09-0.182
	c0-0.116,0.029-0.177,0.09-0.177L265.853,318.623z M265.759,319.074l-0.089-0.181h0.183L265.759,319.074z M266.667,318.987
	l-0.184,0.087c-0.118,0-0.242-0.055-0.361-0.181h0.634L266.667,318.987z M267.753,317.81c0,0.122,0.059,0.182,0.182,0.182
	c0.119,0,0.183-0.06,0.183-0.182c0-0.121-0.063-0.184-0.183-0.184L267.753,317.81z"/>
</svg>
