<?xml version="1.0" encoding="iso-8859-1"?>
<!-- Generator: Adobe Illustrator 16.0.0, SVG Export Plug-In . SVG Version: 6.00 Build 0)  -->
<!DOCTYPE svg PUBLIC "-//W3C//DTD SVG 1.1//EN" "http://www.w3.org/Graphics/SVG/1.1/DTD/svg11.dtd">
<svg version="1.1" id="Layer_1" xmlns="http://www.w3.org/2000/svg" xmlns:xlink="http://www.w3.org/1999/xlink" x="0px" y="0px"
	 width="248.926px" height="55.618px" viewBox="0 0 248.926 55.618" style="enable-background:new 0 0 248.926 55.618;"
	 xml:space="preserve">
<g>
	<path d="M7.656,31.452c0.193,1.364,0.572,2.383,1.137,3.059c1.034,1.229,2.806,1.843,5.315,1.843c1.502,0,2.723-0.162,3.66-0.486
		c1.779-0.621,2.668-1.775,2.668-3.463c0-0.985-0.436-1.749-1.307-2.289c-0.872-0.526-2.253-0.992-4.145-1.397l-3.232-0.709
		c-3.177-0.702-5.359-1.465-6.547-2.289c-2.012-1.377-3.018-3.531-3.018-6.461c0-2.674,0.984-4.895,2.952-6.664
		c1.969-1.769,4.86-2.653,8.673-2.653c3.185,0,5.901,0.833,8.15,2.501c2.249,1.668,3.427,4.088,3.537,7.261h-5.995
		c-0.111-1.795-0.914-3.071-2.409-3.828c-0.997-0.499-2.235-0.749-3.717-0.749c-1.647,0-2.962,0.324-3.945,0.972
		c-0.983,0.648-1.474,1.553-1.474,2.714c0,1.067,0.484,1.863,1.454,2.39c0.623,0.351,1.945,0.763,3.966,1.235l5.239,1.236
		c2.296,0.54,4.017,1.263,5.164,2.167c1.779,1.404,2.669,3.437,2.669,6.097c0,2.728-1.055,4.993-3.163,6.795
		c-2.109,1.802-5.087,2.704-8.936,2.704c-3.931,0-7.022-0.888-9.274-2.663c-2.252-1.776-3.378-4.216-3.378-7.322H7.656z"/>
	<path d="M48.772,37.967c-1.863,2.3-4.692,3.45-8.486,3.45c-3.795,0-6.624-1.15-8.487-3.45c-1.863-2.3-2.795-5.069-2.795-8.308
		c0-3.184,0.932-5.943,2.795-8.277s4.692-3.501,8.487-3.501c3.794,0,6.623,1.167,8.486,3.501s2.795,5.093,2.795,8.277
		C51.567,32.898,50.636,35.667,48.772,37.967z M44.154,34.777c0.905-1.2,1.357-2.906,1.357-5.117c0-2.211-0.453-3.914-1.357-5.106
		c-0.905-1.193-2.201-1.79-3.889-1.79s-2.987,0.597-3.899,1.79C35.455,25.746,35,27.449,35,29.66c0,2.211,0.456,3.917,1.367,5.117
		s2.211,1.8,3.899,1.8S43.25,35.977,44.154,34.777z"/>
	<path d="M64.834,10.54c0.297,0.021,0.702,0.051,1.215,0.091v4.699c-0.324-0.04-0.868-0.071-1.631-0.091
		c-0.763-0.021-1.29,0.148-1.58,0.506c-0.291,0.358-0.436,0.753-0.436,1.185c0,0.433,0,1.053,0,1.864h3.788v4.071h-3.788v17.804
		h-5.732V22.864h-3.241v-4.071h3.16v-1.418c0-2.363,0.398-3.99,1.195-4.881c0.837-1.323,2.856-1.985,6.056-1.985
		C64.206,10.509,64.537,10.52,64.834,10.54z"/>
	<path d="M75.447,15.958h-5.854v-5.327h5.854V15.958z M69.594,18.591h5.854v22.077h-5.854V18.591z"/>
	<path d="M89.782,27.239c1.074-0.135,1.843-0.304,2.306-0.506c0.83-0.351,1.245-0.898,1.245-1.641c0-0.904-0.318-1.529-0.955-1.874
		c-0.636-0.344-1.57-0.517-2.802-0.517c-1.382,0-2.361,0.338-2.936,1.013c-0.411,0.5-0.685,1.174-0.821,2.025h-5.57
		c0.122-1.931,0.665-3.518,1.627-4.76c1.532-1.945,4.163-2.917,7.893-2.917c2.428,0,4.583,0.479,6.469,1.438
		c1.885,0.958,2.828,2.768,2.828,5.428v10.127c0,0.702,0.013,1.553,0.041,2.552c0.041,0.756,0.155,1.27,0.344,1.54
		c0.189,0.27,0.473,0.493,0.851,0.668v0.851h-6.279c-0.176-0.446-0.297-0.864-0.364-1.256c-0.068-0.392-0.122-0.837-0.162-1.337
		c-0.801,0.865-1.725,1.6-2.771,2.208c-1.25,0.715-2.662,1.073-4.237,1.073c-2.01,0-3.67-0.57-4.981-1.711
		c-1.311-1.141-1.966-2.758-1.966-4.851c0-2.714,1.054-4.679,3.163-5.894c1.157-0.662,2.857-1.134,5.102-1.418L89.782,27.239z
		 M93.312,29.933c-0.37,0.23-0.743,0.416-1.119,0.557s-0.893,0.273-1.55,0.395l-1.314,0.243c-1.231,0.216-2.116,0.479-2.653,0.79
		c-0.909,0.527-1.364,1.344-1.364,2.451c0,0.986,0.278,1.698,0.833,2.137s1.23,0.658,2.026,0.658c1.262,0,2.423-0.365,3.486-1.094
		c1.063-0.729,1.614-2.059,1.656-3.99V29.933z"/>
	<path d="M135.903,10.813h8.977v29.855h-5.813V20.475c0-0.581,0.007-1.394,0.021-2.441c0.013-1.046,0.021-1.853,0.021-2.42
		l-5.658,25.055h-6.062l-5.617-25.055c0,0.567,0.007,1.374,0.021,2.42c0.013,1.047,0.02,1.86,0.02,2.441v20.193h-5.812V10.813h9.077
		l5.435,23.475L135.903,10.813z"/>
	<path d="M168.598,37.967c-1.864,2.3-4.692,3.45-8.487,3.45c-3.794,0-6.623-1.15-8.486-3.45c-1.863-2.3-2.795-5.069-2.795-8.308
		c0-3.184,0.932-5.943,2.795-8.277s4.692-3.501,8.486-3.501c3.795,0,6.623,1.167,8.487,3.501c1.863,2.334,2.795,5.093,2.795,8.277
		C171.393,32.898,170.461,35.667,168.598,37.967z M163.979,34.777c0.904-1.2,1.356-2.906,1.356-5.117
		c0-2.211-0.452-3.914-1.356-5.106c-0.905-1.193-2.201-1.79-3.889-1.79c-1.688,0-2.988,0.597-3.899,1.79
		c-0.911,1.193-1.367,2.896-1.367,5.106c0,2.211,0.456,3.917,1.367,5.117s2.211,1.8,3.899,1.8
		C161.778,36.577,163.074,35.977,163.979,34.777z"/>
	<path d="M187.788,18.074c0.074,0.007,0.239,0.017,0.496,0.03v5.915c-0.364-0.041-0.688-0.067-0.973-0.081
		c-0.283-0.013-0.513-0.021-0.688-0.021c-2.322,0-3.882,0.756-4.679,2.269c-0.445,0.851-0.668,2.161-0.668,3.929v10.553h-5.813
		V18.591h5.51v3.848c0.891-1.472,1.667-2.478,2.329-3.018c1.08-0.905,2.484-1.357,4.213-1.357
		C187.622,18.064,187.714,18.068,187.788,18.074z"/>
	<path d="M201.219,27.28c0.928-0.135,1.605-0.317,2.032-0.545c0.662-0.349,0.993-0.873,0.993-1.572c0-1.062-0.552-1.788-1.655-2.177
		c-0.593-0.202-1.386-0.303-2.379-0.303c-1.517,0-2.572,0.416-3.165,1.248c-0.317,0.443-0.496,1.067-0.538,1.872h-5.63
		c0.149-3.038,1.425-5.185,3.824-6.441c1.595-0.837,3.626-1.256,6.094-1.256c1.759,0,3.312,0.299,4.662,0.895
		c0.75,0.326,1.534,0.821,2.353,1.485c0.829-0.705,1.781-1.278,2.855-1.719c1.074-0.44,2.318-0.661,3.733-0.661
		c4.516,0,7.568,1.843,9.159,5.53c0.844,1.958,1.238,4.436,1.185,7.433H209.49c0,1.537,0.186,2.713,0.556,3.529
		c0.686,1.496,2.002,2.244,3.949,2.244c1.097,0,2.05-0.187,2.858-0.561c0.81-0.374,1.406-1.112,1.79-2.214h5.855
		c-0.164,1.351-0.837,2.701-2.021,4.051c-1.946,2.201-4.709,3.302-8.288,3.302c-1.837,0-3.413-0.346-4.727-1.038
		c-1.312-0.692-2.33-1.581-3.051-2.667c-1.01,1.282-2.221,2.22-3.632,2.814c-1.412,0.593-3.031,0.891-4.858,0.891
		c-2.755,0-4.746-0.662-5.974-1.985s-1.842-2.903-1.842-4.74c0-2.498,0.935-4.321,2.804-5.469c1.037-0.621,2.612-1.094,4.728-1.417
		L201.219,27.28z M204.203,30.115c-0.29,0.203-0.552,0.348-0.786,0.436c-0.234,0.088-0.759,0.213-1.572,0.376l-2.255,0.448
		c-1.297,0.257-2.164,0.535-2.602,0.832c-0.739,0.486-1.109,1.289-1.109,2.408c0,0.634,0.241,1.228,0.724,1.781
		c0.481,0.553,1.301,0.83,2.458,0.83c1.197,0,2.195-0.212,2.994-0.637c1.432-0.77,2.148-2.187,2.148-4.251V30.115z M218.746,27.341
		c-0.096-1.418-0.507-2.549-1.234-3.393c-0.727-0.844-1.824-1.266-3.291-1.266c-1.481,0-2.605,0.382-3.374,1.145
		s-1.193,1.934-1.275,3.514H218.746z"/>
	<path d="M233.025,33.62c0.122,1.026,0.387,1.755,0.794,2.188c0.719,0.77,2.049,1.154,3.988,1.154c1.14,0,2.046-0.168,2.718-0.506
		c0.671-0.337,1.007-0.844,1.007-1.519c0-0.648-0.271-1.141-0.812-1.479s-2.554-0.918-6.039-1.742
		c-2.509-0.621-4.276-1.397-5.302-2.329c-1.026-0.918-1.539-2.241-1.539-3.97c0-2.039,0.801-3.791,2.404-5.256
		c1.604-1.465,3.86-2.198,6.77-2.198c2.761,0,5.011,0.55,6.749,1.651c1.739,1.101,2.737,3.001,2.994,5.702h-5.772
		c-0.081-0.743-0.291-1.33-0.629-1.762c-0.638-0.783-1.721-1.175-3.25-1.175c-1.26,0-2.156,0.196-2.691,0.587
		s-0.802,0.851-0.802,1.377c0,0.662,0.284,1.142,0.853,1.438c0.568,0.311,2.577,0.844,6.027,1.6c2.3,0.54,4.023,1.357,5.171,2.451
		c1.135,1.107,1.701,2.491,1.701,4.152c0,2.188-0.814,3.974-2.445,5.357s-4.15,2.076-7.56,2.076c-3.478,0-6.045-0.733-7.702-2.198
		s-2.486-3.332-2.486-5.6H233.025z"/>
</g>
</svg>
