<?xml version="1.0" encoding="iso-8859-1"?>
<!-- Generator: Adobe Illustrator 16.0.0, SVG Export Plug-In . SVG Version: 6.00 Build 0)  -->
<!DOCTYPE svg PUBLIC "-//W3C//DTD SVG 1.0//EN" "http://www.w3.org/TR/2001/REC-SVG-20010904/DTD/svg10.dtd">
<svg version="1.0" id="Layer_1" xmlns="http://www.w3.org/2000/svg" xmlns:xlink="http://www.w3.org/1999/xlink" x="0px" y="0px"
	 width="696.423px" height="696.423px" viewBox="0 0 696.423 696.423" style="enable-background:new 0 0 696.423 696.423;"
	 xml:space="preserve">
<style type="text/css">
<![CDATA[
	.st0{fill:none;stroke:#FFFFFF;stroke-width:2.8441;stroke-linecap:round;stroke-linejoin:round;stroke-miterlimit:10;}
	.st1{fill:#F1F2F2;}
	.st2{fill:url(#SVGID_1_);}
]]>
</style>
<g>
	<rect class="st1" width="696.423" height="696.423"/>
	<g>
		<g>
			<linearGradient id="SVGID_1_" gradientUnits="userSpaceOnUse" x1="348.2085" y1="133.9023" x2="348.2085" y2="560.5093">
				<stop  offset="0" style="stop-color:#A9F9D7"/>
				<stop  offset="0.338" style="stop-color:#94F9D7"/>
				<stop  offset="1" style="stop-color:#46D6FA"/>
			</linearGradient>
			<polygon class="st2" points="424.525,288.427 431.166,258.091 414.085,199.049 355.32,133.902 330.67,153.811 321.19,182.249 
				275.688,217.329 268.101,265.676 235.87,289.378 221.648,340.57 265.257,424.944 265.257,467.606 355.32,560.509 474.77,403.14 
				474.77,338.674 			"/>
			<g>
				<polygon class="st0" points="355.32,134.908 355.32,134.908 414.085,200.053 355.32,277.111 431.166,259.098 424.525,289.44 
					474.77,339.683 474.77,404.149 355.32,561.515 265.257,468.612 265.257,425.95 221.648,341.577 235.87,290.385 268.101,266.682 
					275.688,218.335 321.19,183.26 330.67,154.817 				"/>
				<polyline class="st0" points="330.67,154.817 361.955,194.633 355.32,134.908 361.955,194.633 414.085,200.053 361.955,194.633 
					348.206,223.075 355.647,277.341 365.624,348.441 424.525,289.44 355.32,277.111 274.737,348.212 235.87,290.385 
					320.238,414.577 265.257,468.612 320.238,414.577 355.32,561.515 320.238,414.577 365.624,348.441 365.624,348.441 
					393.658,429.741 355.32,561.515 				"/>
				<polyline class="st0" points="424.525,289.44 474.77,404.149 393.658,429.741 				"/>
				<polyline class="st0" points="221.648,341.577 274.737,348.212 265.257,425.95 320.238,414.577 				"/>
				<line class="st0" x1="268.101" y1="266.682" x2="355.32" y2="277.111"/>
				<polyline class="st0" points="348.206,223.075 275.688,218.335 352.397,253.627 				"/>
				<line class="st0" x1="321.19" y1="183.26" x2="361.955" y2="194.633"/>
				<line class="st0" x1="414.085" y1="200.053" x2="431.166" y2="259.098"/>
			</g>
		</g>
		<g>
			<g>
				<path d="M120.735,360.113c0-6.328-0.073-9.813-0.211-13.367c-0.074-2.773-0.427-9.742-0.644-10.808
					c-0.427-1.779-2.132-2.773-3.768-2.773h-2.274c-0.354,0-0.428-0.213-0.428-0.639v-1.779c0-0.355,0.073-0.498,0.639-0.498
					c0.781,0,3.061,0.213,8.322,0.213c4.265,0,5.974-0.213,6.755-0.213c0.638,0,0.708,0.143,0.708,0.567v1.71
					c0,0.354-0.069,0.639-0.354,0.639h-1.99c-1.209,0-1.92,1.211-2.132,3.768c-0.501,4.763-1.641,20.833-1.641,30.221v12.159
					c0,1.066-0.064,2.343-1.066,2.343c-1.066,0-1.989-0.354-2.771-1.135c-1.204-1.14-4.691-4.913-8.961-9.953l-12.159-14.438
					c-1.204-1.42-11.02-13.648-12.655-15.996h-0.57v14.36c0,5.905,0.644,14.65,0.713,17.348c0.142,4.126,1.424,6.263,4.406,6.263
					h1.779c0.5,0,0.57,0.211,0.57,0.639v1.705c0,0.427-0.069,0.57-0.57,0.57c-0.708,0-4.977-0.216-8.318-0.216
					c-2.206,0-7.108,0.216-7.825,0.216c-0.28,0-0.354-0.143-0.354-0.639v-1.852c0-0.211,0.074-0.423,0.432-0.423h2.486
					c1.562,0,2.702-2.279,3.056-7.044c0.073-1.352,0.639-12.724,0.639-23.248v-6.401c0-4.193-2.56-8.175-6.111-8.246l-1.779-0.069
					c-0.358,0-0.427-0.285-0.427-0.499v-1.92c0-0.285,0.069-0.427,0.427-0.427c0.354,0,0.924,0.073,2.275,0.073
					c1.42,0.069,3.699,0.14,7.394,0.14c2.417,0,4.549-0.14,5.408-0.14c0.919,0,1.489,0.285,2.059,0.924l16.498,20.191l12.159,15.146
					h0.285V360.113z"/>
				<path d="M149.17,377.249c-5.045-3.061-10.449-10.739-10.449-21.12c0-4.338,1.135-11.091,6.612-17.703
					c6.254-7.61,14.292-9.03,20.692-9.03c5.9,0,11.374,0.926,17.348,5.618c5.404,4.263,9.742,11.447,9.742,21.263
					c0,5.188-1.636,10.587-5.331,15.564c-4.623,5.763-10.666,10.027-21.901,10.027C160.976,381.868,154.791,380.737,149.17,377.249z
					 M181.954,356.842c0-15.571-10.238-24.103-16.217-24.103c-1.42,0-4.976-0.356-9.31,3.84c-4.2,3.981-6.328,11.446-6.328,17.276
					c0,18.202,10.449,24.672,16.35,24.672C179.605,378.527,181.954,362.673,181.954,356.842z"/>
				<path d="M212.379,371.487c0.216,2.633,1.355,6.617,3.7,6.617h2.771c0.427,0,0.5,0.211,0.5,0.497v1.92
					c0,0.28-0.073,0.497-0.639,0.497c-0.785,0-2.701-0.216-7.895-0.216c-6.042,0-8.532,0.216-9.176,0.216
					c-0.565,0-0.634-0.074-0.634-0.639v-1.852c0-0.211,0.069-0.423,0.422-0.423h2.918c2.276,0,3.13-3.272,3.416-5.546
					c0.633-5.05,1.277-21.833,1.277-23.112l-0.069-10.876c0-3.27-0.711-5.404-3.915-5.404h-2.343c-0.427,0-0.501-0.213-0.501-0.499
					v-1.99c0-0.214,0.074-0.427,0.501-0.427c0.711,0,2.632,0.213,11.023,0.213c3.341,0,5.543-0.213,6.397-0.213
					c0.712,0,1.278,0.073,1.705,1.206c4.554,12.092,9.672,23.893,13.652,34.559c0.781-1.351,6.19-14.576,6.617-15.569
					c0.28-0.714,7.394-17.706,7.748-19.13c0.211-0.782,1.14-0.853,3.271-0.853c11.093,0,13.511-0.213,14.292-0.213
					c0.354,0,0.427,0.213,0.427,0.639v1.638c0,0.425-0.073,0.639-0.569,0.639h-3.129c-1.632,0-1.847,1.279-1.847,2.773
					c0,1.066,0.068,18.555,0.142,20.049c0,1.424,0.211,16.993,0.211,18.275c0,2.702,0.644,3.842,1.636,3.842h3.414
					c0.427,0,0.497,0.211,0.497,0.497v1.778c0,0.423-0.069,0.639-0.639,0.639c-0.851,0-2.132-0.216-10.524-0.216
					c-7.25,0-10.026,0.216-10.95,0.216c-0.496,0-0.569-0.216-0.569-0.639v-1.778c0-0.354,0.073-0.497,0.569-0.497h3.98
					c1.208,0,1.852-0.427,1.994-2.422c0.069-0.85,0.285-13.795,0.285-18.771v-21.683h-0.427c-0.712,1.206-8.677,20.543-9.958,23.461
					c-1.493,3.272-7.821,19.057-8.174,19.7c-0.359,0.57-0.855,1.632-1.705,1.632c-0.501,0-0.929-0.501-1.282-1.278
					c-0.216-0.496-9.601-22.544-10.097-23.822c-1.281-3.267-7.825-19.199-8.39-20.052c-0.285,0.998-0.427,18.986-0.427,19.84
					C211.883,355.56,211.956,365.233,212.379,371.487z"/>
				<path d="M288.105,361.318c-0.571,1.498-4.054,11.24-4.054,13.514c0,1.562,0.64,3.272,2.771,3.272h2.491
					c0.708,0,0.781,0.285,0.781,0.57v1.558c0,0.57-0.073,0.786-0.643,0.786c-0.918,0-3.836-0.216-9.668-0.216
					c-5.188,0-6.755,0.216-7.752,0.216c-0.423,0-0.496-0.432-0.496-0.923v-1.352c0-0.427,0.073-0.639,0.496-0.639h1.852
					c1.709,0,3.409-0.997,4.838-3.129c0.993-1.494,6.038-13.869,8.386-20.123c0.571-1.424,6.329-16.711,6.972-18.629
					c0.211-0.71,0.564-1.636,0.068-2.419c-0.215-0.283-0.495-0.639-0.495-0.924c0-0.213,0.142-0.496,0.711-0.638
					c2.274-0.499,6.894-2.349,7.959-3.557c0.358-0.356,0.57-0.641,0.923-0.641c0.432,0,0.571,0.43,0.786,1.208
					c1.347,4.482,6.897,20.408,8.244,24.957c1.64,5.547,6.26,18.772,7.256,20.692c1.209,2.348,3.056,3.203,4.127,3.203h2.418
					c0.422,0,0.496,0.285,0.496,0.639v1.352c0,0.427-0.074,0.923-0.644,0.923c-1.347,0-2.84-0.216-11.944-0.216
					c-5.899,0-8.391,0.216-9.81,0.216c-0.708,0-0.787-0.432-0.787-0.923v-1.352c0-0.354,0.079-0.639,0.429-0.639h1.994
					c1.916,0,2.555-0.712,2.131-2.56c-0.644-2.564-3.414-11.663-4.264-14.227H288.105z M303.035,358.473l-5.331-18.836
					c-0.285-1.068-0.427-1.567-0.782-1.567c-0.431,0-0.644,0.285-0.854,0.926c-0.358,0.923-6.47,17.703-7.04,19.477H303.035z"/>
				<path d="M338.014,348.166c0-1.848-0.211-11.943-0.354-13.007c-0.216-1.71-1.14-1.995-2.349-1.995h-3.552
					c-0.358,0-0.569-0.069-0.569-0.499v-2.059c0-0.285,0.211-0.358,0.496-0.358c0.924,0,4.053,0.213,11.166,0.213
					c1.843,0,8.957-0.213,10.593-0.213c9.674,0,17.352,0.853,24.103,6.47c4.697,3.912,7.968,9.811,7.968,18.059
					c0,8.179-2.348,13.579-7.039,18.703c-6.897,7.463-19.057,7.537-23.538,7.537c-1.139,0-9.526-0.216-13.437-0.216
					c-6.19,0-9.035,0.216-10.031,0.216c-0.35,0-0.497-0.143-0.497-0.639v-1.852c0-0.28,0.217-0.423,0.569-0.423h3.699
					c1.352,0,2.133-0.57,2.275-1.709c0.211-1.494,0.496-17.489,0.496-22.894V348.166z M348.68,355.063
					c0,0.924,0.069,13.014,0.142,17.42c0,1.42,0.285,2.56,1.209,3.911c0.861,1.282,3.273,1.709,5.69,1.709
					c4.121,0,9.599-2.063,13.298-6.971c2.846-3.764,5.051-9.6,5.051-16.212c0-5.829-2.422-11.801-5.763-15.5
					c-3.768-4.193-10.026-6.47-14.148-6.47c-1.994,0-3.061,0.073-3.986,0.569c-1.065,0.496-1.351,1.639-1.423,3.059
					c-0.069,2.987-0.069,12.299-0.069,13.436V355.063z"/>
			</g>
			<g>
				<path d="M442.612,332.668c-5.114,0.618-5.933,1.39-8.823,6.102c-3.336,5.636-5.854,10.107-9.415,16.904
					c-0.96,2.008-1.186,2.854-1.186,4.862v10.5c0,6.488,0.597,7.026,7.417,7.485v2.165h-20.979v-2.165
					c6.595-0.459,7.267-0.924,7.267-7.485v-10.266c0-1.544-0.3-2.242-1.559-4.554c-2.596-4.789-5.262-9.809-9.338-16.986
					c-2.968-5.248-3.781-6.1-8.229-6.562v-2.16h17.72v2.16c-5.267,0.696-5.12,1.62-3.709,4.17c3.11,6.174,6.746,12.508,9.931,18.294
					c2.742-5.094,6.745-12.66,8.822-17.368c1.705-3.862,1.48-4.479-4.3-5.096v-2.16h16.381V332.668z"/>
				<path d="M499.906,354.981c0,16.676-11.198,26.863-24.76,26.863c-13.418,0-24.088-10.881-24.088-25.706
					c0-13.899,9.337-26.79,24.901-26.79C488.564,329.349,499.906,339.541,499.906,354.981z M458.617,353.974
					c0,14.512,7.638,25.095,18.088,25.095c8.226,0,15.638-7.183,15.638-22.011c0-16.284-8.152-24.93-17.862-24.93
					C466.178,332.128,458.617,339.541,458.617,353.974z"/>
				<path d="M563.192,359.535c-4.443,0.694-4.737,1.08-4.737,5.633v6.562c0,2.707,0.072,5.175,0.514,7.261
					c-4.594,1.153-10.674,2.854-16.603,2.854c-16.308,0-27.204-10.578-27.204-25.862c0-17.913,13.791-26.634,28.316-26.634
					c6.153,0,11.856,1.7,14.231,2.24c0.221,2.7,0.593,6.95,1.187,12.042l-2.072,0.464c-1.783-9.421-7.418-11.967-14.458-11.967
					c-11.341,0-19.64,8.646-19.64,22.931c0,11.112,6.296,24.084,20.605,24.084c2.518,0,4.816-0.538,6.447-1.388
					c1.479-0.85,2.371-1.779,2.371-5.023v-6.562c0-5.556-0.515-6.02-7.784-6.636v-2.086h18.826V359.535z"/>
				<path d="M604.031,380.687v-2.165c4.668-0.611,5.335-1.231,4.37-4.241c-0.962-3.015-2.445-7.178-4.076-11.888h-15.784
					c-1.187,3.474-2.304,6.713-3.268,9.954c-1.627,4.866-0.961,5.639,4.6,6.176v2.165h-16.084v-2.165
					c4.669-0.689,5.708-1.153,8.299-7.949l15.345-40.526l2.302-0.698c4.591,13.278,9.553,27.948,14.301,41.375
					c2.371,6.645,3.336,7.338,8.156,7.798v2.165H604.031z M596.766,339.384h-0.147c-2.371,6.64-4.741,13.354-6.971,19.686h13.64
					L596.766,339.384z"/>
			</g>
		</g>
	</g>
</g>
</svg>
