<?xml version="1.0" encoding="iso-8859-1"?>
<!-- Generator: Adobe Illustrator 16.0.0, SVG Export Plug-In . SVG Version: 6.00 Build 0)  -->
<!DOCTYPE svg PUBLIC "-//W3C//DTD SVG 1.1//EN" "http://www.w3.org/Graphics/SVG/1.1/DTD/svg11.dtd">
<svg version="1.1" id="Layer_1" xmlns="http://www.w3.org/2000/svg" xmlns:xlink="http://www.w3.org/1999/xlink" x="0px" y="0px"
	 width="40.119px" height="40.118px" viewBox="0 0 40.119 40.118" style="enable-background:new 0 0 40.119 40.118;"
	 xml:space="preserve">
<path style="fill-rule:evenodd;clip-rule:evenodd;" d="M18.89,22.994c-0.211,0.831-0.415,1.625-0.613,2.418
	c-0.351,1.4-1.039,2.631-1.9,3.77c-0.076,0.102-0.217,0.154-0.328,0.229c-0.045-0.128-0.111-0.253-0.132-0.386
	c-0.388-2.484,0.197-4.859,0.826-7.229c0.132-0.502,0.194-1.034,0.398-1.503c0.357-0.819-0.076-1.555-0.137-2.329
	c-0.066-0.878,0.042-1.71,0.656-2.397c0.418-0.469,0.947-0.745,1.577-0.671c0.947,0.113,1.477,0.946,1.264,1.996
	c-0.132,0.647-0.36,1.275-0.518,1.917c-0.159,0.642-0.344,1.286-0.41,1.94c-0.082,0.816,0.61,1.53,1.436,1.611
	c0.951,0.094,1.689-0.27,2.277-1c0.751-0.937,1.074-2.051,1.233-3.198c0.108-0.794,0.144-1.629,0.024-2.417
	c-0.287-1.892-1.66-2.864-3.416-3.124c-1.379-0.203-2.701,0.026-3.916,0.777c-1.726,1.068-2.708,3.549-2.075,5.374
	c0.136,0.391,0.355,0.755,0.554,1.123c0.2,0.379,0.079,1.327-0.253,1.57c-0.115,0.084-0.332,0.096-0.479,0.056
	c-0.562-0.153-0.941-0.561-1.251-1.025c-1.28-1.923-1.106-4.968,0.374-6.808c1.452-1.806,3.362-2.715,5.646-2.938
	c1.66-0.163,3.21,0.146,4.625,1.006c1.744,1.058,2.778,2.606,2.897,4.67c0.123,2.097-0.331,4.06-1.596,5.78
	c-1.2,1.635-3.391,2.433-5.144,1.903C19.869,23.914,19.339,23.559,18.89,22.994z"/>
<path d="M20.061,3.434c-9.182,0-16.625,7.443-16.625,16.625c0,9.181,7.443,16.625,16.625,16.625s16.625-7.443,16.625-16.625
	C36.686,10.877,29.242,3.434,20.061,3.434z M20.061,33.73c-7.551,0-13.671-6.121-13.671-13.671S12.51,6.388,20.061,6.388
	s13.671,6.121,13.671,13.671S27.611,33.73,20.061,33.73z"/>
</svg>
