<?xml version="1.0" encoding="iso-8859-1"?>
<!-- Generator: Adobe Illustrator 16.0.0, SVG Export Plug-In . SVG Version: 6.00 Build 0)  -->
<!DOCTYPE svg PUBLIC "-//W3C//DTD SVG 1.1//EN" "http://www.w3.org/Graphics/SVG/1.1/DTD/svg11.dtd">
<svg version="1.1" id="Layer_1" xmlns="http://www.w3.org/2000/svg" xmlns:xlink="http://www.w3.org/1999/xlink" x="0px" y="0px"
	 width="40.119px" height="40.118px" viewBox="0 0 40.119 40.118" style="enable-background:new 0 0 40.119 40.118;"
	 xml:space="preserve">
<path d="M20.06,3.434c-9.182,0-16.625,7.443-16.625,16.625c0,9.181,7.443,16.625,16.625,16.625s16.625-7.443,16.625-16.625
	C36.685,10.877,29.241,3.434,20.06,3.434z M20.06,33.73c-7.55,0-13.67-6.121-13.67-13.671S12.51,6.388,20.06,6.388
	c7.551,0,13.672,6.121,13.672,13.671S27.61,33.73,20.06,33.73z"/>
<circle style="fill:#FFFFFF;" cx="20.06" cy="20.059" r="13.671"/>
<path style="fill-rule:evenodd;clip-rule:evenodd;" d="M20.954,17.84c0.358-1.082,0.803-2.061,1.633-2.817
	c1.133-1.03,2.469-1.295,3.919-0.953c0.931,0.219,1.5,1.1,1.604,2.195c0.123,1.297-0.14,2.515-0.738,3.649
	c-1.437,2.725-3.236,5.182-5.556,7.231c-0.678,0.6-1.438,1.062-2.336,1.277c-0.908,0.214-1.565-0.117-2.123-0.817
	c-0.784-0.986-1.048-2.169-1.368-3.34c-0.391-1.433-0.789-2.865-1.229-4.284c-0.161-0.517-0.414-1.018-0.698-1.481
	c-0.291-0.47-0.602-0.499-1.068-0.211c-0.294,0.181-0.581,0.372-0.899,0.575c-0.256-0.33-0.503-0.646-0.788-1.011
	c0.395-0.36,0.763-0.722,1.16-1.051c0.938-0.775,1.856-1.579,2.844-2.284c0.83-0.59,1.796-0.558,2.394,0.076
	c0.368,0.393,0.661,0.935,0.792,1.458c0.279,1.118,0.402,2.274,0.644,3.404c0.223,1.041,0.457,2.088,0.801,3.094
	c0.293,0.859,0.769,0.917,1.357,0.238c0.858-0.991,1.558-2.088,1.932-3.356c0.093-0.309,0.1-0.662,0.066-0.987
	c-0.054-0.56-0.627-0.912-1.273-0.812C21.684,17.684,21.348,17.762,20.954,17.84z"/>
</svg>
