<?xml version="1.0" encoding="iso-8859-1"?>
<!-- Generator: Adobe Illustrator 16.0.0, SVG Export Plug-In . SVG Version: 6.00 Build 0)  -->
<!DOCTYPE svg PUBLIC "-//W3C//DTD SVG 1.1//EN" "http://www.w3.org/Graphics/SVG/1.1/DTD/svg11.dtd">
<svg version="1.1" id="Layer_1" xmlns="http://www.w3.org/2000/svg" xmlns:xlink="http://www.w3.org/1999/xlink" x="0px" y="0px"
	 width="40.119px" height="40.118px" viewBox="0 0 40.119 40.118" style="enable-background:new 0 0 40.119 40.118;"
	 xml:space="preserve">
<g>
	<path style="fill-rule:evenodd;clip-rule:evenodd;" d="M18.085,27.303c0-3.377,0-6.751,0-10.147c1.007,0,1.985,0,2.999,0
		c0,0.432,0,0.86,0,1.267c0.306-0.279,0.592-0.577,0.912-0.826c0.798-0.62,1.717-0.773,2.708-0.665
		c0.648,0.071,1.264,0.207,1.802,0.586c0.82,0.578,1.239,1.44,1.286,2.375c0.111,2.426,0.11,4.858,0.151,7.288
		c0,0.037-0.022,0.072-0.043,0.135c-1.03,0-2.062,0-3.158,0c0-0.146,0-0.285,0-0.424c-0.002-1.775,0.019-3.553-0.024-5.326
		c-0.011-0.437-0.152-0.912-0.372-1.289c-0.396-0.681-1.119-0.625-1.766-0.516c-0.725,0.124-1.106,0.664-1.23,1.361
		c-0.07,0.398-0.086,0.808-0.088,1.212c-0.011,1.643-0.004,3.285-0.004,4.969C20.195,27.303,19.154,27.303,18.085,27.303z"/>
	<path style="fill-rule:evenodd;clip-rule:evenodd;" d="M12.901,27.338c0-0.354,0-0.627,0-0.902c0-2.957,0.006-5.916-0.008-8.873
		c-0.002-0.352,0.101-0.449,0.446-0.438c0.801,0.024,1.603,0.016,2.404,0.003c0.256-0.004,0.378,0.048,0.378,0.344
		c-0.009,3.182-0.002,6.363-0.012,9.544c0,0.107-0.111,0.307-0.176,0.309C14.94,27.344,13.944,27.338,12.901,27.338z"/>
	<path style="fill-rule:evenodd;clip-rule:evenodd;" d="M12.654,13.916c0.003-0.983,0.895-1.859,1.877-1.842
		c0.972,0.016,1.835,0.885,1.835,1.847c0,0.984-0.88,1.865-1.859,1.863C13.522,15.783,12.652,14.905,12.654,13.916z"/>
</g>
<path d="M20.06,3.435c-9.182,0-16.625,7.443-16.625,16.625c0,9.181,7.443,16.624,16.625,16.624S36.685,29.24,36.685,20.06
	C36.685,10.878,29.241,3.435,20.06,3.435z M20.06,33.73c-7.551,0-13.671-6.121-13.671-13.671c0-7.55,6.12-13.671,13.671-13.671
	S33.73,12.509,33.73,20.06C33.73,27.609,27.61,33.73,20.06,33.73z"/>
</svg>
