<?xml version="1.0" encoding="UTF-8" standalone="no"?>
<!DOCTYPE svg PUBLIC "-//W3C//DTD SVG 1.1//EN" "http://www.w3.org/Graphics/SVG/1.1/DTD/svg11.dtd">
<svg width="100%" height="100%" viewBox="0 0 20 20" version="1.1" xmlns="http://www.w3.org/2000/svg" xmlns:xlink="http://www.w3.org/1999/xlink" xml:space="preserve" xmlns:serif="http://www.serif.com/" style="fill-rule:evenodd;clip-rule:evenodd;stroke-linejoin:round;stroke-miterlimit:1.41421;">
    <g transform="matrix(0.612168,0,0,0.612168,16.4761,15.2781)">
        <path d="M0,-17.244C-0.288,-16.854 -2.578,-13.918 -7.631,-11.855C-7.313,-11.205 -7.008,-10.542 -6.725,-9.876C-6.624,-9.64 -6.526,-9.405 -6.43,-9.171C-1.883,-9.742 2.636,-8.826 3.086,-8.731C3.056,-11.956 1.903,-14.918 0,-17.244M-13.781,-21.888C-13.404,-21.382 -10.921,-18.002 -8.682,-13.888C-3.822,-15.709 -1.765,-18.474 -1.519,-18.824C-3.933,-20.966 -7.106,-22.268 -10.579,-22.268C-11.681,-22.268 -12.754,-22.136 -13.781,-21.888M-23.956,-11.401C-23.345,-11.393 -17.715,-11.368 -11.322,-13.066C-13.586,-17.091 -16.029,-20.476 -16.389,-20.97C-20.212,-19.166 -23.07,-15.642 -23.956,-11.401M-20.732,0.536C-20.422,0.006 -16.672,-6.204 -9.623,-8.482C-9.445,-8.54 -9.265,-8.594 -9.085,-8.645C-9.428,-9.421 -9.801,-10.198 -10.193,-10.964C-17.018,-8.922 -23.64,-9.007 -24.238,-9.019C-24.242,-8.88 -24.245,-8.741 -24.245,-8.602C-24.245,-5.092 -22.915,-1.887 -20.732,0.536M-5.24,3.979C-5.444,2.78 -6.237,-1.399 -8.156,-6.385C-8.186,-6.375 -8.216,-6.365 -8.246,-6.355C-15.954,-3.669 -18.721,1.677 -18.967,2.18C-16.65,3.987 -13.738,5.065 -10.579,5.065C-8.686,5.065 -6.881,4.678 -5.24,3.979M2.915,-6.432C2.447,-6.58 -1.315,-7.702 -5.598,-7.017C-3.81,-2.105 -3.083,1.896 -2.943,2.727C0.123,0.654 2.306,-2.63 2.915,-6.432M-10.579,7.378C-19.401,7.378 -26.579,0.2 -26.579,-8.622C-26.579,-17.445 -19.401,-24.622 -10.579,-24.622C-1.756,-24.622 5.421,-17.445 5.421,-8.622C5.421,0.2 -1.756,7.378 -10.579,7.378" style="fill:rgb(41,41,41);"/>
    </g>
</svg>
