<?xml version="1.0" encoding="UTF-8" standalone="no"?>
<!DOCTYPE svg PUBLIC "-//W3C//DTD SVG 1.1//EN" "http://www.w3.org/Graphics/SVG/1.1/DTD/svg11.dtd">
<svg width="100%" height="100%" viewBox="0 0 20 20" version="1.1" xmlns="http://www.w3.org/2000/svg" xmlns:xlink="http://www.w3.org/1999/xlink" xml:space="preserve" xmlns:serif="http://www.serif.com/" style="fill-rule:evenodd;clip-rule:evenodd;stroke-linejoin:round;stroke-miterlimit:1.41421;">
    <g transform="matrix(0.618949,0,0,0.618949,19.0781,19.9032)">
        <path d="M0,-32L-29.333,-32C-30.07,-32 -30.667,-31.403 -30.667,-30.667L-30.667,-1.333C-30.667,-0.597 -30.07,0 -29.333,0L-13.667,0L-13.667,-12L-17.667,-12L-17.667,-17L-13.667,-17L-13.667,-21C-13.667,-25.133 -11.05,-27.167 -7.363,-27.167C-5.597,-27.167 -4.079,-27.035 -3.637,-26.977L-3.637,-22.657L-6.194,-22.656C-8.199,-22.656 -8.667,-21.703 -8.667,-20.305L-8.667,-17L-3.667,-17L-4.667,-12L-8.667,-12L-8.587,0L0,0C0.736,0 1.333,-0.597 1.333,-1.333L1.333,-30.667C1.333,-31.403 0.736,-32 0,-32" style="fill:rgb(85,85,85);fill-rule:nonzero;"/>
    </g>
    <g transform="matrix(0.618949,0,0,0.618949,19.0781,19.9032)">
        <path d="M0,-32L-29.333,-32C-30.07,-32 -30.667,-31.403 -30.667,-30.667L-30.667,-1.333C-30.667,-0.597 -30.07,0 -29.333,0L-13.667,0L-13.667,-12L-17.667,-12L-17.667,-17L-13.667,-17L-13.667,-21C-13.667,-25.133 -11.05,-27.167 -7.363,-27.167C-5.597,-27.167 -4.079,-27.035 -3.637,-26.977L-3.637,-22.657L-6.194,-22.656C-8.199,-22.656 -8.667,-21.703 -8.667,-20.305L-8.667,-17L-3.667,-17L-4.667,-12L-8.667,-12L-8.587,0L0,0C0.736,0 1.333,-0.597 1.333,-1.333L1.333,-30.667C1.333,-31.403 0.736,-32 0,-32" style="fill:rgb(41,41,41);fill-rule:nonzero;"/>
    </g>
</svg>
