<?xml version="1.0" encoding="UTF-8" standalone="no"?>
<!DOCTYPE svg PUBLIC "-//W3C//DTD SVG 1.1//EN" "http://www.w3.org/Graphics/SVG/1.1/DTD/svg11.dtd">
<svg width="100%" height="100%" viewBox="0 0 20 20" version="1.1" xmlns="http://www.w3.org/2000/svg" xmlns:xlink="http://www.w3.org/1999/xlink" xml:space="preserve" xmlns:serif="http://www.serif.com/" style="fill-rule:evenodd;clip-rule:evenodd;stroke-linejoin:round;stroke-miterlimit:1.41421;">
    <g transform="matrix(0.615715,0,0,0.615715,16.9385,3.06274)">
        <path d="M0,22.534L-4.746,22.534L-4.746,15.108C-4.746,13.337 -4.776,11.059 -7.212,11.059C-9.681,11.059 -10.058,12.989 -10.058,14.981L-10.058,22.534L-14.799,22.534L-14.799,7.263L-10.249,7.263L-10.249,9.351L-10.184,9.351C-9.551,8.15 -8.003,6.884 -5.694,6.884C-0.888,6.884 0,10.046 0,14.159L0,22.534ZM-20.15,5.177C-21.675,5.177 -22.904,3.944 -22.904,2.424C-22.904,0.905 -21.675,-0.328 -20.15,-0.328C-18.632,-0.328 -17.399,0.905 -17.399,2.424C-17.399,3.944 -18.632,5.177 -20.15,5.177M-17.776,22.534L-22.527,22.534L-22.527,7.263L-17.776,7.263L-17.776,22.534ZM3.398,-4.733L-25.935,-4.733C-26.672,-4.733 -27.269,-4.136 -27.269,-3.4L-27.269,25.933C-27.269,26.67 -26.672,27.267 -25.935,27.267L3.398,27.267C4.134,27.267 4.731,26.67 4.731,25.933L4.731,-3.4C4.731,-4.136 4.134,-4.733 3.398,-4.733" style="fill:rgb(41,41,41);fill-rule:nonzero;"/>
    </g>
</svg>
