<?xml version="1.0" encoding="UTF-8" standalone="no"?>
<!DOCTYPE svg PUBLIC "-//W3C//DTD SVG 1.1//EN" "http://www.w3.org/Graphics/SVG/1.1/DTD/svg11.dtd">
<svg width="100%" height="100%" viewBox="0 0 20 20" version="1.1" xmlns="http://www.w3.org/2000/svg" xmlns:xlink="http://www.w3.org/1999/xlink" xml:space="preserve" xmlns:serif="http://www.serif.com/" style="fill-rule:evenodd;clip-rule:evenodd;stroke-linejoin:round;stroke-miterlimit:1.41421;">
    <g transform="matrix(0.618949,0,0,0.618949,19.8934,14.5176)">
        <path d="M0,-14.734C-0.143,-11.619 -2.318,-7.355 -6.526,-1.941C-10.877,3.712 -14.558,6.539 -17.568,6.539C-19.434,6.539 -21.013,4.818 -22.302,1.375C-23.163,-1.782 -24.023,-4.939 -24.885,-8.096C-25.843,-11.538 -26.869,-13.261 -27.968,-13.261C-28.208,-13.261 -29.045,-12.757 -30.48,-11.754L-31.984,-13.693C-30.405,-15.08 -28.848,-16.467 -27.315,-17.857C-25.209,-19.676 -23.626,-20.633 -22.573,-20.73C-20.083,-20.969 -18.55,-19.267 -17.975,-15.624C-17.353,-11.693 -16.922,-9.248 -16.681,-8.291C-15.962,-5.029 -15.172,-3.4 -14.31,-3.4C-13.641,-3.4 -12.634,-4.458 -11.293,-6.575C-9.953,-8.69 -9.235,-10.299 -9.139,-11.406C-8.947,-13.231 -9.665,-14.146 -11.293,-14.146C-12.059,-14.146 -12.849,-13.97 -13.661,-13.622C-12.088,-18.772 -9.084,-21.273 -4.649,-21.131C-1.361,-21.034 0.19,-18.902 0,-14.734" style="fill:rgb(41,41,41);fill-rule:nonzero;"/>
    </g>
</svg>
