<?xml version="1.0" encoding="UTF-8"?>
<svg width="451px" height="125px" viewBox="0 0 451 125" version="1.1" xmlns="http://www.w3.org/2000/svg" xmlns:xlink="http://www.w3.org/1999/xlink">
    <!-- Generator: Sketch 61.2 (89653) - https://sketch.com -->
    <title>Group 26</title>
    <desc>Created with Sketch.</desc>
    <defs>
        <path d="M14,30 L18.8843931,30 C24.2948247,30 27,27.833355 27,23.5 C27,19.166645 24.2948247,17 18.8843931,17 L14,17 L14,30 Z M14.3414634,61 L0,61 L0,6 L22.8292683,6 C29.0244212,6 33.7682762,7.60475849 37.0609756,10.8143236 C40.353675,14.0238887 42,18.5463899 42,24.3819629 C42,30.2175358 40.353675,34.740037 37.0609756,37.9496021 C33.7682762,41.1591672 29.0244212,42.7639257 22.8292683,42.7639257 L14.3414634,42.7639257 L14.3414634,61 Z M60,41.3914894 C60,42.6453963 60.2300547,43.790775 60.6901709,44.8276596 C61.1502872,45.8645442 61.7556943,46.7687905 62.5064103,47.5404255 C63.2571263,48.3120606 64.1531287,48.9148914 65.1944444,49.3489362 C66.2357602,49.7829809 67.337601,50 68.5,50 C69.662399,50 70.7642398,49.7829809 71.8055556,49.3489362 C72.8468713,48.9148914 73.7428737,48.3120606 74.4935897,47.5404255 C75.2443057,46.7687905 75.8497128,45.8645442 76.3098291,44.8276596 C76.7699453,43.790775 77,42.6695096 77,41.4638298 C77,40.3063772 76.7699453,39.209225 76.3098291,38.1723404 C75.8497128,37.1354558 75.2443057,36.2312095 74.4935897,35.4595745 C73.7428737,34.6879394 72.8468713,34.0851086 71.8055556,33.6510638 C70.7642398,33.2170191 69.662399,33 68.5,33 C67.337601,33 66.2357602,33.2170191 65.1944444,33.6510638 C64.1531287,34.0851086 63.2571263,34.6879394 62.5064103,35.4595745 C61.7556943,36.2312095 61.1502872,37.1233992 60.6901709,38.1361702 C60.2300547,39.1489412 60,40.2340368 60,41.3914894 Z M46,41.6733212 C46,38.9146868 46.5600593,36.33758 47.6801948,33.9419238 C48.8003303,31.5462675 50.3587562,29.4652236 52.3555195,27.6987296 C54.3522827,25.9322356 56.7264473,24.5408399 59.4780844,23.5245009 C62.2297216,22.5081619 65.2369967,22 68.5,22 C71.7143018,22 74.6972265,22.4960628 77.4488636,23.4882033 C80.2005008,24.4803437 82.5868405,25.8596403 84.6079545,27.6261343 C86.6290685,29.3926283 88.1996697,31.4978704 89.3198052,33.9419238 C90.4399407,36.3859771 91,39.0840748 91,42.0362976 C91,44.9885205 90.4277655,47.6866181 89.2832792,50.1306715 C88.138793,52.5747249 86.5681918,54.679967 84.5714286,56.446461 C82.5746653,58.212955 80.1761504,59.5801525 77.3758117,60.5480944 C74.575473,61.5160363 71.5438475,62 68.2808442,62 C65.0665424,62 62.0957929,61.5160363 59.3685065,60.5480944 C56.6412201,59.5801525 54.291406,58.2008559 52.3189935,56.4101633 C50.346581,54.6194708 48.8003303,52.4779314 47.6801948,49.9854809 C46.5600593,47.4930305 46,44.7223383 46,41.6733212 Z M106.780488,23 L115.780488,42.4736842 L125.146341,23 L133.487805,23 L142.853659,43.0506823 L152.292683,23 L167,23 L147.390244,60 L138.536585,60 L129.170732,39.7329435 L120.243902,60 L111.243902,60 L92,23 L106.780488,23 Z M197,37 C196.565215,34.8888783 195.671504,33.1944508 194.318841,31.9166667 C192.966177,30.6388825 191.323681,30 189.391304,30 C187.362309,30 185.707736,30.611105 184.427536,31.8333333 C183.147337,33.0555617 182.338166,34.7777667 182,37 L197,37 Z M181.303191,44.2141561 C181.303191,49.8766163 183.968649,52.707804 189.299645,52.707804 C192.158998,52.707804 194.315596,51.5462911 195.769504,49.2232305 L208.491135,49.2232305 C205.922564,57.7411194 199.501233,62 189.22695,62 C186.076816,62 183.193275,61.5281354 180.576241,60.584392 C177.959207,59.6406486 175.717799,58.2976494 173.85195,56.5553539 C171.986102,54.8130584 170.544331,52.7320145 169.526596,50.3121597 C168.50886,47.8923049 168,45.1821082 168,42.1814882 C168,39.084074 168.484629,36.2891837 169.453901,33.7967332 C170.423173,31.3042828 171.804365,29.1869416 173.597518,27.4446461 C175.390671,25.7023506 177.559384,24.3593514 180.103723,23.415608 C182.648062,22.4718646 185.519488,22 188.718085,22 C191.868219,22 194.703297,22.4718646 197.223404,23.415608 C199.743511,24.3593514 201.875878,25.7265488 203.620567,27.5172414 C205.365257,29.3079339 206.697986,31.4978697 207.618794,34.0871143 C208.539603,36.676359 209,39.5922403 209,42.8348457 L209,44.2141561 L181.303191,44.2141561 Z M216,22.7977099 L229.163636,22.7977099 L229.163636,28.889313 C230.569704,26.6653833 232.290899,24.9612019 234.327273,23.7767176 C236.363647,22.5922333 238.73938,22 241.454545,22 L242.581818,22 C242.993941,22 243.466664,22.0483456 244,22.1450382 L244,34.6908397 C242.254537,33.8206063 240.363647,33.3854962 238.327273,33.3854962 C235.272712,33.3854962 232.981826,34.2919757 231.454545,36.1049618 C229.927265,37.917948 229.163636,40.5648681 229.163636,44.0458015 L229.163636,60 L216,60 L216,22.7977099 Z M266,30 L270.884393,30 C276.294825,30 279,27.833355 279,23.5 C279,19.166645 276.294825,17 270.884393,17 L266,17 L266,30 Z M266.341463,61 L252,61 L252,6 L274.829268,6 C281.024421,6 285.768276,7.60475849 289.060976,10.8143236 C292.353675,14.0238887 294,18.5463899 294,24.3819629 C294,30.2175358 292.353675,34.740037 289.060976,37.9496021 C285.768276,41.1591672 281.024421,42.7639257 274.829268,42.7639257 L266.341463,42.7639257 L266.341463,61 Z M311,41.3914894 C311,42.6453963 311.230055,43.790775 311.690171,44.8276596 C312.150287,45.8645442 312.755694,46.7687905 313.50641,47.5404255 C314.257126,48.3120606 315.153129,48.9148914 316.194444,49.3489362 C317.23576,49.7829809 318.337601,50 319.5,50 C320.662399,50 321.76424,49.7829809 322.805556,49.3489362 C323.846871,48.9148914 324.742874,48.3120606 325.49359,47.5404255 C326.244306,46.7687905 326.849713,45.8645442 327.309829,44.8276596 C327.769945,43.790775 328,42.6695096 328,41.4638298 C328,40.3063772 327.769945,39.209225 327.309829,38.1723404 C326.849713,37.1354558 326.244306,36.2312095 325.49359,35.4595745 C324.742874,34.6879394 323.846871,34.0851086 322.805556,33.6510638 C321.76424,33.2170191 320.662399,33 319.5,33 C318.337601,33 317.23576,33.2170191 316.194444,33.6510638 C315.153129,34.0851086 314.257126,34.6879394 313.50641,35.4595745 C312.755694,36.2312095 312.150287,37.1233992 311.690171,38.1361702 C311.230055,39.1489412 311,40.2340368 311,41.3914894 Z M297,41.6733212 C297,38.9146868 297.560059,36.33758 298.680195,33.9419238 C299.80033,31.5462675 301.358756,29.4652236 303.355519,27.6987296 C305.352283,25.9322356 307.726447,24.5408399 310.478084,23.5245009 C313.229722,22.5081619 316.236997,22 319.5,22 C322.714302,22 325.697227,22.4960628 328.448864,23.4882033 C331.200501,24.4803437 333.586841,25.8596403 335.607955,27.6261343 C337.629069,29.3926283 339.19967,31.4978704 340.319805,33.9419238 C341.439941,36.3859771 342,39.0840748 342,42.0362976 C342,44.9885205 341.427765,47.6866181 340.283279,50.1306715 C339.138793,52.5747249 337.568192,54.679967 335.571429,56.446461 C333.574665,58.212955 331.17615,59.5801525 328.375812,60.5480944 C325.575473,61.5160363 322.543847,62 319.280844,62 C316.066542,62 313.095793,61.5160363 310.368506,60.5480944 C307.64122,59.5801525 305.291406,58.2008559 303.318994,56.4101633 C301.346581,54.6194708 299.80033,52.4779314 298.680195,49.9854809 C297.560059,47.4930305 297,44.7223383 297,41.6733212 Z M362,41.3905579 C362,42.6065869 362.217947,43.7374769 362.653846,44.7832618 C363.089746,45.8290467 363.683045,46.7410548 364.433761,47.5193133 C365.184477,48.2975718 366.080479,48.9055772 367.121795,49.3433476 C368.163111,49.7811181 369.289168,50 370.5,50 C371.662399,50 372.76424,49.7811181 373.805556,49.3433476 C374.846871,48.9055772 375.742874,48.2975718 376.49359,47.5193133 C377.244306,46.7410548 377.849713,45.8412068 378.309829,44.8197425 C378.769945,43.7982782 379,42.7038685 379,41.5364807 C379,40.3690929 378.769945,39.2625231 378.309829,38.2167382 C377.849713,37.1709533 377.244306,36.2589452 376.49359,35.4806867 C375.742874,34.7024282 374.846871,34.0944228 373.805556,33.6566524 C372.76424,33.2188819 371.662399,33 370.5,33 C369.337601,33 368.23576,33.2188819 367.194444,33.6566524 C366.153129,34.0944228 365.257126,34.7024282 364.50641,35.4806867 C363.755694,36.2589452 363.150287,37.1466331 362.690171,38.1437768 C362.230055,39.1409206 362,40.2231701 362,41.3905579 Z M378.608696,0 L392,0 L392,60.8274232 L378.608696,60.8274232 L378.608696,56.6501182 C375.763642,60.2167239 371.913068,62 367.056856,62 C364.309908,62 361.783735,61.4870028 359.478261,60.4609929 C357.172787,59.434983 355.161659,58.0181335 353.444816,56.2104019 C351.727974,54.4026702 350.391309,52.277396 349.434783,49.8345154 C348.478256,47.3916348 348,44.7533633 348,41.9196217 C348,39.2324531 348.45373,36.6796811 349.361204,34.2612293 C350.268678,31.8427775 351.55629,29.7297175 353.22408,27.9219858 C354.89187,26.1142542 356.890735,24.6851904 359.220736,23.6347518 C361.550736,22.5843131 364.113698,22.0591017 366.909699,22.0591017 C371.618753,22.0591017 375.518379,23.6958071 378.608696,26.9692671 L378.608696,0 Z M425.340757,32.9618875 C422.890856,31.703563 420.489989,31.0744102 418.138085,31.0744102 C416.913134,31.0744102 415.920939,31.316392 415.16147,31.800363 C414.402001,32.2843339 414.022272,32.9376849 414.022272,33.7604356 C414.022272,34.1960094 414.083518,34.5468831 414.206013,34.8130672 C414.328508,35.0792512 414.597993,35.3333321 415.014477,35.5753176 C415.43096,35.8173031 416.043426,36.0350868 416.851893,36.2286751 C417.66036,36.4222635 418.726051,36.6642454 420.048998,36.9546279 C423.723849,37.6805844 426.467697,38.9751873 428.280624,40.8384755 C430.09355,42.7017637 431,45.0852849 431,47.9891107 C431,50.16698 430.559024,52.127033 429.67706,53.8693285 C428.795096,55.611624 427.570164,57.0756142 426.002227,58.261343 C424.434291,59.4470719 422.547895,60.3666029 420.342984,61.0199637 C418.138074,61.6733245 415.712708,62 413.066815,62 C407.971021,62 402.9488,60.5723071 398,57.7168784 L402.85078,48.4246824 C406.574629,50.9413314 410.102433,52.199637 413.434298,52.199637 C414.659249,52.199637 415.663693,51.933457 416.447661,51.4010889 C417.23163,50.8687209 417.623608,50.1911717 417.623608,49.3684211 C417.623608,48.8844501 417.562361,48.48518 417.439866,48.1705989 C417.317371,47.8560178 417.060136,47.5656396 416.668151,47.2994555 C416.276167,47.0332715 415.700449,46.7912897 414.94098,46.5735027 C414.181511,46.3557158 413.189316,46.125833 411.964365,45.8838475 C407.848532,45.0610969 404.969941,43.8390886 403.328508,42.2177858 C401.687074,40.5964831 400.86637,38.358151 400.86637,35.5027223 C400.86637,33.4216472 401.258348,31.5462878 402.042316,29.876588 C402.826285,28.2068882 403.953222,26.7912944 405.423163,25.6297641 C406.893103,24.4682338 408.669255,23.5729009 410.75167,22.9437387 C412.834086,22.3145764 415.149208,22 417.697105,22 C421.861936,22 425.904212,22.7985401 429.824053,24.3956443 L425.340757,32.9618875 Z" id="path-1"></path>
        <filter x="-2.9%" y="-20.2%" width="108.1%" height="156.5%" filterUnits="objectBoundingBox" id="filter-2">
            <feOffset dx="5" dy="5" in="SourceAlpha" result="shadowOffsetOuter1"></feOffset>
            <feGaussianBlur stdDeviation="5" in="shadowOffsetOuter1" result="shadowBlurOuter1"></feGaussianBlur>
            <feColorMatrix values="0 0 0 0 0   0 0 0 0 0   0 0 0 0 0  0 0 0 0.671956949 0" type="matrix" in="shadowBlurOuter1"></feColorMatrix>
        </filter>
    </defs>
    <g id="Page-1" stroke="none" stroke-width="1" fill="none" fill-rule="evenodd">
        <g id="PowerPods" transform="translate(-99.000000, -1449.000000)">
            <g id="Group-26" transform="translate(104.000000, 1454.000000)">
                <g id="PowerPods" fill-rule="nonzero">
                    <use fill="black" fill-opacity="1" filter="url(#filter-2)" xlink:href="#path-1"></use>
                    <use fill="#FFFFFF" xlink:href="#path-1"></use>
                </g>
                <text id="Powered-by-Earth" font-family="Futura-Bold, Futura" font-size="30" font-weight="bold" fill="#991B4C">
                    <tspan x="64.11" y="112">Powered by Earth</tspan>
                </text>
            </g>
        </g>
    </g>
</svg>