<?xml version="1.0" encoding="iso-8859-1"?>
<!-- Generator: Adobe Illustrator 16.0.0, SVG Export Plug-In . SVG Version: 6.00 Build 0)  -->
<!DOCTYPE svg PUBLIC "-//W3C//DTD SVG 1.0//EN" "http://www.w3.org/TR/2001/REC-SVG-20010904/DTD/svg10.dtd">
<svg version="1.0" id="Layer_1" xmlns="http://www.w3.org/2000/svg" xmlns:xlink="http://www.w3.org/1999/xlink" x="0px" y="0px"
	 width="991.893px" height="669.578px" viewBox="0 0 991.893 669.578" style="enable-background:new 0 0 991.893 669.578;"
	 xml:space="preserve">
<style type="text/css">
<![CDATA[
	.st0{fill:#E4E4E6;}
	.st1{fill:#848682;}
	.st2{opacity:0.7;fill:#E4E4E6;}
	.st3{fill:#B7A392;}
	.st4{opacity:0.8;fill:#C4BDB5;}
	.st5{fill:#FEFEFE;}
	.st6{fill:#023A47;}
	.st7{opacity:0.8;fill:#10313B;}
	.st8{fill:#3B6D52;}
	.st9{opacity:0.8;fill:#4B6055;}
	.st10{opacity:0.8;fill:#848682;}
]]>
</style>
<g>
	<rect y="74.529" class="st6" width="198.378" height="233.983"/>
	<rect x="793.515" y="40.693" class="st0" width="198.378" height="267.819"/>
	<rect x="595.136" y="127.166" class="st3" width="198.379" height="181.346"/>
	<rect x="396.756" class="st1" width="198.379" height="308.512"/>
	<rect x="198.378" y="191.521" class="st8" width="198.378" height="116.991"/>
	<g>
		<rect y="308.512" class="st7" width="198.378" height="361.065"/>
		<rect x="793.515" y="308.512" class="st2" width="198.378" height="143.625"/>
		<rect x="595.136" y="308.512" class="st4" width="198.379" height="180.534"/>
		<rect x="396.756" y="308.512" class="st10" width="198.379" height="292.401"/>
		<rect x="198.378" y="308.512" class="st9" width="198.378" height="233.985"/>
	</g>
	<g>
		<path class="st5" d="M62.936,104.966v17.193h-0.838v-14.802l-4.249,11.673l-4.272-11.673v14.802h-0.839v-17.193h0.864
			l4.247,11.598l4.222-11.598H62.936z"/>
		<path class="st5" d="M69.65,109.493c0.474,0,0.906,0.089,1.298,0.267c0.39,0.179,0.724,0.42,1.004,0.725
			c0.279,0.305,0.499,0.666,0.661,1.081c0.161,0.416,0.243,0.861,0.243,1.335v2.976v3.001v3.281h-0.84v-1.042
			c-0.323,0.356-0.704,0.639-1.145,0.852c-0.441,0.211-0.916,0.318-1.425,0.318c-0.474,0-0.919-0.09-1.335-0.267
			c-0.416-0.179-0.776-0.42-1.081-0.726c-0.305-0.305-0.548-0.665-0.725-1.081c-0.178-0.415-0.268-0.861-0.268-1.335v-0.712
			c0-1.051,0.645-1.814,1.933-2.289c0.152-0.067,0.41-0.169,0.776-0.306c0.365-0.135,0.753-0.284,1.17-0.445
			c0.416-0.161,0.818-0.313,1.208-0.458c0.389-0.144,0.687-0.258,0.89-0.342v-1.425c0-0.713-0.216-1.318-0.647-1.819
			c-0.435-0.499-1.005-0.75-1.718-0.75c-0.356,0-0.687,0.068-0.992,0.204c-0.305,0.136-0.576,0.317-0.813,0.546
			c-0.237,0.23-0.424,0.501-0.559,0.814c-0.137,0.314-0.204,0.648-0.204,1.005h-0.84c0-0.475,0.089-0.92,0.267-1.335
			s0.419-0.776,0.725-1.081c0.304-0.305,0.665-0.546,1.081-0.725C68.73,109.583,69.176,109.493,69.65,109.493z M72.016,115.877
			v-0.636c-0.255,0.102-0.569,0.221-0.941,0.355c-0.372,0.136-0.746,0.276-1.119,0.421c-0.374,0.144-0.713,0.275-1.017,0.393
			c-0.305,0.119-0.527,0.204-0.662,0.255c-0.322,0.118-0.636,0.296-0.941,0.534c-0.305,0.237-0.457,0.559-0.457,0.967v0.712
			c0,0.356,0.067,0.69,0.204,1.005c0.135,0.313,0.318,0.585,0.546,0.813c0.229,0.229,0.501,0.411,0.814,0.546
			c0.314,0.136,0.649,0.204,1.004,0.204c0.356,0,0.69-0.067,1.004-0.204c0.314-0.135,0.585-0.317,0.815-0.546
			c0.228-0.229,0.411-0.5,0.546-0.813c0.135-0.314,0.204-0.649,0.204-1.005V115.877z"/>
		<path class="st5" d="M81.07,109.493v0.839h-0.992c-0.356,0-0.687,0.068-0.992,0.204c-0.305,0.136-0.576,0.317-0.813,0.546
			c-0.237,0.23-0.423,0.501-0.559,0.814c-0.137,0.314-0.203,0.648-0.203,1.005v2.976v6.282h-0.84v-6.282v-2.976v-2.441h-0.839v-0.84
			h0.839h0.84v0.84v0.203c0.643-0.746,1.475-1.136,2.492-1.17H81.07z"/>
		<path class="st5" d="M84.274,109.417h0.84v0.864v11.7h-0.84v-11.7h-0.839v-0.864H84.274z M84.479,106.517
			c-0.186,0-0.34-0.058-0.457-0.177c-0.119-0.118-0.179-0.271-0.179-0.458c0-0.186,0.06-0.339,0.179-0.457
			c0.117-0.119,0.271-0.18,0.457-0.18c0.169,0,0.317,0.061,0.445,0.18c0.127,0.118,0.19,0.271,0.19,0.457
			c0,0.188-0.063,0.34-0.19,0.458C84.795,106.459,84.647,106.517,84.479,106.517z"/>
		<path class="st5" d="M92.133,109.493c0.474,0,0.92,0.089,1.336,0.267c0.415,0.179,0.775,0.42,1.08,0.725
			c0.306,0.305,0.547,0.666,0.725,1.081s0.267,0.861,0.267,1.335v2.976v6.282h-0.839v-6.282v-2.976c0-0.356-0.068-0.69-0.204-1.005
			c-0.135-0.313-0.317-0.584-0.546-0.814c-0.229-0.229-0.5-0.41-0.814-0.546s-0.648-0.204-1.004-0.204
			c-0.355,0-0.69,0.068-1.005,0.204c-0.313,0.136-0.584,0.317-0.813,0.546c-0.228,0.23-0.41,0.501-0.546,0.814
			c-0.136,0.314-0.203,0.648-0.203,1.005v2.976v6.282h-0.84v-6.282v-2.976v-3.281h0.84v1.042c0.321-0.374,0.703-0.662,1.144-0.865
			C91.149,109.594,91.625,109.493,92.133,109.493z"/>
		<path class="st5" d="M103.527,115.191c-0.152,0.051-0.407,0.148-0.763,0.292c-0.356,0.145-0.742,0.292-1.157,0.445
			c-0.416,0.152-0.818,0.306-1.208,0.458c-0.39,0.152-0.695,0.262-0.916,0.331v2.162c0,0.356,0.068,0.69,0.204,1.005
			c0.136,0.313,0.318,0.585,0.547,0.813c0.228,0.229,0.5,0.411,0.813,0.546c0.314,0.136,0.649,0.204,1.004,0.204
			c0.356,0,0.69-0.067,1.005-0.204c0.314-0.135,0.585-0.317,0.815-0.546c0.228-0.229,0.41-0.5,0.546-0.813
			c0.135-0.314,0.203-0.649,0.203-1.005h0.84c0,0.474-0.089,0.92-0.267,1.335c-0.178,0.416-0.419,0.775-0.725,1.081
			c-0.306,0.306-0.666,0.546-1.081,0.726c-0.416,0.177-0.862,0.267-1.337,0.267c-0.474,0-0.919-0.09-1.334-0.267
			c-0.417-0.179-0.776-0.42-1.081-0.726c-0.306-0.305-0.548-0.665-0.725-1.081c-0.178-0.415-0.267-0.861-0.267-1.335v-5.977
			c0-0.475,0.089-0.92,0.267-1.335c0.177-0.416,0.419-0.776,0.725-1.081c0.304-0.305,0.664-0.546,1.081-0.725
			c0.416-0.178,0.86-0.267,1.334-0.267c0.475,0,0.921,0.089,1.337,0.267c0.415,0.179,0.775,0.42,1.081,0.725
			s0.546,0.666,0.725,1.081s0.267,0.852,0.267,1.309v0.026C105.46,113.953,104.816,114.716,103.527,115.191z M102.051,110.333
			c-0.355,0-0.69,0.068-1.004,0.204c-0.313,0.136-0.585,0.317-0.813,0.546c-0.229,0.23-0.411,0.501-0.547,0.814
			c-0.136,0.314-0.204,0.648-0.204,1.005v2.925c0.255-0.103,0.568-0.225,0.942-0.369c0.372-0.145,0.745-0.284,1.119-0.42
			c0.372-0.135,0.715-0.262,1.028-0.381c0.314-0.118,0.538-0.203,0.675-0.254c0.305-0.118,0.609-0.296,0.916-0.534
			c0.306-0.238,0.458-0.568,0.458-0.993c0-0.355-0.068-0.687-0.203-0.991c-0.136-0.306-0.318-0.572-0.546-0.802
			c-0.23-0.229-0.501-0.41-0.815-0.546S102.408,110.333,102.051,110.333z"/>
		<path class="st5" d="M119.194,111.579c0.713,0.255,1.298,0.691,1.755,1.311c0.459,0.619,0.687,1.326,0.687,2.123v3.51
			c0,0.507-0.097,0.983-0.292,1.425c-0.195,0.44-0.458,0.826-0.789,1.157c-0.331,0.331-0.716,0.588-1.158,0.774
			c-0.44,0.188-0.915,0.28-1.424,0.28h-3.306h-0.408h-0.432v-17.193h0.432h0.408h2.467c0.509,0,0.983,0.093,1.424,0.279
			c0.44,0.188,0.827,0.446,1.157,0.777c0.331,0.331,0.594,0.717,0.789,1.157c0.194,0.441,0.293,0.915,0.293,1.425
			c0,0.627-0.146,1.199-0.433,1.716C120.076,110.838,119.686,111.258,119.194,111.579z M114.667,105.806v5.569h2.568
			c0.373-0.016,0.726-0.096,1.056-0.241c0.33-0.144,0.618-0.343,0.865-0.597c0.245-0.255,0.44-0.546,0.585-0.877
			c0.143-0.332,0.215-0.684,0.215-1.056c0-0.391-0.077-0.755-0.229-1.095c-0.152-0.339-0.355-0.636-0.61-0.89
			c-0.254-0.255-0.551-0.453-0.89-0.598c-0.339-0.144-0.705-0.216-1.094-0.216H114.667z M120.797,115.013
			c0-0.374-0.073-0.729-0.218-1.069c-0.143-0.338-0.338-0.636-0.584-0.889c-0.246-0.255-0.537-0.453-0.877-0.599
			c-0.339-0.143-0.704-0.224-1.094-0.241h-0.789h-0.102h-2.467v9.106h3.306c0.39,0,0.755-0.072,1.094-0.216
			c0.339-0.145,0.636-0.345,0.89-0.599c0.254-0.254,0.457-0.55,0.61-0.89c0.152-0.338,0.229-0.704,0.229-1.093V115.013z"/>
		<path class="st5" d="M124.739,122.159v-18.236h0.84v18.236H124.739z"/>
		<path class="st5" d="M135.752,109.621v6.256v3.001v3.281h-0.84v-1.042c-0.323,0.356-0.704,0.639-1.145,0.852
			c-0.44,0.211-0.915,0.318-1.425,0.318c-0.474,0-0.918-0.09-1.334-0.267c-0.416-0.179-0.776-0.42-1.08-0.726
			c-0.306-0.305-0.548-0.665-0.726-1.081c-0.178-0.415-0.267-0.861-0.267-1.335v-3.001v-6.256h0.839v6.256v3.001
			c0,0.356,0.067,0.69,0.204,1.005c0.135,0.313,0.317,0.585,0.547,0.813c0.228,0.229,0.5,0.411,0.813,0.546
			c0.313,0.136,0.649,0.204,1.004,0.204c0.356,0,0.69-0.067,1.005-0.204c0.314-0.135,0.584-0.317,0.815-0.546
			c0.229-0.229,0.41-0.5,0.546-0.813c0.135-0.314,0.203-0.649,0.203-1.005v-3.001v-6.256H135.752z"/>
		<path class="st5" d="M143.61,115.191c-0.153,0.051-0.408,0.148-0.763,0.292c-0.356,0.145-0.743,0.292-1.157,0.445
			c-0.416,0.152-0.819,0.306-1.208,0.458c-0.391,0.152-0.696,0.262-0.916,0.331v2.162c0,0.356,0.067,0.69,0.204,1.005
			c0.136,0.313,0.318,0.585,0.547,0.813c0.228,0.229,0.5,0.411,0.812,0.546c0.314,0.136,0.65,0.204,1.005,0.204
			c0.356,0,0.69-0.067,1.005-0.204c0.314-0.135,0.584-0.317,0.814-0.546c0.229-0.229,0.412-0.5,0.547-0.813
			c0.135-0.314,0.203-0.649,0.203-1.005h0.84c0,0.474-0.09,0.92-0.267,1.335c-0.179,0.416-0.42,0.775-0.726,1.081
			c-0.305,0.306-0.666,0.546-1.08,0.726c-0.417,0.177-0.862,0.267-1.337,0.267c-0.474,0-0.919-0.09-1.335-0.267
			c-0.416-0.179-0.776-0.42-1.08-0.726c-0.305-0.305-0.548-0.665-0.726-1.081c-0.177-0.415-0.267-0.861-0.267-1.335v-5.977
			c0-0.475,0.09-0.92,0.267-1.335c0.178-0.416,0.42-0.776,0.726-1.081c0.304-0.305,0.664-0.546,1.08-0.725
			c0.416-0.178,0.861-0.267,1.335-0.267c0.475,0,0.92,0.089,1.337,0.267c0.414,0.179,0.774,0.42,1.08,0.725s0.546,0.666,0.726,1.081
			c0.177,0.416,0.267,0.852,0.267,1.309v0.026C145.544,113.953,144.899,114.716,143.61,115.191z M142.135,110.333
			c-0.355,0-0.691,0.068-1.005,0.204c-0.313,0.136-0.584,0.317-0.812,0.546c-0.229,0.23-0.411,0.501-0.547,0.814
			c-0.137,0.314-0.204,0.648-0.204,1.005v2.925c0.255-0.103,0.568-0.225,0.941-0.369c0.374-0.145,0.746-0.284,1.119-0.42
			c0.373-0.135,0.716-0.262,1.03-0.381c0.314-0.118,0.538-0.203,0.675-0.254c0.305-0.118,0.609-0.296,0.915-0.534
			c0.305-0.238,0.458-0.568,0.458-0.993c0-0.355-0.068-0.687-0.203-0.991c-0.136-0.306-0.318-0.572-0.547-0.802
			c-0.229-0.229-0.5-0.41-0.814-0.546S142.491,110.333,142.135,110.333z"/>
	</g>
	<g>
		<path class="st5" d="M246.327,243.389l-1.195-5.391h-4.934l-1.195,5.391h-0.866l3.815-17.192h1.424l3.814,17.192H246.327z
			 M240.377,237.159h4.577l-2.289-10.275L240.377,237.159z"/>
		<path class="st5" d="M258.917,230.724c0.474,0,0.92,0.089,1.335,0.267c0.416,0.179,0.776,0.419,1.081,0.725
			c0.305,0.305,0.547,0.665,0.725,1.081c0.179,0.416,0.266,0.861,0.266,1.336v2.975v6.281h-0.838v-6.281v-2.975
			c0-0.357-0.068-0.69-0.203-1.006c-0.137-0.313-0.319-0.583-0.548-0.813c-0.228-0.228-0.499-0.41-0.814-0.546
			c-0.313-0.135-0.647-0.204-1.004-0.204s-0.687,0.069-0.992,0.204c-0.305,0.137-0.577,0.318-0.813,0.546
			c-0.237,0.229-0.424,0.5-0.561,0.813c-0.135,0.316-0.201,0.649-0.201,1.006v2.975v6.281h-0.84v-6.281v-2.975
			c0-0.357-0.069-0.69-0.204-1.006c-0.136-0.313-0.318-0.583-0.546-0.813c-0.23-0.228-0.501-0.41-0.815-0.546
			c-0.314-0.135-0.648-0.204-1.005-0.204c-0.355,0-0.69,0.069-1.004,0.204c-0.313,0.137-0.586,0.318-0.814,0.546
			c-0.229,0.229-0.411,0.5-0.546,0.813c-0.137,0.316-0.204,0.649-0.204,1.006v2.975v6.281h-0.839v-6.281v-2.975v-3.282h0.839v1.043
			c0.321-0.374,0.703-0.662,1.144-0.866c0.441-0.204,0.917-0.305,1.424-0.305c0.645,0,1.234,0.161,1.769,0.483
			c0.534,0.323,0.945,0.748,1.233,1.272c0.288-0.525,0.695-0.95,1.221-1.272S258.271,230.724,258.917,230.724z"/>
		<path class="st5" d="M269.039,230.724c0.475,0,0.907,0.089,1.297,0.267c0.391,0.179,0.725,0.419,1.005,0.725
			c0.279,0.305,0.499,0.665,0.66,1.081c0.162,0.416,0.243,0.861,0.243,1.336v2.975v3.002v3.279h-0.84v-1.042
			c-0.323,0.356-0.704,0.639-1.146,0.853c-0.44,0.21-0.915,0.316-1.424,0.316c-0.474,0-0.918-0.088-1.335-0.267
			c-0.416-0.178-0.776-0.419-1.08-0.725c-0.306-0.305-0.548-0.665-0.726-1.081c-0.177-0.416-0.266-0.86-0.266-1.334v-0.713
			c0-1.051,0.645-1.815,1.932-2.289c0.153-0.066,0.411-0.168,0.776-0.305c0.365-0.137,0.753-0.284,1.17-0.446
			c0.416-0.161,0.818-0.313,1.208-0.457c0.39-0.145,0.687-0.258,0.89-0.343v-1.424c0-0.713-0.216-1.32-0.648-1.819
			c-0.433-0.5-1.004-0.75-1.717-0.75c-0.356,0-0.687,0.069-0.992,0.204c-0.305,0.137-0.577,0.318-0.814,0.546
			c-0.237,0.229-0.424,0.5-0.559,0.813c-0.136,0.316-0.203,0.649-0.203,1.006h-0.839c0-0.475,0.089-0.92,0.267-1.336
			c0.177-0.416,0.419-0.776,0.725-1.081c0.305-0.306,0.665-0.546,1.081-0.725C268.119,230.813,268.564,230.724,269.039,230.724z
			 M271.404,237.108v-0.635c-0.254,0.101-0.569,0.221-0.941,0.356c-0.373,0.135-0.747,0.276-1.119,0.42
			c-0.374,0.144-0.713,0.275-1.017,0.393c-0.307,0.119-0.527,0.205-0.663,0.255c-0.321,0.117-0.636,0.296-0.941,0.533
			c-0.304,0.237-0.457,0.56-0.457,0.967v0.713c0,0.355,0.067,0.69,0.204,1.004c0.135,0.314,0.317,0.585,0.546,0.814
			c0.228,0.229,0.5,0.411,0.813,0.546c0.314,0.137,0.649,0.204,1.004,0.204c0.356,0,0.69-0.067,1.005-0.204
			c0.315-0.135,0.585-0.316,0.815-0.546c0.228-0.229,0.41-0.5,0.546-0.814c0.135-0.313,0.203-0.648,0.203-1.004V237.108z"/>
		<path class="st5" d="M281.297,231.691l-5.519,10.861h5.519v0.837h-6.46v-0.837l5.52-10.861h-5.52v-0.839h6.46V231.691z"/>
		<path class="st5" d="M287.554,243.517c-0.475,0-0.919-0.088-1.335-0.267c-0.417-0.178-0.777-0.419-1.081-0.725
			c-0.306-0.305-0.548-0.665-0.725-1.081c-0.178-0.416-0.267-0.86-0.267-1.334v-5.977c0-0.475,0.089-0.92,0.267-1.336
			c0.177-0.416,0.419-0.776,0.725-1.081c0.304-0.306,0.664-0.546,1.081-0.725c0.416-0.178,0.86-0.267,1.335-0.267
			c0.474,0,0.92,0.089,1.336,0.267c0.415,0.179,0.775,0.419,1.08,0.725c0.306,0.305,0.547,0.665,0.726,1.081
			c0.178,0.416,0.267,0.861,0.267,1.336v5.977c0,0.474-0.089,0.918-0.267,1.334c-0.179,0.416-0.419,0.776-0.726,1.081
			c-0.305,0.306-0.665,0.546-1.08,0.725C288.474,243.428,288.028,243.517,287.554,243.517z M287.554,231.563
			c-0.356,0-0.69,0.069-1.005,0.204c-0.313,0.137-0.585,0.318-0.813,0.546c-0.229,0.229-0.412,0.5-0.547,0.813
			c-0.136,0.316-0.203,0.649-0.203,1.006v5.977c0,0.355,0.066,0.69,0.203,1.004c0.135,0.314,0.318,0.585,0.547,0.814
			c0.228,0.229,0.5,0.411,0.813,0.546c0.314,0.137,0.649,0.204,1.005,0.204c0.356,0,0.69-0.067,1.004-0.204
			c0.315-0.135,0.586-0.316,0.815-0.546c0.229-0.229,0.412-0.5,0.547-0.814c0.135-0.313,0.203-0.648,0.203-1.004v-5.977
			c0-0.357-0.068-0.69-0.203-1.006c-0.135-0.313-0.318-0.583-0.547-0.813c-0.229-0.228-0.5-0.41-0.815-0.546
			C288.244,231.632,287.91,231.563,287.554,231.563z"/>
		<path class="st5" d="M297.472,230.724c0.475,0,0.92,0.089,1.337,0.267c0.415,0.179,0.774,0.419,1.08,0.725
			c0.306,0.305,0.546,0.665,0.726,1.081c0.177,0.416,0.267,0.861,0.267,1.336v2.975v6.281h-0.839v-6.281v-2.975
			c0-0.357-0.068-0.69-0.204-1.006c-0.135-0.313-0.317-0.583-0.546-0.813c-0.229-0.228-0.5-0.41-0.814-0.546
			c-0.314-0.135-0.648-0.204-1.005-0.204c-0.355,0-0.69,0.069-1.004,0.204c-0.313,0.137-0.585,0.318-0.813,0.546
			c-0.229,0.229-0.411,0.5-0.546,0.813c-0.138,0.316-0.205,0.649-0.205,1.006v2.975v6.281h-0.839v-6.281v-2.975v-3.282h0.839v1.043
			c0.322-0.374,0.703-0.662,1.144-0.866C296.489,230.825,296.964,230.724,297.472,230.724z"/>
		<path class="st5" d="M315.759,233.701h0.839v0.837v2.57v2.721v0.281c-0.035,0.474-0.152,0.918-0.356,1.334
			c-0.204,0.416-0.471,0.776-0.801,1.081c-0.331,0.306-0.713,0.546-1.146,0.725c-0.431,0.179-0.884,0.267-1.36,0.267
			c-0.508,0-0.988-0.097-1.438-0.292c-0.447-0.193-0.837-0.456-1.169-0.788c-0.331-0.331-0.594-0.721-0.788-1.171
			c-0.195-0.447-0.293-0.927-0.293-1.436v-10.046c0-0.509,0.098-0.988,0.293-1.436c0.194-0.449,0.458-0.839,0.788-1.171
			c0.332-0.331,0.722-0.593,1.169-0.788c0.45-0.195,0.93-0.293,1.438-0.293c0.509,0,0.983,0.096,1.424,0.284
			c0.44,0.188,0.827,0.448,1.158,0.777c0.331,0.327,0.593,0.714,0.788,1.165c0.195,0.449,0.293,0.929,0.293,1.437h-0.839
			c0-0.391-0.077-0.753-0.228-1.093c-0.153-0.339-0.357-0.636-0.611-0.89c-0.255-0.255-0.552-0.459-0.89-0.611
			c-0.34-0.153-0.705-0.23-1.095-0.23s-0.76,0.079-1.106,0.23c-0.347,0.153-0.648,0.357-0.902,0.611
			c-0.255,0.255-0.459,0.554-0.61,0.892c-0.153,0.339-0.23,0.706-0.23,1.096v10.062c0,0.39,0.077,0.761,0.23,1.109
			c0.151,0.347,0.355,0.649,0.61,0.904c0.254,0.253,0.556,0.459,0.902,0.611c0.346,0.154,0.716,0.229,1.106,0.229
			s0.755-0.075,1.095-0.228c0.337-0.153,0.634-0.357,0.89-0.611c0.254-0.255,0.458-0.555,0.611-0.904
			c0.151-0.347,0.228-0.714,0.228-1.106v-2.721v-2.57h-3.458v-0.837H315.759z"/>
		<path class="st5" d="M324.941,230.724v0.839h-0.993c-0.357,0-0.687,0.069-0.992,0.204c-0.304,0.137-0.576,0.318-0.813,0.546
			c-0.237,0.229-0.423,0.5-0.56,0.813c-0.135,0.316-0.203,0.649-0.203,1.006v2.975v6.281h-0.839v-6.281v-2.975v-2.442h-0.841v-0.839
			h0.841h0.839v0.839v0.204c0.643-0.746,1.476-1.137,2.492-1.171H324.941z"/>
		<path class="st5" d="M331.782,236.422c-0.153,0.051-0.407,0.148-0.763,0.291c-0.356,0.146-0.743,0.293-1.157,0.446
			c-0.416,0.153-0.818,0.306-1.208,0.458c-0.39,0.151-0.695,0.263-0.916,0.332v2.162c0,0.355,0.068,0.69,0.204,1.004
			c0.135,0.314,0.317,0.585,0.546,0.814c0.228,0.229,0.5,0.411,0.814,0.546c0.313,0.137,0.648,0.204,1.004,0.204
			c0.357,0,0.69-0.067,1.004-0.204c0.315-0.135,0.585-0.316,0.815-0.546c0.228-0.229,0.411-0.5,0.546-0.814
			c0.135-0.313,0.204-0.648,0.204-1.004h0.839c0,0.474-0.088,0.918-0.267,1.334c-0.179,0.416-0.419,0.776-0.725,1.081
			c-0.305,0.306-0.665,0.546-1.081,0.725c-0.416,0.179-0.862,0.267-1.336,0.267s-0.919-0.088-1.334-0.267
			c-0.416-0.178-0.776-0.419-1.081-0.725c-0.306-0.305-0.548-0.665-0.725-1.081c-0.178-0.416-0.268-0.86-0.268-1.334v-5.977
			c0-0.475,0.089-0.92,0.268-1.336c0.177-0.416,0.419-0.776,0.725-1.081c0.305-0.306,0.665-0.546,1.081-0.725
			c0.416-0.178,0.86-0.267,1.334-0.267s0.92,0.089,1.336,0.267c0.416,0.179,0.776,0.419,1.081,0.725
			c0.306,0.305,0.546,0.665,0.725,1.081c0.178,0.416,0.267,0.852,0.267,1.309v0.027
			C333.715,235.184,333.072,235.947,331.782,236.422z M330.307,231.563c-0.356,0-0.69,0.069-1.004,0.204
			c-0.313,0.137-0.586,0.318-0.814,0.546c-0.229,0.229-0.411,0.5-0.546,0.813c-0.136,0.316-0.204,0.649-0.204,1.006v2.923
			c0.255-0.102,0.567-0.223,0.941-0.368c0.372-0.144,0.746-0.284,1.12-0.42c0.372-0.135,0.714-0.262,1.029-0.381
			c0.313-0.119,0.538-0.204,0.674-0.255c0.304-0.117,0.609-0.295,0.916-0.533c0.305-0.237,0.458-0.569,0.458-0.994
			c0-0.354-0.069-0.686-0.204-0.991c-0.135-0.305-0.318-0.572-0.546-0.801c-0.23-0.228-0.5-0.41-0.815-0.546
			C330.997,231.632,330.664,231.563,330.307,231.563z"/>
		<path class="st5" d="M341.7,236.422c-0.151,0.051-0.407,0.148-0.762,0.291c-0.356,0.146-0.743,0.293-1.158,0.446
			c-0.416,0.153-0.817,0.306-1.208,0.458c-0.39,0.151-0.695,0.263-0.916,0.332v2.162c0,0.355,0.068,0.69,0.205,1.004
			c0.135,0.314,0.318,0.585,0.546,0.814c0.228,0.229,0.5,0.411,0.813,0.546c0.314,0.137,0.65,0.204,1.004,0.204
			c0.357,0,0.69-0.067,1.005-0.204c0.313-0.135,0.583-0.316,0.813-0.546c0.229-0.229,0.411-0.5,0.546-0.814
			c0.137-0.313,0.205-0.648,0.205-1.004h0.84c0,0.474-0.09,0.918-0.267,1.334c-0.181,0.416-0.42,0.776-0.727,1.081
			c-0.305,0.306-0.665,0.546-1.079,0.725c-0.417,0.179-0.863,0.267-1.337,0.267c-0.475,0-0.918-0.088-1.334-0.267
			c-0.416-0.178-0.776-0.419-1.081-0.725c-0.305-0.305-0.547-0.665-0.725-1.081c-0.177-0.416-0.267-0.86-0.267-1.334v-5.977
			c0-0.475,0.09-0.92,0.267-1.336c0.178-0.416,0.42-0.776,0.725-1.081c0.305-0.306,0.665-0.546,1.081-0.725
			c0.416-0.178,0.86-0.267,1.334-0.267c0.474,0,0.919,0.089,1.337,0.267c0.414,0.179,0.774,0.419,1.079,0.725
			c0.307,0.305,0.546,0.665,0.727,1.081c0.177,0.416,0.267,0.852,0.267,1.309v0.027C343.635,235.184,342.989,235.947,341.7,236.422z
			 M340.225,231.563c-0.354,0-0.69,0.069-1.004,0.204c-0.314,0.137-0.585,0.318-0.813,0.546c-0.228,0.229-0.411,0.5-0.546,0.813
			c-0.136,0.316-0.205,0.649-0.205,1.006v2.923c0.255-0.102,0.568-0.223,0.941-0.368c0.374-0.144,0.746-0.284,1.12-0.42
			c0.372-0.135,0.714-0.262,1.029-0.381c0.313-0.119,0.537-0.204,0.674-0.255c0.306-0.117,0.609-0.295,0.916-0.533
			c0.305-0.237,0.458-0.569,0.458-0.994c0-0.354-0.067-0.686-0.205-0.991c-0.135-0.305-0.316-0.572-0.546-0.801
			c-0.23-0.228-0.5-0.41-0.813-0.546C340.916,231.632,340.582,231.563,340.225,231.563z"/>
		<path class="st5" d="M350.145,230.724c0.475,0,0.92,0.089,1.336,0.267c0.414,0.179,0.774,0.419,1.081,0.725
			c0.304,0.305,0.546,0.665,0.725,1.081c0.177,0.416,0.267,0.861,0.267,1.336v2.975v6.281h-0.84v-6.281v-2.975
			c0-0.357-0.067-0.69-0.203-1.006c-0.135-0.313-0.318-0.583-0.546-0.813c-0.23-0.228-0.501-0.41-0.815-0.546
			c-0.313-0.135-0.648-0.204-1.004-0.204c-0.355,0-0.69,0.069-1.006,0.204c-0.312,0.137-0.584,0.318-0.813,0.546
			c-0.229,0.229-0.41,0.5-0.547,0.813c-0.136,0.316-0.203,0.649-0.203,1.006v2.975v6.281h-0.84v-6.281v-2.975v-3.282h0.84v1.043
			c0.321-0.374,0.703-0.662,1.144-0.866C349.16,230.825,349.636,230.724,350.145,230.724z"/>
	</g>
	<g>
		<path class="st5" d="M455.937,41.427c0.423,0.339,0.843,0.691,1.259,1.056c0.414,0.366,0.79,0.764,1.12,1.198
			c0.331,0.433,0.597,0.917,0.8,1.452c0.204,0.535,0.306,1.142,0.306,1.822c0,0.508-0.098,0.989-0.292,1.438
			c-0.195,0.45-0.458,0.842-0.79,1.172c-0.33,0.332-0.716,0.594-1.157,0.789c-0.441,0.196-0.916,0.294-1.423,0.294
			c-0.509,0-0.989-0.098-1.438-0.294c-0.449-0.193-0.839-0.457-1.17-0.788c-0.33-0.331-0.593-0.721-0.787-1.17
			c-0.197-0.449-0.292-0.927-0.292-1.438h0.839c0,0.392,0.075,0.759,0.228,1.107c0.153,0.347,0.357,0.647,0.611,0.903
			c0.253,0.254,0.555,0.458,0.904,0.611c0.347,0.152,0.714,0.228,1.106,0.228c0.391,0,0.753-0.076,1.093-0.228
			c0.339-0.153,0.636-0.357,0.89-0.611c0.255-0.255,0.459-0.556,0.611-0.903c0.151-0.348,0.23-0.716,0.23-1.107
			c0-0.576-0.09-1.092-0.268-1.551c-0.18-0.457-0.417-0.877-0.712-1.258c-0.298-0.382-0.637-0.738-1.018-1.069
			c-0.381-0.33-0.774-0.656-1.182-0.979c-0.408-0.323-0.81-0.657-1.209-1.004c-0.398-0.348-0.755-0.726-1.067-1.133
			c-0.314-0.405-0.569-0.855-0.763-1.347c-0.197-0.491-0.292-1.059-0.292-1.703c0-0.51,0.096-0.989,0.292-1.438
			c0.193-0.45,0.457-0.839,0.787-1.171c0.332-0.33,0.722-0.593,1.17-0.787c0.449-0.195,0.929-0.293,1.438-0.293
			c0.508,0,0.982,0.096,1.423,0.284c0.441,0.189,0.827,0.448,1.157,0.776c0.332,0.328,0.594,0.715,0.79,1.166
			c0.195,0.449,0.292,0.928,0.292,1.436h-0.838c0-0.39-0.079-0.753-0.23-1.092c-0.152-0.339-0.356-0.636-0.611-0.891
			c-0.254-0.254-0.551-0.458-0.89-0.611c-0.339-0.152-0.702-0.228-1.093-0.228c-0.392,0-0.759,0.077-1.106,0.229
			c-0.349,0.153-0.65,0.356-0.904,0.611c-0.254,0.255-0.458,0.552-0.611,0.892s-0.228,0.704-0.228,1.096
			c0,0.542,0.084,1.023,0.254,1.438c0.169,0.417,0.395,0.803,0.674,1.159c0.28,0.356,0.602,0.692,0.968,1.006
			C455.17,40.811,455.548,41.121,455.937,41.427z"/>
		<path class="st5" d="M463.363,44.239v3.001c0,0.355,0.061,0.69,0.178,1.005c0.12,0.313,0.28,0.584,0.483,0.813
			c0.204,0.228,0.441,0.411,0.713,0.547c0.27,0.137,0.558,0.203,0.864,0.203v0.84c-0.423,0-0.822-0.09-1.195-0.267
			c-0.374-0.179-0.701-0.42-0.98-0.725c-0.279-0.306-0.5-0.666-0.661-1.081c-0.161-0.415-0.241-0.86-0.241-1.335v-3.001v-5.417
			v-0.839v-3.561h0.838v3.561h2.748v0.839h-2.748V44.239z"/>
		<path class="st5" d="M471.604,50.648c-0.474,0-0.92-0.09-1.336-0.267c-0.416-0.179-0.776-0.42-1.081-0.725
			c-0.304-0.306-0.548-0.666-0.725-1.081c-0.177-0.415-0.267-0.86-0.267-1.335v-5.977c0-0.475,0.09-0.92,0.267-1.335
			c0.177-0.416,0.42-0.776,0.725-1.081c0.305-0.306,0.665-0.546,1.081-0.726c0.416-0.177,0.862-0.267,1.336-0.267
			s0.92,0.089,1.336,0.267c0.414,0.179,0.774,0.419,1.081,0.726c0.305,0.305,0.546,0.665,0.725,1.081
			c0.177,0.416,0.268,0.861,0.268,1.335v5.977c0,0.475-0.09,0.92-0.268,1.335c-0.178,0.416-0.42,0.775-0.725,1.081
			c-0.306,0.305-0.667,0.546-1.081,0.725C472.524,50.558,472.078,50.648,471.604,50.648z M471.604,38.694
			c-0.355,0-0.691,0.068-1.006,0.204c-0.312,0.136-0.584,0.317-0.813,0.546c-0.228,0.23-0.41,0.5-0.546,0.814
			s-0.203,0.648-0.203,1.005v5.977c0,0.355,0.066,0.69,0.203,1.005c0.137,0.313,0.318,0.584,0.546,0.813
			c0.229,0.228,0.501,0.411,0.813,0.547c0.315,0.137,0.65,0.203,1.006,0.203c0.356,0,0.69-0.066,1.004-0.203
			c0.314-0.136,0.585-0.319,0.815-0.547c0.228-0.229,0.411-0.5,0.546-0.813c0.135-0.315,0.203-0.65,0.203-1.005v-5.977
			c0-0.356-0.067-0.69-0.203-1.005c-0.135-0.314-0.318-0.584-0.546-0.814c-0.23-0.229-0.501-0.41-0.815-0.546
			C472.294,38.762,471.96,38.694,471.604,38.694z"/>
		<path class="st5" d="M483.101,37.854v0.839h-0.992c-0.357,0-0.688,0.068-0.994,0.204c-0.303,0.136-0.577,0.317-0.813,0.546
			c-0.237,0.23-0.423,0.5-0.559,0.814c-0.136,0.314-0.204,0.648-0.204,1.005v2.976v6.281h-0.838v-6.281v-2.976v-2.442h-0.839v-0.839
			h0.839h0.838v0.839v0.204c0.644-0.747,1.476-1.136,2.493-1.171H483.101z"/>
		<path class="st5" d="M495.333,37.854c0.474,0,0.919,0.089,1.335,0.267c0.416,0.179,0.776,0.419,1.081,0.726
			c0.305,0.305,0.546,0.665,0.725,1.081c0.181,0.416,0.268,0.861,0.268,1.335v2.976v6.281h-0.839v-6.281v-2.976
			c0-0.356-0.067-0.69-0.205-1.005c-0.136-0.314-0.316-0.584-0.546-0.814c-0.23-0.229-0.5-0.41-0.813-0.546
			c-0.315-0.136-0.648-0.204-1.005-0.204c-0.356,0-0.687,0.068-0.992,0.204c-0.305,0.136-0.577,0.317-0.814,0.546
			c-0.237,0.23-0.423,0.5-0.56,0.814c-0.135,0.314-0.203,0.648-0.203,1.005v2.976v6.281h-0.839v-6.281v-2.976
			c0-0.356-0.069-0.69-0.204-1.005c-0.135-0.314-0.318-0.584-0.546-0.814c-0.229-0.229-0.5-0.41-0.815-0.546
			c-0.313-0.136-0.646-0.204-1.004-0.204c-0.354,0-0.69,0.068-1.004,0.204s-0.586,0.317-0.814,0.546
			c-0.229,0.23-0.411,0.5-0.546,0.814c-0.136,0.314-0.204,0.648-0.204,1.005v2.976v6.281h-0.838v-6.281v-2.976v-3.281h0.838v1.043
			c0.321-0.374,0.703-0.662,1.144-0.866c0.441-0.204,0.917-0.305,1.424-0.305c0.646,0,1.233,0.162,1.768,0.484
			c0.535,0.321,0.946,0.746,1.234,1.271c0.288-0.525,0.695-0.95,1.22-1.271C494.103,38.016,494.688,37.854,495.333,37.854z"/>
		<path class="st5" d="M513.619,40.831h0.842v0.838v2.57v2.72v0.281c-0.037,0.475-0.155,0.92-0.359,1.335
			c-0.203,0.416-0.47,0.775-0.8,1.081c-0.33,0.305-0.712,0.546-1.144,0.725c-0.433,0.177-0.888,0.267-1.36,0.267
			c-0.51,0-0.987-0.098-1.439-0.294c-0.447-0.193-0.837-0.457-1.168-0.788c-0.333-0.331-0.596-0.721-0.789-1.17
			c-0.193-0.449-0.293-0.927-0.293-1.438V36.915c0-0.51,0.1-0.989,0.293-1.438c0.193-0.45,0.456-0.839,0.789-1.171
			c0.331-0.33,0.721-0.593,1.168-0.787c0.452-0.195,0.93-0.293,1.439-0.293c0.507,0,0.982,0.096,1.421,0.284
			c0.443,0.189,0.83,0.448,1.158,0.776c0.333,0.328,0.596,0.715,0.789,1.166c0.193,0.449,0.295,0.928,0.295,1.436h-0.842
			c0-0.39-0.076-0.753-0.228-1.092c-0.153-0.339-0.357-0.636-0.61-0.891c-0.254-0.254-0.552-0.458-0.889-0.611
			c-0.342-0.152-0.705-0.228-1.095-0.228c-0.392,0-0.76,0.077-1.107,0.229c-0.347,0.153-0.65,0.356-0.903,0.611
			c-0.254,0.255-0.457,0.552-0.611,0.892c-0.151,0.339-0.228,0.704-0.228,1.096v10.062c0,0.391,0.076,0.76,0.228,1.108
			c0.154,0.348,0.357,0.649,0.611,0.904c0.253,0.254,0.557,0.459,0.903,0.61c0.348,0.154,0.716,0.23,1.107,0.23
			c0.39,0,0.753-0.076,1.095-0.228c0.337-0.153,0.635-0.357,0.889-0.611c0.253-0.255,0.457-0.556,0.61-0.903
			c0.151-0.348,0.228-0.716,0.228-1.107v-2.72v-2.57h-3.456v-0.838H513.619z"/>
		<path class="st5" d="M522.8,37.854v0.839h-0.99c-0.356,0-0.688,0.068-0.991,0.204c-0.307,0.136-0.576,0.317-0.815,0.546
			c-0.238,0.23-0.422,0.5-0.559,0.814c-0.136,0.314-0.204,0.648-0.204,1.005v2.976v6.281h-0.838v-6.281v-2.976v-2.442h-0.842v-0.839
			h0.842h0.838v0.839v0.204c0.645-0.747,1.476-1.136,2.492-1.171H522.8z"/>
		<path class="st5" d="M529.642,43.552c-0.151,0.05-0.406,0.148-0.762,0.291c-0.357,0.146-0.743,0.293-1.157,0.446
			c-0.417,0.153-0.819,0.306-1.207,0.458c-0.393,0.152-0.696,0.262-0.916,0.331v2.162c0,0.355,0.067,0.69,0.203,1.005
			c0.137,0.313,0.318,0.584,0.546,0.813c0.229,0.228,0.501,0.411,0.812,0.547c0.315,0.137,0.651,0.203,1.006,0.203
			c0.355,0,0.69-0.066,1.005-0.203c0.314-0.136,0.585-0.319,0.815-0.547c0.229-0.229,0.409-0.5,0.547-0.813
			c0.135-0.315,0.204-0.65,0.204-1.005h0.839c0,0.475-0.089,0.92-0.267,1.335c-0.182,0.416-0.421,0.775-0.728,1.081
			c-0.304,0.305-0.665,0.546-1.08,0.725c-0.414,0.177-0.861,0.267-1.336,0.267s-0.919-0.09-1.333-0.267
			c-0.417-0.179-0.777-0.42-1.083-0.725c-0.304-0.306-0.547-0.666-0.726-1.081c-0.176-0.415-0.266-0.86-0.266-1.335v-5.977
			c0-0.475,0.09-0.92,0.266-1.335c0.179-0.416,0.422-0.776,0.726-1.081c0.306-0.306,0.666-0.546,1.083-0.726
			c0.414-0.177,0.858-0.267,1.333-0.267s0.922,0.089,1.336,0.267c0.415,0.179,0.776,0.419,1.08,0.726
			c0.307,0.305,0.546,0.665,0.728,1.081c0.178,0.416,0.267,0.853,0.267,1.309v0.026C531.577,42.314,530.932,43.077,529.642,43.552z
			 M528.167,38.694c-0.354,0-0.69,0.068-1.006,0.204c-0.312,0.136-0.584,0.317-0.812,0.546c-0.228,0.23-0.409,0.5-0.546,0.814
			c-0.136,0.314-0.203,0.648-0.203,1.005v2.925c0.256-0.103,0.568-0.226,0.94-0.369c0.374-0.145,0.746-0.283,1.118-0.419
			c0.373-0.136,0.716-0.263,1.031-0.382c0.315-0.118,0.538-0.203,0.672-0.254c0.309-0.118,0.611-0.297,0.918-0.535
			c0.304-0.237,0.459-0.567,0.459-0.992c0-0.355-0.069-0.687-0.204-0.991c-0.138-0.305-0.318-0.572-0.547-0.802
			c-0.23-0.229-0.501-0.41-0.815-0.546S528.522,38.694,528.167,38.694z"/>
		<path class="st5" d="M541.747,37.982l-4.449,18.235h-0.865l1.324-5.494l-3.586-12.741h0.864l3.13,11.088l2.719-11.088H541.747z"/>
	</g>
	<g>
		<path class="st5" d="M652.043,157.435c0.505,0,0.983,0.093,1.43,0.279c0.446,0.188,0.837,0.446,1.166,0.776
			c0.33,0.331,0.592,0.717,0.786,1.158c0.193,0.441,0.29,0.915,0.29,1.424v9.918c0,0.508-0.097,0.983-0.29,1.424
			c-0.194,0.441-0.456,0.826-0.786,1.158c-0.329,0.33-0.72,0.588-1.166,0.774c-0.446,0.188-0.925,0.279-1.43,0.279h-2.658h-0.204
			h-0.635v-17.192h0.635h0.204H652.043z M654.879,161.072c0-0.39-0.08-0.755-0.231-1.094c-0.152-0.339-0.355-0.636-0.608-0.891
			c-0.255-0.254-0.551-0.453-0.892-0.598c-0.341-0.144-0.702-0.216-1.096-0.216h-2.667v15.515h2.667
			c0.394,0,0.755-0.072,1.096-0.215c0.341-0.145,0.637-0.345,0.892-0.599c0.253-0.255,0.456-0.55,0.608-0.891
			c0.151-0.337,0.231-0.702,0.231-1.092V161.072z"/>
		<path class="st5" d="M665.66,162.089v6.257v3.001v3.279h-0.84v-1.042c-0.323,0.356-0.703,0.639-1.146,0.852
			c-0.44,0.211-0.912,0.318-1.424,0.318c-0.473,0-0.921-0.089-1.335-0.267c-0.413-0.179-0.777-0.419-1.08-0.725
			c-0.305-0.305-0.547-0.666-0.726-1.081c-0.178-0.416-0.268-0.861-0.268-1.335v-3.001v-6.257h0.84v6.257v3.001
			c0,0.355,0.069,0.69,0.202,1.004c0.137,0.313,0.319,0.585,0.546,0.814c0.23,0.228,0.504,0.411,0.815,0.546
			c0.314,0.136,0.651,0.203,1.005,0.203c0.356,0,0.69-0.067,1.005-0.203c0.315-0.136,0.585-0.318,0.815-0.546
			c0.229-0.229,0.409-0.501,0.547-0.814c0.136-0.314,0.202-0.649,0.202-1.004v-3.001v-6.257H665.66z"/>
		<path class="st5" d="M672.17,161.962c0.475,0,0.919,0.089,1.336,0.266c0.415,0.179,0.774,0.419,1.081,0.726
			c0.305,0.305,0.547,0.665,0.725,1.081c0.176,0.415,0.267,0.861,0.267,1.335v2.976v6.281h-0.839v-6.281v-2.976
			c0-0.356-0.067-0.69-0.205-1.004c-0.134-0.314-0.318-0.585-0.546-0.814c-0.229-0.229-0.5-0.41-0.815-0.547
			c-0.312-0.135-0.646-0.204-1.003-0.204c-0.355,0-0.69,0.069-1.004,0.204c-0.312,0.137-0.585,0.318-0.814,0.547
			c-0.229,0.229-0.411,0.5-0.546,0.814c-0.138,0.314-0.203,0.648-0.203,1.004v2.976v6.281h-0.841v-6.281v-2.976v-3.281h0.841v1.043
			c0.322-0.374,0.702-0.662,1.142-0.866C671.187,162.063,671.663,161.962,672.17,161.962z"/>
		<path class="st5" d="M683.565,167.659c-0.154,0.05-0.408,0.148-0.763,0.292c-0.355,0.145-0.742,0.293-1.157,0.445
			c-0.415,0.153-0.818,0.306-1.21,0.459c-0.387,0.151-0.695,0.262-0.913,0.33v2.163c0,0.355,0.066,0.69,0.203,1.004
			c0.134,0.313,0.317,0.585,0.546,0.814c0.229,0.228,0.503,0.411,0.814,0.546c0.313,0.136,0.648,0.203,1.004,0.203
			c0.357,0,0.69-0.067,1.004-0.203c0.315-0.136,0.586-0.318,0.813-0.546c0.229-0.229,0.413-0.501,0.547-0.814
			c0.137-0.314,0.204-0.649,0.204-1.004h0.839c0,0.474-0.088,0.919-0.266,1.335c-0.179,0.415-0.42,0.775-0.725,1.081
			c-0.307,0.306-0.665,0.546-1.081,0.725c-0.417,0.178-0.861,0.267-1.336,0.267c-0.474,0-0.918-0.089-1.335-0.267
			c-0.416-0.179-0.776-0.419-1.079-0.725c-0.309-0.305-0.549-0.666-0.726-1.081c-0.179-0.416-0.269-0.861-0.269-1.335v-5.977
			c0-0.474,0.09-0.92,0.269-1.335c0.177-0.416,0.417-0.776,0.726-1.081c0.303-0.307,0.663-0.547,1.079-0.726
			c0.417-0.177,0.861-0.266,1.335-0.266c0.475,0,0.919,0.089,1.336,0.266c0.416,0.179,0.774,0.419,1.081,0.726
			c0.305,0.305,0.546,0.665,0.725,1.081c0.178,0.415,0.266,0.852,0.266,1.309v0.026
			C685.497,166.421,684.854,167.184,683.565,167.659z M682.09,162.8c-0.355,0-0.69,0.069-1.004,0.204
			c-0.312,0.137-0.585,0.318-0.814,0.547c-0.229,0.229-0.412,0.5-0.546,0.814c-0.137,0.314-0.203,0.648-0.203,1.004v2.925
			c0.253-0.102,0.565-0.225,0.94-0.37c0.373-0.144,0.745-0.283,1.12-0.419c0.374-0.135,0.716-0.262,1.028-0.381
			c0.313-0.118,0.537-0.204,0.675-0.255c0.304-0.118,0.61-0.297,0.914-0.534c0.307-0.237,0.458-0.568,0.458-0.992
			c0-0.355-0.067-0.687-0.204-0.991c-0.134-0.305-0.318-0.573-0.547-0.802c-0.228-0.229-0.498-0.41-0.813-0.547
			C682.78,162.869,682.447,162.8,682.09,162.8z"/>
		<path class="st5" d="M699.232,164.048c0.71,0.254,1.297,0.69,1.753,1.31c0.458,0.618,0.687,1.326,0.687,2.124v3.509
			c0,0.508-0.095,0.983-0.291,1.424s-0.46,0.826-0.787,1.158c-0.334,0.33-0.717,0.588-1.157,0.774
			c-0.442,0.188-0.917,0.279-1.426,0.279h-3.308h-0.405h-0.433v-17.192h0.433h0.405h2.467c0.511,0,0.985,0.093,1.426,0.279
			c0.44,0.188,0.826,0.446,1.159,0.776c0.327,0.331,0.589,0.717,0.787,1.158c0.196,0.441,0.292,0.915,0.292,1.424
			c0,0.626-0.146,1.199-0.434,1.716C700.112,163.306,699.725,163.726,699.232,164.048z M694.703,158.274v5.57h2.569
			c0.373-0.016,0.726-0.097,1.057-0.242c0.33-0.143,0.618-0.342,0.864-0.597c0.244-0.255,0.44-0.546,0.585-0.877
			c0.145-0.332,0.217-0.683,0.217-1.055c0-0.39-0.076-0.755-0.231-1.094c-0.152-0.339-0.353-0.636-0.608-0.891
			c-0.256-0.254-0.552-0.453-0.891-0.598c-0.338-0.144-0.704-0.216-1.095-0.216H694.703z M700.834,167.481
			c0-0.374-0.072-0.729-0.216-1.069c-0.145-0.339-0.34-0.636-0.586-0.89c-0.245-0.254-0.537-0.453-0.877-0.598
			c-0.341-0.144-0.704-0.224-1.096-0.241h-0.787h-0.103h-2.467v9.105h3.308c0.39,0,0.755-0.072,1.093-0.215
			c0.341-0.145,0.636-0.345,0.892-0.599c0.254-0.255,0.456-0.55,0.607-0.891c0.155-0.337,0.231-0.702,0.231-1.092V167.481z"/>
		<path class="st5" d="M710.017,161.962v0.838h-0.994c-0.356,0-0.686,0.069-0.993,0.204c-0.303,0.137-0.576,0.318-0.812,0.547
			c-0.234,0.229-0.424,0.5-0.558,0.814c-0.137,0.314-0.204,0.648-0.204,1.004v2.976v6.281h-0.839v-6.281v-2.976v-2.442h-0.841
			v-0.839h0.841h0.839v0.839v0.204c0.644-0.747,1.476-1.136,2.494-1.17H710.017z"/>
		<path class="st5" d="M715.764,174.755c-0.478,0-0.918-0.089-1.336-0.267c-0.417-0.179-0.774-0.419-1.08-0.725
			c-0.307-0.305-0.549-0.666-0.726-1.081c-0.177-0.416-0.266-0.861-0.266-1.335v-5.977c0-0.474,0.089-0.92,0.266-1.335
			c0.177-0.416,0.419-0.776,0.726-1.081c0.306-0.307,0.663-0.547,1.08-0.726c0.418-0.177,0.858-0.266,1.336-0.266
			c0.472,0,0.919,0.089,1.336,0.266c0.412,0.179,0.775,0.419,1.077,0.726c0.311,0.305,0.549,0.665,0.728,1.081
			c0.178,0.415,0.267,0.861,0.267,1.335v5.977c0,0.474-0.089,0.919-0.267,1.335c-0.179,0.415-0.417,0.775-0.728,1.081
			c-0.302,0.306-0.665,0.546-1.077,0.725C716.683,174.666,716.235,174.755,715.764,174.755z M715.764,162.8
			c-0.356,0-0.69,0.069-1.005,0.204c-0.314,0.137-0.585,0.318-0.812,0.547c-0.229,0.229-0.412,0.5-0.546,0.814
			c-0.141,0.314-0.205,0.648-0.205,1.004v5.977c0,0.355,0.064,0.69,0.205,1.004c0.134,0.313,0.317,0.585,0.546,0.814
			c0.228,0.228,0.498,0.411,0.812,0.546c0.314,0.136,0.648,0.203,1.005,0.203s0.69-0.067,1.005-0.203
			c0.312-0.136,0.585-0.318,0.813-0.546c0.229-0.229,0.412-0.501,0.547-0.814c0.134-0.314,0.202-0.649,0.202-1.004v-5.977
			c0-0.356-0.068-0.69-0.202-1.004c-0.135-0.314-0.318-0.585-0.547-0.814s-0.502-0.41-0.813-0.547
			C716.454,162.869,716.12,162.8,715.764,162.8z"/>
		<path class="st5" d="M733.568,162.089l-2.853,12.538h-1.243l-1.806-10.172l-1.807,10.172h-1.271l-2.825-12.538h0.864l2.568,11.394
			l2.037-11.394h0.839h0.025l2.033,11.394l2.572-11.394H733.568z"/>
		<path class="st5" d="M739.315,161.962c0.472,0,0.918,0.089,1.336,0.266c0.412,0.179,0.774,0.419,1.077,0.726
			c0.308,0.305,0.546,0.665,0.725,1.081c0.18,0.415,0.27,0.861,0.27,1.335v2.976v6.281h-0.839v-6.281v-2.976
			c0-0.356-0.07-0.69-0.205-1.004c-0.135-0.314-0.317-0.585-0.546-0.814s-0.501-0.41-0.815-0.547
			c-0.312-0.135-0.648-0.204-1.002-0.204c-0.359,0-0.691,0.069-1.008,0.204c-0.312,0.137-0.582,0.318-0.812,0.547
			c-0.228,0.229-0.411,0.5-0.546,0.814c-0.139,0.314-0.204,0.648-0.204,1.004v2.976v6.281h-0.84v-6.281v-2.976v-3.281h0.84v1.043
			c0.32-0.374,0.7-0.662,1.143-0.866C738.33,162.063,738.805,161.962,739.315,161.962z"/>
	</g>
	<g>
		<path class="st5" d="M859.352,90.8v0.838h-5.443h-0.839V74.447h0.839V90.8H859.352z"/>
		<path class="st5" d="M862.303,78.897h0.838v0.865v11.7h-0.838v-11.7h-0.839v-0.865H862.303z M862.507,75.998
			c-0.189,0-0.341-0.059-0.458-0.178c-0.119-0.118-0.179-0.271-0.179-0.458c0-0.187,0.06-0.339,0.179-0.457
			c0.117-0.12,0.269-0.179,0.458-0.179c0.168,0,0.318,0.06,0.444,0.179c0.125,0.118,0.189,0.271,0.189,0.457
			c0,0.188-0.064,0.34-0.189,0.458C862.825,75.939,862.675,75.998,862.507,75.998z"/>
		<path class="st5" d="M873.06,79.102v3.281v5.977v5.773c0,0.474-0.09,0.919-0.266,1.335c-0.179,0.416-0.422,0.774-0.725,1.081
			c-0.309,0.306-0.667,0.546-1.084,0.725c-0.414,0.178-0.858,0.268-1.336,0.268c-0.471,0-0.918-0.089-1.334-0.268
			c-0.415-0.179-0.777-0.419-1.081-0.725c-0.305-0.306-0.546-0.665-0.725-1.081c-0.18-0.416-0.268-0.861-0.268-1.335h0.839
			c0,0.355,0.07,0.686,0.203,0.991c0.138,0.306,0.317,0.577,0.548,0.815c0.229,0.237,0.502,0.423,0.813,0.559
			c0.314,0.135,0.651,0.204,1.004,0.204c0.357,0,0.691-0.068,1.006-0.204c0.315-0.136,0.583-0.322,0.814-0.559
			c0.229-0.238,0.41-0.509,0.546-0.815c0.138-0.305,0.203-0.636,0.203-0.991v-3.535c-0.322,0.356-0.702,0.64-1.144,0.852
			c-0.442,0.211-0.914,0.318-1.426,0.318c-0.471,0-0.918-0.09-1.334-0.267c-0.415-0.179-0.777-0.42-1.081-0.725
			c-0.305-0.306-0.546-0.667-0.725-1.081c-0.18-0.415-0.268-0.861-0.268-1.335v-5.977c0-0.475,0.088-0.921,0.268-1.335
			c0.179-0.416,0.42-0.776,0.725-1.082c0.304-0.305,0.666-0.546,1.081-0.725c0.416-0.177,0.863-0.267,1.334-0.267
			c0.512,0,0.983,0.102,1.426,0.305c0.441,0.204,0.821,0.492,1.144,0.866v-1.043H873.06z M869.649,90.927
			c0.357,0,0.691-0.067,1.006-0.203c0.315-0.136,0.583-0.319,0.814-0.547c0.229-0.229,0.41-0.5,0.546-0.813
			c0.138-0.315,0.203-0.65,0.203-1.005v-5.977c0-0.356-0.065-0.69-0.203-1.005c-0.136-0.314-0.317-0.585-0.546-0.815
			c-0.231-0.228-0.499-0.41-0.814-0.546c-0.314-0.135-0.648-0.203-1.006-0.203c-0.353,0-0.689,0.068-1.004,0.203
			c-0.312,0.136-0.585,0.318-0.813,0.546c-0.23,0.23-0.41,0.501-0.548,0.815c-0.133,0.314-0.203,0.648-0.203,1.005v5.977
			c0,0.355,0.07,0.69,0.203,1.005c0.138,0.313,0.317,0.584,0.548,0.813c0.229,0.228,0.502,0.411,0.813,0.547
			C868.96,90.86,869.297,90.927,869.649,90.927z"/>
		<path class="st5" d="M879.569,78.973c0.477,0,0.922,0.09,1.336,0.267c0.418,0.178,0.775,0.419,1.083,0.725
			c0.305,0.306,0.547,0.666,0.726,1.082c0.176,0.415,0.266,0.86,0.266,1.335v2.975v6.281h-0.839v-6.281v-2.975
			c0-0.356-0.068-0.69-0.204-1.005c-0.137-0.314-0.318-0.585-0.546-0.815c-0.231-0.228-0.501-0.41-0.815-0.546
			c-0.315-0.135-0.648-0.203-1.006-0.203c-0.353,0-0.69,0.068-1.005,0.203c-0.312,0.136-0.585,0.318-0.812,0.546
			c-0.229,0.23-0.41,0.501-0.547,0.815c-0.135,0.314-0.204,0.648-0.204,1.005v2.975v6.281h-0.839v-6.281v-2.975v-8.979h0.839v6.741
			c0.323-0.374,0.706-0.662,1.146-0.866C878.586,79.075,879.062,78.973,879.569,78.973z"/>
		<path class="st5" d="M886.921,85.357v3.001c0,0.355,0.06,0.69,0.179,1.005c0.12,0.313,0.279,0.584,0.481,0.813
			c0.205,0.228,0.443,0.411,0.713,0.547c0.271,0.136,0.559,0.203,0.864,0.203v0.84c-0.424,0-0.822-0.09-1.194-0.267
			c-0.372-0.179-0.701-0.42-0.979-0.725c-0.281-0.306-0.501-0.667-0.66-1.081c-0.164-0.415-0.244-0.861-0.244-1.335v-3.001V79.94
			v-0.839V75.54h0.84v3.562h2.747v0.839h-2.747V85.357z"/>
		<path class="st5" d="M904.039,81.95h0.839v0.838v2.569v2.721v0.281c-0.034,0.474-0.154,0.92-0.356,1.335
			c-0.205,0.415-0.473,0.775-0.801,1.081c-0.333,0.305-0.716,0.546-1.148,0.725c-0.431,0.177-0.884,0.267-1.357,0.267
			c-0.51,0-0.988-0.098-1.438-0.294c-0.446-0.193-0.839-0.457-1.169-0.789c-0.33-0.33-0.595-0.719-0.789-1.169
			c-0.194-0.449-0.292-0.927-0.292-1.438V78.034c0-0.51,0.098-0.989,0.292-1.438c0.194-0.45,0.459-0.84,0.789-1.171
			c0.33-0.331,0.723-0.593,1.169-0.787c0.45-0.195,0.929-0.293,1.438-0.293s0.981,0.095,1.422,0.285
			c0.443,0.189,0.828,0.448,1.159,0.776c0.332,0.328,0.593,0.715,0.79,1.165c0.193,0.449,0.292,0.929,0.292,1.437h-0.839
			c0-0.39-0.08-0.754-0.228-1.092c-0.155-0.339-0.359-0.636-0.613-0.891c-0.255-0.254-0.55-0.458-0.891-0.611
			c-0.34-0.153-0.703-0.228-1.093-0.228c-0.391,0-0.76,0.077-1.104,0.229c-0.349,0.153-0.651,0.357-0.904,0.611
			c-0.254,0.255-0.457,0.552-0.612,0.892c-0.153,0.339-0.228,0.704-0.228,1.096v10.061c0,0.392,0.074,0.761,0.228,1.109
			c0.155,0.347,0.358,0.649,0.612,0.904c0.253,0.254,0.556,0.459,0.904,0.611c0.345,0.154,0.714,0.229,1.104,0.229
			c0.39,0,0.753-0.076,1.093-0.228c0.341-0.153,0.636-0.357,0.891-0.612c0.254-0.254,0.458-0.555,0.613-0.903
			c0.147-0.347,0.228-0.715,0.228-1.106v-2.721v-2.569h-3.459V81.95H904.039z"/>
		<path class="st5" d="M913.219,78.973v0.84h-0.993c-0.355,0-0.687,0.068-0.991,0.203c-0.306,0.136-0.576,0.318-0.812,0.546
			c-0.238,0.23-0.424,0.501-0.562,0.815c-0.134,0.314-0.202,0.648-0.202,1.005v2.975v6.281h-0.839v-6.281v-2.975V79.94h-0.841
			v-0.839h0.841h0.839v0.839v0.204c0.646-0.747,1.476-1.136,2.493-1.171H913.219z"/>
		<path class="st5" d="M920.059,84.67c-0.151,0.051-0.406,0.149-0.759,0.292c-0.359,0.146-0.746,0.293-1.157,0.446
			c-0.417,0.153-0.821,0.306-1.21,0.458c-0.391,0.152-0.697,0.262-0.918,0.331v2.162c0,0.355,0.069,0.69,0.205,1.005
			c0.137,0.313,0.316,0.584,0.546,0.813c0.229,0.228,0.501,0.411,0.815,0.547c0.312,0.136,0.649,0.203,1.002,0.203
			c0.357,0,0.69-0.067,1.006-0.203s0.584-0.319,0.815-0.547c0.229-0.229,0.409-0.5,0.546-0.813c0.137-0.315,0.204-0.65,0.204-1.005
			h0.84c0,0.474-0.092,0.92-0.267,1.335c-0.179,0.415-0.421,0.775-0.725,1.081c-0.31,0.305-0.666,0.546-1.084,0.725
			c-0.414,0.177-0.857,0.267-1.336,0.267c-0.472,0-0.918-0.09-1.335-0.267c-0.413-0.179-0.775-0.42-1.078-0.725
			c-0.307-0.306-0.547-0.667-0.727-1.081c-0.179-0.415-0.268-0.861-0.268-1.335v-5.977c0-0.475,0.089-0.921,0.268-1.335
			c0.18-0.416,0.42-0.776,0.727-1.082c0.303-0.305,0.665-0.546,1.078-0.725c0.417-0.177,0.863-0.267,1.335-0.267
			c0.479,0,0.922,0.09,1.336,0.267c0.418,0.178,0.774,0.419,1.084,0.725c0.304,0.306,0.546,0.666,0.725,1.082
			c0.175,0.415,0.267,0.853,0.267,1.309v0.026C921.994,83.432,921.35,84.196,920.059,84.67z M918.583,79.813
			c-0.353,0-0.69,0.068-1.002,0.203c-0.314,0.136-0.587,0.318-0.815,0.546c-0.229,0.23-0.409,0.501-0.546,0.815
			c-0.136,0.314-0.205,0.648-0.205,1.005v2.925c0.256-0.103,0.569-0.226,0.944-0.369c0.372-0.145,0.745-0.283,1.117-0.42
			c0.373-0.136,0.716-0.262,1.03-0.381c0.314-0.118,0.538-0.204,0.675-0.254c0.305-0.119,0.61-0.297,0.912-0.535
			c0.31-0.237,0.461-0.567,0.461-0.992c0-0.355-0.067-0.687-0.204-0.991c-0.137-0.305-0.317-0.573-0.546-0.803
			c-0.231-0.228-0.5-0.41-0.815-0.546C919.273,79.881,918.94,79.813,918.583,79.813z"/>
		<path class="st5" d="M932.164,79.102l-4.451,18.235h-0.864l1.324-5.494l-3.586-12.741h0.866l3.127,11.088l2.72-11.088H932.164z"/>
	</g>
	<g>
		<path class="st5" d="M854.554,398.292c0.507,0,0.983,0.095,1.43,0.279c0.447,0.188,0.838,0.447,1.167,0.777
			c0.33,0.331,0.593,0.718,0.786,1.157s0.29,0.915,0.29,1.423v9.92c0,0.507-0.097,0.982-0.29,1.426
			c-0.193,0.439-0.456,0.824-0.786,1.158c-0.329,0.326-0.72,0.586-1.167,0.773c-0.446,0.187-0.923,0.279-1.43,0.279h-2.657h-0.204
			h-0.637v-17.193h0.637h0.204H854.554z M857.39,401.929c0-0.387-0.079-0.755-0.23-1.093c-0.151-0.337-0.356-0.636-0.608-0.89
			c-0.256-0.256-0.552-0.453-0.892-0.598c-0.341-0.144-0.704-0.216-1.096-0.216h-2.667v15.512h2.667
			c0.392,0,0.755-0.068,1.096-0.212c0.34-0.145,0.636-0.346,0.892-0.601c0.252-0.254,0.457-0.55,0.608-0.891
			c0.151-0.337,0.23-0.702,0.23-1.093V401.929z"/>
		<path class="st5" d="M864.762,415.615c-0.472,0-0.919-0.09-1.333-0.269c-0.417-0.178-0.777-0.421-1.081-0.725
			c-0.307-0.307-0.547-0.667-0.725-1.081c-0.18-0.414-0.27-0.861-0.27-1.334v-5.979c0-0.474,0.09-0.921,0.27-1.332
			c0.178-0.418,0.418-0.778,0.725-1.084c0.304-0.306,0.664-0.547,1.081-0.726c0.414-0.179,0.861-0.269,1.333-0.269
			c0.477,0,0.92,0.09,1.337,0.269s0.774,0.42,1.082,0.726c0.303,0.306,0.546,0.666,0.726,1.084c0.177,0.411,0.265,0.858,0.265,1.332
			v5.979c0,0.473-0.088,0.92-0.265,1.334c-0.18,0.414-0.423,0.774-0.726,1.081c-0.308,0.304-0.665,0.547-1.082,0.725
			C865.682,415.525,865.238,415.615,864.762,415.615z M864.762,403.658c-0.354,0-0.69,0.07-1.003,0.204
			c-0.313,0.139-0.587,0.317-0.815,0.546c-0.228,0.231-0.41,0.502-0.546,0.814c-0.134,0.316-0.205,0.651-0.205,1.006v5.979
			c0,0.352,0.071,0.69,0.205,1.004c0.136,0.312,0.318,0.585,0.546,0.815c0.229,0.228,0.502,0.41,0.815,0.546
			c0.312,0.134,0.649,0.202,1.003,0.202c0.357,0,0.69-0.068,1.006-0.202c0.315-0.136,0.583-0.318,0.813-0.546
			c0.229-0.23,0.41-0.504,0.548-0.815c0.136-0.313,0.203-0.652,0.203-1.004v-5.979c0-0.354-0.067-0.689-0.203-1.006
			c-0.138-0.312-0.319-0.583-0.548-0.814c-0.23-0.229-0.498-0.407-0.813-0.546C865.452,403.728,865.119,403.658,864.762,403.658z"/>
		<path class="st5" d="M878.573,402.947l-3.306,12.539h-0.333h-0.531h-0.333l-3.306-12.539h0.866l3.025,11.52l3.024-11.52H878.573z"
			/>
		<path class="st5" d="M885.797,408.516c-0.153,0.052-0.409,0.149-0.763,0.294c-0.358,0.144-0.743,0.292-1.158,0.446
			c-0.417,0.15-0.82,0.302-1.207,0.458c-0.392,0.15-0.695,0.262-0.915,0.329v2.163c0,0.352,0.065,0.69,0.202,1.004
			c0.136,0.312,0.318,0.585,0.546,0.815c0.229,0.228,0.5,0.41,0.812,0.546c0.315,0.134,0.651,0.202,1.006,0.202
			c0.355,0,0.691-0.068,1.006-0.202c0.313-0.136,0.584-0.318,0.815-0.546c0.229-0.23,0.408-0.504,0.547-0.815
			c0.134-0.313,0.202-0.652,0.202-1.004h0.84c0,0.473-0.089,0.92-0.268,1.334s-0.421,0.774-0.725,1.081
			c-0.307,0.304-0.667,0.547-1.081,0.725c-0.415,0.179-0.861,0.269-1.337,0.269c-0.475,0-0.919-0.09-1.333-0.269
			c-0.418-0.178-0.777-0.421-1.083-0.725c-0.304-0.307-0.548-0.667-0.726-1.081c-0.176-0.414-0.267-0.861-0.267-1.334v-5.979
			c0-0.474,0.091-0.921,0.267-1.332c0.178-0.418,0.422-0.778,0.726-1.084c0.306-0.306,0.665-0.547,1.083-0.726
			c0.414-0.179,0.858-0.269,1.333-0.269c0.476,0,0.922,0.09,1.337,0.269c0.414,0.179,0.774,0.42,1.081,0.726
			c0.304,0.306,0.546,0.666,0.725,1.084c0.179,0.411,0.268,0.849,0.268,1.305v0.027C887.73,407.279,887.084,408.044,885.797,408.516
			z M884.32,403.658c-0.354,0-0.69,0.07-1.006,0.204c-0.312,0.139-0.583,0.317-0.812,0.546c-0.228,0.231-0.41,0.502-0.546,0.814
			c-0.137,0.316-0.202,0.651-0.202,1.006v2.924c0.254-0.099,0.566-0.224,0.94-0.368c0.372-0.144,0.744-0.283,1.116-0.42
			c0.374-0.136,0.716-0.259,1.031-0.38c0.314-0.118,0.539-0.202,0.673-0.255c0.31-0.117,0.612-0.295,0.917-0.534
			c0.307-0.238,0.459-0.566,0.459-0.994c0-0.353-0.068-0.685-0.202-0.986c-0.139-0.311-0.318-0.575-0.547-0.807
			c-0.231-0.229-0.502-0.407-0.815-0.546C885.012,403.728,884.676,403.658,884.32,403.658z"/>
		<path class="st5" d="M902.607,405.796h0.841v0.838v2.57v2.72v0.282c-0.035,0.473-0.154,0.92-0.357,1.334
			c-0.204,0.414-0.471,0.774-0.8,1.081c-0.33,0.304-0.713,0.547-1.146,0.725c-0.432,0.179-0.887,0.269-1.358,0.269
			c-0.512,0-0.989-0.099-1.44-0.294c-0.448-0.193-0.838-0.456-1.168-0.79c-0.332-0.329-0.596-0.72-0.79-1.169
			c-0.193-0.45-0.293-0.926-0.293-1.438V401.88c0-0.51,0.1-0.989,0.293-1.437c0.194-0.452,0.458-0.84,0.79-1.172
			c0.33-0.331,0.72-0.591,1.168-0.787c0.451-0.197,0.929-0.292,1.44-0.292c0.506,0,0.979,0.095,1.42,0.284
			c0.442,0.189,0.83,0.448,1.157,0.774c0.333,0.327,0.597,0.716,0.791,1.165c0.193,0.45,0.293,0.929,0.293,1.438h-0.841
			c0-0.393-0.077-0.756-0.229-1.093c-0.153-0.34-0.357-0.636-0.61-0.892c-0.254-0.255-0.552-0.46-0.89-0.611
			c-0.34-0.151-0.704-0.229-1.092-0.229c-0.393,0-0.762,0.077-1.108,0.231c-0.348,0.151-0.651,0.354-0.905,0.611
			c-0.251,0.253-0.456,0.55-0.61,0.889c-0.151,0.341-0.229,0.705-0.229,1.099v10.058c0,0.393,0.077,0.762,0.229,1.11
			c0.154,0.348,0.359,0.648,0.61,0.903c0.254,0.257,0.558,0.461,0.905,0.611c0.347,0.154,0.716,0.23,1.108,0.23
			c0.388,0,0.752-0.076,1.092-0.228c0.338-0.153,0.636-0.357,0.89-0.611c0.253-0.254,0.457-0.556,0.61-0.902
			c0.151-0.35,0.229-0.717,0.229-1.108v-2.72v-2.57h-3.457v-0.838H902.607z"/>
		<path class="st5" d="M911.787,402.818v0.84h-0.99c-0.355,0-0.688,0.07-0.991,0.204c-0.306,0.139-0.576,0.317-0.814,0.546
			c-0.239,0.231-0.423,0.502-0.559,0.814c-0.137,0.316-0.204,0.651-0.204,1.006v2.977v6.281h-0.839v-6.281v-2.977v-2.44h-0.839
			v-0.841h0.839h0.839v0.841v0.203c0.645-0.745,1.475-1.137,2.491-1.173H911.787z"/>
		<path class="st5" d="M918.63,408.516c-0.151,0.052-0.406,0.149-0.763,0.294c-0.356,0.144-0.741,0.292-1.157,0.446
			c-0.417,0.15-0.819,0.302-1.207,0.458c-0.392,0.15-0.694,0.262-0.915,0.329v2.163c0,0.352,0.066,0.69,0.202,1.004
			c0.138,0.312,0.318,0.585,0.547,0.815c0.229,0.228,0.5,0.41,0.812,0.546c0.315,0.134,0.652,0.202,1.006,0.202
			c0.356,0,0.69-0.068,1.008-0.202c0.312-0.136,0.583-0.318,0.814-0.546c0.228-0.23,0.408-0.504,0.546-0.815
			c0.134-0.313,0.203-0.652,0.203-1.004h0.839c0,0.473-0.089,0.92-0.268,1.334c-0.178,0.414-0.42,0.774-0.725,1.081
			c-0.307,0.304-0.667,0.547-1.081,0.725c-0.415,0.179-0.861,0.269-1.337,0.269c-0.475,0-0.919-0.09-1.333-0.269
			c-0.417-0.178-0.777-0.421-1.083-0.725c-0.304-0.307-0.547-0.667-0.726-1.081c-0.176-0.414-0.266-0.861-0.266-1.334v-5.979
			c0-0.474,0.09-0.921,0.266-1.332c0.179-0.418,0.422-0.778,0.726-1.084c0.306-0.306,0.666-0.547,1.083-0.726
			c0.414-0.179,0.858-0.269,1.333-0.269c0.476,0,0.922,0.09,1.337,0.269c0.414,0.179,0.774,0.42,1.081,0.726
			c0.305,0.306,0.547,0.666,0.725,1.084c0.179,0.411,0.268,0.849,0.268,1.305v0.027C920.564,407.279,919.919,408.044,918.63,408.516
			z M917.154,403.658c-0.354,0-0.69,0.07-1.006,0.204c-0.312,0.139-0.582,0.317-0.812,0.546c-0.229,0.231-0.409,0.502-0.547,0.814
			c-0.136,0.316-0.202,0.651-0.202,1.006v2.924c0.255-0.099,0.567-0.224,0.941-0.368c0.372-0.144,0.744-0.283,1.116-0.42
			c0.374-0.136,0.716-0.259,1.031-0.38c0.315-0.118,0.538-0.202,0.673-0.255c0.309-0.117,0.612-0.295,0.916-0.534
			c0.307-0.238,0.46-0.566,0.46-0.994c0-0.353-0.069-0.685-0.203-0.986c-0.138-0.311-0.318-0.575-0.546-0.807
			c-0.231-0.229-0.503-0.407-0.814-0.546C917.845,403.728,917.511,403.658,917.154,403.658z"/>
		<path class="st5" d="M930.737,402.947l-4.452,18.236h-0.863l1.323-5.494l-3.587-12.742h0.864l3.13,11.088l2.719-11.088H930.737z"
			/>
	</g>
	<g>
		<path class="st5" d="M650.52,447.723c0.713,0.257,1.299,0.69,1.756,1.312c0.458,0.619,0.687,1.327,0.687,2.125v3.508
			c0,0.508-0.099,0.983-0.295,1.427c-0.192,0.439-0.456,0.824-0.787,1.157c-0.329,0.329-0.717,0.587-1.156,0.773
			c-0.44,0.187-0.917,0.279-1.423,0.279h-3.31h-0.407h-0.432v-17.192h0.432h0.407h2.47c0.506,0,0.983,0.095,1.424,0.278
			c0.438,0.189,0.826,0.448,1.156,0.778c0.331,0.329,0.594,0.718,0.787,1.157c0.196,0.439,0.293,0.916,0.293,1.423
			c0,0.629-0.145,1.202-0.432,1.719C651.401,446.984,651.012,447.403,650.52,447.723z M645.991,441.952v5.569h2.569
			c0.373-0.016,0.725-0.096,1.057-0.242c0.329-0.141,0.617-0.342,0.864-0.599c0.244-0.252,0.44-0.547,0.588-0.874
			c0.141-0.332,0.213-0.686,0.213-1.058c0-0.388-0.074-0.755-0.229-1.093s-0.356-0.637-0.61-0.889
			c-0.254-0.257-0.553-0.455-0.89-0.599c-0.338-0.144-0.704-0.217-1.093-0.217H645.991z M652.121,451.16
			c0-0.376-0.072-0.729-0.217-1.071c-0.144-0.338-0.339-0.637-0.582-0.89c-0.249-0.252-0.541-0.451-0.879-0.596
			s-0.703-0.225-1.093-0.243h-0.79h-0.1h-2.47v9.104h3.31c0.388,0,0.755-0.069,1.092-0.213c0.339-0.145,0.636-0.346,0.89-0.601
			c0.253-0.254,0.458-0.55,0.61-0.891c0.154-0.337,0.229-0.701,0.229-1.093V451.16z"/>
		<path class="st5" d="M661.304,445.636v0.841h-0.99c-0.358,0-0.688,0.069-0.994,0.203c-0.303,0.14-0.576,0.317-0.815,0.548
			c-0.235,0.229-0.422,0.501-0.557,0.813c-0.138,0.315-0.202,0.651-0.202,1.006v2.977v6.28h-0.839v-6.28v-2.977v-2.441h-0.841v-0.84
			h0.841h0.839v0.84v0.205c0.641-0.746,1.475-1.138,2.491-1.175H661.304z"/>
		<path class="st5" d="M670.715,445.766v6.258v3.001v3.279h-0.839v-1.042c-0.323,0.356-0.706,0.641-1.146,0.854
			c-0.44,0.208-0.917,0.318-1.423,0.318c-0.478,0-0.92-0.091-1.337-0.269c-0.418-0.179-0.774-0.421-1.08-0.726
			c-0.307-0.306-0.549-0.666-0.726-1.08s-0.267-0.861-0.267-1.335v-3.001v-6.258h0.841v6.258v3.001c0,0.354,0.064,0.692,0.203,1.005
			c0.135,0.312,0.318,0.585,0.546,0.815c0.229,0.228,0.499,0.409,0.813,0.546c0.315,0.133,0.647,0.202,1.006,0.202
			c0.354,0,0.69-0.069,1.002-0.202c0.314-0.137,0.587-0.318,0.815-0.546c0.229-0.23,0.412-0.504,0.546-0.815
			c0.135-0.312,0.205-0.651,0.205-1.005v-3.001v-6.258H670.715z"/>
		<path class="st5" d="M677.224,445.636c0.475,0,0.922,0.092,1.336,0.27c0.416,0.179,0.776,0.42,1.081,0.725
			c0.306,0.307,0.547,0.666,0.726,1.084c0.18,0.411,0.268,0.857,0.268,1.333v2.977v6.28h-0.839v-6.28v-2.977
			c0-0.354-0.069-0.69-0.204-1.006c-0.136-0.312-0.318-0.584-0.546-0.813c-0.231-0.23-0.502-0.408-0.814-0.548
			c-0.315-0.134-0.65-0.203-1.007-0.203c-0.354,0-0.689,0.069-1.006,0.203c-0.312,0.14-0.583,0.317-0.811,0.548
			c-0.229,0.229-0.41,0.501-0.547,0.813c-0.137,0.315-0.204,0.651-0.204,1.006v2.977v6.28h-0.839v-6.28v-2.977v-3.281h0.839v1.045
			c0.321-0.374,0.702-0.662,1.146-0.864C676.24,445.742,676.715,445.636,677.224,445.636z"/>
		<path class="st5" d="M684.598,445.564h0.841v0.864v11.698h-0.841v-11.698h-0.839v-0.864H684.598z M684.803,442.662
			c-0.186,0-0.338-0.057-0.458-0.175c-0.119-0.118-0.179-0.272-0.179-0.461c0-0.184,0.06-0.338,0.179-0.457
			c0.12-0.119,0.272-0.179,0.458-0.179c0.168,0,0.318,0.06,0.447,0.179c0.125,0.119,0.188,0.273,0.188,0.457
			c0,0.188-0.063,0.343-0.188,0.461C685.121,442.605,684.971,442.662,684.803,442.662z"/>
		<path class="st5" d="M699.173,447.723c0.713,0.257,1.296,0.69,1.752,1.312c0.462,0.619,0.689,1.327,0.689,2.125v3.508
			c0,0.508-0.098,0.983-0.291,1.427c-0.195,0.439-0.46,0.824-0.79,1.157c-0.329,0.329-0.715,0.587-1.157,0.773
			s-0.914,0.279-1.426,0.279h-3.303h-0.407h-0.433v-17.192h0.433h0.407h2.464c0.512,0,0.983,0.095,1.426,0.278
			c0.441,0.189,0.827,0.448,1.157,0.778c0.331,0.329,0.594,0.718,0.79,1.157c0.193,0.439,0.292,0.916,0.292,1.423
			c0,0.629-0.145,1.202-0.434,1.719C700.055,446.984,699.665,447.403,699.173,447.723z M694.647,441.952v5.569h2.567
			c0.372-0.016,0.727-0.096,1.054-0.242c0.333-0.141,0.622-0.342,0.867-0.599c0.245-0.252,0.439-0.547,0.583-0.874
			c0.145-0.332,0.219-0.686,0.219-1.058c0-0.388-0.079-0.755-0.23-1.093s-0.356-0.637-0.607-0.889
			c-0.257-0.257-0.553-0.455-0.893-0.599c-0.341-0.144-0.703-0.217-1.096-0.217H694.647z M700.776,451.16
			c0-0.376-0.073-0.729-0.218-1.071c-0.143-0.338-0.337-0.637-0.586-0.89c-0.243-0.252-0.536-0.451-0.873-0.596
			c-0.341-0.145-0.706-0.225-1.096-0.243h-0.789h-0.104h-2.464v9.104h3.303c0.394,0,0.755-0.069,1.096-0.213
			c0.341-0.145,0.638-0.346,0.892-0.601c0.254-0.254,0.457-0.55,0.608-0.891c0.151-0.337,0.23-0.701,0.23-1.093V451.16z"/>
		<path class="st5" d="M709.957,445.636v0.841h-0.994c-0.354,0-0.684,0.069-0.99,0.203c-0.306,0.14-0.576,0.317-0.812,0.548
			c-0.239,0.229-0.426,0.501-0.562,0.813c-0.134,0.315-0.205,0.651-0.205,1.006v2.977v6.28h-0.839v-6.28v-2.977v-2.441h-0.839v-0.84
			h0.839h0.839v0.84v0.205c0.647-0.746,1.477-1.138,2.495-1.175H709.957z"/>
		<path class="st5" d="M715.703,458.434c-0.474,0-0.918-0.091-1.336-0.269c-0.414-0.179-0.773-0.421-1.077-0.726
			c-0.308-0.306-0.549-0.666-0.725-1.08c-0.18-0.414-0.27-0.861-0.27-1.335v-5.978c0-0.476,0.09-0.922,0.27-1.333
			c0.176-0.418,0.417-0.777,0.725-1.084c0.304-0.305,0.663-0.546,1.077-0.725c0.418-0.178,0.862-0.27,1.336-0.27
			c0.475,0,0.921,0.092,1.339,0.27c0.414,0.179,0.774,0.42,1.079,0.725c0.306,0.307,0.546,0.666,0.726,1.084
			c0.175,0.411,0.266,0.857,0.266,1.333v5.978c0,0.474-0.091,0.921-0.266,1.335c-0.18,0.414-0.42,0.774-0.726,1.08
			c-0.305,0.305-0.665,0.547-1.079,0.726C716.624,458.343,716.178,458.434,715.703,458.434z M715.703,446.477
			c-0.354,0-0.69,0.069-1.002,0.203c-0.314,0.14-0.587,0.317-0.815,0.548c-0.229,0.229-0.412,0.501-0.546,0.813
			c-0.137,0.315-0.204,0.651-0.204,1.006v5.978c0,0.354,0.067,0.692,0.204,1.005c0.134,0.312,0.317,0.585,0.546,0.815
			c0.229,0.228,0.501,0.409,0.815,0.546c0.312,0.133,0.648,0.202,1.002,0.202c0.359,0,0.691-0.069,1.005-0.202
			c0.315-0.137,0.586-0.318,0.815-0.546c0.229-0.23,0.411-0.504,0.546-0.815c0.137-0.312,0.203-0.651,0.203-1.005v-5.978
			c0-0.354-0.066-0.69-0.203-1.006c-0.135-0.312-0.317-0.584-0.546-0.813c-0.229-0.23-0.5-0.408-0.815-0.548
			C716.395,446.546,716.062,446.477,715.703,446.477z"/>
		<path class="st5" d="M733.508,445.766l-2.849,12.538h-1.244l-1.809-10.173l-1.803,10.173h-1.273l-2.826-12.538h0.868l2.568,11.396
			l2.033-11.396h0.839h0.025l2.037,11.396l2.568-11.396H733.508z"/>
		<path class="st5" d="M739.255,445.636c0.475,0,0.919,0.092,1.336,0.27c0.416,0.179,0.774,0.42,1.081,0.725
			c0.304,0.307,0.546,0.666,0.725,1.084c0.177,0.411,0.266,0.857,0.266,1.333v2.977v6.28h-0.839v-6.28v-2.977
			c0-0.354-0.067-0.69-0.204-1.006c-0.134-0.312-0.318-0.584-0.547-0.813c-0.228-0.23-0.498-0.408-0.815-0.548
			c-0.312-0.134-0.645-0.203-1.002-0.203c-0.355,0-0.69,0.069-1.004,0.203c-0.312,0.14-0.586,0.317-0.813,0.548
			c-0.229,0.229-0.413,0.501-0.547,0.813c-0.138,0.315-0.203,0.651-0.203,1.006v2.977v6.28h-0.841v-6.28v-2.977v-3.281h0.841v1.045
			c0.322-0.374,0.701-0.662,1.142-0.864C738.271,445.742,738.747,445.636,739.255,445.636z"/>
	</g>
	<g>
		<path class="st5" d="M446.344,547.493v6.509h4.806v0.839h-4.806v8.167h5.849v0.838h-5.849h-0.84v-17.193h0.84h5.849v0.841H446.344
			z"/>
		<path class="st5" d="M454.787,563.845v-18.236h0.839v18.236H454.787z"/>
		<path class="st5" d="M463.866,556.878c-0.153,0.049-0.407,0.148-0.762,0.29c-0.356,0.146-0.743,0.293-1.157,0.445
			c-0.416,0.152-0.818,0.307-1.208,0.459c-0.39,0.151-0.695,0.261-0.916,0.329v2.162c0,0.357,0.067,0.69,0.204,1.006
			c0.135,0.312,0.318,0.584,0.546,0.812c0.229,0.229,0.5,0.413,0.814,0.547c0.313,0.14,0.648,0.204,1.004,0.204
			c0.357,0,0.69-0.064,1.004-0.204c0.315-0.134,0.585-0.318,0.815-0.547c0.229-0.228,0.412-0.499,0.547-0.812
			c0.137-0.315,0.204-0.648,0.204-1.006h0.839c0,0.476-0.089,0.918-0.267,1.336c-0.179,0.414-0.419,0.774-0.725,1.081
			c-0.305,0.305-0.665,0.546-1.081,0.725c-0.415,0.176-0.861,0.266-1.335,0.266c-0.475,0-0.918-0.09-1.334-0.266
			c-0.417-0.179-0.776-0.42-1.081-0.725c-0.306-0.307-0.548-0.667-0.725-1.081c-0.179-0.418-0.268-0.86-0.268-1.336v-5.977
			c0-0.475,0.088-0.918,0.268-1.336c0.177-0.414,0.418-0.773,0.725-1.081c0.305-0.305,0.664-0.546,1.081-0.724
			c0.416-0.177,0.86-0.267,1.334-0.267c0.474,0,0.92,0.09,1.335,0.267c0.416,0.178,0.776,0.419,1.081,0.724
			c0.306,0.308,0.546,0.667,0.725,1.081c0.178,0.418,0.267,0.854,0.267,1.312v0.024C465.8,555.638,465.156,556.401,463.866,556.878z
			 M462.391,552.019c-0.356,0-0.69,0.067-1.004,0.205c-0.314,0.133-0.585,0.318-0.814,0.546c-0.228,0.229-0.411,0.499-0.546,0.814
			c-0.137,0.312-0.204,0.646-0.204,1.003v2.927c0.254-0.105,0.567-0.227,0.941-0.371c0.374-0.145,0.746-0.283,1.12-0.421
			c0.373-0.133,0.714-0.262,1.03-0.382c0.313-0.116,0.537-0.203,0.674-0.252c0.306-0.12,0.609-0.299,0.916-0.534
			c0.305-0.236,0.458-0.569,0.458-0.991c0-0.358-0.067-0.688-0.204-0.993c-0.135-0.304-0.317-0.571-0.547-0.8
			c-0.229-0.228-0.5-0.413-0.815-0.546C463.082,552.086,462.748,552.019,462.391,552.019z"/>
		<path class="st5" d="M475.592,551.306v3.281v5.977v5.774c0,0.475-0.088,0.919-0.267,1.334c-0.178,0.417-0.419,0.775-0.725,1.082
			c-0.305,0.304-0.665,0.546-1.08,0.726c-0.416,0.177-0.862,0.266-1.336,0.266c-0.475,0-0.918-0.089-1.334-0.266
			c-0.417-0.18-0.777-0.422-1.081-0.726c-0.306-0.307-0.548-0.665-0.725-1.082c-0.179-0.415-0.268-0.859-0.268-1.334h0.839
			c0,0.356,0.067,0.686,0.204,0.99c0.135,0.307,0.318,0.577,0.546,0.815c0.228,0.238,0.5,0.421,0.813,0.559
			c0.313,0.136,0.648,0.203,1.004,0.203c0.355,0,0.691-0.067,1.004-0.203c0.315-0.138,0.585-0.32,0.814-0.559
			s0.412-0.509,0.547-0.815c0.135-0.305,0.204-0.634,0.204-0.99v-3.535c-0.323,0.355-0.704,0.641-1.145,0.85
			c-0.441,0.213-0.916,0.318-1.425,0.318c-0.475,0-0.918-0.09-1.334-0.266c-0.417-0.179-0.777-0.42-1.081-0.725
			c-0.306-0.307-0.548-0.667-0.725-1.081c-0.179-0.418-0.268-0.86-0.268-1.336v-5.977c0-0.475,0.089-0.918,0.268-1.336
			c0.177-0.414,0.419-0.773,0.725-1.081c0.303-0.305,0.664-0.546,1.081-0.724c0.416-0.177,0.86-0.267,1.334-0.267
			c0.509,0,0.983,0.1,1.425,0.303c0.441,0.205,0.822,0.491,1.145,0.866v-1.043H475.592z M472.183,563.132
			c0.355,0,0.691-0.064,1.004-0.204c0.315-0.134,0.585-0.318,0.814-0.547c0.229-0.228,0.412-0.499,0.547-0.812
			c0.135-0.315,0.204-0.648,0.204-1.006v-5.977c0-0.357-0.069-0.69-0.204-1.003c-0.135-0.315-0.318-0.586-0.547-0.814
			c-0.229-0.228-0.5-0.413-0.814-0.546c-0.313-0.138-0.649-0.205-1.004-0.205c-0.356,0-0.69,0.067-1.004,0.205
			c-0.314,0.133-0.585,0.318-0.813,0.546c-0.229,0.229-0.412,0.499-0.546,0.814c-0.137,0.312-0.204,0.646-0.204,1.003v5.977
			c0,0.357,0.067,0.69,0.204,1.006c0.135,0.312,0.318,0.584,0.546,0.812c0.228,0.229,0.5,0.413,0.813,0.547
			C471.493,563.068,471.827,563.132,472.183,563.132z"/>
		<path class="st5" d="M482.305,551.18c0.475,0,0.907,0.09,1.299,0.267c0.39,0.178,0.723,0.419,1.004,0.724
			c0.279,0.308,0.5,0.667,0.66,1.081c0.162,0.418,0.242,0.861,0.242,1.336v2.977v3v3.281h-0.839v-1.042
			c-0.323,0.355-0.704,0.641-1.145,0.85c-0.44,0.213-0.914,0.318-1.425,0.318c-0.474,0-0.918-0.09-1.333-0.266
			c-0.416-0.179-0.777-0.42-1.081-0.725c-0.306-0.307-0.548-0.667-0.725-1.081c-0.177-0.418-0.267-0.86-0.267-1.336v-0.711
			c0-1.053,0.644-1.814,1.932-2.289c0.153-0.068,0.412-0.17,0.778-0.307c0.364-0.137,0.753-0.283,1.169-0.444
			c0.416-0.162,0.818-0.313,1.208-0.458c0.391-0.144,0.688-0.258,0.89-0.342v-1.426c0-0.713-0.216-1.318-0.648-1.817
			c-0.434-0.501-1.004-0.751-1.718-0.751c-0.355,0-0.686,0.067-0.992,0.205c-0.305,0.133-0.576,0.318-0.813,0.546
			c-0.237,0.229-0.423,0.499-0.558,0.814c-0.137,0.312-0.204,0.646-0.204,1.003h-0.839c0-0.475,0.088-0.918,0.267-1.336
			c0.177-0.414,0.419-0.773,0.725-1.081c0.303-0.305,0.664-0.546,1.081-0.724C481.386,551.27,481.831,551.18,482.305,551.18z
			 M484.671,557.564v-0.637c-0.253,0.103-0.569,0.221-0.941,0.357c-0.372,0.135-0.746,0.272-1.118,0.417
			c-0.374,0.145-0.713,0.279-1.018,0.395c-0.306,0.12-0.527,0.205-0.662,0.257c-0.321,0.117-0.636,0.296-0.941,0.531
			c-0.304,0.239-0.458,0.562-0.458,0.969v0.711c0,0.357,0.067,0.69,0.205,1.006c0.135,0.312,0.318,0.584,0.546,0.812
			c0.228,0.229,0.501,0.413,0.813,0.547c0.314,0.14,0.65,0.204,1.004,0.204c0.358,0,0.69-0.064,1.006-0.204
			c0.313-0.134,0.583-0.318,0.814-0.547c0.229-0.228,0.41-0.499,0.546-0.812c0.135-0.315,0.203-0.648,0.203-1.006V557.564z"/>
		<path class="st5" d="M492.021,551.18c0.474,0,0.92,0.09,1.336,0.267c0.414,0.178,0.774,0.419,1.081,0.724
			c0.304,0.308,0.546,0.667,0.725,1.081c0.177,0.418,0.267,0.861,0.267,1.336v2.977v6.281h-0.839v-6.281v-2.977
			c0-0.357-0.069-0.69-0.204-1.003c-0.135-0.315-0.318-0.586-0.546-0.814c-0.229-0.228-0.501-0.413-0.815-0.546
			c-0.313-0.138-0.648-0.205-1.004-0.205s-0.69,0.067-1.005,0.205c-0.312,0.133-0.584,0.318-0.813,0.546
			c-0.229,0.229-0.412,0.499-0.546,0.814c-0.137,0.312-0.203,0.646-0.203,1.003v2.977v6.281h-0.84v-6.281v-2.977v-3.281h0.84v1.043
			c0.321-0.375,0.702-0.661,1.144-0.866C491.037,551.28,491.512,551.18,492.021,551.18z"/>
		<path class="st5" d="M499.371,557.564v3c0,0.357,0.061,0.69,0.176,1.006c0.12,0.312,0.281,0.584,0.485,0.812
			c0.204,0.229,0.439,0.413,0.713,0.547c0.27,0.14,0.558,0.204,0.864,0.204v0.839c-0.424,0-0.822-0.09-1.195-0.266
			c-0.375-0.179-0.7-0.42-0.981-0.725c-0.277-0.307-0.498-0.667-0.66-1.081c-0.159-0.418-0.24-0.86-0.24-1.336v-3v-5.417v-0.841
			v-3.559h0.839v3.559h2.747v0.841h-2.747V557.564z"/>
		<path class="st5" d="M516.486,554.155h0.84v0.841v2.568v2.721v0.279c-0.035,0.476-0.152,0.918-0.356,1.336
			c-0.202,0.414-0.468,0.774-0.802,1.081c-0.326,0.305-0.71,0.546-1.142,0.725c-0.433,0.176-0.887,0.266-1.361,0.266
			c-0.509,0-0.987-0.097-1.438-0.292c-0.45-0.193-0.837-0.459-1.169-0.788c-0.332-0.33-0.595-0.722-0.788-1.17
			c-0.196-0.447-0.293-0.929-0.293-1.437V550.24c0-0.51,0.097-0.989,0.293-1.438c0.193-0.447,0.456-0.841,0.788-1.171
			s0.719-0.593,1.169-0.786c0.451-0.193,0.93-0.295,1.438-0.295c0.507,0,0.982,0.096,1.423,0.284
			c0.439,0.189,0.826,0.45,1.157,0.777c0.332,0.327,0.594,0.716,0.788,1.165c0.196,0.45,0.293,0.93,0.293,1.436h-0.84
			c0-0.389-0.074-0.753-0.229-1.093c-0.151-0.338-0.355-0.636-0.61-0.89c-0.254-0.253-0.553-0.456-0.89-0.61
			c-0.338-0.154-0.703-0.229-1.093-0.229c-0.393,0-0.76,0.077-1.107,0.229c-0.349,0.154-0.649,0.357-0.902,0.61
			c-0.256,0.256-0.46,0.555-0.611,0.896c-0.151,0.338-0.228,0.701-0.228,1.092v10.064c0,0.391,0.076,0.759,0.228,1.107
			c0.151,0.348,0.355,0.651,0.611,0.903c0.253,0.254,0.554,0.459,0.902,0.61c0.348,0.155,0.715,0.23,1.107,0.23
			c0.39,0,0.755-0.075,1.093-0.23c0.337-0.151,0.636-0.354,0.89-0.61c0.255-0.252,0.459-0.554,0.61-0.9
			c0.154-0.349,0.229-0.716,0.229-1.106v-2.721v-2.568h-3.458v-0.841H516.486z"/>
		<path class="st5" d="M525.67,551.18v0.839h-0.992c-0.358,0-0.688,0.067-0.994,0.205c-0.302,0.133-0.575,0.318-0.813,0.546
			c-0.237,0.229-0.424,0.499-0.557,0.814c-0.14,0.312-0.204,0.646-0.204,1.003v2.977v6.281h-0.839v-6.281v-2.977v-2.44h-0.84v-0.841
			h0.84h0.839v0.841v0.202c0.641-0.747,1.475-1.134,2.491-1.169H525.67z"/>
		<path class="st5" d="M532.51,556.878c-0.152,0.049-0.405,0.148-0.763,0.29c-0.356,0.146-0.74,0.293-1.158,0.445
			c-0.415,0.152-0.817,0.307-1.208,0.459c-0.389,0.151-0.694,0.261-0.913,0.329v2.162c0,0.357,0.065,0.69,0.203,1.006
			c0.136,0.312,0.318,0.584,0.547,0.812c0.228,0.229,0.5,0.413,0.812,0.547c0.317,0.14,0.648,0.204,1.008,0.204
			c0.354,0,0.689-0.064,1.003-0.204c0.312-0.134,0.585-0.318,0.813-0.547c0.229-0.228,0.414-0.499,0.547-0.812
			c0.134-0.315,0.203-0.648,0.203-1.006h0.84c0,0.476-0.09,0.918-0.268,1.336c-0.18,0.414-0.418,0.774-0.726,1.081
			c-0.303,0.305-0.667,0.546-1.078,0.725c-0.416,0.176-0.864,0.266-1.335,0.266c-0.478,0-0.921-0.09-1.338-0.266
			c-0.417-0.179-0.774-0.42-1.08-0.725c-0.305-0.307-0.549-0.667-0.726-1.081c-0.176-0.418-0.266-0.86-0.266-1.336v-5.977
			c0-0.475,0.09-0.918,0.266-1.336c0.177-0.414,0.421-0.773,0.726-1.081c0.306-0.305,0.663-0.546,1.08-0.724
			c0.417-0.177,0.86-0.267,1.338-0.267c0.471,0,0.919,0.09,1.335,0.267c0.411,0.178,0.775,0.419,1.078,0.724
			c0.308,0.308,0.546,0.667,0.726,1.081c0.178,0.418,0.268,0.854,0.268,1.312v0.024C534.443,555.638,533.798,556.401,532.51,556.878
			z M531.037,552.019c-0.359,0-0.69,0.067-1.008,0.205c-0.312,0.133-0.584,0.318-0.812,0.546c-0.229,0.229-0.411,0.499-0.547,0.814
			c-0.138,0.312-0.203,0.646-0.203,1.003v2.927c0.254-0.105,0.566-0.227,0.938-0.371c0.373-0.145,0.745-0.283,1.12-0.421
			c0.373-0.133,0.717-0.262,1.031-0.382c0.313-0.116,0.535-0.203,0.672-0.252c0.307-0.12,0.61-0.299,0.918-0.534
			c0.303-0.236,0.456-0.569,0.456-0.991c0-0.358-0.069-0.688-0.203-0.993c-0.133-0.304-0.318-0.571-0.547-0.8
			c-0.229-0.228-0.502-0.413-0.813-0.546C531.727,552.086,531.391,552.019,531.037,552.019z"/>
		<path class="st5" d="M544.618,551.306l-4.452,18.237h-0.865l1.322-5.495l-3.587-12.742h0.864l3.13,11.091l2.722-11.091H544.618z"
			/>
	</g>
	<g>
		<path class="st5" d="M260.183,494.092v17.193h-0.838v-14.801l-4.249,11.673l-4.272-11.673v14.801h-0.839v-17.193h0.863
			l4.248,11.596l4.222-11.596H260.183z"/>
		<path class="st5" d="M266.694,511.412c-0.475,0-0.919-0.09-1.335-0.266c-0.416-0.18-0.776-0.421-1.08-0.726
			c-0.306-0.306-0.548-0.666-0.725-1.08c-0.178-0.418-0.267-0.86-0.267-1.336v-5.978c0-0.474,0.089-0.918,0.267-1.336
			c0.177-0.414,0.419-0.774,0.725-1.08c0.304-0.305,0.664-0.546,1.08-0.726c0.416-0.177,0.86-0.266,1.335-0.266
			c0.474,0,0.92,0.089,1.335,0.266c0.416,0.18,0.775,0.421,1.081,0.726c0.305,0.306,0.546,0.666,0.725,1.08
			c0.177,0.418,0.267,0.862,0.267,1.336v5.978c0,0.476-0.09,0.918-0.267,1.336c-0.179,0.414-0.42,0.774-0.725,1.08
			c-0.306,0.305-0.666,0.546-1.081,0.726C267.615,511.322,267.168,511.412,266.694,511.412z M266.694,499.459
			c-0.356,0-0.691,0.067-1.005,0.204c-0.313,0.134-0.585,0.317-0.813,0.546c-0.229,0.228-0.412,0.5-0.546,0.815
			c-0.137,0.312-0.204,0.646-0.204,1.002v5.978c0,0.356,0.067,0.69,0.204,1.005c0.135,0.312,0.317,0.584,0.546,0.812
			c0.229,0.229,0.5,0.412,0.813,0.547c0.313,0.139,0.649,0.203,1.005,0.203c0.355,0,0.69-0.064,1.004-0.203
			c0.315-0.135,0.585-0.318,0.815-0.547c0.228-0.229,0.411-0.5,0.547-0.812c0.135-0.314,0.203-0.648,0.203-1.005v-5.978
			c0-0.356-0.068-0.69-0.203-1.002c-0.136-0.315-0.319-0.588-0.547-0.815c-0.229-0.229-0.5-0.412-0.815-0.546
			C267.385,499.527,267.05,499.459,266.694,499.459z"/>
		<path class="st5" d="M276.816,504.622c0.373,0.188,0.75,0.387,1.133,0.599c0.381,0.21,0.724,0.453,1.029,0.725
			c0.306,0.271,0.555,0.57,0.75,0.9c0.195,0.333,0.293,0.719,0.293,1.159c0,0.476-0.09,0.918-0.267,1.336
			c-0.18,0.414-0.42,0.774-0.726,1.08c-0.306,0.305-0.666,0.546-1.08,0.726c-0.417,0.176-0.862,0.266-1.337,0.266
			c-0.474,0-0.918-0.09-1.335-0.266c-0.416-0.18-0.776-0.421-1.08-0.726c-0.306-0.306-0.548-0.666-0.726-1.08
			c-0.177-0.418-0.268-0.86-0.268-1.336h0.84c0,0.356,0.067,0.69,0.204,1.005c0.135,0.312,0.318,0.584,0.546,0.812
			c0.229,0.229,0.5,0.412,0.813,0.547c0.314,0.139,0.649,0.203,1.004,0.203c0.356,0,0.69-0.064,1.005-0.203
			c0.314-0.135,0.585-0.318,0.814-0.547c0.229-0.229,0.411-0.5,0.546-0.812c0.136-0.314,0.204-0.648,0.204-1.005
			c0-0.303-0.077-0.582-0.23-0.826c-0.151-0.247-0.355-0.472-0.61-0.675c-0.254-0.205-0.546-0.392-0.878-0.572
			c-0.33-0.179-0.673-0.358-1.03-0.546c-0.39-0.188-0.776-0.388-1.157-0.598c-0.381-0.211-0.725-0.45-1.029-0.713
			c-0.306-0.265-0.556-0.561-0.75-0.891c-0.196-0.331-0.293-0.714-0.293-1.157c0-0.474,0.09-0.918,0.268-1.336
			c0.178-0.414,0.42-0.774,0.726-1.08c0.304-0.305,0.664-0.546,1.08-0.726c0.417-0.177,0.861-0.266,1.335-0.266
			c0.475,0,0.92,0.089,1.337,0.266c0.415,0.18,0.774,0.421,1.08,0.726c0.305,0.306,0.546,0.666,0.726,1.08
			c0.177,0.418,0.267,0.862,0.267,1.336h-0.839c0-0.356-0.068-0.69-0.204-1.002c-0.135-0.315-0.318-0.588-0.546-0.815
			c-0.229-0.229-0.5-0.412-0.814-0.546c-0.314-0.137-0.648-0.204-1.005-0.204c-0.355,0-0.69,0.067-1.004,0.204
			c-0.313,0.134-0.584,0.317-0.813,0.546c-0.229,0.228-0.411,0.5-0.546,0.815c-0.137,0.312-0.204,0.646-0.204,1.002
			c0,0.307,0.076,0.581,0.229,0.826c0.152,0.247,0.359,0.471,0.623,0.676c0.262,0.202,0.559,0.394,0.891,0.569
			C276.117,504.278,276.46,504.452,276.816,504.622z"/>
		<path class="st5" d="M286.608,504.622c0.373,0.188,0.75,0.387,1.132,0.599c0.381,0.21,0.725,0.453,1.03,0.725
			c0.306,0.271,0.556,0.57,0.751,0.9c0.195,0.333,0.292,0.719,0.292,1.159c0,0.476-0.089,0.918-0.267,1.336
			c-0.179,0.414-0.42,0.774-0.725,1.08c-0.306,0.305-0.666,0.546-1.081,0.726c-0.416,0.176-0.861,0.266-1.336,0.266
			c-0.474,0-0.919-0.09-1.335-0.266c-0.416-0.18-0.776-0.421-1.081-0.726c-0.305-0.306-0.547-0.666-0.725-1.08
			c-0.178-0.418-0.268-0.86-0.268-1.336h0.84c0,0.356,0.067,0.69,0.204,1.005c0.136,0.312,0.318,0.584,0.546,0.812
			c0.229,0.229,0.5,0.412,0.813,0.547c0.314,0.139,0.649,0.203,1.004,0.203c0.356,0,0.69-0.064,1.005-0.203
			c0.313-0.135,0.584-0.318,0.814-0.547s0.411-0.5,0.546-0.812c0.136-0.314,0.204-0.648,0.204-1.005
			c0-0.303-0.077-0.582-0.229-0.826c-0.151-0.247-0.355-0.472-0.61-0.675c-0.255-0.205-0.547-0.392-0.878-0.572
			c-0.331-0.179-0.673-0.358-1.03-0.546c-0.39-0.188-0.776-0.388-1.158-0.598c-0.381-0.211-0.725-0.45-1.029-0.713
			c-0.306-0.265-0.556-0.561-0.75-0.891c-0.196-0.331-0.293-0.714-0.293-1.157c0-0.474,0.089-0.918,0.268-1.336
			c0.178-0.414,0.419-0.774,0.725-1.08c0.305-0.305,0.665-0.546,1.081-0.726c0.416-0.177,0.861-0.266,1.335-0.266
			c0.475,0,0.92,0.089,1.336,0.266c0.416,0.18,0.775,0.421,1.081,0.726c0.305,0.306,0.546,0.666,0.725,1.08
			c0.178,0.418,0.267,0.862,0.267,1.336h-0.839c0-0.356-0.068-0.69-0.204-1.002c-0.135-0.315-0.317-0.588-0.546-0.815
			c-0.229-0.229-0.5-0.412-0.814-0.546c-0.315-0.137-0.649-0.204-1.005-0.204c-0.355,0-0.69,0.067-1.004,0.204
			c-0.313,0.134-0.584,0.317-0.813,0.546c-0.229,0.228-0.411,0.5-0.546,0.815c-0.137,0.312-0.204,0.646-0.204,1.002
			c0,0.307,0.076,0.581,0.228,0.826c0.153,0.247,0.361,0.471,0.624,0.676c0.262,0.202,0.559,0.394,0.891,0.569
			C285.909,504.278,286.251,504.452,286.608,504.622z"/>
		<path class="st5" d="M304.691,501.595h0.839v0.84v2.568v2.722v0.279c-0.034,0.476-0.153,0.918-0.355,1.336
			c-0.205,0.414-0.472,0.774-0.802,1.08c-0.33,0.305-0.712,0.546-1.145,0.726c-0.433,0.176-0.886,0.266-1.36,0.266
			c-0.509,0-0.989-0.099-1.438-0.293c-0.449-0.194-0.839-0.458-1.17-0.788c-0.331-0.33-0.594-0.721-0.787-1.169
			c-0.197-0.447-0.293-0.93-0.293-1.437v-10.046c0-0.51,0.097-0.988,0.293-1.438c0.193-0.447,0.457-0.841,0.787-1.172
			c0.332-0.329,0.721-0.592,1.17-0.785c0.449-0.194,0.929-0.295,1.438-0.295c0.507,0,0.981,0.094,1.423,0.283
			s0.827,0.45,1.157,0.777c0.332,0.328,0.594,0.715,0.79,1.165c0.195,0.45,0.292,0.929,0.292,1.436h-0.839
			c0-0.388-0.078-0.752-0.229-1.094c-0.152-0.337-0.356-0.634-0.611-0.888c-0.253-0.254-0.551-0.456-0.89-0.61
			c-0.339-0.155-0.702-0.229-1.093-0.229c-0.392,0-0.76,0.076-1.106,0.229c-0.348,0.154-0.65,0.356-0.902,0.61
			c-0.255,0.255-0.459,0.554-0.612,0.895c-0.152,0.337-0.228,0.702-0.228,1.092v10.065c0,0.39,0.076,0.759,0.228,1.107
			c0.153,0.348,0.356,0.649,0.612,0.903c0.252,0.254,0.554,0.459,0.902,0.61c0.346,0.155,0.715,0.229,1.106,0.229
			c0.391,0,0.753-0.074,1.093-0.229c0.339-0.151,0.636-0.354,0.89-0.61c0.255-0.254,0.459-0.555,0.611-0.901
			c0.151-0.348,0.229-0.716,0.229-1.105v-2.722v-2.568h-3.459v-0.84H304.691z"/>
		<path class="st5" d="M313.873,498.62v0.84h-0.992c-0.356,0-0.686,0.067-0.992,0.204c-0.305,0.134-0.577,0.317-0.814,0.546
			c-0.237,0.228-0.423,0.5-0.558,0.815c-0.136,0.312-0.204,0.646-0.204,1.002v2.977v6.282h-0.839v-6.282v-2.977v-2.44h-0.838v-0.84
			h0.838h0.839v0.84v0.203c0.644-0.747,1.475-1.135,2.493-1.17H313.873z"/>
		<path class="st5" d="M320.714,504.318c-0.151,0.05-0.407,0.148-0.763,0.291c-0.355,0.146-0.741,0.293-1.157,0.444
			c-0.416,0.153-0.818,0.308-1.208,0.459c-0.391,0.151-0.695,0.262-0.916,0.33v2.162c0,0.356,0.067,0.69,0.204,1.005
			c0.135,0.312,0.318,0.584,0.546,0.812c0.229,0.229,0.501,0.412,0.813,0.547c0.314,0.139,0.65,0.203,1.004,0.203
			c0.357,0,0.69-0.064,1.006-0.203c0.314-0.135,0.585-0.318,0.813-0.547c0.229-0.229,0.411-0.5,0.548-0.812
			c0.135-0.314,0.203-0.648,0.203-1.005h0.841c0,0.476-0.09,0.918-0.267,1.336c-0.181,0.414-0.42,0.774-0.727,1.08
			c-0.305,0.305-0.665,0.546-1.08,0.726c-0.416,0.176-0.863,0.266-1.337,0.266c-0.474,0-0.918-0.09-1.334-0.266
			c-0.416-0.18-0.776-0.421-1.081-0.726c-0.305-0.306-0.548-0.666-0.725-1.08c-0.177-0.418-0.267-0.86-0.267-1.336v-5.978
			c0-0.474,0.09-0.918,0.267-1.336c0.177-0.414,0.42-0.774,0.725-1.08c0.304-0.305,0.665-0.546,1.081-0.726
			c0.416-0.177,0.86-0.266,1.334-0.266c0.475,0,0.922,0.089,1.337,0.266c0.415,0.18,0.774,0.421,1.08,0.726
			c0.306,0.306,0.546,0.666,0.727,1.08c0.177,0.418,0.267,0.854,0.267,1.312v0.023C322.649,503.078,322.003,503.84,320.714,504.318z
			 M319.238,499.459c-0.354,0-0.69,0.067-1.004,0.204c-0.312,0.134-0.585,0.317-0.813,0.546c-0.228,0.228-0.411,0.5-0.546,0.815
			c-0.136,0.312-0.204,0.646-0.204,1.002v2.927c0.254-0.104,0.568-0.226,0.942-0.37c0.373-0.145,0.745-0.283,1.119-0.421
			c0.372-0.133,0.716-0.263,1.03-0.382c0.313-0.116,0.537-0.203,0.673-0.252c0.307-0.121,0.611-0.299,0.916-0.535
			c0.305-0.235,0.458-0.568,0.458-0.99c0-0.359-0.068-0.689-0.203-0.994c-0.137-0.303-0.318-0.572-0.548-0.8
			c-0.228-0.229-0.5-0.412-0.813-0.546C319.929,499.527,319.596,499.459,319.238,499.459z"/>
		<path class="st5" d="M330.634,504.318c-0.153,0.05-0.408,0.148-0.763,0.291c-0.357,0.146-0.743,0.293-1.158,0.444
			c-0.416,0.153-0.818,0.308-1.207,0.459c-0.391,0.151-0.697,0.262-0.916,0.33v2.162c0,0.356,0.066,0.69,0.203,1.005
			c0.136,0.312,0.318,0.584,0.546,0.812c0.23,0.229,0.501,0.412,0.814,0.547c0.315,0.139,0.65,0.203,1.005,0.203
			s0.69-0.064,1.004-0.203c0.314-0.135,0.586-0.318,0.815-0.547c0.228-0.229,0.411-0.5,0.546-0.812
			c0.135-0.314,0.204-0.648,0.204-1.005h0.839c0,0.476-0.091,0.918-0.268,1.336c-0.179,0.414-0.42,0.774-0.725,1.08
			c-0.307,0.305-0.667,0.546-1.081,0.726c-0.416,0.176-0.862,0.266-1.336,0.266s-0.92-0.09-1.336-0.266
			c-0.416-0.18-0.776-0.421-1.079-0.726c-0.306-0.306-0.548-0.666-0.727-1.08c-0.177-0.418-0.267-0.86-0.267-1.336v-5.978
			c0-0.474,0.09-0.918,0.267-1.336c0.179-0.414,0.421-0.774,0.727-1.08c0.303-0.305,0.664-0.546,1.079-0.726
			c0.416-0.177,0.862-0.266,1.336-0.266s0.92,0.089,1.336,0.266c0.415,0.18,0.774,0.421,1.081,0.726
			c0.304,0.306,0.546,0.666,0.725,1.08c0.177,0.418,0.268,0.854,0.268,1.312v0.023C332.567,503.078,331.922,503.84,330.634,504.318z
			 M329.158,499.459c-0.355,0-0.69,0.067-1.005,0.204c-0.312,0.134-0.584,0.317-0.814,0.546c-0.228,0.228-0.41,0.5-0.546,0.815
			c-0.137,0.312-0.203,0.646-0.203,1.002v2.927c0.253-0.104,0.567-0.226,0.941-0.37c0.373-0.145,0.745-0.283,1.118-0.421
			c0.372-0.133,0.716-0.263,1.03-0.382c0.315-0.116,0.537-0.203,0.675-0.252c0.305-0.121,0.609-0.299,0.914-0.535
			c0.307-0.235,0.459-0.568,0.459-0.99c0-0.359-0.069-0.689-0.204-0.994c-0.135-0.303-0.318-0.572-0.546-0.8
			c-0.229-0.229-0.501-0.412-0.815-0.546C329.849,499.527,329.514,499.459,329.158,499.459z"/>
		<path class="st5" d="M339.077,498.62c0.474,0,0.92,0.089,1.335,0.266c0.416,0.18,0.776,0.421,1.081,0.726
			c0.306,0.306,0.546,0.666,0.725,1.08c0.178,0.418,0.267,0.862,0.267,1.336v2.977v6.282h-0.839v-6.282v-2.977
			c0-0.356-0.069-0.69-0.204-1.002c-0.136-0.315-0.319-0.588-0.547-0.815c-0.229-0.229-0.5-0.412-0.815-0.546
			c-0.314-0.137-0.648-0.204-1.004-0.204c-0.356,0-0.69,0.067-1.004,0.204c-0.313,0.134-0.585,0.317-0.813,0.546
			c-0.228,0.228-0.411,0.5-0.546,0.815c-0.137,0.312-0.204,0.646-0.204,1.002v2.977v6.282h-0.839v-6.282v-2.977v-3.28h0.839v1.043
			c0.321-0.375,0.702-0.663,1.144-0.866C338.093,498.719,338.569,498.62,339.077,498.62z"/>
	</g>
	<g>
		<path class="st5" d="M66.897,637.614v0.836h-5.442h-0.84v-17.191h0.84v16.355H66.897z"/>
		<path class="st5" d="M72.594,625.787c0.474,0,0.906,0.088,1.297,0.265c0.391,0.179,0.724,0.42,1.005,0.726
			c0.279,0.306,0.5,0.665,0.661,1.081c0.162,0.416,0.242,0.861,0.242,1.335v2.976v3.001v3.28h-0.84v-1.04
			c-0.322,0.355-0.704,0.638-1.145,0.85c-0.44,0.213-0.915,0.318-1.424,0.318c-0.474,0-0.919-0.09-1.334-0.267
			c-0.417-0.179-0.777-0.42-1.081-0.726c-0.305-0.305-0.548-0.665-0.725-1.079c-0.177-0.418-0.267-0.86-0.267-1.337v-0.711
			c0-1.054,0.645-1.816,1.933-2.29c0.152-0.066,0.411-0.169,0.776-0.305c0.365-0.137,0.754-0.284,1.17-0.445
			s0.818-0.312,1.208-0.457c0.39-0.144,0.687-0.259,0.89-0.343v-1.426c0-0.713-0.216-1.318-0.648-1.817
			c-0.433-0.503-1.004-0.75-1.717-0.75c-0.357,0-0.687,0.067-0.993,0.203c-0.305,0.134-0.576,0.317-0.813,0.547
			c-0.237,0.229-0.424,0.499-0.559,0.815c-0.137,0.312-0.204,0.645-0.204,1.002h-0.839c0-0.474,0.089-0.919,0.267-1.335
			c0.178-0.416,0.419-0.775,0.725-1.081c0.305-0.306,0.665-0.547,1.081-0.726C71.674,625.875,72.119,625.787,72.594,625.787z
			 M74.959,632.168v-0.635c-0.254,0.103-0.569,0.22-0.941,0.356c-0.373,0.135-0.747,0.273-1.119,0.418
			c-0.374,0.144-0.713,0.277-1.017,0.395c-0.306,0.12-0.527,0.203-0.662,0.257c-0.322,0.115-0.636,0.296-0.941,0.531
			c-0.304,0.239-0.458,0.562-0.458,0.968v0.711c0,0.357,0.068,0.69,0.204,1.006c0.136,0.312,0.318,0.582,0.547,0.812
			c0.228,0.229,0.5,0.411,0.813,0.546c0.314,0.139,0.649,0.203,1.004,0.203c0.356,0,0.69-0.064,1.005-0.203
			c0.314-0.135,0.585-0.317,0.815-0.546c0.228-0.23,0.41-0.5,0.546-0.812c0.135-0.315,0.203-0.648,0.203-1.006V632.168z"/>
		<path class="st5" d="M80.122,632.168v3.001c0,0.357,0.059,0.69,0.178,1.006c0.119,0.312,0.279,0.582,0.482,0.812
			c0.204,0.229,0.441,0.411,0.713,0.546c0.271,0.139,0.559,0.203,0.864,0.203v0.841c-0.423,0-0.822-0.09-1.195-0.267
			c-0.373-0.179-0.7-0.42-0.98-0.726c-0.279-0.305-0.5-0.665-0.66-1.079c-0.162-0.418-0.242-0.86-0.242-1.337v-3.001v-5.417v-0.839
			v-3.56h0.84v3.56h2.747v0.839h-2.747V632.168z"/>
		<path class="st5" d="M89.963,631.483c-0.153,0.051-0.408,0.149-0.762,0.291c-0.357,0.146-0.743,0.294-1.158,0.444
			c-0.417,0.154-0.818,0.309-1.208,0.46c-0.39,0.151-0.696,0.26-0.916,0.33v2.161c0,0.357,0.067,0.69,0.204,1.006
			c0.135,0.312,0.318,0.582,0.547,0.812c0.229,0.229,0.5,0.411,0.812,0.546c0.314,0.139,0.65,0.203,1.005,0.203
			c0.356,0,0.69-0.064,1.005-0.203c0.313-0.135,0.584-0.317,0.814-0.546c0.229-0.23,0.411-0.5,0.546-0.812
			c0.136-0.315,0.204-0.648,0.204-1.006h0.839c0,0.477-0.089,0.919-0.267,1.337c-0.18,0.414-0.42,0.774-0.726,1.079
			c-0.306,0.306-0.666,0.547-1.081,0.726c-0.416,0.177-0.862,0.267-1.336,0.267s-0.918-0.09-1.335-0.267
			c-0.416-0.179-0.776-0.42-1.08-0.726c-0.306-0.305-0.548-0.665-0.726-1.079c-0.178-0.418-0.268-0.86-0.268-1.337v-5.977
			c0-0.474,0.09-0.919,0.268-1.335c0.177-0.416,0.42-0.775,0.726-1.081c0.304-0.306,0.664-0.547,1.08-0.726
			c0.417-0.177,0.861-0.265,1.335-0.265s0.92,0.088,1.336,0.265c0.415,0.179,0.775,0.42,1.081,0.726
			c0.305,0.306,0.546,0.665,0.726,1.081c0.177,0.416,0.267,0.854,0.267,1.312v0.023C91.897,630.244,91.253,631.006,89.963,631.483z
			 M88.488,626.625c-0.355,0-0.69,0.067-1.005,0.203c-0.312,0.134-0.584,0.317-0.812,0.547c-0.229,0.229-0.412,0.499-0.547,0.815
			c-0.137,0.312-0.204,0.645-0.204,1.002v2.926c0.255-0.104,0.567-0.225,0.941-0.369c0.373-0.145,0.745-0.283,1.119-0.421
			c0.373-0.133,0.715-0.263,1.03-0.382c0.314-0.117,0.538-0.203,0.674-0.252c0.306-0.121,0.61-0.299,0.915-0.535
			c0.306-0.237,0.458-0.568,0.458-0.99c0-0.359-0.068-0.689-0.204-0.994c-0.135-0.303-0.318-0.571-0.546-0.8
			c-0.229-0.229-0.5-0.413-0.814-0.547C89.178,626.693,88.844,626.625,88.488,626.625z"/>
		<path class="st5" d="M105.63,627.873c0.713,0.252,1.298,0.69,1.755,1.309c0.458,0.618,0.687,1.325,0.687,2.124v3.509
			c0,0.51-0.097,0.983-0.292,1.423c-0.195,0.443-0.459,0.827-0.79,1.157c-0.33,0.333-0.716,0.592-1.157,0.775
			c-0.441,0.188-0.916,0.28-1.424,0.28h-3.306h-0.408h-0.432v-17.191h0.432h0.408h2.466c0.509,0,0.984,0.091,1.424,0.28
			c0.441,0.186,0.827,0.443,1.157,0.774c0.331,0.33,0.594,0.716,0.789,1.157c0.195,0.442,0.293,0.914,0.293,1.426
			c0,0.626-0.146,1.197-0.434,1.714C106.512,627.129,106.123,627.55,105.63,627.873z M101.104,622.097v5.571h2.568
			c0.372-0.019,0.725-0.099,1.055-0.243c0.331-0.145,0.619-0.343,0.866-0.597c0.244-0.255,0.439-0.546,0.584-0.88
			c0.143-0.329,0.216-0.679,0.216-1.053c0-0.392-0.076-0.756-0.229-1.094c-0.154-0.341-0.355-0.637-0.61-0.893
			c-0.255-0.253-0.551-0.453-0.891-0.597c-0.339-0.145-0.704-0.216-1.094-0.216H101.104z M107.234,631.305
			c0-0.374-0.073-0.731-0.217-1.069c-0.145-0.34-0.339-0.636-0.585-0.889c-0.246-0.256-0.538-0.454-0.876-0.602
			c-0.339-0.141-0.705-0.223-1.094-0.238h-0.789h-0.102h-2.466v9.106h3.306c0.389,0,0.755-0.075,1.094-0.22
			c0.339-0.144,0.636-0.342,0.89-0.596c0.253-0.257,0.457-0.55,0.61-0.892c0.152-0.338,0.229-0.702,0.229-1.093V631.305z"/>
		<path class="st5" d="M111.176,638.45v-18.235h0.839v18.235H111.176z"/>
		<path class="st5" d="M122.188,625.913v6.256v3.001v3.28h-0.839v-1.04c-0.323,0.355-0.704,0.638-1.146,0.85
			c-0.44,0.213-0.915,0.318-1.424,0.318c-0.474,0-0.918-0.09-1.335-0.267c-0.416-0.179-0.776-0.42-1.08-0.726
			c-0.306-0.305-0.548-0.665-0.726-1.079c-0.177-0.418-0.267-0.86-0.267-1.337v-3.001v-6.256h0.839v6.256v3.001
			c0,0.357,0.067,0.69,0.204,1.006c0.136,0.312,0.318,0.582,0.546,0.812c0.229,0.229,0.5,0.411,0.813,0.546
			c0.314,0.139,0.65,0.203,1.005,0.203c0.356,0,0.69-0.064,1.005-0.203c0.313-0.135,0.585-0.317,0.814-0.546
			c0.229-0.23,0.411-0.5,0.546-0.812c0.136-0.315,0.204-0.648,0.204-1.006v-3.001v-6.256H122.188z"/>
		<path class="st5" d="M130.047,631.483c-0.153,0.051-0.408,0.149-0.763,0.291c-0.356,0.146-0.743,0.294-1.158,0.444
			c-0.416,0.154-0.818,0.309-1.208,0.46s-0.695,0.26-0.915,0.33v2.161c0,0.357,0.067,0.69,0.204,1.006
			c0.135,0.312,0.318,0.582,0.546,0.812c0.229,0.229,0.501,0.411,0.814,0.546c0.314,0.139,0.649,0.203,1.004,0.203
			c0.356,0,0.69-0.064,1.005-0.203c0.314-0.135,0.585-0.317,0.814-0.546c0.229-0.23,0.411-0.5,0.546-0.812
			c0.136-0.315,0.204-0.648,0.204-1.006h0.839c0,0.477-0.09,0.919-0.268,1.337c-0.179,0.414-0.419,0.774-0.725,1.079
			c-0.306,0.306-0.666,0.547-1.081,0.726c-0.416,0.177-0.861,0.267-1.336,0.267c-0.474,0-0.919-0.09-1.335-0.267
			c-0.416-0.179-0.776-0.42-1.081-0.726c-0.305-0.305-0.547-0.665-0.725-1.079c-0.178-0.418-0.268-0.86-0.268-1.337v-5.977
			c0-0.474,0.089-0.919,0.268-1.335c0.177-0.416,0.419-0.775,0.725-1.081c0.305-0.306,0.665-0.547,1.081-0.726
			c0.416-0.177,0.861-0.265,1.335-0.265c0.475,0,0.92,0.088,1.336,0.265c0.415,0.179,0.775,0.42,1.081,0.726
			c0.305,0.306,0.546,0.665,0.725,1.081c0.178,0.416,0.268,0.854,0.268,1.312v0.023C131.98,630.244,131.335,631.006,130.047,631.483
			z M128.571,626.625c-0.355,0-0.69,0.067-1.004,0.203c-0.313,0.134-0.585,0.317-0.814,0.547c-0.228,0.229-0.411,0.499-0.546,0.815
			c-0.137,0.312-0.204,0.645-0.204,1.002v2.926c0.254-0.104,0.567-0.225,0.941-0.369c0.373-0.145,0.745-0.283,1.119-0.421
			c0.373-0.133,0.715-0.263,1.03-0.382c0.314-0.117,0.537-0.203,0.674-0.252c0.306-0.121,0.61-0.299,0.916-0.535
			c0.306-0.237,0.458-0.568,0.458-0.99c0-0.359-0.068-0.689-0.204-0.994c-0.135-0.303-0.318-0.571-0.546-0.8
			c-0.229-0.229-0.5-0.413-0.814-0.547C129.262,626.693,128.928,626.625,128.571,626.625z"/>
	</g>
</g>
</svg>
