<?xml version="1.0" encoding="iso-8859-1"?>
<!-- Generator: Adobe Illustrator 16.0.0, SVG Export Plug-In . SVG Version: 6.00 Build 0)  -->
<!DOCTYPE svg PUBLIC "-//W3C//DTD SVG 1.0//EN" "http://www.w3.org/TR/2001/REC-SVG-20010904/DTD/svg10.dtd">
<svg version="1.0" id="Layer_1" xmlns="http://www.w3.org/2000/svg" xmlns:xlink="http://www.w3.org/1999/xlink" x="0px" y="0px"
	 width="1000px" height="700px" viewBox="0 0 1000 700" style="enable-background:new 0 0 1000 700;" xml:space="preserve">
<style type="text/css">
<![CDATA[
	.st0{fill:#EFEFEF;}
	.st1{fill:#F9F9FA;}
]]>
</style>
<rect class="st1" width="1000" height="700"/>
<g>
	<path d="M125.334,147.516v9.772c0,9.18-7.502,16.78-16.781,16.78H86.937c-3.06,0-5.528-1.777-5.725-3.948v33.462
		c0,0.691-0.592,1.283-1.283,1.283h-7.996V136.46c0-3.159,2.566-5.725,5.725-5.725h30.896
		C117.833,130.735,125.334,138.336,125.334,147.516z M116.056,146.726c0-4.146-3.356-7.502-7.502-7.502H83.087
		c-1.086,0-1.875,0.888-1.875,1.875v22.604c0,0.987,0.888,1.875,1.875,1.875c0,0,0,0,0.099,0h25.368
		c4.146,0,7.502-3.356,7.502-7.502V146.726z"/>
	<path d="M160.965,155.511v7.107c0,0.592-0.494,1.086-1.086,1.086H147.54c-2.665,0-4.541,2.073-4.738,4.442v36.72H135.3
		c-0.592,0-1.086-0.494-1.086-1.086v-48.269h7.502c0.592,0,1.086,0.395,1.086,0.987v2.172c1.185-1.678,3.652-3.159,6.712-3.159
		H160.965z"/>
	<path d="M178.829,134.486v8.094h-7.501c-0.592,0-1.086-0.493-1.086-1.085V133.4h7.502
		C178.335,133.4,178.829,133.894,178.829,134.486z M178.829,156.498v48.368h-7.501c-0.592,0-1.086-0.494-1.086-1.086v-48.269h7.502
		C178.335,155.511,178.829,155.906,178.829,156.498z"/>
	<path d="M251.082,169.923v34.943h-7.502c-0.592,0-1.086-0.494-1.086-1.086v-34.351c0-3.159-2.566-5.824-5.824-5.824h-12.832
		c0.987,0.592,1.777,1.579,1.777,2.764v38.497h-7.502c-0.592,0-1.086-0.494-1.086-1.086v-39.089c0-0.592-0.494-1.085-1.086-1.085
		h-14.905c-0.494,0-0.889,0.395-0.987,0.888v39.286c0,0.592-0.493,1.086-1.085,1.086h-7.502v-42.938
		c0-3.554,2.862-6.416,6.416-6.416h38.792C244.666,155.511,251.082,161.927,251.082,169.923z"/>
	<path d="M262.823,190.454v-20.926c0-9.18,6.417-14.017,14.412-14.017h13.227c7.996,0,14.412,4.837,14.412,14.017v11.352
		c0,1.678-0.197,3.06-2.566,3.06H275.26c-1.579,0-2.961-0.691-3.85-1.875v8.785c0,3.257,2.566,5.824,5.824,5.824h24.48
		c0.592,0,1.086,0.494,1.086,1.086v7.107h-25.566C269.239,204.866,262.823,198.45,262.823,190.454z M277.234,163.605
		c-3.257,0-5.824,1.875-5.824,5.824v5.33c0,0.592,0.395,0.987,0.987,1.086h22.999c0.592,0,1.086-0.494,1.086-1.086v-5.33
		c0-3.948-1.875-5.824-5.725-5.824H277.234z"/>
</g>
<g>
	<path d="M83.608,238.038c0,0.906-0.777,2.567-2.007,2.891c1.144,0.172,2.007,1.877,2.007,2.762v2.028
		c0,1.877-1.51,3.387-3.388,3.387h-7.443c-0.367,0-0.669-0.302-0.669-0.669v-14.866c0-0.367,0.302-0.669,0.669-0.669h7.443
		c1.877,0,3.388,1.532,3.388,3.388V238.038z M82.486,236.118c0-1.251-1.014-2.266-2.266-2.266h-6.731
		c-0.151,0-0.259,0.108-0.259,0.237v6.3h6.99c1.251,0,2.266-1.014,2.266-2.265V236.118z M80.221,241.339h-6.99v6.581
		c0,0.129,0.107,0.237,0.259,0.237h6.731c1.251,0,2.266-1.014,2.266-2.266v-2.287C82.486,242.353,81.472,241.339,80.221,241.339z"/>
	<path d="M93.963,241.016v7.854c0,0.129-0.108,0.237-0.237,0.237H88.31c-1.489,0-2.675-1.208-2.675-2.697v-1.122
		c0-1.51,1.187-2.719,2.675-2.719h4.445c0.129,0,0.215-0.086,0.237-0.237v-1.402c0-0.949-0.755-1.726-1.705-1.726h-4.509
		c-0.108,0-0.216-0.108-0.216-0.237v-0.669h4.725C92.776,238.297,93.963,239.527,93.963,241.016z M92.992,248.157v-4.769
		c-0.043,0.043-0.108,0.086-0.173,0.086H88.31c-0.949,0-1.705,0.777-1.705,1.726v1.251c0,0.949,0.755,1.705,1.705,1.705H92.992z"/>
	<path d="M103.562,245.05l-6.731-2.417c-0.324-0.108-0.583-0.475-0.583-0.82v-1.079c0-1.489,1.187-2.417,2.675-2.417h4.962v0.647
		c0,0.129-0.108,0.237-0.237,0.237h-4.725c-0.949,0-1.705,0.604-1.705,1.553v0.798c0,0.129,0.108,0.259,0.216,0.302l6.688,2.417
		c0.324,0.108,0.583,0.475,0.583,0.82v1.64c0,1.511-1.208,2.374-2.675,2.374h-5.804v-0.669c0-0.129,0.108-0.237,0.237-0.237h5.566
		c0.928,0,1.748-0.518,1.748-1.445v-1.403C103.778,245.223,103.67,245.072,103.562,245.05z"/>
	<path d="M107.294,233.529h0.755c0.13,0,0.216,0.108,0.216,0.216v1.014h-0.755c-0.129,0-0.216-0.086-0.216-0.216V233.529z
		 M107.294,238.318h0.733c0.129,0,0.237,0.086,0.237,0.216v10.572h-0.733c-0.129,0-0.237-0.108-0.237-0.237V238.318z"/>
	<path d="M111.091,241.037c0-1.489,1.187-2.697,2.675-2.697h4.423v0.647c0,0.129-0.086,0.237-0.215,0.237h-4.208
		c-0.949,0-1.705,0.777-1.705,1.726v5.545c0,0.95,0.755,1.705,1.705,1.705h4.208c0.129,0,0.215,0.108,0.215,0.237v0.669h-4.423
		c-1.489,0-2.675-1.208-2.675-2.697V241.037z"/>
	<path d="M136.095,241.016v7.854c0,0.129-0.108,0.237-0.237,0.237h-5.416c-1.489,0-2.675-1.208-2.675-2.697v-1.122
		c0-1.51,1.187-2.719,2.675-2.719h4.445c0.129,0,0.215-0.086,0.237-0.237v-1.402c0-0.949-0.755-1.726-1.705-1.726h-4.509
		c-0.108,0-0.216-0.108-0.216-0.237v-0.669h4.725C134.908,238.297,136.095,239.527,136.095,241.016z M135.124,248.157v-4.769
		c-0.043,0.043-0.108,0.086-0.173,0.086h-4.509c-0.949,0-1.705,0.777-1.705,1.726v1.251c0,0.949,0.755,1.705,1.705,1.705H135.124z"
		/>
	<path d="M146.299,240.929c0-0.949-0.777-1.726-1.705-1.726h-4.725c-0.129,0-0.237,0.108-0.237,0.237v9.429
		c0,0.129-0.108,0.237-0.237,0.237h-0.734v-9.838c0-0.518,0.432-0.971,0.949-0.971h4.984c1.467,0,2.675,1.23,2.675,2.719v8.091
		h-0.755c-0.107,0-0.215-0.108-0.215-0.237V240.929z"/>
	<path d="M158.208,232.924v15.945c0,0.129-0.108,0.237-0.237,0.237h-5.545c-1.489,0-2.675-1.208-2.675-2.697v-5.394
		c0-1.489,1.187-2.697,2.675-2.697h4.208c0.302,0,0.583,0.173,0.604,0.41v-5.567c0-0.129,0.108-0.237,0.237-0.237H158.208z
		 M157.237,248.2v-8.609c-0.021-0.216-0.173-0.367-0.367-0.388h-4.445c-0.949,0-1.705,0.777-1.705,1.726v5.566
		c0,0.95,0.755,1.705,1.705,1.705H157.237z"/>
	<path d="M176.005,240.929c0-0.949-0.777-1.726-1.705-1.726h-4.725c-0.129,0-0.237,0.108-0.237,0.237v9.429
		c0,0.129-0.108,0.237-0.237,0.237h-0.734v-9.838c0-0.518,0.432-0.971,0.949-0.971h4.984c1.467,0,2.675,1.23,2.675,2.719v8.091
		h-0.755c-0.107,0-0.215-0.108-0.215-0.237V240.929z"/>
	<path d="M179.628,246.496v-5.588c0-1.618,1.144-2.589,2.611-2.589h3.409c1.467,0,2.61,0.971,2.61,2.589v2.934
		c0,0.151-0.108,0.259-0.237,0.259h-6.926c-0.194,0-0.367-0.108-0.475-0.259h-0.021v2.632c0,0.949,0.755,1.705,1.705,1.705h5.545
		c0.129,0,0.237,0.108,0.237,0.237v0.69h-5.782C180.815,249.106,179.628,248.136,179.628,246.496z M182.239,239.203
		c-0.928,0-1.64,0.777-1.64,1.726v2.028c0,0.129,0.086,0.215,0.237,0.237h6.451v-2.266c0-0.949-0.712-1.726-1.64-1.726H182.239z"/>
	<path d="M190.911,238.297h0.734c0.129,0,0.237,0.108,0.237,0.237v7.961c0,0.95,0.755,1.705,1.705,1.705h3.258
		c0.928,0,1.683-0.755,1.683-1.705v-7.961c0-0.129,0.108-0.237,0.237-0.237h0.733v8.113c0,1.488-1.187,2.697-2.654,2.697h-3.258
		c-1.489,0-2.676-1.208-2.676-2.697V238.297z"/>
	<path d="M206.94,248.438v0.669h-2.136c-1.489,0-2.676-1.208-2.676-2.719v-13.506h0.734c0.129,0,0.237,0.108,0.237,0.237v5.631
		c0.021-0.237,0.302-0.41,0.604-0.41h2.632v0.647c0,0.129-0.108,0.237-0.237,0.237H203.1v7.271c0,0.928,0.755,1.705,1.705,1.705
		h1.92C206.833,248.2,206.94,248.308,206.94,248.438z"/>
	<path d="M209.853,238.318v0.712c0,0,0.431-0.712,1.898-0.712h2.46v0.669c0,0.129-0.108,0.216-0.237,0.216h-2.654
		c-1.51,0-1.467,1.553-1.467,1.553v8.35h-0.971v-10.788H209.853z"/>
	<path d="M224.091,241.016v7.854c0,0.129-0.108,0.237-0.237,0.237h-5.416c-1.489,0-2.675-1.208-2.675-2.697v-1.122
		c0-1.51,1.187-2.719,2.675-2.719h4.445c0.129,0,0.215-0.086,0.237-0.237v-1.402c0-0.949-0.755-1.726-1.705-1.726h-4.509
		c-0.108,0-0.216-0.108-0.216-0.237v-0.669h4.725C222.905,238.297,224.091,239.527,224.091,241.016z M223.121,248.157v-4.769
		c-0.043,0.043-0.108,0.086-0.173,0.086h-4.509c-0.949,0-1.705,0.777-1.705,1.726v1.251c0,0.949,0.755,1.705,1.705,1.705H223.121z"
		/>
	<path d="M226.658,233.809h0.734c0.129,0,0.237,0.108,0.237,0.237v15.039h-0.734c-0.129,0-0.237-0.086-0.237-0.216V233.809z"/>
	<path d="M238.803,238.707c0,0.129,0.108,0.28,0.216,0.302l9.709,3.215c0.323,0.108,0.604,0.475,0.604,0.82v2.676
		c0,1.877-1.532,3.387-3.388,3.387h-8.458v-0.69c0-0.129,0.108-0.237,0.237-0.237h8.22c1.251,0,2.266-1.014,2.266-2.266v-2.61
		c0-0.13-0.108-0.259-0.237-0.302l-9.709-3.215c-0.324-0.108-0.583-0.475-0.583-0.82v-2.654c0-1.877,1.51-3.388,3.387-3.388h7.789
		v0.69c0,0.13-0.108,0.237-0.237,0.237h-7.552c-1.251,0-2.266,1.014-2.266,2.266V238.707z"/>
	<path d="M259.558,241.016v7.854c0,0.129-0.108,0.237-0.237,0.237h-5.416c-1.489,0-2.675-1.208-2.675-2.697v-1.122
		c0-1.51,1.187-2.719,2.675-2.719h4.445c0.129,0,0.215-0.086,0.237-0.237v-1.402c0-0.949-0.755-1.726-1.705-1.726h-4.509
		c-0.108,0-0.216-0.108-0.216-0.237v-0.669h4.725C258.371,238.297,259.558,239.527,259.558,241.016z M258.587,248.157v-4.769
		c-0.043,0.043-0.108,0.086-0.173,0.086h-4.509c-0.949,0-1.705,0.777-1.705,1.726v1.251c0,0.949,0.755,1.705,1.705,1.705H258.587z"
		/>
	<path d="M269.762,240.929c0-0.949-0.777-1.726-1.705-1.726h-4.725c-0.129,0-0.237,0.108-0.237,0.237v9.429
		c0,0.129-0.108,0.237-0.237,0.237h-0.734v-9.838c0-0.518,0.432-0.971,0.95-0.971h4.984c1.467,0,2.675,1.23,2.675,2.719v8.091
		h-0.755c-0.108,0-0.216-0.108-0.216-0.237V240.929z"/>
	<path d="M280.418,245.05l-6.731-2.417c-0.324-0.108-0.583-0.475-0.583-0.82v-1.079c0-1.489,1.187-2.417,2.675-2.417h4.962v0.647
		c0,0.129-0.108,0.237-0.237,0.237h-4.725c-0.949,0-1.705,0.604-1.705,1.553v0.798c0,0.129,0.108,0.259,0.216,0.302l6.688,2.417
		c0.324,0.108,0.583,0.475,0.583,0.82v1.64c0,1.511-1.208,2.374-2.675,2.374h-5.804v-0.669c0-0.129,0.108-0.237,0.237-0.237h5.566
		c0.928,0,1.748-0.518,1.748-1.445v-1.403C280.634,245.223,280.526,245.072,280.418,245.05z"/>
	<path d="M298.777,245.05l-6.731-2.417c-0.324-0.108-0.583-0.475-0.583-0.82v-1.079c0-1.489,1.187-2.417,2.675-2.417h4.962v0.647
		c0,0.129-0.108,0.237-0.237,0.237h-4.725c-0.949,0-1.705,0.604-1.705,1.553v0.798c0,0.129,0.108,0.259,0.216,0.302l6.688,2.417
		c0.324,0.108,0.583,0.475,0.583,0.82v1.64c0,1.511-1.208,2.374-2.675,2.374h-5.804v-0.669c0-0.129,0.108-0.237,0.237-0.237h5.566
		c0.928,0,1.748-0.518,1.748-1.445v-1.403C298.993,245.223,298.885,245.072,298.777,245.05z"/>
	<path d="M302.551,246.496v-5.588c0-1.618,1.144-2.589,2.611-2.589h3.409c1.467,0,2.61,0.971,2.61,2.589v2.934
		c0,0.151-0.108,0.259-0.237,0.259h-6.926c-0.194,0-0.367-0.108-0.475-0.259h-0.021v2.632c0,0.949,0.755,1.705,1.704,1.705h5.545
		c0.129,0,0.237,0.108,0.237,0.237v0.69h-5.783C303.738,249.106,302.551,248.136,302.551,246.496z M305.162,239.203
		c-0.928,0-1.64,0.777-1.64,1.726v2.028c0,0.129,0.086,0.215,0.237,0.237h6.451v-2.266c0-0.949-0.712-1.726-1.64-1.726H305.162z"/>
	<path d="M314.784,238.318v0.712c0,0,0.431-0.712,1.898-0.712h2.46v0.669c0,0.129-0.108,0.216-0.238,0.216h-2.654
		c-1.51,0-1.467,1.553-1.467,1.553v8.35h-0.971v-10.788H314.784z"/>
	<path d="M321.062,233.529h0.755c0.13,0,0.216,0.108,0.216,0.216v1.014h-0.755c-0.129,0-0.216-0.086-0.216-0.216V233.529z
		 M321.062,238.318h0.733c0.129,0,0.237,0.086,0.237,0.216v10.572h-0.733c-0.129,0-0.237-0.108-0.237-0.237V238.318z"/>
	<path d="M329.842,232.881v0.669c0,0.129-0.108,0.216-0.216,0.216h-1.92c-0.949,0-1.704,0.776-1.704,1.726v3.258
		c0.021-0.237,0.28-0.41,0.604-0.41h2.503v0.647c0,0.129-0.108,0.237-0.237,0.237h-2.87v9.645c0,0.129-0.108,0.237-0.216,0.237
		h-0.755v-13.528c0-1.489,1.187-2.697,2.675-2.697H329.842z"/>
</g>
<g>
	<g>
		<path d="M427.677,240.551h-3.642c-0.4,0-0.711-0.267-0.8-0.578l-2.976-8.573h-16.968l-2.976,8.573
			c-0.088,0.311-0.444,0.578-0.799,0.578h-3.642l10.838-30.871c0.533-1.466,1.91-2.488,3.509-2.488h5.286
			c0.222,0,0.444,0.133,0.533,0.311L427.677,240.551z M418.926,227.581l-5.774-16.568h-2.176c-0.355,0-0.667,0.222-0.799,0.577
			l-5.553,15.991H418.926z"/>
		<path d="M431.278,237.975V209.68c0-1.377,1.11-2.488,2.487-2.488h0.711h13.503c4.175,0,7.551,3.376,7.551,7.551v3.376
			c0,2.132-1.688,4.975-4.086,5.463c2.398,0.622,4.086,3.332,4.086,5.463v3.909c0,4.175-3.376,7.596-7.551,7.596h-14.125
			C432.433,240.551,431.278,239.396,431.278,237.975z M435.453,221.673h12.526c1.866,0,3.376-1.51,3.376-3.375v-3.909
			c0-1.865-1.51-3.375-3.376-3.375h-11.682c-0.488,0-0.844,0.355-0.844,0.844V221.673z M451.355,228.869
			c0-1.865-1.51-3.375-3.376-3.375h-12.526v10.394c0,0.444,0.355,0.844,0.844,0.844h11.682c1.866,0,3.376-1.555,3.376-3.42V228.869z
			"/>
		<path d="M460.552,214.744c0-4.175,3.376-7.551,7.551-7.551h14.658v3.243c0,0.311-0.266,0.578-0.577,0.578h-14.081
			c-1.866,0-3.376,1.51-3.376,3.375v18.967c0,1.866,1.51,3.376,3.376,3.376h14.081c0.311,0,0.577,0.266,0.577,0.577v3.243h-14.658
			c-4.175,0-7.551-3.42-7.551-7.551V214.744z"/>
		<path d="M487.694,237.975v-28.206c0-1.421,1.155-2.577,2.577-2.577h14.258c4.176,0,7.551,3.376,7.551,7.551V233
			c0,4.131-3.375,7.551-7.551,7.551h-14.258C488.849,240.551,487.694,239.396,487.694,237.975z M504.528,236.731
			c1.865,0,3.376-1.51,3.376-3.376v-18.967c0-1.865-1.511-3.375-3.376-3.375h-11.815c-0.488,0-0.844,0.355-0.844,0.844v24.03
			c0,0.444,0.355,0.844,0.844,0.844H504.528z"/>
		<path d="M521.544,214.388v8.439c0.443-0.533,1.243-0.888,2.176-0.888h14.614v3.243c0,0.311-0.267,0.577-0.578,0.577h-16.212v7.596
			c0,1.866,1.51,3.376,3.375,3.376h14.392c0.312,0,0.578,0.266,0.578,0.577v3.243h-14.97c-4.175,0-7.551-3.376-7.551-7.551v-18.256
			c0-4.175,3.376-7.551,7.551-7.551h14.97v3.243c0,0.311-0.267,0.578-0.578,0.578h-14.392
			C523.054,211.013,521.544,212.523,521.544,214.388z"/>
		<path d="M566.542,207.192v3.243c0,0.311-0.267,0.578-0.577,0.578h-14.392c-1.865,0-3.376,1.51-3.376,3.375v8.528
			c0.444-0.577,1.288-0.977,2.221-0.977h15.103v3.243c0,0.311-0.267,0.577-0.577,0.577h-16.746v14.214
			c0,0.311-0.267,0.578-0.577,0.578h-3.598v-25.807c0-4.175,3.375-7.551,7.551-7.551H566.542z"/>
		<path d="M570.32,233.177v-18.611c0-4.175,3.375-7.551,7.551-7.551h15.235v3.242c0,0.311-0.267,0.578-0.622,0.578h-14.613
			c-1.865,0-3.376,1.51-3.376,3.376v19.322c0,1.866,1.511,3.376,3.376,3.376h9.194c1.866,0,3.775-1.51,3.775-3.376v-8.04h-8.084
			c-0.311,0-0.577-0.267-0.577-0.578v-3.243h11.859c0.312,0,0.578,0.267,0.578,0.578v11.371c0,4.708-3.376,7.107-7.552,7.107h-9.194
			C573.695,240.729,570.32,237.353,570.32,233.177z"/>
		<path d="M624.157,207.192v33.358h-3.598c-0.312,0-0.578-0.267-0.578-0.578v-14.214h-15.945v14.214
			c0,0.311-0.267,0.578-0.578,0.578h-3.598v-33.358h3.598c0.312,0,0.578,0.267,0.578,0.578v14.169h15.945V207.77
			c0-0.311,0.267-0.578,0.578-0.578H624.157z"/>
		<path d="M630.467,239.973v-32.781h3.598c0.312,0,0.578,0.267,0.578,0.578v32.781h-3.598
			C630.733,240.551,630.467,240.284,630.467,239.973z"/>
		<path d="M639.086,239.973v-3.198h10.704c1.821,0,3.332-1.51,3.332-3.376v-22.387h-4.709c-0.311,0-0.577-0.267-0.577-0.578v-3.198
			h9.461v25.807c0,4.131-3.376,7.507-7.507,7.507h-10.127C639.353,240.551,639.086,240.284,639.086,239.973z"/>
		<path d="M424.301,284.974h-3.998c-0.311,0-0.71-0.267-0.844-0.533l-6.308-14.258h-10.127c-0.444,0-0.844,0.4-0.844,0.844v13.37
			c0,0.311-0.267,0.578-0.577,0.578h-3.598v-32.781c0-0.311,0.267-0.578,0.578-0.578h3.598v15.68
			c0.444-0.533,1.288-0.933,2.221-0.933h9.372c1.866,0,3.376-1.51,3.376-3.376v-10.793c0-0.311,0.266-0.578,0.622-0.578h3.598
			v11.016c0,2.887-1.644,5.419-4.042,6.663L424.301,284.974z"/>
		<path d="M427.679,277.289v-25.096c0-0.311,0.267-0.578,0.578-0.578h3.598v26.074c0,1.91,1.555,3.465,3.42,3.465h13.858
			c0.311,0,0.578,0.266,0.578,0.577v3.243h-14.436C431.1,284.974,427.679,281.509,427.679,277.289z"/>
		<path d="M458.153,252.371l11.06,20.255l11.104-20.255c0.222-0.4,0.755-0.711,1.199-0.711h3.109c0.311,0,0.578,0.222,0.578,0.578
			v32.692h-3.598c-0.311,0-0.577-0.267-0.577-0.578v-25.94l-9.284,17.634c-0.178,0.311-0.533,0.533-0.888,0.533h-3.243
			c-0.355,0-0.71-0.222-0.888-0.533l-9.284-17.634v25.94c0,0.311-0.267,0.578-0.577,0.578h-3.598v-32.692
			c0-0.355,0.267-0.578,0.578-0.578h3.109C457.397,251.66,457.931,251.971,458.153,252.371z"/>
		<path d="M513.146,278.933c-0.444-3.464-0.444-6.263-0.666-9.417v-17.323c0-0.311,0.267-0.578,0.577-0.578h3.598v33.358h-3.864
			c-0.311,0-0.71-0.267-0.844-0.533l-15.191-28.294c-0.222-0.399-0.755-0.71-1.199-0.71c-0.399,0-0.755,0-0.755,0v28.96
			c0,0.311-0.267,0.578-0.577,0.578h-3.598v-32.781c0-0.311,0.266-0.578,0.577-0.578h5.063c1.422,0,3.109,1.022,3.775,2.266
			l9.062,17.101L513.146,278.933z"/>
		<path d="M529.538,285.151c-4.176,0-7.551-3.376-7.551-7.551v-18.611c0-4.175,3.375-7.551,7.551-7.551h10.038
			c4.131,0,7.552,3.375,7.552,7.551V277.6c0,4.175-3.421,7.551-7.552,7.551H529.538z M526.162,258.634v19.322
			c0,1.866,1.511,3.376,3.376,3.376h10.038c1.866,0,3.376-1.51,3.376-3.376v-19.322c0-1.866-1.51-3.376-3.376-3.376h-10.038
			C527.673,255.258,526.162,256.768,526.162,258.634z"/>
		<path d="M576.491,259.167v4.397c0,4.131-3.376,7.551-7.551,7.551h-9.728c-1.377,0-2.487-0.8-2.576-1.777v15.058
			c0,0.311-0.267,0.578-0.578,0.578h-3.598v-30.782c0-1.421,1.155-2.577,2.576-2.577h13.903
			C573.115,251.615,576.491,255.036,576.491,259.167z M572.316,258.811c0-1.865-1.511-3.375-3.376-3.375h-11.46
			c-0.489,0-0.844,0.399-0.844,0.844v10.172c0,0.444,0.399,0.844,0.844,0.844c0,0,0,0,0.044,0h11.416
			c1.865,0,3.376-1.51,3.376-3.375V258.811z"/>
		<path d="M605.678,258.989V277.6c0,3.42-2.354,6.352-5.508,7.24l1.555,3.643h-3.109c-0.355,0-0.711-0.222-0.845-0.533l-1.199-2.798
			h-8.483c-4.176,0-7.551-3.376-7.551-7.551v-18.611c0-4.175,3.375-7.551,7.551-7.551h10.038
			C602.257,251.438,605.678,254.813,605.678,258.989z M601.502,258.634c0-1.866-1.51-3.376-3.376-3.376h-10.038
			c-1.865,0-3.376,1.51-3.376,3.376v19.322c0,1.866,1.511,3.376,3.376,3.376h6.796l-1.776-4.042h3.109
			c0.354,0,0.71,0.222,0.844,0.533l1.555,3.465c1.599-0.222,2.887-1.644,2.887-3.332V258.634z"/>
		<path d="M615.229,268.983v15.413c0,0.311-0.267,0.578-0.578,0.578h-3.598v-30.782c0-1.421,1.155-2.577,2.576-2.577h13.947
			c4.176,0,7.552,2.621,7.552,7.151v4.309c0,3.909-2.799,6.041-6.041,6.885l7.106,15.013h-3.864c-0.311,0-0.666-0.267-0.8-0.533
			l-6.751-14.258h-5.686h-1.288c-1.244,0-2.177-0.355-2.487-1.199H615.229z M627.577,266.362c1.866,0,3.376-1.51,3.376-3.376v-4.175
			c0-1.865-1.51-3.375-3.376-3.375h-11.504c-0.489,0-0.844,0.399-0.844,0.844v9.239c0,0.488,0.399,0.844,0.844,0.844H627.577z"/>
		<path d="M655.964,281.154c1.865,0,3.287-1.51,3.287-3.376v-4.042c0-0.444-0.355-0.933-0.8-1.066l-17.057-5.686
			c-1.333-0.444-2.443-1.955-2.443-3.376v-5.286c0-4.175,3.376-6.708,7.552-6.708h15.812v3.243c0,0.311-0.222,0.578-0.577,0.578
			h-15.235c-1.866,0-3.421,1.199-3.421,3.065v4.309c0,0.488,0.355,0.977,0.8,1.11l17.057,5.641c1.333,0.444,2.31,1.999,2.31,3.42
			v4.753c0,4.175-3.153,7.24-7.284,7.24h-17.013v-3.243c0-0.355,0.267-0.577,0.578-0.577H655.964z"/>
		<path d="M420.303,296.038v3.243c0,0.311-0.266,0.578-0.577,0.578h-9.505v28.96c0,0.311-0.222,0.578-0.578,0.578h-3.598v-29.538
			h-9.95v-3.243c0-0.311,0.267-0.578,0.578-0.578H420.303z"/>
		<path d="M423.77,322.023v-25.985h3.598c0.311,0,0.577,0.267,0.577,0.578v25.763c0,1.866,1.51,3.376,3.376,3.376h10.039
			c1.865,0,3.375-1.51,3.375-3.376v-25.763c0-0.311,0.267-0.578,0.578-0.578h3.598v25.985c0,4.175-3.42,7.551-7.551,7.551h-10.039
			C427.146,329.574,423.77,326.198,423.77,322.023z"/>
		<path d="M476.009,296.571c0.133-0.267,0.444-0.533,0.755-0.533h3.865l-11.549,32.781c-0.089,0.311-0.444,0.578-0.755,0.578h-3.509
			c-0.311,0-0.667-0.267-0.755-0.578l-11.549-32.781h3.865c0.311,0,0.666,0.267,0.755,0.533l9.461,27.184L476.009,296.571z"/>
		<path d="M520.43,296.038v30.782c0,1.421-1.154,2.576-2.576,2.576h-26.429c-4.264,0-7.596-3.243-7.596-7.374v-25.985h3.598
			c0.311,0,0.577,0.267,0.577,0.578v25.763c0,1.821,1.466,3.198,3.42,3.198h9.506c-0.533-0.489-0.889-1.244-0.889-2.132v-27.406
			h3.598c0.311,0,0.577,0.267,0.577,0.578v28.117c0,0.444,0.355,0.844,0.845,0.844h10.349c0.444,0,0.845-0.4,0.845-0.844v-28.117
			c0-0.311,0.267-0.578,0.577-0.578H520.43z"/>
		<path d="M543.354,314.872l6.974,14.525h-4.042c-0.312,0-0.711-0.222-0.844-0.533l-5.73-12.037c-0.222-0.4-0.755-1.021-1.199-1.021
			h-1.644c-0.488,0-1.021,0.622-1.199,1.021l-5.729,12.037c-0.178,0.311-0.533,0.533-0.845,0.533h-4.086l6.929-14.392
			c0.312-0.577,0.8-1.066,1.377-1.377c-0.577-0.267-1.021-0.71-1.332-1.288l-7.862-16.302h3.998c0.355,0,0.71,0.222,0.844,0.533
			l6.707,13.814c0.178,0.444,0.711,1.2,1.199,1.2h1.644c0.444,0,0.978-0.8,1.199-1.2l6.663-13.814
			c0.133-0.311,0.488-0.533,0.8-0.533h3.997l-7.906,16.568c-0.311,0.444-0.711,0.799-1.199,1.021
			C542.599,313.895,543.042,314.339,543.354,314.872z"/>
		<path d="M580.712,296.038l-6.796,17.279c-0.489,1.333-1.555,2.532-3.287,2.532h-1.999v12.97c0,0.311-0.267,0.578-0.577,0.578
			h-3.643v-13.547l-1.776-0.044c-1.91,0-3.021-1.155-3.51-2.488l-6.796-17.279h3.909c0.311,0,0.666,0.267,0.8,0.533l5.552,14.525
			c0.178,0.444,0.711,0.799,1.155,0.799h5.552c0.444,0,0.978-0.355,1.155-0.799l5.552-14.525c0.134-0.267,0.489-0.533,0.8-0.533
			H580.712z"/>
		<path d="M584.712,299.858v-3.243c0-0.311,0.267-0.578,0.578-0.578h24.208c0.311,0,0.577,0.267,0.577,0.578v2.665
			c0,0.622-0.222,1.199-0.622,1.599l-21.054,24.697h21.676v3.242c0,0.311-0.267,0.578-0.577,0.578h-25.585
			c-0.312,0-0.578-0.267-0.578-0.578v-2.221c0-0.578,0.223-1.155,0.578-1.599l21.409-25.141H584.712z"/>
	</g>
	<g>
		<path d="M412.242,361.434c0.747,0,1.315-0.604,1.315-1.352v-1.617c0-0.178-0.143-0.374-0.32-0.427l-6.826-2.275
			c-0.533-0.178-0.978-0.782-0.978-1.352v-2.115c0-1.671,1.351-2.684,3.022-2.684h6.329v1.298c0,0.125-0.089,0.231-0.231,0.231
			h-6.097c-0.747,0-1.369,0.479-1.369,1.227v1.725c0,0.195,0.142,0.391,0.32,0.444l6.826,2.258c0.533,0.178,0.924,0.8,0.924,1.368
			v1.902c0,1.671-1.262,2.897-2.915,2.897h-6.809v-1.298c0-0.142,0.107-0.23,0.231-0.23H412.242z"/>
		<path d="M424.04,356.562v5.83c0,0.32-0.249,0.569-0.569,0.569h-0.195h-0.782h-3.182c-1.44,0-2.595-1.155-2.595-2.596v-0.551
			c0-1.439,1.155-2.596,2.595-2.596h3.004c0.106,0,0.195-0.089,0.195-0.195v-0.444c0-0.568-0.373-1.049-1.066-1.049h-3.538
			c-0.107,0-0.196-0.089-0.196-0.195v-1.263h3.733C422.885,354.073,424.04,354.944,424.04,356.562z M419.312,361.451h3.022
			c0.106,0,0.178-0.089,0.178-0.195v-2.827c-0.089,0.16-0.267,0.249-0.462,0.267h-2.738c-0.586,0-1.049,0.463-1.049,1.049v0.658
			C418.263,360.988,418.725,361.451,419.312,361.451z"/>
		<path d="M433.707,356.669v6.293h-1.351c-0.106,0-0.195-0.089-0.195-0.195v-6.187c0-0.568-0.462-1.049-1.049-1.049h-3.218
			c-0.106,0-0.195,0.089-0.195,0.195v7.04c0,0.106-0.089,0.195-0.196,0.195h-1.351v-7.732c0-0.641,0.516-1.156,1.156-1.156h3.804
			C432.551,354.073,433.707,355.229,433.707,356.669z"/>
		<path d="M435.64,357.611v-1.191c0-1.439,0.995-2.347,2.435-2.347h4.871v1.263c0,0.106-0.089,0.195-0.196,0.195h-4.675
			c-0.586,0-0.889,0.284-0.889,0.871v0.516c0,0.089,0.071,0.16,0.16,0.195l5.493,1.298c0.285,0.054,0.48,0.302,0.48,0.587v1.582
			c0,1.546-1.102,2.382-2.542,2.382h-5.031V361.7c0-0.107,0.089-0.196,0.196-0.196h4.835c0.587,0,1.102-0.338,1.102-0.924v-0.836
			c0-0.089-0.071-0.16-0.16-0.178l-5.582-1.368C435.854,358.145,435.64,357.896,435.64,357.611z"/>
		<path d="M458.707,361.434c0.747,0,1.315-0.604,1.315-1.352v-1.617c0-0.178-0.143-0.374-0.32-0.427l-6.826-2.275
			c-0.533-0.178-0.978-0.782-0.978-1.352v-2.115c0-1.671,1.351-2.684,3.022-2.684h6.329v1.298c0,0.125-0.089,0.231-0.231,0.231
			h-6.097c-0.747,0-1.369,0.479-1.369,1.227v1.725c0,0.195,0.142,0.391,0.32,0.444l6.826,2.258c0.533,0.178,0.924,0.8,0.924,1.368
			v1.902c0,1.671-1.262,2.897-2.915,2.897h-6.809v-1.298c0-0.142,0.106-0.23,0.231-0.23H458.707z"/>
		<path d="M463.52,360.366v-3.769c0-1.653,1.156-2.524,2.596-2.524h2.382c1.44,0,2.595,0.871,2.595,2.524v2.045
			c0,0.302-0.035,0.551-0.462,0.551h-4.871c-0.285,0-0.534-0.124-0.693-0.338v1.582c0,0.587,0.462,1.049,1.049,1.049h4.408
			c0.107,0,0.196,0.089,0.196,0.195v1.28h-4.604C464.675,362.962,463.52,361.807,463.52,360.366z M466.115,355.531
			c-0.587,0-1.049,0.338-1.049,1.049v0.96c0,0.106,0.071,0.178,0.178,0.195h4.142c0.107,0,0.196-0.089,0.196-0.195v-0.96
			c0-0.711-0.338-1.049-1.031-1.049H466.115z"/>
		<path d="M478.074,354.073v1.28c0,0.106-0.089,0.195-0.195,0.195h-2.222c-0.48,0-0.817,0.374-0.853,0.8v6.613h-1.351
			c-0.107,0-0.196-0.089-0.196-0.195v-8.693h1.351c0.107,0,0.196,0.071,0.196,0.178v0.392c0.213-0.303,0.658-0.569,1.208-0.569
			H478.074z"/>
		<path d="M481.289,350.287v1.458h-1.351c-0.106,0-0.195-0.089-0.195-0.195v-1.458h1.351
			C481.2,350.092,481.289,350.181,481.289,350.287z M481.289,354.251v8.711h-1.351c-0.106,0-0.195-0.089-0.195-0.195v-8.693h1.351
			C481.2,354.073,481.289,354.145,481.289,354.251z"/>
		<path d="M487.918,349.576v1.28c0,0.107-0.089,0.196-0.196,0.196h-1.6c-0.587,0-1.049,0.462-1.049,1.049v2.293
			c0.089-0.16,0.267-0.267,0.48-0.267h1.742v1.28c0,0.106-0.089,0.178-0.196,0.178h-2.026v7.182c0,0.106-0.089,0.195-0.196,0.195
			h-1.351v-10.79c0-1.44,1.156-2.596,2.596-2.596H487.918z"/>
		<path d="M496.001,361.931v-11.323c0-0.551,0.444-0.996,0.995-0.996h0.284h5.404c1.671,0,3.022,1.351,3.022,3.022v1.351
			c0,0.854-0.676,1.991-1.636,2.187c0.96,0.249,1.636,1.334,1.636,2.187v1.564c0,1.671-1.352,3.04-3.022,3.04h-5.652
			C496.463,362.962,496.001,362.5,496.001,361.931z M497.672,355.407h5.013c0.747,0,1.352-0.604,1.352-1.352v-1.564
			c0-0.746-0.604-1.351-1.352-1.351h-4.675c-0.195,0-0.338,0.143-0.338,0.338V355.407z M504.036,358.287
			c0-0.747-0.604-1.352-1.352-1.352h-5.013v4.16c0,0.178,0.143,0.338,0.338,0.338h4.675c0.747,0,1.352-0.623,1.352-1.369V358.287z"
			/>
		<path d="M510.27,363.086c-1.439,0-2.595-1.155-2.595-2.595v-3.946c0-1.423,1.155-2.596,2.595-2.596h2.347
			c1.44,0,2.613,1.173,2.613,2.596v3.946c0,1.439-1.173,2.595-2.613,2.595H510.27z M509.221,356.474v4.089
			c0,0.586,0.463,1.066,1.049,1.066h2.347c0.587,0,1.066-0.48,1.066-1.066v-4.089c0-0.569-0.479-1.049-1.066-1.049h-2.347
			C509.684,355.425,509.221,355.904,509.221,356.474z"/>
		<path d="M518.924,349.825v13.137h-1.352c-0.106,0-0.195-0.089-0.195-0.195v-13.137h1.352
			C518.835,349.629,518.924,349.718,518.924,349.825z"/>
		<path d="M523.562,354.073h2.062c0.569,0,1.014,0.267,1.227,0.569v-4.817c0-0.107,0.089-0.196,0.196-0.196h1.351v12.763
			c0,0.32-0.249,0.569-0.568,0.569h-4.231c-1.439,0-2.595-1.155-2.595-2.596v-3.697
			C521.002,355.229,522.121,354.073,523.562,354.073z M522.548,360.438c0,0.587,0.463,1.049,1.049,1.049h3.058
			c0.106,0,0.195-0.071,0.195-0.178v-4.853c-0.035-0.48-0.408-0.854-0.853-0.907h-2.4c-0.586,0-1.049,0.463-1.049,1.049V360.438z"/>
	</g>
	<g>
		<path d="M409.568,439.218v16.169c0,0.267-0.222,0.488-0.489,0.488h-11.149c-3.065,0-5.508-2.487-5.508-5.553v-2.31
			c0-3.109,2.443-5.597,5.508-5.597h9.15c0.267,0,0.444-0.178,0.489-0.488v-2.888c0-1.954-1.555-3.553-3.509-3.553h-9.284
			c-0.222,0-0.444-0.223-0.444-0.489v-1.377h9.728C407.125,433.621,409.568,436.153,409.568,439.218z M407.569,453.921v-9.816
			c-0.089,0.089-0.222,0.178-0.355,0.178h-9.283c-1.955,0-3.509,1.599-3.509,3.553v2.576c0,1.955,1.555,3.51,3.509,3.51H407.569z"/>
		<path d="M432.268,439.085v11.371c0,3.331-2.443,5.419-5.508,5.419h-11.416c-0.267,0-0.489-0.222-0.489-0.488v-32.825h1.51
			c0.267,0,0.489,0.222,0.489,0.488v11.46c0.044-0.488,0.622-0.844,1.244-0.844h8.662
			C429.825,433.666,432.268,435.754,432.268,439.085z M430.358,439.04c0-1.954-1.644-3.553-3.598-3.553h-9.15
			c-0.4,0.044-0.71,0.355-0.755,0.799v4.131v13.593h9.905c1.954,0,3.598-1.555,3.598-3.51V439.04z"/>
		<path d="M439.643,439.263c0-3.065,2.443-5.553,5.508-5.553h9.105v1.333c0,0.267-0.178,0.488-0.444,0.488h-8.661
			c-1.955,0-3.509,1.6-3.509,3.554V450.5c0,1.955,1.555,3.51,3.509,3.51h8.661c0.267,0,0.444,0.222,0.444,0.488v1.377h-9.105
			c-3.065,0-5.508-2.487-5.508-5.553V439.263z"/>
		<path d="M476.334,422.562v32.825c0,0.267-0.222,0.488-0.489,0.488h-11.415c-3.065,0-5.508-2.487-5.508-5.553v-11.104
			c0-3.064,2.443-5.552,5.508-5.552h8.661c0.622,0,1.2,0.355,1.244,0.844v-11.46c0-0.267,0.222-0.488,0.488-0.488H476.334z
			 M474.336,454.01v-17.724c-0.044-0.443-0.355-0.755-0.755-0.799h-9.15c-1.955,0-3.509,1.599-3.509,3.553v11.46
			c0,1.955,1.555,3.51,3.509,3.51H474.336z"/>
		<path d="M481.711,450.5v-11.504c0-3.331,2.354-5.33,5.375-5.33h7.018c3.021,0,5.375,1.999,5.375,5.33v6.041
			c0,0.311-0.223,0.533-0.489,0.533h-14.258c-0.4,0-0.755-0.223-0.977-0.533h-0.044v5.419c0,1.954,1.555,3.509,3.509,3.509h11.416
			c0.267,0,0.488,0.223,0.488,0.488v1.422h-11.904C484.154,455.875,481.711,453.876,481.711,450.5z M487.085,435.487
			c-1.91,0-3.375,1.599-3.375,3.553v4.176c0,0.267,0.178,0.444,0.488,0.488h13.281v-4.664c0-1.954-1.466-3.553-3.376-3.553H487.085z
			"/>
		<path d="M514.805,422.473v1.377c0,0.267-0.222,0.444-0.444,0.444h-3.953c-1.954,0-3.509,1.599-3.509,3.553v6.708
			c0.044-0.489,0.577-0.845,1.243-0.845h5.153v1.333c0,0.267-0.223,0.488-0.489,0.488h-5.907v19.855
			c0,0.267-0.223,0.488-0.444,0.488h-1.555v-27.851c0-3.064,2.443-5.552,5.508-5.552H514.805z"/>
		<path d="M534.705,434.154v26.962c0,3.109-2.443,5.597-5.508,5.597h-10.438v-1.466c0-0.267,0.222-0.488,0.444-0.488h9.994
			c1.954,0,3.509-1.466,3.509-3.42v-6.13c-0.178,0.399-0.622,0.622-1.199,0.622l-8.173,0.044c-3.065,0-5.508-2.532-5.508-5.597
			v-11.061c0-3.064,2.442-5.597,5.508-5.597h10.882C534.482,433.621,534.705,433.844,534.705,434.154z M531.906,454.01
			c0.444,0,0.8-0.355,0.8-0.8v-17.723h-9.372c-1.955,0-3.51,1.599-3.51,3.553v11.416c0,1.954,1.555,3.554,3.51,3.554H531.906z"/>
		<path d="M551.497,433.666c3.064,0,5.552,2.487,5.552,5.552v16.657h-1.421c-0.355,0-0.578-0.267-0.578-0.577V439.04
			c0-1.954-1.599-3.509-3.553-3.509h-8.617c-0.444,0-0.8,0.355-0.8,0.755v19.012c0,0.311-0.223,0.577-0.577,0.577h-1.466v-33.358
			h1.555c0.266,0,0.488,0.223,0.488,0.489v11.504c0.044-0.488,0.622-0.844,1.288-0.844H551.497z"/>
		<path d="M564.024,423.805h1.555c0.267,0,0.444,0.223,0.444,0.444v2.088h-1.555c-0.267,0-0.444-0.178-0.444-0.444V423.805z
			 M564.024,433.666h1.511c0.266,0,0.488,0.178,0.488,0.444v21.765h-1.511c-0.266,0-0.488-0.222-0.488-0.488V433.666z"/>
		<path d="M566.246,465.336c0-0.267,0.222-0.488,0.488-0.488h0.622c1.909,0,3.464-1.555,3.464-3.509v-27.673h1.555
			c0.267,0,0.444,0.178,0.444,0.444v27.006c0,3.109-2.442,5.597-5.463,5.597h-1.11V465.336z M570.643,423.805h1.555
			c0.267,0,0.444,0.223,0.444,0.444v2.088h-1.555c-0.267,0-0.444-0.178-0.444-0.444V423.805z"/>
		<path d="M404.149,489.016l5.508,11.238h-1.777c-0.267,0-0.533-0.178-0.667-0.4l-5.108-10.571h-6.085
			c-0.4,0-0.71,0.355-0.755,0.755v9.772c0,0.267-0.222,0.488-0.489,0.488h-1.51v-30.16h1.51c0.267,0,0.489,0.223,0.489,0.488v17.546
			c0.133-0.444,0.622-0.755,1.244-0.755h5.73c1.954,0,4.131-1.555,4.131-3.51v-5.374c0-0.267,0.222-0.489,0.489-0.489h1.51v5.686
			c0,1.999-1.688,3.864-3.465,4.887L404.149,489.016z"/>
		<path d="M428.714,483.463c0-1.954-1.599-3.553-3.509-3.553h-9.728c-0.266,0-0.488,0.222-0.488,0.488v19.411
			c0,0.267-0.222,0.488-0.489,0.488h-1.51v-20.255c0-1.066,0.888-1.999,1.955-1.999h10.261c3.02,0,5.508,2.532,5.508,5.597v16.657
			h-1.555c-0.222,0-0.444-0.222-0.444-0.488V483.463z"/>
		<path d="M441.597,500.608c-3.065,0-5.508-2.487-5.508-5.552v-11.683c0-3.064,2.443-5.597,5.508-5.597h6.708
			c3.02,0,5.463,2.532,5.463,5.597v11.683c0,3.064-2.443,5.552-5.463,5.552H441.597z M441.597,479.644
			c-1.954,0-3.509,1.599-3.509,3.554v12.037c0,1.954,1.555,3.509,3.509,3.509h6.708c1.91,0,3.464-1.555,3.464-3.509v-12.037
			c0-1.955-1.555-3.554-3.464-3.554H441.597z"/>
		<path d="M476.689,483.552v11.327c0,3.109-2.443,5.419-5.508,5.419h-8.662c-0.622,0-1.155-0.355-1.244-0.844v11.193
			c0,0.267-0.222,0.488-0.489,0.488h-1.51v-32.559c0-0.267,0.222-0.488,0.489-0.488h11.416
			C474.246,478.089,476.689,480.354,476.689,483.552z M474.69,483.463c0-1.954-1.555-3.553-3.509-3.553h-9.905v13.592v4.175
			c0.044,0.4,0.355,0.711,0.755,0.756h9.15c1.954,0,3.509-1.6,3.509-3.554V483.463z"/>
		<path d="M504.098,478.577v32.559h-1.51c-0.267,0-0.488-0.222-0.488-0.488v-11.193c-0.045,0.444-0.578,0.844-1.244,0.844h-8.661
			c-3.065,0-5.508-2.487-5.508-5.597v-11.061c0-3.064,2.443-5.552,5.508-5.552h11.415
			C503.876,478.089,504.098,478.311,504.098,478.577z M501.344,498.433c0.4-0.045,0.711-0.355,0.756-0.756V479.91h-9.905
			c-1.955,0-3.509,1.599-3.509,3.553v11.416c0,1.954,1.554,3.554,3.509,3.554H501.344z"/>
		<path d="M511.74,478.089v1.466c0,0,0.889-1.466,3.908-1.466h5.064v1.377c0,0.267-0.223,0.444-0.489,0.444h-5.463
			c-3.109,0-3.021,3.198-3.021,3.198v17.189h-1.999v-22.209H511.74z"/>
		<path d="M539.236,491.947l-13.858-4.975c-0.666-0.223-1.199-0.978-1.199-1.688v-2.221c0-3.064,2.442-4.975,5.508-4.975h10.216
			v1.332c0,0.267-0.222,0.489-0.488,0.489h-9.728c-1.954,0-3.509,1.243-3.509,3.198v1.643c0,0.267,0.222,0.533,0.443,0.622
			l13.771,4.975c0.666,0.223,1.199,0.978,1.199,1.688v3.376c0,3.109-2.487,4.886-5.508,4.886h-11.949v-1.377
			c0-0.267,0.223-0.488,0.489-0.488h11.46c1.909,0,3.598-1.066,3.598-2.977v-2.887C539.681,492.303,539.458,491.991,539.236,491.947
			z"/>
		<path d="M556.961,498.921v1.377h-4.397c-3.065,0-5.508-2.487-5.508-5.597v-27.806h1.51c0.267,0,0.488,0.222,0.488,0.488v11.593
			c0.045-0.488,0.622-0.844,1.244-0.844h5.419v1.333c0,0.267-0.222,0.488-0.488,0.488h-6.175v14.969c0,1.91,1.555,3.51,3.51,3.51
			h3.953C556.738,498.433,556.961,498.654,556.961,498.921z"/>
		<path d="M561.005,478.044h1.51c0.267,0,0.488,0.223,0.488,0.489v16.39c0,1.955,1.555,3.51,3.51,3.51h6.707
			c1.91,0,3.465-1.555,3.465-3.51v-16.39c0-0.267,0.222-0.489,0.488-0.489h1.51v16.701c0,3.065-2.442,5.553-5.463,5.553h-6.707
			c-3.065,0-5.508-2.487-5.508-5.553V478.044z"/>
		<path d="M391.046,522.467h1.688c0.267,0,0.578,0.178,0.667,0.444l7.818,18.878l7.862-18.878c0.089-0.267,0.4-0.444,0.667-0.444
			h1.688l-9.372,21.81c-0.089,0.223-0.4,0.444-0.667,0.444h-0.355c-0.267,0-0.578-0.222-0.667-0.444L391.046,522.467z"/>
		<path d="M440.263,522.467v20.255c0,1.11-0.888,1.999-1.999,1.999h-18.079c-3.065,0-5.508-2.487-5.508-5.597v-16.657h1.51
			c0.267,0,0.489,0.223,0.489,0.489v16.39c0,1.91,1.555,3.51,3.509,3.51h6.974c-0.399-0.134-0.71-0.622-0.71-1.244v-19.145h1.555
			c0.267,0,0.444,0.223,0.444,0.489v19.1c0,0.444,0.355,0.8,0.8,0.8h8.528c0.267,0,0.444-0.223,0.444-0.489v-19.41
			c0-0.267,0.222-0.489,0.488-0.489H440.263z"/>
		<path d="M457.544,534.594l5.197,10.127h-1.732c-0.267,0-0.577-0.178-0.666-0.444l-4.753-9.283c-0.089-0.267-0.4-0.444-0.666-0.444
			h-2.443c-0.267,0-0.577,0.178-0.666,0.444l-4.931,9.283c-0.089,0.267-0.399,0.444-0.666,0.444h-1.688l5.375-10.083
			c0.222-0.399,0.578-0.755,1.021-0.978c-0.444-0.222-0.799-0.577-1.021-1.021l-5.419-10.127h1.732c0.267,0,0.533,0.178,0.666,0.399
			l4.886,9.328c0.133,0.222,0.444,0.444,0.71,0.444h2.488c0.266,0,0.577-0.223,0.666-0.444l4.708-9.328
			c0.133-0.222,0.399-0.399,0.666-0.399h1.732l-5.152,10.038c-0.222,0.444-0.622,0.8-1.066,1.021
			C456.967,533.794,457.322,534.149,457.544,534.594z"/>
		<path d="M483.309,522.956v27.006c0,3.109-2.443,5.597-5.508,5.597h-11.104v-1.377c0-0.267,0.222-0.488,0.444-0.488h10.661
			c1.954,0,3.509-1.555,3.509-3.509v-6.13c-0.178,0.399-0.622,0.622-1.199,0.622l-8.706,0.044c-3.731,0-5.463-2.532-5.463-5.597
			v-16.612h1.51c0.267,0,0.489,0.178,0.489,0.444v16.212c0,1.955,0.844,3.688,3.464,3.688h9.106c0.444,0,0.799-0.355,0.799-0.8
			v-19.544h1.51C483.087,522.512,483.309,522.689,483.309,522.956z"/>
		<path d="M501.301,524.466H488.33v-1.51c0-0.267,0.222-0.444,0.489-0.444h14.525c0.267,0,0.444,0.178,0.444,0.444v1.599
			c0,0.577-0.089,1.11-0.444,1.555l-13.281,15.946c-0.044,0.089-0.089,0.178-0.089,0.311c0,0.223,0.178,0.4,0.399,0.4h13.859v1.466
			c0,0.267-0.178,0.488-0.444,0.488h-15.902c-0.267,0-0.489-0.222-0.489-0.488v-0.845c0-0.577,0.133-1.11,0.489-1.554l13.725-16.657
			c0.045-0.089,0.089-0.178,0.089-0.267C501.7,524.688,501.522,524.466,501.301,524.466z"/>
	</g>
	<g>
		<path d="M392.432,574.88c0,0.106,0.089,0.231,0.178,0.249l8,2.648c0.267,0.089,0.498,0.392,0.498,0.676v2.204
			c0,1.547-1.262,2.791-2.791,2.791h-6.968v-0.569c0-0.106,0.089-0.195,0.196-0.195h6.772c1.031,0,1.867-0.835,1.867-1.866v-2.151
			c0-0.106-0.089-0.213-0.196-0.248l-7.999-2.649c-0.267-0.089-0.48-0.391-0.48-0.675v-2.187c0-1.547,1.244-2.791,2.791-2.791h6.417
			v0.568c0,0.106-0.089,0.195-0.195,0.195h-6.222c-1.031,0-1.866,0.836-1.866,1.867V574.88z"/>
		<path d="M409.527,576.782v6.471c0,0.106-0.089,0.195-0.195,0.195h-4.462c-1.227,0-2.204-0.995-2.204-2.222v-0.925
			c0-1.244,0.978-2.24,2.204-2.24h3.662c0.106,0,0.178-0.07,0.195-0.195v-1.155c0-0.782-0.622-1.422-1.404-1.422h-3.715
			c-0.089,0-0.178-0.089-0.178-0.195v-0.552h3.893C408.55,574.542,409.527,575.556,409.527,576.782z M408.728,582.666v-3.929
			c-0.036,0.036-0.089,0.071-0.142,0.071h-3.715c-0.782,0-1.404,0.64-1.404,1.422v1.031c0,0.782,0.622,1.404,1.404,1.404H408.728z"
			/>
		<path d="M417.932,576.711c0-0.782-0.64-1.422-1.404-1.422h-3.893c-0.106,0-0.195,0.089-0.195,0.195v7.769
			c0,0.106-0.089,0.195-0.196,0.195h-0.604v-8.106c0-0.426,0.356-0.8,0.782-0.8h4.106c1.209,0,2.204,1.014,2.204,2.24v6.666h-0.622
			c-0.089,0-0.178-0.089-0.178-0.195V576.711z"/>
		<path d="M426.71,580.106l-5.546-1.991c-0.267-0.089-0.48-0.391-0.48-0.676v-0.889c0-1.227,0.978-1.991,2.204-1.991h4.089v0.534
			c0,0.106-0.089,0.195-0.196,0.195h-3.893c-0.782,0-1.404,0.497-1.404,1.279v0.658c0,0.106,0.089,0.213,0.178,0.249l5.511,1.991
			c0.267,0.089,0.48,0.391,0.48,0.675v1.352c0,1.244-0.995,1.955-2.204,1.955h-4.782v-0.551c0-0.107,0.089-0.196,0.195-0.196h4.586
			c0.764,0,1.44-0.426,1.44-1.19v-1.155C426.888,580.248,426.799,580.124,426.71,580.106z"/>
		<path d="M436.8,574.88c0,0.106,0.089,0.231,0.178,0.249l8,2.648c0.267,0.089,0.498,0.392,0.498,0.676v2.204
			c0,1.547-1.262,2.791-2.791,2.791h-6.968v-0.569c0-0.106,0.089-0.195,0.196-0.195h6.772c1.031,0,1.867-0.835,1.867-1.866v-2.151
			c0-0.106-0.089-0.213-0.195-0.248l-8-2.649c-0.267-0.089-0.48-0.391-0.48-0.675v-2.187c0-1.547,1.244-2.791,2.791-2.791h6.417
			v0.568c0,0.106-0.089,0.195-0.195,0.195h-6.222c-1.031,0-1.867,0.836-1.867,1.867V574.88z"/>
		<path d="M447.372,581.297v-4.604c0-1.333,0.942-2.134,2.151-2.134h2.809c1.208,0,2.151,0.801,2.151,2.134v2.417
			c0,0.125-0.089,0.214-0.196,0.214h-5.706c-0.16,0-0.302-0.089-0.391-0.214h-0.018v2.169c0,0.782,0.622,1.404,1.404,1.404h4.568
			c0.107,0,0.196,0.089,0.196,0.195v0.569h-4.764C448.35,583.448,447.372,582.648,447.372,581.297z M449.523,575.289
			c-0.765,0-1.351,0.64-1.351,1.422v1.671c0,0.106,0.071,0.178,0.195,0.195h5.315v-1.866c0-0.782-0.587-1.422-1.351-1.422H449.523z"
			/>
		<path d="M457.447,574.56v0.587c0,0,0.355-0.587,1.564-0.587h2.027v0.552c0,0.106-0.089,0.178-0.196,0.178h-2.187
			c-1.244,0-1.208,1.279-1.208,1.279v6.88h-0.8v-8.889H457.447z"/>
		<path d="M462.618,570.613h0.622c0.106,0,0.178,0.089,0.178,0.178v0.836h-0.622c-0.107,0-0.178-0.071-0.178-0.178V570.613z
			 M462.618,574.56h0.604c0.107,0,0.196,0.071,0.196,0.178v8.711h-0.604c-0.106,0-0.195-0.089-0.195-0.195V574.56z"/>
		<path d="M469.851,570.08v0.552c0,0.106-0.089,0.178-0.178,0.178h-1.582c-0.782,0-1.404,0.64-1.404,1.422v2.685
			c0.018-0.196,0.231-0.338,0.498-0.338h2.062v0.533c0,0.106-0.089,0.195-0.195,0.195h-2.364v7.946c0,0.106-0.089,0.195-0.178,0.195
			h-0.623v-11.146c0-1.227,0.978-2.223,2.205-2.223H469.851z"/>
		<path d="M477.365,570.294c0-0.107,0.089-0.196,0.196-0.196h0.729v10.685c0,1.049,0.853,1.901,1.884,1.901h5.528
			c0.106,0,0.195,0.089,0.195,0.195v0.569h-5.724c-1.547,0-2.809-1.262-2.809-2.826V570.294z"/>
		<path d="M487.281,570.613h0.622c0.106,0,0.178,0.089,0.178,0.178v0.836h-0.622c-0.107,0-0.178-0.071-0.178-0.178V570.613z
			 M487.281,574.56h0.604c0.107,0,0.196,0.071,0.196,0.178v8.711h-0.604c-0.106,0-0.195-0.089-0.195-0.195V574.56z"/>
		<path d="M497.216,574.756v10.79c0,1.244-0.978,2.24-2.204,2.24h-4.178v-0.587c0-0.106,0.089-0.195,0.178-0.195h4
			c0.782,0,1.404-0.587,1.404-1.369v-2.453c-0.071,0.16-0.249,0.249-0.479,0.249l-3.271,0.018c-1.227,0-2.204-1.014-2.204-2.24
			v-4.426c0-1.227,0.978-2.24,2.204-2.24h4.355C497.127,574.542,497.216,574.631,497.216,574.756z M496.097,582.701
			c0.178,0,0.319-0.142,0.319-0.319v-7.093h-3.751c-0.782,0-1.404,0.64-1.404,1.422v4.568c0,0.782,0.622,1.422,1.404,1.422H496.097z
			"/>
		<path d="M503.933,574.56c1.227,0,2.222,0.996,2.222,2.223v6.666h-0.568c-0.143,0-0.231-0.106-0.231-0.231v-6.506
			c0-0.782-0.64-1.404-1.422-1.404h-3.449c-0.178,0-0.319,0.143-0.319,0.302v7.608c0,0.125-0.089,0.231-0.231,0.231h-0.587v-13.351
			h0.623c0.106,0,0.195,0.089,0.195,0.196v4.604c0.018-0.195,0.249-0.338,0.516-0.338H503.933z"/>
		<path d="M512.212,582.897v0.551h-1.76c-1.227,0-2.205-0.995-2.205-2.24V570.08h0.604c0.107,0,0.196,0.089,0.196,0.195v4.641
			c0.018-0.196,0.248-0.338,0.497-0.338h2.169v0.533c0,0.106-0.089,0.195-0.195,0.195h-2.471v5.99c0,0.765,0.622,1.404,1.404,1.404
			h1.582C512.123,582.701,512.212,582.79,512.212,582.897z"/>
	</g>
</g>
<g>
	<path d="M696.4,504.21v1.961l-1.66,0.94v-3.181h1.381C696.28,503.931,696.4,504.051,696.4,504.21z M699.241,504.21v1.961
		l-1.66,0.94v-3.181h1.38C699.121,503.931,699.241,504.051,699.241,504.21z"/>
	<path d="M712.783,507.191v8.382c0,1.54-1.061,2.86-2.48,3.261l0.7,1.64h-1.4c-0.16,0-0.32-0.1-0.381-0.24l-0.54-1.26h-3.82
		c-1.881,0-3.4-1.521-3.4-3.4v-8.382c0-1.881,1.52-3.401,3.4-3.401h4.521C711.242,503.79,712.783,505.311,712.783,507.191z
		 M710.902,507.031c0-0.841-0.68-1.521-1.521-1.521h-4.521c-0.84,0-1.521,0.68-1.521,1.521v8.701c0,0.841,0.681,1.521,1.521,1.521
		h3.061l-0.8-1.82h1.4c0.159,0,0.319,0.101,0.38,0.24l0.7,1.561c0.72-0.101,1.3-0.74,1.3-1.501V507.031z"/>
	<path d="M716.74,508.871c0.12,0,0.221,0.101,0.221,0.221v6.961c0,0.66,0.52,1.181,1.18,1.181h2.641c0.66,0,1.2-0.521,1.2-1.181
		v-6.961c0-0.12,0.101-0.221,0.221-0.221h1.52v7.102c0,1.621-1.32,2.921-2.94,2.921h-2.641c-1.62,0-2.92-1.3-2.92-2.921v-7.102
		H716.74z"/>
	<path d="M734.001,511.692v6.562c0,0.359-0.279,0.64-0.64,0.64h-0.22h-0.881h-3.58c-1.621,0-2.921-1.3-2.921-2.921v-0.62
		c0-1.62,1.3-2.92,2.921-2.92h3.38c0.12,0,0.221-0.101,0.221-0.221v-0.5c0-0.64-0.42-1.18-1.2-1.18H727.1
		c-0.12,0-0.22-0.101-0.22-0.221v-1.42h4.201C732.701,508.892,734.001,509.872,734.001,511.692z M728.681,517.193h3.4
		c0.12,0,0.2-0.101,0.2-0.221v-3.181c-0.101,0.181-0.301,0.28-0.521,0.301h-3.08c-0.66,0-1.181,0.52-1.181,1.18v0.74
		C727.5,516.673,728.021,517.193,728.681,517.193z"/>
	<path d="M744.882,511.812v7.081h-1.521c-0.12,0-0.22-0.1-0.22-0.22v-6.962c0-0.64-0.521-1.18-1.181-1.18h-3.62
		c-0.12,0-0.221,0.1-0.221,0.22v7.922c0,0.12-0.1,0.22-0.22,0.22h-1.521v-8.702c0-0.72,0.58-1.3,1.301-1.3h4.28
		C743.581,508.892,744.882,510.191,744.882,511.812z"/>
	<path d="M752.301,517.453v1.44h-2.021c-1.6,0-2.92-1.3-2.92-2.921v-11.922h1.52c0.12,0,0.221,0.1,0.221,0.22v5.001
		c0.1-0.22,0.319-0.36,0.58-0.36h2.12v1.44c0,0.12-0.1,0.2-0.22,0.2h-2.48v5.501c0,0.66,0.52,1.181,1.18,1.181h1.801
		C752.201,517.233,752.301,517.333,752.301,517.453z"/>
	<path d="M755.64,508.871c0.12,0,0.221,0.101,0.221,0.221v6.961c0,0.66,0.52,1.181,1.18,1.181h2.641c0.66,0,1.2-0.521,1.2-1.181
		v-6.961c0-0.12,0.101-0.221,0.221-0.221h1.52v7.102c0,1.621-1.32,2.921-2.94,2.921h-2.641c-1.62,0-2.92-1.3-2.92-2.921v-7.102
		H755.64z"/>
	<path d="M777.163,511.812v7.081h-1.521c-0.12,0-0.221-0.1-0.221-0.22v-6.962c0-0.64-0.52-1.18-1.18-1.18h-2.601
		c0.2,0.119,0.36,0.319,0.36,0.56v7.802h-1.521c-0.12,0-0.221-0.1-0.221-0.22v-7.922c0-0.12-0.1-0.22-0.22-0.22h-3.021
		c-0.1,0-0.18,0.079-0.2,0.18v7.962c0,0.12-0.1,0.22-0.22,0.22h-1.521v-8.702c0-0.72,0.58-1.3,1.301-1.3h7.861
		C775.862,508.892,777.163,510.191,777.163,511.812z"/>
	<path d="M800.514,507.271v1.98c0,1.86-1.521,3.4-3.4,3.4h-4.381c-0.62,0-1.12-0.36-1.16-0.801v6.782c0,0.14-0.12,0.26-0.261,0.26
		h-1.62V505.03c0-0.64,0.521-1.16,1.16-1.16h6.262C798.993,503.87,800.514,505.411,800.514,507.271z M798.634,507.111
		c0-0.841-0.681-1.521-1.521-1.521h-5.161c-0.221,0-0.38,0.18-0.38,0.38v4.581c0,0.2,0.18,0.38,0.38,0.38c0,0,0,0,0.02,0h5.142
		c0.84,0,1.521-0.68,1.521-1.521V507.111z"/>
	<path d="M802.312,515.973v-4.24c0-1.86,1.301-2.841,2.921-2.841h2.681c1.62,0,2.92,0.98,2.92,2.841v2.3
		c0,0.341-0.04,0.62-0.52,0.62h-5.481c-0.32,0-0.6-0.14-0.78-0.38v1.78c0,0.66,0.521,1.181,1.181,1.181h4.961
		c0.12,0,0.22,0.1,0.22,0.22v1.44h-5.181C803.612,518.894,802.312,517.594,802.312,515.973z M805.232,510.532
		c-0.66,0-1.181,0.38-1.181,1.18v1.08c0,0.12,0.08,0.2,0.2,0.221h4.661c0.12,0,0.22-0.101,0.22-0.221v-1.08
		c0-0.8-0.38-1.18-1.16-1.18H805.232z"/>
	<path d="M821.133,511.692v6.562c0,0.359-0.279,0.64-0.64,0.64h-0.22h-0.881h-3.58c-1.621,0-2.921-1.3-2.921-2.921v-0.62
		c0-1.62,1.3-2.92,2.921-2.92h3.38c0.12,0,0.221-0.101,0.221-0.221v-0.5c0-0.64-0.42-1.18-1.2-1.18h-3.981
		c-0.12,0-0.22-0.101-0.22-0.221v-1.42h4.201C819.833,508.892,821.133,509.872,821.133,511.692z M815.812,517.193h3.4
		c0.12,0,0.2-0.101,0.2-0.221v-3.181c-0.101,0.181-0.3,0.28-0.521,0.301h-3.08c-0.66,0-1.181,0.52-1.181,1.18v0.74
		C814.632,516.673,815.152,517.193,815.812,517.193z"/>
	<path d="M831.894,518.894h-1.721c-0.14,0-0.26-0.08-0.319-0.2l-1.961-3.94h-2.42c-0.12,0-0.221,0.1-0.221,0.22v3.701
		c0,0.12-0.1,0.22-0.22,0.22h-1.521v-14.843h1.521c0.12,0,0.22,0.1,0.22,0.22v9.182c0.101-0.2,0.3-0.34,0.54-0.34h2.461
		c0.66,0,1.18-0.54,1.18-1.2v-2.801c0-0.12,0.101-0.22,0.221-0.22h1.521v2.94c0,1.101-0.601,2.061-1.521,2.561L831.894,518.894z"/>
	<path d="M843.544,507.271c0-1.881,1.521-3.401,3.4-3.401h6.602v1.461c0,0.14-0.12,0.26-0.26,0.26h-6.342
		c-0.84,0-1.52,0.68-1.52,1.521v8.542c0,0.84,0.68,1.52,1.52,1.52h6.342c0.14,0,0.26,0.12,0.26,0.261v1.46h-6.602
		c-1.88,0-3.4-1.54-3.4-3.4V507.271z"/>
	<path d="M858.604,519.033c-1.62,0-2.921-1.3-2.921-2.92v-4.441c0-1.601,1.301-2.921,2.921-2.921h2.641c1.62,0,2.94,1.32,2.94,2.921
		v4.441c0,1.62-1.32,2.92-2.94,2.92H858.604z M857.424,511.592v4.602c0,0.66,0.521,1.2,1.181,1.2h2.641c0.66,0,1.2-0.54,1.2-1.2
		v-4.602c0-0.64-0.54-1.18-1.2-1.18h-2.641C857.944,510.412,857.424,510.952,857.424,511.592z"/>
	<path d="M874.465,511.692v6.562c0,0.359-0.279,0.64-0.64,0.64h-0.22h-0.881h-3.58c-1.621,0-2.921-1.3-2.921-2.921v-0.62
		c0-1.62,1.3-2.92,2.921-2.92h3.38c0.12,0,0.221-0.101,0.221-0.221v-0.5c0-0.64-0.42-1.18-1.2-1.18h-3.981
		c-0.12,0-0.22-0.101-0.22-0.221v-1.42h4.201C873.165,508.892,874.465,509.872,874.465,511.692z M869.145,517.193h3.4
		c0.12,0,0.2-0.101,0.2-0.221v-3.181c-0.101,0.181-0.3,0.28-0.521,0.301h-3.08c-0.66,0-1.181,0.52-1.181,1.18v0.74
		C867.964,516.673,868.484,517.193,869.145,517.193z"/>
	<path d="M878.424,511.752v4.301c0,0.66,0.521,1.181,1.181,1.181h3.541c0.12,0,0.22,0.1,0.22,0.22v1.44h-3.761
		c-1.601,0-2.921-1.3-2.921-2.921v-4.141c0-1.62,1.32-2.921,2.921-2.921h3.761v1.44c0,0.12-0.1,0.2-0.22,0.2h-3.541
		C878.944,510.552,878.424,511.092,878.424,511.752z"/>
	<path d="M885.645,503.891h1.52c0.12,0,0.221,0.1,0.221,0.22v5.421c0.24-0.34,0.74-0.64,1.36-0.64h2.54
		c1.601,0,2.78,0.92,2.78,2.801v7.201h-1.52c-0.12,0-0.221-0.1-0.221-0.22v-6.941c0-0.66-0.52-1.181-1.18-1.181h-2.801
		c-0.521,0.06-0.92,0.48-0.96,1.021v7.321h-1.521c-0.12,0-0.22-0.1-0.22-0.22V503.891z"/>
	<path d="M898.204,504.631v1.64h-1.521c-0.12,0-0.22-0.1-0.22-0.22v-1.641h1.52C898.104,504.41,898.204,504.511,898.204,504.631z
		 M898.204,509.092v9.802h-1.521c-0.12,0-0.22-0.1-0.22-0.22v-9.782h1.52C898.104,508.892,898.204,508.972,898.204,509.092z"/>
	<path d="M909.225,511.812v7.081h-1.521c-0.12,0-0.22-0.1-0.22-0.22v-6.962c0-0.64-0.521-1.18-1.181-1.18h-3.62
		c-0.12,0-0.221,0.1-0.221,0.22v7.922c0,0.12-0.1,0.22-0.22,0.22h-1.521v-8.702c0-0.72,0.58-1.3,1.301-1.3h4.28
		C907.924,508.892,909.225,510.191,909.225,511.812z"/>
	<path d="M918.164,518.094c-0.2,0.359-0.74,0.8-1.38,0.8h-2.401c-1.86,0-2.8-1.32-2.8-2.921v-4.261c0-1.601,1.02-2.841,2.92-2.841
		h4.762c0.359,0,0.64,0.301,0.64,0.641v11.342c0,1.621-1.32,2.921-2.921,2.921h-4.761v-1.44c0-0.12,0.101-0.22,0.22-0.22h4.541
		c0.641,0,1.181-0.521,1.181-1.181V518.094z M913.323,516.053c0,0.641,0.26,1.181,1.1,1.181h2.761c0.521-0.08,0.94-0.5,0.98-1.021
		v-5.461c0-0.12-0.1-0.22-0.22-0.22h-3.441c-0.92,0-1.18,0.54-1.18,1.18V516.053z"/>
	<path d="M922.263,506.811v-1.96l1.66-0.94v3.181h-1.381C922.382,507.091,922.263,506.971,922.263,506.811z M925.103,506.811v-1.96
		l1.661-0.94v3.181h-1.381C925.223,507.091,925.103,506.971,925.103,506.811z"/>
	<path d="M697.221,545.403c-1.38,0-2.48-1.12-2.48-2.5v-5.262c0-1.38,1.101-2.521,2.48-2.521h3.021c1.36,0,2.461,1.141,2.461,2.521
		v5.262c0,1.38-1.101,2.5-2.461,2.5H697.221z M697.221,535.962c-0.88,0-1.58,0.72-1.58,1.601v5.421c0,0.88,0.7,1.58,1.58,1.58h3.021
		c0.86,0,1.561-0.7,1.561-1.58v-5.421c0-0.881-0.7-1.601-1.561-1.601H697.221z"/>
	<path d="M709.581,530.221v0.62c0,0.12-0.1,0.2-0.2,0.2h-1.78c-0.88,0-1.58,0.72-1.58,1.6v3.021c0.02-0.221,0.26-0.381,0.56-0.381
		h2.321v0.601c0,0.12-0.101,0.22-0.221,0.22h-2.66v8.942c0,0.12-0.101,0.22-0.2,0.22h-0.7v-12.543c0-1.38,1.101-2.5,2.48-2.5
		H709.581z"/>
	<path d="M715.501,530.221v0.62c0,0.12-0.1,0.2-0.2,0.2h-1.78c-0.88,0-1.58,0.72-1.58,1.6v3.021c0.02-0.221,0.26-0.381,0.56-0.381
		h2.321v0.601c0,0.12-0.101,0.22-0.221,0.22h-2.66v8.942c0,0.12-0.101,0.22-0.2,0.22h-0.7v-12.543c0-1.38,1.101-2.5,2.48-2.5
		H715.501z"/>
	<path d="M716.96,542.843v-5.181c0-1.5,1.061-2.4,2.421-2.4h3.16c1.36,0,2.421,0.9,2.421,2.4v2.721c0,0.14-0.101,0.24-0.221,0.24
		h-6.421c-0.18,0-0.34-0.101-0.44-0.24h-0.02v2.44c0,0.88,0.7,1.58,1.58,1.58h5.142c0.12,0,0.22,0.101,0.22,0.22v0.641h-5.361
		C718.061,545.264,716.96,544.363,716.96,542.843z M719.381,536.082c-0.86,0-1.521,0.72-1.521,1.6v1.881c0,0.12,0.08,0.2,0.22,0.22
		h5.981v-2.101c0-0.88-0.66-1.6-1.521-1.6H719.381z"/>
	<path d="M728.3,535.262v0.66c0,0,0.4-0.66,1.76-0.66h2.281v0.62c0,0.12-0.101,0.2-0.221,0.2h-2.46c-1.4,0-1.36,1.44-1.36,1.44
		v7.741h-0.9v-10.002H728.3z"/>
	<path d="M740.681,541.503l-6.241-2.24c-0.3-0.101-0.54-0.44-0.54-0.761v-1c0-1.38,1.1-2.24,2.48-2.24h4.601v0.6
		c0,0.12-0.1,0.221-0.22,0.221h-4.381c-0.88,0-1.58,0.56-1.58,1.44v0.739c0,0.12,0.1,0.24,0.199,0.28l6.202,2.241
		c0.3,0.1,0.54,0.439,0.54,0.76v1.521c0,1.4-1.12,2.2-2.48,2.2h-5.382v-0.62c0-0.12,0.101-0.22,0.221-0.22h5.161
		c0.859,0,1.62-0.48,1.62-1.341v-1.3C740.881,541.663,740.78,541.522,740.681,541.503z"/>
	<path d="M755.571,545.403c-1.38,0-2.48-1.12-2.48-2.5v-5.262c0-1.38,1.101-2.521,2.48-2.521h3.021c1.36,0,2.461,1.141,2.461,2.521
		v5.262c0,1.38-1.101,2.5-2.461,2.5H755.571z M755.571,535.962c-0.88,0-1.58,0.72-1.58,1.601v5.421c0,0.88,0.7,1.58,1.58,1.58h3.021
		c0.86,0,1.561-0.7,1.561-1.58v-5.421c0-0.881-0.7-1.601-1.561-1.601H755.571z"/>
	<path d="M770.553,537.682c0-0.88-0.721-1.6-1.581-1.6h-4.381c-0.12,0-0.22,0.1-0.22,0.22v8.742c0,0.12-0.101,0.22-0.22,0.22h-0.681
		v-9.122c0-0.479,0.4-0.9,0.88-0.9h4.621c1.36,0,2.48,1.141,2.48,2.521v7.502h-0.7c-0.1,0-0.199-0.1-0.199-0.22V537.682z"/>
	<path d="M773.91,542.843v-5.181c0-1.5,1.061-2.4,2.421-2.4h3.16c1.36,0,2.421,0.9,2.421,2.4v2.721c0,0.14-0.101,0.24-0.221,0.24
		h-6.421c-0.18,0-0.34-0.101-0.44-0.24h-0.02v2.44c0,0.88,0.7,1.58,1.58,1.58h5.142c0.12,0,0.22,0.101,0.22,0.22v0.641h-5.361
		C775.011,545.264,773.91,544.363,773.91,542.843z M776.331,536.082c-0.86,0-1.521,0.72-1.521,1.6v1.881c0,0.12,0.08,0.2,0.22,0.22
		h5.981v-2.101c0-0.88-0.66-1.6-1.521-1.6H776.331z"/>
	<path d="M783.93,537.522h4.781v0.56c0,0.16-0.12,0.28-0.261,0.28h-4.78v-0.58C783.67,537.642,783.789,537.522,783.93,537.522z"/>
	<path d="M795.391,544.644v0.62h-1.98c-1.381,0-2.48-1.12-2.48-2.521v-12.522h0.68c0.12,0,0.22,0.1,0.22,0.22v5.222
		c0.021-0.221,0.28-0.381,0.561-0.381h2.44v0.601c0,0.12-0.1,0.22-0.22,0.22h-2.781v6.741c0,0.86,0.7,1.581,1.581,1.581h1.78
		C795.29,544.424,795.391,544.523,795.391,544.644z"/>
	<path d="M799.63,545.403c-1.38,0-2.48-1.12-2.48-2.5v-5.262c0-1.38,1.101-2.521,2.48-2.521h3.021c1.36,0,2.461,1.141,2.461,2.521
		v5.262c0,1.38-1.101,2.5-2.461,2.5H799.63z M799.63,535.962c-0.88,0-1.58,0.72-1.58,1.601v5.421c0,0.88,0.7,1.58,1.58,1.58h3.021
		c0.86,0,1.561-0.7,1.561-1.58v-5.421c0-0.881-0.7-1.601-1.561-1.601H799.63z"/>
	<path d="M807.109,537.522h4.781v0.56c0,0.16-0.12,0.28-0.261,0.28h-4.78v-0.58C806.85,537.642,806.969,537.522,807.109,537.522z"/>
	<path d="M816.529,545.403c-1.38,0-2.48-1.12-2.48-2.5v-5.262c0-1.38,1.101-2.521,2.48-2.521h3.021c1.36,0,2.461,1.141,2.461,2.521
		v5.262c0,1.38-1.101,2.5-2.461,2.5H816.529z M816.529,535.962c-0.88,0-1.58,0.72-1.58,1.601v5.421c0,0.88,0.7,1.58,1.58,1.58h3.021
		c0.86,0,1.561-0.7,1.561-1.58v-5.421c0-0.881-0.7-1.601-1.561-1.601H816.529z"/>
	<path d="M831.511,537.682c0-0.88-0.721-1.6-1.581-1.6h-4.381c-0.12,0-0.22,0.1-0.22,0.22v8.742c0,0.12-0.101,0.22-0.22,0.22h-0.681
		v-9.122c0-0.479,0.4-0.9,0.88-0.9h4.621c1.36,0,2.48,1.141,2.48,2.521v7.502h-0.7c-0.1,0-0.199-0.1-0.199-0.22V537.682z"/>
	<path d="M834.868,542.843v-5.181c0-1.5,1.061-2.4,2.421-2.4h3.16c1.36,0,2.421,0.9,2.421,2.4v2.721c0,0.14-0.101,0.24-0.221,0.24
		h-6.421c-0.18,0-0.34-0.101-0.44-0.24h-0.02v2.44c0,0.88,0.7,1.58,1.58,1.58h5.142c0.12,0,0.22,0.101,0.22,0.22v0.641h-5.361
		C835.969,545.264,834.868,544.363,834.868,542.843z M837.289,536.082c-0.86,0-1.521,0.72-1.521,1.6v1.881
		c0,0.12,0.08,0.2,0.22,0.22h5.981v-2.101c0-0.88-0.66-1.6-1.521-1.6H837.289z"/>
	<path d="M860.781,541.503l-6.241-2.24c-0.3-0.101-0.54-0.44-0.54-0.761v-1c0-1.38,1.1-2.24,2.48-2.24h4.601v0.6
		c0,0.12-0.1,0.221-0.22,0.221h-4.381c-0.88,0-1.58,0.56-1.58,1.44v0.739c0,0.12,0.1,0.24,0.199,0.28l6.202,2.241
		c0.3,0.1,0.54,0.439,0.54,0.76v1.521c0,1.4-1.12,2.2-2.48,2.2h-5.382v-0.62c0-0.12,0.101-0.22,0.221-0.22h5.161
		c0.859,0,1.62-0.48,1.62-1.341v-1.3C860.981,541.663,860.881,541.522,860.781,541.503z"/>
	<path d="M864.279,542.843v-5.181c0-1.5,1.061-2.4,2.421-2.4h3.16c1.36,0,2.421,0.9,2.421,2.4v2.721c0,0.14-0.101,0.24-0.221,0.24
		h-6.421c-0.18,0-0.34-0.101-0.44-0.24h-0.02v2.44c0,0.88,0.7,1.58,1.58,1.58h5.142c0.12,0,0.22,0.101,0.22,0.22v0.641h-5.361
		C865.38,545.264,864.279,544.363,864.279,542.843z M866.7,536.082c-0.86,0-1.521,0.72-1.521,1.6v1.881c0,0.12,0.08,0.2,0.22,0.22
		h5.981v-2.101c0-0.88-0.66-1.6-1.521-1.6H866.7z"/>
	<path d="M881.24,541.503l-6.241-2.24c-0.3-0.101-0.54-0.44-0.54-0.761v-1c0-1.38,1.1-2.24,2.48-2.24h4.601v0.6
		c0,0.12-0.1,0.221-0.22,0.221h-4.381c-0.88,0-1.58,0.56-1.58,1.44v0.739c0,0.12,0.1,0.24,0.199,0.28l6.202,2.241
		c0.3,0.1,0.54,0.439,0.54,0.76v1.521c0,1.4-1.12,2.2-2.48,2.2h-5.382v-0.62c0-0.12,0.101-0.22,0.221-0.22h5.161
		c0.859,0,1.62-0.48,1.62-1.341v-1.3C881.44,541.663,881.34,541.522,881.24,541.503z"/>
	<path d="M891.26,541.503l-6.241-2.24c-0.3-0.101-0.54-0.44-0.54-0.761v-1c0-1.38,1.1-2.24,2.48-2.24h4.601v0.6
		c0,0.12-0.1,0.221-0.22,0.221h-4.381c-0.88,0-1.58,0.56-1.58,1.44v0.739c0,0.12,0.1,0.24,0.199,0.28l6.202,2.241
		c0.3,0.1,0.54,0.439,0.54,0.76v1.521c0,1.4-1.12,2.2-2.48,2.2h-5.382v-0.62c0-0.12,0.101-0.22,0.221-0.22h5.161
		c0.859,0,1.62-0.48,1.62-1.341v-1.3C891.46,541.663,891.359,541.522,891.26,541.503z"/>
	<path d="M894.718,530.82h0.7c0.12,0,0.2,0.101,0.2,0.2v0.94h-0.7c-0.12,0-0.2-0.08-0.2-0.2V530.82z M894.718,535.262h0.681
		c0.119,0,0.22,0.08,0.22,0.2v9.802h-0.681c-0.119,0-0.22-0.1-0.22-0.22V535.262z"/>
	<path d="M900.838,545.403c-1.38,0-2.48-1.12-2.48-2.5v-5.262c0-1.38,1.101-2.521,2.48-2.521h3.021c1.36,0,2.461,1.141,2.461,2.521
		v5.262c0,1.38-1.101,2.5-2.461,2.5H900.838z M900.838,535.962c-0.88,0-1.58,0.72-1.58,1.601v5.421c0,0.88,0.7,1.58,1.58,1.58h3.021
		c0.86,0,1.561-0.7,1.561-1.58v-5.421c0-0.881-0.7-1.601-1.561-1.601H900.838z"/>
	<path d="M915.819,537.682c0-0.88-0.721-1.6-1.581-1.6h-4.381c-0.12,0-0.22,0.1-0.22,0.22v8.742c0,0.12-0.101,0.22-0.22,0.22h-0.681
		v-9.122c0-0.479,0.4-0.9,0.88-0.9h4.621c1.36,0,2.48,1.141,2.48,2.521v7.502h-0.7c-0.1,0-0.199-0.1-0.199-0.22V537.682z"/>
	<path d="M925.698,541.503l-6.241-2.24c-0.3-0.101-0.54-0.44-0.54-0.761v-1c0-1.38,1.1-2.24,2.48-2.24h4.601v0.6
		c0,0.12-0.1,0.221-0.22,0.221h-4.381c-0.88,0-1.58,0.56-1.58,1.44v0.739c0,0.12,0.1,0.24,0.199,0.28l6.202,2.241
		c0.3,0.1,0.54,0.439,0.54,0.76v1.521c0,1.4-1.12,2.2-2.48,2.2h-5.382v-0.62c0-0.12,0.101-0.22,0.221-0.22h5.161
		c0.859,0,1.62-0.48,1.62-1.341v-1.3C925.898,541.663,925.798,541.522,925.698,541.503z"/>
	<path d="M706.283,561.611v9.122c0,0.5-0.4,0.9-0.9,0.9h-8.142c-1.381,0-2.48-1.12-2.48-2.521v-7.502h0.68
		c0.12,0,0.22,0.101,0.22,0.221v7.381c0,0.86,0.7,1.581,1.581,1.581h3.141c-0.181-0.061-0.32-0.28-0.32-0.561v-8.622h0.7
		c0.12,0,0.2,0.101,0.2,0.221v8.602c0,0.2,0.16,0.36,0.359,0.36h3.841c0.12,0,0.2-0.101,0.2-0.221v-8.741
		c0-0.12,0.101-0.221,0.221-0.221H706.283z"/>
	<path d="M708.64,557.19h0.7c0.12,0,0.2,0.101,0.2,0.2v0.94h-0.7c-0.12,0-0.2-0.08-0.2-0.2V557.19z M708.64,561.632h0.681
		c0.119,0,0.22,0.08,0.22,0.2v9.802h-0.681c-0.119,0-0.22-0.1-0.22-0.22V561.632z"/>
	<path d="M716.801,571.014v0.62h-1.98c-1.381,0-2.48-1.12-2.48-2.521v-12.522h0.68c0.12,0,0.22,0.1,0.22,0.22v5.221
		c0.021-0.22,0.28-0.38,0.561-0.38h2.44v0.601c0,0.12-0.1,0.22-0.22,0.22h-2.781v6.741c0,0.86,0.7,1.581,1.581,1.581h1.78
		C716.7,570.794,716.801,570.894,716.801,571.014z"/>
	<path d="M724.101,561.632c1.38,0,2.5,1.12,2.5,2.5v7.502h-0.64c-0.16,0-0.261-0.12-0.261-0.26v-7.322c0-0.88-0.72-1.58-1.6-1.58
		h-3.881c-0.2,0-0.36,0.16-0.36,0.34v8.562c0,0.14-0.101,0.26-0.26,0.26h-0.66V556.61h0.699c0.12,0,0.221,0.101,0.221,0.221v5.181
		c0.02-0.22,0.28-0.38,0.58-0.38H724.101z"/>
	<path d="M735.989,564.152c0-1.381,1.101-2.501,2.48-2.501h4.102v0.601c0,0.12-0.08,0.22-0.2,0.22h-3.901
		c-0.88,0-1.58,0.721-1.58,1.601v5.141c0,0.881,0.7,1.581,1.58,1.581h3.901c0.12,0,0.2,0.1,0.2,0.22v0.62h-4.102
		c-1.38,0-2.48-1.12-2.48-2.501V564.152z"/>
	<path d="M744.829,557.451h0.681c0.119,0,0.22,0.1,0.22,0.22v13.943h-0.681c-0.12,0-0.22-0.08-0.22-0.2V557.451z"/>
	<path d="M748.189,557.19h0.7c0.12,0,0.2,0.101,0.2,0.2v0.94h-0.7c-0.12,0-0.2-0.08-0.2-0.2V557.19z M748.189,561.632h0.681
		c0.119,0,0.22,0.08,0.22,0.2v9.802h-0.681c-0.119,0-0.22-0.1-0.22-0.22V561.632z"/>
	<path d="M751.87,569.213v-5.181c0-1.5,1.061-2.4,2.421-2.4h3.16c1.36,0,2.421,0.9,2.421,2.4v2.721c0,0.14-0.101,0.24-0.221,0.24
		h-6.421c-0.18,0-0.34-0.101-0.44-0.24h-0.02v2.44c0,0.88,0.7,1.58,1.58,1.58h5.142c0.12,0,0.22,0.101,0.22,0.221v0.64h-5.361
		C752.971,571.634,751.87,570.733,751.87,569.213z M754.291,562.452c-0.86,0-1.521,0.72-1.521,1.6v1.881c0,0.12,0.08,0.2,0.22,0.22
		h5.981v-2.101c0-0.88-0.66-1.6-1.521-1.6H754.291z"/>
	<path d="M769.392,564.052c0-0.88-0.721-1.6-1.581-1.6h-4.381c-0.12,0-0.22,0.1-0.22,0.22v8.742c0,0.12-0.101,0.22-0.22,0.22h-0.681
		v-9.122c0-0.48,0.4-0.9,0.88-0.9h4.621c1.36,0,2.48,1.141,2.48,2.521v7.502h-0.7c-0.1,0-0.199-0.1-0.199-0.22V564.052z"/>
	<path d="M777.23,571.014v0.62h-1.98c-1.381,0-2.48-1.12-2.48-2.521v-12.522h0.68c0.12,0,0.22,0.1,0.22,0.22v5.221
		c0.021-0.22,0.28-0.38,0.561-0.38h2.44v0.601c0,0.12-0.1,0.22-0.22,0.22h-2.781v6.741c0,0.86,0.7,1.581,1.581,1.581h1.78
		C777.13,570.794,777.23,570.894,777.23,571.014z"/>
	<path d="M785.55,567.873l-6.241-2.24c-0.3-0.101-0.54-0.44-0.54-0.761v-1c0-1.38,1.1-2.24,2.48-2.24h4.601v0.6
		c0,0.12-0.1,0.221-0.22,0.221h-4.381c-0.88,0-1.58,0.56-1.58,1.44v0.739c0,0.12,0.1,0.24,0.199,0.28l6.202,2.24
		c0.3,0.101,0.54,0.44,0.54,0.761v1.521c0,1.4-1.12,2.2-2.48,2.2h-5.382v-0.62c0-0.12,0.101-0.22,0.221-0.22h5.161
		c0.859,0,1.62-0.48,1.62-1.341v-1.3C785.75,568.033,785.649,567.893,785.55,567.873z"/>
	<path d="M807.762,561.611v9.122c0,0.5-0.4,0.9-0.9,0.9h-8.142c-1.381,0-2.48-1.12-2.48-2.521v-7.502h0.68
		c0.12,0,0.22,0.101,0.22,0.221v7.381c0,0.86,0.7,1.581,1.581,1.581h3.141c-0.181-0.061-0.32-0.28-0.32-0.561v-8.622h0.7
		c0.12,0,0.2,0.101,0.2,0.221v8.602c0,0.2,0.16,0.36,0.359,0.36h3.841c0.12,0,0.2-0.101,0.2-0.221v-8.741
		c0-0.12,0.101-0.221,0.221-0.221H807.762z"/>
	<path d="M815.341,561.632c1.38,0,2.5,1.12,2.5,2.5v7.502h-0.64c-0.16,0-0.261-0.12-0.261-0.26v-7.322c0-0.88-0.72-1.58-1.6-1.58
		h-3.881c-0.2,0-0.36,0.16-0.36,0.34v8.562c0,0.14-0.101,0.26-0.26,0.26h-0.66V556.61h0.699c0.12,0,0.221,0.101,0.221,0.221v5.181
		c0.02-0.22,0.28-0.38,0.58-0.38H815.341z"/>
	<path d="M822.619,571.773c-1.38,0-2.48-1.12-2.48-2.5v-5.262c0-1.38,1.101-2.521,2.48-2.521h3.021c1.36,0,2.461,1.141,2.461,2.521
		v5.262c0,1.38-1.101,2.5-2.461,2.5H822.619z M822.619,562.332c-0.88,0-1.58,0.72-1.58,1.601v5.421c0,0.88,0.7,1.58,1.58,1.58h3.021
		c0.86,0,1.561-0.7,1.561-1.58v-5.421c0-0.881-0.7-1.601-1.561-1.601H822.619z"/>
	<path d="M845.072,564.132v7.282c0,0.12-0.101,0.22-0.221,0.22h-5.021c-1.38,0-2.48-1.12-2.48-2.501v-1.04
		c0-1.4,1.101-2.521,2.48-2.521h4.121c0.12,0,0.2-0.08,0.22-0.22v-1.301c0-0.88-0.7-1.6-1.58-1.6h-4.181
		c-0.101,0-0.2-0.101-0.2-0.221v-0.62h4.381C843.972,561.611,845.072,562.752,845.072,564.132z M844.172,570.754v-4.421
		c-0.04,0.04-0.1,0.08-0.16,0.08h-4.181c-0.88,0-1.58,0.72-1.58,1.6v1.16c0,0.881,0.7,1.581,1.58,1.581H844.172z"/>
	<path d="M848.35,561.632v0.66c0,0,0.4-0.66,1.76-0.66h2.281v0.62c0,0.12-0.101,0.2-0.221,0.2h-2.46c-1.4,0-1.36,1.44-1.36,1.44
		v7.741h-0.9v-10.002H848.35z"/>
	<path d="M854.629,569.213v-5.181c0-1.5,1.061-2.4,2.421-2.4h3.16c1.36,0,2.421,0.9,2.421,2.4v2.721c0,0.14-0.101,0.24-0.221,0.24
		h-6.421c-0.18,0-0.34-0.101-0.44-0.24h-0.02v2.44c0,0.88,0.7,1.58,1.58,1.58h5.142c0.12,0,0.22,0.101,0.22,0.221v0.64h-5.361
		C855.729,571.634,854.629,570.733,854.629,569.213z M857.05,562.452c-0.86,0-1.521,0.72-1.521,1.6v1.881c0,0.12,0.08,0.2,0.22,0.22
		h5.981v-2.101c0-0.88-0.66-1.6-1.521-1.6H857.05z"/>
	<path d="M872.279,557.451h0.681c0.119,0,0.22,0.1,0.22,0.22v13.943h-0.681c-0.12,0-0.22-0.08-0.22-0.2V557.451z"/>
	<path d="M878.12,571.773c-1.38,0-2.48-1.12-2.48-2.5v-5.262c0-1.38,1.101-2.521,2.48-2.521h3.021c1.36,0,2.461,1.141,2.461,2.521
		v5.262c0,1.38-1.101,2.5-2.461,2.5H878.12z M878.12,562.332c-0.88,0-1.58,0.72-1.58,1.601v5.421c0,0.88,0.7,1.58,1.58,1.58h3.021
		c0.86,0,1.561-0.7,1.561-1.58v-5.421c0-0.881-0.7-1.601-1.561-1.601H878.12z"/>
	<path d="M888.46,571.773c-1.38,0-2.48-1.12-2.48-2.5v-5.262c0-1.38,1.101-2.521,2.48-2.521h3.021c1.36,0,2.461,1.141,2.461,2.521
		v5.262c0,1.38-1.101,2.5-2.461,2.5H888.46z M888.46,562.332c-0.88,0-1.58,0.72-1.58,1.601v5.421c0,0.88,0.7,1.58,1.58,1.58h3.021
		c0.86,0,1.561-0.7,1.561-1.58v-5.421c0-0.881-0.7-1.601-1.561-1.601H888.46z"/>
	<path d="M901.261,566.553l2.48,5.062h-0.801c-0.119,0-0.239-0.08-0.3-0.181l-2.301-4.761h-2.74c-0.18,0-0.32,0.16-0.34,0.34v4.401
		c0,0.12-0.101,0.22-0.22,0.22h-0.681v-13.583h0.681c0.119,0,0.22,0.101,0.22,0.22v7.902c0.06-0.2,0.28-0.34,0.56-0.34h2.581
		c0.88,0,1.86-0.7,1.86-1.581v-2.42c0-0.12,0.1-0.221,0.22-0.221h0.681v2.561c0,0.9-0.761,1.74-1.561,2.201L901.261,566.553z"/>
	<path d="M905.2,557.19h0.7c0.12,0,0.2,0.101,0.2,0.2v0.94h-0.7c-0.12,0-0.2-0.08-0.2-0.2V557.19z M905.2,561.632h0.681
		c0.119,0,0.22,0.08,0.22,0.2v9.802h-0.681c-0.119,0-0.22-0.1-0.22-0.22V561.632z"/>
	<path d="M915.961,564.052c0-0.88-0.721-1.6-1.581-1.6h-4.381c-0.12,0-0.22,0.1-0.22,0.22v8.742c0,0.12-0.101,0.22-0.22,0.22h-0.681
		v-9.122c0-0.48,0.4-0.9,0.88-0.9h4.621c1.36,0,2.48,1.141,2.48,2.521v7.502h-0.7c-0.1,0-0.199-0.1-0.199-0.22V564.052z"/>
	<path d="M926.82,561.852v12.143c0,1.4-1.101,2.521-2.48,2.521h-4.701v-0.66c0-0.12,0.1-0.22,0.2-0.22h4.501
		c0.88,0,1.58-0.66,1.58-1.54v-2.761c-0.08,0.18-0.28,0.28-0.54,0.28l-3.681,0.02c-1.381,0-2.48-1.141-2.48-2.521v-4.981
		c0-1.38,1.1-2.521,2.48-2.521h4.9C926.72,561.611,926.82,561.712,926.82,561.852z M925.56,570.794c0.2,0,0.36-0.16,0.36-0.36
		v-7.981h-4.221c-0.881,0-1.581,0.72-1.581,1.6v5.142c0,0.88,0.7,1.601,1.581,1.601H925.56z"/>
	<path d="M699.262,597.385v0.62h-1.98c-1.381,0-2.48-1.12-2.48-2.521v-12.522h0.68c0.12,0,0.22,0.1,0.22,0.22v5.221
		c0.021-0.22,0.28-0.38,0.561-0.38h2.44v0.601c0,0.12-0.1,0.22-0.22,0.22H695.7v6.741c0,0.86,0.7,1.581,1.581,1.581h1.78
		C699.161,597.165,699.262,597.265,699.262,597.385z"/>
	<path d="M703.501,598.145c-1.38,0-2.48-1.12-2.48-2.5v-5.262c0-1.38,1.101-2.521,2.48-2.521h3.021c1.36,0,2.461,1.141,2.461,2.521
		v5.262c0,1.38-1.101,2.5-2.461,2.5H703.501z M703.501,588.703c-0.88,0-1.58,0.72-1.58,1.601v5.421c0,0.88,0.7,1.58,1.58,1.58h3.021
		c0.86,0,1.561-0.7,1.561-1.58v-5.421c0-0.881-0.7-1.601-1.561-1.601H703.501z"/>
	<path d="M727.009,598.145c-1.38,0-2.48-1.12-2.48-2.5v-5.262c0-1.38,1.101-2.521,2.48-2.521h3.021c1.36,0,2.461,1.141,2.461,2.521
		v5.262c0,1.38-1.101,2.5-2.461,2.5H727.009z M727.009,588.703c-0.88,0-1.58,0.72-1.58,1.601v5.421c0,0.88,0.7,1.58,1.58,1.58h3.021
		c0.86,0,1.561-0.7,1.561-1.58v-5.421c0-0.881-0.7-1.601-1.561-1.601H727.009z"/>
	<path d="M733.288,587.982h0.76c0.12,0,0.261,0.08,0.301,0.2l3.521,8.502l3.541-8.502c0.039-0.12,0.18-0.2,0.3-0.2h0.76
		l-4.221,9.822c-0.04,0.101-0.18,0.2-0.3,0.2h-0.16c-0.12,0-0.26-0.1-0.3-0.2L733.288,587.982z"/>
	<path d="M743.488,595.584v-5.181c0-1.5,1.061-2.4,2.421-2.4h3.16c1.36,0,2.421,0.9,2.421,2.4v2.721c0,0.14-0.101,0.24-0.221,0.24
		h-6.421c-0.18,0-0.34-0.101-0.44-0.24h-0.02v2.44c0,0.88,0.7,1.58,1.58,1.58h5.142c0.12,0,0.22,0.101,0.22,0.221v0.64h-5.361
		C744.589,598.005,743.488,597.104,743.488,595.584z M745.909,588.823c-0.86,0-1.521,0.72-1.521,1.6v1.881
		c0,0.12,0.08,0.2,0.22,0.22h5.981v-2.101c0-0.88-0.66-1.6-1.521-1.6H745.909z"/>
	<path d="M754.828,588.003v0.66c0,0,0.4-0.66,1.76-0.66h2.281v0.62c0,0.12-0.101,0.2-0.221,0.2h-2.46c-1.4,0-1.36,1.44-1.36,1.44
		v7.741h-0.9v-10.002H754.828z"/>
	<path d="M760.527,590.523c0-1.381,1.101-2.501,2.48-2.501h4.102v0.601c0,0.12-0.08,0.22-0.2,0.22h-3.901
		c-0.88,0-1.58,0.721-1.58,1.601v5.141c0,0.881,0.7,1.581,1.58,1.581h3.901c0.12,0,0.2,0.1,0.2,0.22v0.62h-4.102
		c-1.38,0-2.48-1.12-2.48-2.501V590.523z"/>
	<path d="M771.808,598.145c-1.38,0-2.48-1.12-2.48-2.5v-5.262c0-1.38,1.101-2.521,2.48-2.521h3.021c1.36,0,2.461,1.141,2.461,2.521
		v5.262c0,1.38-1.101,2.5-2.461,2.5H771.808z M771.808,588.703c-0.88,0-1.58,0.72-1.58,1.601v5.421c0,0.88,0.7,1.58,1.58,1.58h3.021
		c0.86,0,1.561-0.7,1.561-1.58v-5.421c0-0.881-0.7-1.601-1.561-1.601H771.808z"/>
	<path d="M791.27,590.503v7.502h-0.7c-0.12,0-0.22-0.1-0.22-0.22v-7.362c0-0.88-0.7-1.6-1.561-1.6h-3.161
		c0.181,0.08,0.32,0.3,0.32,0.56v8.622h-0.68c-0.12,0-0.221-0.1-0.221-0.22v-8.603c0-0.199-0.159-0.359-0.359-0.359h-3.821
		c-0.12,0-0.22,0.1-0.22,0.22v8.742c0,0.12-0.101,0.22-0.22,0.22h-0.681v-9.122c0-0.48,0.4-0.9,0.88-0.9h8.162
		C790.149,587.982,791.27,589.123,791.27,590.503z"/>
	<path d="M793.646,595.584v-5.181c0-1.5,1.061-2.4,2.421-2.4h3.16c1.36,0,2.421,0.9,2.421,2.4v2.721c0,0.14-0.101,0.24-0.221,0.24
		h-6.421c-0.18,0-0.34-0.101-0.44-0.24h-0.02v2.44c0,0.88,0.7,1.58,1.58,1.58h5.142c0.12,0,0.22,0.101,0.22,0.221v0.64h-5.361
		C794.747,598.005,793.646,597.104,793.646,595.584z M796.067,588.823c-0.86,0-1.521,0.72-1.521,1.6v1.881
		c0,0.12,0.08,0.2,0.22,0.22h5.981v-2.101c0-0.88-0.66-1.6-1.521-1.6H796.067z"/>
	<path d="M824.596,590.503v7.282c0,0.12-0.101,0.22-0.221,0.22h-5.021c-1.38,0-2.48-1.12-2.48-2.501v-1.04
		c0-1.4,1.101-2.521,2.48-2.521h4.121c0.12,0,0.2-0.08,0.22-0.22v-1.301c0-0.88-0.7-1.6-1.58-1.6h-4.181
		c-0.101,0-0.2-0.101-0.2-0.221v-0.62h4.381C823.495,587.982,824.596,589.123,824.596,590.503z M823.695,597.125v-4.421
		c-0.04,0.04-0.1,0.08-0.16,0.08h-4.181c-0.88,0-1.58,0.72-1.58,1.6v1.16c0,0.881,0.7,1.581,1.58,1.581H823.695z"/>
	<path d="M848.043,590.463v5.102c0,1.4-1.1,2.44-2.48,2.44h-3.9c-0.28,0-0.521-0.16-0.561-0.38v5.041c0,0.12-0.1,0.22-0.22,0.22
		h-0.68v-14.663c0-0.12,0.1-0.22,0.22-0.22h5.141C846.943,588.003,848.043,589.023,848.043,590.463z M847.144,590.423
		c0-0.88-0.7-1.6-1.581-1.6h-4.461v6.121v1.88c0.021,0.181,0.16,0.32,0.341,0.341h4.12c0.881,0,1.581-0.721,1.581-1.601V590.423z"/>
	<path d="M851.342,588.003v0.66c0,0,0.4-0.66,1.76-0.66h2.281v0.62c0,0.12-0.101,0.2-0.221,0.2h-2.46c-1.4,0-1.36,1.44-1.36,1.44
		v7.741h-0.9v-10.002H851.342z"/>
	<path d="M857.621,595.584v-5.181c0-1.5,1.061-2.4,2.421-2.4h3.16c1.36,0,2.421,0.9,2.421,2.4v2.721c0,0.14-0.101,0.24-0.221,0.24
		h-6.421c-0.18,0-0.34-0.101-0.44-0.24h-0.02v2.44c0,0.88,0.7,1.58,1.58,1.58h5.142c0.12,0,0.22,0.101,0.22,0.221v0.64h-5.361
		C858.722,598.005,857.621,597.104,857.621,595.584z M860.042,588.823c-0.86,0-1.521,0.72-1.521,1.6v1.881
		c0,0.12,0.08,0.2,0.22,0.22h5.981v-2.101c0-0.88-0.66-1.6-1.521-1.6H860.042z"/>
	<path d="M874.582,594.244l-6.241-2.24c-0.3-0.101-0.54-0.44-0.54-0.761v-1c0-1.38,1.1-2.24,2.48-2.24h4.601v0.6
		c0,0.12-0.1,0.221-0.22,0.221h-4.381c-0.88,0-1.58,0.56-1.58,1.44v0.739c0,0.12,0.1,0.24,0.199,0.28l6.202,2.24
		c0.3,0.101,0.54,0.44,0.54,0.761v1.521c0,1.4-1.12,2.2-2.48,2.2h-5.382v-0.62c0-0.12,0.101-0.22,0.221-0.22h5.161
		c0.859,0,1.62-0.48,1.62-1.341v-1.3C874.782,594.404,874.682,594.264,874.582,594.244z"/>
	<path d="M878.08,595.584v-5.181c0-1.5,1.061-2.4,2.421-2.4h3.16c1.36,0,2.421,0.9,2.421,2.4v2.721c0,0.14-0.101,0.24-0.221,0.24
		h-6.421c-0.18,0-0.34-0.101-0.44-0.24h-0.02v2.44c0,0.88,0.7,1.58,1.58,1.58h5.142c0.12,0,0.22,0.101,0.22,0.221v0.64h-5.361
		C879.181,598.005,878.08,597.104,878.08,595.584z M880.501,588.823c-0.86,0-1.521,0.72-1.521,1.6v1.881c0,0.12,0.08,0.2,0.22,0.22
		h5.981v-2.101c0-0.88-0.66-1.6-1.521-1.6H880.501z"/>
	<path d="M895.602,590.423c0-0.88-0.721-1.6-1.581-1.6h-4.381c-0.12,0-0.22,0.1-0.22,0.22v8.742c0,0.12-0.101,0.22-0.22,0.22h-0.681
		v-9.122c0-0.48,0.4-0.9,0.88-0.9h4.621c1.36,0,2.48,1.141,2.48,2.521v7.502h-0.7c-0.1,0-0.199-0.1-0.199-0.22V590.423z"/>
	<path d="M903.44,597.385v0.62h-1.98c-1.381,0-2.48-1.12-2.48-2.521v-12.522h0.68c0.12,0,0.22,0.1,0.22,0.22v5.221
		c0.021-0.22,0.28-0.38,0.561-0.38h2.44v0.601c0,0.12-0.1,0.22-0.22,0.22h-2.781v6.741c0,0.86,0.7,1.581,1.581,1.581h1.78
		C903.34,597.165,903.44,597.265,903.44,597.385z"/>
	<path d="M905.199,583.562h0.7c0.12,0,0.2,0.101,0.2,0.2v0.94h-0.7c-0.12,0-0.2-0.08-0.2-0.2V583.562z M905.199,588.003h0.681
		c0.119,0,0.22,0.08,0.22,0.2v9.802h-0.681c-0.119,0-0.22-0.1-0.22-0.22V588.003z"/>
	<path d="M915.961,590.423c0-0.88-0.721-1.6-1.581-1.6h-4.381c-0.12,0-0.22,0.1-0.22,0.22v8.742c0,0.12-0.101,0.22-0.22,0.22h-0.681
		v-9.122c0-0.48,0.4-0.9,0.88-0.9h4.621c1.36,0,2.48,1.141,2.48,2.521v7.502h-0.7c-0.1,0-0.199-0.1-0.199-0.22V590.423z"/>
	<path d="M926.82,588.223v12.143c0,1.4-1.101,2.521-2.48,2.521h-4.701v-0.66c0-0.12,0.1-0.22,0.2-0.22h4.501
		c0.88,0,1.58-0.66,1.58-1.54v-2.761c-0.08,0.18-0.28,0.28-0.54,0.28l-3.681,0.02c-1.381,0-2.48-1.141-2.48-2.521v-4.981
		c0-1.38,1.1-2.521,2.48-2.521h4.9C926.72,587.982,926.82,588.083,926.82,588.223z M925.56,597.165c0.2,0,0.36-0.16,0.36-0.36
		v-7.981h-4.221c-0.881,0-1.581,0.72-1.581,1.6v5.142c0,0.88,0.7,1.601,1.581,1.601H925.56z"/>
	<path d="M702.682,616.833v5.102c0,1.4-1.1,2.44-2.48,2.44h-3.9c-0.28,0-0.521-0.16-0.561-0.38v5.041c0,0.12-0.1,0.22-0.22,0.22
		h-0.68v-14.663c0-0.12,0.1-0.22,0.22-0.22h5.141C701.582,614.373,702.682,615.394,702.682,616.833z M701.782,616.793
		c0-0.88-0.7-1.6-1.581-1.6h-4.461v6.121v1.88c0.021,0.181,0.16,0.32,0.341,0.341h4.12c0.881,0,1.581-0.721,1.581-1.601V616.793z"/>
	<path d="M705.98,614.373v0.66c0,0,0.4-0.66,1.76-0.66h2.281v0.62c0,0.12-0.101,0.2-0.221,0.2h-2.46c-1.4,0-1.36,1.44-1.36,1.44
		v7.741h-0.9v-10.002H705.98z"/>
	<path d="M714.28,624.515c-1.38,0-2.48-1.12-2.48-2.5v-5.262c0-1.38,1.101-2.521,2.48-2.521h3.021c1.36,0,2.461,1.141,2.461,2.521
		v5.262c0,1.38-1.101,2.5-2.461,2.5H714.28z M714.28,615.073c-0.88,0-1.58,0.72-1.58,1.601v5.421c0,0.88,0.7,1.58,1.58,1.58h3.021
		c0.86,0,1.561-0.7,1.561-1.58v-5.421c0-0.881-0.7-1.601-1.561-1.601H714.28z"/>
	<path d="M730.021,616.813v5.121c0,1.5-1.101,2.44-2.48,2.44h-5.142c-0.12,0-0.22-0.1-0.22-0.22v-14.783h0.681
		c0.119,0,0.22,0.1,0.22,0.22v5.161c0.02-0.22,0.28-0.38,0.56-0.38h3.901C728.921,614.373,730.021,615.313,730.021,616.813z
		 M729.161,616.793c0-0.88-0.74-1.6-1.62-1.6h-4.121c-0.18,0.02-0.32,0.16-0.34,0.359v1.86v6.122h4.461c0.88,0,1.62-0.7,1.62-1.581
		V616.793z"/>
	<path d="M733.1,610.192h0.681c0.119,0,0.22,0.1,0.22,0.22v13.943h-0.681c-0.12,0-0.22-0.08-0.22-0.2V610.192z"/>
	<path d="M736.5,621.954v-5.181c0-1.5,1.061-2.4,2.421-2.4h3.16c1.36,0,2.421,0.9,2.421,2.4v2.721c0,0.14-0.101,0.24-0.221,0.24
		h-6.421c-0.18,0-0.34-0.101-0.44-0.24h-0.02v2.44c0,0.88,0.7,1.58,1.58,1.58h5.142c0.12,0,0.22,0.101,0.22,0.22v0.641h-5.361
		C737.601,624.375,736.5,623.475,736.5,621.954z M738.921,615.193c-0.86,0-1.521,0.72-1.521,1.6v1.881c0,0.12,0.08,0.2,0.22,0.22
		h5.981v-2.101c0-0.88-0.66-1.6-1.521-1.6H738.921z"/>
	<path d="M758.502,616.873v7.502h-0.7c-0.12,0-0.22-0.1-0.22-0.22v-7.362c0-0.88-0.7-1.6-1.561-1.6h-3.161
		c0.181,0.08,0.32,0.3,0.32,0.56v8.622h-0.68c-0.12,0-0.221-0.1-0.221-0.22v-8.603c0-0.199-0.159-0.359-0.359-0.359H748.1
		c-0.12,0-0.22,0.1-0.22,0.22v8.742c0,0.12-0.101,0.22-0.22,0.22h-0.681v-9.122c0-0.479,0.4-0.9,0.88-0.9h8.162
		C757.382,614.353,758.502,615.493,758.502,616.873z"/>
	<path d="M770.319,624.515c-1.38,0-2.48-1.12-2.48-2.5v-5.262c0-1.38,1.101-2.521,2.48-2.521h3.021c1.36,0,2.461,1.141,2.461,2.521
		v5.262c0,1.38-1.101,2.5-2.461,2.5H770.319z M770.319,615.073c-0.88,0-1.58,0.72-1.58,1.601v5.421c0,0.88,0.7,1.58,1.58,1.58h3.021
		c0.86,0,1.561-0.7,1.561-1.58v-5.421c0-0.881-0.7-1.601-1.561-1.601H770.319z"/>
	<path d="M779.119,614.373v0.66c0,0,0.4-0.66,1.76-0.66h2.281v0.62c0,0.12-0.101,0.2-0.221,0.2h-2.46c-1.4,0-1.36,1.44-1.36,1.44
		v7.741h-0.9v-10.002H779.119z"/>
	<path d="M791.818,616.894c0-1.381,1.101-2.501,2.48-2.501h4.102v0.601c0,0.12-0.08,0.22-0.2,0.22h-3.901
		c-0.88,0-1.58,0.721-1.58,1.601v5.141c0,0.881,0.7,1.581,1.58,1.581h3.901c0.12,0,0.2,0.1,0.2,0.22v0.62h-4.102
		c-1.38,0-2.48-1.12-2.48-2.501V616.894z"/>
	<path d="M805.84,614.373c1.38,0,2.5,1.12,2.5,2.5v7.502h-0.64c-0.16,0-0.261-0.12-0.261-0.26v-7.322c0-0.88-0.72-1.58-1.6-1.58
		h-3.881c-0.2,0-0.36,0.16-0.36,0.34v8.562c0,0.14-0.101,0.26-0.26,0.26h-0.66v-15.023h0.7c0.119,0,0.22,0.101,0.22,0.221v5.181
		c0.02-0.22,0.28-0.38,0.58-0.38H805.84z"/>
	<path d="M818.02,616.873v7.282c0,0.12-0.101,0.22-0.221,0.22h-5.021c-1.38,0-2.48-1.12-2.48-2.501v-1.04
		c0-1.4,1.101-2.521,2.48-2.521h4.121c0.12,0,0.2-0.08,0.22-0.22v-1.301c0-0.88-0.7-1.6-1.58-1.6h-4.181
		c-0.101,0-0.2-0.101-0.2-0.221v-0.62h4.381C816.919,614.353,818.02,615.493,818.02,616.873z M817.119,623.495v-4.421
		c-0.04,0.04-0.1,0.08-0.16,0.08h-4.181c-0.88,0-1.58,0.72-1.58,1.6v1.16c0,0.881,0.7,1.581,1.58,1.581H817.119z"/>
	<path d="M820.397,610.192h0.681c0.119,0,0.22,0.1,0.22,0.22v13.943h-0.681c-0.12,0-0.22-0.08-0.22-0.2V610.192z"/>
	<path d="M823.798,610.192h0.681c0.119,0,0.22,0.1,0.22,0.22v13.943h-0.681c-0.12,0-0.22-0.08-0.22-0.2V610.192z"/>
	<path d="M827.198,621.954v-5.181c0-1.5,1.061-2.4,2.421-2.4h3.16c1.36,0,2.421,0.9,2.421,2.4v2.721c0,0.14-0.101,0.24-0.221,0.24
		h-6.421c-0.18,0-0.34-0.101-0.44-0.24h-0.02v2.44c0,0.88,0.7,1.58,1.58,1.58h5.142c0.12,0,0.22,0.101,0.22,0.22v0.641h-5.361
		C828.299,624.375,827.198,623.475,827.198,621.954z M829.619,615.193c-0.86,0-1.521,0.72-1.521,1.6v1.881
		c0,0.12,0.08,0.2,0.22,0.22h5.981v-2.101c0-0.88-0.66-1.6-1.521-1.6H829.619z"/>
	<path d="M844.72,616.793c0-0.88-0.721-1.6-1.581-1.6h-4.381c-0.12,0-0.22,0.1-0.22,0.22v8.742c0,0.12-0.101,0.22-0.22,0.22h-0.681
		v-9.122c0-0.479,0.4-0.9,0.88-0.9h4.621c1.36,0,2.48,1.141,2.48,2.521v7.502h-0.7c-0.1,0-0.199-0.1-0.199-0.22V616.793z"/>
	<path d="M855.579,614.593v12.143c0,1.4-1.101,2.521-2.48,2.521h-4.701v-0.66c0-0.12,0.1-0.22,0.2-0.22h4.501
		c0.88,0,1.58-0.66,1.58-1.54v-2.761c-0.08,0.18-0.28,0.28-0.54,0.28l-3.681,0.02c-1.381,0-2.48-1.141-2.48-2.521v-4.981
		c0-1.38,1.1-2.521,2.48-2.521h4.9C855.479,614.353,855.579,614.453,855.579,614.593z M854.318,623.535c0.2,0,0.36-0.16,0.36-0.36
		v-7.981h-4.221c-0.881,0-1.581,0.72-1.581,1.6v5.142c0,0.88,0.7,1.601,1.581,1.601H854.318z"/>
	<path d="M857.957,621.954v-5.181c0-1.5,1.061-2.4,2.421-2.4h3.16c1.36,0,2.421,0.9,2.421,2.4v2.721c0,0.14-0.101,0.24-0.221,0.24
		h-6.421c-0.18,0-0.34-0.101-0.44-0.24h-0.02v2.44c0,0.88,0.7,1.58,1.58,1.58h5.142c0.12,0,0.22,0.101,0.22,0.22v0.641h-5.361
		C859.058,624.375,857.957,623.475,857.957,621.954z M860.378,615.193c-0.86,0-1.521,0.72-1.521,1.6v1.881
		c0,0.12,0.08,0.2,0.22,0.22h5.981v-2.101c0-0.88-0.66-1.6-1.521-1.6H860.378z"/>
	<path d="M869.437,623.435v0.94h-0.78c-0.14,0-0.26-0.12-0.26-0.26v-0.94h0.78C869.316,623.175,869.437,623.295,869.437,623.435z"/>
</g>
<g>
	<path d="M73.466,77.273h3.785c3.256,0,5.104,1.056,5.104,3.96c0,2.772-1.848,4.137-5.104,4.137H74.17v6.425h-0.704V77.273z
		 M76.986,84.754c3.125,0,4.621-1.012,4.621-3.521c0-2.552-1.496-3.345-4.621-3.345H74.17v6.865H76.986z"/>
	<path d="M85.434,81.277h0.572l0.088,1.98h0.044c0.704-1.276,1.716-2.245,2.992-2.245c0.353,0,0.66,0.044,1.012,0.22l-0.176,0.616
		c-0.352-0.132-0.528-0.176-0.924-0.176c-0.968,0-2.112,0.748-2.948,2.816v7.305h-0.66V81.277z"/>
	<path d="M91.77,77.845c0-0.484,0.352-0.748,0.748-0.748s0.748,0.264,0.748,0.748c0,0.44-0.352,0.748-0.748,0.748
		S91.77,78.285,91.77,77.845z M92.166,81.277h0.66v10.518h-0.66V81.277z"/>
	<path d="M97.049,81.277h0.572l0.088,1.672h0.044c0.968-1.1,2.2-1.937,3.344-1.937c1.716,0,2.553,0.88,2.905,2.201
		c1.232-1.364,2.42-2.201,3.608-2.201c2.068,0,3.125,1.276,3.125,4.005v6.777h-0.66v-6.689c0-2.333-0.792-3.477-2.508-3.477
		c-1.056,0-2.112,0.704-3.345,2.112v8.053h-0.66v-6.689c0-2.333-0.792-3.477-2.509-3.477c-1.012,0-2.112,0.704-3.344,2.112v8.053
		h-0.66V81.277z"/>
	<path d="M121.074,85.238c0.044-1.716-0.396-3.608-2.597-3.608c-1.496,0-2.772,0.748-3.432,1.276l-0.352-0.528
		c0.66-0.484,2.112-1.364,3.829-1.364c2.464,0,3.212,1.849,3.212,3.961v6.821h-0.572l-0.088-1.408h-0.044
		c-1.1,0.88-2.42,1.672-3.829,1.672c-1.628,0-3.037-0.836-3.037-2.838C114.165,86.866,116.321,85.766,121.074,85.238z
		 M117.246,91.443c1.276,0,2.42-0.616,3.829-1.804V85.81c-4.621,0.528-6.205,1.584-6.205,3.389
		C114.869,90.827,115.969,91.443,117.246,91.443z"/>
	<path d="M125.649,81.277h0.572l0.088,1.98h0.044c0.704-1.276,1.716-2.245,2.993-2.245c0.352,0,0.66,0.044,1.012,0.22l-0.176,0.616
		c-0.352-0.132-0.528-0.176-0.924-0.176c-0.968,0-2.112,0.748-2.948,2.816v7.305h-0.66V81.277z"/>
	<path d="M132.425,96.02c1.32,0,2.245-1.276,2.816-2.992l0.308-0.968l-4.356-10.782h0.748l2.684,6.909
		c0.353,0.88,0.792,2.024,1.188,2.948h0.088c0.352-0.924,0.704-2.068,1.012-2.948l2.376-6.909h0.704l-4.225,12.014
		c-0.528,1.628-1.584,3.389-3.389,3.389c-0.352,0-0.748-0.088-1.012-0.22l0.176-0.616C131.765,95.932,132.117,96.02,132.425,96.02z"
		/>
	<path d="M149.893,77.889h-4.708v-0.616h10.121v0.616h-4.708v13.906h-0.704V77.889z"/>
	<path d="M156.493,96.02c1.32,0,2.245-1.276,2.816-2.992l0.308-0.968l-4.356-10.782h0.748l2.685,6.909
		c0.352,0.88,0.792,2.024,1.188,2.948h0.088c0.352-0.924,0.704-2.068,1.012-2.948l2.376-6.909h0.704l-4.225,12.014
		c-0.528,1.628-1.584,3.389-3.389,3.389c-0.352,0-0.748-0.088-1.012-0.22l0.176-0.616C155.833,95.932,156.185,96.02,156.493,96.02z"
		/>
	<path d="M167.097,92.719v3.96h-0.66V81.277h0.572l0.088,1.364h0.044c1.056-0.836,2.333-1.628,3.652-1.628
		c2.86,0,4.225,2.112,4.225,5.369c0,3.564-2.156,5.677-4.665,5.677c-1.012,0-2.112-0.484-3.256-1.32V92.719z M170.397,91.443
		c2.289,0,3.917-2.112,3.917-5.061c0-2.685-0.968-4.753-3.564-4.753c-1.1,0-2.288,0.66-3.652,1.848v6.513
		C168.373,91.047,169.561,91.443,170.397,91.443z"/>
	<path d="M181.925,81.013c2.42,0,3.961,1.716,3.961,4.841c0,0.22,0,0.44-0.044,0.704h-7.745c0,2.816,1.628,4.885,4.137,4.885
		c1.188,0,2.112-0.396,2.904-0.968l0.308,0.572c-0.792,0.484-1.672,1.012-3.256,1.012c-2.64,0-4.797-2.068-4.797-5.501
		S179.593,81.013,181.925,81.013z M185.226,85.986c0-2.905-1.32-4.357-3.301-4.357c-1.892,0-3.608,1.672-3.829,4.357H185.226z"/>
	<path d="M192.573,76.569c-0.44-0.22-0.88-0.308-1.276-0.308c-1.188,0-1.716,0.924-1.716,2.508v2.508h2.508v0.616h-2.508v9.901
		h-0.66v-9.901h-1.452v-0.528l1.452-0.088v-2.596c0-2.068,0.924-3.037,2.42-3.037c0.44,0,0.968,0.132,1.452,0.352L192.573,76.569z"
		/>
	<path d="M200.229,85.238c0.044-1.716-0.396-3.608-2.597-3.608c-1.496,0-2.772,0.748-3.432,1.276l-0.352-0.528
		c0.66-0.484,2.112-1.364,3.829-1.364c2.464,0,3.212,1.849,3.212,3.961v6.821h-0.572l-0.088-1.408h-0.044
		c-1.1,0.88-2.42,1.672-3.829,1.672c-1.628,0-3.037-0.836-3.037-2.838C193.32,86.866,195.477,85.766,200.229,85.238z
		 M196.401,91.443c1.276,0,2.42-0.616,3.829-1.804V85.81c-4.621,0.528-6.205,1.584-6.205,3.389
		C194.024,90.827,195.125,91.443,196.401,91.443z"/>
	<path d="M208.589,81.013c1.452,0,2.376,0.66,3.081,1.32l-0.44,0.484c-0.704-0.66-1.54-1.188-2.64-1.188
		c-2.245,0-4.005,2.024-4.005,4.929s1.584,4.885,4.005,4.885c1.188,0,2.2-0.572,2.948-1.276l0.396,0.484
		c-0.88,0.792-1.98,1.408-3.344,1.408c-2.685,0-4.709-2.024-4.709-5.501C203.88,83.038,206.081,81.013,208.589,81.013z"/>
	<path d="M217.873,81.013c2.42,0,3.961,1.716,3.961,4.841c0,0.22,0,0.44-0.044,0.704h-7.745c0,2.816,1.628,4.885,4.137,4.885
		c1.188,0,2.112-0.396,2.904-0.968l0.308,0.572c-0.792,0.484-1.672,1.012-3.256,1.012c-2.64,0-4.797-2.068-4.797-5.501
		S215.541,81.013,217.873,81.013z M221.174,85.986c0-2.905-1.32-4.357-3.301-4.357c-1.892,0-3.608,1.672-3.829,4.357H221.174z"/>
</g>
</svg>
