<?xml version="1.0" encoding="iso-8859-1"?>
<!-- Generator: Adobe Illustrator 16.0.0, SVG Export Plug-In . SVG Version: 6.00 Build 0)  -->
<!DOCTYPE svg PUBLIC "-//W3C//DTD SVG 1.0//EN" "http://www.w3.org/TR/2001/REC-SVG-20010904/DTD/svg10.dtd">
<svg version="1.0" id="Layer_1" xmlns="http://www.w3.org/2000/svg" xmlns:xlink="http://www.w3.org/1999/xlink" x="0px" y="0px"
	 width="927.092px" height="467.072px" viewBox="0 0 927.092 467.072" style="enable-background:new 0 0 927.092 467.072;"
	 xml:space="preserve">
<g>
	<g>
		<path d="M145.161,123.405h19.963l47.381,130.545h-19.373l-13.628-39.101h-51.217l-14.158,39.101H96L145.161,123.405z
			 M174.485,200.453l-20.099-57.675l-20.885,57.675H174.485z"/>
		<path d="M285.162,196.351c3.673-0.473,6.132-2.011,7.376-4.613c0.709-1.427,1.065-3.478,1.065-6.155
			c0-5.471-1.937-9.44-5.81-11.909c-3.873-2.468-9.416-3.702-16.628-3.702c-8.337,0-14.251,2.264-17.739,6.787
			c-1.951,2.502-3.222,6.224-3.813,11.164h-14.93c0.296-11.764,4.098-19.948,11.406-24.553c7.308-4.604,15.785-6.906,25.43-6.906
			c11.184,0,20.267,2.133,27.25,6.398c6.923,4.266,10.385,10.901,10.385,19.907v54.833c0,1.66,0.34,2.992,1.022,3.998
			c0.68,1.006,2.118,1.508,4.31,1.508c0.711,0,1.511-0.045,2.399-0.133c0.889-0.09,1.835-0.221,2.844-0.398v11.818
			c-2.488,0.711-4.385,1.154-5.688,1.332c-1.304,0.178-3.081,0.268-5.332,0.268c-5.51,0-9.509-1.955-11.997-5.865
			c-1.304-2.072-2.222-5.004-2.755-8.795c-3.259,4.266-7.94,7.967-14.041,11.105c-6.103,3.139-12.828,4.709-20.173,4.709
			c-8.829,0-16.041-2.678-21.639-8.033c-5.599-5.354-8.398-12.055-8.398-20.102c0-8.816,2.755-15.65,8.265-20.502
			s12.737-7.842,21.684-8.966L285.162,196.351z M251.479,239.563c3.377,2.66,7.376,3.99,11.997,3.99
			c5.628,0,11.078-1.301,16.352-3.904c8.887-4.318,13.33-11.385,13.33-21.206V205.58c-1.952,1.248-4.464,2.288-7.539,3.12
			c-3.074,0.833-6.09,1.426-9.046,1.779l-9.667,1.243c-5.794,0.77-10.152,1.981-13.072,3.637c-4.947,2.778-7.42,7.212-7.42,13.3
			C246.414,233.268,248.103,236.903,251.479,239.563z"/>
		<path d="M109.76,281.948h6.362l15.1,41.602h-6.174l-4.343-12.461h-16.322l-4.512,12.461h-5.777L109.76,281.948z M119.105,306.501
			l-6.405-18.379l-6.656,18.379H119.105z"/>
		<path d="M154.781,305.194c1.17-0.15,1.954-0.641,2.351-1.471c0.226-0.455,0.339-1.107,0.339-1.961
			c0-1.744-0.617-3.008-1.852-3.795c-1.234-0.787-3-1.18-5.299-1.18c-2.657,0-4.542,0.721-5.653,2.162
			c-0.622,0.797-1.027,1.984-1.215,3.559h-4.758c0.094-3.75,1.306-6.357,3.635-7.824c2.329-1.469,5.03-2.201,8.104-2.201
			c3.564,0,6.459,0.68,8.684,2.039c2.207,1.359,3.31,3.473,3.31,6.344v17.475c0,0.529,0.108,0.953,0.326,1.273
			c0.217,0.32,0.675,0.48,1.374,0.48c0.227,0,0.481-0.014,0.765-0.043c0.283-0.027,0.585-0.07,0.906-0.127v3.768
			c-0.793,0.227-1.397,0.367-1.812,0.424c-0.416,0.057-0.982,0.086-1.699,0.086c-1.756,0-3.03-0.623-3.823-1.869
			c-0.416-0.66-0.708-1.596-0.878-2.803c-1.039,1.359-2.53,2.539-4.475,3.539c-1.945,1-4.088,1.5-6.429,1.5
			c-2.813,0-5.112-0.854-6.896-2.559c-1.784-1.707-2.676-3.842-2.676-6.408c0-2.809,0.878-4.986,2.634-6.533
			c1.756-1.545,4.059-2.498,6.91-2.857L154.781,305.194z M144.047,318.966c1.076,0.848,2.351,1.271,3.823,1.271
			c1.793,0,3.53-0.416,5.211-1.244c2.832-1.377,4.248-3.629,4.248-6.758v-4.1c-0.622,0.396-1.423,0.729-2.402,0.994
			s-1.941,0.453-2.883,0.566l-3.081,0.396c-1.846,0.246-3.235,0.631-4.166,1.158c-1.577,0.887-2.365,2.299-2.365,4.238
			C142.433,316.96,142.971,318.118,144.047,318.966z"/>
		<path d="M174.22,281.948h17.988c4.903,0,8.39,1.453,10.462,4.361c1.216,1.717,1.824,3.699,1.824,5.947
			c0,2.623-0.746,4.775-2.237,6.457c-0.774,0.887-1.888,1.699-3.342,2.436c2.133,0.811,3.729,1.727,4.786,2.746
			c1.869,1.812,2.804,4.314,2.804,7.506c0,2.68-0.846,5.107-2.536,7.277c-2.526,3.248-6.544,4.871-12.053,4.871H174.22V281.948z
			 M190.102,299.534c2.404,0,4.273-0.33,5.609-0.99c2.098-1.039,3.148-2.908,3.148-5.607c0-2.719-1.116-4.551-3.348-5.494
			c-1.259-0.529-3.129-0.793-5.609-0.793h-10.159v12.885H190.102z M192.007,318.735c3.488,0,5.975-1,7.461-3.002
			c0.934-1.264,1.401-2.793,1.401-4.588c0-3.02-1.363-5.078-4.088-6.174c-1.449-0.584-3.364-0.877-5.746-0.877h-11.292v14.641
			H192.007z"/>
		<path d="M214.843,281.806h4.956v15.096c1.118-1.455,2.455-2.564,4.009-3.328c1.554-0.766,3.241-1.146,5.061-1.146
			c3.791,0,6.866,1.297,9.226,3.893c2.359,2.598,3.54,6.426,3.54,11.484c0,4.797-1.166,8.779-3.497,11.951s-5.563,4.758-9.694,4.758
			c-2.312,0-4.265-0.557-5.856-1.67c-0.948-0.662-1.962-1.719-3.042-3.172v3.879h-4.701V281.806z M234.334,316.726
			c1.374-2.191,2.061-5.08,2.061-8.666c0-3.191-0.687-5.834-2.061-7.93c-1.373-2.096-3.396-3.145-6.066-3.145
			c-2.33,0-4.371,0.859-6.124,2.578c-1.752,1.717-2.628,4.549-2.628,8.496c0,2.85,0.36,5.164,1.08,6.938
			c1.345,3.342,3.855,5.014,7.53,5.014C230.891,320.011,232.961,318.915,234.334,316.726z"/>
		<path d="M280.528,284.978c2.874,2.775,4.469,5.93,4.787,9.459h-5.494c-0.612-2.68-1.831-4.805-3.657-6.371
			c-1.827-1.568-4.39-2.352-7.69-2.352c-4.023,0-7.273,1.441-9.749,4.322c-2.475,2.883-3.712,7.299-3.712,13.252
			c0,4.875,1.117,8.828,3.353,11.861c2.234,3.033,5.568,4.549,10.001,4.549c4.08,0,7.187-1.596,9.32-4.785
			c1.131-1.682,1.975-3.891,2.532-6.627h5.494c-0.485,4.379-2.09,8.053-4.815,11.016c-3.266,3.568-7.671,5.354-13.213,5.354
			c-4.778,0-8.791-1.465-12.038-4.393c-4.274-3.873-6.411-9.854-6.411-17.939c0-6.139,1.604-11.174,4.814-15.104
			c3.471-4.27,8.257-6.404,14.359-6.404C273.615,280.815,277.655,282.202,280.528,284.978z"/>
		<path d="M315.247,294.833c2.143,1.662,3.431,4.521,3.866,8.582h-4.956c-0.302-1.869-0.991-3.422-2.067-4.66
			c-1.076-1.236-2.804-1.854-5.183-1.854c-3.248,0-5.57,1.584-6.967,4.752c-0.906,2.055-1.359,4.592-1.359,7.609
			c0,3.035,0.642,5.59,1.926,7.664c1.284,2.074,3.304,3.111,6.061,3.111c2.114,0,3.79-0.643,5.027-1.932
			c1.236-1.289,2.091-3.051,2.563-5.289h4.956c-0.566,4.021-1.982,6.961-4.248,8.82c-2.266,1.861-5.164,2.791-8.694,2.791
			c-3.965,0-7.127-1.449-9.487-4.348c-2.36-2.898-3.54-6.518-3.54-10.861c0-5.324,1.293-9.469,3.88-12.432
			c2.586-2.965,5.881-4.447,9.884-4.447C310.323,292.341,313.104,293.173,315.247,294.833z"/>
	</g>
	<g>
		<g>
			<path d="M414.805,185.461h4.955v14.964h18.612v-14.964h4.955v36.213h-4.955v-16.936H419.76v16.936h-4.955V185.461z"/>
			<path d="M466.856,196c1.748,0.879,3.08,2.018,3.994,3.414c0.883,1.331,1.469,2.884,1.764,4.659
				c0.262,1.216,0.393,3.155,0.393,5.817h-19.204c0.082,2.687,0.709,4.841,1.884,6.464c1.174,1.624,2.992,2.436,5.454,2.436
				c2.299,0,4.133-0.768,5.502-2.304c0.768-0.891,1.311-1.923,1.631-3.096h4.363c-0.115,0.971-0.498,2.051-1.146,3.242
				c-0.65,1.191-1.375,2.165-2.174,2.921c-1.336,1.315-2.992,2.202-4.966,2.662c-1.06,0.263-2.259,0.395-3.596,0.395
				c-3.266,0-6.035-1.195-8.305-3.587c-2.271-2.391-3.405-5.739-3.405-10.045c0-4.24,1.144-7.683,3.43-10.329
				c2.287-2.646,5.275-3.969,8.967-3.969C463.305,194.681,465.108,195.121,466.856,196z M468.446,206.366
				c-0.18-1.923-0.596-3.459-1.246-4.609c-1.207-2.137-3.219-3.205-6.039-3.205c-2.021,0-3.715,0.736-5.084,2.206
				c-1.369,1.472-2.094,3.341-2.176,5.608H468.446z"/>
			<path d="M478.75,185.461h4.438v36.213h-4.438V185.461z"/>
			<path d="M492.025,195.273l7.051,21.496l7.346-21.496h4.856l-9.939,26.401h-4.729l-9.737-26.401H492.025z"/>
			<path d="M531.395,196c1.748,0.879,3.079,2.018,3.993,3.414c0.883,1.331,1.47,2.884,1.765,4.659
				c0.261,1.216,0.392,3.155,0.392,5.817h-19.203c0.082,2.687,0.71,4.841,1.884,6.464c1.174,1.624,2.992,2.436,5.454,2.436
				c2.299,0,4.134-0.768,5.503-2.304c0.767-0.891,1.31-1.923,1.63-3.096h4.363c-0.115,0.971-0.498,2.051-1.146,3.242
				c-0.649,1.191-1.374,2.165-2.173,2.921c-1.337,1.315-2.993,2.202-4.966,2.662c-1.061,0.263-2.26,0.395-3.597,0.395
				c-3.267,0-6.034-1.195-8.305-3.587c-2.271-2.391-3.405-5.739-3.405-10.045c0-4.24,1.144-7.683,3.431-10.329
				c2.286-2.646,5.275-3.969,8.967-3.969C527.842,194.681,529.646,195.121,531.395,196z M532.983,206.366
				c-0.179-1.923-0.595-3.459-1.246-4.609c-1.206-2.137-3.219-3.205-6.038-3.205c-2.021,0-3.715,0.736-5.084,2.206
				c-1.369,1.472-2.095,3.341-2.176,5.608H532.983z"/>
			<path d="M544.052,187.902h4.486v7.371h4.216v3.624h-4.216v17.23c0,0.921,0.312,1.537,0.937,1.85
				c0.346,0.181,0.921,0.271,1.726,0.271c0.214,0,0.444-0.005,0.69-0.016s0.534-0.039,0.863-0.083v3.525
				c-0.51,0.147-1.04,0.255-1.591,0.32s-1.146,0.099-1.787,0.099c-2.07,0-3.476-0.53-4.215-1.59c-0.74-1.06-1.109-2.437-1.109-4.129
				v-17.478h-3.574v-3.624h3.574V187.902z"/>
			<path d="M557.19,185.461h4.512v5.029h-4.512V185.461z M557.19,195.396h4.512v26.278h-4.512V195.396z"/>
			<path d="M585.848,196.678c1.865,1.446,2.987,3.936,3.365,7.469h-4.313c-0.264-1.627-0.863-2.979-1.8-4.055
				s-2.44-1.615-4.512-1.615c-2.826,0-4.848,1.379-6.063,4.137c-0.789,1.789-1.184,3.997-1.184,6.623
				c0,2.643,0.559,4.867,1.676,6.673c1.118,1.806,2.876,2.708,5.275,2.708c1.841,0,3.3-0.561,4.376-1.683
				c1.076-1.121,1.82-2.655,2.231-4.604h4.313c-0.493,3.5-1.726,6.061-3.697,7.679c-1.973,1.619-4.495,2.429-7.568,2.429
				c-3.451,0-6.204-1.262-8.258-3.784c-2.055-2.522-3.082-5.674-3.082-9.454c0-4.635,1.126-8.241,3.378-10.822
				c2.251-2.579,5.118-3.87,8.603-3.87C581.562,194.508,583.982,195.232,585.848,196.678z"/>
			<path d="M607.801,205.697c1.019-0.131,1.701-0.558,2.046-1.28c0.197-0.396,0.296-0.965,0.296-1.707
				c0-1.518-0.538-2.619-1.612-3.304s-2.611-1.027-4.612-1.027c-2.312,0-3.953,0.628-4.921,1.883
				c-0.541,0.694-0.894,1.727-1.058,3.098h-4.141c0.082-3.264,1.136-5.534,3.163-6.812c2.027-1.276,4.379-1.915,7.055-1.915
				c3.102,0,5.622,0.591,7.559,1.774c1.921,1.184,2.881,3.024,2.881,5.522v15.21c0,0.461,0.095,0.83,0.283,1.109
				c0.189,0.279,0.588,0.418,1.196,0.418c0.197,0,0.419-0.012,0.665-0.036c0.247-0.025,0.51-0.062,0.789-0.111v3.278
				c-0.69,0.197-1.217,0.32-1.578,0.37c-0.361,0.049-0.854,0.074-1.479,0.074c-1.528,0-2.638-0.543-3.328-1.627
				c-0.361-0.575-0.616-1.389-0.764-2.44c-0.904,1.184-2.203,2.21-3.896,3.081s-3.559,1.307-5.596,1.307
				c-2.449,0-4.449-0.743-6.003-2.229c-1.553-1.485-2.329-3.344-2.329-5.576c0-2.446,0.764-4.342,2.293-5.688
				c1.528-1.346,3.533-2.175,6.015-2.487L607.801,205.697z M598.457,217.683c0.938,0.738,2.047,1.107,3.328,1.107
				c1.562,0,3.073-0.361,4.536-1.083c2.465-1.198,3.697-3.158,3.697-5.883v-3.568c-0.541,0.347-1.238,0.635-2.091,0.865
				c-0.853,0.231-1.689,0.396-2.51,0.494l-2.682,0.345c-1.606,0.213-2.815,0.55-3.626,1.009c-1.372,0.771-2.058,2-2.058,3.689
				C597.053,215.937,597.521,216.946,598.457,217.683z"/>
			<path d="M636.938,185.461h16.46c2.711,0,4.946,0.403,6.705,1.208c3.341,1.545,5.011,4.396,5.011,8.554
				c0,2.17-0.447,3.944-1.343,5.325c-0.896,1.38-2.149,2.489-3.76,3.328c1.413,0.575,2.478,1.331,3.192,2.268
				s1.113,2.457,1.195,4.561l0.173,4.856c0.049,1.38,0.164,2.407,0.345,3.081c0.296,1.15,0.822,1.891,1.578,2.219v0.813h-6.015
				c-0.165-0.312-0.296-0.715-0.395-1.208s-0.182-1.446-0.247-2.859l-0.296-6.04c-0.111-2.366-0.966-3.952-2.562-4.757
				c-0.91-0.444-2.339-0.666-4.287-0.666h-10.85v15.53h-4.905V185.461z M652.871,202.052c2.237,0,4.007-0.46,5.31-1.381
				c1.303-0.92,1.954-2.58,1.954-4.979c0-2.58-0.911-4.339-2.732-5.275c-0.976-0.493-2.277-0.739-3.908-0.739h-11.65v12.375H652.871
				z"/>
			<path d="M688.521,196c1.748,0.879,3.079,2.018,3.993,3.414c0.883,1.331,1.47,2.884,1.765,4.659
				c0.261,1.216,0.392,3.155,0.392,5.817h-19.203c0.082,2.687,0.71,4.841,1.884,6.464c1.174,1.624,2.992,2.436,5.454,2.436
				c2.299,0,4.134-0.768,5.503-2.304c0.767-0.891,1.31-1.923,1.63-3.096h4.363c-0.115,0.971-0.498,2.051-1.146,3.242
				c-0.649,1.191-1.374,2.165-2.173,2.921c-1.337,1.315-2.993,2.202-4.966,2.662c-1.061,0.263-2.26,0.395-3.597,0.395
				c-3.267,0-6.034-1.195-8.305-3.587c-2.271-2.391-3.405-5.739-3.405-10.045c0-4.24,1.144-7.683,3.431-10.329
				c2.286-2.646,5.275-3.969,8.967-3.969C684.969,194.681,686.773,195.121,688.521,196z M690.11,206.366
				c-0.179-1.923-0.595-3.459-1.246-4.609c-1.206-2.137-3.219-3.205-6.038-3.205c-2.021,0-3.715,0.736-5.084,2.206
				c-1.369,1.472-2.095,3.341-2.176,5.608H690.11z"/>
			<path d="M714.969,196.333c0.835,0.576,1.686,1.414,2.554,2.515v-3.328h4.092v24.011c0,3.353-0.491,5.998-1.474,7.938
				c-1.835,3.583-5.299,5.374-10.393,5.374c-2.834,0-5.217-0.637-7.149-1.91c-1.934-1.274-3.015-3.267-3.244-5.979h4.511
				c0.213,1.184,0.638,2.096,1.275,2.736c0.997,0.986,2.565,1.479,4.707,1.479c3.384,0,5.598-1.2,6.644-3.6
				c0.622-1.413,0.908-3.936,0.858-7.567c-0.884,1.348-1.947,2.351-3.191,3.007c-1.244,0.658-2.89,0.986-4.937,0.986
				c-2.848,0-5.341-1.015-7.477-3.044c-2.136-2.03-3.204-5.387-3.204-10.07c0-4.421,1.076-7.872,3.229-10.354
				c2.153-2.481,4.752-3.723,7.797-3.723C711.629,194.804,713.43,195.314,714.969,196.333z M715.512,201.09
				c-1.341-1.577-3.05-2.366-5.126-2.366c-3.107,0-5.232,1.463-6.377,4.388c-0.605,1.562-0.907,3.607-0.907,6.139
				c0,2.975,0.601,5.238,1.803,6.791c1.201,1.553,2.816,2.329,4.844,2.329c3.172,0,5.403-1.438,6.695-4.313
				c0.719-1.627,1.079-3.525,1.079-5.694C717.522,205.092,716.852,202.668,715.512,201.09z"/>
			<path d="M732.807,195.273V212.8c0,1.348,0.208,2.448,0.624,3.303c0.769,1.578,2.2,2.366,4.298,2.366
				c3.008,0,5.057-1.38,6.146-4.141c0.592-1.479,0.889-3.509,0.889-6.089v-12.967h4.437v26.401h-4.19l0.049-3.895
				c-0.564,1.002-1.267,1.849-2.104,2.539c-1.661,1.38-3.677,2.07-6.047,2.07c-3.693,0-6.209-1.257-7.547-3.771
				c-0.726-1.348-1.089-3.147-1.089-5.398v-17.946H732.807z"/>
			<path d="M756.57,185.461h4.438v36.213h-4.438V185.461z"/>
			<path d="M781.813,205.697c1.019-0.131,1.701-0.558,2.046-1.28c0.197-0.396,0.296-0.965,0.296-1.707
				c0-1.518-0.538-2.619-1.612-3.304s-2.611-1.027-4.612-1.027c-2.312,0-3.953,0.628-4.921,1.883
				c-0.541,0.694-0.894,1.727-1.058,3.098h-4.141c0.082-3.264,1.136-5.534,3.163-6.812c2.027-1.276,4.379-1.915,7.055-1.915
				c3.102,0,5.622,0.591,7.559,1.774c1.921,1.184,2.881,3.024,2.881,5.522v15.21c0,0.461,0.095,0.83,0.283,1.109
				c0.189,0.279,0.588,0.418,1.196,0.418c0.197,0,0.419-0.012,0.665-0.036c0.247-0.025,0.51-0.062,0.789-0.111v3.278
				c-0.69,0.197-1.217,0.32-1.578,0.37c-0.361,0.049-0.854,0.074-1.479,0.074c-1.528,0-2.638-0.543-3.328-1.627
				c-0.361-0.575-0.616-1.389-0.764-2.44c-0.904,1.184-2.203,2.21-3.896,3.081s-3.559,1.307-5.596,1.307
				c-2.449,0-4.449-0.743-6.003-2.229c-1.553-1.485-2.329-3.344-2.329-5.576c0-2.446,0.764-4.342,2.293-5.688
				c1.528-1.346,3.533-2.175,6.015-2.487L781.813,205.697z M772.47,217.683c0.938,0.738,2.047,1.107,3.328,1.107
				c1.562,0,3.073-0.361,4.536-1.083c2.465-1.198,3.697-3.158,3.697-5.883v-3.568c-0.541,0.347-1.238,0.635-2.091,0.865
				c-0.853,0.231-1.689,0.396-2.51,0.494l-2.682,0.345c-1.606,0.213-2.815,0.55-3.626,1.009c-1.372,0.771-2.058,2-2.058,3.689
				C771.065,215.937,771.533,216.946,772.47,217.683z"/>
			<path d="M795.864,195.273h4.216v4.561c0.345-0.888,1.191-1.968,2.539-3.242c1.348-1.273,2.9-1.91,4.659-1.91
				c0.082,0,0.222,0.009,0.419,0.024c0.197,0.017,0.534,0.05,1.011,0.099v4.684c-0.264-0.049-0.506-0.082-0.728-0.099
				c-0.222-0.016-0.465-0.024-0.728-0.024c-2.234,0-3.952,0.72-5.151,2.157c-1.2,1.438-1.8,3.094-1.8,4.967v15.186h-4.438V195.273z"
				/>
		</g>
		<g>
			<path d="M419.186,257.176h2.518l5.974,16.46h-2.443l-1.718-4.931h-6.458l-1.785,4.931h-2.286L419.186,257.176z M422.884,266.891
				l-2.534-7.272l-2.633,7.272H422.884z"/>
			<path d="M430.78,257.176h7.117c1.94,0,3.32,0.575,4.139,1.726c0.481,0.68,0.722,1.464,0.722,2.353
				c0,1.039-0.295,1.891-0.885,2.555c-0.307,0.352-0.747,0.673-1.322,0.964c0.844,0.321,1.475,0.684,1.894,1.087
				c0.74,0.717,1.109,1.707,1.109,2.97c0,1.061-0.334,2.021-1.003,2.879c-1,1.285-2.589,1.928-4.769,1.928h-7.001V257.176z
				 M437.064,264.134c0.951,0,1.691-0.131,2.219-0.393c0.83-0.41,1.246-1.149,1.246-2.218c0-1.076-0.441-1.801-1.325-2.174
				c-0.498-0.209-1.238-0.314-2.219-0.314h-4.02v5.099H437.064z M437.818,271.73c1.38,0,2.364-0.396,2.952-1.188
				c0.37-0.5,0.554-1.105,0.554-1.815c0-1.194-0.539-2.009-1.617-2.442c-0.573-0.231-1.331-0.348-2.274-0.348h-4.468v5.793H437.818z
				"/>
			<path d="M458.932,258.374c1.137,1.099,1.768,2.346,1.894,3.743h-2.174c-0.242-1.061-0.724-1.901-1.447-2.521
				s-1.737-0.93-3.043-0.93c-1.592,0-2.877,0.569-3.857,1.71c-0.979,1.14-1.469,2.888-1.469,5.243c0,1.929,0.442,3.493,1.326,4.693
				c0.884,1.199,2.203,1.8,3.957,1.8c1.614,0,2.844-0.632,3.688-1.895c0.448-0.664,0.781-1.538,1.002-2.622h2.173
				c-0.192,1.733-0.827,3.187-1.905,4.359c-1.292,1.412-3.035,2.117-5.228,2.117c-1.891,0-3.478-0.579-4.763-1.737
				c-1.691-1.532-2.537-3.898-2.537-7.098c0-2.43,0.635-4.421,1.905-5.977c1.373-1.688,3.267-2.533,5.681-2.533
				C456.196,256.728,457.795,257.276,458.932,258.374z"/>
			<path d="M465.11,257.176h6.579c2.234,0,3.966,0.803,5.197,2.409c1.099,1.449,1.647,3.305,1.647,5.568
				c0,1.748-0.324,3.328-0.973,4.74c-1.143,2.495-3.107,3.742-5.894,3.742h-6.558V257.176z M471.252,271.73
				c0.738,0,1.345-0.078,1.819-0.235c0.847-0.291,1.541-0.852,2.081-1.681c0.432-0.664,0.742-1.516,0.932-2.555
				c0.109-0.62,0.164-1.195,0.164-1.726c0-2.039-0.396-3.623-1.188-4.751s-2.068-1.691-3.829-1.691h-3.868v12.639H471.252z"/>
			<path d="M482.942,257.176h11.944v2.017h-9.771v4.997h9.031v1.905h-9.031v5.58h9.938v1.961h-12.112V257.176z"/>
			<path d="M499.396,257.176h11.418v2.017h-9.188v4.997h8.079v1.961h-8.079v7.485h-2.229V257.176z"/>
			<path d="M525.305,257.646c1.612,0.858,2.599,2.364,2.96,4.516h-2.208c-0.263-1.203-0.808-2.079-1.635-2.628
				s-1.869-0.823-3.127-0.823c-1.492,0-2.749,0.571-3.77,1.714s-1.53,2.847-1.53,5.109c0,1.957,0.421,3.551,1.263,4.779
				s2.214,1.843,4.118,1.843c1.456,0,2.662-0.431,3.618-1.294c0.955-0.862,1.443-2.258,1.466-4.185h-5.154v-1.85h7.228v8.808h-1.435
				l-0.537-2.118c-0.743,0.829-1.4,1.405-1.974,1.726c-0.963,0.553-2.186,0.829-3.67,0.829c-1.918,0-3.568-0.631-4.949-1.894
				c-1.507-1.583-2.26-3.757-2.26-6.521c0-2.756,0.736-4.948,2.209-6.577c1.398-1.554,3.21-2.33,5.434-2.33
				C522.875,256.75,524.193,257.049,525.305,257.646z"/>
			<path d="M533.401,257.176h2.253v6.801h8.46v-6.801h2.252v16.46h-2.252v-7.698h-8.46v7.698h-2.253V257.176z"/>
			<path d="M551.569,257.176h2.253v16.46h-2.253V257.176z"/>
			<path d="M566.678,268.728c0,1.39-0.205,2.47-0.617,3.238c-0.763,1.405-2.214,2.106-4.353,2.106c-1.233,0-2.288-0.334-3.163-1.002
				c-0.875-0.669-1.312-1.858-1.312-3.569v-1.177h2.095v1.177c0,0.896,0.2,1.57,0.601,2.022c0.401,0.452,1.024,0.678,1.87,0.678
				c1.19,0,1.969-0.407,2.336-1.221c0.225-0.501,0.337-1.445,0.337-2.835v-10.97h2.207V268.728z"/>
			<path d="M571.21,257.176h2.174v8.057l8.235-8.057h3.117l-7.033,6.643l7.179,9.817h-2.918l-5.897-8.271l-2.683,2.534v5.737h-2.174
				V257.176z"/>
			<path d="M587.607,257.176h3.194l4.732,13.916l4.7-13.916h3.172v16.46h-2.129v-9.715c0-0.336,0.007-0.893,0.022-1.67
				c0.015-0.776,0.022-1.609,0.022-2.498l-4.699,13.883h-2.21l-4.744-13.883v0.504c0,0.403,0.011,1.018,0.033,1.843
				c0.022,0.826,0.034,1.433,0.034,1.821v9.715h-2.129V257.176z"/>
			<path d="M607.927,257.176h2.627l8.208,13.299v-13.299h2.129v16.46h-2.505l-8.33-13.283v13.283h-2.129V257.176z"/>
			<path d="M639.205,259.528c1.09,1.457,1.636,3.32,1.636,5.592c0,2.457-0.624,4.501-1.871,6.129
				c-1.465,1.912-3.553,2.868-6.264,2.868c-2.533,0-4.523-0.836-5.973-2.51c-1.293-1.613-1.938-3.652-1.938-6.118
				c0-2.226,0.553-4.131,1.658-5.714c1.419-2.032,3.519-3.048,6.297-3.048C635.656,256.728,637.808,257.661,639.205,259.528z
				 M637.238,270.021c0.878-1.409,1.316-3.03,1.316-4.861c0-1.937-0.506-3.495-1.519-4.677c-1.012-1.182-2.396-1.771-4.151-1.771
				c-1.703,0-3.093,0.585-4.168,1.755c-1.076,1.17-1.613,2.895-1.613,5.175c0,1.825,0.461,3.363,1.384,4.615
				c0.922,1.252,2.418,1.878,4.487,1.878C634.939,272.134,636.36,271.43,637.238,270.021z"/>
			<path d="M644.856,257.176h7.366c1.455,0,2.631,0.412,3.526,1.238c0.896,0.825,1.344,1.984,1.344,3.479
				c0,1.285-0.4,2.403-1.199,3.356c-0.799,0.952-2.021,1.429-3.668,1.429h-5.14v6.958h-2.229V257.176z M653.505,259.438
				c-0.489-0.231-1.16-0.347-2.014-0.347h-4.405v5.703h4.405c0.994,0,1.801-0.213,2.42-0.639s0.929-1.177,0.929-2.252
				C654.84,260.693,654.396,259.872,653.505,259.438z"/>
			<path d="M676.156,273.591l-1.117,1.353l-2.549-1.935c-0.612,0.336-1.275,0.605-1.989,0.807c-0.713,0.201-1.491,0.302-2.335,0.302
				c-2.555,0-4.557-0.836-6.005-2.51c-1.277-1.628-1.916-3.668-1.916-6.118c0-2.226,0.553-4.131,1.658-5.714
				c1.419-2.032,3.519-3.048,6.297-3.048c2.906,0,5.058,0.934,6.455,2.8c1.09,1.457,1.636,3.32,1.636,5.591
				c0,1.061-0.131,2.079-0.392,3.058c-0.396,1.494-1.063,2.711-2.003,3.652L676.156,273.591z M669.747,272.038
				c0.404-0.064,0.756-0.191,1.055-0.38l-1.816-1.408l1.12-1.379l2.147,1.675c0.682-0.777,1.144-1.649,1.387-2.613
				c0.243-0.965,0.365-1.889,0.365-2.771c0-1.938-0.506-3.496-1.519-4.678c-1.012-1.182-2.396-1.772-4.151-1.772
				c-1.777,0-3.186,0.566-4.225,1.698c-1.038,1.133-1.557,2.877-1.557,5.231c0,1.981,0.499,3.56,1.498,4.733
				c0.998,1.174,2.463,1.76,4.394,1.76C668.909,272.134,669.343,272.103,669.747,272.038z"/>
			<path d="M680.362,257.176h7.482c1.232,0,2.248,0.183,3.048,0.549c1.519,0.702,2.277,1.998,2.277,3.888
				c0,0.986-0.203,1.793-0.61,2.421c-0.407,0.627-0.977,1.132-1.709,1.513c0.643,0.262,1.126,0.604,1.451,1.03
				s0.506,1.117,0.543,2.073l0.079,2.207c0.022,0.628,0.074,1.095,0.156,1.401c0.135,0.522,0.374,0.858,0.718,1.008v0.37h-2.734
				c-0.075-0.142-0.135-0.325-0.18-0.549c-0.044-0.225-0.082-0.657-0.111-1.3l-0.135-2.745c-0.051-1.076-0.439-1.797-1.165-2.163
				c-0.414-0.201-1.063-0.303-1.948-0.303h-4.932v7.06h-2.23V257.176z M687.605,264.717c1.017,0,1.821-0.209,2.413-0.628
				c0.592-0.418,0.888-1.173,0.888-2.264c0-1.172-0.414-1.972-1.242-2.397c-0.443-0.225-1.035-0.336-1.775-0.336h-5.296v5.625
				H687.605z"/>
			<path d="M699.271,268.324c0.05,0.935,0.262,1.692,0.637,2.275c0.712,1.09,1.968,1.636,3.767,1.636c0.806,0,1.54-0.12,2.202-0.358
				c1.281-0.464,1.921-1.293,1.921-2.488c0-0.896-0.271-1.535-0.813-1.916c-0.551-0.373-1.411-0.698-2.584-0.975l-2.16-0.504
				c-1.411-0.329-2.409-0.691-2.996-1.087c-1.013-0.688-1.52-1.715-1.52-3.082c0-1.479,0.498-2.692,1.494-3.642
				c0.996-0.948,2.406-1.423,4.23-1.423c1.68,0,3.105,0.417,4.28,1.249c1.174,0.833,1.761,2.165,1.761,3.995h-2.096
				c-0.107-0.882-0.337-1.558-0.688-2.028c-0.651-0.858-1.758-1.288-3.319-1.288c-1.261,0-2.167,0.276-2.718,0.829
				c-0.552,0.553-0.827,1.195-0.827,1.927c0,0.807,0.325,1.397,0.977,1.771c0.428,0.239,1.394,0.538,2.899,0.896l2.236,0.526
				c1.078,0.254,1.911,0.602,2.497,1.042c1.013,0.77,1.52,1.887,1.52,3.351c0,1.823-0.646,3.126-1.939,3.911
				c-1.293,0.784-2.796,1.176-4.508,1.176c-1.996,0-3.559-0.522-4.688-1.568c-1.13-1.038-1.684-2.446-1.661-4.225H699.271z"/>
			<path d="M726.234,257.176v1.961h-5.546v14.499h-2.253v-14.499h-5.546v-1.961H726.234z"/>
			<path d="M731.842,257.176v10.174c0,1.195,0.226,2.188,0.678,2.98c0.67,1.195,1.8,1.793,3.389,1.793
				c1.904,0,3.199-0.646,3.885-1.938c0.369-0.702,0.554-1.647,0.554-2.835v-10.174h2.252v9.244c0,2.024-0.273,3.582-0.821,4.672
				c-1.004,1.987-2.9,2.98-5.688,2.98c-2.789,0-4.682-0.993-5.679-2.98c-0.547-1.09-0.82-2.647-0.82-4.672v-9.244H731.842z"/>
			<path d="M748.458,257.176l4.729,14.018l4.672-14.018h2.499l-6.006,16.46h-2.364l-5.995-16.46H748.458z"/>
			<path d="M764.698,257.176l3.103,13.373l3.721-13.373h2.41l3.729,13.398l3.104-13.398h2.444l-4.325,16.46h-2.342l-3.799-13.647
				l-3.821,13.647h-2.342l-4.303-16.46H764.698z"/>
			<path d="M787.799,273.636h-2.68l5.826-8.444l-5.461-8.016h2.78l4.152,6.297l4.12-6.297h2.646l-5.459,8.016l5.726,8.444h-2.758
				l-4.386-6.768L787.799,273.636z"/>
			<path d="M801.596,257.176h2.601l4.731,7.91l4.732-7.91h2.622l-6.233,9.826v6.634h-2.23v-6.634L801.596,257.176z"/>
			<path d="M818.099,271.787l10.122-12.65h-9.382v-1.961h12.258v1.916l-10.183,12.583h10.183v1.961h-12.998V271.787z"/>
		</g>
		<g>
			<path d="M420.546,294.142c0.463-0.059,0.773-0.254,0.93-0.582c0.09-0.18,0.134-0.438,0.134-0.775
				c0-0.689-0.244-1.189-0.732-1.502c-0.488-0.311-1.187-0.467-2.097-0.467c-1.051,0-1.797,0.285-2.236,0.855
				c-0.246,0.316-0.406,0.785-0.481,1.408h-1.882c0.037-1.482,0.517-2.516,1.438-3.096s1.99-0.871,3.207-0.871
				c1.41,0,2.555,0.27,3.436,0.807c0.873,0.539,1.309,1.375,1.309,2.51v6.914c0,0.211,0.043,0.379,0.129,0.504
				c0.086,0.127,0.267,0.191,0.543,0.191c0.09,0,0.19-0.006,0.303-0.018c0.112-0.012,0.231-0.027,0.358-0.049v1.488
				c-0.313,0.09-0.553,0.146-0.717,0.168c-0.164,0.023-0.388,0.035-0.672,0.035c-0.695,0-1.199-0.248-1.513-0.74
				c-0.165-0.262-0.28-0.631-0.348-1.109c-0.411,0.539-1.001,1.006-1.771,1.4c-0.769,0.396-1.617,0.594-2.543,0.594
				c-1.113,0-2.022-0.338-2.729-1.012c-0.706-0.676-1.059-1.521-1.059-2.535c0-1.111,0.347-1.973,1.042-2.586
				c0.695-0.611,1.606-0.988,2.734-1.129L420.546,294.142z M416.299,299.591c0.426,0.336,0.93,0.504,1.513,0.504
				c0.709,0,1.397-0.164,2.062-0.492c1.121-0.545,1.681-1.438,1.681-2.674v-1.623c-0.246,0.158-0.563,0.289-0.951,0.393
				c-0.388,0.105-0.768,0.182-1.141,0.225l-1.219,0.158c-0.731,0.096-1.28,0.25-1.648,0.457c-0.624,0.352-0.936,0.91-0.936,1.678
				C415.661,298.798,415.874,299.255,416.299,299.591z"/>
			<path d="M427.856,284.888h1.961v5.973c0.442-0.574,0.971-1.014,1.586-1.316s1.283-0.453,2.002-0.453
				c1.5,0,2.716,0.514,3.65,1.541c0.934,1.027,1.4,2.541,1.4,4.543c0,1.896-0.461,3.473-1.384,4.729s-2.201,1.883-3.835,1.883
				c-0.915,0-1.688-0.221-2.317-0.662c-0.375-0.262-0.776-0.68-1.204-1.254v1.535h-1.86V284.888z M435.568,298.704
				c0.543-0.867,0.815-2.01,0.815-3.428c0-1.264-0.271-2.309-0.815-3.139c-0.543-0.828-1.344-1.244-2.4-1.244
				c-0.922,0-1.729,0.342-2.423,1.02c-0.693,0.682-1.04,1.801-1.04,3.363c0,1.127,0.143,2.043,0.427,2.744
				c0.532,1.322,1.525,1.984,2.979,1.984C434.206,300.005,435.025,299.571,435.568,298.704z"/>
			<path d="M449.862,290.042c0.848,0.658,1.357,1.789,1.529,3.396h-1.961c-0.119-0.74-0.392-1.354-0.818-1.844
				c-0.426-0.488-1.109-0.734-2.05-0.734c-1.285,0-2.204,0.627-2.757,1.881c-0.358,0.812-0.538,1.816-0.538,3.01
				c0,1.201,0.254,2.213,0.762,3.033c0.508,0.82,1.307,1.23,2.398,1.23c0.837,0,1.5-0.254,1.989-0.764
				c0.489-0.51,0.827-1.207,1.014-2.094h1.961c-0.224,1.592-0.784,2.756-1.681,3.492c-0.896,0.734-2.043,1.104-3.44,1.104
				c-1.569,0-2.82-0.574-3.754-1.721c-0.934-1.146-1.4-2.578-1.4-4.297c0-2.107,0.512-3.746,1.535-4.92
				c1.023-1.172,2.327-1.758,3.911-1.758C447.914,289.058,449.014,289.386,449.862,290.042z"/>
			<path d="M461.149,289.774c0.357,0.223,0.763,0.615,1.217,1.176v-6.062h1.938v16.518h-1.815v-1.67
				c-0.469,0.74-1.023,1.273-1.663,1.602c-0.64,0.33-1.373,0.494-2.199,0.494c-1.332,0-2.485-0.562-3.46-1.688
				c-0.975-1.123-1.462-2.619-1.462-4.486c0-1.748,0.444-3.264,1.334-4.545c0.889-1.281,2.16-1.922,3.812-1.922
				C459.765,289.19,460.531,289.386,461.149,289.774z M456.647,298.772c0.542,0.865,1.412,1.299,2.609,1.299
				c0.929,0,1.692-0.402,2.291-1.205c0.598-0.803,0.897-1.955,0.897-3.457c0-1.516-0.309-2.639-0.925-3.367
				c-0.617-0.727-1.379-1.092-2.286-1.092c-1.011,0-1.831,0.389-2.458,1.166s-0.942,1.92-0.942,3.428
				C455.833,296.829,456.104,297.905,456.647,298.772z"/>
			<path d="M475.878,289.735c0.794,0.398,1.399,0.916,1.815,1.551c0.4,0.605,0.668,1.311,0.802,2.119
				c0.118,0.553,0.178,1.434,0.178,2.643h-8.729c0.037,1.223,0.322,2.201,0.856,2.939c0.533,0.738,1.359,1.107,2.479,1.107
				c1.046,0,1.88-0.35,2.502-1.047c0.349-0.406,0.596-0.875,0.74-1.408h1.983c-0.052,0.441-0.226,0.932-0.521,1.475
				c-0.295,0.541-0.625,0.982-0.987,1.326c-0.608,0.598-1.361,1.002-2.258,1.211c-0.482,0.119-1.027,0.18-1.635,0.18
				c-1.484,0-2.743-0.543-3.774-1.631c-1.032-1.086-1.548-2.609-1.548-4.566c0-1.928,0.52-3.492,1.559-4.695
				c1.039-1.201,2.398-1.803,4.076-1.803C474.263,289.136,475.083,289.335,475.878,289.735z M476.601,294.446
				c-0.082-0.873-0.271-1.572-0.567-2.096c-0.548-0.971-1.463-1.457-2.744-1.457c-0.918,0-1.688,0.336-2.311,1.004
				c-0.623,0.668-0.952,1.518-0.989,2.549H476.601z"/>
			<path d="M483.316,285.739c0.471-0.686,1.379-1.029,2.724-1.029c0.127,0,0.257,0.004,0.392,0.01
				c0.135,0.008,0.288,0.02,0.46,0.035v1.836c-0.212-0.014-0.365-0.023-0.459-0.027c-0.095-0.004-0.184-0.006-0.267-0.006
				c-0.619,0-0.989,0.16-1.11,0.477c-0.121,0.318-0.182,1.127-0.182,2.426h2.018v1.592h-2.018v10.354h-1.994v-10.354h-1.67v-1.592
				h1.67v-1.883C482.909,286.741,483.056,286.128,483.316,285.739z"/>
			<path d="M496.57,289.886c0.38,0.262,0.767,0.643,1.161,1.143v-1.512h1.86v10.914c0,1.523-0.224,2.727-0.67,3.607
				c-0.834,1.629-2.409,2.443-4.725,2.443c-1.288,0-2.371-0.291-3.25-0.869c-0.878-0.578-1.369-1.484-1.474-2.717h2.05
				c0.097,0.537,0.29,0.951,0.58,1.244c0.453,0.447,1.166,0.672,2.14,0.672c1.538,0,2.544-0.545,3.02-1.637
				c0.282-0.643,0.413-1.789,0.391-3.439c-0.402,0.613-0.886,1.068-1.451,1.367s-1.313,0.447-2.243,0.447
				c-1.295,0-2.428-0.461-3.399-1.383c-0.971-0.924-1.456-2.449-1.456-4.578c0-2.01,0.489-3.578,1.468-4.705
				c0.979-1.129,2.159-1.693,3.544-1.693C495.053,289.19,495.871,289.423,496.57,289.886z M496.817,292.048
				c-0.609-0.717-1.386-1.074-2.33-1.074c-1.412,0-2.378,0.664-2.898,1.994c-0.275,0.709-0.412,1.639-0.412,2.789
				c0,1.354,0.272,2.381,0.819,3.088c0.546,0.705,1.28,1.059,2.201,1.059c1.442,0,2.456-0.654,3.044-1.961
				c0.326-0.74,0.49-1.602,0.49-2.588C497.731,293.868,497.427,292.767,496.817,292.048z"/>
			<path d="M503.81,284.888h2.017v6.141c0.478-0.605,0.907-1.031,1.288-1.277c0.65-0.426,1.461-0.639,2.432-0.639
				c1.741,0,2.921,0.609,3.541,1.826c0.336,0.666,0.504,1.588,0.504,2.768v7.699h-2.072v-7.564c0-0.881-0.112-1.527-0.337-1.938
				c-0.365-0.658-1.053-0.986-2.062-0.986c-0.837,0-1.595,0.287-2.274,0.863c-0.68,0.574-1.02,1.662-1.02,3.26v6.365h-2.017V284.888
				z"/>
			<path d="M517.72,284.944h2.05v2.285h-2.05V284.944z M517.72,289.46h2.05v11.945h-2.05V289.46z"/>
			<path d="M522.06,304.44c0.903-0.029,1.447-0.109,1.63-0.24c0.184-0.131,0.275-0.539,0.275-1.227V289.46h2.017v13.727
				c0,0.873-0.142,1.527-0.426,1.961c-0.471,0.732-1.363,1.098-2.678,1.098c-0.098,0-0.2-0.004-0.309-0.012
				c-0.108-0.006-0.278-0.021-0.51-0.045V304.44z M525.981,287.274h-2.017v-2.33h2.017V287.274z"/>
			<path d="M530.166,284.944h1.938v9.557l5.172-5.098h2.576l-4.612,4.463l4.871,7.539h-2.576l-3.774-6.107l-1.656,1.602v4.506
				h-1.938V284.944z"/>
			<path d="M542.832,289.403h1.994v1.703c0.478-0.59,0.911-1.02,1.3-1.287c0.665-0.457,1.419-0.684,2.264-0.684
				c0.956,0,1.726,0.234,2.308,0.705c0.329,0.27,0.628,0.666,0.896,1.188c0.448-0.643,0.976-1.117,1.58-1.428
				c0.605-0.311,1.285-0.465,2.039-0.465c1.614,0,2.712,0.582,3.295,1.748c0.313,0.627,0.471,1.471,0.471,2.531v7.99h-2.096v-8.338
				c0-0.799-0.2-1.348-0.6-1.646s-0.887-0.447-1.462-0.447c-0.792,0-1.474,0.264-2.045,0.795s-0.857,1.416-0.857,2.656v6.98h-2.051
				v-7.832c0-0.814-0.097-1.408-0.291-1.783c-0.307-0.559-0.878-0.84-1.715-0.84c-0.762,0-1.454,0.295-2.078,0.885
				c-0.624,0.592-0.936,1.658-0.936,3.205v6.365h-2.017V289.403z"/>
			<path d="M563.096,289.403h1.916v1.703c0.567-0.701,1.169-1.205,1.804-1.512s1.341-0.459,2.118-0.459
				c1.703,0,2.853,0.594,3.451,1.781c0.328,0.65,0.492,1.58,0.492,2.789v7.699h-2.05v-7.564c0-0.732-0.108-1.322-0.325-1.77
				c-0.358-0.748-1.009-1.121-1.95-1.121c-0.478,0-0.87,0.049-1.176,0.146c-0.554,0.164-1.039,0.492-1.457,0.986
				c-0.336,0.395-0.555,0.805-0.655,1.227s-0.151,1.025-0.151,1.809v6.287h-2.017V289.403z"/>
			<path d="M585.7,290.603c1.062,1.029,1.592,2.545,1.592,4.545c0,1.934-0.468,3.529-1.402,4.791s-2.385,1.893-4.351,1.893
				c-1.64,0-2.94-0.559-3.905-1.674c-0.964-1.115-1.446-2.615-1.446-4.496c0-2.014,0.508-3.619,1.524-4.812
				c1.016-1.195,2.381-1.791,4.095-1.791C583.342,289.058,584.64,289.571,585.7,290.603z M584.448,298.577
				c0.491-1.01,0.737-2.135,0.737-3.375c0-1.117-0.178-2.029-0.532-2.73c-0.562-1.104-1.529-1.656-2.903-1.656
				c-1.219,0-2.104,0.471-2.658,1.41c-0.555,0.941-0.831,2.074-0.831,3.402c0,1.277,0.276,2.34,0.831,3.189
				c0.554,0.852,1.433,1.277,2.637,1.277C583.051,300.095,583.957,299.589,584.448,298.577z"/>
			<path d="M590.747,289.46h1.973v1.592c0.404-0.545,0.847-0.969,1.325-1.268c0.682-0.447,1.483-0.672,2.404-0.672
				c1.363,0,2.521,0.521,3.472,1.564c0.951,1.041,1.427,2.529,1.427,4.465c0,2.613-0.687,4.482-2.059,5.602
				c-0.87,0.711-1.883,1.064-3.037,1.064c-0.907,0-1.669-0.197-2.284-0.594c-0.359-0.225-0.761-0.607-1.203-1.154v6.129h-2.018
				V289.46z M598.336,298.866c0.626-0.787,0.938-1.967,0.938-3.535c0-0.955-0.139-1.777-0.416-2.465
				c-0.524-1.322-1.484-1.982-2.878-1.982c-1.401,0-2.361,0.697-2.879,2.096c-0.277,0.746-0.416,1.695-0.416,2.846
				c0,0.926,0.139,1.713,0.416,2.363c0.525,1.24,1.484,1.861,2.879,1.861C596.925,300.05,597.71,299.655,598.336,298.866z"/>
			<path d="M611.595,289.886c0.373,0.27,0.731,0.666,1.074,1.188v-1.67h1.905v16.785h-2.017v-6.162
				c-0.336,0.537-0.801,0.965-1.394,1.283s-1.334,0.477-2.222,0.477c-1.275,0-2.417-0.5-3.424-1.502
				c-1.007-1-1.511-2.525-1.511-4.572c0-1.92,0.472-3.496,1.415-4.729c0.944-1.232,2.166-1.848,3.665-1.848
				C610.08,289.136,610.916,289.386,611.595,289.886z M606.551,298.177c0.515,1.248,1.436,1.873,2.763,1.873
				c1.402,0,2.368-0.658,2.897-1.973c0.29-0.725,0.436-1.65,0.436-2.779c0-1.037-0.16-1.904-0.48-2.6
				c-0.545-1.188-1.503-1.781-2.875-1.781c-0.872,0-1.62,0.379-2.242,1.137c-0.623,0.758-0.935,1.93-0.935,3.514
				C606.114,296.604,606.26,297.476,606.551,298.177z"/>
			<path d="M618.791,289.403h1.916v2.074c0.157-0.404,0.542-0.895,1.154-1.475c0.612-0.578,1.318-0.867,2.117-0.867
				c0.038,0,0.102,0.004,0.19,0.01c0.09,0.008,0.243,0.023,0.46,0.045v2.129c-0.12-0.021-0.229-0.037-0.331-0.045
				c-0.101-0.006-0.211-0.01-0.33-0.01c-1.016,0-1.797,0.326-2.342,0.98c-0.546,0.652-0.818,1.406-0.818,2.258v6.902h-2.017V289.403
				z"/>
			<path d="M628.724,297.64c0.062,0.672,0.232,1.188,0.515,1.547c0.519,0.65,1.418,0.975,2.699,0.975
				c0.763,0,1.434-0.162,2.013-0.488c0.579-0.324,0.869-0.826,0.869-1.506c0-0.516-0.231-0.908-0.694-1.178
				c-0.297-0.164-0.881-0.354-1.754-0.57l-1.628-0.404c-1.04-0.254-1.808-0.537-2.301-0.852c-0.881-0.545-1.32-1.299-1.32-2.264
				c0-1.135,0.414-2.053,1.243-2.756c0.828-0.701,1.943-1.053,3.344-1.053c1.832,0,3.153,0.529,3.963,1.59
				c0.508,0.674,0.754,1.398,0.738,2.174h-1.904c-0.038-0.453-0.203-0.865-0.493-1.236c-0.475-0.527-1.297-0.791-2.467-0.791
				c-0.779,0-1.37,0.145-1.771,0.436s-0.603,0.674-0.603,1.15c0,0.52,0.264,0.938,0.792,1.25c0.304,0.186,0.753,0.35,1.347,0.492
				l1.358,0.324c1.477,0.352,2.466,0.691,2.969,1.02c0.784,0.516,1.177,1.326,1.177,2.432c0,1.068-0.411,1.992-1.231,2.768
				c-0.82,0.777-2.07,1.166-3.749,1.166c-1.808,0-3.088-0.406-3.84-1.215c-0.753-0.811-1.156-1.814-1.209-3.01H628.724z"/>
			<path d="M640.55,286.054h2.039v3.35h1.916v1.648h-1.916v7.832c0,0.418,0.142,0.699,0.426,0.84
				c0.157,0.082,0.418,0.123,0.784,0.123c0.097,0,0.202-0.002,0.313-0.006c0.112-0.006,0.243-0.018,0.393-0.039v1.604
				c-0.231,0.066-0.473,0.115-0.723,0.145c-0.25,0.031-0.521,0.045-0.812,0.045c-0.941,0-1.58-0.24-1.916-0.723
				c-0.336-0.48-0.504-1.107-0.504-1.877v-7.943h-1.625v-1.648h1.625V286.054z"/>
			<path d="M649.687,289.403v7.967c0,0.613,0.095,1.113,0.284,1.502c0.349,0.717,1,1.076,1.953,1.076
				c1.367,0,2.299-0.627,2.793-1.883c0.27-0.672,0.404-1.594,0.404-2.768v-5.895h2.017v12.002h-1.904l0.021-1.771
				c-0.257,0.457-0.575,0.842-0.956,1.154c-0.756,0.627-1.672,0.941-2.749,0.941c-1.679,0-2.822-0.57-3.431-1.715
				c-0.329-0.611-0.494-1.43-0.494-2.453v-8.158H649.687z"/>
			<path d="M662.57,289.403l3.205,9.771l3.339-9.771h2.207l-4.518,12.002h-2.149l-4.426-12.002H662.57z"/>
			<path d="M675.137,289.403l2.308,9.457l2.342-9.457h2.264l2.354,9.402l2.453-9.402h2.018l-3.485,12.002h-2.095l-2.443-9.289
				l-2.364,9.289h-2.095l-3.463-12.002H675.137z"/>
			<path d="M690.777,289.403h2.611l2.756,4.225l2.79-4.225l2.454,0.057l-4.045,5.793l4.225,6.152h-2.577l-2.98-4.506l-2.892,4.506
				h-2.555l4.225-6.152L690.777,289.403z"/>
			<path d="M712.043,289.403h2.23c-0.284,0.771-0.915,2.527-1.894,5.27c-0.732,2.062-1.345,3.744-1.838,5.045
				c-1.164,3.061-1.985,4.926-2.463,5.598s-1.299,1.008-2.463,1.008c-0.283,0-0.502-0.01-0.655-0.033
				c-0.152-0.021-0.341-0.062-0.565-0.123v-1.838c0.351,0.098,0.604,0.156,0.761,0.18c0.156,0.021,0.295,0.033,0.414,0.033
				c0.373,0,0.646-0.061,0.822-0.184c0.175-0.123,0.322-0.275,0.442-0.453c0.037-0.061,0.171-0.365,0.402-0.918
				c0.23-0.551,0.398-0.961,0.503-1.23l-4.437-12.354h2.285l3.216,9.775L712.043,289.403z"/>
			<path d="M716.268,299.813l7.126-8.605h-6.6v-1.805h9.312v1.648l-7.08,8.549h7.293v1.805h-10.051V299.813z"/>
		</g>
		<g>
			<path d="M424.702,317.845c0.717,1.322,1.076,3.134,1.076,5.435c0,2.181-0.325,3.985-0.975,5.412
				c-0.941,2.047-2.48,3.069-4.617,3.069c-1.927,0-3.361-0.836-4.303-2.51c-0.784-1.396-1.176-3.271-1.176-5.625
				c0-1.822,0.235-3.388,0.706-4.694c0.881-2.436,2.477-3.653,4.785-3.653C422.274,315.278,423.776,316.134,424.702,317.845z
				 M422.673,328.534c0.621-0.926,0.931-2.651,0.931-5.177c0-1.822-0.225-3.322-0.673-4.499s-1.321-1.765-2.615-1.765
				c-1.19,0-2.06,0.559-2.61,1.675c-0.55,1.117-0.825,2.763-0.825,4.937c0,1.636,0.176,2.95,0.527,3.944
				c0.539,1.516,1.459,2.274,2.761,2.274C421.217,329.924,422.051,329.461,422.673,328.534z"/>
			<path d="M430.097,319.962v-1.546c1.457-0.142,2.472-0.379,3.048-0.712c0.575-0.332,1.004-1.118,1.289-2.358h1.591v15.979h-2.151
				v-11.362H430.097z"/>
			<path d="M443.384,327.716c0.497-1.023,1.466-1.953,2.908-2.79l2.151-1.243c0.964-0.561,1.64-1.039,2.028-1.436
				c0.612-0.621,0.919-1.332,0.919-2.133c0-0.937-0.28-1.679-0.84-2.229c-0.561-0.551-1.308-0.825-2.241-0.825
				c-1.382,0-2.338,0.524-2.869,1.573c-0.284,0.562-0.441,1.341-0.471,2.337h-2.05c0.022-1.396,0.28-2.536,0.773-3.418
				c0.874-1.554,2.417-2.33,4.628-2.33c1.837,0,3.18,0.497,4.028,1.49c0.848,0.993,1.271,2.099,1.271,3.316
				c0,1.285-0.452,2.383-1.355,3.295c-0.523,0.53-1.461,1.173-2.812,1.927l-1.535,0.852c-0.732,0.403-1.308,0.788-1.726,1.154
				c-0.747,0.649-1.218,1.371-1.412,2.162h8.763v1.905h-11.015C442.602,329.942,442.888,328.739,443.384,327.716z"/>
			<path d="M457.552,330.198c-0.855-1.042-1.283-2.311-1.283-3.805h2.107c0.089,1.039,0.284,1.793,0.583,2.264
				c0.523,0.845,1.468,1.267,2.835,1.267c1.061,0,1.912-0.284,2.555-0.852c0.643-0.568,0.963-1.3,0.963-2.196
				c0-1.105-0.338-1.879-1.014-2.319c-0.676-0.441-1.616-0.661-2.818-0.661c-0.134,0-0.271,0.002-0.409,0.005
				c-0.139,0.004-0.278,0.01-0.42,0.018v-1.782c0.209,0.022,0.385,0.038,0.527,0.045c0.142,0.008,0.295,0.012,0.459,0.012
				c0.754,0,1.374-0.12,1.86-0.359c0.852-0.418,1.278-1.165,1.278-2.24c0-0.8-0.285-1.416-0.852-1.85
				c-0.568-0.433-1.229-0.649-1.983-0.649c-1.345,0-2.274,0.448-2.79,1.345c-0.284,0.493-0.444,1.195-0.482,2.106h-1.994
				c0-1.195,0.239-2.211,0.717-3.048c0.822-1.494,2.267-2.241,4.336-2.241c1.636,0,2.902,0.364,3.798,1.093s1.346,1.783,1.346,3.165
				c0,0.986-0.266,1.786-0.797,2.398c-0.328,0.381-0.754,0.68-1.277,0.896c0.844,0.231,1.504,0.678,1.979,1.339
				s0.711,1.47,0.711,2.426c0,1.531-0.504,2.779-1.512,3.742c-1.01,0.964-2.44,1.445-4.292,1.445
				C459.784,331.761,458.408,331.24,457.552,330.198z"/>
			<path d="M477.249,331.324v-3.922h-7.036v-1.972l7.351-10.197h1.703v10.41h2.364v1.759h-2.364v3.922H477.249z M477.216,325.644
				v-7.288l-5.144,7.288H477.216z"/>
			<path d="M486.375,327.234c0.135,1.15,0.668,1.946,1.603,2.387c0.478,0.224,1.03,0.336,1.658,0.336
				c1.195,0,2.08-0.381,2.655-1.143s0.863-1.606,0.863-2.532c0-1.121-0.342-1.987-1.025-2.6s-1.504-0.919-2.46-0.919
				c-0.694,0-1.29,0.135-1.787,0.403s-0.921,0.643-1.271,1.12l-1.748-0.101l1.222-8.639h8.336v1.949h-6.823l-0.684,4.46
				c0.373-0.284,0.728-0.497,1.064-0.639c0.598-0.247,1.288-0.37,2.072-0.37c1.472,0,2.72,0.475,3.743,1.423
				c1.023,0.949,1.535,2.151,1.535,3.608c0,1.517-0.469,2.854-1.406,4.012c-0.938,1.157-2.434,1.736-4.488,1.736
				c-1.307,0-2.463-0.368-3.468-1.104s-1.566-1.866-1.687-3.39H486.375z"/>
			<path d="M507.91,316.606c0.706,0.93,1.059,1.888,1.059,2.874h-1.994c-0.12-0.635-0.311-1.132-0.571-1.49
				c-0.486-0.673-1.222-1.009-2.208-1.009c-1.128,0-2.024,0.521-2.688,1.563c-0.665,1.042-1.035,2.534-1.109,4.477
				c0.463-0.68,1.046-1.188,1.748-1.524c0.642-0.299,1.359-0.448,2.151-0.448c1.345,0,2.517,0.43,3.518,1.289
				s1.502,2.14,1.502,3.843c0,1.457-0.475,2.748-1.423,3.872c-0.949,1.124-2.301,1.687-4.057,1.687c-1.501,0-2.798-0.57-3.888-1.709
				c-1.091-1.14-1.636-3.058-1.636-5.754c0-1.995,0.242-3.687,0.728-5.076c0.934-2.659,2.641-3.989,5.121-3.989
				C505.955,315.211,507.204,315.677,507.91,316.606z M506.397,328.876c0.526-0.713,0.79-1.556,0.79-2.526
				c0-0.822-0.235-1.604-0.706-2.348s-1.326-1.115-2.565-1.115c-0.867,0-1.627,0.288-2.28,0.863c-0.654,0.575-0.98,1.441-0.98,2.6
				c0,1.016,0.297,1.869,0.891,2.56c0.594,0.691,1.417,1.037,2.471,1.037C505.077,329.946,505.871,329.589,506.397,328.876z"/>
			<path d="M523.361,315.548v1.759c-0.516,0.501-1.201,1.371-2.057,2.61c-0.855,1.24-1.611,2.577-2.269,4.012
				c-0.65,1.397-1.144,2.671-1.479,3.821c-0.217,0.739-0.497,1.931-0.84,3.574h-2.23c0.508-3.062,1.629-6.11,3.361-9.144
				c1.023-1.777,2.1-3.312,3.228-4.605h-8.874v-2.027H523.361z"/>
			<path d="M527.455,321.935c-0.59-0.598-0.885-1.375-0.885-2.331c0-1.195,0.433-2.222,1.298-3.081
				c0.866-0.859,2.094-1.289,3.683-1.289c1.537,0,2.742,0.405,3.615,1.216s1.31,1.758,1.31,2.841c0,1.001-0.254,1.812-0.762,2.432
				c-0.283,0.351-0.724,0.694-1.321,1.03c0.668,0.307,1.192,0.658,1.575,1.054c0.712,0.747,1.068,1.718,1.068,2.913
				c0,1.412-0.475,2.609-1.423,3.592c-0.949,0.982-2.29,1.473-4.023,1.473c-1.561,0-2.881-0.424-3.961-1.271
				c-1.079-0.848-1.619-2.078-1.619-3.692c0-0.948,0.231-1.768,0.694-2.459c0.464-0.691,1.15-1.22,2.062-1.586
				C528.206,322.536,527.77,322.256,527.455,321.935z M533.96,329.189c0.616-0.504,0.925-1.257,0.925-2.258
				c0-1.038-0.317-1.826-0.953-2.364c-0.635-0.538-1.449-0.807-2.442-0.807c-0.964,0-1.75,0.274-2.358,0.823
				c-0.609,0.55-0.913,1.31-0.913,2.28c0,0.837,0.278,1.56,0.834,2.169c0.557,0.608,1.418,0.913,2.583,0.913
				C532.568,329.946,533.344,329.694,533.96,329.189z M533.586,321.255c0.5-0.498,0.749-1.092,0.749-1.78
				c0-0.599-0.238-1.149-0.715-1.65c-0.478-0.502-1.204-0.753-2.181-0.753c-0.97,0-1.671,0.251-2.103,0.753
				c-0.433,0.501-0.648,1.089-0.648,1.763c0,0.756,0.279,1.348,0.838,1.774c0.56,0.427,1.22,0.641,1.979,0.641
				C532.394,322.002,533.087,321.753,533.586,321.255z"/>
			<path d="M542.229,327.437c0.06,1.112,0.489,1.882,1.288,2.308c0.411,0.225,0.874,0.336,1.39,0.336
				c0.964,0,1.785-0.401,2.466-1.204c0.679-0.803,1.161-2.434,1.445-4.891c-0.448,0.709-1.003,1.208-1.664,1.495
				c-0.661,0.288-1.373,0.432-2.135,0.432c-1.546,0-2.77-0.481-3.67-1.443c-0.9-0.963-1.35-2.202-1.35-3.717
				c0-1.455,0.444-2.734,1.333-3.839s2.2-1.657,3.933-1.657c2.339,0,3.952,1.053,4.841,3.158c0.493,1.157,0.739,2.605,0.739,4.345
				c0,1.963-0.295,3.702-0.885,5.218c-0.979,2.523-2.637,3.784-4.975,3.784c-1.569,0-2.761-0.41-3.575-1.232
				c-0.814-0.821-1.221-1.853-1.221-3.092H542.229z M547.479,323.353c0.66-0.525,0.991-1.444,0.991-2.757
				c0-1.179-0.297-2.057-0.891-2.635s-1.351-0.867-2.27-0.867c-0.985,0-1.769,0.33-2.348,0.99c-0.578,0.66-0.868,1.542-0.868,2.646
				c0,1.044,0.254,1.874,0.762,2.489c0.509,0.615,1.318,0.923,2.432,0.923C546.087,324.142,546.817,323.879,547.479,323.353z"/>
		</g>
	</g>
</g>
</svg>
