<?xml version="1.0" encoding="iso-8859-1"?>
<!-- Generator: Adobe Illustrator 16.0.0, SVG Export Plug-In . SVG Version: 6.00 Build 0)  -->
<!DOCTYPE svg PUBLIC "-//W3C//DTD SVG 1.0//EN" "http://www.w3.org/TR/2001/REC-SVG-20010904/DTD/svg10.dtd">
<svg version="1.0" id="Layer_1" xmlns="http://www.w3.org/2000/svg" xmlns:xlink="http://www.w3.org/1999/xlink" x="0px" y="0px"
	 width="1000px" height="700px" viewBox="0 0 1000 700" style="enable-background:new 0 0 1000 700;" xml:space="preserve">
<style type="text/css">
<![CDATA[
	.st0{fill:#F8EBB1;}
	.st1{fill-rule:evenodd;clip-rule:evenodd;}
]]>
</style>
<rect class="st0" width="1000" height="700"/>
<g>
	<g>
		<path class="st1" d="M252.417,308.168c1.955-0.698,3.219-1.304,4.55-1.598c8.08-1.787,16.145-3.676,24.28-5.169
			c4.109-0.754,6.521-2.793,7.905-6.657c5.568-15.546,13.121-30.16,21.228-44.5c8.49-15.019,19.229-28.15,32.635-39.101
			c3.277-2.677,6.374-3.103,10.147-1.389c6.911,3.14,10.133,9.798,8.853,17.171c-2.256,12.982-4.077,26.039-6.131,39.056
			c-0.668,4.239-1.573,8.44-2.229,12.681c-0.717,4.64,0.933,6.313,5.572,5.825c8.641-0.909,17.278-1.865,25.921-2.767
			c7.606-0.792,15.112-0.173,22.496,1.812c1.141,0.307,2.228,0.82,3.425,1.969c-0.861,0.316-1.701,0.805-2.588,0.918
			c-3.141,0.404-6.291,0.793-9.451,0.984c-14.045,0.854-27.77,3.438-41.326,7.173c-4.5,1.239-7.198,3.933-8.126,8.216
			c-1.057,4.882-1.919,9.851-2.311,14.824c-1.385,17.551-2.008,35.137-0.326,52.698c0.474,4.949,1.535,9.928,3.024,14.674
			c2.892,9.217,5.335,10.43,14.337,8.242c-0.919,6.002-7.204,8.994-12.77,6.01c-5.995-3.215-9.143-8.605-10.946-14.896
			c-2.509-8.744-2.902-17.754-2.806-26.754c0.177-16.559,0.644-33.115,0.99-49.672c0.021-1.022,0.08-2.046,0.053-3.067
			c-0.101-3.672-1.4-4.913-5.026-4.126c-6.785,1.473-13.519,3.188-20.257,4.864c-3.669,0.911-7.286,2.028-10.963,2.901
			c-3.317,0.788-5.589,2.718-6.309,5.983c-1.666,7.571-3.42,15.146-4.577,22.803c-2.032,13.436-3.646,26.937-5.428,40.41
			c-0.051,0.377-0.007,0.768-0.007,1.123c4.607-0.359,9.401-1.66,13.525-1.641c0.433,0.002,0.867,0.43,0.652,0.805
			c-0.608,1.053-2.188,1.639-3.203,2.09c-0.757,0.334-6.075,1.701-11.764,6.355c-1.31,1.072-1.597,4.602-2.06,6.678
			c-2.616,11.74-5.312,23.518-8.488,35.146c-0.97,3.549-3.268,6.752-5.102,10.035c-0.389,0.695-1.405,1.039-2.133,1.543
			c-0.487-0.82-1.216-1.584-1.425-2.471c-2.132-8.992-1.354-18.096-0.9-27.18c0.233-4.691,0.525-9.381,0.822-14.627
			c-1.367,0.744-2.429,1.242-3.407,1.871c-8.431,5.412-16.722,11.057-25.319,16.186c-4.249,2.533-8.955,4.42-13.64,6.074
			c-6.405,2.264-11.611-0.08-15.661-5.266c-4.197-5.371-5.646-11.736-6.227-18.314c-1.294-14.672,1.406-28.938,4.864-43.068
			c6.023-24.614,11.453-49.411,18.582-73.707c6.062-20.654,14.089-40.739,21.448-61.002c1.125-3.101,3.204-5.9,5.107-8.656
			c1.43-2.07,3.593-2.392,6.03-1.627c8.082,2.538,11.382,7.28,9.746,15.746c-0.958,4.953-2.863,9.797-4.872,14.461
			c-15.825,36.741-30.351,73.938-39.8,112.914c-3.451,14.234-5.615,28.705-5.824,43.369c-0.049,3.445,0.908,7.125,2.279,10.32
			c1.816,4.234,4.99,5.422,9.34,3.984c2.781-0.92,5.439-2.334,7.988-3.812c9.366-5.43,18.685-10.943,27.959-16.531
			c0.975-0.586,2.087-1.789,2.213-2.818c2.238-18.305,6.155-36.238,11.259-53.948c1.636-5.676,2.6-11.543,3.863-17.324
			c0.64-2.923,0.084-3.372-2.846-3.188c-6.31,0.396-12.63,0.711-18.951,0.825C257.509,312.083,254.976,310.974,252.417,308.168z
			 M347.703,226.34c-0.386-0.217-0.771-0.434-1.155-0.649c-2.558,2.354-5.283,4.554-7.646,7.092
			c-13.606,14.622-22.561,32.209-31.369,49.856c-1.446,2.896-2.312,6.11-3.205,9.246c-0.838,2.938-1.143,3.467,2.647,2.987
			c0.505-0.064,5.485-0.909,5.983-0.997c12.121-2.148,11.51-2.372,20.909-4.522c6.938-2.075,6.623-2.298,7.245-7.079
			c2.262-17.41,4.57-34.815,6.807-52.229C348.074,228.839,347.786,227.577,347.703,226.34z"/>
		<path class="st1" d="M487.576,269.297c2.869-2.753,5.186-5.625,7.32-8.281c3.961-4.93,8.317-9.235,11.688-14.576
			c8.277-13.119,20.006-22.294,33.28-29.685c2.847-1.586,6.297-2.389,9.567-2.83c3.253-0.438,5.563,1.253,5.872,4.507
			c0.338,3.55,0.422,7.515-0.838,10.728c-1.68,4.286-4.44,8.275-7.302,11.952c-12.28,15.772-27.063,28.938-43.164,40.688
			c-2.556,1.865-5.074,3.812-7.419,5.933c-1.916,1.732-1.519,2.982,1.039,3.497c1.686,0.339,3.45,0.345,5.183,0.38
			c16.114,0.331,32.2,1.168,47.054,8.243c6.311,3.006,12.733,6.354,18.017,10.833c13.851,11.745,18.075,26.911,12.741,44.277
			c-5.749,18.721-17.596,33.262-32.662,45.363c-9.483,7.619-19.9,13.568-31.471,17.475c-8.516,2.877-16.895,6.18-25.469,8.865
			c-9.868,3.09-19.883,3.789-29.794-0.08c-12.288-4.797-17.515-15.398-12.823-27.658c2.444-6.393,2.35-12.646,2.335-19.219
			c-0.026-12.561,0.284-25.146,1.141-37.675c1.318-19.28,3.256-38.56,8.039-57.322c5.146-20.188,11.12-40.166,16.739-60.233
			c0.137-0.489,0.329-0.968,0.528-1.437c2.239-5.278,5.347-7.705,9.142-7.149c5.104,0.745,9.76,5.02,10.188,9.997
			c0.293,3.414,0.39,7.045-0.452,10.313c-1.857,7.195-4.149,14.3-6.678,21.292C487.326,263.169,486.672,265.101,487.576,269.297z
			 M451.362,397.461c-0.264,2.547-0.967,4.57-0.578,6.357c2.088,9.582,11.724,17.537,21.533,18.211
			c8.587,0.59,16.353-2.107,23.759-5.982c13.519-7.074,26.447-15.098,38.31-24.75c11.211-9.121,21.008-19.453,27.347-32.635
			c8.984-18.689,4.915-35.095-11.442-46.269c-9.596-6.554-20.28-10.369-31.851-10.641c-12.345-0.289-24.712,0.325-37.068,0.494
			c-2.323,0.031-3.603,0.993-3.933,3.333c-0.896,6.365-1.794,12.732-2.788,19.085c-3.066,19.584-6.349,39.14-6.033,59.074
			c0.087,5.586-1.73,10.383-6.308,13.98C458.274,400.895,456.349,401.076,451.362,397.461z M543.144,223.014
			c-0.176-0.358-0.352-0.716-0.528-1.073c-1.609,0.297-3.379,0.268-4.794,0.961c-2.735,1.338-5.65,2.681-7.821,4.729
			c-8.592,8.111-28.88,30.264-30.59,32.912c-0.625,0.97-1.545,1.956-0.806,2.531c0.758,0.59,2.907-0.157,3.671-0.666
			c1.35-0.901,2.586-1.998,3.769-3.118c11.551-10.955,23.094-21.919,34.596-32.925C541.634,225.414,542.316,224.139,543.144,223.014
			z"/>
		<path class="st1" d="M723.128,322.628c-0.615,0.993-1.229,1.987-1.847,2.979c-9.408,15.079-16.571,31.208-22.445,47.942
			c-2.647,7.541-5.542,14.971-10.64,21.293c-2.951,3.66-6.488,6.531-11.019,7.98c-5.836,1.869-10.374,0.279-13.894-4.738
			c-5.132-7.318-7.372-15.639-8.438-24.361c-1.991-16.277-0.805-32.452,1.568-48.589c0.104-0.7,0.147-1.41-0.246-2.395
			c-0.551,0.857-1.155,1.687-1.644,2.578c-5.846,10.665-11.676,21.338-17.506,32.011c-3.17,5.809-7.027,11.062-12.514,14.896
			c-5.572,3.895-8.865,3.01-11.438-3.246c-0.99-2.408-1.674-5.096-1.782-7.688c-0.264-6.314-0.09-12.646-0.143-18.971
			c-0.011-1.281-0.243-2.562-0.374-3.842c-0.271-0.127-0.542-0.254-0.813-0.382c-1.09,1.227-2.312,2.364-3.244,3.701
			c-1.855,2.658-4.22,4.348-7.476,4.836c-5.548,0.83-9.962-2.962-9.224-8.504c1.363-10.225,6.145-19,12.708-26.755
			c3.266-3.861,7.938-4.035,12.492-2.806c3.176,0.857,4.558-0.179,5.148-3.22c0.562-2.907,1.296-5.789,2.114-8.637
			c0.964-3.358,2.161-3.844,5.434-2.464c5.882,2.481,8.879,8.53,6.908,15.921c-2.179,8.17-5.489,16.037-7.676,24.205
			c-1.68,6.278-2.425,12.812-3.481,19.249c-0.194,1.178-0.049,2.475,0.217,3.654c0.488,2.182,1.964,2.689,3.51,1.088
			c1.403-1.453,2.698-3.119,3.627-4.906c7.345-14.123,16.195-27.214,26.466-39.367c0.683-0.808,1.043-1.971,1.312-3.03
			c4.677-18.42,9.312-36.851,13.964-55.275c1.351-5.346,2.467-10.769,4.192-15.991c1.003-3.035,2.774-5.9,4.619-8.551
			c1.849-2.653,4.683-3.698,7.862-2.463c3.521,1.369,7.192,3.209,6.992,7.554c-0.184,3.981-0.668,8.386-2.527,11.775
			c-6.475,11.79-9.446,24.499-11.745,37.557c-3.079,17.501-6.897,34.876-9.821,52.401c-2.527,15.138-2.017,30.369,0.785,45.484
			c0.333,1.799,0.718,3.658,1.511,5.279c0.609,1.244,1.765,2.764,2.929,3.02c0.899,0.199,2.468-1.162,3.243-2.197
			c1.334-1.785,2.427-3.791,3.365-5.822c5.75-12.428,11.307-24.947,17.176-37.318c3.415-7.197,7.202-14.226,10.995-21.234
			c3.159-5.84,7.576-10.621,12.983-14.515c0.896-0.646,1.588-1.787,2.008-2.844c1.92-4.838,3.306-9.936,5.696-14.517
			c1.365-2.616,3.955-5.044,6.588-6.443c3.878-2.062,6.349-0.271,5.826,4.098c-0.615,5.144-1.939,10.204-3.022,15.287
			c-2.15,10.083-4.353,20.155-6.506,30.238c-0.154,0.724-0.088,1.496-0.123,2.246c0.347,0.104,0.696,0.207,1.044,0.311
			c1.511-4.238,2.735-8.607,4.597-12.686c3.08-6.741,6.392-13.393,9.967-19.883c1.613-2.931,4.581-4.211,8.131-3.81
			c3.884,0.439,5.921,2.085,5.963,6.021c0.031,2.909-0.643,5.862-1.285,8.732c-1.159,5.184-2.604,10.304-3.771,15.485
			c-0.365,1.624-0.23,3.36-0.325,5.045c0.259,0.086,0.518,0.173,0.776,0.26c0.479-0.672,1.019-1.31,1.432-2.021
			c3.269-5.666,6.505-11.351,9.771-17.02c2.377-4.128,5.786-7.152,10.169-8.962c5.018-2.072,8.217-0.769,9.789,4.387
			c1.245,4.081,1.69,8.4,2.739,12.551c0.304,1.201,1.444,2.201,2.24,3.265c0.44,0.59,1.438,1.229,1.341,1.652
			c-0.177,0.769-0.844,1.645-1.551,2.035c-3.113,1.72-7.836,0.337-9.525-3.047c-1.542-3.085-2.497-6.458-3.868-9.635
			c-0.482-1.115-1.359-2.763-2.187-2.844c-0.973-0.097-2.574,1.004-3.064,1.999c-3.019,6.125-6.006,12.282-8.595,18.597
			c-2.078,5.07-4.238,9.972-8.462,13.659c-4.483,3.912-8.95,2.834-9.887-3.045c-0.854-5.371-0.489-10.979-0.278-16.466
			c0.188-4.838,0.902-9.655,0.772-14.678c-0.582,1.354-1.337,2.661-1.72,4.069c-3.561,13.106-7.033,26.237-10.591,39.344
			c-0.802,2.955-1.628,5.932-2.801,8.75c-1.749,4.197-5.601,6.432-9.434,5.865c-3.51-0.52-5.746-3.229-6.673-7.805
			c-2.137-10.549-0.47-20.983,0.902-31.417c0.646-4.908,1.551-9.782,2.339-14.672C723.533,322.789,723.33,322.708,723.128,322.628z
			 M599.535,338.031c0.367,0.17,0.735,0.341,1.103,0.511c1.326-1.607,2.871-3.081,3.938-4.845c3.114-5.15,6.155-10.353,8.948-15.681
			c0.728-1.387,0.44-3.307,0.619-4.981c-1.598,0.829-3.66,1.274-4.712,2.552c-4.522,5.5-7.635,11.817-9.562,18.679
			C599.532,335.458,599.636,336.773,599.535,338.031z"/>
	</g>
	<g>
		<g>
			<g>
				<path d="M200.613,482.808c-2.087,0.086-3.309,0.14-5.176,0.164c-6.718,0.7-19.406,2.529-22.509,2.595
					c0.206-0.176,10.199-2.464,11.967-2.696c18.157-2.803,26.126-2.916,46.11-5.2c1.766-0.141,7.844-1.582,13.727-2.815
					c0,0-1.75,0.154-3.832,0.338c8.155-1.689,20.885-3.271,30.893-5.044c-2.166,0.116-2.166,0.117-3.458,0.122
					c8.163-0.191,25.229-2.943,37.665-4.813c2.485-0.23,4.245-0.322,6.021-0.413c11.367-1.914,22.375-3.009,35.901-5.564
					c11.381-1.967,27.859-3.712,43-5.927c13.082-1.65,26.915-2.942,40.418-4.487c6.752-0.765,13.419-1.623,19.876-2.576
					c6.461-0.909,12.706-1.979,18.596-3.325c3.926-0.888,11.409-1.792,18.214-1.642c7.298-2.358,17.89-4.285,29.22-5.857
					c11.342-1.469,23.431-2.495,33.697-3.38c7.501-0.758,12.679,0.146,15.788,0.852c4.897-0.831,9.889-1.655,14.947-2.439
					c2.53-0.381,5.076-0.764,7.634-1.149c2.56-0.326,5.131-0.653,7.71-0.982c10.321-1.26,20.792-2.284,31.176-2.961
					c6.63-0.485,13.261-0.947,19.938-1.372c3.34-0.2,6.69-0.399,10.057-0.601c3.407-0.166,6.83-0.332,10.275-0.499
					c3.453-0.123,6.905-0.347,10.425-0.357c3.521,0.023,7.069,0.046,10.651,0.069c1.788,0.024,3.585,0.049,5.391,0.073
					c1.806,0.031,3.624,0.187,5.447,0.279c3.644,0.233,7.325,0.47,11.053,0.709c2.047,0.106,5.031,0.264,8.016,0.42
					c2.981,0.141,5.957,0.236,7.98,0.256c1.791,0.354,3.553,0.654,5.323,1.032c4.288,0.514,8.495,1.018,12.628,1.512
					c2.062,0.264,4.113,0.43,6.126,0.781c2.014,0.336,4.009,0.669,5.986,1c3.949,0.688,7.827,1.348,11.613,2.14
					c3.769,0.898,7.461,1.827,11.079,2.777c2.481,0.674,4.689,1.234,6.634,1.823c1.926,0.636,3.618,1.193,5.114,1.687
					c2.971,0.995,5.115,1.738,6.72,2.307c3.209,1.134,4.254,1.595,5.365,2.025c-5.305-1.198-10.619-2.258-16.109-3.228
					c-0.687-0.12-1.375-0.24-2.067-0.36c-0.697-0.089-1.398-0.179-2.102-0.269c-1.409-0.168-2.831-0.338-4.269-0.509
					c-2.877-0.319-5.815-0.645-8.837-0.979c-3.014-0.385-6.148-0.519-9.376-0.748c-3.229-0.216-6.562-0.461-10.019-0.753
					c-1.726-0.182-3.498-0.218-5.299-0.325c-1.801-0.111-3.637-0.225-5.513-0.341c-1.874-0.132-3.785-0.283-5.736-0.457
					c-0.976-0.092-1.962-0.186-2.959-0.28c-0.999-0.063-2.009-0.127-3.03-0.191c-4.492-0.352-10.171-0.532-16.149-0.386
					c-2.987,0.161-6.052,0.327-9.086,0.491c-3.03,0.2-6.025,0.293-8.879,0.549c-4.825,0.564-9.865,0.664-14.747,0.867
					c-4.88,0.266-9.601,0.854-13.716,2.138c-6.056-0.564-16.52-0.606-28.04-0.235c-11.531,0.383-24.17,1.246-34.711,2.716
					c-1.787-0.141,0.179-0.563-2.924-0.62c-3.703,0.622-7.471,1.175-11.288,1.729c-3.815,0.577-7.686,1.115-11.604,1.621
					c-7.838,1.011-15.869,1.893-24.043,2.716c-16.346,1.666-33.272,2.991-50.294,5.094c-17.128,2.251-37.468,3.322-58.507,6.516
					c-1.955,0.413-11.034,0.744-16.729,1.557c-1.967,0.412-3.927,0.822-5.886,1.232c-14.951,1.593-32.072,3.922-42.925,4.344
					c-12.792,0.9-24.197,2.561-35.222,3.472c-16.533,1.392-43.259,5.495-57.415,6.062c-1.773,0.075-7.474,0.916-11.212,1.373
					c-1.764,0.085-3.528,0.17-5.3,0.255c-3.729,0.479-6.098,1.451-9.822,1.928c-12.07,1.525-25.625,3.239-37.615,4.754
					c-5.996,0.707-11.598,1.367-16.439,1.938c-4.834,0.547-8.903,0.933-11.827,1.081
					C196.295,484.03,203.936,482.678,200.613,482.808z"/>
				<path d="M103.457,502.545c0.891-0.304-2.516,0.662-4.73,0.86c0.971-0.084,1.746-0.178,2.786-0.341
					c0.519-0.11,1.101-0.235,1.803-0.386c0.689-0.228,1.518-0.417,2.491-0.8c0,0-0.094,0.037-0.26,0.103
					c-0.164,0.07-0.401,0.157-0.691,0.243c-0.581,0.163-1.336,0.476-2.127,0.631c-0.785,0.184-1.568,0.392-2.172,0.455
					c-0.6,0.091-1,0.151-1,0.151c-0.843,0.175-0.879,0.141-0.497,0.141c0.383-0.056,1.155-0.168,1.919-0.279
					c1.513-0.311,2.954-0.7,1.093-0.217c-1.746,0.396-3.347,0.553-4.286,0.577c-0.939,0.047-1.211,0.046-0.353-0.046
					c0.297-0.004,0.831-0.036,1.556-0.084c0.716-0.118,1.63-0.217,2.671-0.437c0.337-0.095-3.08,0.429-5.049,0.429
					c0,0,0.632-0.045,1.58-0.114c0.475-0.023,1.025-0.071,1.606-0.182c0.581-0.107,1.21-0.156,1.818-0.32
					c0.61-0.154,1.222-0.287,1.788-0.446c0.56-0.184,1.082-0.354,1.53-0.501c0.888-0.319,1.469-0.572,1.469-0.572
					s-0.721,0.331-1.459,0.609C104.2,502.282,103.457,502.545,103.457,502.545z"/>
				<path d="M125.674,494.82l-2.161,0.525c-0.933,0.331,1.14-0.139,3.222-0.595c-4.634,1.064-4.647,1.088-4.22,0.872
					c0.432-0.194,1.325-0.531-1.436,0.193c-0.085,0.066,1.292-0.312,2.58-0.619C124.952,494.91,126.147,494.653,125.674,494.82z"/>
				<path d="M113.817,498.69l-0.736,0.212l-0.367,0.108c-0.109,0.019-0.375,0.144-0.482,0.199c-0.451,0.224-0.895,0.444-1.329,0.66
					c-0.87,0.416-1.688,0.844-2.435,1.168c-1.483,0.694-2.662,1.082-3.106,1.188c0,0,0.611-0.23,1.527-0.574
					c0.91-0.369,2.114-0.892,3.309-1.477c0.598-0.278,1.198-0.59,1.759-0.866c0.163-0.08,0.324-0.159,0.48-0.236
					c0.245-0.104,0.349-0.116,0.496-0.168c0.279-0.086,0.542-0.168,0.785-0.242c0.973-0.3,1.622-0.499,1.622-0.499L113.817,498.69z"
					/>
				<path d="M183.727,484.443c3.132-0.646,1.563-0.324,6.728-1.131l-7.441,1.215L183.727,484.443z"/>
				<path d="M333.496,462.61c-4.247,0.167-7.709,0.155-14.384,1.022C325.858,462.62,332.076,462.668,333.496,462.61z"/>
				<path d="M400.211,456.679c-0.14,0.326,2.069,0.151-0.995,0.658c-1.421,0.007,0.437-0.979-4.262,0.026L400.211,456.679z"/>
				<path d="M405.894,457.598l3.056,0.209C408.983,457.711,407.812,457.583,405.894,457.598z"/>
				<path d="M222.89,476.908l0.458,0.021c0.312-0.07,0.688-0.154,1.029-0.231C223.926,476.763,223.484,476.824,222.89,476.908z"/>
				<path d="M233.072,475.597l-7.119,0.747c-0.575,0.129-1.053,0.237-1.577,0.354C229.084,476.055,227.499,476.613,233.072,475.597z
					"/>
				<path d="M224.145,476.973l-0.797-0.043c-6.083,1.271-8.81,1.005-17.508,2.68C212.234,478.773,218.894,477.834,224.145,476.973z"
					/>
				<path d="M217.078,478.438l-2.43,0.575c-2.192,0.292-2.03,0.105-1.945,0.012l-4.548,0.827c-0.904,0.314,2.162-0.126,5.921-0.645
					c3.759-0.529,8.208-1.155,10.048-1.414L217.078,478.438z"/>
				<path d="M173.992,487.786c0.068-0.012,0.124-0.021,0.192-0.033c-0.072,0.012-0.132,0.021-0.212,0.034
					C173.98,487.786,173.99,487.786,173.992,487.786z"/>
				<path d="M187.344,486.44l0.567-0.565c-5.972,0.948-7.111,0.798-13.727,1.878c-0.068,0.012-0.124,0.021-0.192,0.033
					C176.405,487.861,182.594,486.758,187.344,486.44z"/>
				<path d="M241.456,474.973c-5.959,0.892-10.428,1.565-12.238,2.19l11.051-1.5C236.042,476.01,240.509,475.351,241.456,474.973z"
					/>
				<path d="M250.844,474.842l-5.25,0.803l2.337-0.126C248.127,475.399,249.05,475.168,250.844,474.842z"/>
				<path d="M247.931,475.519c-0.211,0.134,0.557,0.119,2.528-0.134L247.931,475.519z"/>
				<path d="M237.511,477.543c3.366-0.055,3.061-0.521,8.933-1.254C246.841,475.755,240.488,477.13,237.511,477.543z"/>
				<polygon points="261.977,474.27 263.933,474.36 264.331,473.788 				"/>
				<path d="M305.542,465.768c-5.569,1.312,3.372,0.078,3.934,0.312L305.542,465.768z"/>
				<path d="M268.568,474.514l-1.882-0.219l-0.93,0.387c-1.495,0.202-3.783,0.562-5.112,0.537
					C259.467,475.937,265.665,474.8,268.568,474.514z"/>
				<line x1="291.196" y1="470.232" x2="296.927" y2="469.837"/>
				<path d="M255.292,477.985c-0.155,0.213,8.324-0.239-1.258,0.802c3.695-0.41,8.963-1.11,5.653-0.297
					c5.975-0.734,0.396-0.557,4.328-1.303C260.79,477.897,258.197,477.713,255.292,477.985z"/>
				<path d="M269.903,476.561c2.909-0.235,6.534-0.494,8.182-0.904C275.097,476.003,272.42,475.895,269.903,476.561z"/>
				<polygon points="272.737,477.456 268.561,477.51 271.164,477.739 				"/>
				<line x1="330.815" y1="466.294" x2="330.564" y2="465.477"/>
				<path d="M289.969,475.463l-10.541,1.296l9.524-0.784c5.728-0.994,2.911-0.875-1.216-0.581
					C288.87,475.341,289.753,475.34,289.969,475.463z"/>
				<path d="M278.636,475.866l-3.146,0.58c-0.048,0.069,1.113-0.038,2.8-0.209c1.687-0.167,3.9-0.387,5.951-0.59
					C281.491,475.845,279.01,476.003,278.636,475.866z"/>
				<path d="M284.241,475.647c1.175-0.086,2.373-0.173,3.495-0.254C286.737,475.441,285.55,475.528,284.241,475.647z"/>
				<path d="M356.509,462.622l-9.673,1.114C350.464,463.496,353.451,463.136,356.509,462.622z"/>
				<path d="M297.767,475.232l1.499-0.165l0.376-0.63C296.587,474.897,297.84,475.106,297.767,475.232z"/>
				<path d="M310.535,474.931c2.764,0.077,8.265-0.93,10.546-1.238c-3.474-0.07-7.258,0.397-11.663,0.748
					C313.822,474.09,310.693,474.673,310.535,474.931z"/>
				<path d="M323.534,474.319l-8.975,0.929C316.378,475.74,319.753,474.784,323.534,474.319z"/>
				<path d="M337.944,472.536c0.794-0.147,0.156-0.281,1.737-0.574c-1.349-0.129-4.418,0.319-6.629,0.479L337.944,472.536z"/>
				<path d="M260.169,475.894c2.708-0.394,5.128-0.744,7.452-1.081c-3.671,0.393-7.337,0.784-11.003,1.177
					C257.783,475.974,258.907,475.971,260.169,475.894z"/>
				<path d="M756.679,427.909c-5.765-0.859-14.069-1.594-22.42-2.527c-2.087-0.263-4.186-0.351-6.247-0.502
					c-2.063-0.138-4.09-0.272-6.043-0.402c-1.955-0.129-3.836-0.252-5.604-0.368c-0.885-0.052-1.74-0.122-2.564-0.152
					c-0.823-0.018-1.613-0.035-2.366-0.051c-4.96-0.221-10.229-0.354-15.699-0.39c-5.462,0.169-11.124,0.424-16.886,0.73
					c-5.739,0.419-11.546,1.05-17.374,1.585c-5.813,0.554-11.561,1.128-17.265,1.599l0.152-0.416
					c-17.9,0.583-40.896,3.142-60.486,4.948l1.132,0.491c3.306-0.233,7.637-0.566,5.143,0.431
					c-4.425,0.128-10.356,0.426-11.706,0.096l-3.302,1.174c-2.85-0.194-0.695-2.375-8.412-1.018
					c-4.447,2.471-17.567,0.34-17.658,2.843c-3.228-1.141-10.43,0.917-14.279,1.246l2.714,0.814
					c-8.065,0.249-15.771-0.524-19.626,0.215c-9.836,1.433-23.375,3.194-34.077,4.952c-2.552-0.812,11.263-1.376,4.222-1.685
					c-10.168,2.285-22.462,3.505-35.275,4.678c-12.803,1.25-26.105,2.628-38.324,4.681c0.702-0.007,2.911-0.197,1.331,0.157
					c-4.89-0.117-11.243,1.45-19.281,2.057c1.202,0.463,11.667-0.811,15.367-1.18c-2.226,1.856-2.061-0.149-12.035,1.62
					c0.71-0.01,2.143-0.027,2.061,0.14c-9.907,1.59-4.043-0.436-11.671,0.81l4.269-0.063c-7.472,0.911-2.356,0.521-10.757,1.915
					c1.152-0.962-3.032-1.061-5.24-0.838c-0.943,0.494-9.025,1.335-7.914,1.916c-10.404-0.147-12.945,2.174-22.634,2.065
					c-4.072,1.159,4.093,0.144,3.792,0.742c-9.957,1.78-3.307-0.322-6.926-0.05c-3.133,0.699-16.007,2.716-21.674,2.969
					l-0.306,0.554c-8.642,0.667-22.763,2.588-26.071,2.412c-3.445,1.189,3.308,0.181,9.263-0.649
					c1.268,0.189-4.854,1.275-7.75,1.556c1.482-0.206,2.031,0.017,3.684-0.45c0.471,0.354-3.851,0.708-5.424,1.042
					c-10.351,1.308,3.933-0.833-0.388-0.473c-3.839,0.709-13.51,1.99-9.416,1.988c-8.247,1.187-3.306-0.161-7.614,0.218
					c6.438-0.507,8.548-1.708,13.418-1.878c1.642-0.461,1.005-0.548-1.102-0.421c-6.832,1.132-19.933,2.564-19.615,3.109
					l-3.458,0.122l-3.288,0.915l-1.418,0.109c3.291,0.056,9.811-0.58,12.41-0.387c0.546,0.198-3.854,0.684-6.138,1.048l-1.87-0.217
					c-5.887,0.758-4.397,1.521-12.485,2.522c4.947-1.32-9.014,0.456-14.646,0.931c-6.049,1.866,0.844,0.63-4.339,2.206
					c-5.959,0.85-15.14,2.406-22.346,3.187c17.173-2.518-8.381,0.646,5.353-1.689c-2.904,0.354-5.257,0.805-8.227,1.273
					c-2.326-0.27,4.239-1.205,0.268-1.051l-1.184,0.638c-4.144,0.355-6.629,0.303-14.681,1.554c-0.946,0.348-4.941,1.27-8.539,1.769
					c-1.158-0.081-1.773-0.078-9.204,1.199c-14.276,3.104,14.492-1.576,17.436-1.306c20.659-3.188,21.627-1.206,47.37-4.152
					c4.016-0.859,2.601-0.766,10.219-1.979c5.186-1.591-11.375,0.853-16.16,1.017c2.368-0.466,4.714-0.938,6.842-1.095l-2.514-0.209
					c12.161-2.024,6.734-0.088,17.413-1.87l-2.354,0.478l6.124-1.054l-1.416,0.095c3.775-0.566,4.862-1.228,10.671-1.787
					l-4.784,1.068c3.216-0.768,4.16-0.131,8.796-0.951c-2.557,0.591-3.296,1-4.895,1.221c6.917-0.614,13.073-1.325,19.058-2.028
					c10.201-1.493,20.249-2.83,30.21-4.016c9.961-1.182,19.843-2.153,29.696-3.032c-0.852-0.016-1.879,0.007-2.384,0.019
					c3.479-0.638,5.741-0.592,7.851-0.488c3.677-0.295,7.363-0.592,11.037-0.887c7.971-1.091,14.337-2.076,24.156-3.08
					c0.494,0.396-0.127,0.625-1.319,0.795c3.502-0.482,5.621-0.89,2.112-0.96c6.054-0.823,8.818-0.664,13.308-1.153l-10.131,1.952
					c4.346-0.161,4.08-1.134,9.917-1.461c9.107-1.309-4.127-0.332-3.042-1.145l3.696-0.336l-4.033-0.482
					c8.111-0.691,12.239-0.356,15.709-0.178l-5.833,0.324c-2.017,1.334,9.681-0.987,12.372-0.637l-0.777,0.165
					c8.971-0.979-1.996-0.35,4.066-1.178l10.815-0.273l-1.915-0.541c3.097-0.589,7.707-0.953,12.841-1.278
					c5.136-0.32,10.809-0.497,16.013-0.912c5.924-0.378,13.709-1.819,21.265-2.721c-1.428-0.048-4.349,0.047-3.49-0.309
					c4.496-0.435,14.273-1.455,10.904-0.196l6.291-1.349c2.268-0.256,4.099-0.282,5.551-0.231l-1.771-0.223l7.629-1.115
					c-0.073,0.201,2.779,0.329-1,0.783c8.615,0.151,19.136-2.803,32.474-3.5l-3.922,0.847c7.786-1.487,8.704,0.147,17.203-1.292
					l-1.99-0.596c6.142-0.945,17.845-1.044,16.127-0.238c0.665-2.039,3.567,0.258,7.149-1.81l3.918,1.439
					c3.92-0.88,7.788-1.546,5.078-2.199c6.323,0.19,11.419,0.002,14.862-1.488c0.019-0.022,0.082-0.041,0.158-0.06
					c0.043-0.018,0.086-0.035,0.125-0.052l-0.001,0.029c1.365-0.258,7.495-0.437,4.725-1.031c14.304-1.156,7.707,1.066,21.281-0.186
					l0.445-1.308c10.441-0.571,20.603-2.483,28.42-3.821l1.115,0.905c5.363-0.684-1.12-0.919,7.256-1.776
					c1.191,0.082,2.258,0.302,2.074,0.572c2.041-0.174,4.248-0.322,6.602-0.462c2.354-0.116,4.851-0.332,7.487-0.329
					c5.264-0.107,11.043-0.225,17.2-0.351c-0.09,0.163-1.687,0.323-2.488,0.462c5.313-0.202,13.813-0.526,20.009-0.762
					c14.176,1.667,34.369,3.312,53.134,5.502c7.248,0.556,13.268,1.088,17.64,1.481c4.342,0.561,7.045,0.937,7.76,0.807
					c-0.877-0.34-2.422-0.865-4.533-1.581c-2.103-0.766-4.812-1.519-7.995-2.435c-3.198-0.924-6.862-1.981-10.894-3.146
					c-2.019-0.624-4.167-1.055-6.384-1.62C761.361,429.046,759.054,428.485,756.679,427.909z"/>
			</g>
		</g>
	</g>
</g>
</svg>
