<?xml version="1.0" encoding="iso-8859-1"?>
<!-- Generator: Adobe Illustrator 16.0.0, SVG Export Plug-In . SVG Version: 6.00 Build 0)  -->
<!DOCTYPE svg PUBLIC "-//W3C//DTD SVG 1.0//EN" "http://www.w3.org/TR/2001/REC-SVG-20010904/DTD/svg10.dtd">
<svg version="1.0" id="Layer_1" xmlns="http://www.w3.org/2000/svg" xmlns:xlink="http://www.w3.org/1999/xlink" x="0px" y="0px"
	 width="1000px" height="700px" viewBox="0 0 1000 700" style="enable-background:new 0 0 1000 700;" xml:space="preserve">
<style type="text/css">
<![CDATA[
	.st0{fill:#BBEAF0;}
]]>
</style>
<rect class="st0" width="1000" height="700"/>
<g>
	<g>
		<path d="M72.506,116.485h4.664c3.348,0,5.588,1.131,5.588,4.456c0,3.187-2.286,4.687-5.588,4.687h-2.725v6.004h-1.939V116.485z
			 M76.916,124.058c2.655,0,3.925-0.97,3.925-3.117c0-2.194-1.316-2.91-3.925-2.91h-2.471v6.026H76.916z"/>
		<path d="M85.571,120.409h1.57l0.162,2.033h0.07c0.762-1.409,1.916-2.31,3.187-2.31c0.484,0,0.831,0.069,1.201,0.231l-0.37,1.663
			c-0.369-0.116-0.624-0.185-1.085-0.185c-0.946,0-2.078,0.692-2.84,2.586v7.204h-1.894V120.409z"/>
		<path d="M93.234,116.877c0-0.739,0.578-1.224,1.316-1.224c0.739,0,1.316,0.485,1.316,1.224c0,0.716-0.577,1.224-1.316,1.224
			C93.812,118.101,93.234,117.593,93.234,116.877z M93.581,120.409h1.893v11.223h-1.893V120.409z"/>
		<path d="M99.259,120.409h1.57l0.161,1.617h0.069c0.97-1.062,2.148-1.894,3.487-1.894c1.709,0,2.632,0.809,3.094,2.147
			c1.178-1.27,2.333-2.147,3.695-2.147c2.309,0,3.417,1.524,3.417,4.387v7.112h-1.894v-6.858c0-2.101-0.67-3.002-2.078-3.002
			c-0.877,0-1.778,0.577-2.817,1.732v8.128h-1.894v-6.858c0-2.101-0.669-3.002-2.101-3.002c-0.832,0-1.778,0.577-2.817,1.732v8.128
			h-1.893V120.409z"/>
		<path d="M124.746,124.52c0-1.432-0.485-2.817-2.309-2.817c-1.316,0-2.471,0.6-3.348,1.201l-0.762-1.316
			c1.04-0.669,2.609-1.455,4.41-1.455c2.748,0,3.903,1.824,3.903,4.619v6.881h-1.571l-0.162-1.339h-0.045
			c-1.086,0.876-2.333,1.616-3.718,1.616c-1.893,0-3.302-1.178-3.302-3.187C117.841,126.274,119.966,125.051,124.746,124.52z
			 M121.674,130.385c1.085,0,1.986-0.531,3.071-1.501v-3.117c-3.764,0.462-5.034,1.386-5.034,2.817
			C119.712,129.854,120.566,130.385,121.674,130.385z"/>
		<path d="M130.215,120.409h1.57l0.162,2.033h0.069c0.762-1.409,1.917-2.31,3.187-2.31c0.485,0,0.832,0.069,1.201,0.231
			l-0.369,1.663c-0.37-0.116-0.623-0.185-1.085-0.185c-0.947,0-2.078,0.692-2.84,2.586v7.204h-1.893V120.409z"/>
		<path d="M138.755,134.887c1.27,0,2.078-1.016,2.54-2.401l0.254-0.831l-4.503-11.246h1.963l2.286,6.211
			c0.347,0.97,0.739,2.125,1.085,3.164h0.092c0.323-1.016,0.646-2.17,0.947-3.164l2.009-6.211h1.847l-4.226,12.146
			c-0.785,2.216-1.939,3.902-4.202,3.902c-0.508,0-0.947-0.092-1.316-0.231l0.37-1.501
			C138.132,134.795,138.479,134.887,138.755,134.887z"/>
		<path d="M157.385,118.101h-4.595v-1.616h11.106v1.616h-4.595v13.531h-1.917V118.101z"/>
		<path d="M165.694,134.887c1.271,0,2.078-1.016,2.54-2.401l0.254-0.831l-4.502-11.246h1.963l2.286,6.211
			c0.346,0.97,0.739,2.125,1.085,3.164h0.093c0.323-1.016,0.646-2.17,0.947-3.164l2.009-6.211h1.847l-4.225,12.146
			c-0.786,2.216-1.939,3.902-4.203,3.902c-0.508,0-0.946-0.092-1.316-0.231l0.37-1.501
			C165.071,134.795,165.417,134.887,165.694,134.887z"/>
		<path d="M178.275,132.578v3.788h-1.894v-15.957h1.57l0.162,1.293h0.07c1.016-0.854,2.263-1.57,3.579-1.57
			c2.887,0,4.433,2.24,4.433,5.727c0,3.81-2.285,6.049-4.849,6.049c-1.039,0-2.078-0.485-3.118-1.293L178.275,132.578z
			 M181.023,130.315c1.848,0,3.21-1.686,3.21-4.456c0-2.471-0.832-4.134-2.956-4.134c-0.947,0-1.893,0.531-3.001,1.524v5.888
			C179.292,129.992,180.284,130.315,181.023,130.315z"/>
		<path d="M193.396,120.132c2.863,0,4.479,2.055,4.479,5.265c0,0.393-0.023,0.762-0.069,1.039h-7.574
			c0.139,2.425,1.593,3.949,3.741,3.949c1.062,0,1.962-0.347,2.793-0.878l0.67,1.247c-0.97,0.624-2.17,1.155-3.694,1.155
			c-3.002,0-5.381-2.193-5.381-5.865C188.362,122.372,190.833,120.132,193.396,120.132z M196.212,125.189
			c0-2.286-1.016-3.556-2.771-3.556c-1.57,0-3.002,1.293-3.232,3.556H196.212z"/>
		<path d="M205.7,116.738c-0.416-0.185-0.854-0.277-1.27-0.277c-1.062,0-1.57,0.739-1.57,2.17v1.777h2.378v1.547h-2.378v9.675
			h-1.893v-9.675h-1.524v-1.432l1.524-0.116v-1.777c0-2.286,1.039-3.718,3.278-3.718c0.693,0,1.362,0.162,1.87,0.37L205.7,116.738z"
			/>
		<path d="M213.272,124.52c0-1.432-0.485-2.817-2.309-2.817c-1.316,0-2.471,0.6-3.348,1.201l-0.762-1.316
			c1.039-0.669,2.609-1.455,4.41-1.455c2.748,0,3.902,1.824,3.902,4.619v6.881h-1.571l-0.161-1.339h-0.046
			c-1.085,0.876-2.333,1.616-3.718,1.616c-1.893,0-3.302-1.178-3.302-3.187C206.367,126.274,208.492,125.051,213.272,124.52z
			 M210.201,130.385c1.085,0,1.986-0.531,3.071-1.501v-3.117c-3.764,0.462-5.034,1.386-5.034,2.817
			C208.238,129.854,209.092,130.385,210.201,130.385z"/>
		<path d="M223.312,120.132c1.478,0,2.517,0.624,3.279,1.339l-0.947,1.224c-0.669-0.577-1.362-0.993-2.263-0.993
			c-2.032,0-3.51,1.755-3.51,4.341c0,2.563,1.409,4.295,3.464,4.295c1.062,0,1.962-0.531,2.632-1.132l0.854,1.247
			c-1.016,0.9-2.309,1.455-3.648,1.455c-2.979,0-5.265-2.147-5.265-5.865C217.909,122.28,220.426,120.132,223.312,120.132z"/>
		<path d="M232.984,120.132c2.863,0,4.479,2.055,4.479,5.265c0,0.393-0.023,0.762-0.069,1.039h-7.574
			c0.139,2.425,1.594,3.949,3.742,3.949c1.062,0,1.962-0.347,2.793-0.878l0.67,1.247c-0.97,0.624-2.171,1.155-3.694,1.155
			c-3.002,0-5.38-2.193-5.38-5.865C227.951,122.372,230.421,120.132,232.984,120.132z M235.801,125.189
			c0-2.286-1.016-3.556-2.771-3.556c-1.57,0-3.001,1.293-3.233,3.556H235.801z"/>
	</g>
	<g>
		<path d="M98.721,176.946c-0.165-0.331-0.331-0.828-0.496-1.158c-0.951-2.109-3.019-3.929-5.046-4.549
			c-1.861-0.373-3.887-0.579-5.708-0.579c-7.031,0-12.118,5.832-12.118,13.938s5.087,13.938,12.118,13.938
			c1.283,0,2.606-0.083,3.929-0.248c2.937-0.455,5.832-2.523,6.907-4.922c0.166-0.331,0.331-0.827,0.497-1.158h0.372v4.302
			c0-0.042-0.124-0.29-0.124-0.29l0.165,0.29c-2.688,1.571-7.609,2.688-11.663,2.688c-8.726,0-15.054-6.163-15.054-14.641
			c0-8.479,6.328-14.641,15.054-14.641c4.054,0,8.975,1.116,11.663,2.688v4.301L98.721,176.946z"/>
		<path d="M121.8,198.452l0.703-0.042c1.282-0.082,1.903-1.034,1.406-2.315l-2.813-7.486h-11.29l-2.523,7.238
			c-0.331,1.448,0.373,2.482,1.82,2.564l0.496,0.042v0.455h-6.286v-0.455c1.323-0.165,2.357-0.744,2.978-2.068l9.554-26.965h0.662
			l10.38,26.883c0.703,1.489,1.572,2.151,2.813,2.151v0.455h-7.817L121.8,198.452z M115.266,172.893l-5.252,15.054h10.835
			L115.266,172.893z"/>
		<path d="M159.562,198.452l0.331-0.042c0.993-0.082,1.737-0.909,1.82-2.027l-0.869-24.236l-11.084,26.966h-0.662
			c-3.764-8.561-7.486-17.164-11.25-25.766l-0.827,22.251c-0.041,1.572,1.034,2.73,2.605,2.812l0.58,0.042v0.455h-6.329v-0.455
			l0.331-0.042c1.075-0.082,1.861-1.075,1.944-2.315l0.869-23.534c-0.083-1.075-0.827-1.902-1.82-1.985l-0.331-0.041v-0.455h4.301
			l11.084,25.85l0.042,0.041l10.381-25.891h4.59v0.455l-0.29,0.041c-1.075,0.083-1.82,1.035-1.779,2.316l1.034,23.409
			c0.124,1.158,0.952,2.027,1.985,2.109l0.331,0.042v0.455h-7.114v-0.497L159.562,198.452z"/>
		<path d="M196.413,198.452l0.331-0.042c0.992-0.082,1.737-0.909,1.819-2.027l-0.868-24.236l-11.084,26.966h-0.662
			c-3.763-8.561-7.485-17.164-11.25-25.766l-0.827,22.251c-0.042,1.572,1.034,2.73,2.605,2.812l0.579,0.042v0.455h-6.328v-0.455
			l0.332-0.042c1.075-0.082,1.861-1.075,1.944-2.315l0.868-23.534c-0.083-1.075-0.827-1.902-1.82-1.985l-0.331-0.041v-0.455h4.302
			l11.084,25.85l0.042,0.041l10.381-25.891h4.591v0.455l-0.289,0.041c-1.076,0.083-1.82,1.035-1.779,2.316l1.034,23.409
			c0.125,1.158,0.952,2.027,1.985,2.109l0.331,0.042v0.455h-7.114v-0.497L196.413,198.452z"/>
		<path d="M219.12,169.998c5.211,0,9.017,3.103,9.017,7.403c0,3.805-3.227,6.7-7.982,7.404c1.076,1.323,4.26,5.086,8.354,9.884
			c2.978,3.433,3.019,3.557,4.301,3.557v0.538h-0.993c-2.646,0-3.143-0.331-6.824-4.591c-3.723-4.343-6.659-7.734-7.817-9.14h-4.714
			v11c0,1.282,0.785,2.234,1.902,2.316l0.331,0.041v0.455h-7.156v-0.455l0.332-0.041c1.116-0.083,1.903-1.034,1.903-2.316v-23.202
			c0-1.282-0.787-2.234-1.903-2.316l-0.332-0.041v-0.373L219.12,169.998z M217.796,184.39c4.342,0,7.485-2.937,7.485-6.949
			c0-3.928-2.605-6.782-6.203-6.782h-6.659v13.689h5.376V184.39z"/>
		<path d="M251.421,169.873c9.265,0,14.517,6.99,14.517,14.641c0,7.652-5.252,14.642-14.517,14.642
			c-9.264,0-14.517-6.99-14.517-14.642C236.905,176.863,242.157,169.873,251.421,169.873z M251.381,198.452
			c7.402,0,11.58-6.659,11.58-13.938s-4.178-13.938-11.58-13.938c-7.362,0-11.54,6.659-11.54,13.938
			S244.019,198.452,251.381,198.452z"/>
		<path d="M269.951,170.039h4.632l18.074,25.021v-22.209c0-1.282-0.786-2.234-1.902-2.316l-0.331-0.041v-0.455h5.335v0.455
			l-0.331,0.041c-1.116,0.083-1.902,1.034-1.902,2.316v26.511h-0.828c-6.493-9.017-13.028-17.991-19.562-27.007v23.74
			c0,1.282,0.786,2.233,1.902,2.315l0.331,0.042v0.455h-5.335v-0.455l0.331-0.042c1.117-0.082,1.902-1.034,1.902-2.315v-23.203
			c0-1.282-0.786-2.233-1.902-2.316l-0.331-0.041L269.951,170.039z"/>
		<path d="M321.402,170.576l-0.331,0.042c-1.117,0.083-1.902,1.034-1.902,2.316v25.353h8.437c1.779,0,3.723-1.324,4.674-3.103
			l0.744-1.406c0,0,0.331,0.125,0.496,0.207c-0.207,1.365-0.538,3.268-0.786,4.632l-0.041,0.29h-18.405v-0.455l0.331-0.042
			c1.117-0.082,1.902-1.034,1.902-2.315v-23.203c0-1.282-0.786-2.233-1.902-2.316l-0.331-0.041v-0.455h7.155v0.455L321.402,170.576z
			"/>
		<path d="M344.853,198.907h-7.155v-0.455l0.331-0.042c1.117-0.082,1.902-1.034,1.902-2.315v-23.203
			c0-1.282-0.786-2.233-1.902-2.316l-0.331-0.041v-0.455h7.155v0.455l-0.331,0.041c-1.116,0.083-1.902,1.035-1.902,2.316v23.203
			c0,1.282,0.786,2.233,1.902,2.315l0.331,0.042V198.907z"/>
		<path d="M374.342,176.946c-0.165-0.331-0.331-0.828-0.497-1.158c-1.034-2.274-3.35-4.218-5.542-4.673
			c-1.613-0.29-3.309-0.455-4.839-0.455c-6.783,0-11.663,5.832-11.663,13.938s4.88,13.938,11.663,13.938
			c3.02,0,6.535-0.661,9.182-1.654v-8.603c0-1.282-0.786-2.233-1.902-2.316l-0.331-0.041v-0.456h6.907v0.456l-0.331,0.041
			c-1.117,0.083-1.903,1.034-1.903,2.316v8.231c-2.688,1.571-7.527,2.688-11.497,2.688c-8.479,0-14.6-6.163-14.6-14.641
			c0-8.479,6.122-14.641,14.6-14.641c3.847,0,8.602,1.116,11.291,2.688v4.301L374.342,176.946z"/>
		<path d="M410.283,198.907h-7.155v-0.455l0.331-0.042c1.117-0.082,1.903-1.034,1.903-2.315v-11.995h-19.025v11.995
			c0,1.282,0.786,2.233,1.902,2.315l0.331,0.042v0.455h-7.155v-0.455l0.331-0.042c1.117-0.082,1.902-1.034,1.902-2.315v-23.203
			c0-1.282-0.786-2.233-1.902-2.316l-0.331-0.041v-0.455h7.155v0.455l-0.331,0.041c-1.117,0.083-1.902,1.035-1.902,2.316v10.505
			h19.025v-10.505c0-1.282-0.786-2.233-1.903-2.316l-0.331-0.041v-0.455h7.155v0.455l-0.331,0.041
			c-1.116,0.083-1.902,1.035-1.902,2.316v23.203c0,1.282,0.786,2.233,1.902,2.315l0.331,0.042V198.907z"/>
		<path d="M414.502,175.291c0.125-1.406,0.29-3.433,0.414-4.838h-0.041l0.041-0.331h25.437l0.04,0.29
			c0.083,0,0.414,4.508,0.456,4.839h-0.331l-0.91-1.737c-0.828-1.614-2.564-2.73-4.219-2.73h-6.328v25.353
			c0,1.283,0.786,2.234,1.902,2.316l0.331,0.041v0.456h-7.155v-0.456l0.331-0.041c1.117-0.083,1.902-1.034,1.902-2.316v-25.353
			h-6.452c-1.613,0-3.351,1.117-4.177,2.73l-0.91,1.737L414.502,175.291z"/>
	</g>
	<g>
		<path d="M103.33,385.188l1.162-0.068c2.118-0.135,3.145-1.707,2.323-3.828l-4.648-12.373H83.506l-4.17,11.963
			c-0.547,2.393,0.616,4.104,3.007,4.238l0.821,0.068v0.752H72.773v-0.752c2.188-0.273,3.896-1.23,4.922-3.418l15.791-44.57h1.094
			l17.157,44.435c1.163,2.459,2.598,3.553,4.649,3.553v0.752h-12.92L103.33,385.188z M92.529,342.943l-8.681,24.881h17.91
			L92.529,342.943z"/>
		<path d="M123.15,338.293h19.141c8.408,0,14.56,4.512,14.56,10.801c0,5.605-4.785,9.912-11.894,11.279
			c9.365,1.232,15.79,6.084,15.79,12.512c0,7.586-6.972,13.055-16.542,13.055h-20.985v-0.752l0.547-0.068
			c1.845-0.135,3.145-1.707,3.145-3.828v-38.348c0-2.12-1.299-3.692-3.145-3.829l-0.547-0.067L123.15,338.293z M152.475,349.163
			c0-5.604-4.306-9.706-10.253-9.706h-11.005v20.782h6.083l3.009-0.07C147.485,360.168,152.475,355.453,152.475,349.163z
			 M131.216,384.846h12.51c7.177,0,12.373-5.059,12.373-11.961c0-6.906-7.178-11.896-17.158-11.896h-7.725V384.846z"/>
		<path d="M211.055,349.642c-0.272-0.548-0.546-1.366-0.82-1.915c-1.572-3.485-4.99-6.493-8.339-7.519
			c-3.076-0.615-6.425-0.958-9.434-0.958c-11.62,0-20.029,9.64-20.029,23.037c0,13.398,8.409,23.037,20.029,23.037
			c2.12,0,4.307-0.137,6.495-0.41c4.853-0.752,9.638-4.17,11.416-8.135c0.273-0.547,0.546-1.367,0.82-1.914h0.615v7.109
			c0-0.07-0.205-0.479-0.205-0.479l0.273,0.479c-4.443,2.598-12.578,4.443-19.277,4.443c-14.423,0-24.882-10.186-24.882-24.199
			c0-14.012,10.459-24.2,24.882-24.2c6.699,0,14.834,1.848,19.277,4.444v7.11L211.055,349.642z"/>
		<path d="M236.139,338.226c14.491,0,24.95,10.05,24.95,23.854c0,13.811-9.16,23.859-21.875,23.859h-20.507v-0.752l0.547-0.068
			c1.846-0.135,3.145-1.707,3.145-3.828v-38.348c0-2.12-1.299-3.692-3.145-3.829l-0.547-0.067v-0.753L236.139,338.226z
			 M239.214,384.709c10.186,0,17.568-9.502,17.568-22.695c0-13.193-8.681-22.695-20.644-22.695h-9.297v45.458L239.214,384.709z"/>
		<path d="M292.735,365.225l-0.273-0.545c-0.889-2.119-3.487-3.623-6.221-3.623h-10.39v23.721h13.261
			c3.35,0,7.245-2.393,9.295-5.605l0.753-1.094h0.478c-0.342,2.121-0.889,5.195-1.231,7.314h-0.068l-0.067,0.48h-30.352v-0.754
			l0.547-0.068c1.846-0.137,3.145-1.709,3.145-3.828v-38.349c0-2.119-1.298-3.69-3.145-3.827l-0.547-0.068v-0.752h30.009v7.792
			h-0.479l-0.478-1.094c-1.435-3.213-4.922-5.605-8.271-5.605h-12.715v20.576h10.391c2.735,0,5.401-1.299,6.221-3.145l0.273-0.547
			h0.547v9.094L292.735,365.225z"/>
		<path d="M306.403,338.226H338.6v7.792h-0.479l-0.479-1.094c-1.436-3.213-4.922-5.605-8.271-5.605h-14.834v20.919h9.639
			c2.734,0,5.4-1.301,6.221-3.146l0.273-0.545h0.547v9.09h-0.547l-0.273-0.547c-0.889-2.117-3.487-3.623-6.221-3.623h-9.639v19.824
			c0,2.121,1.503,3.693,3.691,3.828l0.821,0.068v0.752h-12.578v-0.752l0.547-0.068c1.846-0.135,3.145-1.707,3.145-3.828v-38.348
			c0-2.12-1.298-3.692-3.145-3.829l-0.547-0.067L306.403,338.226z"/>
		<path d="M387.404,349.642c-0.272-0.548-0.546-1.366-0.819-1.915c-1.708-3.76-5.537-6.973-9.16-7.723
			c-2.667-0.479-5.469-0.754-7.999-0.754c-11.21,0-19.276,9.64-19.276,23.037c0,13.398,8.066,23.037,19.276,23.037
			c4.99,0,10.801-1.094,15.175-2.734v-14.217c0-2.119-1.298-3.693-3.144-3.83l-0.548-0.068v-0.75h11.416v0.75l-0.547,0.068
			c-1.845,0.137-3.144,1.711-3.144,3.83v13.602c-4.443,2.598-12.44,4.443-19.003,4.443c-14.013,0-24.131-10.186-24.131-24.199
			c0-14.012,10.118-24.2,24.131-24.2c6.357,0,14.219,1.848,18.661,4.444v7.11L387.404,349.642z"/>
		<path d="M446.804,385.939h-11.826v-0.752l0.547-0.068c1.846-0.135,3.145-1.707,3.145-3.828v-19.824h-31.444v19.824
			c0,2.121,1.298,3.693,3.145,3.828l0.546,0.068v0.752H399.09v-0.752l0.547-0.068c1.846-0.135,3.146-1.707,3.146-3.828v-38.348
			c0-2.12-1.299-3.692-3.146-3.829l-0.547-0.067v-0.753h11.826v0.753l-0.546,0.067c-1.846,0.137-3.145,1.709-3.145,3.829v17.362
			h31.444v-17.362c0-2.12-1.298-3.692-3.145-3.829l-0.547-0.067v-0.753h11.826v0.753l-0.547,0.067
			c-1.846,0.137-3.145,1.709-3.145,3.829v38.348c0,2.121,1.299,3.693,3.145,3.828l0.547,0.068V385.939z"/>
		<path d="M465.461,385.939h-11.825v-0.752l0.547-0.068c1.845-0.135,3.145-1.707,3.145-3.828v-38.348c0-2.12-1.3-3.692-3.145-3.829
			l-0.547-0.067v-0.753h11.825v0.753l-0.547,0.067c-1.846,0.137-3.144,1.709-3.144,3.829v38.348c0,2.121,1.298,3.693,3.144,3.828
			l0.547,0.068V385.939z"/>
		<path d="M495.401,339.046l-0.545,0.067c-1.847,0.137-3.146,1.709-3.146,3.829c0,8.272,0,24.952-0.068,24.881
			c0,13.125-3.624,18.799-11.896,18.799c-3.758,0-6.834-1.777-7.519-4.305c-0.205-1.027,0.547-1.779,1.777-1.779
			c0.889,0,1.777,0.752,1.983,1.779c0.478,2.049,2.598,3.484,4.922,3.484c4.51,0,6.424-4.307,6.424-14.287v-28.573
			c0-2.12-1.299-3.692-3.144-3.829l-0.547-0.067v-0.753h11.894v0.753H495.401z"/>
		<path d="M514.128,339.046l-0.546,0.067c-1.847,0.137-3.146,1.709-3.146,3.829v17.362l19.55-17.362
			c2.394-2.12,3.215-3.692,1.916-3.829l-0.41-0.067v-0.753h8.202v0.753c-2.394,0.272-4.922,1.229-7.451,3.349l-17.772,15.859
			c1.71,1.777,6.22,6.564,12.031,12.578c10.116,10.391,14.9,14.629,17.636,14.629v0.889h-1.641c-4.854,0-10.664-3.826-19.141-12.645
			c-5.81-6.018-10.321-10.803-12.031-12.58l-0.067,0.068l-0.752-0.889v20.986c0,2.121,1.299,3.693,3.144,3.828l0.548,0.068v0.752
			H502.37v-0.752l0.548-0.068c1.845-0.135,3.146-1.707,3.146-3.828v-38.348c0-2.12-1.301-3.692-3.146-3.829l-0.548-0.067v-0.753
			h11.827v0.753H514.128z"/>
		<path d="M562.797,339.114l-0.547,0.069c-1.847,0.136-3.146,1.708-3.146,3.828v41.903h13.945c2.939,0,6.152-2.188,7.725-5.127
			l1.232-2.324c0,0,0.545,0.205,0.818,0.342c-0.341,2.256-0.89,5.4-1.299,7.656l-0.067,0.479h-30.42v-0.752l0.545-0.068
			c1.849-0.135,3.146-1.707,3.146-3.828v-38.348c0-2.12-1.297-3.692-3.146-3.829l-0.545-0.067v-0.753h11.824v0.753L562.797,339.114z
			"/>
		<path d="M632.244,385.188l0.547-0.068c1.641-0.135,2.872-1.504,3.007-3.35l-1.435-40.058l-18.321,44.57h-1.093
			c-6.22-14.15-12.372-28.369-18.592-42.587l-1.369,36.777c-0.067,2.598,1.71,4.514,4.307,4.648l0.958,0.068v0.752h-10.459v-0.752
			l0.546-0.068c1.777-0.135,3.078-1.777,3.213-3.828l1.436-38.896c-0.137-1.777-1.368-3.145-3.006-3.281l-0.546-0.067v-0.753h7.106
			l18.322,42.724l0.067,0.068l17.159-42.792h7.585v0.753l-0.479,0.067c-1.777,0.137-3.007,1.709-2.938,3.829l1.708,38.692
			c0.204,1.914,1.572,3.35,3.28,3.484l0.548,0.068v0.752h-11.758v-0.82L632.244,385.188z"/>
		<path d="M72.705,434.082h7.656l29.873,41.355V438.73c0-2.121-1.298-3.691-3.144-3.828l-0.547-0.07v-0.75h8.818v0.75l-0.547,0.07
			c-1.846,0.137-3.144,1.707-3.144,3.828v43.816h-1.368c-10.733-14.902-21.533-29.734-32.334-44.639v39.238
			c0,2.119,1.299,3.691,3.145,3.828l0.547,0.07v0.75h-8.818v-0.75l0.547-0.07c1.845-0.137,3.145-1.709,3.145-3.828v-38.348
			c0-2.119-1.3-3.693-3.145-3.828l-0.547-0.068L72.705,434.082z"/>
		<path d="M146.186,433.807c15.312,0,23.993,11.553,23.993,24.199s-8.681,24.201-23.993,24.201
			c-15.312,0-23.994-11.555-23.994-24.201S130.874,433.807,146.186,433.807z M146.118,481.045c12.236,0,19.14-11.008,19.14-23.039
			c0-12.029-6.904-23.035-19.14-23.035c-12.168,0-19.072,11.006-19.072,23.035C127.045,470.037,133.95,481.045,146.118,481.045z"/>
		<path d="M177.011,481.795v-0.75l0.547-0.07c1.846-0.137,3.145-1.709,3.145-3.828v-38.348c0-2.119-1.299-3.693-3.145-3.828
			l-0.547-0.068v-0.752h20.029c9.091,0,15.654,5.469,15.654,13.125c0,7.588-7.587,13.057-18.046,13.057h-9.569v16.814
			c0,2.119,1.298,3.691,3.144,3.828l0.547,0.07v0.75H177.011z M194.716,459.307c7.793,0,13.467-5.061,13.467-11.963
			c0-6.975-4.717-12.031-11.143-12.031h-11.962v23.994H194.716z"/>
		<path d="M274.281,485.35c-2.734,3.281-7.999,5.674-12.51,5.674c-7.177,0-14.149-3.691-19.619-8.955
			c-14.628-0.479-22.831-11.824-22.831-24.129c0-12.646,8.681-24.199,23.993-24.199c15.312,0,23.994,11.553,23.994,24.199
			c0,12.508-8.478,23.992-23.448,24.197c3.964,3.625,10.391,6.15,18.594,6.15c5.263,0,10.185-1.297,11.689-3.074l0.409,0.273
			L274.281,485.35z M243.11,480.906c12.236,0,19.14-11.004,19.14-23.037c0-12.029-6.904-23.037-19.14-23.037
			c-12.168,0-19.072,11.008-19.072,23.037C224.038,469.902,230.942,480.906,243.11,480.906z"/>
		<path d="M300.526,434.014c8.613,0,14.902,5.127,14.902,12.236c0,6.289-5.332,11.072-13.192,12.234
			c1.776,2.188,7.041,8.408,13.809,16.34c4.921,5.672,4.99,5.877,7.108,5.877v0.889h-1.641c-4.375,0-5.195-0.545-11.279-7.588
			c-6.152-7.178-11.005-12.783-12.919-15.107h-7.793v18.184c0,2.119,1.3,3.693,3.144,3.828l0.547,0.068v0.752h-11.826v-0.752
			l0.547-0.068c1.846-0.135,3.145-1.709,3.145-3.828V438.73c0-2.121-1.298-3.691-3.145-3.828l-0.547-0.07v-0.613L300.526,434.014z
			 M298.338,457.801c7.177,0,12.372-4.854,12.372-11.482c0-6.494-4.306-11.213-10.253-11.213h-11.006v22.629h8.887V457.801z"/>
		<path d="M358.148,445.088l-2.051-4.512c-0.889-1.914-2.803-3.693-4.717-4.445c-2.392-0.75-4.785-1.16-6.631-1.16
			c-6.425,0-11.141,4.375-11.141,10.525c0,4.102,5.81,8.613,13.808,10.869s13.74,7.793,13.74,13.262
			c0,7.316-6.015,12.58-14.218,12.58c-6.289,0-13.398-1.506-17.021-3.625v-7.586h0.616c0.273,0.547,0.547,1.367,0.82,1.912
			c1.641,3.555,5.196,6.562,8.613,7.449c2.394,0.414,4.785,0.688,6.973,0.688c6.495,0,11.211-4.102,11.211-9.707
			c0-4.514-5.947-9.438-14.082-11.691c-7.793-2.188-13.466-7.451-13.466-12.51c0-7.723,6.015-13.33,14.218-13.33
			c4.375,0,10.186,1.506,13.809,3.625v7.586L358.148,445.088z"/>
		<path d="M368.125,442.764c0.205-2.324,0.478-5.676,0.684-8h-0.069l0.069-0.545h42.04l0.068,0.479c0.137,0,0.685,7.449,0.752,7.998
			h-0.546l-1.504-2.871c-1.367-2.666-4.238-4.512-6.972-4.512h-10.459v41.902c0,2.119,1.298,3.691,3.144,3.83l0.547,0.068v0.752
			h-11.826v-0.752l0.547-0.068c1.846-0.139,3.145-1.711,3.145-3.83v-41.902H377.08c-2.666,0-5.537,1.846-6.905,4.512l-1.503,2.871
			L368.125,442.764z"/>
		<path d="M460.951,434.902l-0.548,0.068c-2.119,0.135-3.622,1.912-3.622,4.375v29.393c0,7.725-5.196,13.33-17.021,13.33
			c-12.305,0-17.705-6.492-17.705-15.518v-27.82c0-2.121-1.299-3.691-3.145-3.828l-0.547-0.07v-0.75h11.826v0.75l-0.547,0.07
			c-1.846,0.137-3.144,1.707-3.144,3.828v28.711c0,7.654,4.238,13.123,14.013,13.123c10.459,0,15.107-5.127,15.107-12.236v-28.982
			c0-2.463-1.572-4.24-3.828-4.375l-0.615-0.068v-0.752h9.98L460.951,434.902z"/>
		<path d="M480.431,434.697l-0.958,0.066c-2.118,0.139-3.076,1.711-2.188,3.832h-0.067l15.174,38.074l12.1-36.574
			c0.889-2.938-0.343-5.125-3.076-5.264l-0.821-0.068v-0.75h10.665v0.75l-0.548,0.068c-1.847,0.139-3.623,1.777-4.442,3.898
			l-14.698,44.09h-1.161l-17.979-44.158c-1.025-2.393-2.598-3.488-4.443-3.76v-0.752h12.373L480.431,434.697z"/>
		<path d="M530.258,434.832l-0.614,0.07c-2.118,0.137-3.007,1.777-2.462,3.828l12.033,37.664l12.576-42.998h1.095l14.286,42.656
			l11.006-37.254c0.614-2.119-0.479-3.76-2.666-3.828l-1.231-0.068v-0.752h10.05v0.752l-0.546,0.068
			c-1.847,0.135-3.623,1.709-4.308,3.828l-13.263,44.092h-1.093l-14.355-42.176l-12.235,42.176h-1.162l-15.106-44.57
			c-0.958-2.189-2.325-3.146-4.102-3.418v-0.752h11.961L530.258,434.832z"/>
		<path d="M603.67,434.902l-0.617,0.068c-2.116,0.135-2.598,1.709-1.162,3.828h-0.067l11.075,16.404l10.868-16.404
			c1.298-2.053,0.887-3.693-1.299-3.828l-1.162-0.068v-0.752h10.458v0.752c-2.324,0.271-4.44,1.297-6.152,3.486l-12.168,17.84
			l14.699,21.67c1.57,2.051,3.142,3.008,4.853,3.281v0.752h-12.167v-0.752l0.614-0.066c2.118-0.139,2.597-1.711,1.16-3.83h0.071
			l-11.896-17.5l-10.867,17.16c-1.301,2.322-0.616,4.031,1.639,4.17l0.752,0.066v0.752h-10.39v-0.752
			c2.256-0.273,4.17-1.23,5.812-3.348l12.372-19.141c-4.648-6.836-9.365-13.674-14.014-20.51c-1.573-2.051-3.146-3.008-4.854-3.279
			v-0.752h12.166L603.67,434.902z"/>
		<path d="M651.79,434.832l-0.548,0.07c-1.914,0.137-2.392,1.707-1.297,3.828L661.7,460.4l11.896-20.508h-0.069
			c1.572-2.734,1.095-4.854-1.296-4.99l-0.822-0.07v-0.75h9.567v0.75c-2.049,0.273-3.759,1.232-5.194,3.418l-13.397,22.764v16.133
			c0,2.119,1.299,3.691,3.147,3.828l0.544,0.07v0.75h-11.893v-0.75l0.546-0.07c1.846-0.137,3.146-1.709,3.146-3.828l0.067-14.219
			l-13.33-24.129c-1.299-2.393-3.007-3.625-4.784-3.896v-0.752h11.962V434.832z"/>
		<path d="M723.766,473.594c-0.34,2.459-1.092,5.672-1.365,8.201h-34.589l29.94-46.551h-17.089c-2.667,0-6.152,1.844-8.34,4.512
			l-1.164,1.365h-0.545c0.478-1.846,1.229-4.578,1.709-6.424h0.067l0.137-0.479h30.898l-30.079,46.414h20.646
			c2.939,0,6.148-2.189,7.724-5.127l1.229-2.324c0,0,0.547,0.205,0.819,0.342V473.594z"/>
		<path d="M89.233,538.783c9.721,0,16.735,6.953,16.735,16.553c0,9.596-7.014,16.547-16.735,16.547
			c-9.72,0-16.733-6.951-16.733-16.547C72.5,545.736,79.513,538.783,89.233,538.783z M89.233,571.146
			c7.445,0,12.858-6.646,12.858-15.811c0-9.17-5.413-15.812-12.858-15.812c-7.444,0-12.857,6.643-12.857,15.812
			C76.376,564.5,81.789,571.146,89.233,571.146z"/>
		<path d="M122.391,571.576h-10.274v-0.678l0.492-0.062c1.66-0.121,2.83-1.537,2.83-3.443v-24.117c0-1.906-1.17-3.322-2.83-3.443
			l-0.492-0.062v-0.678h10.274v0.678l-0.492,0.062c-1.661,0.121-2.83,1.537-2.83,3.443v24.117c0,1.906,1.168,3.322,2.83,3.443
			l0.492,0.062V571.576z"/>
		<path d="M157.335,564.561c-0.124,1.479-0.308,3.631-0.431,5.109l-0.123,1.721h-28.3v-0.799
			c13.351-8.428,23.009-12.797,23.009-20.732c0-5.045-3.568-8.674-8.551-8.674c-4.738,0-9.351,3.074-11.012,7.258l-0.431-0.246
			c2.215-5.537,7.813-9.537,13.288-9.537c6.214,0,10.766,4.248,10.766,10.092c0,6.336-8.675,11.381-21.347,19.193h18.763
			c1.907,0,3.445-1.168,3.691-2.83l0.124-0.492h0.676L157.335,564.561z"/>
		<path d="M175.358,559.086c-1.417,0-3.323,0.369-4.615,0.74v-0.555c0.677-0.248,1.354-0.494,2.03-0.678
			c6.644-2.461,11.259-6.768,11.259-10.645c0-3.936-3.322-6.764-7.875-6.764c-4.43,0-9.475,2.521-12.059,6.09l-0.43-0.248
			c3.506-4.857,9.535-8.367,14.334-8.367c5.599,0,9.597,3.447,9.597,8.246c0,3.629-4.43,7.875-11.135,10.951
			c0.062,0,0.124,0,0.185,0c7.998,0,13.78,4.613,13.78,10.949c0,8.92-10.828,15.934-25.839,16.672v-0.555
			c12.858-0.676,22.148-7.318,22.148-15.871c0-5.721-4.736-9.781-11.381-9.781V559.086z"/>
		<path d="M196.581,570.959c0,0,22.516-31.744,23.255-32.111h0.554v31.189h7.752v1.539h-7.752v9.719h-3.508v-9.719h-20.301v-0.678
			V570.959z M216.821,569.975c0-0.061,0-25.467,0-25.529c-5.229,7.258-14.949,20.977-18.21,25.592L216.821,569.975z"/>
		<path d="M259.084,535.586c-0.432,1.477-1.169,3.691-1.601,5.289h-0.061l-0.554,1.848h-18.025
			c-0.247,3.629-0.677,8.119-0.985,11.197h4.983c9.167,0,15.811,5.477,15.811,12.918c0,9.166-10.274,16.057-24.423,16.486v-0.736
			c12.119-0.371,20.855-6.461,20.855-14.58c0-6.152-5.905-10.643-14.027-10.643h-3.63c0,0,0-0.125,0-0.369c0,0.244,0,0.369,0,0.369
			h-0.861c0,0,1.415-12.982,1.415-18.334h15.996c1.909,0,3.753-1.17,4.43-2.83l0.246-0.492h0.676L259.084,535.586z"/>
		<path d="M294.888,525.865c-14.644,0.492-25.224,11.074-25.224,25.223c0,0.555-0.062,1.293-0.124,2.033
			c0.554-5.539,5.476-9.291,12.735-9.291c7.812,0,13.473,5.781,13.473,13.779c0.431,8.307-5.967,14.334-15.256,14.334
			c-8.675,0-14.95-8.244-14.95-19.684c0-15.137,12.304-26.518,29.284-27.133L294.888,525.865z M281.722,545.059
			c-7.567,0-12.366,4.738-11.321,11.26h-0.799c-0.124-0.676-0.186-1.354-0.186-2.031c-0.491,9.535,4.369,16.795,11.505,16.795
			c6.891,0,11.565-5.537,11.196-13.225c0-7.508-4.368-12.982-10.335-12.982L281.722,545.059z"/>
		<path d="M301.959,545.922c0.124-1.477,0.309-3.691,0.431-5.168h0.062l0.124-1.723h26.7l0.246,0.307
			c-5.475,13.721-10.704,27.562-16.057,41.342h-3.876l18.087-37.957H306.45c-1.907,0-3.444,1.168-3.69,2.83l-0.123,0.49
			L301.959,545.922z"/>
		<path d="M352.836,548.627c6.828,2.215,11.504,6.768,11.504,11.381c0,6.77-6.03,11.691-14.334,11.691
			c-8.306,0-14.335-4.615-14.335-10.891c0-5.105,4.738-8.982,11.69-9.844c-5.845-1.906-9.905-6.582-9.905-11.627
			c0-6.398,5.229-11.012,12.427-11.012c7.198,0,12.428,3.998,12.428,9.596c0,5.23-3.876,9.6-9.413,10.891L352.836,548.627z
			 M338.808,560.195c0,6.211,4.738,10.703,11.26,10.703c6.273,0,10.888-4.061,10.888-9.66c0-4.242-4.982-8.428-11.934-9.904
			c-0.432-0.062-0.862-0.182-1.292-0.305c-5.23,0.859-8.859,4.426-8.859,9.166h0.061H338.808z M359.11,538.416
			c0-5.477-4.061-9.414-9.72-9.414c-5.475,0-9.351,3.752-9.351,8.859c0,4.615,3.999,8.859,9.597,10.029
			c0.861,0.184,1.723,0.367,2.584,0.613C356.28,547.396,359.11,543.398,359.11,538.416z"/>
		<path d="M371.29,584.74c14.641-0.492,25.224-11.074,25.224-25.221c0-0.555,0.061-1.293,0.123-2.033
			c-0.553,5.537-5.475,9.291-12.734,9.291c-7.813,0-13.473-5.783-13.473-13.781c-0.43-8.305,5.967-14.336,15.257-14.336
			c8.674,0,14.95,8.246,14.95,19.686c0,15.139-12.305,26.52-29.284,27.133L371.29,584.74z M384.454,565.545
			c7.568,0,12.367-4.736,11.32-11.258h0.8c0.124,0.678,0.185,1.355,0.185,2.031c0.493-9.535-4.367-16.795-11.504-16.795
			c-6.891,0-11.566,5.535-11.197,13.227c0,7.506,4.368,12.98,10.335,12.98L384.454,565.545z"/>
	</g>
	<path d="M107.089,242.525c0,0.343-0.342,0.621-0.764,0.621H73.296c-0.422,0-0.764-0.278-0.764-0.621v-1.386
		c0-0.342,0.342-0.62,0.764-0.62h33.028c0.422,0,0.764,0.278,0.764,0.62V242.525z"/>
</g>
</svg>
