<?xml version="1.0" encoding="iso-8859-1"?>
<!-- Generator: Adobe Illustrator 16.0.0, SVG Export Plug-In . SVG Version: 6.00 Build 0)  -->
<!DOCTYPE svg PUBLIC "-//W3C//DTD SVG 1.0//EN" "http://www.w3.org/TR/2001/REC-SVG-20010904/DTD/svg10.dtd">
<svg version="1.0" id="Layer_1" xmlns="http://www.w3.org/2000/svg" xmlns:xlink="http://www.w3.org/1999/xlink" x="0px" y="0px"
	 width="1000px" height="700px" viewBox="0 0 1000 700" style="enable-background:new 0 0 1000 700;" xml:space="preserve">
<style type="text/css">
<![CDATA[
	.st0{fill:#FBE6EA;}
]]>
</style>
<rect class="st0" width="1000" height="700"/>
<g>
	<path d="M107.089,242.525c0,0.343-0.342,0.621-0.764,0.621H73.296c-0.422,0-0.764-0.278-0.764-0.621v-1.386
		c0-0.342,0.342-0.62,0.764-0.62h33.028c0.422,0,0.764,0.278,0.764,0.62V242.525z"/>
</g>
<g>
	<g>
		<path d="M72.834,128.618c1.123,1.171,2.676,1.959,4.325,1.959c2.055,0,3.273-1.028,3.273-2.557c0-1.601-1.146-2.103-2.628-2.771
			l-2.247-0.98c-1.458-0.621-3.178-1.745-3.178-4.039c0-2.389,2.103-4.157,4.947-4.157c1.864,0,3.513,0.789,4.611,1.936l-1.051,1.29
			c-0.956-0.908-2.126-1.481-3.56-1.481c-1.769,0-2.939,0.884-2.939,2.294c0,1.505,1.386,2.079,2.605,2.604l2.246,0.956
			c1.816,0.789,3.226,1.864,3.226,4.182c0,2.485-2.055,4.468-5.353,4.468c-2.198,0-4.11-0.908-5.472-2.318L72.834,128.618z"/>
		<path d="M89.635,120.136c2.963,0,4.635,2.126,4.635,5.447c0,0.407-0.024,0.789-0.072,1.076h-7.837
			c0.143,2.509,1.649,4.086,3.871,4.086c1.1,0,2.031-0.359,2.892-0.908l0.693,1.29c-1.004,0.646-2.246,1.195-3.823,1.195
			c-3.106,0-5.567-2.27-5.567-6.069C84.426,122.453,86.982,120.136,89.635,120.136z M92.55,125.369c0-2.366-1.051-3.68-2.867-3.68
			c-1.625,0-3.106,1.338-3.345,3.68H92.55z"/>
		<path d="M101.872,120.136c1.529,0,2.604,0.645,3.393,1.386l-0.98,1.266c-0.693-0.597-1.41-1.028-2.341-1.028
			c-2.103,0-3.632,1.816-3.632,4.493c0,2.652,1.457,4.444,3.584,4.444c1.099,0,2.031-0.55,2.724-1.171l0.884,1.291
			c-1.051,0.932-2.39,1.505-3.775,1.505c-3.083,0-5.448-2.222-5.448-6.069C96.281,122.357,98.885,120.136,101.872,120.136z"/>
		<path d="M112.054,120.136c2.843,0,5.376,2.222,5.376,6.117c0,3.847-2.533,6.069-5.376,6.069c-2.844,0-5.376-2.222-5.376-6.069
			C106.678,122.357,109.21,120.136,112.054,120.136z M112.054,130.697c2.007,0,3.345-1.792,3.345-4.444
			c0-2.677-1.338-4.493-3.345-4.493c-1.983,0-3.345,1.816-3.345,4.493C108.709,128.905,110.071,130.697,112.054,130.697z"/>
		<path d="M120.492,120.422h1.625l0.167,1.673h0.072c1.099-1.1,2.294-1.959,3.895-1.959c2.438,0,3.536,1.577,3.536,4.54v7.36h-1.959
			v-7.097c0-2.174-0.669-3.106-2.198-3.106c-1.195,0-2.007,0.621-3.178,1.792v8.411h-1.96V120.422z"/>
		<path d="M137.771,120.136c1.338,0,2.223,0.501,3.25,1.338l-0.096-1.983v-4.469h1.984v17.014h-1.625l-0.167-1.362h-0.072
			c-0.908,0.884-2.15,1.649-3.512,1.649c-2.916,0-4.803-2.198-4.803-6.069C132.729,122.477,135.119,120.136,137.771,120.136z
			 M137.962,130.673c1.075,0,2.007-0.525,2.963-1.601v-6.069c-0.979-0.884-1.863-1.219-2.819-1.219
			c-1.864,0-3.345,1.792-3.345,4.444C134.761,129,135.932,130.673,137.962,130.673z"/>
		<path d="M153.402,124.675c0-1.481-0.502-2.916-2.39-2.916c-1.362,0-2.557,0.622-3.465,1.243l-0.789-1.362
			c1.075-0.693,2.7-1.505,4.564-1.505c2.844,0,4.038,1.887,4.038,4.778v7.121h-1.625l-0.167-1.386h-0.048
			c-1.123,0.908-2.413,1.672-3.847,1.672c-1.96,0-3.417-1.218-3.417-3.297C146.257,126.491,148.456,125.225,153.402,124.675z
			 M150.224,130.745c1.123,0,2.055-0.55,3.178-1.553v-3.226c-3.896,0.478-5.209,1.434-5.209,2.915
			C148.193,130.195,149.077,130.745,150.224,130.745z"/>
		<path d="M159.068,120.422h1.625l0.167,2.103h0.072c0.788-1.457,1.983-2.389,3.297-2.389c0.502,0,0.86,0.071,1.243,0.238
			l-0.382,1.721c-0.382-0.12-0.645-0.191-1.123-0.191c-0.98,0-2.151,0.717-2.939,2.677v7.455h-1.96V120.422z"/>
		<path d="M167.911,135.404c1.314,0,2.15-1.051,2.628-2.485l0.263-0.86l-4.66-11.637h2.031l2.366,6.428
			c0.358,1.004,0.765,2.199,1.123,3.274h0.095c0.335-1.051,0.669-2.247,0.98-3.274l2.079-6.428h1.912l-4.373,12.569
			c-0.812,2.294-2.007,4.038-4.349,4.038c-0.525,0-0.979-0.096-1.362-0.239l0.382-1.553
			C167.266,135.309,167.625,135.404,167.911,135.404z"/>
		<path d="M187.198,118.032h-4.755v-1.672h11.494v1.672h-4.755v14.003h-1.983V118.032z"/>
		<path d="M195.803,135.404c1.314,0,2.151-1.051,2.629-2.485l0.263-0.86l-4.66-11.637h2.031l2.366,6.428
			c0.358,1.004,0.765,2.199,1.123,3.274h0.095c0.335-1.051,0.669-2.247,0.98-3.274l2.079-6.428h1.912l-4.373,12.569
			c-0.812,2.294-2.007,4.038-4.349,4.038c-0.525,0-0.979-0.096-1.362-0.239l0.382-1.553
			C195.158,135.309,195.517,135.404,195.803,135.404z"/>
		<path d="M208.829,133.015v3.918h-1.96v-16.512h1.625l0.167,1.338h0.072c1.051-0.884,2.341-1.624,3.704-1.624
			c2.987,0,4.588,2.317,4.588,5.926c0,3.942-2.365,6.26-5.018,6.26c-1.076,0-2.151-0.502-3.227-1.338L208.829,133.015z
			 M211.672,130.673c1.912,0,3.321-1.744,3.321-4.611c0-2.557-0.86-4.277-3.059-4.277c-0.979,0-1.959,0.55-3.106,1.577v6.093
			C209.88,130.339,210.908,130.673,211.672,130.673z"/>
		<path d="M224.483,120.136c2.963,0,4.636,2.126,4.636,5.447c0,0.407-0.023,0.789-0.072,1.076h-7.837
			c0.144,2.509,1.649,4.086,3.871,4.086c1.099,0,2.031-0.359,2.891-0.908l0.693,1.29c-1.003,0.646-2.246,1.195-3.823,1.195
			c-3.106,0-5.567-2.27-5.567-6.069C219.274,122.453,221.832,120.136,224.483,120.136z M227.398,125.369
			c0-2.366-1.051-3.68-2.867-3.68c-1.625,0-3.106,1.338-3.345,3.68H227.398z"/>
		<path d="M237.222,116.623c-0.43-0.191-0.884-0.287-1.314-0.287c-1.099,0-1.625,0.765-1.625,2.246v1.84h2.462v1.601h-2.462v10.012
			h-1.959v-10.012h-1.577v-1.481l1.577-0.12v-1.84c0-2.365,1.075-3.847,3.393-3.847c0.717,0,1.41,0.167,1.936,0.382L237.222,116.623
			z"/>
		<path d="M245.062,124.675c0-1.481-0.501-2.916-2.39-2.916c-1.361,0-2.557,0.622-3.464,1.243l-0.789-1.362
			c1.075-0.693,2.7-1.505,4.564-1.505c2.843,0,4.038,1.887,4.038,4.778v7.121h-1.625l-0.167-1.386h-0.048
			c-1.123,0.908-2.414,1.672-3.847,1.672c-1.959,0-3.417-1.218-3.417-3.297C237.917,126.491,240.115,125.225,245.062,124.675z
			 M241.884,130.745c1.123,0,2.055-0.55,3.178-1.553v-3.226c-3.895,0.478-5.209,1.434-5.209,2.915
			C239.853,130.195,240.737,130.745,241.884,130.745z"/>
		<path d="M255.458,120.136c1.529,0,2.605,0.645,3.394,1.386l-0.98,1.266c-0.693-0.597-1.41-1.028-2.341-1.028
			c-2.103,0-3.632,1.816-3.632,4.493c0,2.652,1.457,4.444,3.584,4.444c1.099,0,2.031-0.55,2.724-1.171l0.884,1.291
			c-1.051,0.932-2.39,1.505-3.775,1.505c-3.083,0-5.448-2.222-5.448-6.069C249.868,122.357,252.472,120.136,255.458,120.136z"/>
		<path d="M265.474,120.136c2.963,0,4.635,2.126,4.635,5.447c0,0.407-0.024,0.789-0.072,1.076H262.2
			c0.143,2.509,1.649,4.086,3.871,4.086c1.1,0,2.031-0.359,2.892-0.908l0.693,1.29c-1.004,0.646-2.246,1.195-3.823,1.195
			c-3.106,0-5.567-2.27-5.567-6.069C260.265,122.453,262.821,120.136,265.474,120.136z M268.389,125.369
			c0-2.366-1.051-3.68-2.867-3.68c-1.625,0-3.106,1.338-3.345,3.68H268.389z"/>
	</g>
	<g>
		<path d="M90.607,165.888c-0.202,0.121-0.413,0.232-0.634,0.332c-0.222,0.101-0.453,0.191-0.694,0.271
			c-0.323,0.081-0.614,0.161-0.875,0.242c-0.262,0.081-0.392,0.262-0.392,0.543v26.979c0,1.69-0.161,3.108-0.483,4.255
			c-0.322,1.146-0.805,2.062-1.449,2.746c-0.644,0.685-1.458,1.167-2.444,1.449c-0.986,0.281-2.123,0.422-3.41,0.422
			c-0.724,0-1.509-0.061-2.354-0.181c-0.845-0.121-1.629-0.311-2.354-0.573c-0.725-0.261-1.328-0.613-1.811-1.056
			c-0.483-0.442-0.724-0.986-0.724-1.63c0-0.442,0.09-0.875,0.271-1.298c0.181-0.422,0.593-0.634,1.237-0.634
			c0.402,0,0.785,0.03,1.147,0.091c0.362,0.061,0.704,0.131,1.026,0.211c0.281,0.081,0.553,0.141,0.815,0.181
			c0.261,0.041,0.533,0.061,0.815,0.061c1.247,0,2.143-0.241,2.686-0.724c0.543-0.483,0.815-1.208,0.815-2.173v-28.066
			c0-0.161-0.061-0.312-0.181-0.453c-0.121-0.141-0.443-0.251-0.966-0.332c-0.604-0.161-1.146-0.402-1.629-0.725
			c-0.483-0.321-0.724-0.764-0.724-1.328c0-0.604,0.201-1.026,0.604-1.268c0.402-0.241,0.845-0.362,1.328-0.362h9.416
			c0.522,0,0.976,0.131,1.358,0.393c0.382,0.262,0.573,0.674,0.573,1.237c0,0.323-0.101,0.604-0.302,0.845
			C91.069,165.586,90.849,165.767,90.607,165.888z"/>
		<path d="M120.465,203.249l-2.072-0.061c-1.463-0.081-2.194-0.784-2.194-2.112v-1.207c-2.897,2.093-5.674,3.139-8.329,3.139
			c-3.099,0-5.432-0.956-7.001-2.867c-1.569-1.911-2.354-4.396-2.354-7.454V178.14c0-0.241-0.131-0.352-0.393-0.332
			c-0.262,0.021-0.513,0.01-0.754-0.03c-0.564,0-1.026-0.08-1.388-0.241c-0.282-0.08-0.523-0.231-0.724-0.453
			c-0.202-0.221-0.302-0.533-0.302-0.936c0-0.322,0.19-0.643,0.573-0.966c0.382-0.322,0.875-0.604,1.479-0.845
			c0.604-0.242,1.257-0.442,1.961-0.604c0.704-0.16,1.378-0.241,2.022-0.241h1.75c0.563,0,1.035,0.151,1.418,0.453
			c0.382,0.302,0.573,0.754,0.573,1.358v17.383c0,1.449,0.432,2.746,1.297,3.893c0.865,1.147,2.062,1.72,3.591,1.72
			c0.845,0,1.811-0.201,2.897-0.604c1.086-0.402,2.313-1.066,3.682-1.992V178.14c0-0.241-0.131-0.352-0.393-0.332
			c-0.262,0.021-0.513,0.01-0.754-0.03c-0.564,0-1.026-0.08-1.388-0.241c-0.282-0.08-0.523-0.231-0.724-0.453
			c-0.202-0.221-0.302-0.533-0.302-0.936c0-0.604,0.613-1.197,1.841-1.781c1.228-0.583,3.224-0.875,5.987-0.875
			c1.299,0,1.95,0.604,1.95,1.811v23.298c0,0.241,0.121,0.362,0.362,0.362c0.242,0,0.483,0.021,0.725,0.06
			c0.241,0.041,0.472,0.071,0.694,0.091c0.221,0.021,0.453,0.071,0.694,0.151c0.201,0.081,0.432,0.211,0.694,0.392
			c0.261,0.181,0.393,0.474,0.393,0.875c0,0.362-0.211,0.715-0.634,1.056c-0.422,0.342-0.936,0.634-1.539,0.875
			c-0.604,0.242-1.22,0.433-1.848,0.573C121.328,203.178,120.831,203.249,120.465,203.249z"/>
		<path d="M149.877,182.124c-0.403,0.041-0.715-0.03-0.936-0.211c-0.222-0.181-0.373-0.372-0.453-0.574
			c-0.081-0.08-0.142-0.17-0.181-0.271c-0.041-0.1-0.101-0.19-0.181-0.271c-0.041-0.16-0.161-0.362-0.362-0.604l-1.208-1.569
			c-0.604-0.483-1.248-0.724-1.931-0.724c-1.328,0-2.979,0.905-4.949,2.716v17.926c0,0.282,0.13,0.463,0.392,0.543
			c0.261,0.081,0.553,0.181,0.875,0.302c0.522,0.161,0.965,0.362,1.328,0.604c0.201,0.121,0.402,0.292,0.604,0.513
			c0.201,0.222,0.302,0.513,0.302,0.875c0,0.564-0.191,0.966-0.573,1.207c-0.383,0.242-0.835,0.362-1.358,0.362h-9.416
			c-0.482,0-0.926-0.121-1.328-0.362c-0.403-0.241-0.604-0.643-0.604-1.207c0-0.604,0.251-1.036,0.754-1.298
			c0.502-0.261,0.996-0.492,1.479-0.694c0.322-0.121,0.624-0.221,0.906-0.302c0.281-0.08,0.422-0.242,0.422-0.483V178.08
			c0-0.241-0.131-0.352-0.393-0.332c-0.262,0.021-0.513-0.01-0.754-0.091c-0.523,0-0.986-0.061-1.388-0.181
			c-0.241-0.08-0.473-0.221-0.694-0.422c-0.222-0.201-0.332-0.502-0.332-0.905c0-0.362,0.19-0.704,0.573-1.026
			c0.382-0.321,0.865-0.604,1.449-0.845c0.583-0.242,1.187-0.432,1.811-0.573c0.624-0.141,1.177-0.211,1.66-0.211h2.294
			c0.563,0,1.035,0.151,1.418,0.453c0.382,0.302,0.573,0.754,0.573,1.358v0.905c2.012-2.011,4.265-3.018,6.76-3.018
			c0.563,0,1.187,0.081,1.871,0.241c0.684,0.162,1.509,0.423,2.475,0.785l0.664,6.157v0.06c0,0.041,0.009,0.071,0.03,0.091
			c0.02,0.021,0.03,0.051,0.03,0.09c0,0.604-0.192,1.006-0.574,1.207C150.55,182.024,150.199,182.124,149.877,182.124z"/>
		<path d="M179.029,202.947c-2.334,0-4.165-0.604-5.493-1.811c-2.656,1.207-5.292,1.811-7.907,1.811
			c-3.099,0-5.473-0.764-7.122-2.293c-1.65-1.529-2.475-3.561-2.475-6.096c0-1.729,0.382-3.208,1.146-4.436
			c0.764-1.227,1.82-2.223,3.169-2.988c1.348-0.764,2.937-1.317,4.768-1.66c1.831-0.341,3.812-0.513,5.945-0.513h0.966
			c0.16,0,0.271-0.02,0.332-0.061c0.06-0.04,0.09-0.16,0.09-0.362v-1.992c0-3.782-1.73-5.674-5.191-5.674
			c-1.167,0-2.304,0.061-3.41,0.181c-1.107,0.121-2.203,0.342-3.289,0.664c-0.523-0.04-0.987-0.171-1.388-0.393
			c-0.403-0.221-0.604-0.613-0.604-1.177c0-0.483,0.16-0.885,0.482-1.207c0.322-0.322,0.684-0.583,1.086-0.785
			c1.649-0.764,4.023-1.147,7.122-1.147c3.863,0,6.73,0.866,8.601,2.595c1.871,1.73,2.807,4.206,2.807,7.424v15.331
			c0,0.402,0.322,0.745,0.966,1.026c0.483,0.121,0.865,0.302,1.146,0.543c0.522,0.282,0.785,0.725,0.785,1.328
			c-0.081,0.644-0.373,1.086-0.875,1.328C180.185,202.826,179.633,202.947,179.029,202.947z M172.45,188.703
			c0-0.201-0.021-0.312-0.061-0.332c-0.041-0.02-0.161-0.03-0.362-0.03c-1.972,0.081-3.602,0.271-4.889,0.574
			c-1.288,0.302-2.314,0.704-3.078,1.207c-0.765,0.503-1.308,1.127-1.629,1.871c-0.323,0.745-0.483,1.56-0.483,2.444
			c0,0.564,0.08,1.117,0.241,1.66c0.161,0.543,0.453,1.026,0.875,1.449c0.422,0.422,0.975,0.765,1.66,1.026
			c0.684,0.262,1.548,0.393,2.595,0.393c1.529,0,3.018-0.181,4.466-0.543c0.442-0.121,0.664-0.341,0.664-0.664V188.703z"/>
		<path d="M219.226,202.947h-13.942c-0.523,0-0.966-0.13-1.328-0.392c-0.362-0.261-0.543-0.674-0.543-1.237
			c0-0.322,0.09-0.604,0.271-0.845s0.372-0.422,0.573-0.543c0.201-0.121,0.423-0.231,0.664-0.332c0.242-0.1,0.462-0.191,0.664-0.272
			c0.321-0.08,0.613-0.16,0.875-0.241c0.261-0.08,0.412-0.261,0.453-0.543l0.061-30.902c0-0.322-0.151-0.543-0.453-0.664
			s-0.614-0.261-0.936-0.422c-0.443-0.201-0.916-0.453-1.418-0.754c-0.503-0.302-0.754-0.734-0.754-1.298
			c0-0.563,0.181-0.975,0.543-1.237c0.362-0.261,0.805-0.393,1.328-0.393h10.924c4.909,0,8.661,0.898,11.257,2.693
			c2.595,1.794,3.893,4.567,3.893,8.317c0,3.387-1.147,6.009-3.44,7.863c3.902,1.687,5.854,4.92,5.854,9.699
			c0,3.896-1.237,6.787-3.712,8.674C227.585,202.004,223.974,202.947,219.226,202.947z M216.251,167.276l-2.822-0.061
			c-0.2,0-0.3,0.082-0.3,0.243v12.551c0,0.202,0.02,0.324,0.06,0.364s0.141,0.06,0.301,0.06h3.783c2.522,0,4.363-0.555,5.523-1.667
			c1.16-1.111,1.741-2.738,1.741-4.881c0-2.142-0.661-3.758-1.981-4.85C221.235,167.944,219.134,167.357,216.251,167.276z
			 M219.261,184.719h-5.89c-0.161,0-0.241,0.101-0.241,0.303v13.275c0,0.243,0.14,0.364,0.421,0.364h5.71
			c2.885,0,4.989-0.586,6.311-1.758c1.322-1.171,1.983-2.909,1.983-5.213c0-2.303-0.661-4.042-1.983-5.213
			C224.25,185.306,222.146,184.719,219.261,184.719z"/>
		<path d="M251.697,203.369c-2.012,0-3.843-0.362-5.492-1.086c-1.65-0.724-3.059-1.729-4.225-3.018
			c-1.167-1.288-2.073-2.846-2.716-4.678c-0.645-1.831-0.966-3.833-0.966-6.005c0-3.46,0.694-6.478,2.082-9.054
			c1.389-2.575,3.39-4.365,6.006-5.372c1.811-0.684,3.581-1.026,5.311-1.026c1.932,0,3.722,0.362,5.372,1.086
			c1.649,0.725,3.078,1.75,4.285,3.078c1.207,1.328,2.143,2.948,2.807,4.859c0.664,1.912,0.996,4.054,0.996,6.428
			c0,2.133-0.312,4.104-0.936,5.915c-0.625,1.811-1.52,3.371-2.686,4.678c-1.167,1.308-2.586,2.334-4.255,3.078
			C255.61,202.997,253.75,203.369,251.697,203.369z M251.758,177.416c-1.047,0-2.013,0.241-2.897,0.724
			c-1.409,0.685-2.455,1.932-3.139,3.742c-0.685,1.811-1.026,4.044-1.026,6.7c0,3.018,0.563,5.483,1.69,7.394
			c1.126,1.912,2.897,2.867,5.311,2.867c2.213,0,3.954-0.884,5.221-2.655c1.268-1.771,1.901-4.225,1.901-7.364
			c0-3.581-0.584-6.377-1.75-8.39C255.902,178.422,254.131,177.416,251.758,177.416z"/>
		<path d="M279.824,202.947h-9.416c-0.482,0-0.926-0.121-1.328-0.362c-0.403-0.241-0.604-0.664-0.604-1.267
			c0-0.322,0.09-0.604,0.271-0.845s0.393-0.422,0.634-0.543c0.201-0.121,0.412-0.231,0.634-0.332c0.221-0.1,0.453-0.191,0.694-0.272
			c0.322-0.121,0.624-0.211,0.906-0.271c0.281-0.061,0.422-0.231,0.422-0.513v-33.92c0-0.241-0.131-0.352-0.393-0.332
			c-0.262,0.021-0.513,0.011-0.754-0.03c-0.241-0.04-0.483-0.081-0.724-0.121c-0.241-0.04-0.463-0.1-0.664-0.181
			c-0.241-0.08-0.473-0.22-0.694-0.422c-0.222-0.201-0.332-0.502-0.332-0.905c0-0.362,0.201-0.704,0.604-1.026
			c0.402-0.322,0.895-0.604,1.479-0.845c0.583-0.241,1.177-0.442,1.781-0.604c0.604-0.16,1.126-0.241,1.569-0.241h2.354
			c0.604,0,1.086,0.171,1.448,0.513c0.362,0.342,0.543,0.795,0.543,1.358v36.757c0,0.282,0.13,0.463,0.392,0.543
			c0.261,0.081,0.553,0.161,0.875,0.241c0.201,0.081,0.422,0.172,0.664,0.272c0.242,0.101,0.462,0.211,0.664,0.332
			c0.201,0.121,0.402,0.302,0.604,0.543c0.201,0.241,0.302,0.523,0.302,0.845c0,0.563-0.191,0.976-0.573,1.237
			C280.799,202.816,280.346,202.947,279.824,202.947z"/>
		<path d="M303.302,173.251v-0.181v-8.45c0-0.201-0.121-0.302-0.362-0.302c-0.242,0-0.463-0.02-0.664-0.06
			c-0.202-0.04-0.422-0.081-0.664-0.121c-0.241-0.04-0.463-0.1-0.664-0.181c-0.242-0.08-0.463-0.22-0.664-0.422
			c-0.202-0.201-0.342-0.502-0.422-0.905c0.04-0.362,0.281-0.714,0.724-1.056c0.442-0.341,0.945-0.634,1.509-0.875
			c0.563-0.241,1.147-0.432,1.75-0.573c0.604-0.141,1.106-0.211,1.509-0.211h2.415c0.643,0,1.126,0.171,1.448,0.513
			c0.322,0.342,0.483,0.795,0.483,1.358v36.456c0,0.323,0.07,0.554,0.211,0.694c0.141,0.142,0.372,0.292,0.694,0.453l0.543,0.181
			c0.402,0.161,0.733,0.362,0.996,0.604c0.261,0.241,0.432,0.583,0.513,1.026c0,0.685-0.282,1.147-0.845,1.388
			c-0.563,0.242-1.127,0.362-1.69,0.362c-2.414,0-4.246-0.684-5.492-2.052c-1.449,0.685-2.837,1.228-4.165,1.63
			c-1.328,0.402-2.636,0.604-3.923,0.604c-2.173,0-4.004-0.473-5.493-1.418c-1.489-0.945-2.696-2.102-3.621-3.471
			c-0.926-1.367-1.6-2.826-2.022-4.375c-0.422-1.549-0.634-2.928-0.634-4.135c0-1.77,0.241-3.661,0.724-5.673
			c0.483-2.012,1.268-3.863,2.354-5.553s2.484-3.098,4.195-4.225c1.71-1.126,3.812-1.69,6.307-1.69c0.725,0,1.479,0.06,2.264,0.181
			c0.785,0.121,1.639,0.282,2.565,0.483H303.302z M303.604,178.201c0-0.242-0.181-0.442-0.543-0.604
			c-1.328-0.604-2.595-0.905-3.803-0.905c-1.006,0-1.972,0.272-2.897,0.815c-0.926,0.543-1.75,1.338-2.475,2.384
			c-0.724,1.047-1.298,2.324-1.72,3.833s-0.634,3.229-0.634,5.161c0,3.34,0.644,5.815,1.932,7.424
			c1.287,1.61,2.876,2.414,4.768,2.414c0.281,0,0.724-0.009,1.328-0.03c0.604-0.02,1.207-0.08,1.811-0.181
			c0.604-0.1,1.126-0.261,1.569-0.483c0.442-0.221,0.664-0.533,0.664-0.936V178.201z"/>
	</g>
	<g>
		<path d="M104.147,382.045l-2.498-7.839c-0.139-0.417-0.416-0.625-0.833-0.625H85.694c-0.463,0-0.763,0.059-0.902,0.174
			c-0.139,0.116-0.232,0.243-0.277,0.382l-2.15,7.77v0.069l-0.069,0.069c0.092,0.093,0.196,0.139,0.312,0.139
			c0.115,0,0.219,0.023,0.312,0.069c0.139,0.093,0.347,0.186,0.625,0.277c0.647,0.231,1.214,0.532,1.7,0.901
			c0.485,0.371,0.728,0.81,0.728,1.318c0,0.693-0.243,1.18-0.728,1.457c-0.486,0.277-1.006,0.416-1.561,0.416h-9.504
			c-0.602,0-1.122-0.149-1.561-0.451c-0.439-0.3-0.659-0.773-0.659-1.422c0-0.509,0.186-0.913,0.555-1.214s0.786-0.543,1.249-0.729
			c0.231-0.092,0.485-0.185,0.763-0.277c0.416-0.185,0.82-0.357,1.214-0.521c0.393-0.161,0.659-0.427,0.798-0.798l13.319-39.333
			c0.462-1.294,1.364-1.942,2.706-1.942h2.636c1.294,0,2.15,0.602,2.566,1.803l13.458,39.541c0.092,0.232,0.253,0.451,0.485,0.659
			c0.231,0.208,0.67,0.359,1.318,0.451c0.924,0.324,1.606,0.705,2.046,1.145c0.439,0.44,0.659,0.845,0.659,1.214
			c0,0.648-0.22,1.122-0.659,1.422c-0.44,0.302-0.96,0.451-1.561,0.451h-10.752c-0.602,0-1.134-0.139-1.595-0.416
			c-0.463-0.277-0.694-0.764-0.694-1.457c0-0.416,0.219-0.82,0.659-1.214c0.439-0.393,0.982-0.705,1.63-0.937
			c0.231-0.092,0.439-0.185,0.625-0.277c0.184-0.093,0.37-0.185,0.555-0.277c0.045-0.046,0.092-0.046,0.139,0
			C104.123,382.091,104.147,382.091,104.147,382.045z M99.707,368.656v-0.208l-6.451-19.077l-6.729,19.146
			c-0.047,0.093-0.069,0.186-0.069,0.277l0.069-0.139H99.707z"/>
		<path d="M139.594,386.623H123.57c-0.602,0-1.11-0.149-1.526-0.451c-0.416-0.3-0.624-0.773-0.624-1.422
			c0-0.369,0.104-0.693,0.312-0.971c0.208-0.278,0.427-0.486,0.659-0.625c0.23-0.139,0.485-0.266,0.763-0.381
			c0.278-0.115,0.531-0.22,0.763-0.312c0.37-0.092,0.705-0.185,1.006-0.277c0.3-0.093,0.474-0.301,0.521-0.625l0.069-35.517
			c0-0.37-0.173-0.625-0.521-0.763c-0.347-0.139-0.706-0.3-1.075-0.485c-0.509-0.231-1.052-0.521-1.63-0.867
			c-0.579-0.347-0.867-0.843-0.867-1.492c0-0.647,0.208-1.121,0.624-1.422c0.417-0.3,0.925-0.451,1.526-0.451h12.556
			c5.642,0,9.955,1.032,12.938,3.095s4.474,5.25,4.474,9.559c0,3.894-1.318,6.906-3.954,9.037c4.485,1.939,6.729,5.655,6.729,11.147
			c0,4.478-1.422,7.801-4.266,9.97C149.202,385.539,145.051,386.623,139.594,386.623z M136.176,345.625l-3.243-0.069
			c-0.23,0-0.345,0.093-0.345,0.279v14.425c0,0.232,0.023,0.372,0.068,0.419s0.162,0.069,0.346,0.069h4.348
			c2.898,0,5.014-0.639,6.348-1.916c1.333-1.277,2.001-3.148,2.001-5.611c0-2.461-0.76-4.319-2.277-5.574
			C141.903,346.393,139.488,345.718,136.176,345.625z M139.634,365.673h-6.77c-0.184,0-0.276,0.116-0.276,0.349v15.258
			c0,0.279,0.16,0.419,0.483,0.419h6.563c3.316,0,5.734-0.674,7.253-2.021c1.52-1.347,2.28-3.345,2.28-5.992
			c0-2.646-0.76-4.645-2.28-5.992C145.368,366.348,142.95,365.673,139.634,365.673z"/>
		<path d="M182.187,386.97c-6.984,0-12.175-1.953-15.574-5.861c-3.399-3.908-5.099-9.747-5.099-17.517
			c0-15.584,6.89-23.377,20.672-23.377c2.081,0,4.115,0.232,6.104,0.694c1.988,0.463,4.023,1.226,6.104,2.289v6.382
			c0,0.972-0.186,1.677-0.555,2.116c-0.371,0.439-0.81,0.658-1.318,0.658c-0.74,0-1.295-0.266-1.665-0.797
			c-0.371-0.531-0.671-1.121-0.902-1.769l-0.624-1.804c-0.602-0.925-1.422-1.63-2.463-2.116c-1.041-0.486-2.393-0.729-4.058-0.729
			c-1.942,0-3.77,0.381-5.48,1.145c-1.712,0.763-3.203,1.908-4.475,3.434c-1.272,1.526-2.267,3.446-2.983,5.757
			c-0.717,2.313-1.075,5.019-1.075,8.116c0,3.1,0.358,5.805,1.075,8.116c0.716,2.313,1.71,4.232,2.983,5.758
			c1.271,1.526,2.763,2.671,4.475,3.435c1.71,0.763,3.538,1.145,5.48,1.145c1.665,0,3.018-0.243,4.058-0.729s1.861-1.19,2.463-2.116
			l0.624-1.804c0.231-0.646,0.531-1.236,0.902-1.769c0.37-0.531,0.925-0.798,1.665-0.798c0.508,0,0.947,0.22,1.318,0.659
			c0.37,0.439,0.555,1.145,0.555,2.115v6.452c-2.174,1.018-4.255,1.758-6.243,2.22C186.164,386.738,184.175,386.97,182.187,386.97z"
			/>
		<path d="M216.733,386.623h-15.608c-0.602,0-1.11-0.149-1.526-0.451c-0.416-0.3-0.624-0.773-0.624-1.422
			c0-0.369,0.104-0.693,0.312-0.971c0.208-0.278,0.427-0.486,0.659-0.625c0.23-0.139,0.485-0.266,0.763-0.381
			c0.278-0.115,0.531-0.22,0.763-0.312c0.37-0.092,0.716-0.185,1.041-0.277c0.323-0.093,0.486-0.301,0.486-0.625v-35.864
			c0-0.323-0.163-0.531-0.486-0.624c-0.324-0.092-0.671-0.208-1.041-0.347c-0.232-0.092-0.485-0.196-0.763-0.312
			c-0.277-0.115-0.532-0.243-0.763-0.381c-0.232-0.139-0.451-0.347-0.659-0.625s-0.312-0.601-0.312-0.971
			c0-0.694,0.23-1.179,0.693-1.457c0.462-0.278,0.971-0.417,1.526-0.417h15.47c6.705,0,11.7,1.942,14.984,5.827
			c3.283,3.885,4.925,9.62,4.925,17.204c0,7.586-1.642,13.319-4.925,17.204C228.363,384.681,223.392,386.623,216.733,386.623z
			 M216.664,345.486h-6.036c-0.324,0-0.485,0.139-0.485,0.417v35.24c0,0.232,0.023,0.382,0.069,0.451
			c0.045,0.069,0.231,0.104,0.555,0.104h5.966c3.838,0,6.855-1.468,9.053-4.405c2.196-2.937,3.295-7.503,3.295-13.701
			c0-6.196-1.11-10.763-3.33-13.7C223.531,346.955,220.501,345.486,216.664,345.486z"/>
		<path d="M275.836,386.623H245.59c-0.602,0-1.134-0.139-1.596-0.416c-0.463-0.277-0.693-0.764-0.693-1.457
			c0-0.369,0.104-0.693,0.312-0.971c0.208-0.278,0.427-0.486,0.659-0.625c0.23-0.139,0.485-0.266,0.763-0.381
			c0.278-0.115,0.531-0.22,0.763-0.312c0.37-0.092,0.705-0.185,1.006-0.277c0.3-0.093,0.474-0.301,0.521-0.625l0.069-35.864
			c0-0.323-0.163-0.52-0.486-0.589c-0.324-0.069-0.648-0.149-0.971-0.243c-0.277-0.092-0.567-0.185-0.867-0.278
			c-0.301-0.092-0.567-0.23-0.797-0.416c-0.648-0.416-0.971-0.994-0.971-1.734c0-0.647,0.208-1.121,0.624-1.422
			c0.417-0.3,0.925-0.451,1.526-0.451h30.454c0.693,0,1.249,0.197,1.665,0.59c0.417,0.394,0.625,0.914,0.625,1.561v4.579
			c0,0.555-0.163,1.041-0.486,1.457c-0.324,0.416-0.81,0.624-1.457,0.624c-0.555,0-1.03-0.243-1.422-0.729
			c-0.394-0.485-0.729-1.051-1.006-1.699c-0.139-0.323-0.243-0.647-0.312-0.971c-0.069-0.323-0.243-0.486-0.52-0.486h-18.106
			c-0.277,0-0.416,0.139-0.416,0.414v14.364c0,0.185,0.023,0.311,0.069,0.38c0.045,0.069,0.208,0.104,0.485,0.104h7.839
			c0.278,0,0.462-0.162,0.555-0.485c0.092-0.323,0.208-0.647,0.347-0.972c0.231-0.508,0.521-1.051,0.867-1.63
			c0.347-0.578,0.867-0.867,1.561-0.867c0.693,0,1.19,0.231,1.491,0.693c0.3,0.463,0.451,0.948,0.451,1.457v8.394
			c0,0.602-0.139,1.134-0.417,1.596c-0.277,0.463-0.787,0.693-1.526,0.693c-0.694,0-1.214-0.288-1.561-0.867
			c-0.347-0.577-0.636-1.12-0.867-1.63c-0.139-0.323-0.254-0.647-0.347-0.971c-0.093-0.323-0.277-0.486-0.555-0.486h-7.839
			c-0.232,0-0.381,0.035-0.451,0.104s-0.104,0.267-0.104,0.59v14.983c0,0.232,0.092,0.348,0.277,0.348h18.036
			c0.37,0,0.613-0.162,0.729-0.486c0.115-0.323,0.243-0.646,0.382-0.971c0.092-0.231,0.196-0.474,0.312-0.729
			c0.115-0.254,0.266-0.496,0.451-0.729c0.139-0.23,0.347-0.451,0.625-0.659s0.625-0.312,1.041-0.312
			c0.647,0,1.121,0.208,1.422,0.624c0.3,0.416,0.451,0.901,0.451,1.457v4.509C278.194,385.884,277.407,386.623,275.836,386.623z"/>
		<path d="M315.861,349.371c-0.555,0-0.995-0.173-1.318-0.52c-0.324-0.347-0.602-0.729-0.833-1.145
			c-0.047-0.139-0.093-0.266-0.139-0.382c-0.047-0.115-0.093-0.243-0.139-0.381c-0.139-0.323-0.267-0.647-0.382-0.971
			c-0.116-0.323-0.336-0.486-0.659-0.486h-17.689c-0.463,0-0.694,0.162-0.694,0.483v14.364c0,0.276,0.208,0.414,0.625,0.414h7.839
			c0.277,0,0.451-0.149,0.52-0.451c0.069-0.3,0.173-0.635,0.312-1.006c0.278-0.646,0.613-1.225,1.006-1.734
			c0.393-0.508,0.867-0.763,1.422-0.763c0.647,0,1.133,0.208,1.457,0.624c0.323,0.416,0.486,0.926,0.486,1.526v8.671
			c0,0.556-0.163,1.03-0.486,1.423c-0.324,0.393-0.81,0.589-1.457,0.589c-0.694,0-1.214-0.288-1.561-0.867
			c-0.347-0.577-0.636-1.12-0.867-1.63c-0.139-0.323-0.254-0.647-0.347-0.971c-0.093-0.323-0.277-0.486-0.555-0.486h-7.838
			c-0.278,0-0.44,0.035-0.486,0.104c-0.046,0.069-0.069,0.22-0.069,0.451v15.399c0,0.278,0.149,0.463,0.451,0.556
			c0.3,0.093,0.635,0.186,1.006,0.277c0.278,0.093,0.555,0.197,0.833,0.312c0.278,0.115,0.531,0.242,0.763,0.381
			c0.231,0.186,0.462,0.405,0.694,0.659c0.231,0.255,0.347,0.567,0.347,0.937c0,0.693-0.243,1.18-0.729,1.457
			c-0.485,0.277-1.006,0.416-1.561,0.416h-10.752c-0.602,0-1.134-0.139-1.596-0.416c-0.463-0.277-0.693-0.764-0.693-1.457
			c0-0.647,0.3-1.121,0.901-1.422c0.601-0.301,1.156-0.566,1.665-0.798c0.323-0.139,0.659-0.254,1.006-0.347
			c0.347-0.093,0.521-0.277,0.521-0.556v-36.142c0-0.045-0.093-0.115-0.278-0.208c-0.371-0.184-0.787-0.37-1.249-0.555
			c-0.694-0.23-1.295-0.543-1.804-0.936c-0.509-0.393-0.763-0.844-0.763-1.353c0-0.647,0.208-1.121,0.624-1.422
			c0.417-0.3,0.925-0.451,1.526-0.451h30.87c0.647,0,1.133,0.208,1.457,0.625c0.323,0.416,0.485,0.902,0.485,1.457v4.648
			c0,0.555-0.151,1.041-0.451,1.457C316.981,349.163,316.508,349.371,315.861,349.371z"/>
		<path d="M358.316,368.864c-0.232,0.139-0.485,0.267-0.763,0.382c-0.277,0.115-0.532,0.22-0.763,0.312
			c-0.371,0.094-0.706,0.197-1.006,0.312c-0.301,0.116-0.451,0.312-0.451,0.59v13.319c-1.342,0.509-2.567,0.96-3.677,1.353
			c-1.11,0.394-2.197,0.718-3.26,0.971c-1.064,0.255-2.174,0.451-3.33,0.59c-1.157,0.139-2.428,0.208-3.815,0.208
			c-6.706,0-11.701-1.965-14.984-5.896c-3.285-3.93-4.925-9.734-4.925-17.412c0-7.676,1.641-13.48,4.925-17.412
			c3.283-3.93,8.278-5.896,14.984-5.896c1.572,0,2.994,0.069,4.266,0.208c1.271,0.139,2.451,0.347,3.538,0.625
			c1.086,0.277,2.138,0.613,3.156,1.006c1.017,0.394,2.057,0.844,3.122,1.353v6.937c0,0.555-0.151,1.065-0.451,1.526
			c-0.302,0.463-0.798,0.694-1.492,0.694c-1.064,0-1.897-0.833-2.497-2.498l-0.625-1.873c-0.277-0.416-0.602-0.809-0.971-1.179
			c-0.371-0.37-0.856-0.694-1.457-0.971c-0.602-0.277-1.364-0.497-2.289-0.659c-0.926-0.162-2.036-0.243-3.33-0.243
			c-2.036,0-3.919,0.359-5.654,1.075c-1.734,0.718-3.226,1.828-4.475,3.33c-1.249,1.503-2.22,3.412-2.913,5.723
			c-0.694,2.313-1.041,5.064-1.041,8.255c0,3.146,0.347,5.874,1.041,8.186c0.693,2.313,1.665,4.222,2.913,5.724
			c1.249,1.503,2.729,2.625,4.44,3.364c1.71,0.74,3.583,1.11,5.619,1.11c2.404,0,4.046-0.289,4.925-0.867
			c0.878-0.578,1.318-1.19,1.318-1.839v-8.948c0-0.231-0.163-0.382-0.485-0.451c-0.324-0.069-0.671-0.174-1.041-0.312
			c-0.648-0.277-1.226-0.601-1.734-0.971c-0.51-0.37-0.763-0.833-0.763-1.388c0-0.646,0.231-1.109,0.694-1.388
			c0.461-0.277,0.971-0.416,1.526-0.416h10.614c0.601,0,1.11,0.139,1.526,0.416c0.417,0.278,0.625,0.741,0.625,1.388
			c0,0.416-0.116,0.752-0.347,1.006C358.778,368.46,358.547,368.68,358.316,368.864z"/>
		<path d="M401.671,386.623h-10.614c-0.602,0-1.134-0.139-1.595-0.416c-0.463-0.277-0.694-0.764-0.694-1.457
			c0-0.509,0.184-0.913,0.555-1.214c0.37-0.301,0.786-0.543,1.249-0.729c0.092-0.092,0.208-0.149,0.347-0.174
			c0.139-0.022,0.277-0.08,0.417-0.173c0.37-0.092,0.716-0.174,1.041-0.243c0.323-0.069,0.485-0.242,0.485-0.52v-15.678
			c0-0.231-0.093-0.348-0.277-0.348h-19.146c-0.324,0-0.485,0.186-0.485,0.556v15.399c0,0.278,0.149,0.463,0.451,0.556
			c0.3,0.093,0.635,0.186,1.006,0.277c0.278,0.093,0.555,0.186,0.833,0.277c0.278,0.093,0.531,0.232,0.763,0.416
			c0.231,0.139,0.462,0.347,0.694,0.625c0.231,0.277,0.347,0.602,0.347,0.971c0,0.648-0.208,1.122-0.625,1.422
			c-0.416,0.302-0.925,0.451-1.526,0.451h-10.891c-0.602,0-1.134-0.139-1.596-0.416c-0.463-0.277-0.693-0.764-0.693-1.457
			c0-0.369,0.104-0.693,0.312-0.971c0.208-0.278,0.427-0.486,0.659-0.625c0.23-0.184,0.485-0.323,0.763-0.416
			c0.278-0.092,0.555-0.185,0.833-0.277c0.37-0.092,0.716-0.185,1.041-0.277c0.323-0.093,0.486-0.277,0.486-0.556v-36.072
			c0-0.277-0.163-0.451-0.486-0.52c-0.324-0.069-0.671-0.173-1.041-0.312c-0.277-0.092-0.555-0.196-0.833-0.312
			c-0.277-0.115-0.532-0.243-0.763-0.381c-0.232-0.139-0.451-0.347-0.659-0.625s-0.312-0.601-0.312-0.971
			c0-0.694,0.23-1.179,0.693-1.457c0.462-0.278,0.971-0.417,1.526-0.417h10.96c0.601,0,1.11,0.151,1.526,0.45
			c0.417,0.299,0.625,0.771,0.625,1.417c0,0.369-0.116,0.691-0.347,0.968c-0.232,0.277-0.486,0.484-0.763,0.622
			c-0.232,0.139-0.475,0.266-0.729,0.381c-0.254,0.115-0.52,0.219-0.798,0.311c-0.371,0.092-0.706,0.184-1.006,0.276
			c-0.301,0.093-0.451,0.3-0.451,0.622v14.587c0,0.368,0.162,0.553,0.485,0.553h19.146c0.184,0,0.277-0.115,0.277-0.346v-15.001
			c0-0.092-0.093-0.139-0.277-0.139c-0.371-0.185-0.787-0.369-1.249-0.553c-0.694-0.23-1.295-0.541-1.804-0.934
			c-0.51-0.391-0.763-0.841-0.763-1.348c0-0.737,0.243-1.232,0.729-1.486c0.485-0.253,1.028-0.38,1.63-0.38h10.683
			c0.601,0,1.121,0.151,1.561,0.451c0.439,0.301,0.659,0.775,0.659,1.422c0,0.509-0.197,0.914-0.589,1.214
			c-0.394,0.302-0.798,0.567-1.214,0.798c-0.139,0.047-0.278,0.093-0.417,0.139c-0.139,0.047-0.254,0.093-0.347,0.139
			c-0.371,0.139-0.706,0.255-1.006,0.347c-0.301,0.093-0.451,0.277-0.451,0.555v36.003c0,0.094,0.058,0.221,0.174,0.382
			c0.115,0.163,0.52,0.29,1.214,0.382c0.647,0.186,1.259,0.463,1.838,0.832c0.578,0.371,0.867,0.879,0.867,1.526
			c0,0.74-0.255,1.238-0.763,1.491C402.826,386.496,402.271,386.623,401.671,386.623z"/>
		<path d="M423.799,386.623h-10.822c-0.555,0-1.064-0.139-1.526-0.416c-0.463-0.277-0.693-0.764-0.693-1.457
			s0.265-1.202,0.797-1.526c0.531-0.322,1.145-0.601,1.838-0.832c0.185-0.092,0.382-0.162,0.59-0.208s0.404-0.115,0.589-0.208
			c0.185-0.139,0.278-0.254,0.278-0.348v-36.211c0-0.092-0.093-0.139-0.278-0.139c-0.371-0.184-0.787-0.37-1.249-0.555
			c-0.694-0.23-1.295-0.543-1.804-0.936c-0.509-0.393-0.763-0.844-0.763-1.353c0-0.694,0.23-1.179,0.693-1.457
			c0.462-0.278,0.994-0.417,1.596-0.417h10.752c0.555,0,1.075,0.139,1.561,0.417c0.486,0.277,0.729,0.763,0.729,1.457
			c0,0.648-0.29,1.157-0.867,1.526c-0.579,0.371-1.191,0.648-1.838,0.833c-0.648,0.093-1.041,0.232-1.179,0.416
			c-0.139,0.186-0.208,0.324-0.208,0.416v35.934c0,0.324,0.149,0.521,0.451,0.59c0.3,0.069,0.635,0.151,1.006,0.243
			c0.278,0.093,0.555,0.186,0.833,0.277c0.278,0.093,0.531,0.208,0.763,0.347c0.277,0.186,0.521,0.429,0.729,0.729
			c0.208,0.302,0.312,0.659,0.312,1.075c-0.046,0.648-0.29,1.11-0.729,1.388C424.92,386.484,424.4,386.623,423.799,386.623z"/>
		<path d="M453.003,344.03c-0.232,0.139-0.475,0.267-0.729,0.381c-0.254,0.116-0.52,0.22-0.797,0.312
			c-0.371,0.093-0.706,0.186-1.006,0.278c-0.302,0.093-0.451,0.301-0.451,0.624v31.009c0,1.942-0.186,3.572-0.555,4.891
			c-0.371,1.318-0.926,2.37-1.665,3.156c-0.74,0.787-1.677,1.342-2.81,1.665c-1.134,0.323-2.44,0.485-3.919,0.485
			c-0.833,0-1.734-0.069-2.706-0.208s-1.873-0.357-2.705-0.659c-0.833-0.3-1.526-0.704-2.082-1.214
			c-0.555-0.509-0.832-1.133-0.832-1.873c0-0.508,0.104-1.006,0.312-1.491s0.682-0.729,1.422-0.729c0.462,0,0.902,0.034,1.318,0.104
			c0.416,0.069,0.809,0.15,1.179,0.242c0.323,0.094,0.635,0.163,0.937,0.208c0.3,0.047,0.612,0.069,0.937,0.069
			c1.433,0,2.462-0.277,3.087-0.832s0.937-1.388,0.937-2.497v-32.258c0-0.184-0.069-0.357-0.208-0.52
			c-0.139-0.162-0.51-0.289-1.11-0.381c-0.694-0.185-1.318-0.462-1.873-0.833c-0.555-0.37-0.833-0.878-0.833-1.526
			c0-0.694,0.231-1.179,0.693-1.457c0.462-0.278,0.971-0.417,1.526-0.417h10.822c0.601,0,1.121,0.151,1.561,0.451
			c0.439,0.301,0.659,0.775,0.659,1.422c0,0.371-0.116,0.694-0.347,0.971C453.534,343.683,453.28,343.891,453.003,344.03z"/>
		<path d="M481.861,344.654l-0.417-0.208c-0.509-0.231-0.925-0.508-1.249-0.833c-0.324-0.323-0.485-0.716-0.485-1.179
			c0-0.694,0.23-1.179,0.693-1.457c0.462-0.278,0.994-0.417,1.596-0.417h8.741c0.555,0,1.075,0.139,1.561,0.417
			c0.486,0.277,0.729,0.763,0.729,1.457c0,0.509-0.277,0.96-0.833,1.353c-0.555,0.393-1.226,0.728-2.012,1.006
			c-0.463,0.139-0.995,0.324-1.595,0.555c-0.51,0.232-0.787,0.394-0.833,0.486l-14.083,14.984c-0.093,0.093-0.139,0.162-0.139,0.208
			v0.139c0,0.094,0.011,0.197,0.035,0.312c0.023,0.116,0.15,0.289,0.382,0.521l17.759,19.076c0.37,0.371,0.809,0.659,1.318,0.867
			c0.508,0.208,1.017,0.405,1.526,0.59c0.739,0.231,1.341,0.521,1.803,0.867c0.462,0.347,0.694,0.798,0.694,1.353
			c0,0.693-0.243,1.18-0.729,1.457c-0.485,0.277-1.006,0.416-1.561,0.416h-5.411c-1.11,0-2.174-0.393-3.191-1.18l-16.926-17.967
			v14.222c0,0.277,0.162,0.45,0.485,0.52c0.323,0.069,0.647,0.151,0.971,0.243c0.739,0.231,1.364,0.544,1.873,0.937
			c0.508,0.394,0.763,0.867,0.763,1.422c-0.046,0.648-0.29,1.11-0.729,1.388c-0.44,0.277-0.937,0.416-1.491,0.416h-10.891
			c-0.555,0-1.064-0.139-1.526-0.416c-0.463-0.277-0.693-0.764-0.693-1.457c0-0.369,0.104-0.693,0.312-0.971
			c0.208-0.278,0.427-0.486,0.659-0.625c0.23-0.184,0.485-0.323,0.763-0.416c0.278-0.092,0.555-0.185,0.833-0.277
			c0.37-0.092,0.716-0.185,1.041-0.277c0.323-0.093,0.486-0.277,0.486-0.556v-36.142c0-0.045-0.093-0.115-0.278-0.208
			c-0.371-0.184-0.787-0.37-1.249-0.555c-0.694-0.23-1.295-0.543-1.804-0.936c-0.509-0.393-0.763-0.844-0.763-1.353
			c0-0.647,0.208-1.121,0.624-1.422c0.417-0.3,0.925-0.451,1.526-0.451h10.96c0.601,0,1.121,0.151,1.561,0.451
			c0.439,0.301,0.659,0.775,0.659,1.422c0,0.509-0.197,0.914-0.589,1.214c-0.394,0.302-0.822,0.567-1.284,0.798
			c-0.093,0.047-0.208,0.093-0.347,0.139c-0.139,0.047-0.277,0.093-0.417,0.139c-0.371,0.139-0.706,0.243-1.006,0.312
			c-0.301,0.069-0.451,0.243-0.451,0.52v12.626L481.861,344.654z"/>
		<path d="M533.333,386.623h-29.136c-0.555,0-1.064-0.139-1.525-0.416c-0.463-0.277-0.694-0.764-0.694-1.457
			c0-0.369,0.104-0.693,0.312-0.971c0.208-0.278,0.427-0.486,0.659-0.625c0.23-0.184,0.485-0.323,0.763-0.416
			c0.277-0.092,0.555-0.185,0.833-0.277c0.369-0.092,0.716-0.185,1.04-0.277c0.323-0.093,0.485-0.277,0.485-0.556v-36.003
			c0-0.323-0.162-0.531-0.485-0.624c-0.324-0.092-0.671-0.208-1.04-0.347c-0.278-0.092-0.556-0.196-0.833-0.312
			c-0.277-0.115-0.532-0.243-0.763-0.381c-0.232-0.139-0.451-0.347-0.659-0.625s-0.312-0.601-0.312-0.971
			c0-0.694,0.243-1.167,0.729-1.422c0.485-0.254,1.006-0.382,1.561-0.382h10.892c0.555,0,1.052,0.14,1.491,0.417
			s0.659,0.741,0.659,1.39c0,0.509-0.267,0.961-0.798,1.355c-0.532,0.395-1.145,0.707-1.838,0.938
			c-0.371,0.14-0.706,0.244-1.006,0.313c-0.302,0.069-0.451,0.244-0.451,0.521v35.716c0,0.187,0.022,0.313,0.069,0.383
			c0.046,0.069,0.185,0.104,0.416,0.104h16.719c0.277,0,0.45-0.162,0.52-0.486c0.07-0.323,0.174-0.646,0.312-0.971
			c0.277-0.647,0.612-1.225,1.006-1.734c0.393-0.509,0.867-0.764,1.422-0.764c0.647,0,1.133,0.198,1.457,0.59
			c0.323,0.394,0.485,0.845,0.485,1.353v5.022c0,0.639-0.22,1.117-0.658,1.436C534.523,386.464,533.98,386.623,533.333,386.623z"/>
		<path d="M564.202,373.165l12.834-30.037c0.369-0.786,0.798-1.41,1.283-1.873c0.485-0.462,1.121-0.694,1.907-0.694h6.799
			c0.601,0,1.109,0.151,1.526,0.451c0.416,0.301,0.624,0.775,0.624,1.422c0,0.648-0.289,1.157-0.867,1.526
			c-0.579,0.371-1.214,0.648-1.908,0.833c-0.602,0.093-0.971,0.232-1.109,0.416c-0.139,0.186-0.208,0.347-0.208,0.485v35.795
			c0,0.324,0.149,0.545,0.451,0.659c0.3,0.116,0.635,0.221,1.006,0.312c0.277,0.093,0.543,0.186,0.797,0.277
			c0.254,0.093,0.497,0.232,0.729,0.416c0.277,0.139,0.531,0.347,0.764,0.625c0.23,0.277,0.347,0.602,0.347,0.971
			c0,0.693-0.243,1.18-0.729,1.457s-1.029,0.416-1.63,0.416h-10.614c-0.602,0-1.134-0.139-1.595-0.416
			c-0.463-0.277-0.694-0.764-0.694-1.457c0-0.369,0.104-0.693,0.312-0.971c0.208-0.278,0.427-0.486,0.659-0.625
			c0.23-0.139,0.485-0.266,0.763-0.381s0.531-0.22,0.763-0.312c0.37-0.092,0.717-0.185,1.041-0.277
			c0.323-0.093,0.485-0.301,0.485-0.625v-28.025l-11.654,27.817c-0.324,0.74-0.74,1.365-1.248,1.873
			c-0.51,0.51-1.11,0.764-1.804,0.764c-0.787,0-1.422-0.254-1.908-0.764c-0.485-0.508-0.891-1.155-1.214-1.942l-11.585-28.996
			v29.204c0,0.324,0.149,0.545,0.451,0.659c0.3,0.116,0.635,0.221,1.006,0.312c0.277,0.093,0.543,0.186,0.798,0.277
			c0.254,0.093,0.496,0.232,0.729,0.416c0.277,0.139,0.531,0.347,0.763,0.625c0.231,0.277,0.347,0.602,0.347,0.971
			c0,0.693-0.242,1.18-0.729,1.457c-0.485,0.277-1.006,0.416-1.561,0.416h-9.435c-0.555,0-1.064-0.139-1.525-0.416
			c-0.463-0.277-0.694-0.764-0.694-1.457c0-0.369,0.104-0.693,0.312-0.971c0.208-0.278,0.427-0.486,0.659-0.625
			c0.23-0.184,0.485-0.323,0.763-0.416c0.277-0.092,0.555-0.185,0.833-0.277c0.369-0.092,0.716-0.185,1.04-0.277
			c0.323-0.093,0.485-0.277,0.485-0.556v-36.072c0-0.277-0.162-0.451-0.485-0.52c-0.324-0.069-0.671-0.173-1.04-0.312
			c-0.278-0.092-0.556-0.196-0.833-0.312c-0.277-0.115-0.532-0.243-0.763-0.381c-0.232-0.139-0.451-0.347-0.659-0.625
			s-0.312-0.601-0.312-0.971c0-0.694,0.231-1.179,0.694-1.457c0.461-0.278,0.993-0.417,1.595-0.417h8.533
			c0.739,0,1.341,0.243,1.804,0.729c0.462,0.486,0.854,1.122,1.179,1.908L564.202,373.165z"/>
		<path d="M103.176,471.211v-28.304c0-0.139-0.069-0.288-0.208-0.451c-0.139-0.161-0.532-0.288-1.18-0.381
			c-0.693-0.185-1.318-0.462-1.873-0.833c-0.555-0.369-0.832-0.878-0.832-1.525c0-0.694,0.23-1.18,0.693-1.457
			c0.462-0.277,0.994-0.416,1.596-0.416h9.295c0.601,0,1.145,0.139,1.63,0.416c0.486,0.277,0.729,0.763,0.729,1.457
			c0,0.509-0.197,0.913-0.59,1.214c-0.394,0.301-0.798,0.566-1.214,0.798c-0.139,0.046-0.277,0.093-0.417,0.139
			c-0.139,0.046-0.254,0.093-0.347,0.139c-0.371,0.139-0.706,0.242-1.006,0.312c-0.301,0.069-0.451,0.243-0.451,0.521v38.917
			c0,0.648-0.22,1.168-0.659,1.561c-0.44,0.394-1.006,0.59-1.7,0.59h-3.191c-1.342,0-2.313-0.578-2.914-1.734l-17.273-31.217v27.887
			c0,0.324,0.149,0.532,0.451,0.625c0.3,0.093,0.635,0.186,1.006,0.277c0.277,0.093,0.543,0.197,0.798,0.312
			c0.253,0.115,0.497,0.242,0.729,0.381c0.277,0.139,0.531,0.347,0.763,0.625c0.231,0.277,0.347,0.602,0.347,0.971
			c0,0.648-0.22,1.122-0.659,1.422c-0.44,0.302-0.96,0.451-1.561,0.451h-9.503c-0.555,0-1.064-0.139-1.526-0.416
			c-0.463-0.277-0.693-0.764-0.693-1.457c0-0.369,0.104-0.693,0.312-0.971c0.208-0.278,0.451-0.486,0.729-0.625
			c0.23-0.139,0.474-0.266,0.728-0.381c0.254-0.115,0.521-0.22,0.798-0.312c0.37-0.092,0.716-0.185,1.041-0.277
			c0.323-0.093,0.486-0.301,0.486-0.625v-35.518c0-0.369-0.173-0.624-0.521-0.763c-0.347-0.139-0.706-0.3-1.075-0.485
			c-0.509-0.231-1.052-0.521-1.63-0.867c-0.579-0.347-0.867-0.844-0.867-1.491c0-0.694,0.23-1.18,0.693-1.457
			c0.462-0.277,0.971-0.416,1.526-0.416h6.798c1.249,0,2.196,0.578,2.844,1.734L103.176,471.211z"/>
		<path d="M136.959,484.183h-0.902c-6.382,0-11.146-1.987-14.291-5.966c-3.146-3.977-4.717-9.757-4.717-17.343
			c0-7.584,1.571-13.364,4.717-17.342c3.145-3.978,7.908-5.967,14.291-5.967h0.902c6.335,0,11.099,1.989,14.29,5.967
			s4.787,9.758,4.787,17.342c0,7.586-1.596,13.366-4.787,17.343C148.058,482.195,143.294,484.183,136.959,484.183z M136.542,442.491
			c-3.654,0.324-6.625,2.001-8.914,5.029c-2.289,3.029-3.434,7.481-3.434,13.354c0,2.961,0.3,5.55,0.902,7.77
			c0.601,2.22,1.445,4.093,2.532,5.619c1.086,1.526,2.394,2.705,3.919,3.538c1.526,0.832,3.191,1.318,4.995,1.457
			c1.804-0.139,3.457-0.625,4.96-1.457c1.502-0.833,2.798-2.012,3.885-3.538c1.086-1.526,1.942-3.399,2.567-5.619
			s0.937-4.809,0.937-7.77c0-2.959-0.312-5.549-0.937-7.77c-0.625-2.22-1.48-4.093-2.567-5.618
			c-1.087-1.526-2.382-2.706-3.885-3.538C139.999,443.115,138.346,442.63,136.542,442.491z"/>
		<path d="M174.059,463.788h-3.733c-0.324,0-0.485,0.116-0.485,0.347v14.706c0,0.094,0.058,0.221,0.173,0.382
			c0.115,0.163,0.497,0.289,1.145,0.382c0.739,0.139,1.388,0.394,1.942,0.763c0.555,0.371,0.833,0.926,0.833,1.665
			c0,0.648-0.22,1.122-0.659,1.422c-0.44,0.302-0.96,0.451-1.561,0.451h-10.891c-0.555,0-1.064-0.139-1.526-0.416
			c-0.463-0.277-0.693-0.764-0.693-1.457c0-0.647,0.253-1.145,0.763-1.491c0.508-0.347,1.133-0.636,1.873-0.867
			c0.323-0.092,0.647-0.174,0.971-0.243c0.323-0.069,0.486-0.266,0.486-0.59v-36.003c0-0.277-0.163-0.451-0.486-0.521
			c-0.324-0.069-0.671-0.173-1.041-0.312c-0.277-0.093-0.555-0.196-0.833-0.312c-0.277-0.115-0.532-0.243-0.763-0.382
			c-0.232-0.139-0.451-0.347-0.659-0.624s-0.312-0.601-0.312-0.971c0-0.694,0.23-1.18,0.693-1.457
			c0.462-0.277,0.971-0.416,1.526-0.416h13.388c5.411,0,9.527,1.04,12.348,3.121c2.82,2.081,4.231,5.296,4.231,9.643
			c0,4.348-1.43,7.631-4.287,9.851C183.646,462.678,179.498,463.788,174.059,463.788z M174.12,442.907l-3.589-0.139
			c-0.46,0-0.69,0.139-0.69,0.416v15.262c0,0.186,0.011,0.302,0.035,0.347c0.023,0.047,0.149,0.069,0.381,0.069l3.865-0.069
			c3.312-0.092,5.728-0.763,7.246-2.012c1.518-1.248,2.277-3.236,2.277-5.966c0-2.636-0.76-4.578-2.278-5.827
			C179.848,443.74,177.432,443.046,174.12,442.907z"/>
		<path d="M221.868,482.795c0-0.045-0.012-0.092-0.035-0.139c-0.024-0.045,0.011-0.092,0.104-0.139h0.069l-0.139-0.139
			c2.867,1.757,5.896,2.637,9.087,2.637c1.388,0,2.081,0.716,2.081,2.15c0,0.601-0.173,1.109-0.52,1.525
			c-0.347,0.417-0.867,0.625-1.561,0.625c-2.868,0-5.619-0.359-8.255-1.075c-2.636-0.718-5.18-1.862-7.631-3.435
			c-0.371-0.231-0.636-0.37-0.798-0.416c-0.163-0.046-0.312-0.069-0.451-0.069c-6.429,0-11.215-1.987-14.36-5.966
			c-3.146-3.977-4.717-9.781-4.717-17.412c0-7.584,1.571-13.376,4.717-17.377c3.145-4,7.908-6.001,14.291-6.001h0.902
			c6.335,0,11.099,2.001,14.29,6.001c3.191,4.001,4.787,9.793,4.787,17.377c0,3.007-0.324,5.758-0.971,8.256
			c-0.648,2.497-1.503,4.682-2.566,6.555c-1.064,1.873-2.324,3.411-3.781,4.613C224.955,481.57,223.439,482.379,221.868,482.795z
			 M214.237,442.491c-3.654,0.278-6.625,1.946-8.914,5.005c-2.289,3.059-3.434,7.529-3.434,13.413
			c0,5.931,1.145,10.413,3.434,13.448c2.29,3.034,5.26,4.715,8.914,5.039c1.804-0.139,3.457-0.625,4.96-1.459
			c1.502-0.835,2.798-2.017,3.885-3.546c1.086-1.528,1.942-3.416,2.567-5.663s0.937-4.854,0.937-7.819s-0.312-5.56-0.937-7.784
			c-0.625-2.224-1.48-4.1-2.567-5.629c-1.087-1.528-2.382-2.71-3.885-3.545C217.693,443.116,216.041,442.63,214.237,442.491z"/>
		<path d="M261.409,462.955l0.139,0.139l9.643,15.608c0.184,0.324,0.474,0.567,0.867,0.729c0.392,0.163,0.751,0.312,1.075,0.451
			c0.647,0.231,1.179,0.521,1.595,0.867c0.417,0.347,0.625,0.774,0.625,1.283c0,0.693-0.243,1.18-0.729,1.457
			c-0.485,0.277-1.03,0.416-1.63,0.416H268.9c-1.203,0-2.174-0.555-2.914-1.665l-10.768-17.759
			c-0.276-0.462-0.621-0.693-1.035-0.693h-2.002c-0.324,0-0.485,0.116-0.485,0.347v14.706c0,0.094,0.069,0.232,0.208,0.417
			s0.531,0.324,1.179,0.416c0.647,0.186,1.26,0.463,1.838,0.832c0.578,0.371,0.867,0.879,0.867,1.526
			c0,0.648-0.22,1.122-0.659,1.422c-0.44,0.302-0.96,0.451-1.561,0.451h-10.891c-0.555,0-1.064-0.139-1.526-0.416
			c-0.463-0.277-0.693-0.764-0.693-1.457c0-0.369,0.104-0.693,0.312-0.971c0.208-0.278,0.451-0.486,0.729-0.625
			c0.23-0.139,0.474-0.266,0.728-0.381c0.254-0.115,0.521-0.22,0.798-0.312c0.37-0.092,0.716-0.185,1.041-0.277
			c0.323-0.093,0.486-0.301,0.486-0.625v-36.003c0-0.277-0.163-0.451-0.486-0.521c-0.324-0.069-0.671-0.173-1.041-0.312
			c-0.277-0.093-0.555-0.196-0.833-0.312c-0.277-0.115-0.532-0.243-0.763-0.382c-0.232-0.139-0.451-0.347-0.659-0.624
			s-0.312-0.601-0.312-0.971c0-0.694,0.23-1.18,0.693-1.457c0.462-0.277,0.971-0.416,1.526-0.416h14.151
			c2.359,0,4.509,0.267,6.452,0.798c1.942,0.532,3.607,1.329,4.995,2.393c1.387,1.064,2.462,2.394,3.226,3.989
			s1.145,3.457,1.145,5.584c0,1.758-0.359,3.389-1.075,4.891c-0.717,1.504-1.63,2.81-2.74,3.92c-1.11,1.109-2.324,1.988-3.642,2.636
			c-1.318,0.648-2.556,0.971-3.711,0.971C261.478,462.979,261.454,462.955,261.409,462.955z M255.976,442.907l-3.589-0.139
			c-0.46,0-0.69,0.139-0.69,0.416v15.262c0,0.186,0.011,0.302,0.035,0.347c0.023,0.047,0.149,0.069,0.381,0.069l3.865-0.069
			c3.312-0.092,5.728-0.763,7.246-2.012c1.518-1.248,2.277-3.236,2.277-5.966c0-2.636-0.76-4.578-2.278-5.827
			C261.705,443.74,259.289,443.046,255.976,442.907z"/>
		<path d="M294.532,484.391c-1.856,0-3.873-0.231-6.052-0.693s-4.659-1.271-7.44-2.428l-0.555-7.007v-0.277
			c-0.047-0.509,0.069-0.959,0.347-1.353c0.277-0.393,0.739-0.59,1.387-0.59c1.341,0,2.243,0.624,2.706,1.873l0.833,2.428
			c0.786,0.74,1.861,1.422,3.226,2.047c1.364,0.624,3.063,0.937,5.099,0.937c2.775,0,4.81-0.682,6.105-2.047
			c1.294-1.363,1.942-3.364,1.942-6c0-1.202-0.671-2.498-2.012-3.885c-1.342-1.388-3.77-2.82-7.284-4.302
			c-3.562-1.479-6.417-3.306-8.567-5.479c-2.15-2.174-3.226-4.787-3.226-7.839c0-1.942,0.358-3.677,1.075-5.203
			c0.717-1.526,1.71-2.81,2.983-3.85c1.271-1.041,2.751-1.839,4.44-2.394c1.688-0.555,3.503-0.833,5.445-0.833
			c1.71,0,3.491,0.232,5.342,0.694c1.849,0.463,3.885,1.226,6.104,2.289l0.625,6.937c0,0.648-0.128,1.191-0.382,1.631
			c-0.255,0.439-0.822,0.659-1.7,0.659c-0.648,0-1.156-0.196-1.526-0.59c-0.371-0.393-0.648-0.844-0.833-1.353l-0.833-2.429
			c-0.787-0.693-1.711-1.317-2.775-1.873c-1.064-0.555-2.335-0.832-3.815-0.832c-2.452,0-4.231,0.59-5.341,1.769
			c-1.11,1.18-1.665,2.74-1.665,4.683c0,1.48,0.753,2.973,2.262,4.475c1.508,1.504,4.025,2.973,7.552,4.405
			c3.618,1.48,6.403,3.226,8.352,5.237s2.923,4.498,2.923,7.457c0,2.358-0.383,4.405-1.148,6.14s-1.808,3.156-3.129,4.267
			c-1.321,1.109-2.885,1.942-4.693,2.497C298.496,484.113,296.571,484.391,294.532,484.391z"/>
		<path d="M345.971,446.653c-0.555,0-0.995-0.173-1.318-0.521c-0.324-0.347-0.579-0.751-0.763-1.214
			c-0.093-0.092-0.151-0.208-0.174-0.347c-0.023-0.139-0.081-0.254-0.173-0.347c-0.139-0.323-0.254-0.647-0.347-0.972
			c-0.093-0.322-0.301-0.485-0.625-0.485h-7.77c-0.277,0-0.416,0.186-0.416,0.555v35.448c0,0.186,0.069,0.359,0.208,0.521
			c0.139,0.163,0.531,0.29,1.179,0.382c0.925,0.324,1.606,0.705,2.046,1.145c0.439,0.44,0.659,0.845,0.659,1.214
			c0,0.693-0.243,1.18-0.729,1.457c-0.485,0.277-1.006,0.416-1.561,0.416h-10.891c-0.602,0-1.11-0.149-1.526-0.451
			c-0.416-0.3-0.624-0.773-0.624-1.422c0-0.647,0.3-1.121,0.901-1.422c0.601-0.301,1.156-0.566,1.665-0.798
			c0.37-0.139,0.716-0.254,1.041-0.347c0.323-0.093,0.486-0.301,0.486-0.625v-35.518c0-0.23-0.035-0.381-0.104-0.45
			s-0.243-0.104-0.521-0.104h-8.463c-0.324,0-0.532,0.163-0.625,0.485c-0.093,0.324-0.208,0.648-0.347,0.972
			c-0.093,0.231-0.197,0.475-0.312,0.729c-0.116,0.255-0.267,0.497-0.451,0.729c-0.139,0.231-0.347,0.45-0.625,0.658
			c-0.277,0.209-0.625,0.312-1.041,0.312c-0.648,0-1.133-0.208-1.457-0.624c-0.323-0.416-0.486-0.902-0.486-1.457v-4.647
			c0-0.694,0.22-1.214,0.659-1.562c0.439-0.347,1.006-0.52,1.699-0.52h30.454c1.433,0,2.151,0.693,2.151,2.081l0.069,4.647
			c0.045,0.602-0.093,1.1-0.417,1.491C347.103,446.457,346.618,446.653,345.971,446.653z"/>
		<path d="M390.853,441.312c-0.232,0.139-0.486,0.267-0.763,0.382c-0.277,0.116-0.532,0.22-0.763,0.312
			c-0.371,0.139-0.706,0.255-1.006,0.347c-0.301,0.093-0.451,0.277-0.451,0.555v25.182c0,2.636-0.406,4.938-1.214,6.902
			c-0.81,1.966-1.942,3.607-3.399,4.925c-1.457,1.318-3.203,2.313-5.237,2.983c-2.036,0.671-4.255,1.006-6.66,1.006
			c-4.764,0-8.452-1.388-11.064-4.162c-2.613-2.775-3.919-6.891-3.919-12.348v-24.488c0-0.323-0.163-0.531-0.486-0.624
			c-0.324-0.092-0.671-0.185-1.041-0.277c-0.277-0.093-0.544-0.196-0.798-0.312c-0.254-0.115-0.498-0.243-0.728-0.382
			c-0.278-0.139-0.521-0.347-0.729-0.624s-0.312-0.601-0.312-0.971c0-0.694,0.23-1.18,0.693-1.457
			c0.462-0.277,0.971-0.416,1.526-0.416h10.891c0.601,0,1.121,0.15,1.561,0.45c0.439,0.302,0.659,0.775,0.659,1.423
			c0,0.37-0.116,0.693-0.347,0.971c-0.232,0.277-0.486,0.485-0.763,0.624c-0.232,0.139-0.475,0.267-0.729,0.382
			c-0.254,0.116-0.52,0.22-0.798,0.312c-0.371,0.093-0.706,0.186-1.006,0.277c-0.301,0.093-0.451,0.301-0.451,0.624v25.806
			c0,3.377,0.783,5.852,2.35,7.423c1.566,1.573,3.985,2.313,7.256,2.22c3.225-0.092,5.528-0.947,6.911-2.566
			c1.382-1.618,2.074-3.954,2.074-7.007v-25.875c0-0.277-0.163-0.462-0.486-0.555c-0.324-0.092-0.671-0.208-1.041-0.347
			c-0.232-0.093-0.485-0.196-0.763-0.312c-0.277-0.115-0.532-0.243-0.763-0.382c-0.232-0.139-0.463-0.322-0.694-0.555
			c-0.232-0.23-0.371-0.555-0.416-0.971c0-0.694,0.219-1.19,0.659-1.492c0.439-0.3,0.959-0.45,1.561-0.45l9.503,0.069
			c0.601,0,1.121,0.139,1.561,0.416c0.439,0.277,0.659,0.74,0.659,1.388c0,0.416-0.116,0.752-0.347,1.006
			C391.314,440.977,391.083,441.173,390.853,441.312z"/>
		<path d="M426.786,442.353h-0.069h-0.069c-0.186-0.092-0.359-0.174-0.521-0.243c-0.163-0.069-0.336-0.149-0.52-0.242
			c-0.602-0.231-1.11-0.521-1.526-0.867c-0.416-0.347-0.624-0.774-0.624-1.283c0-0.694,0.231-1.18,0.693-1.457
			c0.462-0.277,0.971-0.416,1.526-0.416h8.116c0.601,0,1.179,0.128,1.734,0.381c0.555,0.255,0.833,0.753,0.833,1.492
			c0,0.555-0.243,1.018-0.729,1.387c-0.485,0.371-1.052,0.671-1.7,0.902c-0.232,0.093-0.451,0.186-0.659,0.277
			c-0.208,0.093-0.428,0.186-0.659,0.277c-0.324,0.232-0.509,0.44-0.555,0.624l-13.25,38.709c-0.463,1.342-1.342,2.012-2.636,2.012
			c-1.156,0-2.081-0.601-2.774-1.804l-14.637-38.917c-0.093-0.23-0.267-0.404-0.521-0.52c-0.255-0.115-0.475-0.22-0.659-0.312
			c-0.232-0.092-0.485-0.185-0.763-0.277c-0.694-0.277-1.295-0.601-1.804-0.972c-0.508-0.369-0.763-0.832-0.763-1.387
			c0-0.694,0.243-1.18,0.729-1.457c0.485-0.277,1.006-0.416,1.561-0.416h11.654c0.601,0,1.121,0.15,1.561,0.45
			c0.439,0.302,0.659,0.775,0.659,1.423c0,0.555-0.254,1.006-0.763,1.353c-0.51,0.347-1.087,0.636-1.734,0.867
			c-0.232,0.093-0.44,0.173-0.625,0.242c-0.185,0.069-0.371,0.151-0.555,0.243h-0.139l10.128,28.164L426.786,442.353z"/>
		<path d="M492.964,442.283c0-0.046-0.024-0.058-0.069-0.035c-0.046,0.024-0.069,0.013-0.069-0.034
			c-0.139-0.092-0.301-0.162-0.485-0.208c-0.186-0.046-0.371-0.115-0.555-0.208c-0.602-0.231-1.11-0.509-1.526-0.833
			c-0.416-0.323-0.624-0.739-0.624-1.248c0-0.694,0.231-1.18,0.694-1.457c0.461-0.277,0.971-0.416,1.526-0.416h8.116
			c0.647,0,1.249,0.115,1.804,0.347s0.833,0.74,0.833,1.526c0,0.509-0.243,0.948-0.729,1.317c-0.486,0.371-1.076,0.694-1.77,0.972
			c-0.232,0.093-0.451,0.186-0.659,0.277c-0.208,0.093-0.428,0.208-0.659,0.347c-0.324,0.186-0.509,0.371-0.555,0.555
			l-11.793,38.709c-0.417,1.342-1.342,2.012-2.775,2.012c-1.434,0-2.336-0.693-2.706-2.081l-8.255-29.274l-9.365,29.344
			c-0.463,1.342-1.342,2.012-2.636,2.012c-1.342,0-2.29-0.647-2.844-1.942l-11.793-38.848c-0.093-0.23-0.371-0.438-0.833-0.624
			c-0.463-0.185-0.81-0.323-1.041-0.416c-0.74-0.277-1.365-0.612-1.873-1.006c-0.508-0.393-0.763-0.844-0.763-1.353
			c0-0.694,0.243-1.18,0.729-1.457c0.485-0.277,1.006-0.416,1.561-0.416h11.585c0.601,0,1.121,0.15,1.561,0.45
			c0.439,0.302,0.659,0.775,0.659,1.423c0,0.509-0.243,0.948-0.728,1.317c-0.486,0.371-1.053,0.671-1.7,0.902
			c-0.232,0.093-0.44,0.173-0.625,0.242c-0.185,0.069-0.371,0.151-0.555,0.243h-0.139l7.7,27.817l8.602-27.401
			c0.231-0.646,0.601-1.202,1.11-1.665c0.508-0.462,1.249-0.693,2.22-0.693c0.878,0,1.606,0.197,2.185,0.59
			c0.578,0.394,0.937,0.891,1.075,1.491l7.631,28.025L492.964,442.283z"/>
		<path d="M539.442,442.353l-0.764-0.277c-0.926-0.323-1.607-0.659-2.046-1.006c-0.44-0.347-0.637-0.82-0.59-1.422
			c0-0.647,0.219-1.11,0.659-1.388c0.438-0.277,0.959-0.416,1.561-0.416h9.781c0.555,0,1.075,0.139,1.561,0.416
			s0.729,0.763,0.729,1.457c0,0.509-0.255,0.948-0.763,1.317c-0.51,0.371-1.134,0.694-1.873,0.972
			c-0.232,0.093-0.637,0.255-1.214,0.485c-0.579,0.232-0.961,0.463-1.145,0.693l-11.377,16.164c-0.232,0.37-0.347,0.671-0.347,0.901
			c0,0.139,0.045,0.302,0.139,0.485l11.168,17.828c0.093,0.139,0.348,0.324,0.764,0.556c0.555,0.231,1.063,0.416,1.526,0.555
			c0.785,0.277,1.433,0.613,1.942,1.006c0.508,0.394,0.763,0.844,0.763,1.353c0,0.693-0.243,1.18-0.729,1.457
			s-1.006,0.416-1.561,0.416h-11.793c-0.602,0-1.11-0.149-1.526-0.451c-0.416-0.3-0.624-0.773-0.624-1.422
			c0-0.369,0.196-0.773,0.589-1.214c0.393-0.439,1.052-0.82,1.978-1.145l0.763-0.277l-7.908-12.695l-8.671,12.695l0.763,0.277
			c1.804,0.602,2.706,1.388,2.706,2.358c0,0.693-0.243,1.18-0.729,1.457s-1.006,0.416-1.561,0.416h-10.129
			c-0.555,0-1.064-0.139-1.525-0.416c-0.463-0.277-0.694-0.764-0.694-1.457c0-0.509,0.243-0.959,0.729-1.353
			c0.485-0.393,1.099-0.705,1.839-0.937c0.277-0.092,0.543-0.185,0.797-0.277s0.497-0.185,0.729-0.277
			c0.417-0.185,0.694-0.37,0.833-0.556l10.821-15.886c0.093-0.184,0.185-0.369,0.277-0.555c0.093-0.185,0.139-0.347,0.139-0.485
			c0-0.185-0.046-0.323-0.139-0.416l-10.752-18.106c-0.047-0.092-0.174-0.196-0.382-0.312s-0.439-0.231-0.693-0.347
			c-0.255-0.115-0.498-0.209-0.729-0.278c-0.231-0.069-0.394-0.126-0.485-0.173c-0.74-0.323-1.365-0.682-1.873-1.075
			c-0.51-0.393-0.764-0.82-0.764-1.283c0-0.694,0.231-1.18,0.694-1.457c0.462-0.277,0.971-0.416,1.526-0.416h11.862
			c0.6,0,1.12,0.15,1.561,0.45c0.438,0.302,0.659,0.775,0.659,1.423s-0.29,1.145-0.867,1.491c-0.579,0.347-1.191,0.59-1.839,0.729
			l-0.832,0.208l7.77,13.389L539.442,442.353z"/>
		<path d="M582.659,442.283l-0.763-0.208c-0.787-0.185-1.423-0.485-1.908-0.902c-0.485-0.416-0.729-0.901-0.729-1.456
			c0-0.694,0.231-1.18,0.694-1.457c0.461-0.277,0.971-0.416,1.525-0.416h9.435c0.555,0,1.075,0.139,1.561,0.416
			c0.486,0.277,0.729,0.763,0.729,1.457c0,0.555-0.254,1.018-0.763,1.387c-0.51,0.371-1.156,0.671-1.942,0.902
			c-0.232,0.093-0.485,0.186-0.763,0.277c-0.278,0.093-0.532,0.186-0.764,0.277c-0.37,0.186-0.624,0.394-0.763,0.624l-10.059,18.314
			c-0.277,0.463-0.451,0.832-0.521,1.109s-0.081,0.485-0.035,0.625v15.538c0,0.324,0.15,0.532,0.451,0.625s0.636,0.208,1.006,0.347
			c0.277,0.093,0.555,0.197,0.833,0.312c0.277,0.115,0.53,0.242,0.763,0.381c0.23,0.139,0.462,0.347,0.693,0.625
			c0.231,0.277,0.348,0.602,0.348,0.971c0,0.693-0.243,1.18-0.729,1.457c-0.486,0.277-1.006,0.416-1.562,0.416h-10.821
			c-0.602,0-1.11-0.149-1.526-0.451c-0.416-0.3-0.624-0.773-0.624-1.422c0-0.509,0.184-0.913,0.555-1.214
			c0.37-0.301,0.763-0.543,1.18-0.729c0.139-0.092,0.266-0.161,0.381-0.208c0.115-0.046,0.243-0.092,0.382-0.139
			c0.37-0.139,0.717-0.254,1.041-0.347c0.322-0.093,0.485-0.277,0.485-0.556v-15.607c0-0.231-0.047-0.497-0.139-0.798
			c-0.094-0.301-0.255-0.636-0.486-1.006l-10.752-18.176c-0.186-0.277-0.532-0.52-1.04-0.728c-0.51-0.209-0.926-0.358-1.249-0.451
			c-0.74-0.277-1.365-0.612-1.873-1.006c-0.509-0.393-0.763-0.844-0.763-1.353c0-0.694,0.242-1.18,0.728-1.457
			c0.486-0.277,1.006-0.416,1.562-0.416h11.446c0.555,0,1.075,0.139,1.561,0.416s0.729,0.763,0.729,1.457
			c0,0.509-0.197,0.879-0.59,1.109c-0.394,0.232-0.798,0.44-1.214,0.624c-0.371,0.094-0.671,0.186-0.902,0.278l-0.832,0.277
			c0,0.093,0.022,0.162,0.069,0.208l8.116,14.221L582.659,442.283z"/>
		<path d="M606.383,478.841h18.591c0.416,0,0.739-0.114,0.972-0.347c0.23-0.23,0.461-0.601,0.693-1.109
			c0.139-0.231,0.266-0.474,0.382-0.729c0.114-0.254,0.242-0.497,0.381-0.729c0.185-0.23,0.417-0.451,0.694-0.659
			s0.624-0.312,1.04-0.312c0.37,0,0.764,0.221,1.18,0.659c0.416,0.44,0.624,1.145,0.624,2.116l0.069,3.954
			c0.046,0.693-0.139,1.237-0.555,1.63c-0.416,0.394-0.972,0.59-1.665,0.59H600c-1.48,0-2.22-0.717-2.22-2.15v-1.318
			c0-0.508,0.115-0.994,0.347-1.456s0.486-0.925,0.764-1.388l22.476-34.616H605.48c-0.416,0-0.752,0.116-1.006,0.347
			c-0.255,0.232-0.497,0.602-0.729,1.11c-0.093,0.232-0.197,0.475-0.312,0.729c-0.116,0.255-0.243,0.497-0.382,0.729
			s-0.347,0.45-0.624,0.659c-0.278,0.208-0.625,0.312-1.041,0.312c-0.51,0-0.948-0.219-1.318-0.659
			c-0.37-0.438-0.555-1.145-0.555-2.115v-4.162c0-0.694,0.208-1.214,0.624-1.562c0.417-0.347,0.948-0.52,1.596-0.52h26.014
			c0.647,0,1.19,0.173,1.631,0.52c0.438,0.348,0.659,0.867,0.659,1.562v1.387c0,0.556-0.163,1.11-0.486,1.665
			c-0.093,0.232-0.208,0.44-0.347,0.625s-0.255,0.393-0.347,0.624L606.383,478.841z"/>
		<path d="M93.526,581.188h-0.687c-4.787,0-8.356-1.445-10.707-4.339c-2.352-2.893-3.528-7.148-3.528-12.768
			c0-5.577,1.176-9.812,3.528-12.705c2.351-2.893,5.92-4.34,10.707-4.34h0.687c4.828,0,8.417,1.447,10.77,4.34
			c2.351,2.893,3.527,7.128,3.527,12.705c0,5.619-1.176,9.875-3.527,12.768C101.944,579.742,98.354,581.188,93.526,581.188z
			 M93.152,550.907c-2.54,0.209-4.496,1.367-5.869,3.474c-1.374,2.107-2.06,5.351-2.06,9.731c0,4.423,0.687,7.677,2.06,9.763
			s3.33,3.232,5.869,3.441c2.58-0.209,4.567-1.365,5.962-3.473c1.394-2.107,2.091-5.351,2.091-9.731s-0.698-7.624-2.091-9.731
			C97.719,552.274,95.732,551.116,93.152,550.907z"/>
		<path d="M124.306,581.188h-9.802c-0.542,0-0.999-0.125-1.374-0.375c-0.375-0.249-0.562-0.665-0.562-1.248s0.228-1.062,0.687-1.437
			c0.458-0.374,0.978-0.707,1.561-0.999c0.333-0.124,0.645-0.249,0.937-0.374c0.291-0.125,0.437-0.354,0.437-0.687V552.78
			c0-0.166-0.094-0.229-0.281-0.188c-0.188,0.042-0.448,0.062-0.781,0.062h-1.249c-0.916,0-1.572-0.156-1.967-0.468
			c-0.396-0.312-0.593-0.677-0.593-1.093c0-0.624,0.25-1.113,0.749-1.467s1.062-0.614,1.686-0.781l6.805-1.748
			c1.415,0,2.123,0.646,2.123,1.936v27.034c0,0.333,0.145,0.562,0.437,0.687c0.291,0.125,0.603,0.25,0.937,0.374
			c0.582,0.292,1.102,0.625,1.561,0.999c0.458,0.375,0.687,0.854,0.687,1.437s-0.188,0.999-0.562,1.248
			C125.367,581.062,124.888,581.188,124.306,581.188z"/>
		<path d="M135.73,575.318h10.364c0.208,0,0.406-0.103,0.593-0.312c0.187-0.208,0.322-0.375,0.406-0.5
			c0.083-0.083,0.156-0.176,0.218-0.28c0.062-0.104,0.135-0.219,0.219-0.344c0.416-0.54,0.843-1.02,1.28-1.436
			s0.946-0.625,1.53-0.625c0.582,0,1.071,0.156,1.467,0.469c0.396,0.312,0.593,0.802,0.593,1.467l-0.937,5.12
			c-0.125,0.666-0.375,1.217-0.749,1.654c-0.375,0.437-0.916,0.655-1.624,0.655h-19.479c-1.333,0-1.998-0.645-1.998-1.936v-2.061
			c0-0.54,0.177-1.061,0.531-1.561c0.353-0.499,0.801-0.978,1.342-1.436l11.238-9.49c2.123-1.748,3.184-3.871,3.184-6.368
			c0-2.164-0.458-3.662-1.374-4.495c-0.916-0.832-2.582-1.249-4.995-1.249c-1.083,0-2.207,0.073-3.372,0.219
			c-1.166,0.146-2.394,0.386-3.684,0.718c-0.084,0.042-0.312,0.062-0.687,0.062c-0.916,0-1.645-0.499-2.186-1.498
			c0-1.457,0.583-2.331,1.749-2.622c3.454-1.664,6.701-2.498,9.739-2.498c1.914,0,3.621,0.25,5.12,0.75
			c1.499,0.499,2.757,1.196,3.777,2.091c1.02,0.896,1.789,1.957,2.31,3.185c0.52,1.229,0.759,2.57,0.718,4.026
			c-0.084,2.332-0.864,4.476-2.341,6.431c-1.478,1.957-3.486,4.018-6.025,6.182l-4.37,3.684L135.73,575.318z"/>
		<path d="M176.124,567.452c1.539,0.874,2.653,2.061,3.34,3.559c0.687,1.498,1.03,3.289,1.03,5.369c0,1.748-0.292,3.383-0.874,4.901
			c-0.583,1.519-1.436,2.841-2.56,3.965c-1.124,1.123-2.529,2.007-4.214,2.653c-1.686,0.645-3.632,0.968-5.837,0.968
			c-0.708,0-1.708-0.104-2.997-0.312c-1.291-0.209-2.57-0.521-3.84-0.937c-1.27-0.417-2.372-0.927-3.309-1.529
			c-0.937-0.604-1.405-1.302-1.405-2.092c0.291-1.208,1.082-1.811,2.373-1.811c3.704,0.915,6.576,1.373,8.616,1.373
			c2.497,0,4.349-0.624,5.557-1.873c1.207-1.248,1.811-3.184,1.811-5.806c0-1.998-0.51-3.496-1.53-4.495
			c-1.021-0.999-2.488-1.499-4.401-1.499h-3.122c-0.708,0-1.217-0.207-1.529-0.624c-0.312-0.415-0.468-0.915-0.468-1.498v-0.999
			c0-1.29,0.665-1.936,1.998-1.936h3.122c1.623,0,2.872-0.438,3.746-1.312s1.312-2.122,1.312-3.746c0-2.122-0.593-3.911-1.78-5.369
			c-1.186-1.456-2.965-2.185-5.338-2.185c-0.999,0-2.071,0.115-3.215,0.343c-1.145,0.229-2.383,0.615-3.715,1.155
			c-1.291,0-2.123-0.624-2.497-1.873c0-0.749,0.406-1.414,1.217-1.998c0.812-0.582,1.769-1.082,2.872-1.498
			c1.102-0.416,2.226-0.738,3.371-0.968c1.145-0.229,2.05-0.344,2.716-0.344c2.081,0,3.912,0.344,5.494,1.03
			c1.582,0.688,2.913,1.604,3.996,2.747c1.082,1.146,1.904,2.488,2.466,4.027c0.562,1.54,0.843,3.163,0.843,4.87
			c0,1.748-0.25,3.257-0.749,4.526S177.289,566.578,176.124,567.452z"/>
		<path d="M215.019,578.19h-3.684c-0.292,0-0.437,0.146-0.437,0.438v7.991c0,0.624-0.188,1.093-0.562,1.405
			c-0.375,0.312-0.854,0.468-1.436,0.468h-2.435c-0.583,0-1.072-0.156-1.467-0.468c-0.396-0.312-0.593-0.781-0.593-1.405v-7.991
			c0-0.291-0.125-0.438-0.375-0.438h-15.858c-0.583,0-1.072-0.156-1.467-0.468c-0.396-0.312-0.593-0.78-0.593-1.405v-1.498
			c0-0.874,0.271-1.686,0.812-2.435l16.42-23.413l0.624-0.812c0.333-0.457,0.718-0.759,1.155-0.905
			c0.437-0.146,0.884-0.219,1.342-0.219h2.435c0.583,0,1.062,0.156,1.436,0.469s0.562,0.78,0.562,1.404v23.538
			c0,0.208,0.031,0.333,0.094,0.374c0.062,0.042,0.176,0.062,0.343,0.062h3.684c0.583,0,1.062,0.167,1.436,0.5
			s0.562,0.812,0.562,1.436v1.498c0,0.625-0.188,1.093-0.562,1.405C216.081,578.034,215.602,578.19,215.019,578.19z M192.73,572.884
			h11.3c0.166,0,0.271-0.021,0.312-0.062c0.041-0.041,0.062-0.166,0.062-0.374v-18.23c0.083,0,0.208-0.021,0.375-0.062
			c0.166-0.041,0.25,0.104,0.25,0.437l0.375-0.374L192.73,572.884z"/>
		<path d="M228.379,588.555c-0.666,0-1.603-0.084-2.81-0.25c-1.208-0.167-2.403-0.427-3.59-0.78
			c-1.186-0.354-2.216-0.802-3.09-1.342c-0.874-0.542-1.311-1.187-1.311-1.936c0-1.291,0.707-1.936,2.123-1.936
			c1.374,0.332,2.643,0.562,3.809,0.687c1.165,0.125,2.268,0.188,3.309,0.188c3.246,0,5.753-0.771,7.523-2.311
			c1.769-1.539,2.653-3.746,2.653-6.617c0-1.082-0.167-2.102-0.5-3.06c-0.333-0.957-0.978-1.789-1.935-2.497
			c-0.958-0.708-2.279-1.27-3.965-1.686c-1.686-0.416-3.902-0.625-6.649-0.625c-0.5,0-1.021,0.011-1.561,0.031
			c-0.542,0.021-1.103,0.031-1.686,0.031c-0.667,0-1.135-0.197-1.405-0.593c-0.271-0.396-0.385-0.863-0.343-1.405l1.061-15.483
			c0.083-0.582,0.291-1.051,0.625-1.404c0.333-0.354,0.79-0.531,1.374-0.531h17.169c1.29,0,1.935,0.625,1.935,1.873v1.811
			c0,0.709-0.198,1.208-0.593,1.499c-0.396,0.291-0.843,0.437-1.342,0.437h-14.11c-0.292,0-0.458,0.062-0.5,0.188l-0.499,8.304
			h0.624c3.497,0,6.462,0.312,8.897,0.937c2.435,0.624,4.401,1.509,5.9,2.653c1.499,1.146,2.591,2.519,3.278,4.12
			c0.687,1.604,1.03,3.383,1.03,5.339c0,2.122-0.375,4.058-1.124,5.806s-1.801,3.257-3.153,4.526
			c-1.353,1.27-2.977,2.258-4.87,2.966C232.759,588.2,230.667,588.555,228.379,588.555z"/>
		<path d="M257.41,554.841c1.998-0.665,4.183-0.999,6.556-0.999c1.706,0,3.372,0.281,4.995,0.843
			c1.624,0.562,3.069,1.395,4.339,2.497c1.269,1.104,2.289,2.488,3.059,4.152c0.77,1.665,1.155,3.621,1.155,5.868
			c0,2.248-0.375,4.236-1.124,5.963c-0.75,1.728-1.759,3.184-3.028,4.37c-1.27,1.187-2.737,2.092-4.401,2.716
			c-1.665,0.624-3.434,0.937-5.307,0.937s-3.643-0.333-5.307-0.999c-1.665-0.665-3.122-1.695-4.37-3.091
			c-1.249-1.394-2.227-3.152-2.935-5.275c-0.708-2.122-1.061-4.641-1.061-7.554c0-3.205,0.281-6.285,0.843-9.24
			s1.499-5.577,2.81-7.867c1.311-2.288,3.059-4.109,5.244-5.463c2.185-1.352,4.901-2.029,8.147-2.029
			c2.081,0,4.183,0.334,6.306,0.999c1.124,0.334,1.686,1.083,1.686,2.248c-0.125,0.458-0.323,0.843-0.593,1.155
			c-0.271,0.312-0.677,0.468-1.217,0.468c-0.167,0-0.303-0.01-0.406-0.031c-0.104-0.021-0.198-0.031-0.281-0.031
			c-1.707-0.374-3.247-0.562-4.62-0.562c-2.207,0-3.986,0.468-5.338,1.404c-1.353,0.937-2.404,2.009-3.153,3.216
			s-1.259,2.425-1.53,3.652C257.607,553.415,257.451,554.3,257.41,554.841z M264.028,558.587c-1.873,0-4.058,0.458-6.556,1.373
			c-0.375,0.25-0.614,0.76-0.718,1.53c-0.104,0.771-0.156,1.551-0.156,2.341v1.498c0,3.788,0.697,6.535,2.092,8.241
			c1.394,1.707,3.443,2.52,6.149,2.436c1.789-0.041,3.247-0.79,4.371-2.248c1.124-1.456,1.686-3.725,1.686-6.805
			c0-1.124-0.136-2.195-0.406-3.216c-0.271-1.02-0.687-1.904-1.249-2.653c-0.562-0.749-1.28-1.353-2.154-1.811
			S265.193,558.587,264.028,558.587z"/>
		<path d="M300.176,553.218h-15.858c-0.334,0-0.562,0.146-0.687,0.437c-0.125,0.292-0.271,0.604-0.437,0.937
			c-0.125,0.25-0.25,0.49-0.375,0.718c-0.125,0.229-0.292,0.448-0.5,0.656c-0.167,0.208-0.385,0.396-0.656,0.562
			c-0.271,0.167-0.593,0.25-0.967,0.25c-1.333,0-1.998-0.646-1.998-1.936v-5.869c0-1.289,0.665-1.936,1.998-1.936h23.163
			c0.665,0,1.165,0.178,1.499,0.531c0.333,0.354,0.499,0.822,0.499,1.404v2.373c0,0.791-0.187,1.645-0.562,2.56l-13.486,33.589
			c-0.458,0.665-1.021,0.999-1.686,0.999h-4.87c-0.292,0-0.583-0.084-0.875-0.25c-0.292-0.167-0.437-0.479-0.437-0.937
			c0-0.291,0.104-0.646,0.312-1.062l15.858-32.902L300.176,553.218z"/>
		<path d="M336.262,559.023c3.621,2.332,5.432,5.641,5.432,9.927c0,1.79-0.354,3.445-1.062,4.964
			c-0.708,1.52-1.686,2.841-2.934,3.965c-1.249,1.123-2.716,2.008-4.402,2.653c-1.686,0.646-3.527,0.968-5.525,0.968
			c-2.082,0-3.975-0.333-5.681-0.999c-1.707-0.666-3.164-1.571-4.371-2.716c-1.208-1.145-2.154-2.498-2.84-4.059
			c-0.687-1.561-1.03-3.235-1.03-5.025c0-4.079,1.727-7.305,5.182-9.678c-1.249-1.248-2.165-2.538-2.747-3.871
			c-0.583-1.331-0.874-2.767-0.874-4.308c0-1.539,0.281-2.986,0.843-4.339c0.562-1.353,1.374-2.528,2.435-3.527
			c1.062-0.999,2.351-1.789,3.871-2.373c1.519-0.582,3.236-0.874,5.151-0.874c1.914,0,3.642,0.281,5.182,0.843
			c1.54,0.562,2.851,1.343,3.934,2.342c1.082,0.999,1.914,2.176,2.497,3.527c0.583,1.354,0.874,2.8,0.874,4.339
			C340.195,553.904,338.884,556.651,336.262,559.023z M327.584,562.021c-1.998,0-3.601,0.604-4.808,1.811
			c-1.208,1.208-1.811,2.872-1.811,4.995c0,2.247,0.625,4.026,1.873,5.338c1.249,1.311,2.893,1.967,4.932,1.967
			c2.081,0,3.735-0.614,4.964-1.842c1.227-1.228,1.842-2.966,1.842-5.214c0-2.122-0.625-3.829-1.873-5.119
			C331.455,562.666,329.748,562.021,327.584,562.021z M327.771,544.789c-2.123,0-3.674,0.541-4.651,1.623
			c-0.979,1.083-1.467,2.622-1.467,4.62c0,1.873,0.489,3.34,1.467,4.401c0.977,1.062,2.466,1.592,4.464,1.592
			c2.164,0,3.725-0.571,4.683-1.717c0.957-1.144,1.436-2.653,1.436-4.526C333.702,546.787,331.725,544.789,327.771,544.789z"/>
		<path d="M369.351,573.321c-2.372,0.708-4.558,1.061-6.555,1.061c-1.79,0-3.507-0.28-5.151-0.843
			c-1.645-0.562-3.101-1.394-4.37-2.497c-1.271-1.103-2.279-2.486-3.028-4.151c-0.749-1.665-1.124-3.621-1.124-5.869
			c0-2.247,0.375-4.234,1.124-5.962c0.75-1.728,1.758-3.185,3.028-4.371c1.269-1.186,2.767-2.091,4.495-2.716
			c1.727-0.624,3.59-0.937,5.587-0.937c1.831,0,3.548,0.334,5.151,0.999c1.602,0.667,3.007,1.696,4.214,3.091
			c1.207,1.395,2.164,3.152,2.872,5.275c0.707,2.123,1.061,4.62,1.061,7.492c0,3.538-0.312,6.815-0.937,9.833
			c-0.624,3.019-1.603,5.619-2.934,7.805c-1.333,2.185-3.081,3.901-5.245,5.15c-2.165,1.249-4.766,1.873-7.804,1.873
			c-1.083,0-2.154-0.084-3.215-0.25c-1.061-0.167-2.091-0.416-3.09-0.749c-1.166-0.417-1.748-1.166-1.748-2.248
			c0.083-0.458,0.27-0.843,0.562-1.154c0.291-0.312,0.707-0.469,1.249-0.469c0.957,0,1.873,0.094,2.747,0.281
			s1.686,0.281,2.435,0.281c2.206,0,3.996-0.459,5.369-1.374c1.374-0.916,2.445-1.977,3.215-3.184
			c0.77-1.207,1.29-2.425,1.561-3.652C369.091,574.81,369.268,573.904,369.351,573.321z M370.038,563.02
			c0-3.912-0.667-6.69-1.998-8.335c-1.333-1.644-3.371-2.466-6.118-2.466c-1.79,0-3.268,0.708-4.433,2.122
			c-1.166,1.416-1.748,3.726-1.748,6.931c0,1.124,0.146,2.185,0.437,3.184c0.291,0.999,0.728,1.884,1.311,2.653
			c0.583,0.771,1.3,1.385,2.154,1.842c0.853,0.459,1.862,0.688,3.028,0.688c2.039,0,4.266-0.479,6.68-1.437
			c0.333-0.125,0.531-0.582,0.593-1.373c0.062-0.79,0.094-1.54,0.094-2.248V563.02z"/>
	</g>
</g>
</svg>
