<?xml version="1.0" encoding="UTF-8"?>
<svg width="239px" height="255px" viewBox="0 0 239 255" version="1.1" xmlns="http://www.w3.org/2000/svg" xmlns:xlink="http://www.w3.org/1999/xlink">
    <!-- Generator: Sketch 61.2 (89653) - https://sketch.com -->
    <title>CAFEBARBLACKI966</title>
    <desc>Created with Sketch.</desc>
    <g id="Page-1" stroke="none" stroke-width="1" fill="none" fill-rule="evenodd">
        <g id="Cafe-Black-Bar" transform="translate(-193.000000, -1520.000000)" fill="#000000" fill-rule="nonzero">
            <path d="M236,1568.99329 L234.989899,1568.99329 C234.675644,1568.63534 234.3165,1568.31096 233.912458,1568.02013 C233.508415,1567.72931 232.879914,1567.58389 232.026936,1567.58389 C231.353532,1567.58389 230.624022,1567.70693 229.838384,1567.95302 C229.052746,1568.19911 228.154887,1568.47875 227.144781,1568.79195 C226.134675,1569.10515 225.001129,1569.38479 223.744108,1569.63087 C222.487087,1569.87696 221.095406,1570 219.569024,1570 C216.740727,1570 213.991035,1569.48546 211.319865,1568.45638 C208.648696,1567.42729 206.123469,1565.74945 203.744108,1563.42282 C201.544321,1561.23041 199.703711,1558.63536 198.222222,1555.63758 C196.740733,1552.63981 196,1549.17228 196,1545.2349 C196,1541.87918 196.606055,1538.6801 197.818182,1535.63758 C199.030309,1532.59506 200.713794,1529.91053 202.868687,1527.58389 C205.02358,1525.25726 207.56003,1523.41164 210.478114,1522.04698 C213.396199,1520.68232 216.583597,1520 220.040404,1520 C221.432106,1520 222.666661,1520.13423 223.744108,1520.40268 C224.821554,1520.67114 225.786752,1520.97315 226.639731,1521.30872 C227.492709,1521.6443 228.278335,1521.94631 228.996633,1522.21477 C229.714931,1522.48322 230.410771,1522.61745 231.084175,1522.61745 C231.982047,1522.61745 232.621771,1522.47204 233.003367,1522.18121 C233.384963,1521.89038 233.732883,1521.566 234.047138,1521.20805 L235.057239,1521.20805 L235.057239,1534.63087 L234.316498,1534.63087 C233.912456,1532.93064 233.396187,1531.2528 232.767677,1529.59732 C232.139166,1527.94183 231.263754,1526.47652 230.141414,1525.20134 C229.019074,1523.92617 227.593724,1522.8971 225.86532,1522.11409 C224.136916,1521.33109 221.993279,1520.9396 219.434343,1520.9396 C217.054982,1520.9396 215.012354,1521.30872 213.306397,1522.04698 C211.60044,1522.78524 210.163867,1523.76957 208.996633,1525 C207.829399,1526.23043 206.897871,1527.66218 206.20202,1529.2953 C205.506169,1530.92842 204.978677,1532.651 204.619529,1534.46309 C204.26038,1536.27518 204.024692,1538.10961 203.912458,1539.96644 C203.800224,1541.82328 203.744108,1543.57941 203.744108,1545.2349 C203.744108,1549.93291 204.125698,1553.82549 204.888889,1556.91275 C205.65208,1560.00002 206.718287,1562.43847 208.087542,1564.22819 C209.456797,1566.01791 211.106612,1567.27069 213.037037,1567.98658 C214.967462,1568.70246 217.099876,1569.0604 219.434343,1569.0604 C222.442215,1569.0604 224.866433,1568.63535 226.707071,1567.78523 C228.547708,1566.93512 230.029175,1565.82775 231.151515,1564.46309 C232.273855,1563.09843 233.126821,1561.55482 233.710438,1559.83221 C234.294055,1558.10961 234.810323,1556.39822 235.259259,1554.69799 L236,1554.69799 L236,1568.99329 Z M260.5,1530 L253,1549 L268,1549 L260.5,1530 Z M239,1569.06027 L244.921938,1569.06027 L263.091521,1521 L264.706595,1521 L283.010767,1569.06027 L289,1569.06027 L289,1570 L268.273217,1570 L268.273217,1569.06027 L275.742934,1569.06027 L268.676985,1550.4 L253.064603,1550.4 L245.998654,1569.06027 L253.468371,1569.06027 L253.468371,1570 L239,1570 L239,1569.06027 Z M293,1569.03652 L300.374126,1569.03652 L300.374126,1521.96348 L293,1521.96348 L293,1521 L331,1521 L331,1532.9059 L330.269231,1532.9059 C329.69347,1531.11656 329.07343,1529.54518 328.409091,1528.19171 C327.744752,1526.83824 326.947557,1525.69125 326.017483,1524.7507 C325.087408,1523.81015 323.980193,1523.11049 322.695804,1522.65169 C321.411415,1522.19288 319.861314,1521.96348 318.045455,1521.96348 L307.017483,1521.96348 L307.017483,1544.26124 L311.335664,1544.26124 C312.79721,1544.26124 314.037291,1544.1236 315.055944,1543.84831 C316.074597,1543.57303 316.949297,1543.05689 317.68007,1542.29986 C318.410843,1541.54283 319.030883,1540.51054 319.54021,1539.20295 C320.049536,1537.89536 320.547783,1536.20928 321.034965,1534.14466 L321.765734,1534.14466 L321.765734,1555.54775 L321.034965,1555.54775 C320.72494,1554.21722 320.403848,1552.93259 320.071678,1551.69382 C319.739509,1550.45505 319.274479,1549.35394 318.676573,1548.39045 C318.078668,1547.42696 317.281474,1546.65848 316.284965,1546.08497 C315.288457,1545.51147 313.993015,1545.22472 312.398601,1545.22472 L307.017483,1545.22472 L307.017483,1569.03652 L314.391608,1569.03652 L314.391608,1570 L293,1570 L293,1569.03652 Z M336,1569.03652 L343.642623,1569.03652 L343.642623,1521.96348 L336,1521.96348 L336,1521 L375.383607,1521 L375.383607,1532.9059 L374.62623,1532.9059 C374.029505,1531.11656 373.386889,1529.54518 372.698361,1528.19171 C372.009833,1526.83824 371.183611,1525.69125 370.219672,1524.7507 C369.255733,1523.81015 368.108203,1523.11049 366.777049,1522.65169 C365.445895,1522.19288 363.839354,1521.96348 361.957377,1521.96348 L350.527869,1521.96348 L350.527869,1543.22893 L355.003279,1543.22893 C356.51804,1543.22893 357.803273,1543.09129 358.859016,1542.81601 C359.914759,1542.54073 360.821308,1542.02458 361.578689,1541.26756 C362.336069,1540.51053 362.978686,1539.47824 363.506557,1538.17065 C364.034429,1536.86306 364.550817,1535.17698 365.055738,1533.11236 L365.813115,1533.11236 L365.813115,1554.51545 L365.055738,1554.51545 C364.734425,1553.18492 364.401641,1551.90029 364.057377,1550.66152 C363.713113,1549.42275 363.231151,1548.32163 362.611475,1547.35815 C361.9918,1546.39466 361.165579,1545.62617 360.132787,1545.05267 C359.099995,1544.47916 357.757385,1544.19242 356.104918,1544.19242 L350.527869,1544.19242 L350.527869,1569.03652 L363.540984,1569.03652 C366.065586,1569.03652 368.165565,1568.49743 369.840984,1567.41924 C371.516402,1566.34105 372.881962,1565.05642 373.937705,1563.56531 C374.993448,1562.0742 375.773768,1560.52576 376.278689,1558.91994 C376.783609,1557.31413 377.104917,1555.98362 377.242623,1554.92837 L378,1554.92837 L378,1570 L336,1570 L336,1569.03652 Z M207,1606 L213.359447,1606 C214.649776,1606 215.824879,1605.84295 216.884793,1605.52885 C217.944706,1605.21474 218.854835,1604.66507 219.615207,1603.87981 C220.37558,1603.09455 220.963132,1602.02885 221.37788,1600.68269 C221.792629,1599.33653 222,1597.63142 222,1595.56731 C222,1593.23396 221.688943,1591.36058 221.06682,1589.94712 C220.444697,1588.53365 219.638254,1587.46795 218.647465,1586.75 C217.656677,1586.03205 216.550697,1585.5609 215.329493,1585.33654 C214.108289,1585.11218 212.898624,1585 211.700461,1585 C210.870964,1585 210.029958,1585.01122 209.177419,1585.03365 C208.324881,1585.05609 207.599081,1585.11218 207,1585.20192 L207,1606 Z M207,1629.73699 C207.489798,1629.78082 208.030609,1629.83562 208.622449,1629.90137 C209.214289,1629.96712 210.061219,1630 211.163265,1630 C213.081642,1630 214.724483,1629.80274 216.091837,1629.40822 C217.459191,1629.0137 218.581628,1628.32329 219.459184,1627.33699 C220.336739,1626.35068 220.97959,1625.04658 221.387755,1623.42466 C221.79592,1621.80273 222,1619.7644 222,1617.30959 C222,1613.80272 221.306129,1611.04111 219.918367,1609.02466 C218.530605,1607.00821 216.469401,1606 213.734694,1606 L207,1606 L207,1629.73699 Z M193,1630.7733 L200.38704,1630.7733 L200.38704,1584.15855 L193,1584.15855 L193,1583.20445 L204.646235,1583.20445 C205.311737,1583.20445 205.988321,1583.19309 206.676007,1583.17038 C207.363693,1583.14766 208.06246,1583.11358 208.772329,1583.06815 C209.482199,1583.06815 210.169874,1583.05679 210.835377,1583.03408 C211.500879,1583.01136 212.144188,1583 212.765324,1583 C216.004103,1583 218.666072,1583.39754 220.751313,1584.19263 C222.836555,1584.98772 224.478103,1585.96453 225.676007,1587.12309 C226.873911,1588.28165 227.694685,1589.53105 228.138354,1590.87135 C228.582022,1592.21164 228.803853,1593.42698 228.803853,1594.51739 C228.803853,1596.0167 228.482198,1597.4024 227.838879,1598.67455 C227.19556,1599.94669 226.33042,1601.0598 225.243433,1602.01391 C224.156445,1602.96802 222.903101,1603.74038 221.483363,1604.33102 C220.063624,1604.92165 218.577357,1605.30783 217.024518,1605.48957 L217.024518,1605.62587 C218.621724,1605.76217 220.252181,1606.11428 221.915937,1606.6822 C223.579693,1607.25012 225.088143,1608.0452 226.441331,1609.06745 C227.794519,1610.08971 228.892582,1611.35048 229.735552,1612.84979 C230.578521,1614.3491 231,1616.07556 231,1618.02921 C231,1620.07372 230.622888,1621.94784 229.868651,1623.6516 C229.114415,1625.35536 227.983078,1626.82058 226.474606,1628.04729 C224.966134,1629.274 223.058389,1630.23945 220.751313,1630.94367 C218.444238,1631.64789 215.760085,1632 212.698774,1632 C212.077638,1632 211.467604,1631.98864 210.868651,1631.96592 C210.269699,1631.94321 209.637481,1631.90913 208.971979,1631.8637 C208.306477,1631.81827 207.618801,1631.78419 206.908932,1631.76147 C206.199062,1631.73876 205.444838,1631.7274 204.646235,1631.7274 L193,1631.7274 L193,1630.7733 Z M256.5,1592 L249,1611 L264,1611 L256.5,1592 Z M235,1631.06027 L240.921938,1631.06027 L259.091521,1583 L260.706595,1583 L279.010767,1631.06027 L285,1631.06027 L285,1632 L264.273217,1632 L264.273217,1631.06027 L271.742934,1631.06027 L264.676985,1612.4 L249.064603,1612.4 L241.998654,1631.06027 L249.468371,1631.06027 L249.468371,1632 L235,1632 L235,1631.06027 Z M302,1606 L308.359447,1606 C309.649776,1606 310.824879,1605.84295 311.884793,1605.52885 C312.944706,1605.21474 313.854835,1604.66507 314.615207,1603.87981 C315.37558,1603.09455 315.963132,1602.02885 316.37788,1600.68269 C316.792629,1599.33653 317,1597.63142 317,1595.56731 C317,1593.23396 316.688943,1591.36058 316.06682,1589.94712 C315.444697,1588.53365 314.638254,1587.46795 313.647465,1586.75 C312.656677,1586.03205 311.550697,1585.5609 310.329493,1585.33654 C309.108289,1585.11218 307.898624,1585 306.700461,1585 C305.870964,1585 305.029958,1585.01122 304.177419,1585.03365 C303.324881,1585.05609 302.599081,1585.11218 302,1585.20192 L302,1606 Z M288,1630.57479 L295.549928,1630.57479 L295.549928,1584.15374 L288,1584.15374 L288,1583.2036 L300.9233,1583.2036 C301.467441,1583.2036 302.011575,1583.19229 302.555716,1583.16967 C303.099858,1583.14705 303.643991,1583.11311 304.188133,1583.06787 C304.732275,1583.06787 305.276408,1583.05656 305.82055,1583.03393 C306.364692,1583.01131 306.908825,1583 307.452967,1583 C310.12833,1583 312.486242,1583.14704 314.526773,1583.44114 C316.567304,1583.73523 318.471771,1584.58356 320.240232,1585.98615 C321.827311,1587.20776 322.949587,1588.58771 323.607091,1590.12604 C324.264596,1591.66437 324.593343,1593.11218 324.593343,1594.46953 C324.593343,1595.1482 324.468646,1596.01915 324.219247,1597.08241 C323.969849,1598.14567 323.425716,1599.23153 322.586831,1600.34003 C321.747946,1601.44853 320.534981,1602.46652 318.947902,1603.39404 C317.360822,1604.32157 315.252305,1604.94367 312.622287,1605.26039 L312.622287,1605.39612 C313.347809,1605.48661 314.334051,1605.65628 315.581042,1605.90512 C316.828033,1606.15397 318.097678,1606.57248 319.390014,1607.16066 C320.682351,1607.74885 321.872643,1608.52931 322.960926,1609.50208 C324.049209,1610.47484 324.820065,1611.73037 325.273517,1613.2687 C325.545587,1614.1736 325.738301,1615.2029 325.851664,1616.35665 C325.965027,1617.51039 326.055716,1618.69805 326.123734,1619.91967 C326.191751,1621.14128 326.259768,1622.31763 326.327786,1623.44875 C326.395804,1624.57988 326.520501,1625.53001 326.701881,1626.29917 C326.973952,1627.47554 327.404725,1628.53878 327.994211,1629.48892 C328.583698,1630.43906 329.535932,1630.91413 330.850941,1630.91413 C331.440427,1630.91413 332.052578,1630.80102 332.68741,1630.57479 C333.322241,1630.34857 333.889047,1629.98661 334.387844,1629.48892 L335,1630.23546 C334.773274,1630.41644 334.512544,1630.60872 334.2178,1630.81233 C333.923057,1631.01593 333.548965,1631.20822 333.095514,1631.3892 C332.642062,1631.57018 332.086593,1631.71722 331.429088,1631.83033 C330.771584,1631.94344 329.96672,1632 329.014472,1632 C327.200666,1632 325.692963,1631.77378 324.491317,1631.32133 C323.289671,1630.86888 322.326101,1630.20153 321.600579,1629.31925 C320.875057,1628.43698 320.342259,1627.35111 320.002171,1626.06163 C319.662082,1624.77215 319.424024,1623.26778 319.287988,1621.54848 L318.811867,1615.37258 C318.630486,1613.11033 318.177042,1611.34581 317.45152,1610.07895 C316.725997,1608.81209 315.875789,1607.88458 314.900868,1607.2964 C313.925948,1606.70821 312.917034,1606.35757 311.874096,1606.24446 C310.831157,1606.13135 309.924268,1606.07479 309.153401,1606.07479 L302.351664,1606.07479 L302.351664,1630.57479 L309.901592,1630.57479 L309.901592,1631.52493 L288,1631.52493 L288,1630.57479 Z M207,1666 L213.359447,1666 C214.649776,1666 215.824879,1665.84295 216.884793,1665.52885 C217.944706,1665.21474 218.854835,1664.66507 219.615207,1663.87981 C220.37558,1663.09455 220.963132,1662.02885 221.37788,1660.68269 C221.792629,1659.33653 222,1657.63142 222,1655.56731 C222,1653.23396 221.688943,1651.36058 221.06682,1649.94712 C220.444697,1648.53365 219.638254,1647.46795 218.647465,1646.75 C217.656677,1646.03205 216.550697,1645.5609 215.329493,1645.33654 C214.108289,1645.11218 212.898624,1645 211.700461,1645 C210.870964,1645 210.029958,1645.01122 209.177419,1645.03365 C208.324881,1645.05609 207.599081,1645.11218 207,1645.20192 L207,1666 Z M207,1692.73699 C207.489798,1692.78082 208.030609,1692.83562 208.622449,1692.90137 C209.214289,1692.96712 210.061219,1693 211.163265,1693 C213.081642,1693 214.724483,1692.80274 216.091837,1692.40822 C217.459191,1692.0137 218.581628,1691.32329 219.459184,1690.33699 C220.336739,1689.35068 220.97959,1688.04658 221.387755,1686.42466 C221.79592,1684.80273 222,1682.7644 222,1680.30959 C222,1676.80272 221.306129,1674.04111 219.918367,1672.02466 C218.530605,1670.00821 216.469401,1669 213.734694,1669 L207,1669 L207,1692.73699 Z M193,1692.7733 L200.38704,1692.7733 L200.38704,1646.15855 L193,1646.15855 L193,1645.20445 L204.646235,1645.20445 C205.311737,1645.20445 205.988321,1645.19309 206.676007,1645.17038 C207.363693,1645.14766 208.06246,1645.11358 208.772329,1645.06815 C209.482199,1645.06815 210.169874,1645.05679 210.835377,1645.03408 C211.500879,1645.01136 212.144188,1645 212.765324,1645 C216.004103,1645 218.666072,1645.39754 220.751313,1646.19263 C222.836555,1646.98772 224.478103,1647.96453 225.676007,1649.12309 C226.873911,1650.28165 227.694685,1651.53105 228.138354,1652.87135 C228.582022,1654.21164 228.803853,1655.42698 228.803853,1656.51739 C228.803853,1658.0167 228.482198,1659.4024 227.838879,1660.67455 C227.19556,1661.94669 226.33042,1663.0598 225.243433,1664.01391 C224.156445,1664.96802 222.903101,1665.74038 221.483363,1666.33102 C220.063624,1666.92165 218.577357,1667.30783 217.024518,1667.48957 L217.024518,1667.62587 C218.621724,1667.76217 220.252181,1668.11428 221.915937,1668.6822 C223.579693,1669.25012 225.088143,1670.0452 226.441331,1671.06745 C227.794519,1672.08971 228.892582,1673.35048 229.735552,1674.84979 C230.578521,1676.3491 231,1678.07556 231,1680.02921 C231,1682.07372 230.622888,1683.94784 229.868651,1685.6516 C229.114415,1687.35536 227.983078,1688.82058 226.474606,1690.04729 C224.966134,1691.274 223.058389,1692.23945 220.751313,1692.94367 C218.444238,1693.64789 215.760085,1694 212.698774,1694 C212.077638,1694 211.467604,1693.98864 210.868651,1693.96592 C210.269699,1693.94321 209.637481,1693.90913 208.971979,1693.8637 C208.306477,1693.81827 207.618801,1693.78419 206.908932,1693.76147 C206.199062,1693.73876 205.444838,1693.7274 204.646235,1693.7274 L193,1693.7274 L193,1692.7733 Z M238,1693.03652 L245.630115,1693.03652 L245.630115,1645.96348 L238,1645.96348 L238,1645 L260.134206,1645 L260.134206,1645.96348 L252.504092,1645.96348 L252.504092,1693.03652 L264.739771,1693.03652 C268.772524,1693.03652 271.934522,1691.77483 274.225859,1689.2514 C276.517196,1686.72798 278.189847,1683.28701 279.243863,1678.92837 L280,1678.92837 L280,1694 L238,1694 L238,1693.03652 Z M304.5,1653 L297,1672 L312,1672 L304.5,1653 Z M284,1692.06027 L289.921938,1692.06027 L308.091521,1644 L309.706595,1644 L328.010767,1692.06027 L334,1692.06027 L334,1693 L313.273217,1693 L313.273217,1692.06027 L320.742934,1692.06027 L313.676985,1673.4 L298.064603,1673.4 L290.998654,1692.06027 L298.468371,1692.06027 L298.468371,1693 L284,1693 L284,1692.06027 Z M377,1692.99329 L375.989899,1692.99329 C375.675644,1692.63534 375.3165,1692.31096 374.912458,1692.02013 C374.508415,1691.72931 373.879914,1691.58389 373.026936,1691.58389 C372.353532,1691.58389 371.624022,1691.70693 370.838384,1691.95302 C370.052746,1692.19911 369.154887,1692.47875 368.144781,1692.79195 C367.134675,1693.10515 366.001129,1693.38479 364.744108,1693.63087 C363.487087,1693.87696 362.095406,1694 360.569024,1694 C357.740727,1694 354.991035,1693.48546 352.319865,1692.45638 C349.648696,1691.42729 347.123469,1689.74945 344.744108,1687.42282 C342.544321,1685.23041 340.703711,1682.63536 339.222222,1679.63758 C337.740733,1676.63981 337,1673.17228 337,1669.2349 C337,1665.87918 337.606055,1662.6801 338.818182,1659.63758 C340.030309,1656.59506 341.713794,1653.91053 343.868687,1651.58389 C346.02358,1649.25726 348.56003,1647.41164 351.478114,1646.04698 C354.396199,1644.68232 357.583597,1644 361.040404,1644 C362.432106,1644 363.666661,1644.13423 364.744108,1644.40268 C365.821554,1644.67114 366.786752,1644.97315 367.639731,1645.30872 C368.492709,1645.6443 369.278335,1645.94631 369.996633,1646.21477 C370.714931,1646.48322 371.410771,1646.61745 372.084175,1646.61745 C372.982047,1646.61745 373.621771,1646.47204 374.003367,1646.18121 C374.384963,1645.89038 374.732883,1645.566 375.047138,1645.20805 L376.057239,1645.20805 L376.057239,1658.63087 L375.316498,1658.63087 C374.912456,1656.93064 374.396187,1655.2528 373.767677,1653.59732 C373.139166,1651.94183 372.263754,1650.47652 371.141414,1649.20134 C370.019074,1647.92617 368.593724,1646.8971 366.86532,1646.11409 C365.136916,1645.33109 362.993279,1644.9396 360.434343,1644.9396 C358.054982,1644.9396 356.012354,1645.30872 354.306397,1646.04698 C352.60044,1646.78524 351.163867,1647.76957 349.996633,1649 C348.829399,1650.23043 347.897871,1651.66218 347.20202,1653.2953 C346.506169,1654.92842 345.978677,1656.651 345.619529,1658.46309 C345.26038,1660.27518 345.024692,1662.10961 344.912458,1663.96644 C344.800224,1665.82328 344.744108,1667.57941 344.744108,1669.2349 C344.744108,1673.93291 345.125698,1677.82549 345.888889,1680.91275 C346.65208,1684.00002 347.718287,1686.43847 349.087542,1688.22819 C350.456797,1690.01791 352.106612,1691.27069 354.037037,1691.98658 C355.967462,1692.70246 358.099876,1693.0604 360.434343,1693.0604 C363.442215,1693.0604 365.866433,1692.63535 367.707071,1691.78523 C369.547708,1690.93512 371.029175,1689.82775 372.151515,1688.46309 C373.273855,1687.09843 374.126821,1685.55482 374.710438,1683.83221 C375.294055,1682.10961 375.810323,1680.39822 376.259259,1678.69799 L377,1678.69799 L377,1692.99329 Z M383,1693.03652 L390.575209,1693.03652 L390.575209,1645.96348 L383,1645.96348 L383,1645 L404.428969,1645 L404.428969,1645.96348 L397.399721,1645.96348 L397.399721,1667.84831 L398.082173,1667.84831 L418.692201,1645.96348 L411.594708,1645.96348 L411.594708,1645 L425.721448,1645 L425.721448,1645.96348 L420.057103,1645.96348 L402.722841,1664.47612 L427.495822,1693.03652 L432,1693.03652 L432,1694 L412.277159,1694 L412.277159,1693.03652 L418.41922,1693.03652 L397.945682,1668.8118 L397.399721,1668.8118 L397.399721,1693.03652 L404.428969,1693.03652 L404.428969,1694 L383,1694 L383,1693.03652 Z M212.902397,1756 L194.097603,1756 C193.967466,1756 193.967466,1754.89422 194.097603,1754.89422 L199.498288,1754.89422 C199.758562,1754.89422 199.888699,1754.82511 199.888699,1754.61777 L199.888699,1708.38223 C199.888699,1708.17489 199.758562,1708.10578 199.498288,1708.10578 L194.097603,1708.10578 C193.967466,1708.10578 193.967466,1707 194.097603,1707 L212.902397,1707 C213.032534,1707 213.032534,1708.10578 212.902397,1708.10578 L207.371575,1708.10578 C207.111301,1708.10578 206.981164,1708.17489 206.981164,1708.38223 L206.981164,1754.61777 C206.981164,1754.82511 207.111301,1754.89422 207.371575,1754.89422 L212.902397,1754.89422 C213.032534,1754.89422 213.032534,1756 212.902397,1756 Z M249,1746.72816 C249,1760.93204 242.341289,1775 230.813842,1775 C224.727924,1775 221.792363,1770.99029 221.792363,1768.61165 C221.792363,1767.1165 222.651551,1765.5534 224.727924,1765.5534 C226.947494,1765.5534 227.806683,1766.7767 227.806683,1768 C227.806683,1769.08738 227.23389,1769.49515 227.23389,1770.51456 C227.23389,1772.75728 228.522673,1773.98058 230.813842,1773.98058 C238.618138,1773.98058 241.4821,1763.58252 242.054893,1751.21359 C240.121718,1753.79612 236.684964,1754.95146 233.606205,1754.95146 C225.157518,1754.95146 219,1748.35922 219,1740.47573 C219,1732.52427 225.157518,1726 233.606205,1726 C242.341289,1726 249,1732.04854 249,1746.72816 Z M241,1739.89367 C241,1732.23797 239.9375,1729.33165 237.875,1727.48861 C236.625,1726.35443 234.8125,1726 233.0625,1726 C231.375,1726 229.875,1726.35443 228.625,1727.48861 C226.5,1729.33165 226,1732.37975 226,1740.03544 C226,1746.69873 226.5,1750.73924 228.625,1752.58228 C229.875,1753.64557 231.375,1754 233.0625,1754 C237.0625,1754 239.875,1751.30633 240.5,1749.25063 C240.75,1748.61266 241,1742.51646 241,1739.89367 Z M285,1742.06796 C285,1749.61165 278.785366,1756 271.136585,1756 C263.009756,1756 257,1749.54369 257,1735.40777 C257,1721.27184 263.487805,1707 273.458537,1707 C278.853659,1707 281.585366,1710.73786 281.585366,1713.04854 C281.585366,1714.54369 280.834146,1716.1068 278.717073,1716.1068 C276.668293,1716.1068 275.780488,1714.8835 275.780488,1713.66019 C275.780488,1712.64078 276.258537,1712.23301 276.258537,1711.14563 C276.258537,1708.97087 275.234146,1708.01942 273.458537,1708.01942 C266.697561,1708.01942 263.419512,1720.1165 263.078049,1732.96117 C264.64878,1730.03883 267.926829,1728.20388 271.136585,1728.20388 C278.785366,1728.20388 285,1734.59223 285,1742.06796 Z M278,1741.46419 C278,1735.1618 277.220779,1731.07958 275.272727,1729.36074 C274.038961,1728.28647 272.285714,1728 270.662338,1728 C266.246753,1728 263,1732.08223 263,1735.09019 L263,1741.82228 C263,1749.12732 264.103896,1751.92042 266.116883,1753.63926 C267.350649,1754.71353 269.038961,1755 270.662338,1755 C272.285714,1755 274.038961,1754.71353 275.272727,1753.63926 C277.220779,1751.92042 278,1748.76923 278,1741.46419 Z M321,1742.06796 C321,1749.61165 314.785366,1756 307.136585,1756 C299.009756,1756 293,1749.54369 293,1735.40777 C293,1721.27184 299.487805,1707 309.458537,1707 C314.853659,1707 317.585366,1710.73786 317.585366,1713.04854 C317.585366,1714.54369 316.834146,1716.1068 314.717073,1716.1068 C312.668293,1716.1068 311.780488,1714.8835 311.780488,1713.66019 C311.780488,1712.64078 312.258537,1712.23301 312.258537,1711.14563 C312.258537,1708.97087 311.234146,1708.01942 309.458537,1708.01942 C302.697561,1708.01942 299.419512,1720.1165 299.078049,1732.96117 C300.64878,1730.03883 303.926829,1728.20388 307.136585,1728.20388 C314.785366,1728.20388 321,1734.59223 321,1742.06796 Z M314,1741.46419 C314,1735.1618 313.220779,1731.07958 311.272727,1729.36074 C310.038961,1728.28647 308.285714,1728 306.662338,1728 C302.246753,1728 299,1732.08223 299,1735.09019 L299,1741.82228 C299,1749.12732 300.103896,1751.92042 302.116883,1753.63926 C303.350649,1754.71353 305.038961,1755 306.662338,1755 C308.285714,1755 310.038961,1754.71353 311.272727,1753.63926 C313.220779,1751.92042 314,1748.76923 314,1741.46419 Z" id="CAFEBARBLACKI966"></path>
        </g>
    </g>
</svg>