<?xml version="1.0" encoding="iso-8859-1"?>
<!-- Generator: Adobe Illustrator 16.0.0, SVG Export Plug-In . SVG Version: 6.00 Build 0)  -->
<!DOCTYPE svg PUBLIC "-//W3C//DTD SVG 1.0//EN" "http://www.w3.org/TR/2001/REC-SVG-20010904/DTD/svg10.dtd">
<svg version="1.0" id="Isolation_Mode" xmlns="http://www.w3.org/2000/svg" xmlns:xlink="http://www.w3.org/1999/xlink" x="0px"
	 y="0px" width="520.203px" height="421.68px" viewBox="0 0 520.203 421.68" style="enable-background:new 0 0 520.203 421.68;"
	 xml:space="preserve">
<style type="text/css">
<![CDATA[
	.st0{fill-rule:evenodd;clip-rule:evenodd;fill:#58EFE9;}
	.st1{opacity:0.5;}
	.st2{fill-rule:evenodd;clip-rule:evenodd;fill:#231F20;}
	.st3{fill-rule:evenodd;clip-rule:evenodd;fill:none;stroke:#000000;stroke-width:0.4693;stroke-miterlimit:10;}
	.st4{fill-rule:evenodd;clip-rule:evenodd;fill:#60EFE8;}
	.st5{fill-rule:evenodd;clip-rule:evenodd;fill:#FF2F68;}
	.st6{fill-rule:evenodd;clip-rule:evenodd;fill:#FFE033;}
]]>
</style>
<g>
	<path class="st5" d="M278.657,311.589c-14.078,6.69-26.181,7.989-41.551,7.035c-11.535-0.713-22.537-3.908-33.279-8.02
		c-9.636-3.69-19.218-7.524-28.875-11.148c-3.919-1.474-7.984-2.557-12.331-3.928c2.827-1.18,5.485-2.456,8.251-3.412
		c7.356-2.549,14.654-5.19,20.752-10.25c3.896-3.229,6.009-7.431,6.185-12.472c0.056-1.654,0.627-2.407,2.153-2.665
		c7.637-1.285,15.258-2.683,22.926-3.794c1.779-0.259,2.999-0.705,4.114-2.146c16.367-21.166,32.694-42.37,49.235-63.4
		c8.164-10.379,16.755-20.431,25.16-30.622c0.567-0.684,1.205-1.305,2.246-2.423c1.795,4.204,3.251,8.115,5.094,11.838
		c3.292,6.648,2.513,11.99-2.108,18.344c-13.233,18.21-20.491,39.005-23.126,61.363c-0.18,1.518-0.79,2.338-1.943,3.119
		c-8.836,6.013-18.231,10.976-28.085,15.077c-0.988,0.411-1.969,0.851-2.934,1.315c-0.187,0.093-0.901,0.407-0.492,0.614
		c3.503,1.55,7.027,2.928,10.39,4.621c10.502,5.299,18.409,13.66,27.558,21.104c6.083,4.949,25.022,11.925,30.603,14.148
		c35.023,13.963,38.439,14.467,94.904,35.89c0.098,3.147-19.281-2.131-28.167-4.556c-26.657-7.255-53.292-14.575-79.979-21.699
		c-3.121-0.833-6.555-0.995-9.795-0.774c-6.547,0.444-10.391,6.149-8.95,13.301c0.81,4.013,2.933,7.583,4.147,11.505
		c0.252,0.829,1.326,2.552,0.611,3.375c-9.762-10.265-19.021-19.996-28.477-29.937C266.712,321.955,282.271,311.28,278.657,311.589z
		"/>
	<path class="st4" d="M430.396,132.883c-3.154,4.11-6.109,8.386-9.488,12.302c-10.668,12.378-22.955,23.046-36.099,32.667
		c-10.583,7.745-21.358,15.262-32.403,22.328c-9.724,6.223-17.285,14.331-24.1,23.498c-11.727,15.773-24.252,30.908-37.797,45.177
		c-0.482,0.507-1.59,1.493-1.9,1.252c0-2.773-0.122-5.558,0.078-8.318c0.057-0.791,0.928-1.67,1.643-2.245
		c10.783-8.712,19.393-19.067,24.494-32.103c4.783-12.227,5.523-24.824,3.455-37.691c-0.134-0.83,0.129-2.01,0.672-2.612
		c4.345-4.856,8.781-9.635,13.258-14.372c0.486-0.515,1.437-0.922,2.131-0.863c32.574,1.14,59.246-9.059,83.521-28.941
		c4.123-3.376,7.979-7.077,11.951-10.626C430.009,132.518,430.2,132.699,430.396,132.883z"/>
	<path class="st5" d="M132.834,170.717c12.199,14.194,25.36,48.46,23.428,49.634c-2.43,1.478-9.465-4.482-13.834-6.7
		c-13.243-6.711-26.468-13.457-39.649-20.283c-0.936-0.487-1.999-1.669-2.125-2.644c-1.877-14.387-6.142-44.709-5.739-44.685
		C98.838,146.269,122.772,159.007,132.834,170.717z"/>
	<path class="st5" d="M309.272,159.671c10.014-5.562,19.91-11.349,30.063-16.642c16.815-8.76,33.856-17.099,50.702-25.812
		c16.508-8.535,32.277-18.312,47.498-28.986c1.989-1.395,4.297-2.494,6.616-3.229c3.309-1.05,4.767,0.051,4.302,3.412
		c-0.52,3.726-1.459,7.436-2.631,11.017c-1.229,3.745-2.096,8.222-4.705,10.726c-2.492,2.384-6.996,2.733-10.666,3.814
		c-25.981,7.67-50.986,17.621-73.693,32.592c-8.312,5.479-15.957,11.958-23.971,17.902c-0.875,0.65-1.859,1.105-3.223,1.322
		C321.727,165.447,313.39,162.847,309.272,159.671z"/>
	<path class="st6" d="M339.353,166.335c27.742-23.328,59.85-37.147,93.998-47c-12.059,14.486-26.191,26.397-42.844,35.203
		C371.897,164.381,353.329,167.694,339.353,166.335z"/>
	<path class="st5" d="M224.161,245.921c-1.235,2.187-35.59-11.438-52.482-18.657c-2.505-1.069-5.037-2.103-7.447-3.355
		c-0.825-0.431-1.74-1.406-1.912-2.27c-2.973-15.114-8.161-29.367-16.236-42.524c-0.074-0.119-0.306-0.496-0.088-0.503
		c7.479-0.255,28.12,22.184,40.696,33.772C199.259,223.959,225.119,244.231,224.161,245.921z"/>
	<path class="st6" d="M163.807,230.16c2.136-1.348,8.944,4.38,62.514,21.76c2.29,0.744-3.285,5.241-7.479,5.652
		c-7.25,0.711-14.374,2.634-21.562,4.01c-0.734,0.144-1.803,0.343-2.247-0.035c-4.799-4.093-10.546-4.638-16.346-3.952
		c-3.432,0.402-6.024,0.056-7.653-2.968c-0.658-1.216-4.943-10.571-6.37-14.721C163.614,236.852,162.459,231.01,163.807,230.16z"/>
	<path class="st0" d="M88.981,138.234c-2.5,1.818-7.92,1.869-9.336-4.029c-2.08-8.658-3.754-17.432-4.98-26.242
		c-1.404-10.126-2.125-20.35-3.075-30.536c-0.13-1.399,0.118-2.833,0.196-4.25c0.236-0.091,0.479-0.179,0.721-0.268
		c0.873,0.798,1.931,1.47,2.589,2.419c5.018,7.251,9.974,14.543,14.891,21.863c0.422,0.627,0.604,1.545,0.581,2.319
		C90.153,112.045,89.558,137.816,88.981,138.234z"/>
	<path class="st6" d="M289.654,252.219c3.097-20.93,11.151-39.737,23.046-57.11C318.997,208.332,304.993,242.988,289.654,252.219z"
		/>
	<path class="st5" d="M189.368,264.415c-2.704,1.485-4.9,2.598-6.996,3.864c-7.649,4.641-13.873,10.592-17.416,19.024
		c-0.305,0.733-1.106,1.398-1.836,1.798c-3.278,2.115-6.357,4.156-9.517,6.084c-10.065,6.143-13.986,6.668-13.202,5.492
		c2.674-4.014,11.023-14.076,12.098-18.962c1.887-8.557,7.356-13.988,15.682-16.597c5.426-1.705,10.99-2.204,16.639-1.729
		C186.164,263.503,187.48,263.974,189.368,264.415z"/>
	<path class="st5" d="M121.601,152.38c-0.642,0-17.173-8.805-25.729-12.422c-0.526-0.177-0.718-0.697-0.713-1.216
		c0.076-9.878,0.086-30.658,0.771-30.731C97.433,107.853,124.261,152.38,121.601,152.38z"/>
	<path class="st6" d="M283.045,265.163c1.136,0.889,1.491,9.342,0.181,10.479c-0.539,0.886-4.502,4.75-7.577,5.672
		c-4.468,1.336-12.191-3.203-11.638-5.916C264.262,274.158,282.009,264.354,283.045,265.163z"/>
	<path class="st0" d="M158.99,238.746c-0.306,0.539-26.918-11.895-28.036-24.296c-0.263-2.916,24.674,11.495,27.741,15.123
		C159.656,230.706,160.092,236.803,158.99,238.746z"/>
	<path class="st6" d="M81.728,144.179c-0.115-0.591,7.111-1.783,8.22,3.107c0.585,7.552,3.053,30.379,1.553,27.265
		C84.665,160.352,83.807,155.075,81.728,144.179z"/>
	<path class="st5" d="M172.751,285.29c4.521-7.441,11.262-12.096,19.156-15.285C189.599,280.173,180.352,281.695,172.751,285.29z"/>
	<path class="st5" d="M311.352,167.23c4.96,1.265,9.604,2.449,14.497,3.696c-3.207,3.419-6.279,6.696-9.443,10.074
		C314.729,176.442,313.107,172.016,311.352,167.23z"/>
</g>
<path class="st3" d="M279.759,263.219"/>
<g class="st1">
	<g>
		<g>
			<g>
				<polygon class="st2" points="8.46,71.75 8.46,71.879 10.823,71.898 10.823,71.739 				"/>
				<polygon class="st2" points="4.223,71.77 4.223,71.843 6.586,71.863 6.586,71.758 				"/>
				<polygon class="st2" points="0,71.791 0,71.805 2.362,71.826 2.362,71.778 				"/>
			</g>
		</g>
		<g>
			<g>
				<polygon class="st2" points="21.188,71.696 21.188,71.978 23.551,71.995 23.551,71.686 				"/>
				<polygon class="st2" points="16.951,71.713 16.951,71.946 19.313,71.964 19.313,71.703 				"/>
				<polygon class="st2" points="12.728,71.731 12.728,71.913 15.09,71.932 15.09,71.721 				"/>
			</g>
		</g>
		<g>
			<g>
				<polygon class="st2" points="33.916,71.647 33.916,72.066 36.278,72.082 36.278,71.639 				"/>
				<polygon class="st2" points="29.679,71.663 29.679,72.038 32.042,72.054 32.042,71.654 				"/>
				<polygon class="st2" points="25.456,71.679 25.456,72.009 27.818,72.025 27.818,71.67 				"/>
			</g>
		</g>
		<g>
			<g>
				<polygon class="st2" points="46.644,71.604 46.644,72.146 49.006,72.161 49.006,71.596 				"/>
				<polygon class="st2" points="42.407,71.618 42.407,72.121 44.769,72.135 44.769,71.609 				"/>
				<polygon class="st2" points="38.183,71.632 38.183,72.094 40.546,72.109 40.546,71.624 				"/>
			</g>
		</g>
		<g>
			<g>
				<polygon class="st2" points="59.372,71.563 59.372,72.219 61.734,72.232 61.734,71.557 				"/>
				<polygon class="st2" points="55.134,71.576 55.134,72.196 57.497,72.209 57.497,71.569 				"/>
				<polygon class="st2" points="50.911,71.589 50.911,72.172 53.273,72.185 53.273,71.582 				"/>
			</g>
		</g>
		<g>
			<g>
				<polygon class="st2" points="72.099,71.527 72.099,72.286 74.462,72.297 74.462,71.521 				"/>
				<polygon class="st2" points="67.862,71.539 67.862,72.264 70.225,72.276 70.225,71.532 				"/>
				<polygon class="st2" points="63.639,71.551 63.639,72.242 66.001,72.255 66.001,71.544 				"/>
			</g>
		</g>
		<g>
			<g>
				<polygon class="st2" points="84.827,71.494 84.827,72.346 87.189,72.357 87.189,71.488 				"/>
				<polygon class="st2" points="80.59,71.505 80.59,72.327 82.952,72.338 82.952,71.499 				"/>
				<polygon class="st2" points="76.366,71.516 76.366,72.307 78.729,72.318 78.729,71.509 				"/>
			</g>
		</g>
		<g>
			<g>
				<polygon class="st2" points="97.555,71.464 97.555,72.401 99.917,72.411 99.917,71.458 				"/>
				<polygon class="st2" points="93.317,71.474 93.317,72.384 95.68,72.394 95.68,71.468 				"/>
				<polygon class="st2" points="89.094,71.483 89.094,72.365 91.457,72.375 91.457,71.478 				"/>
			</g>
		</g>
		<g>
			<g>
				<polygon class="st2" points="110.283,71.437 110.283,72.451 112.645,72.46 112.645,71.432 				"/>
				<polygon class="st2" points="106.045,71.445 106.045,72.435 108.408,72.444 108.408,71.44 				"/>
				<polygon class="st2" points="101.822,71.455 101.822,72.418 104.185,72.428 104.185,71.449 				"/>
			</g>
		</g>
		<g>
			<g>
				<polygon class="st2" points="123.01,71.412 123.01,72.496 125.373,72.504 125.373,71.408 				"/>
				<polygon class="st2" points="118.773,71.42 118.773,72.481 121.136,72.49 121.136,71.416 				"/>
				<polygon class="st2" points="114.55,71.428 114.55,72.467 116.912,72.475 116.912,71.423 				"/>
			</g>
		</g>
		<g>
			<g>
				<polygon class="st2" points="135.738,71.39 135.738,72.537 138.101,72.543 138.101,71.386 				"/>
				<polygon class="st2" points="131.501,71.397 131.501,72.523 133.863,72.531 133.863,71.393 				"/>
				<polygon class="st2" points="127.277,71.404 127.277,72.51 129.64,72.518 129.64,71.4 				"/>
			</g>
		</g>
		<g>
			<g>
				<polygon class="st2" points="148.466,71.37 148.466,72.573 150.828,72.579 150.828,71.367 				"/>
				<polygon class="st2" points="144.229,71.376 144.229,72.561 146.591,72.567 146.591,71.373 				"/>
				<polygon class="st2" points="140.005,71.383 140.005,72.549 142.368,72.556 142.368,71.379 				"/>
			</g>
		</g>
		<g>
			<g>
				<polygon class="st2" points="161.193,71.353 161.193,72.604 163.556,72.609 163.556,71.35 				"/>
				<polygon class="st2" points="156.956,71.358 156.956,72.594 159.319,72.6 159.319,71.355 				"/>
				<polygon class="st2" points="152.733,71.364 152.733,72.583 155.095,72.589 155.095,71.361 				"/>
			</g>
		</g>
		<g>
			<g>
				<polygon class="st2" points="173.921,71.338 173.921,72.631 176.284,72.636 176.284,71.335 				"/>
				<polygon class="st2" points="169.684,71.343 169.684,72.623 172.046,72.627 172.046,71.34 				"/>
				<polygon class="st2" points="165.46,71.348 165.46,72.613 167.823,72.618 167.823,71.345 				"/>
			</g>
		</g>
		<g>
			<g>
				<polygon class="st2" points="186.649,71.325 186.649,72.655 189.011,72.658 189.011,71.323 				"/>
				<polygon class="st2" points="182.412,71.33 182.412,72.647 184.774,72.651 184.774,71.327 				"/>
				<polygon class="st2" points="178.188,71.333 178.188,72.639 180.551,72.644 180.551,71.332 				"/>
			</g>
		</g>
		<g>
			<g>
				<rect x="199.376" y="71.316" class="st2" width="2.363" height="1.359"/>
				<polygon class="st2" points="195.14,71.318 195.14,72.667 197.502,72.671 197.502,71.316 				"/>
				<polygon class="st2" points="190.916,71.322 190.916,72.661 193.279,72.665 193.279,71.32 				"/>
			</g>
		</g>
		<g>
			<g>
				<rect x="212.104" y="71.307" class="st2" width="2.362" height="1.383"/>
				<rect x="207.867" y="71.311" class="st2" width="2.362" height="1.375"/>
				<rect x="203.644" y="71.313" class="st2" width="2.362" height="1.368"/>
			</g>
		</g>
		<g>
			<g>
				<rect x="224.832" y="71.301" class="st2" width="2.363" height="1.401"/>
				<rect x="220.595" y="71.303" class="st2" width="2.363" height="1.396"/>
				<rect x="216.372" y="71.305" class="st2" width="2.362" height="1.39"/>
			</g>
		</g>
		<g>
			<g>
				<rect x="237.56" y="71.296" class="st2" width="2.362" height="1.414"/>
				<rect x="233.323" y="71.297" class="st2" width="2.362" height="1.411"/>
				<rect x="229.1" y="71.299" class="st2" width="2.362" height="1.407"/>
			</g>
		</g>
		<g>
			<g>
				<rect x="250.288" y="71.293" class="st2" width="2.362" height="1.421"/>
				<rect x="246.05" y="71.294" class="st2" width="2.363" height="1.419"/>
				<rect x="241.827" y="71.295" class="st2" width="2.362" height="1.417"/>
			</g>
		</g>
		<g>
			<g>
				<rect x="263.016" y="71.292" class="st2" width="2.362" height="1.423"/>
				<rect x="258.778" y="71.292" class="st2" width="2.362" height="1.423"/>
				<rect x="254.555" y="71.293" class="st2" width="2.362" height="1.422"/>
			</g>
		</g>
		<g>
			<g>
				<rect x="275.743" y="71.293" class="st2" width="2.362" height="1.419"/>
				<rect x="271.506" y="71.293" class="st2" width="2.362" height="1.421"/>
				<rect x="267.282" y="71.292" class="st2" width="2.363" height="1.422"/>
			</g>
		</g>
		<g>
			<g>
				<rect x="288.471" y="71.296" class="st2" width="2.362" height="1.41"/>
				<rect x="284.233" y="71.295" class="st2" width="2.362" height="1.414"/>
				<rect x="280.011" y="71.294" class="st2" width="2.362" height="1.417"/>
			</g>
		</g>
		<g>
			<g>
				<rect x="301.198" y="71.301" class="st2" width="2.363" height="1.395"/>
				<rect x="296.962" y="71.299" class="st2" width="2.362" height="1.4"/>
				<rect x="292.738" y="71.297" class="st2" width="2.362" height="1.406"/>
			</g>
		</g>
		<g>
			<g>
				<rect x="313.927" y="71.308" class="st2" width="2.362" height="1.375"/>
				<rect x="309.689" y="71.305" class="st2" width="2.362" height="1.382"/>
				<rect x="305.466" y="71.303" class="st2" width="2.362" height="1.389"/>
			</g>
		</g>
		<g>
			<g>
				<polygon class="st2" points="326.654,71.319 326.654,72.667 329.017,72.663 329.017,71.321 				"/>
				<polygon class="st2" points="322.417,71.315 322.417,72.673 324.779,72.669 324.779,71.317 				"/>
				<rect x="318.193" y="71.311" class="st2" width="2.362" height="1.367"/>
			</g>
		</g>
		<g>
			<g>
				<polygon class="st2" points="339.382,71.33 339.382,72.646 341.744,72.641 341.744,71.333 				"/>
				<polygon class="st2" points="335.145,71.326 335.145,72.653 337.507,72.649 337.507,71.328 				"/>
				<polygon class="st2" points="330.921,71.322 330.921,72.66 333.284,72.657 333.284,71.324 				"/>
			</g>
		</g>
		<g>
			<g>
				<polygon class="st2" points="352.109,71.344 352.109,72.621 354.472,72.616 354.472,71.347 				"/>
				<polygon class="st2" points="347.872,71.339 347.872,72.63 350.235,72.625 350.235,71.342 				"/>
				<polygon class="st2" points="343.649,71.334 343.649,72.638 346.012,72.633 346.012,71.337 				"/>
			</g>
		</g>
		<g>
			<g>
				<polygon class="st2" points="364.837,71.36 364.837,72.591 367.2,72.585 367.2,71.363 				"/>
				<polygon class="st2" points="360.601,71.354 360.601,72.602 362.963,72.596 362.963,71.357 				"/>
				<polygon class="st2" points="356.377,71.349 356.377,72.611 358.739,72.606 358.739,71.352 				"/>
			</g>
		</g>
		<g>
			<g>
				<polygon class="st2" points="377.565,71.378 377.565,72.558 379.928,72.551 379.928,71.382 				"/>
				<polygon class="st2" points="373.328,71.372 373.328,72.57 375.69,72.563 375.69,71.375 				"/>
				<polygon class="st2" points="369.104,71.366 369.104,72.581 371.467,72.575 371.467,71.369 				"/>
			</g>
		</g>
		<g>
			<g>
				<polygon class="st2" points="390.293,71.399 390.293,72.52 392.655,72.513 392.655,71.403 				"/>
				<polygon class="st2" points="386.056,71.392 386.056,72.534 388.418,72.526 388.418,71.396 				"/>
				<polygon class="st2" points="381.832,71.385 381.832,72.546 384.194,72.539 384.194,71.388 				"/>
			</g>
		</g>
		<g>
			<g>
				<polygon class="st2" points="403.021,71.422 403.021,72.478 405.383,72.469 405.383,71.427 				"/>
				<polygon class="st2" points="398.783,71.414 398.783,72.493 401.146,72.484 401.146,71.418 				"/>
				<polygon class="st2" points="394.56,71.406 394.56,72.507 396.923,72.499 396.923,71.411 				"/>
			</g>
		</g>
		<g>
			<g>
				<polygon class="st2" points="415.748,71.448 415.748,72.431 418.11,72.421 418.11,71.453 				"/>
				<polygon class="st2" points="411.511,71.439 411.511,72.447 413.874,72.438 413.874,71.444 				"/>
				<polygon class="st2" points="407.288,71.43 407.288,72.463 409.65,72.454 409.65,71.435 				"/>
			</g>
		</g>
		<g>
			<g>
				<polygon class="st2" points="428.476,71.477 428.476,72.378 430.839,72.368 430.839,71.482 				"/>
				<polygon class="st2" points="424.239,71.467 424.239,72.396 426.602,72.386 426.602,71.472 				"/>
				<polygon class="st2" points="420.016,71.457 420.016,72.414 422.378,72.404 422.378,71.462 				"/>
			</g>
		</g>
		<g>
			<g>
				<polygon class="st2" points="441.204,71.508 441.204,72.32 443.566,72.309 443.566,71.514 				"/>
				<polygon class="st2" points="436.967,71.497 436.967,72.34 439.329,72.329 439.329,71.503 				"/>
				<polygon class="st2" points="432.743,71.487 432.743,72.359 435.105,72.349 435.105,71.493 				"/>
			</g>
		</g>
		<g>
			<g>
				<polygon class="st2" points="453.932,71.543 453.932,72.257 456.294,72.244 456.294,71.55 				"/>
				<polygon class="st2" points="449.694,71.531 449.694,72.278 452.057,72.267 452.057,71.538 				"/>
				<polygon class="st2" points="445.471,71.52 445.471,72.3 447.833,72.288 447.833,71.526 				"/>
			</g>
		</g>
		<g>
			<g>
				<polygon class="st2" points="466.659,71.581 466.659,72.187 469.021,72.173 469.021,71.588 				"/>
				<polygon class="st2" points="462.422,71.568 462.422,72.211 464.784,72.198 464.784,71.575 				"/>
				<polygon class="st2" points="458.198,71.555 458.198,72.234 460.562,72.221 460.562,71.562 				"/>
			</g>
		</g>
		<g>
			<g>
				<polygon class="st2" points="479.387,71.623 479.387,72.11 481.749,72.095 481.749,71.631 				"/>
				<polygon class="st2" points="475.149,71.608 475.149,72.137 477.513,72.122 477.513,71.617 				"/>
				<polygon class="st2" points="470.927,71.595 470.927,72.162 473.289,72.148 473.289,71.603 				"/>
			</g>
		</g>
		<g>
			<g>
				<polygon class="st2" points="492.114,71.669 492.114,72.026 494.478,72.01 494.478,71.678 				"/>
				<polygon class="st2" points="487.878,71.653 487.878,72.055 490.24,72.039 490.24,71.662 				"/>
				<polygon class="st2" points="483.654,71.638 483.654,72.083 486.017,72.067 486.017,71.646 				"/>
			</g>
		</g>
		<g>
			<g>
				<polygon class="st2" points="504.843,71.72 504.843,71.933 507.205,71.914 507.205,71.731 				"/>
				<polygon class="st2" points="500.605,71.703 500.605,71.965 502.968,71.947 502.968,71.712 				"/>
				<polygon class="st2" points="496.382,71.686 496.382,71.996 498.744,71.979 498.744,71.695 				"/>
			</g>
		</g>
		<g>
			<g>
				<polygon class="st2" points="517.57,71.778 517.57,71.826 519.933,71.805 519.933,71.791 				"/>
				<polygon class="st2" points="513.333,71.758 513.333,71.863 515.695,71.843 515.695,71.77 				"/>
				<polygon class="st2" points="509.109,71.739 509.109,71.898 511.472,71.879 511.472,71.75 				"/>
			</g>
		</g>
	</g>
</g>
<g class="st1">
	<g>
		<g>
			<g>
				<polygon class="st2" points="71.783,9.085 71.602,9.085 71.575,11.622 71.798,11.622 				"/>
				<polygon class="st2" points="71.756,4.535 71.652,4.535 71.624,7.072 71.771,7.072 				"/>
				<polygon class="st2" points="71.727,0 71.706,0 71.675,2.537 71.743,2.537 				"/>
			</g>
		</g>
		<g>
			<g>
				<polygon class="st2" points="71.858,22.752 71.466,22.752 71.443,25.289 71.871,25.289 				"/>
				<polygon class="st2" points="71.834,18.202 71.509,18.202 71.485,20.739 71.848,20.739 				"/>
				<polygon class="st2" points="71.81,13.667 71.554,13.667 71.528,16.204 71.824,16.204 				"/>
			</g>
		</g>
		<g>
			<g>
				<polygon class="st2" points="71.922,36.419 71.348,36.419 71.328,38.956 71.934,38.956 				"/>
				<polygon class="st2" points="71.902,31.869 71.386,31.869 71.364,34.406 71.914,34.406 				"/>
				<polygon class="st2" points="71.88,27.334 71.425,27.334 71.402,29.871 71.893,29.871 				"/>
			</g>
		</g>
		<g>
			<g>
				<polygon class="st2" points="71.979,50.086 71.244,50.086 71.226,52.623 71.989,52.623 				"/>
				<polygon class="st2" points="71.961,45.536 71.277,45.536 71.258,48.073 71.972,48.073 				"/>
				<polygon class="st2" points="71.942,41.001 71.312,41.001 71.292,43.538 71.953,43.538 				"/>
			</g>
		</g>
		<g>
			<g>
				<polygon class="st2" points="72.03,63.753 71.151,63.753 71.135,66.29 72.039,66.29 				"/>
				<polygon class="st2" points="72.014,59.203 71.181,59.203 71.164,61.74 72.023,61.74 				"/>
				<polygon class="st2" points="71.997,54.668 71.211,54.668 71.194,57.205 72.006,57.205 				"/>
			</g>
		</g>
		<g>
			<g>
				<polygon class="st2" points="72.075,77.42 71.07,77.42 71.056,79.957 72.082,79.957 				"/>
				<polygon class="st2" points="72.061,72.87 71.096,72.87 71.081,75.407 72.068,75.407 				"/>
				<polygon class="st2" points="72.046,68.335 71.123,68.335 71.108,70.872 72.054,70.872 				"/>
			</g>
		</g>
		<g>
			<g>
				<polygon class="st2" points="72.114,91.087 70.998,91.087 70.986,93.624 72.121,93.624 				"/>
				<polygon class="st2" points="72.101,86.537 71.021,86.537 71.008,89.074 72.108,89.074 				"/>
				<polygon class="st2" points="72.088,82.002 71.045,82.002 71.031,84.539 72.096,84.539 				"/>
			</g>
		</g>
		<g>
			<g>
				<polygon class="st2" points="72.148,104.754 70.936,104.754 70.925,107.291 72.154,107.291 				"/>
				<polygon class="st2" points="72.137,100.204 70.956,100.204 70.944,102.741 72.143,102.741 				"/>
				<polygon class="st2" points="72.125,95.669 70.977,95.669 70.965,98.206 72.132,98.206 				"/>
			</g>
		</g>
		<g>
			<g>
				<polygon class="st2" points="72.177,118.421 70.882,118.421 70.873,120.958 72.182,120.958 				"/>
				<polygon class="st2" points="72.168,113.871 70.899,113.871 70.89,116.408 72.173,116.408 				"/>
				<polygon class="st2" points="72.158,109.336 70.917,109.336 70.907,111.873 72.164,111.873 				"/>
			</g>
		</g>
		<g>
			<g>
				<polygon class="st2" points="72.202,132.088 70.837,132.088 70.83,134.625 72.206,134.625 				"/>
				<polygon class="st2" points="72.194,127.538 70.851,127.538 70.843,130.075 72.199,130.075 				"/>
				<polygon class="st2" points="72.186,123.003 70.866,123.003 70.858,125.54 72.19,125.54 				"/>
			</g>
		</g>
		<g>
			<g>
				<polygon class="st2" points="72.223,145.755 70.8,145.755 70.793,148.292 72.226,148.292 				"/>
				<polygon class="st2" points="72.216,141.205 70.811,141.205 70.805,143.742 72.22,143.742 				"/>
				<polygon class="st2" points="72.209,136.67 70.824,136.67 70.816,139.207 72.213,139.207 				"/>
			</g>
		</g>
		<g>
			<g>
				<polygon class="st2" points="72.239,159.422 70.77,159.422 70.765,161.958 72.242,161.958 				"/>
				<polygon class="st2" points="72.234,154.872 70.779,154.872 70.774,157.409 72.237,157.409 				"/>
				<polygon class="st2" points="72.229,150.337 70.789,150.337 70.783,152.874 72.231,152.874 				"/>
			</g>
		</g>
		<g>
			<g>
				<polygon class="st2" points="72.251,173.089 70.747,173.089 70.744,175.625 72.253,175.625 				"/>
				<polygon class="st2" points="72.248,168.539 70.754,168.539 70.75,171.076 72.25,171.076 				"/>
				<polygon class="st2" points="72.244,164.004 70.761,164.004 70.757,166.541 72.246,166.541 				"/>
			</g>
		</g>
		<g>
			<g>
				<rect x="70.73" y="186.756" class="st2" width="1.529" height="2.537"/>
				<rect x="70.735" y="182.206" class="st2" width="1.521" height="2.537"/>
				<rect x="70.74" y="177.671" class="st2" width="1.513" height="2.537"/>
			</g>
		</g>
		<g>
			<g>
				<rect x="70.722" y="200.423" class="st2" width="1.542" height="2.537"/>
				<rect x="70.724" y="195.873" class="st2" width="1.538" height="2.537"/>
				<rect x="70.727" y="191.338" class="st2" width="1.534" height="2.537"/>
			</g>
		</g>
		<g>
			<g>
				<rect x="70.721" y="214.09" class="st2" width="1.545" height="2.537"/>
				<rect x="70.72" y="209.54" class="st2" width="1.545" height="2.537"/>
				<rect x="70.721" y="205.005" class="st2" width="1.543" height="2.537"/>
			</g>
		</g>
		<g>
			<g>
				<rect x="70.726" y="227.757" class="st2" width="1.538" height="2.537"/>
				<rect x="70.723" y="223.207" class="st2" width="1.542" height="2.537"/>
				<rect x="70.722" y="218.672" class="st2" width="1.543" height="2.537"/>
			</g>
		</g>
		<g>
			<g>
				<rect x="70.738" y="241.423" class="st2" width="1.52" height="2.537"/>
				<rect x="70.733" y="236.874" class="st2" width="1.528" height="2.537"/>
				<rect x="70.729" y="232.339" class="st2" width="1.533" height="2.537"/>
			</g>
		</g>
		<g>
			<g>
				<polygon class="st2" points="72.247,255.09 70.755,255.09 70.759,257.627 72.245,257.627 				"/>
				<polygon class="st2" points="72.25,250.541 70.748,250.541 70.752,253.078 72.249,253.078 				"/>
				<rect x="70.744" y="246.005" class="st2" width="1.512" height="2.537"/>
			</g>
		</g>
		<g>
			<g>
				<polygon class="st2" points="72.233,268.757 70.781,268.757 70.786,271.294 72.23,271.294 				"/>
				<polygon class="st2" points="72.238,264.208 70.772,264.208 70.777,266.745 72.235,266.745 				"/>
				<polygon class="st2" points="72.243,259.672 70.763,259.672 70.768,262.209 72.24,262.209 				"/>
			</g>
		</g>
		<g>
			<g>
				<polygon class="st2" points="72.215,282.424 70.814,282.424 70.821,284.961 72.21,284.961 				"/>
				<polygon class="st2" points="72.221,277.875 70.802,277.875 70.809,280.412 72.218,280.412 				"/>
				<polygon class="st2" points="72.227,273.339 70.791,273.339 70.797,275.876 72.224,275.876 				"/>
			</g>
		</g>
		<g>
			<g>
				<polygon class="st2" points="72.192,296.091 70.855,296.091 70.864,298.628 72.188,298.628 				"/>
				<polygon class="st2" points="72.2,291.542 70.84,291.542 70.849,294.079 72.196,294.079 				"/>
				<polygon class="st2" points="72.208,287.006 70.827,287.006 70.834,289.543 72.203,289.543 				"/>
			</g>
		</g>
		<g>
			<g>
				<polygon class="st2" points="72.165,309.758 70.904,309.758 70.914,312.295 72.16,312.295 				"/>
				<polygon class="st2" points="72.175,305.208 70.887,305.208 70.896,307.746 72.169,307.746 				"/>
				<polygon class="st2" points="72.184,300.673 70.871,300.673 70.879,303.21 72.179,303.21 				"/>
			</g>
		</g>
		<g>
			<g>
				<polygon class="st2" points="72.134,323.425 70.962,323.425 70.974,325.962 72.127,325.962 				"/>
				<polygon class="st2" points="72.145,318.875 70.942,318.875 70.953,321.413 72.139,321.413 				"/>
				<polygon class="st2" points="72.155,314.34 70.923,314.34 70.934,316.877 72.149,316.877 				"/>
			</g>
		</g>
		<g>
			<g>
				<polygon class="st2" points="72.097,337.092 71.029,337.092 71.042,339.629 72.09,339.629 				"/>
				<polygon class="st2" points="72.11,332.542 71.005,332.542 71.019,335.08 72.103,335.08 				"/>
				<polygon class="st2" points="72.122,328.007 70.983,328.007 70.995,330.544 72.115,330.544 				"/>
			</g>
		</g>
		<g>
			<g>
				<polygon class="st2" points="72.055,350.759 71.105,350.759 71.12,353.296 72.047,353.296 				"/>
				<polygon class="st2" points="72.07,346.209 71.078,346.209 71.093,348.747 72.062,348.747 				"/>
				<polygon class="st2" points="72.083,341.674 71.053,341.674 71.067,344.211 72.076,344.211 				"/>
			</g>
		</g>
		<g>
			<g>
				<polygon class="st2" points="72.008,364.426 71.192,364.426 71.209,366.963 71.999,366.963 				"/>
				<polygon class="st2" points="72.024,359.876 71.162,359.876 71.178,362.414 72.015,362.414 				"/>
				<polygon class="st2" points="72.04,355.341 71.133,355.341 71.149,357.878 72.031,357.878 				"/>
			</g>
		</g>
		<g>
			<g>
				<polygon class="st2" points="71.954,378.093 71.29,378.093 71.31,380.63 71.943,380.63 				"/>
				<polygon class="st2" points="71.973,373.543 71.256,373.543 71.274,376.081 71.962,376.081 				"/>
				<polygon class="st2" points="71.991,369.008 71.223,369.008 71.242,371.545 71.98,371.545 				"/>
			</g>
		</g>
		<g>
			<g>
				<polygon class="st2" points="71.894,391.76 71.401,391.76 71.423,394.297 71.881,394.297 				"/>
				<polygon class="st2" points="71.915,387.21 71.362,387.21 71.384,389.748 71.903,389.748 				"/>
				<polygon class="st2" points="71.935,382.675 71.326,382.675 71.346,385.212 71.923,385.212 				"/>
			</g>
		</g>
		<g>
			<g>
				<polygon class="st2" points="71.824,405.427 71.527,405.427 71.553,407.964 71.81,407.964 				"/>
				<polygon class="st2" points="71.848,400.877 71.483,400.877 71.508,403.415 71.835,403.415 				"/>
				<polygon class="st2" points="71.871,396.342 71.441,396.342 71.465,398.879 71.858,398.879 				"/>
			</g>
		</g>
		<g>
			<g>
				<polygon class="st2" points="71.743,419.094 71.675,419.094 71.706,421.631 71.727,421.631 				"/>
				<polygon class="st2" points="71.772,414.544 71.623,414.544 71.652,417.082 71.756,417.082 				"/>
				<polygon class="st2" points="71.798,410.009 71.575,410.009 71.602,412.546 71.784,412.546 				"/>
			</g>
		</g>
	</g>
</g>
<g class="st1">
	<g>
		<g>
			<g>
				<polygon class="st2" points="450.338,20.91 449.779,20.91 449.701,25.494 450.381,25.494 				"/>
				<polygon class="st2" points="450.255,12.689 449.931,12.689 449.845,17.273 450.303,17.273 				"/>
				<polygon class="st2" points="450.164,4.496 450.099,4.496 450.002,9.079 450.217,9.079 				"/>
			</g>
		</g>
		<g>
			<g>
				<polygon class="st2" points="450.548,45.604 449.396,45.604 449.333,50.187 450.583,50.187 				"/>
				<polygon class="st2" points="450.483,37.383 449.514,37.383 449.446,41.966 450.521,41.966 				"/>
				<polygon class="st2" points="450.414,29.189 449.641,29.189 449.568,33.772 450.454,33.772 				"/>
			</g>
		</g>
		<g>
			<g>
				<polygon class="st2" points="450.716,70.297 449.089,70.297 449.04,74.88 450.743,74.88 				"/>
				<polygon class="st2" points="450.664,62.076 449.184,62.076 449.131,66.66 450.693,66.66 				"/>
				<polygon class="st2" points="450.608,53.882 449.285,53.882 449.228,58.466 450.641,58.466 				"/>
			</g>
		</g>
		<g>
			<g>
				<polygon class="st2" points="450.85,94.991 448.846,94.991 448.808,99.574 450.87,99.574 				"/>
				<polygon class="st2" points="450.809,86.77 448.921,86.77 448.879,91.353 450.831,91.353 				"/>
				<polygon class="st2" points="450.765,78.576 449.001,78.576 448.956,83.159 450.789,83.159 				"/>
			</g>
		</g>
		<g>
			<g>
				<polygon class="st2" points="450.952,119.684 448.658,119.684 448.628,124.268 450.968,124.268 				"/>
				<polygon class="st2" points="450.921,111.463 448.715,111.463 448.683,116.047 450.938,116.047 				"/>
				<polygon class="st2" points="450.887,103.27 448.777,103.27 448.742,107.853 450.906,107.853 				"/>
			</g>
		</g>
		<g>
			<g>
				<polygon class="st2" points="451.028,144.377 448.519,144.377 448.498,148.961 451.039,148.961 				"/>
				<polygon class="st2" points="451.006,136.157 448.56,136.157 448.536,140.74 451.019,140.74 				"/>
				<polygon class="st2" points="450.98,127.963 448.606,127.963 448.579,132.546 450.995,132.546 				"/>
			</g>
		</g>
		<g>
			<g>
				<polygon class="st2" points="451.079,169.071 448.425,169.071 448.412,173.654 451.087,173.654 				"/>
				<polygon class="st2" points="451.065,160.85 448.451,160.85 448.436,165.434 451.074,165.434 				"/>
				<polygon class="st2" points="451.048,152.656 448.481,152.656 448.465,157.24 451.058,157.24 				"/>
			</g>
		</g>
		<g>
			<g>
				<polygon class="st2" points="451.107,193.764 448.374,193.764 448.368,198.348 451.11,198.348 				"/>
				<polygon class="st2" points="451.101,185.543 448.386,185.543 448.378,190.127 451.105,190.127 				"/>
				<polygon class="st2" points="451.092,177.35 448.402,177.35 448.394,181.933 451.097,181.933 				"/>
			</g>
		</g>
		<g>
			<g>
				<rect x="448.363" y="218.458" class="st2" width="2.751" height="4.583"/>
				<rect x="448.361" y="210.237" class="st2" width="2.753" height="4.583"/>
				<rect x="448.364" y="202.043" class="st2" width="2.747" height="4.583"/>
			</g>
		</g>
		<g>
			<g>
				<polygon class="st2" points="451.098,243.151 448.391,243.151 448.4,247.735 451.093,247.735 				"/>
				<polygon class="st2" points="451.105,234.931 448.377,234.931 448.384,239.514 451.103,239.514 				"/>
				<polygon class="st2" points="451.111,226.737 448.366,226.737 448.372,231.32 451.108,231.32 				"/>
			</g>
		</g>
		<g>
			<g>
				<polygon class="st2" points="451.06,267.845 448.461,267.845 448.478,272.428 451.051,272.428 				"/>
				<polygon class="st2" points="451.075,259.625 448.433,259.625 448.448,264.208 451.067,264.208 				"/>
				<polygon class="st2" points="451.088,251.43 448.409,251.43 448.422,256.014 451.081,256.014 				"/>
			</g>
		</g>
		<g>
			<g>
				<polygon class="st2" points="450.997,292.539 448.574,292.539 448.602,297.122 450.982,297.122 				"/>
				<polygon class="st2" points="451.021,284.318 448.531,284.318 448.556,288.901 451.008,288.901 				"/>
				<polygon class="st2" points="451.042,276.124 448.494,276.124 448.515,280.708 451.03,280.708 				"/>
			</g>
		</g>
		<g>
			<g>
				<polygon class="st2" points="450.908,317.232 448.737,317.232 448.772,321.815 450.89,321.815 				"/>
				<polygon class="st2" points="450.941,309.011 448.678,309.011 448.71,313.594 450.924,313.594 				"/>
				<polygon class="st2" points="450.971,300.817 448.624,300.817 448.653,305.401 450.954,305.401 				"/>
			</g>
		</g>
		<g>
			<g>
				<polygon class="st2" points="450.792,341.925 448.951,341.925 448.997,346.508 450.767,346.508 				"/>
				<polygon class="st2" points="450.834,333.705 448.874,333.705 448.916,338.288 450.811,338.288 				"/>
				<polygon class="st2" points="450.873,325.51 448.803,325.51 448.841,330.094 450.852,330.094 				"/>
			</g>
		</g>
		<g>
			<g>
				<polygon class="st2" points="450.643,366.619 449.224,366.619 449.281,371.203 450.61,371.203 				"/>
				<polygon class="st2" points="450.696,358.398 449.126,358.398 449.18,362.982 450.667,362.982 				"/>
				<polygon class="st2" points="450.745,350.205 449.036,350.205 449.085,354.788 450.719,354.788 				"/>
			</g>
		</g>
		<g>
			<g>
				<polygon class="st2" points="450.455,391.312 449.565,391.312 449.639,395.896 450.415,395.896 				"/>
				<polygon class="st2" points="450.522,383.091 449.443,383.091 449.511,387.675 450.485,387.675 				"/>
				<polygon class="st2" points="450.584,374.898 449.33,374.898 449.393,379.481 450.55,379.481 				"/>
			</g>
		</g>
		<g>
			<g>
				<polygon class="st2" points="450.217,416.005 450.002,416.005 450.1,420.589 450.163,420.589 				"/>
				<polygon class="st2" points="450.304,407.785 449.843,407.785 449.931,412.369 450.256,412.369 				"/>
				<polygon class="st2" points="450.382,399.591 449.699,399.591 449.778,404.174 450.339,404.174 				"/>
			</g>
		</g>
	</g>
</g>
<g class="st1">
	<g>
		<g>
			<g>
				<polygon class="st2" points="476.277,12.262 476.111,12.262 476.086,14.699 476.291,14.699 				"/>
				<polygon class="st2" points="476.253,7.892 476.157,7.892 476.131,10.329 476.267,10.329 				"/>
				<polygon class="st2" points="476.226,3.535 476.207,3.535 476.178,5.972 476.241,5.972 				"/>
			</g>
		</g>
		<g>
			<g>
				<polygon class="st2" points="476.347,25.391 475.985,25.391 475.964,27.828 476.358,27.828 				"/>
				<polygon class="st2" points="476.324,21.02 476.025,21.02 476.003,23.457 476.337,23.457 				"/>
				<polygon class="st2" points="476.302,16.664 476.066,16.664 476.043,19.101 476.314,19.101 				"/>
			</g>
		</g>
		<g>
			<g>
				<polygon class="st2" points="476.406,38.519 475.876,38.519 475.857,40.956 476.417,40.956 				"/>
				<polygon class="st2" points="476.387,34.148 475.911,34.148 475.892,36.585 476.397,36.585 				"/>
				<polygon class="st2" points="476.367,29.792 475.947,29.792 475.927,32.229 476.379,32.229 				"/>
			</g>
		</g>
		<g>
			<g>
				<polygon class="st2" points="476.459,51.647 475.779,51.647 475.763,54.084 476.469,54.084 				"/>
				<polygon class="st2" points="476.442,47.277 475.811,47.277 475.793,49.714 476.452,49.714 				"/>
				<polygon class="st2" points="476.425,42.92 475.843,42.92 475.824,45.357 476.435,45.357 				"/>
			</g>
		</g>
		<g>
			<g>
				<polygon class="st2" points="476.506,64.776 475.693,64.776 475.679,67.212 476.515,67.212 				"/>
				<polygon class="st2" points="476.491,60.405 475.721,60.405 475.705,62.842 476.5,62.842 				"/>
				<polygon class="st2" points="476.476,56.049 475.749,56.049 475.733,58.486 476.484,58.486 				"/>
			</g>
		</g>
		<g>
			<g>
				<polygon class="st2" points="476.548,77.904 475.617,77.904 475.604,80.341 476.556,80.341 				"/>
				<polygon class="st2" points="476.534,73.534 475.642,73.534 475.628,75.971 476.542,75.971 				"/>
				<polygon class="st2" points="476.521,69.177 475.667,69.177 475.652,71.614 476.528,71.614 				"/>
			</g>
		</g>
		<g>
			<g>
				<polygon class="st2" points="476.585,91.033 475.55,91.033 475.538,93.469 476.591,93.469 				"/>
				<polygon class="st2" points="476.573,86.662 475.571,86.662 475.56,89.099 476.58,89.099 				"/>
				<polygon class="st2" points="476.561,82.306 475.594,82.306 475.581,84.743 476.567,84.743 				"/>
			</g>
		</g>
		<g>
			<g>
				<polygon class="st2" points="476.617,104.161 475.49,104.161 475.48,106.598 476.623,106.598 				"/>
				<polygon class="st2" points="476.606,99.791 475.51,99.791 475.499,102.228 476.612,102.228 				"/>
				<polygon class="st2" points="476.597,95.434 475.528,95.434 475.519,97.871 476.603,97.871 				"/>
			</g>
		</g>
		<g>
			<g>
				<polygon class="st2" points="476.646,117.29 475.439,117.29 475.431,119.726 476.649,119.726 				"/>
				<polygon class="st2" points="476.637,112.919 475.455,112.919 475.446,115.356 476.642,115.356 				"/>
				<polygon class="st2" points="476.627,108.562 475.473,108.562 475.463,111 476.632,111 				"/>
			</g>
		</g>
		<g>
			<g>
				<polygon class="st2" points="476.669,130.418 475.396,130.418 475.388,132.855 476.673,132.855 				"/>
				<polygon class="st2" points="476.661,126.047 475.409,126.047 475.402,128.484 476.666,128.484 				"/>
				<polygon class="st2" points="476.653,121.691 475.424,121.691 475.416,124.128 476.658,124.128 				"/>
			</g>
		</g>
		<g>
			<g>
				<polygon class="st2" points="476.689,143.546 475.358,143.546 475.354,145.983 476.692,145.983 				"/>
				<polygon class="st2" points="476.683,139.176 475.371,139.176 475.364,141.613 476.687,141.613 				"/>
				<polygon class="st2" points="476.677,134.819 475.383,134.819 475.376,137.256 476.68,137.256 				"/>
			</g>
		</g>
		<g>
			<g>
				<polygon class="st2" points="476.705,156.675 475.329,156.675 475.324,159.112 476.708,159.112 				"/>
				<polygon class="st2" points="476.7,152.304 475.338,152.304 475.333,154.741 476.703,154.741 				"/>
				<polygon class="st2" points="476.695,147.948 475.349,147.948 475.343,150.385 476.698,150.385 				"/>
			</g>
		</g>
		<g>
			<g>
				<polygon class="st2" points="476.718,169.803 475.307,169.803 475.303,172.24 476.72,172.24 				"/>
				<rect x="475.311" y="165.433" class="st2" width="1.402" height="2.437"/>
				<polygon class="st2" points="476.71,161.076 475.321,161.076 475.316,163.513 476.713,163.513 				"/>
			</g>
		</g>
		<g>
			<g>
				<rect x="475.288" y="182.932" class="st2" width="1.438" height="2.437"/>
				<rect x="475.292" y="178.561" class="st2" width="1.431" height="2.437"/>
				<polygon class="st2" points="476.722,174.205 475.3,174.205 475.296,176.642 476.724,176.642 				"/>
			</g>
		</g>
		<g>
			<g>
				<rect x="475.278" y="196.06" class="st2" width="1.455" height="2.437"/>
				<rect x="475.281" y="191.689" class="st2" width="1.45" height="2.437"/>
				<rect x="475.283" y="187.333" class="st2" width="1.445" height="2.437"/>
			</g>
		</g>
		<g>
			<g>
				<rect x="475.273" y="209.188" class="st2" width="1.462" height="2.437"/>
				<rect x="475.274" y="204.818" class="st2" width="1.461" height="2.437"/>
				<rect x="475.275" y="200.461" class="st2" width="1.459" height="2.437"/>
			</g>
		</g>
		<g>
			<g>
				<rect x="475.275" y="222.317" class="st2" width="1.461" height="2.437"/>
				<rect x="475.274" y="217.946" class="st2" width="1.461" height="2.437"/>
				<rect x="475.273" y="213.59" class="st2" width="1.463" height="2.437"/>
			</g>
		</g>
		<g>
			<g>
				<rect x="475.283" y="235.445" class="st2" width="1.449" height="2.437"/>
				<rect x="475.28" y="231.075" class="st2" width="1.454" height="2.437"/>
				<rect x="475.277" y="226.718" class="st2" width="1.458" height="2.437"/>
			</g>
		</g>
		<g>
			<g>
				<rect x="475.296" y="248.574" class="st2" width="1.43" height="2.437"/>
				<rect x="475.292" y="244.203" class="st2" width="1.437" height="2.438"/>
				<rect x="475.287" y="239.847" class="st2" width="1.444" height="2.437"/>
			</g>
		</g>
		<g>
			<g>
				<polygon class="st2" points="476.714,261.702 475.314,261.702 475.319,264.139 476.711,264.139 				"/>
				<polygon class="st2" points="476.718,257.332 475.308,257.332 475.312,259.768 476.716,259.768 				"/>
				<polygon class="st2" points="476.721,252.975 475.301,252.975 475.305,255.412 476.719,255.412 				"/>
			</g>
		</g>
		<g>
			<g>
				<polygon class="st2" points="476.699,274.831 475.341,274.831 475.347,277.267 476.696,277.267 				"/>
				<polygon class="st2" points="476.704,270.459 475.331,270.459 475.336,272.897 476.702,272.897 				"/>
				<polygon class="st2" points="476.709,266.104 475.323,266.104 475.327,268.541 476.706,268.541 				"/>
			</g>
		</g>
		<g>
			<g>
				<polygon class="st2" points="476.682,287.958 475.374,287.958 475.381,290.396 476.678,290.396 				"/>
				<polygon class="st2" points="476.688,283.588 475.361,283.588 475.368,286.025 476.685,286.025 				"/>
				<polygon class="st2" points="476.693,279.232 475.351,279.232 475.356,281.668 476.69,281.668 				"/>
			</g>
		</g>
		<g>
			<g>
				<polygon class="st2" points="476.659,301.087 475.413,301.087 475.421,303.524 476.655,303.524 				"/>
				<polygon class="st2" points="476.667,296.716 475.399,296.716 475.407,299.154 476.663,299.154 				"/>
				<polygon class="st2" points="476.675,292.361 475.386,292.361 475.394,294.797 476.671,294.797 				"/>
			</g>
		</g>
		<g>
			<g>
				<polygon class="st2" points="476.634,314.215 475.46,314.215 475.47,316.653 476.628,316.653 				"/>
				<polygon class="st2" points="476.643,309.845 475.444,309.845 475.453,312.282 476.638,312.282 				"/>
				<polygon class="st2" points="476.651,305.489 475.429,305.489 475.438,307.925 476.646,307.925 				"/>
			</g>
		</g>
		<g>
			<g>
				<polygon class="st2" points="476.604,327.344 475.516,327.344 475.526,329.781 476.598,329.781 				"/>
				<polygon class="st2" points="476.614,322.973 475.496,322.973 475.507,325.411 476.608,325.411 				"/>
				<polygon class="st2" points="476.624,318.618 475.479,318.618 475.488,321.054 476.618,321.054 				"/>
			</g>
		</g>
		<g>
			<g>
				<polygon class="st2" points="476.569,340.472 475.578,340.472 475.591,342.91 476.562,342.91 				"/>
				<polygon class="st2" points="476.581,336.102 475.557,336.102 475.568,338.539 476.574,338.539 				"/>
				<polygon class="st2" points="476.593,331.746 475.535,331.746 475.547,334.182 476.586,334.182 				"/>
			</g>
		</g>
		<g>
			<g>
				<polygon class="st2" points="476.53,353.601 475.65,353.601 475.664,356.038 476.522,356.038 				"/>
				<polygon class="st2" points="476.544,349.23 475.625,349.23 475.639,351.667 476.536,351.667 				"/>
				<polygon class="st2" points="476.557,344.875 475.602,344.875 475.614,347.311 476.55,347.311 				"/>
			</g>
		</g>
		<g>
			<g>
				<polygon class="st2" points="476.485,366.729 475.731,366.729 475.747,369.167 476.477,369.167 				"/>
				<polygon class="st2" points="476.501,362.359 475.703,362.359 475.719,364.795 476.492,364.795 				"/>
				<polygon class="st2" points="476.516,358.002 475.676,358.002 475.691,360.439 476.508,360.439 				"/>
			</g>
		</g>
		<g>
			<g>
				<polygon class="st2" points="476.436,379.858 475.822,379.858 475.841,382.294 476.426,382.294 				"/>
				<polygon class="st2" points="476.453,375.487 475.791,375.487 475.809,377.924 476.443,377.924 				"/>
				<polygon class="st2" points="476.47,371.131 475.761,371.131 475.777,373.568 476.46,373.568 				"/>
			</g>
		</g>
		<g>
			<g>
				<polygon class="st2" points="476.379,392.986 475.926,392.986 475.946,395.423 476.368,395.423 				"/>
				<polygon class="st2" points="476.398,388.616 475.89,388.616 475.909,391.052 476.388,391.052 				"/>
				<polygon class="st2" points="476.417,384.259 475.855,384.259 475.874,386.696 476.407,386.696 				"/>
			</g>
		</g>
		<g>
			<g>
				<polygon class="st2" points="476.315,406.115 476.042,406.115 476.065,408.551 476.303,408.551 				"/>
				<polygon class="st2" points="476.338,401.744 476.002,401.744 476.024,404.181 476.325,404.181 				"/>
				<polygon class="st2" points="476.358,397.388 475.963,397.388 475.984,399.825 476.347,399.825 				"/>
			</g>
		</g>
		<g>
			<g>
				<polygon class="st2" points="476.241,419.243 476.179,419.243 476.207,421.68 476.226,421.68 				"/>
				<polygon class="st2" points="476.268,414.873 476.13,414.873 476.157,417.309 476.253,417.309 				"/>
				<polygon class="st2" points="476.292,410.516 476.086,410.516 476.11,412.953 476.278,412.953 				"/>
			</g>
		</g>
	</g>
</g>
<g class="st1">
	<g>
		<g>
			<g>
				<polygon class="st2" points="9.022,354.104 9.022,354.245 11.507,354.265 11.507,354.093 				"/>
				<polygon class="st2" points="4.566,354.125 4.566,354.206 7.05,354.227 7.05,354.114 				"/>
				<polygon class="st2" points="0.124,354.148 0.124,354.164 2.608,354.187 2.608,354.135 				"/>
			</g>
		</g>
		<g>
			<g>
				<polygon class="st2" points="22.409,354.045 22.409,354.351 24.894,354.37 24.894,354.036 				"/>
				<polygon class="st2" points="17.953,354.064 17.953,354.317 20.437,354.336 20.437,354.054 				"/>
				<polygon class="st2" points="13.51,354.083 13.51,354.282 15.995,354.302 15.995,354.073 				"/>
			</g>
		</g>
		<g>
			<g>
				<polygon class="st2" points="35.796,353.994 35.796,354.447 38.281,354.462 38.281,353.985 				"/>
				<polygon class="st2" points="31.339,354.01 31.339,354.416 33.824,354.433 33.824,354.001 				"/>
				<polygon class="st2" points="26.897,354.028 26.897,354.384 29.382,354.402 29.382,354.018 				"/>
			</g>
		</g>
		<g>
			<g>
				<polygon class="st2" points="49.183,353.947 49.183,354.532 51.667,354.547 51.667,353.939 				"/>
				<polygon class="st2" points="44.726,353.962 44.726,354.504 47.211,354.52 47.211,353.954 				"/>
				<polygon class="st2" points="40.284,353.978 40.284,354.476 42.769,354.492 42.769,353.968 				"/>
			</g>
		</g>
		<g>
			<g>
				<polygon class="st2" points="62.569,353.904 62.569,354.61 65.054,354.624 65.054,353.897 				"/>
				<polygon class="st2" points="58.113,353.917 58.113,354.585 60.598,354.599 60.598,353.911 				"/>
				<polygon class="st2" points="53.671,353.932 53.671,354.559 56.155,354.574 56.155,353.924 				"/>
			</g>
		</g>
		<g>
			<g>
				<polygon class="st2" points="75.956,353.866 75.956,354.68 78.441,354.693 78.441,353.859 				"/>
				<polygon class="st2" points="71.5,353.878 71.5,354.658 73.984,354.67 73.984,353.871 				"/>
				<polygon class="st2" points="67.058,353.891 67.058,354.634 69.542,354.647 69.542,353.883 				"/>
			</g>
		</g>
		<g>
			<g>
				<polygon class="st2" points="89.343,353.831 89.343,354.745 91.828,354.755 91.828,353.825 				"/>
				<polygon class="st2" points="84.886,353.842 84.886,354.724 87.371,354.735 87.371,353.835 				"/>
				<polygon class="st2" points="80.444,353.854 80.444,354.703 82.929,354.714 82.929,353.847 				"/>
			</g>
		</g>
		<g>
			<g>
				<polygon class="st2" points="102.729,353.799 102.729,354.802 105.214,354.812 105.214,353.793 				"/>
				<polygon class="st2" points="98.273,353.809 98.273,354.784 100.758,354.794 100.758,353.803 				"/>
				<polygon class="st2" points="93.831,353.82 93.831,354.764 96.315,354.775 96.315,353.814 				"/>
			</g>
		</g>
		<g>
			<g>
				<polygon class="st2" points="116.116,353.771 116.116,354.854 118.601,354.863 118.601,353.766 				"/>
				<polygon class="st2" points="111.66,353.78 111.66,354.837 114.145,354.847 114.145,353.775 				"/>
				<polygon class="st2" points="107.218,353.79 107.218,354.82 109.702,354.83 109.702,353.784 				"/>
			</g>
		</g>
		<g>
			<g>
				<polygon class="st2" points="129.503,353.746 129.503,354.901 131.988,354.909 131.988,353.741 				"/>
				<polygon class="st2" points="125.046,353.753 125.046,354.886 127.531,354.894 127.531,353.749 				"/>
				<polygon class="st2" points="120.604,353.762 120.604,354.871 123.089,354.879 123.089,353.757 				"/>
			</g>
		</g>
		<g>
			<g>
				<polygon class="st2" points="142.89,353.722 142.89,354.942 145.375,354.949 145.375,353.718 				"/>
				<polygon class="st2" points="138.433,353.73 138.433,354.929 140.918,354.936 140.918,353.726 				"/>
				<polygon class="st2" points="133.991,353.737 133.991,354.916 136.476,354.923 136.476,353.733 				"/>
			</g>
		</g>
		<g>
			<g>
				<polygon class="st2" points="156.276,353.703 156.276,354.978 158.761,354.984 158.761,353.7 				"/>
				<polygon class="st2" points="151.82,353.709 151.82,354.966 154.305,354.973 154.305,353.706 				"/>
				<polygon class="st2" points="147.378,353.715 147.378,354.955 149.863,354.961 149.863,353.711 				"/>
			</g>
		</g>
		<g>
			<g>
				<polygon class="st2" points="169.663,353.686 169.663,355.009 172.148,355.015 172.148,353.682 				"/>
				<polygon class="st2" points="165.207,353.691 165.207,355 167.691,355.005 167.691,353.688 				"/>
				<polygon class="st2" points="160.765,353.697 160.765,354.99 163.25,354.995 163.25,353.694 				"/>
			</g>
		</g>
		<g>
			<g>
				<polygon class="st2" points="183.05,353.671 183.05,355.037 185.535,355.041 185.535,353.668 				"/>
				<polygon class="st2" points="178.593,353.675 178.593,355.028 181.078,355.033 181.078,353.673 				"/>
				<polygon class="st2" points="174.151,353.68 174.151,355.019 176.636,355.024 176.636,353.677 				"/>
			</g>
		</g>
		<g>
			<g>
				<polygon class="st2" points="196.437,353.659 196.437,355.058 198.921,355.062 198.921,353.657 				"/>
				<polygon class="st2" points="191.98,353.663 191.98,355.051 194.465,355.055 194.465,353.661 				"/>
				<polygon class="st2" points="187.538,353.667 187.538,355.044 190.023,355.048 190.023,353.665 				"/>
			</g>
		</g>
		<g>
			<g>
				<rect x="209.823" y="353.651" class="st2" width="2.485" height="1.427"/>
				<rect x="205.367" y="353.653" class="st2" width="2.485" height="1.419"/>
				<rect x="200.925" y="353.656" class="st2" width="2.485" height="1.41"/>
			</g>
		</g>
		<g>
			<g>
				<rect x="223.21" y="353.643" class="st2" width="2.485" height="1.447"/>
				<rect x="218.753" y="353.645" class="st2" width="2.485" height="1.441"/>
				<rect x="214.312" y="353.647" class="st2" width="2.485" height="1.436"/>
			</g>
		</g>
		<g>
			<g>
				<rect x="236.597" y="353.637" class="st2" width="2.485" height="1.463"/>
				<rect x="232.14" y="353.639" class="st2" width="2.485" height="1.458"/>
				<rect x="227.698" y="353.641" class="st2" width="2.485" height="1.453"/>
			</g>
		</g>
		<g>
			<g>
				<rect x="249.984" y="353.634" class="st2" width="2.484" height="1.471"/>
				<rect x="245.527" y="353.635" class="st2" width="2.485" height="1.469"/>
				<rect x="241.085" y="353.636" class="st2" width="2.485" height="1.466"/>
			</g>
		</g>
		<g>
			<g>
				<rect x="263.37" y="353.633" class="st2" width="2.485" height="1.473"/>
				<rect x="258.914" y="353.633" class="st2" width="2.484" height="1.473"/>
				<rect x="254.472" y="353.633" class="st2" width="2.485" height="1.472"/>
			</g>
		</g>
		<g>
			<g>
				<rect x="276.757" y="353.634" class="st2" width="2.485" height="1.469"/>
				<rect x="272.301" y="353.634" class="st2" width="2.484" height="1.47"/>
				<rect x="267.858" y="353.633" class="st2" width="2.485" height="1.472"/>
			</g>
		</g>
		<g>
			<g>
				<rect x="290.144" y="353.638" class="st2" width="2.485" height="1.458"/>
				<rect x="285.688" y="353.636" class="st2" width="2.484" height="1.462"/>
				<rect x="281.245" y="353.635" class="st2" width="2.485" height="1.466"/>
			</g>
		</g>
		<g>
			<g>
				<rect x="303.53" y="353.643" class="st2" width="2.485" height="1.441"/>
				<rect x="299.074" y="353.641" class="st2" width="2.484" height="1.447"/>
				<rect x="294.632" y="353.639" class="st2" width="2.485" height="1.453"/>
			</g>
		</g>
		<g>
			<g>
				<rect x="316.917" y="353.651" class="st2" width="2.485" height="1.417"/>
				<rect x="312.461" y="353.648" class="st2" width="2.484" height="1.426"/>
				<rect x="308.019" y="353.646" class="st2" width="2.485" height="1.434"/>
			</g>
		</g>
		<g>
			<g>
				<polygon class="st2" points="330.304,353.664 330.304,355.05 332.789,355.046 332.789,353.666 				"/>
				<polygon class="st2" points="325.848,353.66 325.848,355.057 328.332,355.053 328.332,353.662 				"/>
				<polygon class="st2" points="321.405,353.656 321.405,355.064 323.891,355.06 323.891,353.658 				"/>
			</g>
		</g>
		<g>
			<g>
				<polygon class="st2" points="343.69,353.676 343.69,355.026 346.176,355.021 346.176,353.679 				"/>
				<polygon class="st2" points="339.234,353.671 339.234,355.035 341.719,355.03 341.719,353.674 				"/>
				<polygon class="st2" points="334.792,353.667 334.792,355.043 337.277,355.039 337.277,353.669 				"/>
			</g>
		</g>
		<g>
			<g>
				<polygon class="st2" points="357.077,353.692 357.077,354.998 359.562,354.992 359.562,353.695 				"/>
				<polygon class="st2" points="352.621,353.687 352.621,355.007 355.105,355.001 355.105,353.69 				"/>
				<polygon class="st2" points="348.179,353.681 348.179,355.017 350.664,355.012 350.664,353.684 				"/>
			</g>
		</g>
		<g>
			<g>
				<polygon class="st2" points="370.464,353.71 370.464,354.964 372.949,354.958 372.949,353.714 				"/>
				<polygon class="st2" points="366.008,353.705 366.008,354.975 368.492,354.969 368.492,353.708 				"/>
				<polygon class="st2" points="361.565,353.698 361.565,354.987 364.051,354.981 364.051,353.702 				"/>
			</g>
		</g>
		<g>
			<g>
				<polygon class="st2" points="383.852,353.732 383.852,354.925 386.336,354.917 386.336,353.736 				"/>
				<polygon class="st2" points="379.395,353.724 379.395,354.939 381.879,354.931 381.879,353.728 				"/>
				<polygon class="st2" points="374.952,353.717 374.952,354.952 377.438,354.945 377.438,353.721 				"/>
			</g>
		</g>
		<g>
			<g>
				<polygon class="st2" points="397.238,353.755 397.238,354.882 399.723,354.873 399.723,353.76 				"/>
				<polygon class="st2" points="392.781,353.748 392.781,354.897 395.266,354.888 395.266,353.751 				"/>
				<polygon class="st2" points="388.339,353.74 388.339,354.912 390.824,354.903 390.824,353.744 				"/>
			</g>
		</g>
		<g>
			<g>
				<polygon class="st2" points="410.625,353.783 410.625,354.833 413.109,354.823 413.109,353.788 				"/>
				<polygon class="st2" points="406.168,353.773 406.168,354.85 408.652,354.84 408.652,353.778 				"/>
				<polygon class="st2" points="401.726,353.764 401.726,354.866 404.211,354.857 404.211,353.769 				"/>
			</g>
		</g>
		<g>
			<g>
				<polygon class="st2" points="424.012,353.812 424.012,354.778 426.496,354.767 426.496,353.818 				"/>
				<polygon class="st2" points="419.555,353.802 419.555,354.796 422.04,354.786 422.04,353.808 				"/>
				<polygon class="st2" points="415.112,353.792 415.112,354.815 417.598,354.805 417.598,353.797 				"/>
			</g>
		</g>
		<g>
			<g>
				<polygon class="st2" points="437.398,353.845 437.398,354.717 439.883,354.705 439.883,353.852 				"/>
				<polygon class="st2" points="432.941,353.834 432.941,354.738 435.427,354.726 435.427,353.84 				"/>
				<polygon class="st2" points="428.499,353.823 428.499,354.758 430.984,354.747 430.984,353.83 				"/>
			</g>
		</g>
		<g>
			<g>
				<polygon class="st2" points="450.785,353.882 450.785,354.65 453.27,354.636 453.27,353.89 				"/>
				<polygon class="st2" points="446.328,353.87 446.328,354.673 448.813,354.66 448.813,353.876 				"/>
				<polygon class="st2" points="441.886,353.858 441.886,354.695 444.371,354.683 444.371,353.865 				"/>
			</g>
		</g>
		<g>
			<g>
				<polygon class="st2" points="464.172,353.923 464.172,354.576 466.656,354.561 466.656,353.931 				"/>
				<polygon class="st2" points="459.715,353.909 459.715,354.601 462.2,354.587 462.2,353.917 				"/>
				<polygon class="st2" points="455.272,353.896 455.272,354.625 457.758,354.612 457.758,353.903 				"/>
			</g>
		</g>
		<g>
			<g>
				<polygon class="st2" points="477.559,353.968 477.559,354.494 480.043,354.477 480.043,353.977 				"/>
				<polygon class="st2" points="473.102,353.953 473.102,354.522 475.587,354.506 475.587,353.96 				"/>
				<polygon class="st2" points="468.66,353.938 468.66,354.549 471.145,354.534 471.145,353.946 				"/>
			</g>
		</g>
		<g>
			<g>
				<polygon class="st2" points="490.945,354.017 490.945,354.403 493.43,354.385 493.43,354.027 				"/>
				<polygon class="st2" points="486.488,354 486.488,354.434 488.974,354.417 488.974,354.009 				"/>
				<polygon class="st2" points="482.047,353.984 482.047,354.464 484.531,354.448 484.531,353.993 				"/>
			</g>
		</g>
		<g>
			<g>
				<polygon class="st2" points="504.332,354.073 504.332,354.302 506.816,354.282 506.816,354.083 				"/>
				<polygon class="st2" points="499.875,354.053 499.875,354.337 502.36,354.318 502.36,354.064 				"/>
				<polygon class="st2" points="495.434,354.035 495.434,354.371 497.918,354.352 497.918,354.045 				"/>
			</g>
		</g>
		<g>
			<g>
				<polygon class="st2" points="517.719,354.135 517.719,354.187 520.203,354.164 520.203,354.148 				"/>
				<polygon class="st2" points="513.262,354.114 513.262,354.228 515.747,354.206 515.747,354.125 				"/>
				<polygon class="st2" points="508.82,354.093 508.82,354.265 511.305,354.245 511.305,354.104 				"/>
			</g>
		</g>
	</g>
</g>
</svg>
