<?xml version="1.0" encoding="iso-8859-1"?>
<!-- Generator: Adobe Illustrator 16.0.0, SVG Export Plug-In . SVG Version: 6.00 Build 0)  -->
<!DOCTYPE svg PUBLIC "-//W3C//DTD SVG 1.0//EN" "http://www.w3.org/TR/2001/REC-SVG-20010904/DTD/svg10.dtd">
<svg version="1.0" id="Layer_1" xmlns="http://www.w3.org/2000/svg" xmlns:xlink="http://www.w3.org/1999/xlink" x="0px" y="0px"
	 width="1023.5px" height="312.09px" viewBox="0 0 1023.5 312.09" style="enable-background:new 0 0 1023.5 312.09;"
	 xml:space="preserve">
<style type="text/css">
<![CDATA[
	.st0{opacity:0.4;fill:#F1F2F2;stroke:#D1D3D4;stroke-width:1.1119;stroke-miterlimit:10;}
	.st1{fill:#58EFE9;}
	.st2{fill-rule:evenodd;clip-rule:evenodd;fill:#848484;}
	.st3{opacity:0.2;fill:#808285;stroke:#D1D3D4;stroke-width:0.296;stroke-miterlimit:10;}
	.st4{fill-rule:evenodd;clip-rule:evenodd;fill:#58EFE9;}
	.st5{fill-rule:evenodd;clip-rule:evenodd;fill:#595959;}
	.st6{fill-rule:evenodd;clip-rule:evenodd;fill:#BCBCBC;}
	.st7{fill:#FF2F68;}
	.st8{fill:#FFFFFF;}
	.st9{fill-rule:evenodd;clip-rule:evenodd;fill:none;stroke:#000000;stroke-width:0.2009;stroke-miterlimit:10;}
	.st10{fill-rule:evenodd;clip-rule:evenodd;fill:#938C8E;}
	.st11{fill-rule:evenodd;clip-rule:evenodd;fill:#60EFE8;}
	.st12{fill-rule:evenodd;clip-rule:evenodd;fill:#FF2F68;}
	.st13{fill-rule:evenodd;clip-rule:evenodd;fill:#FFE033;}
	.st14{fill-rule:evenodd;clip-rule:evenodd;fill:#FFFFFF;}
	.st15{opacity:0.9;fill:none;stroke:#D1D3D4;stroke-width:0.5;stroke-miterlimit:10;}
]]>
</style>
<g>
	<rect x="682.5" class="st8" width="341" height="312.09"/>
	<g>
		<g>
			<path class="st12" d="M773.443,185.888c-4.369,2.077-8.125,2.479-12.894,2.183c-3.579-0.221-6.994-1.212-10.327-2.488
				c-2.99-1.146-5.963-2.335-8.96-3.459c-1.217-0.457-2.478-0.794-3.826-1.219c0.877-0.366,1.702-0.762,2.561-1.06
				c2.283-0.79,4.547-1.61,6.439-3.18c1.209-1.003,1.864-2.306,1.919-3.87c0.018-0.514,0.194-0.747,0.668-0.827
				c2.37-0.399,4.735-0.833,7.115-1.178c0.552-0.08,0.93-0.219,1.275-0.666c5.079-6.567,10.146-13.147,15.278-19.673
				c2.533-3.221,5.199-6.34,7.807-9.502c0.177-0.212,0.374-0.404,0.698-0.752c0.557,1.304,1.008,2.518,1.58,3.674
				c1.021,2.062,0.779,3.72-0.654,5.692c-4.107,5.651-6.358,12.104-7.176,19.041c-0.057,0.471-0.245,0.725-0.604,0.968
				c-2.742,1.866-5.657,3.407-8.715,4.679c-0.307,0.128-0.611,0.265-0.911,0.408c-0.058,0.029-0.279,0.127-0.152,0.19
				c1.088,0.481,2.181,0.909,3.224,1.435c3.259,1.645,5.714,4.239,8.552,6.548c1.888,1.536,7.766,3.701,9.497,4.392
				c10.868,4.332,11.928,4.488,29.448,11.137c0.031,0.977-5.982-0.661-8.74-1.414c-8.271-2.251-16.536-4.522-24.818-6.733
				c-0.968-0.259-2.033-0.309-3.039-0.24c-2.031,0.139-3.225,1.908-2.776,4.128c0.251,1.245,0.909,2.352,1.286,3.569
				c0.079,0.257,0.411,0.792,0.189,1.047c-3.028-3.185-5.902-6.205-8.836-9.289C769.736,189.104,774.564,185.791,773.443,185.888z"
				/>
			<path class="st11" d="M820.528,130.434c-0.979,1.275-1.896,2.603-2.944,3.817c-3.31,3.841-7.123,7.151-11.201,10.138
				c-3.284,2.402-6.628,4.735-10.055,6.928c-3.018,1.931-5.364,4.447-7.479,7.292c-3.639,4.895-7.525,9.591-11.729,14.019
				c-0.149,0.157-0.494,0.463-0.59,0.388c0-0.859-0.038-1.724,0.023-2.58c0.018-0.246,0.289-0.519,0.51-0.697
				c3.347-2.703,6.019-5.916,7.601-9.962c1.484-3.794,1.715-7.703,1.073-11.696c-0.042-0.256,0.04-0.623,0.208-0.81
				c1.348-1.507,2.725-2.99,4.114-4.461c0.15-0.158,0.446-0.285,0.661-0.268c10.108,0.355,18.384-2.81,25.917-8.979
				c1.279-1.047,2.476-2.196,3.709-3.298C820.408,130.32,820.468,130.376,820.528,130.434z"/>
			<path class="st12" d="M728.193,142.175c3.786,4.404,7.869,15.036,7.271,15.4c-0.755,0.459-2.938-1.391-4.294-2.078
				c-4.109-2.083-8.213-4.176-12.304-6.294c-0.29-0.151-0.62-0.518-0.658-0.821c-0.583-4.464-1.906-13.873-1.781-13.866
				C717.644,134.588,725.071,138.54,728.193,142.175z"/>
			<path class="st12" d="M782.943,138.747c3.107-1.727,6.179-3.521,9.328-5.164c5.219-2.72,10.506-5.306,15.734-8.01
				c5.122-2.649,10.016-5.682,14.738-8.995c0.617-0.433,1.334-0.774,2.053-1.002c1.027-0.326,1.479,0.016,1.336,1.059
				c-0.162,1.157-0.453,2.308-0.816,3.419c-0.382,1.161-0.651,2.552-1.461,3.329c-0.773,0.739-2.17,0.848-3.31,1.183
				c-8.062,2.38-15.821,5.468-22.867,10.114c-2.58,1.699-4.952,3.709-7.438,5.554c-0.271,0.202-0.577,0.343-1,0.411
				C786.808,140.538,784.221,139.732,782.943,138.747z"/>
			<path class="st13" d="M792.277,140.814c8.609-7.238,18.571-11.526,29.168-14.584c-3.741,4.496-8.127,8.192-13.295,10.924
				C802.376,140.208,796.614,141.237,792.277,140.814z"/>
			<path class="st12" d="M756.533,165.511c-0.384,0.678-11.044-3.55-16.286-5.79c-0.777-0.332-1.562-0.652-2.311-1.041
				c-0.257-0.134-0.54-0.437-0.594-0.704c-0.922-4.69-2.532-9.113-5.038-13.195c-0.023-0.038-0.096-0.154-0.027-0.156
				c2.32-0.08,8.726,6.884,12.628,10.479C748.805,158.695,756.83,164.986,756.533,165.511z"/>
			<path class="st13" d="M737.805,160.619c0.662-0.418,2.775,1.359,19.398,6.752c0.71,0.231-1.02,1.627-2.321,1.754
				c-2.25,0.222-4.46,0.818-6.691,1.244c-0.228,0.045-0.559,0.107-0.696-0.01c-1.489-1.271-3.273-1.439-5.072-1.227
				c-1.064,0.125-1.87,0.017-2.376-0.921c-0.203-0.377-1.533-3.28-1.976-4.568C737.744,162.696,737.387,160.884,737.805,160.619z"/>
			<path class="st4" d="M714.585,132.094c-0.775,0.564-2.457,0.58-2.896-1.25c-0.646-2.687-1.166-5.409-1.547-8.143
				c-0.436-3.142-0.659-6.315-0.954-9.476c-0.041-0.433,0.037-0.88,0.062-1.319c0.072-0.027,0.148-0.055,0.224-0.083
				c0.271,0.248,0.599,0.456,0.803,0.75c1.557,2.251,3.096,4.513,4.62,6.785c0.132,0.195,0.188,0.479,0.18,0.719
				C714.949,123.968,714.765,131.965,714.585,132.094z"/>
			<path class="st13" d="M776.855,167.465c0.961-6.494,3.461-12.331,7.151-17.722C785.961,153.846,781.615,164.601,776.855,167.465z
				"/>
			<path class="st12" d="M745.736,171.249c-0.839,0.461-1.521,0.807-2.171,1.199c-2.374,1.44-4.305,3.286-5.404,5.903
				c-0.094,0.228-0.343,0.435-0.569,0.559c-1.018,0.655-1.973,1.289-2.953,1.887c-3.123,1.906-4.341,2.069-4.098,1.704
				c0.831-1.244,3.421-4.367,3.755-5.883c0.586-2.655,2.282-4.342,4.866-5.15c1.684-0.529,3.41-0.684,5.164-0.537
				C744.742,170.966,745.149,171.112,745.736,171.249z"/>
			<path class="st12" d="M724.707,136.484c-0.198,0-5.328-2.732-7.983-3.854c-0.163-0.056-0.223-0.216-0.222-0.378
				c0.024-3.065,0.027-9.513,0.239-9.536C717.208,122.667,725.533,136.484,724.707,136.484z"/>
			<path class="st13" d="M774.806,171.481c0.353,0.275,0.462,2.899,0.055,3.252c-0.167,0.273-1.396,1.474-2.351,1.759
				c-1.387,0.416-3.783-0.993-3.611-1.835C768.977,174.272,774.482,171.229,774.806,171.481z"/>
			<path class="st4" d="M736.31,163.283c-0.094,0.168-8.354-3.69-8.7-7.538c-0.08-0.905,7.657,3.566,8.609,4.693
				C736.517,160.789,736.651,162.682,736.31,163.283z"/>
			<path class="st13" d="M712.334,133.939c-0.035-0.184,2.207-0.553,2.552,0.964c0.181,2.343,0.947,9.428,0.481,8.46
				C713.246,138.958,712.98,137.32,712.334,133.939z"/>
			<path class="st12" d="M740.58,177.728c1.402-2.311,3.494-3.754,5.944-4.744C745.808,176.14,742.938,176.61,740.58,177.728z"/>
			<path class="st12" d="M783.588,141.092c1.54,0.393,2.98,0.76,4.499,1.147c-0.995,1.061-1.948,2.078-2.931,3.127
				C784.637,143.951,784.133,142.577,783.588,141.092z"/>
		</g>
		<g>
			<g>
				<path class="st1" d="M847.037,155.177h-4.342v14.582c0,0.847-0.654,1.503-1.501,1.503c-0.819,0-1.502-0.656-1.502-1.503v-14.582
					h-4.314c-0.847,0-1.502-0.711-1.502-1.529c0-0.847,0.655-1.501,1.502-1.501h11.659c0.819,0,1.502,0.654,1.502,1.501
					C848.539,154.466,847.856,155.177,847.037,155.177z"/>
				<path class="st1" d="M860.965,171.262c-4.396,0-7.893-3.551-7.893-7.893v-9.722c0-0.847,0.656-1.501,1.502-1.501
					c0.819,0,1.529,0.654,1.529,1.501v9.722c0,2.677,2.186,4.861,4.861,4.861c2.703,0,4.86-2.185,4.86-4.861v-9.722
					c0-0.847,0.683-1.501,1.529-1.501s1.502,0.654,1.502,1.501v9.722C868.856,167.711,865.334,171.262,860.965,171.262z"/>
				<path class="st1" d="M887.233,168.994c0.273,0.792-0.164,1.639-0.955,1.912c-0.109,0.027-0.327,0.081-0.601,0.081
					c0,0,0,0-0.028,0c-0.273,0-0.681-0.054-1.063-0.3c-0.355-0.219-0.656-0.573-0.874-0.956c-0.383-0.791-0.573-1.774-0.573-3.276
					c-0.028-0.52-0.137-0.874-0.327-1.174c-0.165-0.301-0.492-0.574-0.82-0.793c-0.574-0.382-1.284-0.601-1.528-0.655h-3.223v5.926
					c0,0.82-0.683,1.503-1.529,1.503s-1.501-0.683-1.501-1.503v-16.111c0-0.847,0.654-1.501,1.501-1.501c0,0,0,0,0.027,0h4.86
					c3.249,0,5.844,2.621,5.844,5.87c0,1.803-0.819,3.387-2.131,4.479c0.355,0.273,0.684,0.601,0.956,1.011
					c0.546,0.791,0.901,1.802,0.901,2.949c-0.026,0.818,0.056,1.338,0.109,1.61C886.716,168.202,887.069,168.53,887.233,168.994z
					 M883.411,158.017c0-1.583-1.256-2.84-2.812-2.84h-3.358v5.625h3.358C882.155,160.802,883.411,159.546,883.411,158.017z"/>
				<path class="st1" d="M907.181,171.425c-0.998,0.754-1.832,0.911-1.972,0.939c-0.704-0.154-1.22-0.502-1.917-0.885l0.627-0.246
					c1.146-0.546,2.185-1.284,3.031-2.157c1.748-1.856,2.786-4.369,2.786-7.127c0-2.73-1.038-5.215-2.786-7.046
					c-1.666-1.883-4.096-3.031-6.772-3.031c-2.676,0-5.078,1.147-6.827,3.031c-1.665,1.831-2.73,4.315-2.73,7.046
					c0,2.758,1.065,5.271,2.73,7.127c0.902,0.847,1.939,1.557,3.032,2.076l-0.082,0.054c-0.766,0.383-1.147,1.284-0.738,2.103
					c0.083,0.273,0.247,0.438,0.383,0.629c0.028,0,0.028,0,0.055,0.027c0.082,0.026,0.137,0.026,0.164,0.054
					c0.41,0.328,1.037,0.383,1.584,0.082c0.109-0.082,1.037-0.464,1.938-0.464c0.547,0,1.121,0.109,1.667,0.409
					c1.14,0.676,2.248,1.469,3.743,1.524c0.254-0.002,0.479-0.017,0.681-0.042c0.059-0.006,0.108-0.003,0.168-0.014
					c0.029-0.005,0.057-0.017,0.085-0.024c0.227-0.042,0.417-0.1,0.573-0.17c0.828-0.282,1.667-0.728,2.489-1.355
					c0.737-0.602,0.847-1.584,0.3-2.268C908.846,171.016,907.863,170.878,907.181,171.425z M900.178,168.83
					c-1.774,0-3.332-0.737-4.451-1.965c-1.174-1.257-1.885-2.978-1.885-4.916c0-1.939,0.711-3.659,1.885-4.86
					c1.119-1.256,2.677-1.993,4.451-1.993c1.747,0,3.304,0.737,4.506,1.993c1.175,1.201,1.884,2.921,1.884,4.86
					c0,1.938-0.709,3.659-1.884,4.916C903.481,168.093,901.925,168.83,900.178,168.83z"/>
				<path class="st1" d="M922.624,171.262c-4.396,0-7.891-3.551-7.891-7.893v-9.722c0-0.847,0.655-1.501,1.501-1.501
					c0.819,0,1.529,0.654,1.529,1.501v9.722c0,2.677,2.186,4.861,4.86,4.861c2.704,0,4.861-2.185,4.861-4.861v-9.722
					c0-0.847,0.683-1.501,1.529-1.501s1.502,0.654,1.502,1.501v9.722C930.517,167.711,926.993,171.262,922.624,171.262z"/>
				<path class="st1" d="M950.915,154.522c1.693,1.802,2.759,4.204,2.759,6.908c0,2.702-1.065,5.133-2.759,6.908
					c-1.611,1.775-4.015,2.923-6.526,2.923c-2.622,0-5.024-1.147-6.69-2.923c-1.692-1.775-2.703-4.206-2.703-6.908
					c0-2.704,1.011-5.106,2.703-6.908c1.666-1.803,4.068-2.922,6.69-2.922C946.9,151.6,949.304,152.719,950.915,154.522z
					 M950.561,161.431c0-1.857-0.738-3.577-1.857-4.778c-1.147-1.229-2.676-1.939-4.314-1.939c-1.748,0-3.277,0.71-4.423,1.939
					c-1.147,1.201-1.857,2.921-1.857,4.778c0,1.856,0.71,3.577,1.857,4.752c1.146,1.229,2.675,1.965,4.423,1.965
					c1.639,0,3.167-0.736,4.314-1.965C949.822,165.008,950.561,163.287,950.561,161.431z"/>
				<path class="st1" d="M957.88,153.647c0-0.847,0.654-1.501,1.501-1.501c0.818,0,1.528,0.654,1.528,1.501v16.111
					c0,0.847-0.71,1.503-1.528,1.503c-0.847,0-1.501-0.656-1.501-1.503V153.647z"/>
				<path class="st1" d="M965.416,166.51c0.491-0.602,1.392-0.683,1.992-0.191c1.202,0.983,3.278,2.13,5.216,2.103
					c1.365,0,2.595-0.409,3.413-1.01c0.82-0.601,1.174-1.284,1.174-1.967c0-0.354-0.081-0.601-0.245-0.874s-0.409-0.546-0.819-0.818
					c-0.791-0.52-2.13-0.983-3.74-1.284h-0.055c-1.284-0.245-2.485-0.573-3.522-1.064c-1.039-0.492-1.939-1.174-2.54-2.13
					c-0.409-0.655-0.629-1.42-0.629-2.24c0-1.638,0.929-3.058,2.187-3.986c1.282-0.928,2.948-1.447,4.724-1.447
					c2.62,0,4.56,1.283,5.952,2.184c0.628,0.438,0.819,1.312,0.383,1.939c-0.41,0.656-1.284,0.846-1.939,0.409
					c-1.393-0.929-2.73-1.747-4.396-1.747c-1.229,0-2.321,0.382-3.06,0.929c-0.736,0.546-1.037,1.146-1.037,1.719
					c0,0.329,0.055,0.547,0.191,0.765c0.137,0.219,0.383,0.465,0.737,0.711c0.71,0.491,1.938,0.929,3.413,1.201h0.054
					c1.393,0.273,2.678,0.629,3.77,1.147c1.119,0.546,2.103,1.256,2.729,2.267c0.411,0.654,0.656,1.474,0.656,2.32
					c0,1.747-0.983,3.249-2.348,4.232c-1.339,0.983-3.114,1.557-5.053,1.557c-2.948-0.027-5.435-1.502-6.99-2.73
					C965.033,168.012,964.951,167.11,965.416,166.51z"/>
				<path class="st1" d="M984.229,169.759v-16.111c0-0.847,0.656-1.501,1.503-1.501h0.026c0,0,0,0,0.056,0h8.846
					c0.793,0,1.503,0.654,1.503,1.501s-0.71,1.529-1.503,1.529h-7.399v4.997h6.363c0.818,0,1.502,0.71,1.502,1.503
					c0,0.846-0.684,1.529-1.502,1.529h-6.363v5.024h7.399c0.793,0,1.503,0.682,1.503,1.528c0,0.82-0.71,1.503-1.503,1.503h-8.846
					c-0.056,0-0.056-0.028-0.056-0.028l-0.026,0.028C984.886,171.262,984.229,170.579,984.229,169.759z"/>
			</g>
			<g>
				<path class="st7" d="M890.695,180.804v9.631c0,0.491-0.506,0.898-1.09,0.898c-0.604,0-1.07-0.407-1.07-0.898v-6.871
					l-2.805,3.265c-0.214,0.244-0.524,0.375-0.876,0.375h-0.019h-0.021c-0.35,0-0.681-0.131-0.896-0.375l-2.783-3.265v6.871
					c0,0.491-0.486,0.898-1.091,0.898c-0.584,0-1.07-0.407-1.07-0.898v-9.631c0-0.489,0.486-0.896,1.07-0.896c0.02,0,0.02,0,0.059,0
					c0.312,0,0.662,0.13,0.857,0.374l3.874,4.505l3.873-4.505c0.215-0.244,0.526-0.374,0.876-0.374c0,0,0,0,0.021,0
					C890.189,179.922,890.695,180.314,890.695,180.804z"/>
				<path class="st7" d="M898.328,190.435v-9.631c0-0.506,0.468-0.896,1.071-0.896h0.019c0,0,0,0,0.039,0h6.308
					c0.565,0,1.072,0.391,1.072,0.896c0,0.507-0.507,0.915-1.072,0.915h-5.276v2.987h4.537c0.584,0,1.07,0.424,1.07,0.896
					c0,0.506-0.486,0.914-1.07,0.914h-4.537v3.005h5.276c0.565,0,1.072,0.408,1.072,0.913c0,0.491-0.507,0.898-1.072,0.898h-6.308
					c-0.039,0-0.039-0.017-0.039-0.017l-0.019,0.017C898.796,191.333,898.328,190.926,898.328,190.435z"/>
				<path class="st7" d="M913.768,190.435v-9.631c0-0.506,0.467-0.896,1.07-0.896h2.298c3.757,0,6.794,2.562,6.794,5.695
					c0,3.168-3.037,5.73-6.794,5.73h-2.298C914.234,191.333,913.768,190.926,913.768,190.435z M915.929,189.521h1.207
					c2.569-0.016,4.634-1.747,4.634-3.919c0-2.137-2.064-3.884-4.634-3.884h-1.207V189.521z"/>
				<path class="st7" d="M930.822,180.804c0-0.506,0.467-0.896,1.071-0.896c0.585,0,1.091,0.391,1.091,0.896v9.631
					c0,0.507-0.506,0.898-1.091,0.898c-0.604,0-1.071-0.392-1.071-0.898V180.804z"/>
				<path class="st7" d="M947.469,188.64h-4.73l-0.954,2.122c-0.176,0.359-0.584,0.571-1.013,0.571
					c-0.137,0-0.253-0.017-0.369-0.048c-0.565-0.181-0.837-0.704-0.643-1.177l4.302-9.614c0.176-0.359,0.604-0.587,1.032-0.572
					c0.447-0.015,0.856,0.213,1.032,0.572l4.302,9.614c0.195,0.473-0.078,0.996-0.643,1.177c-0.097,0.031-0.232,0.048-0.369,0.048
					c-0.429,0-0.838-0.212-0.993-0.571L947.469,188.64z M946.671,186.844l-1.577-3.509l-1.577,3.509H946.671z"/>
			</g>
		</g>
	</g>
</g>
<g>
	<rect x="341.501" class="st7" width="340.999" height="312.09"/>
	<g>
		<g>
			<path class="st14" d="M517.271,168.129c-6.027,2.864-11.208,3.42-17.789,3.012c-4.938-0.306-9.648-1.674-14.247-3.434
				c-4.125-1.58-8.228-3.221-12.362-4.772c-1.678-0.631-3.418-1.095-5.278-1.683c1.21-0.505,2.349-1.05,3.532-1.46
				c3.15-1.091,6.273-2.222,8.885-4.388c1.668-1.383,2.572-3.181,2.647-5.339c0.024-0.708,0.269-1.032,0.922-1.142
				c3.27-0.551,6.532-1.148,9.814-1.624c0.763-0.111,1.284-0.303,1.762-0.919c7.007-9.062,13.996-18.14,21.078-27.143
				c3.495-4.443,7.173-8.746,10.771-13.109c0.242-0.293,0.516-0.559,0.961-1.038c0.769,1.8,1.393,3.475,2.182,5.068
				c1.408,2.846,1.075,5.133-0.903,7.853c-5.665,7.798-8.772,16.7-9.9,26.271c-0.077,0.649-0.339,1-0.832,1.335
				c-3.782,2.574-7.806,4.699-12.023,6.455c-0.423,0.176-0.843,0.364-1.257,0.563c-0.079,0.039-0.385,0.174-0.21,0.263
				c1.5,0.663,3.009,1.253,4.448,1.979c4.496,2.269,7.881,5.848,11.797,9.034c2.605,2.119,10.713,5.105,13.102,6.058
				c14.994,5.978,16.457,6.193,40.631,15.365c0.041,1.348-8.255-0.912-12.059-1.95c-11.413-3.106-22.815-6.24-34.241-9.291
				c-1.336-0.355-2.806-0.425-4.192-0.33c-2.804,0.189-4.449,2.632-3.832,5.694c0.346,1.717,1.256,3.246,1.775,4.925
				c0.107,0.355,0.567,1.092,0.262,1.444c-4.18-4.394-8.144-8.561-12.191-12.815C512.156,172.566,518.817,167.996,517.271,168.129z"
				/>
			<path class="st14" d="M582.23,91.622c-1.35,1.76-2.615,3.591-4.061,5.267c-4.567,5.3-9.828,9.866-15.455,13.985
				c-4.531,3.315-9.144,6.534-13.872,9.56c-4.163,2.663-7.4,6.135-10.317,10.06c-5.021,6.753-10.383,13.232-16.182,19.34
				c-0.207,0.218-0.681,0.64-0.813,0.536c0-1.188-0.052-2.379,0.034-3.561c0.023-0.34,0.396-0.715,0.702-0.961
				c4.616-3.73,8.302-8.164,10.487-13.744c2.047-5.234,2.364-10.628,1.479-16.137c-0.057-0.354,0.055-0.86,0.287-1.118
				c1.86-2.078,3.76-4.124,5.677-6.152c0.208-0.22,0.614-0.396,0.912-0.37c13.945,0.488,25.364-3.878,35.757-12.389
				c1.765-1.446,3.415-3.03,5.116-4.55C582.065,91.465,582.147,91.543,582.23,91.622z"/>
			<path class="st14" d="M454.842,107.819c5.223,6.076,10.856,20.746,10.029,21.249c-1.04,0.633-4.052-1.919-5.923-2.868
				c-5.669-2.873-11.331-5.762-16.975-8.683c-0.4-0.21-0.855-0.716-0.908-1.133c-0.805-6.159-2.63-19.141-2.457-19.131
				C440.288,97.353,450.534,102.807,454.842,107.819z"/>
			<path class="st14" d="M530.377,103.09c4.287-2.381,8.523-4.857,12.871-7.123c7.198-3.752,14.494-7.32,21.705-11.051
				c7.067-3.654,13.819-7.839,20.335-12.41c0.853-0.598,1.84-1.067,2.833-1.382c1.416-0.45,2.04,0.022,1.842,1.461
				c-0.223,1.595-0.625,3.183-1.127,4.717c-0.526,1.603-0.896,3.52-2.014,4.592c-1.067,1.021-2.996,1.17-4.566,1.633
				c-11.123,3.283-21.828,7.544-31.549,13.953c-3.559,2.346-6.832,5.119-10.263,7.663c-0.374,0.279-0.796,0.474-1.38,0.566
				C535.709,105.563,532.14,104.45,530.377,103.09z"/>
			<path class="st14" d="M543.255,105.943c11.876-9.987,25.622-15.903,40.241-20.121c-5.162,6.202-11.213,11.302-18.342,15.07
				C557.188,105.107,549.238,106.524,543.255,105.943z"/>
			<path class="st14" d="M493.939,140.016c-0.528,0.936-15.236-4.897-22.468-7.987c-1.073-0.459-2.156-0.9-3.188-1.437
				c-0.354-0.185-0.745-0.602-0.819-0.972c-1.271-6.471-3.493-12.572-6.95-18.206c-0.032-0.051-0.132-0.212-0.038-0.214
				c3.202-0.11,12.038,9.497,17.423,14.457C483.278,130.613,494.35,139.292,493.939,140.016z"/>
			<path class="st14" d="M468.101,133.268c0.915-0.577,3.83,1.875,26.764,9.315c0.98,0.318-1.406,2.244-3.202,2.419
				c-3.104,0.305-6.153,1.129-9.231,1.718c-0.314,0.062-0.771,0.146-0.961-0.016c-2.055-1.751-4.516-1.984-6.998-1.691
				c-1.469,0.172-2.58,0.023-3.277-1.271c-0.281-0.521-2.116-4.525-2.727-6.302C468.019,136.133,467.524,133.632,468.101,133.268z"
				/>
			<path class="st14" d="M436.067,93.913c-1.07,0.778-3.391,0.8-3.996-1.726c-0.891-3.707-1.607-7.462-2.133-11.233
				c-0.602-4.336-0.91-8.713-1.316-13.073c-0.057-0.599,0.051-1.213,0.084-1.819c0.101-0.038,0.205-0.076,0.309-0.115
				c0.373,0.342,0.826,0.63,1.107,1.036c2.148,3.105,4.271,6.226,6.375,9.359c0.181,0.27,0.26,0.662,0.249,0.993
				C436.569,82.702,436.314,93.734,436.067,93.913z"/>
			<path class="st14" d="M521.979,142.712c1.326-8.961,4.773-17.013,9.865-24.45C534.54,123.923,528.545,138.76,521.979,142.712z"/>
			<path class="st14" d="M479.044,147.934c-1.156,0.634-2.098,1.111-2.994,1.653c-3.275,1.987-5.939,4.534-7.456,8.145
				c-0.13,0.313-0.474,0.599-0.786,0.77c-1.403,0.905-2.721,1.779-4.074,2.604c-4.31,2.629-5.987,2.855-5.652,2.352
				c1.146-1.719,4.719-6.026,5.18-8.118c0.809-3.663,3.149-5.988,6.714-7.104c2.323-0.73,4.704-0.943,7.123-0.74
				C477.673,147.542,478.235,147.744,479.044,147.934z"/>
			<path class="st14" d="M450.032,99.969c-0.275,0-7.352-3.77-11.015-5.317c-0.226-0.076-0.308-0.299-0.306-0.521
				c0.032-4.229,0.037-13.125,0.33-13.156C439.686,80.906,451.171,99.969,450.032,99.969z"/>
			<path class="st14" d="M519.148,148.252c0.486,0.381,0.639,4.001,0.077,4.486c-0.229,0.379-1.927,2.034-3.243,2.429
				c-1.913,0.572-5.22-1.371-4.982-2.532C511.107,152.104,518.705,147.906,519.148,148.252z"/>
			<path class="st14" d="M466.039,136.943c-0.131,0.23-11.524-5.093-12.003-10.401c-0.111-1.248,10.564,4.921,11.877,6.475
				C466.324,133.502,466.511,136.112,466.039,136.943z"/>
			<path class="st14" d="M432.962,96.458c-0.049-0.253,3.045-0.764,3.52,1.33c0.25,3.232,1.307,13.006,0.664,11.672
				C434.22,103.382,433.853,101.123,432.962,96.458z"/>
			<path class="st14" d="M471.931,156.869c1.936-3.186,4.82-5.178,8.201-6.543C479.144,154.68,475.185,155.33,471.931,156.869z"/>
			<path class="st14" d="M531.268,106.326c2.123,0.543,4.111,1.049,6.205,1.583c-1.372,1.463-2.688,2.866-4.042,4.312
				C532.713,110.271,532.02,108.376,531.268,106.326z"/>
		</g>
		<g>
			<path class="st8" d="M416.128,200.516h-5.989v20.118c0,1.168-0.904,2.073-2.072,2.073c-1.13,0-2.071-0.905-2.071-2.073v-20.118
				h-5.953c-1.168,0-2.072-0.979-2.072-2.109c0-1.168,0.904-2.072,2.072-2.072h16.086c1.131,0,2.073,0.904,2.073,2.072
				C418.201,199.536,417.259,200.516,416.128,200.516z"/>
			<path class="st8" d="M435.343,222.707c-6.065,0-10.889-4.897-10.889-10.888v-13.413c0-1.168,0.905-2.072,2.072-2.072
				c1.131,0,2.109,0.904,2.109,2.072v13.413c0,3.691,3.015,6.705,6.707,6.705c3.729,0,6.706-3.014,6.706-6.705v-13.413
				c0-1.168,0.941-2.072,2.109-2.072s2.072,0.904,2.072,2.072v13.413C446.23,217.81,441.371,222.707,435.343,222.707z"/>
			<path class="st8" d="M471.585,219.579c0.377,1.093-0.227,2.262-1.318,2.638c-0.15,0.038-0.451,0.113-0.828,0.113c0,0,0,0-0.039,0
				c-0.376,0-0.939-0.075-1.467-0.415c-0.491-0.302-0.906-0.791-1.207-1.319c-0.527-1.092-0.791-2.447-0.791-4.52
				c-0.037-0.717-0.188-1.206-0.451-1.621c-0.227-0.414-0.68-0.791-1.131-1.093c-0.791-0.526-1.771-0.828-2.11-0.903h-4.444v8.175
				c0,1.131-0.942,2.073-2.11,2.073s-2.071-0.942-2.071-2.073v-22.228c0-1.168,0.903-2.072,2.071-2.072c0,0,0,0,0.038,0h6.705
				c4.483,0,8.062,3.617,8.062,8.101c0,2.486-1.13,4.672-2.938,6.179c0.489,0.377,0.941,0.829,1.318,1.394
				c0.753,1.093,1.243,2.486,1.243,4.069c-0.037,1.13,0.076,1.846,0.15,2.222C470.87,218.487,471.358,218.938,471.585,219.579z
				 M466.311,204.435c0-2.185-1.732-3.919-3.88-3.919h-4.633v7.761h4.633C464.578,208.276,466.311,206.544,466.311,204.435z"/>
			<path class="st8" d="M499.104,222.934c-1.377,1.04-2.527,1.255-2.721,1.295c-0.971-0.214-1.682-0.693-2.645-1.222l0.865-0.338
				c1.582-0.754,3.015-1.771,4.182-2.977c2.412-2.562,3.844-6.028,3.844-9.834c0-3.767-1.432-7.194-3.844-9.72
				c-2.297-2.598-5.65-4.182-9.343-4.182s-7.007,1.584-9.419,4.182c-2.297,2.525-3.767,5.953-3.767,9.72
				c0,3.806,1.47,7.272,3.767,9.834c1.244,1.168,2.675,2.148,4.182,2.863l-0.112,0.075c-1.056,0.527-1.582,1.771-1.018,2.901
				c0.113,0.377,0.34,0.604,0.527,0.866c0.038,0,0.038,0,0.075,0.037c0.113,0.038,0.189,0.038,0.227,0.075
				c0.565,0.453,1.432,0.528,2.186,0.114c0.15-0.114,1.431-0.642,2.674-0.642c0.754,0,1.545,0.152,2.299,0.565
				c1.572,0.933,3.103,2.027,5.164,2.102c0.35-0.002,0.66-0.022,0.939-0.056c0.081-0.009,0.149-0.006,0.233-0.019
				c0.039-0.009,0.077-0.024,0.116-0.035c0.312-0.059,0.574-0.137,0.791-0.234c1.143-0.389,2.299-1.003,3.434-1.871
				c1.018-0.829,1.168-2.186,0.414-3.127C501.403,222.367,500.046,222.179,499.104,222.934z M489.443,219.354
				c-2.448,0-4.597-1.018-6.142-2.713c-1.619-1.733-2.6-4.106-2.6-6.782c0-2.674,0.98-5.047,2.6-6.705
				c1.545-1.732,3.693-2.75,6.142-2.75c2.409,0,4.558,1.018,6.216,2.75c1.621,1.658,2.6,4.031,2.6,6.705
				c0,2.676-0.979,5.049-2.6,6.782C494.001,218.336,491.853,219.354,489.443,219.354z"/>
			<path class="st8" d="M520.412,222.707c-6.066,0-10.888-4.897-10.888-10.888v-13.413c0-1.168,0.903-2.072,2.071-2.072
				c1.13,0,2.109,0.904,2.109,2.072v13.413c0,3.691,3.016,6.705,6.707,6.705c3.729,0,6.705-3.014,6.705-6.705v-13.413
				c0-1.168,0.942-2.072,2.109-2.072c1.168,0,2.073,0.904,2.073,2.072v13.413C531.3,217.81,526.439,222.707,520.412,222.707z"/>
			<path class="st8" d="M559.443,199.612c2.335,2.486,3.805,5.801,3.805,9.532c0,3.729-1.47,7.081-3.805,9.531
				c-2.224,2.448-5.539,4.031-9.004,4.031c-3.618,0-6.934-1.583-9.23-4.031c-2.336-2.45-3.73-5.803-3.73-9.531
				c0-3.731,1.395-7.046,3.73-9.532c2.297-2.486,5.612-4.031,9.23-4.031C553.904,195.581,557.22,197.126,559.443,199.612z
				 M558.953,209.145c0-2.563-1.018-4.937-2.562-6.593c-1.582-1.696-3.691-2.677-5.951-2.677c-2.412,0-4.521,0.98-6.104,2.677
				c-1.582,1.656-2.562,4.029-2.562,6.593c0,2.561,0.98,4.935,2.562,6.555c1.582,1.696,3.691,2.712,6.104,2.712
				c2.26,0,4.369-1.016,5.951-2.712C557.936,214.079,558.953,211.705,558.953,209.145z"/>
			<path class="st8" d="M569.051,198.406c0-1.168,0.904-2.072,2.071-2.072c1.13,0,2.11,0.904,2.11,2.072v22.228
				c0,1.168-0.98,2.073-2.11,2.073c-1.167,0-2.071-0.905-2.071-2.073V198.406z"/>
			<path class="st8" d="M579.447,216.151c0.679-0.829,1.922-0.942,2.75-0.265c1.658,1.356,4.521,2.938,7.196,2.901
				c1.884,0,3.579-0.564,4.71-1.393c1.129-0.83,1.619-1.771,1.619-2.713c0-0.49-0.113-0.83-0.339-1.206
				c-0.226-0.377-0.565-0.754-1.131-1.13c-1.092-0.717-2.938-1.356-5.161-1.771h-0.074c-1.771-0.34-3.43-0.793-4.861-1.47
				c-1.432-0.679-2.674-1.62-3.504-2.939c-0.564-0.903-0.866-1.959-0.866-3.089c0-2.26,1.28-4.22,3.015-5.5
				c1.771-1.281,4.068-1.997,6.519-1.997c3.616,0,6.29,1.771,8.212,3.014c0.866,0.603,1.131,1.809,0.527,2.675
				c-0.564,0.904-1.771,1.168-2.675,0.565c-1.921-1.281-3.767-2.41-6.064-2.41c-1.696,0-3.202,0.526-4.221,1.28
				c-1.017,0.753-1.433,1.582-1.433,2.373c0,0.452,0.076,0.753,0.265,1.055s0.528,0.642,1.017,0.979
				c0.98,0.678,2.676,1.282,4.709,1.658h0.076c1.921,0.376,3.693,0.866,5.199,1.583c1.544,0.753,2.901,1.732,3.767,3.127
				c0.565,0.902,0.905,2.034,0.905,3.202c0,2.409-1.357,4.481-3.24,5.839c-1.846,1.356-4.295,2.147-6.97,2.147
				c-4.069-0.038-7.497-2.073-9.644-3.769C578.92,218.224,578.808,216.98,579.447,216.151z"/>
			<path class="st8" d="M605.405,220.634v-22.228c0-1.168,0.903-2.072,2.071-2.072h0.039c0,0,0,0,0.074,0h12.206
				c1.094,0,2.073,0.904,2.073,2.072s-0.979,2.109-2.073,2.109h-10.209v6.895h8.778c1.13,0,2.072,0.979,2.072,2.073
				c0,1.167-0.942,2.109-2.072,2.109h-8.778v6.932h10.209c1.094,0,2.073,0.941,2.073,2.109c0,1.131-0.979,2.073-2.073,2.073H607.59
				c-0.074,0-0.074-0.038-0.074-0.038l-0.039,0.038C606.309,222.707,605.405,221.765,605.405,220.634z"/>
		</g>
		<g>
			<path class="st8" d="M476.36,235.871v13.289c0,0.676-0.697,1.238-1.504,1.238c-0.832,0-1.477-0.562-1.477-1.238v-9.48
				l-3.869,4.503c-0.295,0.337-0.724,0.518-1.208,0.518h-0.026h-0.028c-0.482,0-0.939-0.181-1.234-0.518l-3.841-4.503v9.48
				c0,0.676-0.671,1.238-1.505,1.238c-0.806,0-1.477-0.562-1.477-1.238v-13.289c0-0.674,0.671-1.237,1.477-1.237
				c0.027,0,0.027,0,0.081,0c0.431,0,0.913,0.181,1.183,0.519l5.345,6.215l5.344-6.215c0.296-0.338,0.727-0.519,1.209-0.519
				c0,0,0,0,0.027,0C475.663,234.655,476.36,235.197,476.36,235.871z"/>
			<path class="st8" d="M486.892,249.16v-13.289c0-0.696,0.645-1.237,1.477-1.237h0.027c0,0,0,0,0.054,0h8.702
				c0.779,0,1.479,0.541,1.479,1.237c0,0.701-0.699,1.263-1.479,1.263h-7.279v4.121h6.26c0.805,0,1.477,0.586,1.477,1.238
				c0,0.697-0.672,1.261-1.477,1.261h-6.26v4.146h7.279c0.779,0,1.479,0.563,1.479,1.261c0,0.676-0.699,1.238-1.479,1.238h-8.702
				c-0.054,0-0.054-0.022-0.054-0.022l-0.027,0.022C487.536,250.398,486.892,249.836,486.892,249.16z"/>
			<path class="st8" d="M508.191,249.16v-13.289c0-0.696,0.646-1.237,1.478-1.237h3.169c5.186,0,9.375,3.536,9.375,7.859
				c0,4.37-4.189,7.905-9.375,7.905h-3.169C508.837,250.398,508.191,249.836,508.191,249.16z M511.174,247.899h1.664
				c3.546-0.022,6.394-2.41,6.394-5.406c0-2.949-2.848-5.359-6.394-5.359h-1.664V247.899z"/>
			<path class="st8" d="M531.722,235.871c0-0.696,0.646-1.237,1.479-1.237c0.806,0,1.504,0.541,1.504,1.237v13.289
				c0,0.697-0.698,1.238-1.504,1.238c-0.833,0-1.479-0.541-1.479-1.238V235.871z"/>
			<path class="st8" d="M554.688,246.684h-6.528l-1.314,2.927c-0.242,0.496-0.805,0.788-1.397,0.788
				c-0.188,0-0.349-0.022-0.511-0.066c-0.778-0.248-1.154-0.971-0.886-1.622l5.937-13.265c0.241-0.496,0.832-0.812,1.423-0.79
				c0.618-0.021,1.181,0.294,1.424,0.79l5.935,13.265c0.27,0.651-0.105,1.374-0.885,1.622c-0.135,0.044-0.322,0.066-0.51,0.066
				c-0.592,0-1.156-0.292-1.371-0.788L554.688,246.684z M553.588,244.205l-2.177-4.842l-2.177,4.842H553.588z"/>
		</g>
	</g>
</g>
<g>
	<rect class="st8" width="341" height="312.09"/>
	<g>
		<g>
			<path class="st9" d="M179.191,180.599"/>
			<g>
				<path class="st6" d="M243.705,122.01c-1.352,1.76-2.616,3.591-4.062,5.268c-4.566,5.299-9.827,9.866-15.454,13.985
					c-4.53,3.315-9.144,6.533-13.872,9.559c-4.163,2.664-7.4,6.135-10.317,10.06c-5.021,6.753-10.383,13.232-16.182,19.341
					c-0.206,0.217-0.681,0.64-0.813,0.537c0-1.188-0.053-2.381,0.033-3.562c0.024-0.339,0.397-0.715,0.703-0.962
					c4.617-3.729,8.303-8.163,10.486-13.743c2.048-5.234,2.365-10.628,1.479-16.136c-0.058-0.356,0.055-0.86,0.288-1.119
					c1.859-2.079,3.759-4.125,5.675-6.152c0.208-0.222,0.615-0.396,0.913-0.37c13.945,0.488,25.363-3.878,35.756-12.39
					c1.766-1.445,3.416-3.029,5.117-4.549C243.539,121.854,243.621,121.932,243.705,122.01z"/>
				<path class="st6" d="M97.541,124.302c-1.113,0.463-3.391,0.8-3.997-1.726c-0.891-3.707-1.606-7.463-2.132-11.234
					c-0.602-4.335-0.91-8.712-1.317-13.073c-0.056-0.6,0.052-1.213,0.085-1.819c0.101-0.039,0.205-0.076,0.309-0.114
					c0.373,0.342,0.826,0.63,1.107,1.036c2.148,3.104,4.271,6.226,6.375,9.359c0.181,0.269,0.259,0.661,0.248,0.992
					C98.043,113.09,97.822,124.185,97.541,124.302z"/>
				<path class="st6" d="M127.513,167.331c-0.131,0.23-11.524-5.092-12.003-10.4c-0.111-1.25,10.563,4.92,11.877,6.474
					C127.798,163.89,127.984,166.499,127.513,167.331z"/>
			</g>
			<g>
				<path class="st2" d="M204.729,136.331c11.877-9.986,25.622-15.902,40.241-20.12c-5.162,6.2-11.213,11.301-18.343,15.071
					C218.661,135.495,210.711,136.913,204.729,136.331z"/>
				<path class="st2" d="M129.574,163.655c0.915-0.576,3.83,1.876,26.764,9.316c0.98,0.318-1.406,2.244-3.203,2.42
					c-3.104,0.305-6.102,0.543-9.191,1.47c-0.314,0.062-0.811,0.394-1.001,0.232c-2.054-1.753-4.515-1.986-6.997-1.692
					c-1.47,0.172-2.58,0.024-3.277-1.271c-0.281-0.521-2.116-4.526-2.727-6.304C129.492,166.521,128.998,164.02,129.574,163.655z"/>
				<path class="st2" d="M183.451,173.101c1.326-8.961,4.774-17.014,9.867-24.451C196.014,154.311,190.019,169.147,183.451,173.101z
					"/>
				<path class="st2" d="M180.622,178.642c0.486,0.38,0.639,3.998,0.077,4.485c-0.23,0.379-1.928,2.033-3.244,2.429
					c-1.912,0.571-5.219-1.371-4.982-2.532C172.58,182.493,180.178,178.295,180.622,178.642z"/>
				<path class="st2" d="M94.436,126.846c-0.049-0.253,3.045-0.763,3.52,1.33c0.25,3.233,1.307,13.006,0.664,11.673
					C95.693,133.771,95.326,131.511,94.436,126.846z"/>
			</g>
			<g>
				<path class="st5" d="M178.744,198.518c-6.027,2.863-11.209,3.42-17.789,3.012c-4.938-0.306-9.648-1.673-14.247-3.433
					c-4.125-1.58-8.228-3.223-12.362-4.773c-1.678-0.631-3.418-1.094-5.278-1.682c1.21-0.505,2.349-1.052,3.532-1.461
					c3.149-1.091,6.273-2.223,8.885-4.388c1.668-1.384,2.572-3.183,2.647-5.34c0.024-0.708,0.269-1.03,0.922-1.14
					c3.269-0.552,6.532-1.149,9.814-1.625c0.762-0.111,1.284-0.303,1.762-0.92c7.007-9.061,13.997-18.14,21.077-27.143
					c3.496-4.443,7.174-8.747,10.771-13.109c0.243-0.293,0.516-0.559,0.963-1.037c0.768,1.8,1.391,3.474,2.18,5.068
					c1.41,2.846,1.076,5.133-0.902,7.854c-5.088,8.085-8.213,16.385-10.213,26.022c-0.133,0.641-0.025,1.249-0.52,1.583
					c-3.783,2.574-7.805,4.699-12.023,6.455c-0.424,0.176-0.844,0.364-1.257,0.563c-0.079,0.039-0.386,0.174-0.21,0.263
					c1.5,0.664,3.008,1.253,4.447,1.978c4.496,2.27,7.882,5.849,11.799,9.036c2.604,2.119,10.712,5.104,13.102,6.058
					c14.994,5.977,16.456,6.192,40.629,15.364c0.042,1.348-8.254-0.913-12.059-1.95c-11.412-3.106-22.814-6.24-34.24-9.29
					c-1.336-0.357-2.806-0.426-4.193-0.332c-2.803,0.191-4.448,2.633-3.832,5.693c0.348,1.72,1.256,3.247,1.775,4.927
					c0.108,0.354,0.568,1.093,0.262,1.445c-4.178-4.396-8.143-8.562-12.19-12.816C173.629,202.955,180.29,198.385,178.744,198.518z"
					/>
				<path class="st5" d="M116.314,138.207c5.223,6.077,10.857,20.747,10.031,21.249c-1.041,0.633-4.053-1.919-5.924-2.868
					c-5.67-2.873-11.331-5.761-16.975-8.684c-0.4-0.209-0.855-0.715-0.908-1.132c-0.805-6.159-2.631-19.141-2.458-19.13
					C101.76,127.74,112.008,133.194,116.314,138.207z"/>
				<path class="st5" d="M191.85,133.479c4.287-2.381,8.524-4.858,12.871-7.124c7.199-3.751,14.494-7.32,21.707-11.051
					c7.066-3.654,13.818-7.84,20.334-12.409c0.852-0.597,1.84-1.067,2.832-1.382c1.416-0.449,2.041,0.021,1.842,1.461
					c-0.223,1.595-0.624,3.184-1.126,4.716c-0.526,1.604-0.897,3.521-2.015,4.592c-1.066,1.021-2.995,1.171-4.566,1.633
					c-11.123,3.284-22.377,6.913-32.098,13.322c-3.559,2.347-6.3,5.386-9.713,8.296c-0.354,0.303-0.797,0.473-1.38,0.565
					C197.182,135.951,193.613,134.838,191.85,133.479z"/>
				<path class="st5" d="M155.413,170.404c-0.528,0.936-15.237-4.898-22.468-7.988c-1.073-0.458-2.157-0.899-3.189-1.437
					c-0.354-0.185-0.744-0.602-0.818-0.972c-1.271-6.471-3.494-12.572-6.951-18.205c-0.031-0.051-0.131-0.212-0.037-0.216
					c3.201-0.109,12.038,9.497,17.422,14.459C144.752,161.001,155.823,169.68,155.413,170.404z"/>
				<path class="st5" d="M140.387,178.29c-1.289,0.62-1.934,1.016-2.863,1.686c-3.168,2.281-5.502,4.479-7.721,8.245
					c-0.13,0.314-0.423,0.635-0.735,0.807c-1.404,0.906-2.508,1.643-3.86,2.468c-4.31,2.629-5.988,2.854-5.652,2.351
					c1.145-1.718,4.719-6.026,5.18-8.118c0.808-3.663,3.148-5.988,6.714-7.104c2.323-0.73,4.704-0.944,7.123-0.741
					C139.301,177.945,139.729,178.137,140.387,178.29z"/>
				<path class="st5" d="M111.318,130.768c-0.275,0-5.609-3.734-10.859-5.375c-0.225-0.075-0.275-0.652-0.273-0.874
					c0.033-4.229,0.037-13.125,0.33-13.156C101.159,111.295,112.457,130.768,111.318,130.768z"/>
				<path class="st5" d="M133.404,187.258c1.936-3.186,4.82-5.179,8.201-6.544C140.617,185.067,136.658,185.719,133.404,187.258z"/>
			</g>
			<path class="st10" d="M192.74,136.715c2.123,0.541,4.111,1.048,6.207,1.583c-1.373,1.463-2.688,2.866-4.043,4.312
				C194.186,140.658,193.492,138.764,192.74,136.715z"/>
		</g>
		<g>
			<circle class="st0" cx="166.705" cy="156.045" r="111.194"/>
			<circle class="st15" cx="251.472" cy="187.258" r="71.821"/>
			<circle class="st15" cx="87.162" cy="165.675" r="42.151"/>
			<circle class="st3" cx="151.369" cy="200.517" r="24.958"/>
		</g>
	</g>
</g>
</svg>
