<?xml version="1.0" encoding="iso-8859-1"?>
<!-- Generator: Adobe Illustrator 16.0.0, SVG Export Plug-In . SVG Version: 6.00 Build 0)  -->
<!DOCTYPE svg PUBLIC "-//W3C//DTD SVG 1.1//EN" "http://www.w3.org/Graphics/SVG/1.1/DTD/svg11.dtd">
<svg version="1.1" id="Layer_1" xmlns="http://www.w3.org/2000/svg" xmlns:xlink="http://www.w3.org/1999/xlink" x="0px" y="0px"
	 width="100px" height="100px" viewBox="0 0 100 100" style="enable-background:new 0 0 100 100;" xml:space="preserve">
<path style="fill:#FFFFFF;stroke:#231F20;stroke-width:3;stroke-miterlimit:10;" d="M92.682,50
	c0,23.573-19.108,42.682-42.682,42.682C26.421,92.682,7.318,73.572,7.318,50S26.421,7.318,50,7.318
	C73.573,7.318,92.682,26.427,92.682,50z"/>
<g>
	<g>
		<g>
			<path d="M67.453,55.062c0.841,0,0.841-1.303,0-1.303S66.612,55.062,67.453,55.062L67.453,55.062z"/>
		</g>
	</g>
	<path style="opacity:0.2;fill:#F7941E;" d="M34.178,36.873c0,3.403-1.786,6.151-3.988,6.151c-2.205,0-4.857-2.86-3.992-6.151
		c0.781-2.954,1.927-6.918,3.992-6.151C32.022,31.413,34.178,33.479,34.178,36.873z"/>
	<path style="opacity:0.2;fill:#F7941E;" d="M72.333,39.678c-0.747,3.431-3.832,5.432-6.168,4.674
		c-2.337-0.757-3.329-4.075-2.244-7.413c1.083-3.338,3.945-5.88,6.263-5.133C72.502,32.563,73.118,36.191,72.333,39.678z"/>
	<g>
		<g>
			<g>
				<g>
					<g>
						<path style="fill:#231F20;" d="M27.815,70.131c0,0,0.274,0.085,0.754,0.234c0.467,0.181,1.138,0.445,1.923,0.793
							c1.577,0.686,3.663,1.617,5.773,2.446c2.109,0.837,4.253,1.521,5.861,1.971c0.806,0.221,1.484,0.359,1.953,0.478
							c0.469,0.117,0.74,0.163,0.74,0.164c0,0,0.524,0.158,1.44,0.437c0.457,0.157,1.021,0.279,1.669,0.422
							c0.324,0.072,0.669,0.15,1.034,0.232c0.365,0.072,0.751,0.104,1.154,0.164c0.404,0.053,0.824,0.107,1.26,0.164
							c0.436,0.012,0.886,0.023,1.349,0.036c0.952,0.081,1.847-0.097,2.838-0.154c0.501-0.066,1.044-0.234,1.575-0.35l0.808-0.193
							l0.102-0.024c-0.124,0.041-0.027,0.009-0.052,0.017l0.012-0.004l0.024-0.009l0.048-0.018l0.193-0.069l0.388-0.139
							c1.031-0.382,2.107-0.716,3.121-1.197c1.031-0.447,2.072-0.885,3.015-1.428c0.484-0.258,0.965-0.514,1.439-0.767
							c0.474-0.263,0.914-0.597,1.361-0.886c0.444-0.298,0.882-0.591,1.31-0.878c0.335-0.266,0.745-0.637,1.087-0.95
							c0.688-0.672,1.312-1.341,1.796-2.027c0.987-1.36,1.517-2.698,1.746-3.657c0.144-0.477,0.167-0.875,0.225-1.135
							c0.045-0.264,0.069-0.404,0.069-0.404s-0.013,0.143-0.036,0.408c-0.037,0.266-0.028,0.661-0.133,1.151
							c-0.156,0.994-0.581,2.398-1.49,3.891c-0.443,0.752-1.032,1.495-1.688,2.247c-0.353,0.376-0.659,0.716-1.101,1.122
							c-0.403,0.32-0.815,0.647-1.234,0.979c-0.426,0.326-0.828,0.687-1.292,0.998c-0.474,0.305-0.953,0.613-1.437,0.925
							c-0.959,0.658-1.985,1.189-3.008,1.734c-1.009,0.581-2.086,1.016-3.126,1.497l-0.391,0.176l-0.195,0.088l-0.049,0.022
							l-0.023,0.011l-0.013,0.006l-0.076,0.025l-0.1,0.033l-0.79,0.257c-0.532,0.161-1.021,0.359-1.569,0.484
							c-1.13,0.188-2.27,0.472-3.286,0.468c-0.517,0.027-1.021,0.053-1.507,0.078c-0.483-0.022-0.95-0.045-1.398-0.066
							c-0.447-0.028-0.882-0.034-1.287-0.08c-0.403-0.057-0.786-0.11-1.145-0.16c-0.721-0.099-1.351-0.186-1.853-0.312
							c-1.016-0.222-1.596-0.348-1.596-0.348c0-0.001-0.281-0.098-0.757-0.301c-0.476-0.204-1.167-0.468-1.967-0.832
							c-1.599-0.74-3.676-1.796-5.659-2.979c-1.987-1.177-3.904-2.435-5.345-3.359c-0.719-0.468-1.329-0.829-1.76-1.082
							C28.071,70.258,27.815,70.131,27.815,70.131z"/>
					</g>
				</g>
			</g>
			<g>
				<g>
					<g>
						<path style="fill:#231F20;" d="M73.867,44.829c-1.389-3.37-1.453-7.148-2.053-10.607c-0.058,0.039-0.116,0.077-0.111,0.095
							c-0.229-0.574-0.534-1.109-0.92-1.46c-0.388-0.354-0.82-0.487-1.312-0.445c-1.004,0.094-2.093,0.809-3.055,1.582
							c-0.975,0.809-1.907,1.68-2.737,2.652c-0.894,0.999-1.753,2.008-2.822,3.019c-0.181,0.142-0.369,0.285-0.599,0.438
							c-0.119,0.077-0.234,0.153-0.422,0.246c-0.072,0.04-0.219,0.101-0.344,0.144c-0.1,0.031-0.213,0.057-0.321,0.074
							c-0.129,0.022-0.391,0.022-0.575-0.006c0.156,0.003,0.312,0.006,0.469,0.012c-0.448,0.037-0.958,0.07-1.594-0.112
							c-0.652-0.174-1.221-0.67-1.484-0.988c-0.538-0.639-0.745-0.892-1.206-1.185l-0.221-0.14l-0.022-0.022
							c-1.017-1.032-2.355-1.543-3.947-1.646c-1.584-0.111-3.313,0.099-5.059,0.351c0.085-0.056,0.17-0.112,0.267-0.137
							c-1.97,0.737-3.964,1.425-5.646,2.43l-0.1,0.083c-0.571,0.241-1.125,0.493-1.853,0.657c-0.36,0.07-0.853,0.133-1.372-0.09
							c-0.508-0.23-0.777-0.592-0.974-0.865c-0.388-0.57-0.643-1.068-0.956-1.567l-0.913-1.552
							c-0.598-1.017-1.215-2.015-1.912-2.931c-0.349-0.455-0.72-0.889-1.123-1.252c-0.396-0.356-0.866-0.639-1.197-0.476
							c0.027-0.053,0.053-0.106,0.095-0.116c-0.522,0.157-1.011,0.611-1.415,1.131c-0.407,0.526-0.747,1.13-1.051,1.752
							c-0.605,1.251-1.07,2.59-1.483,3.941c-0.827,2.708-1.397,5.5-2.025,8.275c0.467-2.805,0.876-5.624,1.552-8.403
							c0.339-1.389,0.73-2.771,1.286-4.114c0.282-0.67,0.603-1.332,1.028-1.955c0.429-0.609,0.964-1.233,1.785-1.552l0.104,0.029
							c0.843-0.082,1.451,0.355,1.955,0.729c0.504,0.403,0.935,0.854,1.339,1.319c0.803,0.934,1.501,1.928,2.172,2.926l0.99,1.475
							c0.349,0.492,0.68,1.033,0.993,1.432c0.155,0.202,0.3,0.312,0.357,0.318c0.047,0.017,0.185,0.015,0.402-0.043
							c0.437-0.124,0.968-0.383,1.54-0.507c-0.057-0.024-0.115-0.048-0.145-0.031c1.868-1.288,3.857-2.104,5.78-2.983l0.018-0.008
							l0.252-0.036c1.723-0.246,3.479-0.584,5.406-0.57c0.96,0.013,1.972,0.137,2.958,0.473c0.987,0.33,1.918,0.886,2.619,1.644
							c-0.055-0.083-0.108-0.166-0.181-0.219c0.771,0.377,1.524,1.161,1.903,1.57c0.205,0.194,0.208,0.155,0.242,0.157
							c0.042,0.006,0.245,0.005,0.486-0.038l0.205,1.279c0.021-0.067,0.01-0.103-0.002-0.188c-0.009-0.1-0.035-0.188-0.075-0.28
							c-0.036-0.13-0.083-0.256-0.142-0.375l-0.175-0.366c-0.006,0,0.048-0.037,0.096-0.076c0.103-0.081,0.231-0.191,0.361-0.311
							c0.96-0.716,1.952-1.628,2.94-2.513c0.478-0.44,1.072-0.949,1.607-1.346c0.549-0.419,1.115-0.828,1.713-1.207
							c0.599-0.378,1.226-0.733,1.915-1.019c0.688-0.28,1.449-0.51,2.307-0.483c0.856,0.007,1.771,0.448,2.294,1.093
							c0.539,0.634,0.812,1.347,1.005,2.036l0.116,0.063C73.282,37.727,72.889,41.312,73.867,44.829z"/>
					</g>
				</g>
			</g>
			<g>
				<g>
					<g>
						<path style="fill:#231F20;" d="M22.931,56.888c0,0-0.192-0.819-0.353-1.64c-0.172-0.81-0.344-1.62-0.344-1.62
							c0,0.001,0.727-1.324,1.308-2.689c0.285-0.682,0.521-1.381,0.597-1.921c0.04-0.271,0.054-0.479,0.019-0.656
							c-0.035-0.166-0.054-0.26-0.054-0.26s0.061,0.075,0.167,0.205c0.1,0.117,0.229,0.375,0.324,0.66
							c0.206,0.579,0.331,1.386,0.399,2.186c0.125,1.6,0.089,3.178,0.089,3.178s-0.542,0.643-1.083,1.285
							C23.45,56.244,22.931,56.888,22.931,56.888z"/>
					</g>
				</g>
			</g>
			<g>
				<g>
					<g>
						<path style="fill:#231F20;" d="M77.158,53.906c0,0-0.165-0.081-0.413-0.202c-0.26-0.121-0.6-0.311-0.908-0.532
							c-0.33-0.213-0.643-0.446-0.862-0.626c-0.229-0.182-0.382-0.303-0.382-0.303s-0.104-0.349-0.241-0.863
							c-0.144-0.514-0.297-1.193-0.465-1.858c-0.3-1.326-0.77-2.636-0.769-2.636c0,0,0.965,0.991,1.822,2.117
							c0.437,0.547,0.854,1.096,1.18,1.483c0.32,0.392,0.537,0.638,0.537,0.638s0.015,0.174,0.035,0.435
							c0.019,0.27,0.056,0.615,0.117,0.955c0.046,0.357,0.13,0.696,0.213,0.95C77.104,53.729,77.158,53.906,77.158,53.906z"/>
					</g>
				</g>
			</g>
			<g>
				<g>
					<path style="fill:#231F20;" d="M36.435,56.983c3.319,0,3.319-5.146,0-5.146S33.116,56.983,36.435,56.983L36.435,56.983z"/>
				</g>
			</g>
			<g>
				<g>
					<path style="fill:#231F20;" d="M62.594,55.272c3.318,0,3.318-5.146,0-5.146S59.275,55.272,62.594,55.272L62.594,55.272z"/>
				</g>
			</g>
			<g>
				<g>
					<path style="fill:#231F20;" d="M32.143,57.219c0.836,0,0.836-1.297,0-1.297S31.307,57.219,32.143,57.219L32.143,57.219z"/>
				</g>
			</g>
			<g>
				<g>
					<g>
						<path style="fill:#231F20;" d="M85.76,53.131l-2.051,2.835c0,0.001-1.561,0.729-3.208,1.235
							c-0.809,0.263-1.685,0.44-2.29,0.528c-0.621,0.073-1.035,0.122-1.035,0.122s0.372-0.189,0.93-0.474
							c0.558-0.307,1.223-0.72,1.866-1.225c1.283-0.981,2.426-2.135,2.426-2.135L85.76,53.131z"/>
					</g>
				</g>
			</g>
			<g>
				<g>
					<g>
						<path style="fill:#231F20;" d="M86.039,61.282l-2.96,1.565c0,0-1.588-0.045-3.132-0.294c-1.554-0.203-3.107-0.406-3.107-0.406
							s1.522-0.383,3.046-0.767c0.759-0.196,1.53-0.363,2.078-0.568c0.554-0.184,0.922-0.306,0.922-0.306L86.039,61.282z"/>
					</g>
				</g>
			</g>
			<g>
				<g>
					<g>
						<path style="fill:#231F20;" d="M27.118,61.282c0,0-0.288-0.116-0.726-0.259c-0.438-0.144-1.028-0.314-1.622-0.471
							c-1.187-0.314-2.385-0.582-2.385-0.582s-2.047-1.277-4.16-2.478c-1.054-0.602-2.117-1.189-2.924-1.61
							c-0.403-0.212-0.743-0.381-0.984-0.49c-0.233-0.117-0.413-0.148-0.339-0.093c0.001-0.001-0.008-0.006-0.018-0.021
							c0-0.029,0.045-0.024,0.076-0.023c0.073,0.005,0.177,0.022,0.309,0.05c0.263,0.054,0.634,0.145,1.078,0.263
							c0.887,0.235,2.061,0.575,3.23,0.933c2.34,0.709,4.665,1.52,4.665,1.52s0.992,0.768,1.953,1.574
							c0.481,0.403,0.952,0.817,1.294,1.139C26.908,61.055,27.118,61.282,27.118,61.282z"/>
					</g>
				</g>
			</g>
			<g>
				<g>
					<g>
						<path style="fill:#231F20;" d="M28.534,65.68c0,0-0.29,0.006-0.724,0.015c-0.434,0.019-0.988-0.001-1.557,0.081
							c-1.118,0.102-2.229,0.309-2.229,0.309s-0.528-0.131-1.361-0.301c-0.819-0.182-1.95-0.395-3.061-0.712
							c-0.555-0.146-1.109-0.305-1.622-0.508c-0.509-0.192-0.987-0.339-1.356-0.544c-0.76-0.372-1.266-0.62-1.266-0.62
							s0.553,0.108,1.383,0.271c0.413,0.104,0.905,0.119,1.414,0.17c0.504,0.061,1.056,0.069,1.61,0.067
							c1.1,0.02,2.206-0.063,3.056-0.101c0.84-0.05,1.424-0.062,1.424-0.062s1.119,0.383,2.205,0.872
							c0.545,0.211,1.063,0.524,1.448,0.72C28.28,65.543,28.534,65.68,28.534,65.68z"/>
					</g>
				</g>
			</g>
		</g>
		<g>
			<g>
				<g>
					<path d="M59.265,61.779c0,0,0.02,0.12,0.054,0.331c0.018,0.213,0.05,0.522,0.003,0.895c-0.067,0.743-0.459,1.739-1.216,2.478
						c-0.735,0.751-1.801,1.184-2.647,1.213c-0.423,0.028-0.779-0.029-1.024-0.079c-0.246-0.054-0.381-0.103-0.381-0.103
						c-0.695-0.298-1.261-0.795-1.721-1.327c0.252,0.021,0.504,0.043,0.761,0.072c-0.946,0.678-1.695,1.943-2.844,2.828
						c-0.567,0.449-1.325,0.783-2.093,0.739c-0.767-0.032-1.437-0.367-2.073-0.66c0.025-0.027,0.05-0.056,0.059-0.051
						c-0.893-0.462-1.451-1.395-1.638-2.3c-0.215-0.911-0.271-1.826-0.413-2.733c0.218,0.891,0.356,1.808,0.639,2.667
						c0.268,0.864,0.82,1.607,1.625,1.944l0.004,0.03c0.57,0.317,1.194,0.551,1.8,0.521c0.605-0.02,1.152-0.312,1.611-0.736
						c0.957-0.851,1.5-2.082,2.667-3.119l0.319-0.284l0.389,0.392c0.401,0.403,0.863,0.721,1.361,0.873c0,0,0.346,0.217,0.961,0.287
						c0.609,0.08,1.504-0.104,2.237-0.642c0.743-0.521,1.253-1.355,1.427-2.045c0.101-0.344,0.117-0.646,0.134-0.856
						C59.265,61.9,59.265,61.779,59.265,61.779z"/>
				</g>
			</g>
		</g>
	</g>
	<g style="opacity:0.7;">
		<path style="opacity:0.5;fill-rule:evenodd;clip-rule:evenodd;fill:#FFDE17;" d="M67.359,25.486c0-0.243,0.207-0.206,0.376-0.206
			c0.952-0.009,1.813-0.243,2.616-0.767c1.064-0.701,1.665-1.738,2.002-2.944c0.131-0.448,0.225-0.917,0.316-1.374
			c0.018-0.037,0.057-0.075,0.149-0.196c0.021,0.289,0.038,0.486,0.058,0.672c0.093,2.235,1.513,3.75,3.347,4.292
			c0.486,0.141,0.989,0.206,1.496,0.317c0.11,0.027,0.224,0.104,0.335,0.159c-0.129,0.047-0.243,0.131-0.355,0.131
			c-1.082,0.019-2.074,0.318-2.934,0.981c-0.806,0.617-1.291,1.431-1.591,2.375c-0.188,0.589-0.279,1.206-0.428,1.926
			c-0.077-0.337-0.189-0.589-0.208-0.832c-0.146-2.038-1.458-3.562-3.291-4.113C68.632,25.73,67.997,25.627,67.359,25.486z"/>
		<path style="opacity:0.5;fill-rule:evenodd;clip-rule:evenodd;fill:#FFDE17;" d="M57.581,33.929
			c-0.729-0.01-1.271-0.543-1.271-1.263c0-0.691,0.58-1.29,1.252-1.262c0.73,0.027,1.272,0.57,1.272,1.281
			C58.835,33.377,58.273,33.929,57.581,33.929z"/>
		<path style="opacity:0.5;fill-rule:evenodd;clip-rule:evenodd;fill:#FFDE17;" d="M85.797,38.527c0,0.71-0.544,1.253-1.271,1.263
			c-0.675,0.01-1.254-0.57-1.254-1.252c0-0.712,0.544-1.244,1.271-1.244C85.272,37.294,85.797,37.817,85.797,38.527z"/>
		<path style="opacity:0.5;fill-rule:evenodd;clip-rule:evenodd;fill:#FFDE17;" d="M51.622,21.775
			c-0.009,0.7-0.57,1.253-1.292,1.234c-0.644-0.011-1.256-0.636-1.237-1.291c0.009-0.645,0.628-1.243,1.279-1.233
			C51.104,20.504,51.635,21.045,51.622,21.775z"/>
	</g>
</g>
</svg>
