<?xml version="1.0" encoding="UTF-8"?>
<svg width="334px" height="128px" viewBox="0 0 334 128" version="1.1" xmlns="http://www.w3.org/2000/svg" xmlns:xlink="http://www.w3.org/1999/xlink">
    <!-- Generator: Sketch 61.2 (89653) - https://sketch.com -->
    <title>Group 17</title>
    <desc>Created with Sketch.</desc>
    <g id="Page-1" stroke="none" stroke-width="1" fill="none" fill-rule="evenodd">
        <g id="SSUT" transform="translate(-149.000000, -1561.000000)">
            <g id="Group-17" transform="translate(149.000000, 1561.000000)">
                <polygon id="Fill-1" fill="#3D3D3C" points="134 127.631443 137 127.631443 137 0.631443299 134 0.631443299"></polygon>
                <polygon id="Fill-2" fill="#E28E45" points="39 52.6314433 19.4363488 41.6314433 0 52.6314433 19.5636512 63.6314433"></polygon>
                <polygon id="Fill-3" fill="#E28E45" points="115 52.6314433 95.4318023 41.6314433 76 52.6314433 95.5636512 63.6314433"></polygon>
                <polygon id="Fill-4" fill="#E28E45" points="39 74.6314433 58.5636512 85.6314433 78 74.6314433 58.4363488 63.6314433"></polygon>
                <polygon id="Fill-5" fill="#F4C75E" points="39 119.631443 57.9379809 108.263022 58 85.6314433 39.0620191 97.004441"></polygon>
                <polygon id="Fill-6" fill="#F4C75E" points="77 52.6314433 95.9335664 41.2599763 96 18.6314433 77.0664336 30.0029103"></polygon>
                <polygon id="Fill-7" fill="#F4C75E" points="58 41.6314433 39.0620191 52.9998644 39 75.6314433 57.9379809 64.2584456"></polygon>
                <polygon id="Fill-8" fill="#8C3C3F" points="58 108.261492 76.9427711 119.631443 77 97.0013948 58.0616311 85.6314433"></polygon>
                <polygon id="Fill-9" fill="#8C3C3F" points="20 41.2614918 38.9427843 52.6314433 39 30.0013948 20.0660181 18.6314433"></polygon>
                <polygon id="Fill-10" fill="#8C3C3F" points="77 53.0013948 58.0572289 41.6314433 58 64.2614918 76.9383689 75.6314433"></polygon>
                <polygon id="Fill-11" fill="#E28E45" points="77.7175115 30.1314433 96.8745271 18.8837073 77.5965198 7.6314433 58.4395042 18.8837073 39.1570157 7.6314433 20 18.8837073 39.2824885 30.1314433 20.1209917 41.3791793 39.398999 52.6314433 58.5604958 41.3791793 77.8385032 52.6314433 97 41.3791793"></polygon>
                <polygon id="Fill-12" fill="#8C3C3F" points="38.6861167 74.6581207 38.7489553 52.6759057 19.4395604 41.6314433 19.3767219 63.6181046 0.0673270392 52.5691959 0 74.5558572 19.3183718 85.6003196 19.2510447 107.582535 38.5604396 118.631443 38.6232781 96.6403358 57.9371614 107.689244 58 85.7025832"></polygon>
                <polygon id="Fill-13" fill="#F4C75E" points="96.6892576 63.6149277 96.7525123 41.6314433 77.4372517 52.6765435 77.3785152 74.6600279 58.0587365 85.7095746 58 107.693059 77.3152606 96.6479589 77.2474877 118.631443 96.5627483 107.59079 96.6214848 85.6028587 115.941264 74.5577585 116 52.5698275"></polygon>
                <path d="M179.37958,93.342268 L179.37958,88.0953352 L157,88.0953352 L157,93.342268 L165.164244,93.342268 L165.164244,116.099994 L171.255887,116.099994 L171.255887,93.342268 L179.37958,93.342268 Z M188.34583,93.342268 L203.520871,93.342268 L203.520871,88.0953352 L182.290232,88.0953352 L182.290232,116.099994 L203.520871,116.099994 L203.520871,110.853062 L188.34583,110.853062 L188.34583,104.876512 L201.75916,104.876512 L201.75916,99.5890454 L188.34583,99.5890454 L188.34583,93.342268 Z M234.41163,108.893906 L228.779563,106.714065 C227.089943,109.164135 224.215336,111.154816 221.115447,111.154816 C216.132194,111.154816 212.108646,106.903225 212.108646,102.11568 C212.108646,97.3281353 216.132194,93.1125739 221.115447,93.1125739 C224.215336,93.1125739 227.089943,95.0672253 228.779563,97.4812647 L234.41163,95.3014231 C231.72626,90.7390687 226.747513,87.6314433 221.115447,87.6314433 C212.798011,87.6314433 206.012497,94.148449 206.012497,102.11568 C206.012497,110.123445 212.798011,116.631443 221.115447,116.631443 C226.747513,116.631443 231.72626,113.528322 234.41163,108.893906 Z M263,88.0953352 L256.984953,88.0953352 L256.984953,99.9718688 L243.837456,99.9718688 L243.837456,88.0953352 L237.822409,88.0953352 L237.822409,116.099994 L243.837456,116.099994 L243.837456,105.218802 L256.984953,105.218802 L256.984953,116.099994 L263,116.099994 L263,88.0953352 Z" id="Fill-14" fill="#3D3D3C"></path>
                <path d="M161.210204,68.7538016 L158,73.3236332 C160.599592,75.5130666 164.573061,77.6314433 170.607347,77.6314433 C177.207347,77.6314433 181.715102,74.7980589 181.715102,69.0557925 C181.715102,61.6525765 174.5,61.0841232 169.951837,60.1470635 C167.437551,59.6141386 164.420408,59.1611523 164.420408,57.193771 C164.420408,55.0043376 167.477959,54.4758537 169.22898,54.4758537 C171.940816,54.4758537 174.72898,55.6083193 177.13551,57.3092381 L180.493878,52.7749349 C177.436327,50.5455321 174.347347,49.0755474 169.457959,49.0755474 C164.532653,49.0755474 158.386122,50.851964 158.386122,57.4247052 C158.386122,64.0374157 165.946939,65.3208767 169.457959,65.8848889 C172.708571,66.4489012 175.685306,67.0173545 175.685306,69.2112289 C175.685306,70.7567113 173.84898,72.2666654 170.526531,72.2666654 C167.320816,72.2666654 163.235102,70.4147511 161.210204,68.7538016 Z M204.819592,54.6668185 L204.819592,49.4930053 L182.518776,49.4930053 L182.518776,54.6668185 L190.654286,54.6668185 L190.654286,77.1029594 L196.72449,77.1029594 L196.72449,54.6668185 L204.819592,54.6668185 Z M200.846122,77.1029594 L207.49551,77.1029594 L209.632653,72.875088 L222.653061,72.875088 L224.87102,77.1029594 L231.47102,77.1029594 L216.160816,48.6314433 L200.846122,77.1029594 Z M212.609388,67.7723315 L216.160816,60.5556393 L219.748163,67.7723315 L212.609388,67.7723315 Z M239.112653,77.1029594 L239.112653,68.4873392 L243.238776,68.4873392 C245.528571,71.5116883 247.629796,74.269575 249.919592,77.1029594 L257.134694,77.1029594 C254.880816,74.158549 252.326122,70.832209 249.919592,67.8478292 C253.394694,66.3778445 255.608163,63.0914739 255.608163,59.0856546 C255.608163,53.4188859 251.522449,49.4930053 245.528571,49.4930053 L233.118776,49.4930053 L233.118776,77.1029594 L239.112653,77.1029594 Z M239.112653,63.313526 L239.112653,54.6668185 L245.528571,54.6668185 C249.07551,54.6668185 249.614286,57.6511983 249.614286,59.0856546 C249.614286,61.9590084 247.396327,63.313526 245.528571,63.313526 L239.112653,63.313526 Z M280.279592,54.6668185 L280.279592,49.4930053 L257.978776,49.4930053 L257.978776,54.6668185 L266.109796,54.6668185 L266.109796,77.1029594 L272.18449,77.1029594 L272.18449,54.6668185 L280.279592,54.6668185 Z M295.661633,77.5914739 C303.222449,77.5914739 308.111837,72.986114 308.111837,65.9204173 L308.111837,49.5285337 L302.077551,49.5285337 L302.077551,65.9204173 C302.077551,71.1341998 298.032245,72.4576301 295.661633,72.4576301 C293.214694,72.4576301 289.169388,71.1341998 289.169388,65.9204173 L289.169388,49.5285337 L283.135102,49.5285337 L283.135102,65.9204173 C283.135102,72.986114 288.064898,77.5914739 295.661633,77.5914739 Z M322.739592,49.4930053 L311.393878,49.4930053 L311.393878,77.1029594 L317.428163,77.1029594 L317.428163,69.0557925 L322.699184,69.0557925 C330.183673,69.0557925 334,64.8279211 334,59.3876454 C334,53.9118415 329.761633,49.4930053 322.739592,49.4930053 Z M323.574694,63.8819793 L317.428163,63.8819793 L317.428163,54.6668185 L322.964082,54.6668185 C326.210204,54.6668185 327.929796,57.0427756 327.929796,59.3876454 C327.929796,61.6525765 326.591837,63.8819793 323.574694,63.8819793 Z" id="Fill-15" fill="#3D3D3C"></path>
                <path d="M162.190731,30.3646251 L159,34.8859888 C161.583822,37.0522009 165.533188,39.143716 171.530869,39.143716 C178.090832,39.143716 182.571243,36.3403827 182.571243,30.663413 C182.571243,23.3343221 175.399909,22.7762918 170.879335,21.8447766 C168.380301,21.3175039 165.381461,20.873716 165.381461,18.9272009 C165.381461,16.7609888 168.420465,16.23811 170.160863,16.23811 C172.856249,16.23811 175.627499,17.3585645 178.019431,19.0414433 L181.357426,14.5552312 C178.318423,12.3494736 175.248182,10.8906857 170.388454,10.8906857 C165.493025,10.8906857 159.38378,12.6526554 159.38378,19.1512918 C159.38378,25.6938675 166.898732,26.963716 170.388454,27.5261403 C173.619347,28.0797766 176.578025,28.6422009 176.578025,30.8128069 C176.578025,32.3462918 174.752837,33.8402312 171.450543,33.8402312 C168.264275,33.8402312 164.203345,32.0079585 162.190731,30.3646251 Z M221.324115,11.3432615 L214.947117,11.3432615 L209.484943,25.5093221 L202.197582,10.6314433 L194.910222,25.5093221 L189.55515,11.3432615 L183.10675,11.3432615 L194.187287,39.6314433 L202.197582,23.413413 L210.127552,39.6314433 L221.324115,11.3432615 Z M224.854,38.6252312 L230.851681,38.6252312 L230.851681,11.303716 L224.854,11.303716 L224.854,38.6252312 Z M238.786113,30.3646251 L235.595383,34.8859888 C238.174743,37.0522009 242.124108,39.143716 248.121789,39.143716 C254.690678,39.143716 259.166626,36.3403827 259.166626,30.663413 C259.166626,23.3343221 251.995291,22.7762918 247.474718,21.8447766 C244.971222,21.3175039 241.972381,20.873716 241.972381,18.9272009 C241.972381,16.7609888 245.011385,16.23811 246.756246,16.23811 C249.451632,16.23811 252.222882,17.3585645 254.610352,19.0414433 L257.952809,14.5552312 C254.913806,12.3494736 251.843564,10.8906857 246.983836,10.8906857 C242.083945,10.8906857 235.9747,12.6526554 235.9747,19.1512918 C235.9747,25.6938675 243.489652,26.963716 246.983836,27.5261403 C250.210267,28.0797766 253.173407,28.6422009 253.173407,30.8128069 C253.173407,32.3462918 251.34822,33.8402312 248.045926,33.8402312 C244.855195,33.8402312 240.794265,32.0079585 238.786113,30.3646251 Z M265.619488,30.3646251 L262.428757,34.8859888 C265.01258,37.0522009 268.961945,39.143716 274.959626,39.143716 C281.51959,39.143716 286,36.3403827 286,30.663413 C286,23.3343221 278.828666,22.7762918 274.308092,21.8447766 C271.804596,21.3175039 268.810218,20.873716 268.810218,18.9272009 C268.810218,16.7609888 271.844759,16.23811 273.58962,16.23811 C276.285007,16.23811 279.051794,17.3585645 281.448189,19.0414433 L284.786184,14.5552312 C281.751643,12.3494736 278.676939,10.8906857 273.817211,10.8906857 C268.921782,10.8906857 262.812537,12.6526554 262.812537,19.1512918 C262.812537,25.6938675 270.323026,26.963716 273.817211,27.5261403 C277.043642,28.0797766 280.002319,28.6422009 280.002319,30.8128069 C280.002319,32.3462918 278.181595,33.8402312 274.8793,33.8402312 C271.693032,33.8402312 267.632102,32.0079585 265.619488,30.3646251 Z" id="Fill-16" fill="#3D3D3C"></path>
            </g>
        </g>
    </g>
</svg>