<?xml version="1.0" encoding="iso-8859-1"?>
<!-- Generator: Adobe Illustrator 16.0.0, SVG Export Plug-In . SVG Version: 6.00 Build 0)  -->
<!DOCTYPE svg PUBLIC "-//W3C//DTD SVG 1.0//EN" "http://www.w3.org/TR/2001/REC-SVG-20010904/DTD/svg10.dtd">
<svg version="1.0" id="Layer_1" xmlns="http://www.w3.org/2000/svg" xmlns:xlink="http://www.w3.org/1999/xlink" x="0px" y="0px"
	 width="63.057px" height="64.086px" viewBox="0 0 63.057 64.086" style="enable-background:new 0 0 63.057 64.086;"
	 xml:space="preserve">
<style type="text/css">
<![CDATA[
	.st0{fill:none;stroke:#231F20;stroke-width:1.0299;stroke-miterlimit:10;}
	.st1{fill:none;stroke:#231F20;stroke-width:1.0332;stroke-miterlimit:10;}
]]>
</style>
<g>
	<path class="st0" d="M53.215,54.693c5.754-5.771,9.327-13.821,9.327-22.73c0-8.939-3.597-17.013-9.386-22.788L31.641,31.903
		L53.215,54.693z"/>
	<path class="st0" d="M10.011,9.175C4.223,14.95,0.626,23.026,0.626,31.963c0,8.909,3.573,16.96,9.326,22.73l21.575-22.79
		L10.011,9.175z"/>
	<path class="st0" d="M3.97,61.014h15.053c-3.387-1.546-6.453-3.697-9.07-6.32L3.97,61.014z"/>
	<path class="st0" d="M53.215,54.693c-2.616,2.623-5.683,4.774-9.07,6.32h15.054L53.215,54.693z"/>
	<path class="st0" d="M4.253,2.794l6.041,6.381c2.672-2.666,5.811-4.84,9.277-6.381H4.253z"/>
	<path class="st0" d="M58.855,2.794H43.536c3.468,1.541,6.606,3.715,9.277,6.381L58.855,2.794z"/>
	<ellipse class="st1" cx="31.527" cy="32.043" rx="31.01" ry="31.526"/>
</g>
</svg>
