<?xml version="1.0" encoding="utf-8"?>
<!-- Generator: Adobe Illustrator 16.0.0, SVG Export Plug-In . SVG Version: 6.00 Build 0)  -->
<!DOCTYPE svg PUBLIC "-//W3C//DTD SVG 1.1//EN" "http://www.w3.org/Graphics/SVG/1.1/DTD/svg11.dtd">
<svg version="1.1" id="Layer_1" xmlns="http://www.w3.org/2000/svg" xmlns:xlink="http://www.w3.org/1999/xlink" x="0px" y="0px"
	 width="1000px" height="1000px" viewBox="0 0 1000 1000" enable-background="new 0 0 1000 1000" xml:space="preserve">
<g>
	<path fill="none" stroke="#231F20" stroke-width="11.9781" stroke-miterlimit="10" d="M752.211,763.435
		c66.918-67.125,108.478-160.746,108.478-264.365c0-103.962-41.843-197.863-109.161-265.032L501.295,498.373L752.211,763.435z"/>
	<path fill="none" stroke="#231F20" stroke-width="11.9781" stroke-miterlimit="10" d="M249.733,234.038
		c-67.318,67.169-109.149,161.093-109.149,265.032c0,103.619,41.559,197.25,108.466,264.365l250.915-265.062L249.733,234.038z"/>
	<path fill="none" stroke="#231F20" stroke-width="11.9781" stroke-miterlimit="10" d="M179.473,836.942h175.069
		c-39.389-17.98-75.052-43.004-105.479-73.508L179.473,836.942z"/>
	<path fill="none" stroke="#231F20" stroke-width="11.9781" stroke-miterlimit="10" d="M752.211,763.435
		c-30.43,30.504-66.093,55.516-105.493,73.508h175.095L752.211,763.435z"/>
	<path fill="none" stroke="#231F20" stroke-width="11.9781" stroke-miterlimit="10" d="M182.767,159.827l70.259,74.211
		c31.074-31.007,67.579-56.288,107.888-74.211H182.767z"/>
	<path fill="none" stroke="#231F20" stroke-width="11.9781" stroke-miterlimit="10" d="M817.802,159.827H639.644
		c40.333,17.923,76.825,43.204,107.887,74.211L817.802,159.827z"/>
	<path fill="none" stroke="#231F20" stroke-width="12.0165" stroke-miterlimit="10" d="M499.965,133.347
		c199.194,0,360.666,164.159,360.666,366.655c0,202.497-161.472,366.651-360.666,366.651c-199.18,0-360.653-164.154-360.653-366.651
		C139.312,297.506,300.786,133.347,499.965,133.347z"/>
</g>
</svg>
