<?xml version="1.0" encoding="iso-8859-1"?>
<!-- Generator: Adobe Illustrator 16.0.0, SVG Export Plug-In . SVG Version: 6.00 Build 0)  -->
<!DOCTYPE svg PUBLIC "-//W3C//DTD SVG 1.0//EN" "http://www.w3.org/TR/2001/REC-SVG-20010904/DTD/svg10.dtd">
<svg version="1.0" id="Layer_1" xmlns="http://www.w3.org/2000/svg" xmlns:xlink="http://www.w3.org/1999/xlink" x="0px" y="0px"
	 width="63.105px" height="72.73px" viewBox="0 0 63.105 72.73" style="enable-background:new 0 0 63.105 72.73;"
	 xml:space="preserve">
<style type="text/css">
<![CDATA[
	.st0{fill:none;stroke:#231F20;stroke-width:1.0325;stroke-miterlimit:10;}
	.st1{fill:#231F20;}
	.st2{clip-path:url(#SVGID_2_);fill:#231F20;}
	.st3{clip-path:url(#SVGID_2_);fill:#231F20;stroke:#FFFFFF;stroke-width:0.0467;stroke-miterlimit:10;}
	.st4{fill:none;stroke:#231F20;stroke-width:1.0341;stroke-miterlimit:10;}
]]>
</style>
<g>
	<g>
		<defs>
			<path id="SVGID_1_" d="M29.94,56.991v2.883h3.289v-2.883 M30.713,47.887l-5.345,5.351c-0.482,0.481-0.482,1.263,0,1.745
				c0.231,0.233,0.543,0.362,0.872,0.362c0.144,0,0.279-0.028,0.41-0.074v4.603c0,0.452,0.37,0.821,0.824,0.821h1.644
				c0.453,0,0.822-0.369,0.822-0.821h-2.466v-5.252l4.11-4.114l4.112,4.114v5.252h-2.468c0,0.452,0.369,0.821,0.822,0.821h1.646
				c0.452,0,0.822-0.369,0.822-0.821v-4.603c0.129,0.046,0.268,0.074,0.41,0.074c0.33,0,0.641-0.129,0.873-0.362
				c0.48-0.482,0.48-1.264,0-1.745l-5.345-5.351c-0.233-0.232-0.555-0.351-0.873-0.351C31.266,47.537,30.946,47.655,30.713,47.887"
				/>
		</defs>
		<use xlink:href="#SVGID_1_"  style="overflow:visible;fill:#231F20;"/>
		<clipPath id="SVGID_2_">
			<use xlink:href="#SVGID_1_"  style="overflow:visible;"/>
		</clipPath>
		<path class="st2" d="M19.285,36.394c-6.785,0-12.293,5.116-12.293,11.421c0,12.827,13.925,16.19,23.414,28.87
			c8.972-12.602,23.416-16.451,23.416-28.87c0-6.305-5.508-11.421-12.293-11.421c-4.922,0-9.158,2.7-11.123,6.584
			C28.444,39.094,24.207,36.394,19.285,36.394"/>
		<path class="st3" d="M19.285,36.394c-6.785,0-12.293,5.116-12.293,11.421c0,12.827,13.925,16.19,23.414,28.87
			c8.972-12.602,23.416-16.451,23.416-28.87c0-6.305-5.508-11.421-12.293-11.421c-4.922,0-9.158,2.7-11.123,6.584
			C28.444,39.094,24.207,36.394,19.285,36.394z"/>
	</g>
	<path class="st1" d="M13.227,35.904c0.006-0.021,0.027-0.014,0.028,0c0.254,1.45,0.469,3.729-0.051,6.701
		c-0.197,1.127-0.444,2.192-0.41,3.617c0.003,0.106-0.055,0.229-0.084,0.346c-0.033-0.141-0.093-0.28-0.094-0.423
		c-0.016-2.049-0.017-4.108,0.275-5.983C13.101,38.815,13.26,37.458,13.227,35.904"/>
	<path class="st1" d="M13.267,35.966c0,0-0.815-2.256-2.224-4.037c-1.438-1.819-3.076-3.479-5.104-2.068
		c0,0,1.775-1.279,3.677,0.646c2.698,2.734,3.596,5.408,3.613,5.529L13.267,35.966z"/>
	<polygon class="st1" points="8.602,29.699 6.641,31.302 8.668,29.751 	"/>
	<polygon class="st1" points="8.777,29.82 6.988,31.36 8.689,29.783 	"/>
	<polygon class="st1" points="8.499,29.673 6.863,30.935 8.602,29.699 	"/>
	<path class="st1" d="M7.927,29.456c0,0-0.853,0.802-1.306,1.458c0,0,0.982-1.115,1.385-1.413L7.927,29.456z"/>
	<path class="st1" d="M7.725,29.394c0,0-0.73,0.395-1.201,1.215c0,0,0.765-0.979,1.335-1.184L7.725,29.394z"/>
	<path class="st1" d="M8.134,29.494c0,0-0.824,0.821-1.094,1.216c0,0,0.956-1.032,1.203-1.164L8.134,29.494z"/>
	<path class="st1" d="M8.366,29.576c0,0-0.689,0.598-1.055,1.162c0,0,0.812-0.926,1.124-1.133L8.366,29.576z"/>
	<path class="st1" d="M7.521,29.395c0,0-0.714,0.233-1.263,0.765c0,0,0.825-0.578,1.39-0.76L7.521,29.395z"/>
	<path class="st1" d="M7.255,29.394c0,0-0.447,0.107-0.9,0.455c0,0,0.793-0.393,1.107-0.418L7.255,29.394z"/>
	<path class="st1" d="M7.976,29.429c0,0,0.024-0.34-0.566-0.446c0,0,0.473,0.179,0.449,0.442L7.976,29.429z"/>
	<path class="st1" d="M7.764,29.416c0,0-0.581-0.297-1.436,0.018c0,0,0.851-0.226,1.388,0.01L7.764,29.416z"/>
	<path class="st1" d="M7.858,29.425c0,0-0.278-0.311-0.912-0.287c0,0,0.6,0.107,0.817,0.277L7.858,29.425z"/>
	<path class="st1" d="M8.436,29.605c0,0-0.307-0.701-1.202-0.652c0,0,0.734,0.014,1.133,0.623L8.436,29.605z"/>
	<path class="st1" d="M8.668,29.751c0,0-0.238-0.928-1.42-0.693c0,0,1.013-0.174,1.354,0.641L8.668,29.751z"/>
	<path class="st1" d="M7.799,28.951c0,0,1.081-0.133,1.122,0.94l-0.075-0.057C8.846,29.834,8.873,28.984,7.799,28.951"/>
	<path class="st1" d="M9.104,30.013c0,0,0.011-0.753-0.637-0.964c0,0,0.566,0.37,0.561,0.907L9.104,30.013z"/>
	<path class="st1" d="M8.921,29.891l-1.357,1.062c0,0,1.164-0.803,1.407-1.037L8.921,29.891z"/>
	<path class="st1" d="M9.027,29.957c0,0-0.984,0.819-1.812,1.283c0,0,1.179-0.581,1.888-1.227L9.027,29.957z"/>
	<path class="st1" d="M9.162,30.041c0,0-0.99,1.049-2.093,1.496c0,0,1.091-0.322,2.139-1.447L9.162,30.041z"/>
	<path class="st1" d="M9.274,30.132c0,0-0.679,0.792-1.896,1.352c0,0,1.056-0.305,1.952-1.3L9.274,30.132z"/>
	<path class="st1" d="M9.388,30.224c0,0-0.911,1.018-1.791,1.287c0,0,0.887-0.127,1.824-1.229L9.388,30.224z"/>
	<path class="st1" d="M9.482,30.298c0,0-0.646,0.904-1.73,1.43c0,0,0.925-0.221,1.754-1.322L9.482,30.298z"/>
	<path class="st1" d="M9.274,30.132c0,0,0.026-0.582-0.453-0.905c0,0,0.547,0.302,0.509,0.957L9.274,30.132z"/>
	<path class="st1" d="M9.482,30.298c0,0-0.072-0.709-0.676-0.922c0,0,0.688,0.221,0.768,1.009L9.482,30.298z"/>
	<path class="st1" d="M9.895,30.693c0,0-0.188-0.891-0.771-1.237c0,0,0.585,0.578,0.677,1.164L9.895,30.693z"/>
	<path class="st1" d="M10.133,30.983c0,0-0.251-1.086-1.048-1.294c0,0,0.899,0.105,1.225,1.451L10.133,30.983z"/>
	<path class="st1" d="M10.535,31.376c0,0,0.043-0.873-0.645-1.413c0,0,0.596,0.646,0.56,1.354L10.535,31.376z"/>
	<path class="st1" d="M9.576,30.436c0,0-0.451,0.887-1.613,1.319c0,0,1.115-0.161,1.707-1.244L9.576,30.436z"/>
	<path class="st1" d="M9.755,30.57c0,0-1.017,1.453-2.518,1.609c0,0,1.476-0.01,2.562-1.56L9.755,30.57z"/>
	<path class="st1" d="M9.895,30.693c0,0-0.631,1.062-1.787,1.52c0,0,1.352-0.525,1.853-1.4L9.895,30.693z"/>
	<path class="st1" d="M10.028,30.855c0,0-0.729,1.268-2.022,1.705c0,0,1.439-0.428,2.072-1.629L10.028,30.855z"/>
	<path class="st1" d="M10.133,30.983c0,0-0.441,0.967-1.489,1.529c0,0,1.013-0.366,1.529-1.444L10.133,30.983z"/>
	<path class="st1" d="M10.31,31.14c0,0-0.436,0.982-1.448,1.412c0,0,1.101-0.626,1.376-1.492L10.31,31.14z"/>
	<path class="st1" d="M10.078,30.931c0,0-0.791,1.252-1.565,1.6c0,0,1.128-0.543,1.62-1.548L10.078,30.931z"/>
	<polygon class="st1" points="9.863,30.75 8.326,31.564 9.96,30.812 	"/>
	<path class="st1" d="M10.45,31.316c0,0-0.618,1.18-1.726,1.408c0,0,1.181-0.402,1.646-1.504L10.45,31.316z"/>
	<path class="st1" d="M10.526,31.437c0,0-0.365,0.947-1.286,1.336c0,0,0.782-0.141,1.354-1.229L10.526,31.437z"/>
	<path class="st1" d="M10.686,31.63c0,0-0.431,0.957-1.633,1.365c0,0,1.128-0.414,1.574-1.404L10.686,31.63z"/>
	<path class="st1" d="M10.828,31.793c0,0-0.492,1.134-1.507,1.319c0,0,0.97-0.299,1.452-1.371L10.828,31.793z"/>
	<path class="st1" d="M10.901,31.926c0,0-0.35,1.233-1.393,1.462c0,0,0.98-0.359,1.319-1.595L10.901,31.926z"/>
	<path class="st1" d="M10.993,32.013c0,0-0.449,1.502-1.572,1.764c0,0,1.114-0.455,1.519-1.879L10.993,32.013z"/>
	<path class="st1" d="M11.105,32.168c0,0-0.557,1.387-1.866,1.296c0,0,1.396-0.041,1.82-1.396L11.105,32.168z"/>
	<path class="st1" d="M11.199,32.307c0,0,0.015,0.848-0.912,1.466c0,0,0.777-0.615,0.88-1.589L11.199,32.307z"/>
	<path class="st1" d="M11.339,32.43c-0.005-0.039,0.01,1.065-0.904,1.609c0,0,0.724-0.488,0.869-1.721L11.339,32.43z"/>
	<path class="st1" d="M11.456,32.614c0,0,0.021,0.875-0.643,1.327c0,0,0.604-0.594,0.597-1.429L11.456,32.614z"/>
	<path class="st1" d="M10.719,31.677c0,0-0.427,1.123-1.704,1.476c0,0,1.303-0.435,1.612-1.562L10.719,31.677z"/>
	<path class="st1" d="M11.557,32.843c0,0-0.103,1.152-0.786,1.726c0,0,0.724-0.858,0.712-1.858L11.557,32.843z"/>
	<path class="st1" d="M11.661,32.919c0,0-0.163,1.33-0.785,1.842c0,0,0.648-0.854,0.724-1.92L11.661,32.919z"/>
	<path class="st1" d="M11.732,33.064c0,0-0.091,0.965-0.621,1.564c0,0,0.581-0.895,0.55-1.709L11.732,33.064z"/>
	<path class="st1" d="M11.803,33.146c0,0-0.106,1.062-0.649,1.556c0,0,0.547-0.392,0.726-1.435L11.803,33.146z"/>
	<path class="st1" d="M11.009,31.927c0,0-0.31-1.189-1.203-1.78c0,0,0.886,0.69,1.134,1.751L11.009,31.927z"/>
	<path class="st1" d="M11.136,32.125c0,0-0.455-1.34-1.692-2.105c0,0,1.285,1.046,1.616,2.049L11.136,32.125z"/>
	<polygon class="st1" points="8.846,29.834 7.94,30.624 8.896,29.847 	"/>
	<polygon class="st1" points="8.006,29.5 7.339,30.208 8.134,29.494 	"/>
	<path class="st1" d="M11.119,32.219c0,0-0.4,1.247-1.239,1.687c0,0,0.865-0.352,1.319-1.599L11.119,32.219z"/>
	<path class="st1" d="M11.375,32.524c0,0-0.217,0.96-0.925,1.333c0,0,0.658-0.339,0.889-1.427L11.375,32.524z"/>
	<path class="st1" d="M11.902,33.327c0,0,0.002,0.905-0.489,1.286c0,0,0.363-0.026,0.556-1.197L11.902,33.327z"/>
	<path class="st1" d="M12.038,33.539c0,0-0.038,0.833-0.495,1.269c0,0,0.485-0.644,0.451-1.36L12.038,33.539z"/>
	<path class="st1" d="M11.245,32.402c0,0-0.236,1.252-1.023,1.428c0,0,0.724,0.014,1.087-1.367L11.245,32.402z"/>
	<path class="st1" d="M10.452,31.347c0,0-0.206,0.989-0.936,1.572c0,0,0.72-0.621,0.876-1.658L10.452,31.347z"/>
	<path class="st1" d="M13.253,35.841c0,0-0.841-7.967,0.774-8.969c0,0-1.489,1.047-0.678,8.983
		C13.35,35.856,13.285,36.123,13.253,35.841"/>
	<path class="st1" d="M13.075,30.792c0,0-0.795-1.155-1.924-2.515c0,0,1.457,1.539,1.933,2.456L13.075,30.792z"/>
	<path class="st1" d="M13.065,30.863c0,0-0.713-1.135-1.583-1.994c0,0,1.292,1.531,1.586,2.135L13.065,30.863z"/>
	<path class="st1" d="M13.083,30.65c0,0-0.828-1.366-1.519-2.182c0,0,0.879,0.93,1.535,2.076L13.083,30.65z"/>
	<path class="st1" d="M13.068,31.003c0,0-0.669-1.275-1.924-1.926c0,0,1.339,0.895,1.915,2.007L13.068,31.003z"/>
	<path class="st1" d="M13.072,31.225c0,0-0.492-1.278-1.87-1.597c0,0,1.24,0.309,1.861,1.715L13.072,31.225z"/>
	<path class="st1" d="M13.099,30.427c0,0-0.649-1.242-1.14-1.816c0,0,0.932,1.139,1.146,1.698L13.099,30.427z"/>
	<path class="st1" d="M13.104,30.192c0,0-0.463-1.292-1.295-1.835c0,0,0.968,0.48,1.313,1.766L13.104,30.192z"/>
	<path class="st1" d="M13.118,29.875c0,0-0.362-1.131-1.267-1.861c0,0,0.923,0.659,1.294,1.755L13.118,29.875z"/>
	<path class="st1" d="M13.101,30.051c0,0-0.107-1.16-0.878-2.093c0,0,0.729,0.699,0.904,1.88L13.101,30.051z"/>
	<path class="st1" d="M13.105,29.664c0,0-0.544-1.35-0.468-2.15c0,0,0.055,1.009,0.505,2.043L13.105,29.664z"/>
	<path class="st1" d="M13.159,29.416c0,0-0.492-1.292-0.294-2.365c0,0-0.134,0.872,0.3,2.235L13.159,29.416z"/>
	<path class="st1" d="M13.184,29.144c0,0-0.436-1.398,0-2.289c0,0-0.308,0.841,0.038,2.194L13.184,29.144z"/>
	<path class="st1" d="M13.23,28.92c0,0-0.328-1.93,0.459-2.407c0,0-0.64,0.498-0.414,2.275L13.23,28.92z"/>
	<path class="st1" d="M13.28,28.532c0,0-0.105-1.113,0.374-1.677c0,0-0.394,0.503-0.324,1.64L13.28,28.532z"/>
	<path class="st1" d="M11.422,29.914c0,0,1.372,0.52,1.666,1.628l-0.008,0.142C13.08,31.683,12.739,30.635,11.422,29.914"/>
	<path class="st1" d="M11.107,29.818c0,0,1.725,1.074,1.98,1.724l-0.008,0.142C13.08,31.683,12.914,31.148,11.107,29.818"/>
	<path class="st1" d="M13.095,32.587c0,0-0.616-1.712-2.233-2.248c0,0,1.637,0.513,2.23,2.072L13.095,32.587z"/>
	<path class="st1" d="M13.066,32.107c0,0-0.722-1.568-2.02-1.865c0,0,1.455,0.258,2.008,1.713L13.066,32.107z"/>
	<path class="st1" d="M13.095,32.587c0,0-0.66-1.369-2.183-1.603c0,0,1.713,0.452,2.166,1.755L13.095,32.587z"/>
	<path class="st1" d="M13.114,33.127c0,0-0.619-1.265-1.645-1.558c0,0,1.054,0.221,1.641,1.346L13.114,33.127z"/>
	<path class="st1" d="M13.037,32.671c0,0-0.476-0.928-1.549-1.277c0,0,1.15,0.301,1.577,1.219L13.037,32.671z"/>
	<path class="st1" d="M13.141,33.502c0,0-0.612-1.44-2.272-1.612c0,0,1.368-0.221,2.258,1.379L13.141,33.502z"/>
	<path class="st1" d="M13.134,33.678c0,0-0.464-1.28-1.653-1.557c0,0,1.234,0.534,1.675,1.731L13.134,33.678z"/>
	<path class="st1" d="M13.11,32.916c0,0,0.628-3.444,2.271-3.602c0,0-1.493-0.269-2.274,3.367L13.11,32.916z"/>
	<path class="st1" d="M13.095,32.587c0,0,0.607-2.951,1.629-3.34c0,0-1.007,0.143-1.632,3.164L13.095,32.587z"/>
	<path class="st1" d="M13.11,32.916c0,0,0.441-2.277,1.521-2.855c0,0-0.999,0.672-1.509,2.96L13.11,32.916z"/>
	<path class="st1" d="M13.118,33.349c0,0,0.314-2.813,2.207-3.293c0,0-1.716,0.488-2.185,3.446L13.118,33.349z"/>
	<path class="st1" d="M13.091,32.33c0,0,0.511-2.832,1.645-3.551c0,0-1.1,0.472-1.669,3.328L13.091,32.33z"/>
	<path class="st1" d="M13.08,31.683c0,0,0.456-2.594,1.758-3.225c0,0-1.248,0.371-1.763,2.932L13.08,31.683z"/>
	<path class="st1" d="M13.091,31.191c0,0,0.376-2.1,1.289-2.615c0,0-0.809,0.302-1.293,2.332L13.091,31.191z"/>
	<path class="st1" d="M13.083,30.65c0,0,0.447-1.832,1.197-2.166c0,0-0.692,0.193-1.175,1.825L13.083,30.65z"/>
	<path class="st1" d="M13.15,30.05c0,0,0.316-1.558,1.212-1.921c0,0-0.704,0.11-1.217,1.639L13.15,30.05z"/>
	<path class="st1" d="M13.188,29.461c0,0,0.397-1.442,1.248-1.651c0,0-0.609-0.044-1.195,1.287L13.188,29.461z"/>
	<path class="st1" d="M13.274,28.789c0,0,0.691-0.859,0.922-1.242c0,0-0.423,0.526-0.903,1.09L13.274,28.789z"/>
	<path class="st1" d="M13.349,28.436c0,0,0.622-0.872,0.798-1.417c0,0-0.408,0.761-0.781,1.265L13.349,28.436z"/>
	<path class="st1" d="M13.468,27.962c0,0,0.517-0.762,0.562-0.929c0,0-0.384,0.456-0.525,0.776L13.468,27.962z"/>
	<path class="st1" d="M13.151,33.62c0,0,0.375-2.229,1.8-3.12c0,0-1.306,0.982-1.786,3.308
		C13.165,33.807,13.134,33.714,13.151,33.62"/>
	<path class="st1" d="M13.15,34.125c0,0,0.279-2.026,1.475-3.125c0,0-0.926,0.764-1.421,3.369L13.15,34.125z"/>
	<path class="st1" d="M13.165,34.464c0,0,0.311-2.003,1.12-2.752c0,0-0.711,0.84-1.107,2.881L13.165,34.464z"/>
	<path class="st1" d="M13.2,34.757c0,0,0.146-1.836,1.543-2.573c0,0-1.028,0.575-1.521,2.688L13.2,34.757z"/>
	<path class="st1" d="M13.15,33.912c0,0-0.638-1.336-1.899-1.537c0,0,1.286,0.4,1.923,1.67L13.15,33.912z"/>
	<path class="st1" d="M13.169,34.209c0,0-0.524-1.147-1.379-1.433c0,0,1.182,0.791,1.407,1.789L13.169,34.209z"/>
	<path class="st1" d="M13.206,34.722c0,0-0.395-1.227-1.217-1.652c0,0,0.896,0.717,1.211,1.794L13.206,34.722z"/>
	<path class="st1" d="M13.231,35.06c0,0,0.169-1.494,1.093-2.055c0,0-0.863,0.848-1.075,2.222L13.231,35.06z"/>
	<path class="st1" d="M13.187,34.896c0,0-0.17-1.918-1.487-2.491c0,0,1.243,0.294,1.506,2.276L13.187,34.896z"/>
	<path class="st1" d="M13.29,35.906c0,0-2.575-2.238-5.706-1.848c-2.679,0.334-3.046,2.079-3.146,3.246c0,0,0.323-2.5,2.296-2.925
		c0,0-1.529,0.548-2.067,2.731c0,0,0.699-2.407,2.526-2.814c0,0-1.665,0.564-2.177,2.226c0,0,0.742-1.919,2.697-2.327
		c0,0-1.927,0.607-2.033,2.789c0,0,0.171-2.037,2.062-2.692c0,0-1.234,0.407-1.385,1.732c0,0,0.153-1.159,1.472-1.691
		c0,0-1.125,0.812-1.024,2.436c0,0,0.137-2.187,1.604-2.597c0,0-1.393,0.539-1.438,2.702c0,0,0.037-2.021,1.557-2.681
		c0,0-1.34,0.537-1.15,2.718c0,0-0.183-1.979,1.42-2.776c0,0-1.258,0.752-1.252,2.516c0,0-0.037-1.529,1.261-2.402
		c0,0-1.062,1.046-1.118,2.219c0,0,0.235-1.297,1.263-2.161c0,0-0.989,0.796-1.127,2.399c0,0,0.242-1.844,1.471-2.468
		c0,0-1.117,0.687-1.242,2.884c0,0,0.183-2.04,1.299-2.814c0,0-1.001,1.001-1.072,2.746c0,0,0.115-1.599,1.133-2.664
		c0,0-1.031,1.396-0.918,3.068c0,0-0.064-1.717,1.033-3.083c0,0-0.903,1.038-0.831,2.843c0,0-0.135-1.416,0.896-2.826
		c0,0-0.781,1.111-0.739,2.807c0,0-0.034-2.088,0.989-2.85c0,0-0.869,1.198-0.885,2.609c0,0,0.083-1.355,0.958-2.518
		c0,0-0.691,0.937-0.76,2.238c0,0,0.19-1.469,0.812-2.105c0,0-1.285,1.047-1.573,2.238c0,0,0.532-1.424,1.721-2.232
		c0,0-0.575,1.277-0.64,2.49c0,0,0.156-1.363,0.759-2.466c0,0-0.551,1.21-0.601,2.966c0,0,0.188-1.989,0.724-3.006
		c0,0-0.575,1.885-0.509,3.029c0,0,0.118-1.928,0.563-2.896c0,0-0.332,0.928-0.278,2.404c0,0,0.054-1.832,0.379-2.467
		c0,0-0.275,1.846,0.037,3.354c0,0-0.216-1.521,0.03-3.174c0,0-0.167,1.111,0.085,2.55c0,0-0.157-1.564,0.026-2.488
		c0,0-0.121,1.523,0.198,2.994c0,0-0.241-2.279-0.053-3.025c0,0-0.951,1.108-1.065,2.467c0,0,0.294-1.495,1.221-2.396
		c0,0-0.801,1.506-0.819,2.993c0,0,0.147-1.705,0.898-2.915c0,0-0.549,1.35-0.308,3.018c0,0-0.168-1.805,0.403-3.016
		c0,0-0.412,1.205-0.121,2.74c0,0-0.168-1.461,0.201-2.687c0,0-0.231,0.979,0.058,2.49c0,0-0.241-1.669,0.039-2.466
		c0,0-0.044,0.59,0.219,1.418c0,0-0.16-0.739-0.131-1.391c0,0-0.558,0.781-0.512,1.775c0,0,0.098-1.18,0.633-1.715
		c0,0-0.091,1.14,0.379,2.046c0,0-0.421-0.95-0.293-2.03c0,0-0.02,0.991,0.39,1.803c0,0-0.372-0.867-0.302-1.751
		c0,0-0.232,1.081-0.145,1.844c0,0-0.116-0.949,0.244-1.818c0,0-0.075,0.974,0.422,1.938c0,0-0.436-1.1-0.34-1.961
		c0,0-0.218,1.143,0.026,1.771c0,0-0.222-1.262,0.141-1.666c0.198-0.219,1.297,0.797,1.152,0.666L13.29,35.906z"/>
	<path class="st1" d="M13.229,36.037c0,0,0.778-2.285,2.187-4.066c1.438-1.82,3.077-3.479,5.104-2.068c0,0-1.775-1.279-3.677,0.646
		c-2.699,2.735-3.517,5.301-3.535,5.422L13.229,36.037z"/>
	<polygon class="st1" points="17.857,29.739 19.819,31.343 17.791,29.792 	"/>
	<polygon class="st1" points="17.681,29.861 19.47,31.401 17.77,29.823 	"/>
	<polygon class="st1" points="17.959,29.714 19.596,30.976 17.857,29.739 	"/>
	<path class="st1" d="M18.53,29.496c0,0,0.853,0.803,1.308,1.459c0,0-0.981-1.115-1.384-1.413L18.53,29.496z"/>
	<path class="st1" d="M18.733,29.433c0,0,0.73,0.398,1.201,1.215c0,0-0.766-0.975-1.334-1.182L18.733,29.433z"/>
	<path class="st1" d="M18.324,29.535c0,0,0.823,0.822,1.095,1.216c0,0-0.958-1.032-1.204-1.165L18.324,29.535z"/>
	<path class="st1" d="M18.093,29.617c0,0,0.688,0.599,1.052,1.162c0,0-0.809-0.928-1.123-1.132L18.093,29.617z"/>
	<path class="st1" d="M18.938,29.435c0,0,0.713,0.234,1.263,0.765c0,0-0.826-0.579-1.39-0.759L18.938,29.435z"/>
	<path class="st1" d="M19.204,29.433c0,0,0.444,0.108,0.9,0.458c0,0-0.793-0.394-1.107-0.42L19.204,29.433z"/>
	<path class="st1" d="M18.483,29.47c0,0-0.026-0.34,0.564-0.445c0,0-0.472,0.178-0.447,0.441L18.483,29.47z"/>
	<path class="st1" d="M18.695,29.457c0,0,0.578-0.296,1.433,0.02c0,0-0.85-0.229-1.386,0.006L18.695,29.457z"/>
	<path class="st1" d="M18.601,29.466c0,0,0.277-0.311,0.912-0.287c0,0-0.603,0.108-0.817,0.277L18.601,29.466z"/>
	<path class="st1" d="M18.021,29.647c0,0,0.309-0.703,1.202-0.653c0,0-0.734,0.014-1.132,0.623L18.021,29.647z"/>
	<path class="st1" d="M17.791,29.792c0,0,0.236-0.928,1.419-0.694c0,0-1.012-0.173-1.353,0.641L17.791,29.792z"/>
	<path class="st1" d="M18.657,28.991c0,0-1.079-0.131-1.119,0.942l0.075-0.057C17.613,29.876,17.585,29.025,18.657,28.991"/>
	<path class="st1" d="M17.355,30.054c0,0-0.012-0.754,0.636-0.963c0,0-0.567,0.369-0.561,0.906L17.355,30.054z"/>
	<path class="st1" d="M17.538,29.933l1.354,1.062c0,0-1.161-0.804-1.405-1.038L17.538,29.933z"/>
	<path class="st1" d="M17.431,29.998c0,0,0.983,0.82,1.811,1.283c0,0-1.178-0.582-1.886-1.227L17.431,29.998z"/>
	<path class="st1" d="M17.296,30.081c0,0,0.99,1.05,2.092,1.497c0,0-1.092-0.322-2.137-1.446L17.296,30.081z"/>
	<path class="st1" d="M17.183,30.173c0,0,0.681,0.793,1.898,1.352c0,0-1.058-0.304-1.953-1.301L17.183,30.173z"/>
	<path class="st1" d="M17.07,30.265c0,0,0.911,1.018,1.791,1.288c0,0-0.887-0.128-1.824-1.229L17.07,30.265z"/>
	<path class="st1" d="M16.977,30.339c0,0,0.646,0.904,1.729,1.431c0,0-0.926-0.222-1.754-1.323L16.977,30.339z"/>
	<path class="st1" d="M17.183,30.173c0,0-0.024-0.583,0.455-0.906c0,0-0.548,0.303-0.51,0.957L17.183,30.173z"/>
	<path class="st1" d="M16.977,30.339c0,0,0.069-0.709,0.675-0.922c0,0-0.688,0.221-0.767,1.008L16.977,30.339z"/>
	<path class="st1" d="M16.562,30.734c0,0,0.19-0.891,0.771-1.238c0,0-0.583,0.579-0.675,1.166L16.562,30.734z"/>
	<path class="st1" d="M16.323,31.023c0,0,0.253-1.086,1.052-1.295c0,0-0.901,0.106-1.227,1.453L16.323,31.023z"/>
	<path class="st1" d="M15.922,31.417c0,0-0.042-0.872,0.645-1.413c0,0-0.595,0.646-0.56,1.354L15.922,31.417z"/>
	<path class="st1" d="M16.882,30.478c0,0,0.45,0.887,1.614,1.318c0,0-1.116-0.161-1.708-1.245L16.882,30.478z"/>
	<path class="st1" d="M16.702,30.611c0,0,1.019,1.453,2.519,1.609c0,0-1.476-0.01-2.562-1.559L16.702,30.611z"/>
	<path class="st1" d="M16.562,30.734c0,0,0.631,1.061,1.789,1.52c0,0-1.351-0.525-1.854-1.4L16.562,30.734z"/>
	<path class="st1" d="M16.431,30.896c0,0,0.729,1.268,2.021,1.705c0,0-1.439-0.428-2.072-1.629L16.431,30.896z"/>
	<path class="st1" d="M16.323,31.023c0,0,0.444,0.967,1.49,1.529c0,0-1.012-0.365-1.528-1.442L16.323,31.023z"/>
	<path class="st1" d="M16.148,31.181c0,0,0.435,0.982,1.448,1.411c0,0-1.1-0.626-1.377-1.491L16.148,31.181z"/>
	<path class="st1" d="M16.38,30.972c0,0,0.791,1.252,1.565,1.6c0,0-1.129-0.543-1.622-1.549L16.38,30.972z"/>
	<polygon class="st1" points="16.594,30.791 18.132,31.605 16.498,30.853 	"/>
	<path class="st1" d="M16.007,31.357c0,0,0.62,1.181,1.727,1.406c0,0-1.181-0.4-1.646-1.502L16.007,31.357z"/>
	<path class="st1" d="M15.931,31.479c0,0,0.367,0.947,1.288,1.335c0,0-0.783-0.141-1.354-1.229L15.931,31.479z"/>
	<path class="st1" d="M15.773,31.671c0,0,0.429,0.956,1.632,1.365c0,0-1.128-0.414-1.575-1.405L15.773,31.671z"/>
	<path class="st1" d="M15.631,31.834c0,0,0.492,1.133,1.506,1.318c0,0-0.969-0.299-1.451-1.37L15.631,31.834z"/>
	<path class="st1" d="M15.556,31.966c0,0,0.351,1.232,1.394,1.465c0,0-0.98-0.361-1.318-1.597L15.556,31.966z"/>
	<path class="st1" d="M15.465,32.054c0,0,0.449,1.503,1.571,1.764c0,0-1.111-0.455-1.515-1.879L15.465,32.054z"/>
	<path class="st1" d="M15.352,32.208c0,0,0.559,1.389,1.868,1.296c0,0-1.396-0.04-1.82-1.396L15.352,32.208z"/>
	<path class="st1" d="M15.258,32.347c0,0-0.015,0.849,0.913,1.467c0,0-0.777-0.616-0.879-1.59L15.258,32.347z"/>
	<path class="st1" d="M15.119,32.471c0.004-0.04-0.011,1.063,0.905,1.608c0,0-0.725-0.487-0.87-1.719L15.119,32.471z"/>
	<path class="st1" d="M15,32.656c0,0-0.021,0.875,0.645,1.324c0,0-0.604-0.594-0.596-1.428L15,32.656z"/>
	<path class="st1" d="M15.738,31.718c0,0,0.427,1.123,1.704,1.477c0,0-1.302-0.438-1.612-1.563L15.738,31.718z"/>
	<path class="st1" d="M14.901,32.883c0,0,0.101,1.153,0.787,1.728c0,0-0.724-0.859-0.714-1.859L14.901,32.883z"/>
	<path class="st1" d="M14.798,32.96c0,0,0.163,1.33,0.785,1.842c0,0-0.647-0.852-0.726-1.922L14.798,32.96z"/>
	<path class="st1" d="M14.726,33.107c0,0,0.091,0.962,0.62,1.562c0,0-0.581-0.894-0.548-1.708L14.726,33.107z"/>
	<path class="st1" d="M14.653,33.187c0,0,0.107,1.062,0.65,1.556c0,0-0.547-0.39-0.725-1.435L14.653,33.187z"/>
	<path class="st1" d="M15.45,31.968c0,0,0.31-1.189,1.201-1.779c0,0-0.886,0.689-1.131,1.75L15.45,31.968z"/>
	<path class="st1" d="M15.324,32.166c0,0,0.454-1.34,1.689-2.104c0,0-1.284,1.044-1.613,2.047L15.324,32.166z"/>
	<polygon class="st1" points="17.613,29.876 18.517,30.666 17.562,29.888 	"/>
	<polygon class="st1" points="18.454,29.542 19.118,30.249 18.324,29.535 	"/>
	<path class="st1" d="M15.339,32.261c0,0,0.4,1.245,1.238,1.686c0,0-0.864-0.351-1.319-1.6L15.339,32.261z"/>
	<path class="st1" d="M15.084,32.564c0,0,0.217,0.961,0.923,1.334c0,0-0.658-0.34-0.888-1.427L15.084,32.564z"/>
	<path class="st1" d="M14.557,33.367c0,0-0.003,0.906,0.488,1.287c0,0-0.363-0.025-0.557-1.199L14.557,33.367z"/>
	<path class="st1" d="M14.421,33.58c0,0,0.037,0.833,0.493,1.27c0,0-0.484-0.645-0.449-1.361L14.421,33.58z"/>
	<path class="st1" d="M15.214,32.444c0,0,0.236,1.25,1.021,1.425c0,0-0.723,0.018-1.085-1.363L15.214,32.444z"/>
	<path class="st1" d="M16.006,31.388c0,0,0.207,0.989,0.935,1.572c0,0-0.721-0.62-0.874-1.659L16.006,31.388z"/>
	<path class="st1" d="M13.191,35.906c0,0,2.575-2.238,5.706-1.848c2.679,0.334,3.046,2.079,3.146,3.246c0,0-0.322-2.5-2.295-2.925
		c0,0,1.529,0.548,2.068,2.731c0,0-0.699-2.407-2.527-2.814c0,0,1.665,0.564,2.176,2.226c0,0-0.742-1.919-2.696-2.327
		c0,0,1.928,0.607,2.033,2.789c0,0-0.171-2.037-2.062-2.692c0,0,1.233,0.407,1.383,1.732c0,0-0.152-1.159-1.472-1.691
		c0,0,1.125,0.812,1.026,2.436c0,0-0.138-2.187-1.604-2.597c0,0,1.392,0.539,1.436,2.702c0,0-0.035-2.021-1.554-2.681
		c0,0,1.339,0.537,1.148,2.718c0,0,0.183-1.979-1.42-2.776c0,0,1.258,0.752,1.254,2.516c0,0,0.037-1.529-1.263-2.402
		c0,0,1.063,1.046,1.118,2.219c0,0-0.235-1.297-1.262-2.161c0,0,0.988,0.796,1.125,2.399c0,0-0.242-1.844-1.468-2.468
		c0,0,1.116,0.687,1.24,2.884c0,0-0.182-2.04-1.298-2.814c0,0,1.001,1.001,1.072,2.746c0,0-0.115-1.599-1.134-2.664
		c0,0,1.032,1.396,0.92,3.068c0,0,0.062-1.717-1.035-3.083c0,0,0.904,1.038,0.833,2.843c0,0,0.133-1.416-0.897-2.826
		c0,0,0.781,1.111,0.74,2.807c0,0,0.032-2.088-0.991-2.85c0,0,0.87,1.198,0.885,2.609c0,0-0.083-1.355-0.957-2.518
		c0,0,0.692,0.937,0.76,2.238c0,0-0.191-1.469-0.812-2.105c0,0,1.283,1.047,1.573,2.238c0,0-0.534-1.424-1.722-2.232
		c0,0,0.576,1.277,0.64,2.49c0,0-0.158-1.363-0.759-2.466c0,0,0.551,1.21,0.601,2.966c0,0-0.188-1.989-0.723-3.006
		c0,0,0.574,1.885,0.507,3.029c0,0-0.117-1.928-0.562-2.896c0,0,0.331,0.928,0.277,2.404c0,0-0.053-1.832-0.377-2.467
		c0,0,0.273,1.846-0.039,3.354c0,0,0.217-1.521-0.029-3.174c0,0,0.167,1.111-0.085,2.55c0,0,0.156-1.564-0.026-2.488
		c0,0,0.121,1.523-0.197,2.994c0,0,0.239-2.279,0.052-3.025c0,0,0.95,1.108,1.064,2.467c0,0-0.292-1.495-1.221-2.396
		c0,0,0.802,1.506,0.82,2.993c0,0-0.147-1.705-0.898-2.915c0,0,0.549,1.35,0.308,3.018c0,0,0.168-1.805-0.404-3.016
		c0,0,0.414,1.205,0.121,2.74c0,0,0.169-1.461-0.2-2.687c0,0,0.232,0.979-0.057,2.49c0,0,0.239-1.669-0.04-2.466
		c0,0,0.043,0.59-0.219,1.418c0,0,0.159-0.739,0.132-1.391c0,0,0.556,0.781,0.511,1.775c0,0-0.098-1.18-0.633-1.715
		c0,0,0.09,1.14-0.38,2.046c0,0,0.422-0.95,0.294-2.03c0,0,0.02,0.991-0.389,1.803c0,0,0.37-0.867,0.3-1.751
		c0,0,0.233,1.081,0.146,1.844c0,0,0.113-0.949-0.246-1.818c0,0,0.076,0.974-0.421,1.938c0,0,0.435-1.1,0.341-1.961
		c0,0,0.218,1.143-0.027,1.771c0,0,0.222-1.262-0.143-1.666c-0.154-0.171-0.794,0.363-1.138,0.676L13.191,35.906z"/>
	<path class="st0" d="M53.214,58.762c5.768-5.784,9.351-13.856,9.351-22.787c0-8.962-3.606-17.057-9.408-22.844L31.585,35.916
		L53.214,58.762z"/>
	<path class="st0" d="M9.9,13.131c-5.802,5.788-9.408,13.884-9.408,22.844c0,8.931,3.583,17.003,9.351,22.787l21.63-22.847
		L9.9,13.131z"/>
	<path class="st0" d="M3.845,65.098h15.093c-3.396-1.549-6.471-3.705-9.095-6.336L3.845,65.098z"/>
	<path class="st0" d="M53.214,58.762c-2.623,2.631-5.697,4.787-9.094,6.336h15.092L53.214,58.762z"/>
	<path class="st0" d="M4.13,6.734l6.057,6.396c2.679-2.672,5.824-4.852,9.301-6.396H4.13z"/>
	<path class="st0" d="M58.867,6.734H43.51c3.478,1.544,6.624,3.724,9.303,6.396L58.867,6.734z"/>
	<path class="st1" d="M41.799,36.703c0.143-0.426,0.319-0.574,0.633-0.552c0.324,0.022,0.499,0.167,0.546,0.438
		c0.329,0.038,0.656,0.074,0.98,0.113c0.104,0.013,0.212,0.022,0.31,0.057c0.15,0.05,0.272,0.012,0.398-0.068
		c0.866-0.549,1.739-1.084,2.6-1.643c0.794-0.516,1.567-1.061,2.358-1.579c0.555-0.364,1.127-0.703,1.687-1.06
		c0.807-0.512,1.616-1.021,2.413-1.549c0.389-0.256,0.756-0.546,1.13-0.824c0.05-0.035,0.085-0.09,0.119-0.142
		c0.143-0.206,0.318-0.397,0.408-0.624c0.131-0.327,0.39-0.445,0.683-0.528c0.51-0.142,1.011-0.075,1.482,0.138
		c1.208,0.545,1.889,1.482,2.001,2.807c0.053,0.629-0.174,1.185-0.567,1.666c-0.191,0.234-0.405,0.449-0.628,0.652
		c-0.286,0.264-0.647,0.363-1.022,0.419c-0.818,0.126-1.635,0.247-2.451,0.38c-2.731,0.441-5.43,1.055-8.136,1.625
		c-0.529,0.11-1.062,0.215-1.589,0.34c-0.271,0.062-0.531,0.161-0.768,0.318c-0.421,0.278-0.841,0.562-1.331,0.697
		c-0.432,0.119-0.877,0.2-1.317,0.276c-0.117,0.019-0.262-0.018-0.37-0.073c-0.217-0.113-0.43-0.115-0.657-0.056
		c-0.247,0.065-0.496,0.125-0.755,0.121c-0.169-0.001-0.31-0.061-0.441-0.161c-0.198-0.148-0.399-0.29-0.604-0.426
		c-0.171-0.112-0.358-0.131-0.559-0.083c-0.29,0.068-0.582,0.126-0.849,0.275c-0.122,0.069-0.257,0.044-0.374-0.034
		c-0.103-0.068-0.133-0.189-0.072-0.328c0.046-0.1,0.104-0.196,0.169-0.287c0.42-0.595,0.948-1.089,1.483-1.574
		c0.383-0.348,0.767-0.691,1.21-0.961c0.164-0.101,0.342-0.186,0.522-0.248c0.109-0.038,0.242-0.043,0.356-0.021
		c0.236,0.048,0.329,0.292,0.205,0.496c-0.035,0.056-0.069,0.116-0.116,0.16c-0.147,0.135-0.205,0.312-0.252,0.498
		c-0.108,0.423-0.081,0.363,0.187,0.578C41.139,36.196,41.467,36.443,41.799,36.703 M45.712,36.298
		c0.262-0.076,0.501-0.17,0.751-0.218c0.566-0.11,1.138-0.194,1.706-0.295c2.164-0.384,4.328-0.771,6.493-1.151
		c0.344-0.061,0.682-0.136,0.99-0.304c0.491-0.269,0.983-0.532,1.469-0.807c0.102-0.056,0.2-0.14,0.261-0.235
		c0.222-0.349,0.381-0.729,0.442-1.14c0.151-1.017-0.172-1.917-0.701-2.763c-0.061-0.1-0.149-0.141-0.274-0.131
		c-0.293,0.023-0.554,0.125-0.809,0.264c-0.344,0.186-0.68,0.383-0.99,0.625c-0.283,0.223-0.561,0.459-0.861,0.656
		c-1.009,0.664-2.028,1.318-3.045,1.969c-0.582,0.371-1.179,0.721-1.755,1.098c-0.853,0.558-1.692,1.135-2.539,1.699
		C46.477,35.814,46.1,36.05,45.712,36.298 M38.642,36.662c0.081,0.051,0.147,0.094,0.213,0.13c0.273,0.155,0.584,0.128,0.877,0.169
		c0.243,0.033,0.434-0.125,0.626-0.251c0.057-0.037,0.068-0.071,0.037-0.126c-0.049-0.086-0.096-0.172-0.142-0.252
		c0.023-0.037,0.043-0.066,0.059-0.089c-0.188-0.175-0.371-0.341-0.56-0.515C39.393,36.03,39.028,36.338,38.642,36.662
		 M42.267,37.236c0,0.01-0.001,0.02-0.002,0.028c0.083,0.032,0.164,0.071,0.251,0.092c0.255,0.062,0.506,0.023,0.758-0.038
		c0.328-0.081,0.637-0.209,0.935-0.373c-0.138-0.018-0.273-0.027-0.408-0.03c-0.286-0.005-0.571-0.011-0.855-0.007
		c-0.062,0-0.13,0.022-0.187,0.055c-0.129,0.068-0.251,0.148-0.377,0.225C42.345,37.208,42.306,37.219,42.267,37.236 M55.425,29.621
		c0.341-0.174,0.675-0.347,0.993-0.512c-0.239-0.011-0.497,0.029-0.752,0.087c-0.02,0.003-0.04,0.021-0.051,0.038
		C55.552,29.363,55.489,29.492,55.425,29.621 M38.555,36.888c-0.121,0.098-0.259,0.209-0.409,0.33
		c0.029,0.001,0.034,0.002,0.041,0.001c0.019-0.007,0.037-0.011,0.054-0.022c0.179-0.111,0.358-0.104,0.543-0.014
		c0.052,0.026,0.105,0.049,0.162,0.068c0.026,0.009,0.062,0.014,0.083,0.002c0.053-0.037,0.101-0.086,0.143-0.121
		C38.97,37.052,38.771,36.974,38.555,36.888 M40.485,35.304c-0.146,0.139-0.293,0.275-0.446,0.42
		c0.141,0.119,0.273,0.235,0.41,0.354c0.024-0.029,0.042-0.05,0.063-0.076C40.21,35.773,40.399,35.541,40.485,35.304 M56.065,34.388
		c0.307,0.026,0.747-0.219,0.85-0.473C56.635,34.073,56.349,34.232,56.065,34.388"/>
	<path class="st1" d="M28.646,11.26c-1.71,0-3.096,1.292-3.096,2.882c0,3.235,3.508,4.083,5.896,7.284
		c2.261-3.179,5.898-4.151,5.898-7.284c0-1.59-1.388-2.882-3.096-2.882c-1.24,0-2.308,0.681-2.803,1.662
		C30.953,11.941,29.886,11.26,28.646,11.26"/>
	<ellipse class="st4" cx="31.528" cy="36.064" rx="31.036" ry="31.554"/>
</g>
</svg>
