<?xml version="1.0" encoding="utf-8"?>
<!-- Generator: Adobe Illustrator 16.0.0, SVG Export Plug-In . SVG Version: 6.00 Build 0)  -->
<!DOCTYPE svg PUBLIC "-//W3C//DTD SVG 1.1//EN" "http://www.w3.org/Graphics/SVG/1.1/DTD/svg11.dtd">
<svg version="1.1" id="Layer_1" xmlns="http://www.w3.org/2000/svg" xmlns:xlink="http://www.w3.org/1999/xlink" x="0px" y="0px"
	 width="1000px" height="1000px" viewBox="0 0 1000 1000" enable-background="new 0 0 1000 1000" xml:space="preserve">
<g>
	<g>
		<g>
			<path id="SVGID_1_" fill="#231F20" d="M481.442,744.516v33.682h38.427v-33.682 M490.467,638.15l-62.448,62.516
				c-5.625,5.613-5.625,14.754,0,20.389c2.704,2.717,6.345,4.223,10.19,4.223c1.677,0,3.264-0.32,4.791-0.855v53.775
				c0,5.281,4.326,9.596,9.631,9.596h19.203c5.295,0,9.607-4.314,9.607-9.596h-28.811v-61.363l48.014-48.07l48.048,48.07v61.363
				h-28.834c0,5.281,4.312,9.596,9.596,9.596h19.238c5.283,0,9.607-4.314,9.607-9.596v-53.775c1.506,0.535,3.127,0.855,4.791,0.855
				c3.846,0,7.484-1.506,10.191-4.223c5.613-5.635,5.613-14.775,0-20.389l-62.449-62.516c-2.717-2.717-6.48-4.109-10.2-4.109
				C496.937,634.053,493.194,635.434,490.467,638.15"/>
		</g>
		<g>
			<defs>
				<path id="SVGID_2_" d="M481.442,744.516v33.682h38.427v-33.682 M490.467,638.15l-62.448,62.516
					c-5.625,5.613-5.625,14.754,0,20.389c2.704,2.717,6.345,4.223,10.19,4.223c1.677,0,3.264-0.32,4.791-0.855v53.775
					c0,5.281,4.326,9.596,9.631,9.596h19.203c5.295,0,9.607-4.314,9.607-9.596h-28.811v-61.363l48.014-48.07l48.048,48.07v61.363
					h-28.834c0,5.281,4.312,9.596,9.596,9.596h19.238c5.283,0,9.607-4.314,9.607-9.596v-53.775c1.506,0.535,3.127,0.855,4.791,0.855
					c3.846,0,7.484-1.506,10.191-4.223c5.613-5.635,5.613-14.775,0-20.389l-62.449-62.516c-2.717-2.717-6.48-4.109-10.2-4.109
					C496.937,634.053,493.194,635.434,490.467,638.15"/>
			</defs>
			<clipPath id="SVGID_3_">
				<use xlink:href="#SVGID_2_"  overflow="visible"/>
			</clipPath>
			<path clip-path="url(#SVGID_3_)" fill="#231F20" d="M356.945,503.863c-79.276,0-143.63,59.768-143.63,133.441
				c0,149.873,162.697,189.158,273.57,337.318c104.824-147.248,273.591-192.215,273.591-337.318
				c0-73.674-64.354-133.441-143.631-133.441c-57.508,0-107.004,31.538-129.96,76.928
				C463.961,535.401,414.452,503.863,356.945,503.863"/>
		</g>
		<g>
			<defs>
				<path id="SVGID_4_" d="M481.442,744.516v33.682h38.427v-33.682 M490.467,638.15l-62.448,62.516
					c-5.625,5.613-5.625,14.754,0,20.389c2.704,2.717,6.345,4.223,10.19,4.223c1.677,0,3.264-0.32,4.791-0.855v53.775
					c0,5.281,4.326,9.596,9.631,9.596h19.203c5.295,0,9.607-4.314,9.607-9.596h-28.811v-61.363l48.014-48.07l48.048,48.07v61.363
					h-28.834c0,5.281,4.312,9.596,9.596,9.596h19.238c5.283,0,9.607-4.314,9.607-9.596v-53.775c1.506,0.535,3.127,0.855,4.791,0.855
					c3.846,0,7.484-1.506,10.191-4.223c5.613-5.635,5.613-14.775,0-20.389l-62.449-62.516c-2.717-2.717-6.48-4.109-10.2-4.109
					C496.937,634.053,493.194,635.434,490.467,638.15"/>
			</defs>
			<clipPath id="SVGID_5_">
				<use xlink:href="#SVGID_4_"  overflow="visible"/>
			</clipPath>
			<path clip-path="url(#SVGID_5_)" fill="#231F20" stroke="#FFFFFF" stroke-width="0.5456" stroke-miterlimit="10" d="
				M356.945,503.863c-79.276,0-143.63,59.768-143.63,133.441c0,149.873,162.697,189.158,273.57,337.318
				c104.824-147.248,273.591-192.215,273.591-337.318c0-73.674-64.354-133.441-143.631-133.441
				c-57.508,0-107.004,31.538-129.96,76.928C463.961,535.401,414.452,503.863,356.945,503.863z"/>
		</g>
	</g>
	<path fill="#231F20" d="M286.168,498.135c0.068-0.25,0.309-0.159,0.32,0c2.967,16.945,5.487,43.565-0.594,78.297
		c-2.305,13.168-5.192,25.605-4.793,42.264c0.035,1.232-0.64,2.67-0.982,4.039c-0.387-1.654-1.082-3.275-1.094-4.939
		c-0.182-23.939-0.193-48.002,3.219-69.91C284.696,532.149,286.545,516.289,286.168,498.135"/>
	<path fill="#231F20" d="M286.635,498.855c0,0-9.526-26.359-25.99-47.159c-16.797-21.257-35.942-40.655-59.631-24.167
		c0,0,20.733-14.947,42.961,7.542c31.524,31.949,42.01,63.189,42.217,64.604L286.635,498.855z"/>
	<polygon fill="#231F20" points="232.13,425.636 209.219,444.359 232.895,426.24 	"/>
	<polygon fill="#231F20" points="234.173,427.05 213.27,445.043 233.145,426.617 	"/>
	<polygon fill="#231F20" points="230.921,425.328 211.809,440.081 232.13,425.636 	"/>
	<path fill="#231F20" d="M224.235,422.794c0,0-9.961,9.368-15.256,17.035c0,0,11.479-13.029,16.18-16.511L224.235,422.794z"/>
	<path fill="#231F20" d="M221.883,422.075c0,0-8.534,4.61-14.035,14.193c0,0,8.936-11.444,15.6-13.84L221.883,422.075z"/>
	<path fill="#231F20" d="M226.654,423.239c0,0-9.62,9.597-12.78,14.206c0,0,11.172-12.062,14.057-13.603L226.654,423.239z"/>
	<path fill="#231F20" d="M229.369,424.198c0,0-8.056,6.983-12.322,13.577c0,0,9.481-10.816,13.133-13.235L229.369,424.198z"/>
	<path fill="#231F20" d="M219.5,422.087c0,0-8.341,2.715-14.767,8.933c0,0,9.643-6.754,16.25-8.876L219.5,422.087z"/>
	<path fill="#231F20" d="M216.383,422.075c0,0-5.213,1.243-10.508,5.317c0,0,9.265-4.599,12.928-4.885L216.383,422.075z"/>
	<path fill="#231F20" d="M224.816,422.485c0,0,0.274-3.981-6.617-5.214c0,0,5.522,2.088,5.249,5.157L224.816,422.485z"/>
	<path fill="#231F20" d="M222.34,422.326c0,0-6.789-3.469-16.785,0.216c0,0,9.95-2.646,16.215,0.115L222.34,422.326z"/>
	<path fill="#231F20" d="M223.436,422.429c0,0-3.252-3.628-10.658-3.342c0,0,7.008,1.242,9.551,3.228L223.436,422.429z"/>
	<path fill="#231F20" d="M230.19,424.54c0,0-3.594-8.192-14.045-7.622c0,0,8.569,0.159,13.235,7.28L230.19,424.54z"/>
	<path fill="#231F20" d="M232.895,426.24c0,0-2.772-10.84-16.592-8.09c0,0,11.844-2.043,15.827,7.485L232.895,426.24z"/>
	<path fill="#231F20" d="M222.741,416.895c0,0,12.631-1.552,13.109,10.988l-0.868-0.673
		C234.982,427.21,235.29,417.282,222.741,416.895"/>
	<path fill="#231F20" d="M237.995,429.31c0,0,0.127-8.81-7.451-11.273c0,0,6.619,4.325,6.562,10.6L237.995,429.31z"/>
	<path fill="#231F20" d="M235.85,427.883l-15.849,12.402c0,0,13.601-9.378,16.44-12.117L235.85,427.883z"/>
	<path fill="#231F20" d="M237.093,428.647c0,0-11.501,9.572-21.177,14.993c0,0,13.783-6.789,22.067-14.331L237.093,428.647z"/>
	<path fill="#231F20" d="M238.668,429.629c0,0-11.57,12.254-24.453,17.48c0,0,12.746-3.766,24.988-16.909L238.668,429.629z"/>
	<path fill="#231F20" d="M239.98,430.689c0,0-7.931,9.254-22.157,15.803c0,0,12.345-3.56,22.809-15.187L239.98,430.689z"/>
	<path fill="#231F20" d="M241.315,431.773c0,0-10.646,11.891-20.926,15.027c0,0,10.359-1.483,21.304-14.354L241.315,431.773z"/>
	<path fill="#231F20" d="M242.411,432.629c0,0-7.553,10.566-20.219,16.716c0,0,10.805-2.589,20.493-15.448L242.411,432.629z"/>
	<path fill="#231F20" d="M239.98,430.689c0,0,0.297-6.8-5.295-10.565c0,0,6.392,3.526,5.946,11.182L239.98,430.689z"/>
	<path fill="#231F20" d="M242.411,432.629c0,0-0.844-8.283-7.895-10.771c0,0,8.032,2.59,8.967,11.786L242.411,432.629z"/>
	<path fill="#231F20" d="M247.237,437.25c0,0-2.201-10.417-9.014-14.456c0,0,6.834,6.756,7.906,13.601L247.237,437.25z"/>
	<path fill="#231F20" d="M250.009,440.639c0,0-2.933-12.687-12.241-15.117c0,0,10.508,1.221,14.318,16.954L250.009,440.639z"/>
	<path fill="#231F20" d="M254.71,445.228c0,0,0.502-10.202-7.53-16.513c0,0,6.961,7.554,6.538,15.826L254.71,445.228z"/>
	<path fill="#231F20" d="M243.505,434.249c0,0-5.271,10.361-18.849,15.403c0,0,13.03-1.882,19.944-14.535L243.505,434.249z"/>
	<path fill="#231F20" d="M245.594,435.813c0,0-11.878,16.979-29.416,18.804c0,0,17.242-0.126,29.929-18.234L245.594,435.813z"/>
	<path fill="#231F20" d="M247.237,437.25c0,0-7.371,12.402-20.88,17.755c0,0,15.791-6.127,21.645-16.351L247.237,437.25z"/>
	<path fill="#231F20" d="M248.79,439.145c0,0-8.523,14.811-23.631,19.923c0,0,16.818-5.009,24.211-19.032L248.79,439.145z"/>
	<path fill="#231F20" d="M250.009,440.639c0,0-5.146,11.297-17.389,17.869c0,0,11.832-4.279,17.856-16.875L250.009,440.639z"/>
	<path fill="#231F20" d="M252.086,442.476c0,0-5.1,11.469-16.921,16.489c0,0,12.858-7.314,16.077-17.424L252.086,442.476z"/>
	<path fill="#231F20" d="M249.37,440.035c0,0-9.24,14.627-18.279,18.689c0,0,13.18-6.344,18.919-18.086L249.37,440.035z"/>
	<polygon fill="#231F20" points="246.86,437.913 228.901,447.429 247.991,438.643 	"/>
	<path fill="#231F20" d="M253.718,444.53c0,0-7.223,13.784-20.161,16.454c0,0,13.794-4.701,19.225-17.584L253.718,444.53z"/>
	<path fill="#231F20" d="M254.608,445.945c0,0-4.268,11.058-15.027,15.608c0,0,9.139-1.654,15.814-14.364L254.608,445.945z"/>
	<path fill="#231F20" d="M256.479,448.193c0,0-5.043,11.182-19.078,15.951c0,0,13.18-4.838,18.383-16.407L256.479,448.193z"/>
	<path fill="#231F20" d="M258.133,450.099c0,0-5.75,13.247-17.605,15.416c0,0,11.331-3.493,16.967-16.021L258.133,450.099z"/>
	<path fill="#231F20" d="M258.989,451.65c0,0-4.096,14.411-16.281,17.092c0,0,11.456-4.197,15.415-18.644L258.989,451.65z"/>
	<path fill="#231F20" d="M260.063,452.678c0,0-5.249,17.548-18.37,20.606c0,0,13.018-5.318,17.753-21.953L260.063,452.678z"/>
	<path fill="#231F20" d="M261.375,454.48c0,0-6.515,16.213-21.806,15.14c0,0,16.305-0.478,21.269-16.304L261.375,454.48z"/>
	<path fill="#231F20" d="M262.469,456.111c0,0,0.172,9.903-10.656,17.127c0,0,9.082-7.188,10.279-18.564L262.469,456.111z"/>
	<path fill="#231F20" d="M264.1,457.55c-0.057-0.457,0.127,12.437-10.553,18.792c0,0,8.455-5.705,10.154-20.104L264.1,457.55z"/>
	<path fill="#231F20" d="M265.471,459.694c0,0,0.25,10.223-7.508,15.507c0,0,7.051-6.938,6.972-16.693L265.471,459.694z"/>
	<path fill="#231F20" d="M256.856,448.741c0,0-4.986,13.121-19.9,17.251c0,0,15.223-5.089,18.828-18.255L256.856,448.741z"/>
	<path fill="#231F20" d="M266.657,462.364c0,0-1.209,13.463-9.186,20.174c0,0,8.456-10.03,8.319-21.714L266.657,462.364z"/>
	<path fill="#231F20" d="M267.868,463.255c0,0-1.906,15.541-9.174,21.519c0,0,7.576-9.973,8.465-22.432L267.868,463.255z"/>
	<path fill="#231F20" d="M268.7,464.954c0,0-1.062,11.273-7.258,18.269c0,0,6.79-10.452,6.426-19.968L268.7,464.954z"/>
	<path fill="#231F20" d="M269.533,465.913c0,0-1.244,12.403-7.589,18.177c0,0,6.39-4.576,8.479-16.763L269.533,465.913z"/>
	<path fill="#231F20" d="M260.245,451.662c0,0-3.617-13.887-14.046-20.789c0,0,10.349,8.055,13.247,20.458L260.245,451.662z"/>
	<path fill="#231F20" d="M261.739,453.979c0,0-5.316-15.655-19.773-24.59c0,0,15.016,12.22,18.885,23.939L261.739,453.979z"/>
	<polygon fill="#231F20" points="234.982,427.21 224.395,436.441 235.565,427.369 	"/>
	<polygon fill="#231F20" points="225.159,423.307 217.365,431.58 226.654,423.239 	"/>
	<path fill="#231F20" d="M261.535,455.074c0,0-4.679,14.57-14.48,19.716c0,0,10.11-4.107,15.415-18.679L261.535,455.074z"/>
	<path fill="#231F20" d="M264.524,458.646c0,0-2.533,11.215-10.806,15.574c0,0,7.69-3.96,10.382-16.67L264.524,458.646z"/>
	<path fill="#231F20" d="M270.685,468.024c0,0,0.022,10.577-5.716,15.027c0,0,4.244-0.309,6.492-13.989L270.685,468.024z"/>
	<path fill="#231F20" d="M272.27,470.5c0,0-0.443,9.733-5.784,14.833c0,0,5.671-7.53,5.271-15.894L272.27,470.5z"/>
	<path fill="#231F20" d="M263.006,457.219c0,0-2.762,14.627-11.946,16.682c0,0,8.454,0.16,12.698-15.975L263.006,457.219z"/>
	<path fill="#231F20" d="M253.741,444.896c0,0-2.408,11.547-10.932,18.359c0,0,8.41-7.258,10.236-19.375L253.741,444.896z"/>
	<path fill="#231F20" d="M286.465,497.393c0,0-9.824-93.083,9.049-104.789c0,0-17.402,12.23-7.92,104.962
		C287.606,497.577,286.842,500.691,286.465,497.393"/>
	<path fill="#231F20" d="M284.389,438.403c0,0-9.288-13.487-22.479-29.381c0,0,17.023,17.982,22.58,28.697L284.389,438.403z"/>
	<path fill="#231F20" d="M284.274,439.236c0,0-8.329-13.259-18.495-23.3c0,0,15.095,17.892,18.53,24.943L284.274,439.236z"/>
	<path fill="#231F20" d="M284.479,436.749c0,0-9.675-15.963-17.742-25.502c0,0,10.271,10.874,17.937,24.258L284.479,436.749z"/>
	<path fill="#231F20" d="M284.309,440.868c0,0-7.816-14.891-22.479-22.501c0,0,15.643,10.463,22.376,23.447L284.309,440.868z"/>
	<path fill="#231F20" d="M284.354,443.47c0,0-5.75-14.937-21.85-18.668c0,0,14.491,3.616,21.748,20.037L284.354,443.47z"/>
	<path fill="#231F20" d="M284.673,434.137c0,0-7.587-14.503-13.327-21.212c0,0,10.898,13.304,13.396,19.842L284.673,434.137z"/>
	<path fill="#231F20" d="M284.731,431.397c0,0-5.408-15.097-15.131-21.439c0,0,11.309,5.603,15.336,20.63L284.731,431.397z"/>
	<path fill="#231F20" d="M284.891,427.688c0,0-4.233-13.213-14.799-21.736c0,0,10.781,7.69,15.118,20.504L284.891,427.688z"/>
	<path fill="#231F20" d="M284.696,429.743c0,0-1.254-13.544-10.257-24.452c0,0,8.513,8.17,10.554,21.965L284.696,429.743z"/>
	<path fill="#231F20" d="M284.743,425.225c0,0-6.355-15.77-5.467-25.113c0,0,0.64,11.787,5.9,23.87L284.743,425.225z"/>
	<path fill="#231F20" d="M285.37,422.326c0,0-5.75-15.096-3.434-27.636c0,0-1.564,10.189,3.502,26.118L285.37,422.326z"/>
	<path fill="#231F20" d="M285.667,419.154c0,0-5.101-16.339,0-26.746c0,0-3.605,9.824,0.444,25.628L285.667,419.154z"/>
	<path fill="#231F20" d="M286.204,416.53c0,0-3.835-22.547,5.361-28.115c0,0-7.484,5.809-4.838,26.574L286.204,416.53z"/>
	<path fill="#231F20" d="M286.784,412c0,0-1.23-13.008,4.371-19.592c0,0-4.609,5.876-3.788,19.159L286.784,412z"/>
	<path fill="#231F20" d="M265.071,428.146c0,0,16.031,6.081,19.467,19.021l-0.092,1.667
		C284.446,448.82,280.462,436.565,265.071,428.146"/>
	<path fill="#231F20" d="M261.397,427.027c0,0,20.15,12.551,23.129,20.139l-0.092,1.667
		C284.446,448.82,282.506,442.567,261.397,427.027"/>
	<path fill="#231F20" d="M284.627,459.375c0,0-7.199-20.002-26.095-26.267c0,0,19.124,6.002,26.05,24.212L284.627,459.375z"/>
	<path fill="#231F20" d="M284.286,453.773c0,0-8.443-18.325-23.606-21.795c0,0,17.001,3.014,23.47,20.015L284.286,453.773z"/>
	<path fill="#231F20" d="M284.627,459.375c0,0-7.713-15.997-25.512-18.724c0,0,20.012,5.283,25.308,20.504L284.627,459.375z"/>
	<path fill="#231F20" d="M284.846,465.684c0,0-7.235-14.775-19.227-18.198c0,0,12.322,2.579,19.18,15.725L284.846,465.684z"/>
	<path fill="#231F20" d="M283.944,460.356c0,0-5.557-10.839-18.098-14.913c0,0,13.443,3.514,18.428,14.24L283.944,460.356z"/>
	<path fill="#231F20" d="M285.166,470.065c0,0-7.155-16.818-26.553-18.826c0,0,15.986-2.59,26.38,16.112L285.166,470.065z"/>
	<path fill="#231F20" d="M285.073,472.12c0,0-5.419-14.948-19.305-18.188c0,0,14.41,6.241,19.566,20.229L285.073,472.12z"/>
	<path fill="#231F20" d="M284.799,463.221c0,0,7.336-40.233,26.529-42.081c0,0-17.436-3.148-26.563,39.343L284.799,463.221z"/>
	<path fill="#231F20" d="M284.627,459.375c0,0,7.088-34.481,19.032-39.022c0,0-11.775,1.678-19.077,36.968L284.627,459.375z"/>
	<path fill="#231F20" d="M284.799,463.221c0,0,5.145-26.598,17.766-33.352c0,0-11.674,7.851-17.629,34.583L284.799,463.221z"/>
	<path fill="#231F20" d="M284.891,468.285c0,0,3.674-32.872,25.787-38.474c0,0-20.048,5.693-25.525,40.254L284.891,468.285z"/>
	<path fill="#231F20" d="M284.571,456.375c0,0,5.979-33.091,19.227-41.488c0,0-12.848,5.512-19.5,38.887L284.571,456.375z"/>
	<path fill="#231F20" d="M284.446,448.82c0,0,5.329-30.316,20.537-37.688c0,0-14.58,4.336-20.594,34.264L284.446,448.82z"/>
	<path fill="#231F20" d="M284.571,443.069c0,0,4.393-24.543,15.062-30.557c0,0-9.449,3.526-15.107,27.248L284.571,443.069z"/>
	<path fill="#231F20" d="M284.479,436.749c0,0,5.227-21.406,13.99-25.308c0,0-8.091,2.247-13.727,21.325L284.479,436.749z"/>
	<path fill="#231F20" d="M285.267,429.73c0,0,3.685-18.198,14.161-22.443c0,0-8.229,1.29-14.218,19.157L285.267,429.73z"/>
	<path fill="#231F20" d="M285.712,422.851c0,0,4.632-16.841,14.582-19.283c0,0-7.12-0.512-13.967,15.038L285.712,422.851z"/>
	<path fill="#231F20" d="M286.717,415c0,0,8.065-10.029,10.771-14.513c0,0-4.942,6.149-10.556,12.745L286.717,415z"/>
	<path fill="#231F20" d="M287.594,410.882c0,0,7.27-10.189,9.322-16.556c0,0-4.77,8.888-9.127,14.776L287.594,410.882z"/>
	<path fill="#231F20" d="M288.975,405.336c0,0,6.048-8.899,6.572-10.851c0,0-4.482,5.33-6.139,9.07L288.975,405.336z"/>
	<path fill="#231F20" d="M285.278,471.447c0,0,4.383-26.039,21.029-36.455c0,0-15.254,11.478-20.869,38.656
		C285.438,473.638,285.073,472.541,285.278,471.447"/>
	<path fill="#231F20" d="M285.267,477.346c0,0,3.263-23.665,17.229-36.513c0,0-10.817,8.935-16.602,39.365L285.267,477.346z"/>
	<path fill="#231F20" d="M285.438,481.305c0,0,3.64-23.401,13.088-32.152c0,0-8.307,9.812-12.928,33.659L285.438,481.305z"/>
	<path fill="#231F20" d="M285.85,484.729c0,0,1.711-21.451,18.027-30.055c0,0-12.016,6.709-17.767,31.4L285.85,484.729z"/>
	<path fill="#231F20" d="M285.267,474.859c0,0-7.452-15.61-22.192-17.96c0,0,15.026,4.679,22.467,19.511L285.267,474.859z"/>
	<path fill="#231F20" d="M285.483,478.327c0,0-6.115-13.396-16.109-16.737c0,0,13.816,9.241,16.44,20.901L285.483,478.327z"/>
	<path fill="#231F20" d="M285.917,484.328c0,0-4.609-14.342-14.217-19.306c0,0,10.463,8.376,14.149,20.962L285.917,484.328z"/>
	<path fill="#231F20" d="M286.214,488.277c0,0,1.974-17.458,12.768-24.019c0,0-10.087,9.915-12.562,25.97L286.214,488.277z"/>
	<path fill="#231F20" d="M285.702,486.36c0,0-1.986-22.409-17.379-29.107c0,0,14.525,3.435,17.595,26.598L285.702,486.36z"/>
	<path fill="#231F20" d="M286.899,498.158c0,0-30.088-26.152-66.67-21.589c-31.297,3.903-35.588,24.293-36.752,37.928
		c0,0,3.776-29.21,26.826-34.185c0,0-17.869,6.401-24.155,31.914c0,0,8.169-28.126,29.517-32.884c0,0-19.453,6.595-25.432,26.015
		c0,0,8.66-22.42,31.502-27.189c0,0-22.512,7.085-23.744,32.587c0,0,1.996-23.801,24.088-31.457c0,0-14.424,4.757-16.182,20.241
		c0,0,1.781-13.544,17.197-19.763c0,0-13.146,9.493-11.959,28.469c0,0,1.598-25.56,18.735-30.352c0,0-16.271,6.299-16.796,31.571
		c0,0,0.423-23.606,18.188-31.319c0,0-15.655,6.274-13.44,31.754c0,0-2.135-23.116,16.59-32.44c0,0-14.697,8.798-14.627,29.404
		c0,0-0.435-17.868,14.74-28.067c0,0-12.414,12.22-13.064,25.922c0,0,2.738-15.151,14.754-25.237c0,0-11.559,9.299-13.167,28.021
		c0,0,2.829-21.542,17.183-28.832c0,0-13.041,8.021-14.502,33.693c0,0,2.134-23.836,15.174-32.872c0,0-11.693,11.694-12.527,32.085
		c0,0,1.347-18.689,13.236-31.126c0,0-12.049,16.304-10.726,35.839c0,0-0.741-20.059,12.071-36.021c0,0-10.555,12.129-9.709,33.215
		c0,0-1.575-16.545,10.463-33.01c0,0-9.117,12.973-8.626,32.793c0,0-0.4-24.396,11.548-33.295c0,0-10.145,13.989-10.339,30.476
		c0,0,0.97-15.825,11.194-29.415c0,0-8.066,10.941-8.879,26.141c0,0,2.227-17.161,9.482-24.589c0,0-15.004,12.232-18.37,26.152
		c0,0,6.219-16.647,20.104-26.084c0,0-6.721,14.926-7.473,29.096c0,0,1.812-15.928,8.865-28.81c0,0-6.436,14.136-7.028,34.652
		c0,0,2.202-23.243,8.466-35.121c0,0-6.719,22.022-5.945,35.384c0,0,1.369-22.524,6.572-33.831c0,0-3.879,10.839-3.252,28.09
		c0,0,0.639-21.403,4.439-28.832c0,0-3.218,21.576,0.422,39.193c0,0-2.521-17.777,0.354-37.083c0,0-1.951,12.973,0.992,29.792
		c0,0-1.836-18.278,0.309-29.072c0,0-1.414,17.799,2.316,34.984c0,0-2.818-26.634-0.627-35.35c0,0-11.102,12.949-12.438,28.834
		c0,0,3.436-17.47,14.264-28.002c0,0-9.357,17.595-9.574,34.973c0,0,1.724-19.923,10.498-34.059c0,0-6.413,15.768-3.594,35.257
		c0,0-1.963-21.087,4.699-35.234c0,0-4.814,14.08-1.413,32.017c0,0-1.963-17.069,2.35-31.4c0,0-2.692,11.444,0.685,29.096
		c0,0-2.818-19.501,0.445-28.811c0,0-0.514,6.892,2.566,16.567c0,0-1.871-8.638-1.529-16.247c0,0-6.526,9.115-5.99,20.73
		c0,0,1.154-13.783,7.406-20.035c0,0-1.073,13.314,4.427,23.903c0,0-4.917-11.102-3.423-23.721c0,0-0.24,11.581,4.553,21.074
		c0,0-4.348-10.132-3.526-20.458c0,0-2.715,12.63-1.699,21.541c0,0-1.358-11.091,2.852-21.245c0,0-0.878,11.387,4.931,22.649
		c0,0-5.09-12.859-3.973-22.911c0,0-2.543,13.349,0.309,20.687c0,0-2.602-14.742,1.643-19.467
		c2.316-2.555,15.154,9.311,13.465,7.782L286.899,498.158z"/>
	<path fill="#231F20" d="M286.192,499.687c0,0,9.082-26.699,25.547-47.5c16.807-21.269,35.953-40.654,59.641-24.167
		c0,0-20.743-14.946-42.971,7.542c-31.525,31.961-41.089,61.946-41.293,63.361L286.192,499.687z"/>
	<polygon fill="#231F20" points="340.263,426.103 363.188,444.839 339.489,426.719 	"/>
	<polygon fill="#231F20" points="338.209,427.529 359.114,445.522 339.249,427.084 	"/>
	<polygon fill="#231F20" points="341.452,425.806 360.586,440.561 340.263,426.103 	"/>
	<path fill="#231F20" d="M348.125,423.262c0,0,9.962,9.379,15.278,17.047c0,0-11.456-13.029-16.169-16.511L348.125,423.262z"/>
	<path fill="#231F20" d="M350.499,422.531c0,0,8.523,4.645,14.035,14.195c0,0-8.957-11.398-15.586-13.818L350.499,422.531z"/>
	<path fill="#231F20" d="M345.719,423.719c0,0,9.618,9.606,12.789,14.205c0,0-11.191-12.061-14.068-13.611L345.719,423.719z"/>
	<path fill="#231F20" d="M343.014,424.678c0,0,8.043,6.993,12.299,13.578c0,0-9.457-10.842-13.121-13.225L343.014,424.678z"/>
	<path fill="#231F20" d="M352.895,422.555c0,0,8.33,2.727,14.754,8.934c0,0-9.653-6.766-16.236-8.865L352.895,422.555z"/>
	<path fill="#231F20" d="M355.999,422.531c0,0,5.191,1.255,10.52,5.352c0,0-9.266-4.609-12.938-4.906L355.999,422.531z"/>
	<path fill="#231F20" d="M347.578,422.954c0,0-0.308-3.971,6.585-5.191c0,0-5.512,2.076-5.215,5.146L347.578,422.954z"/>
	<path fill="#231F20" d="M350.053,422.805c0,0,6.756-3.457,16.74,0.241c0,0-9.928-2.683-16.191,0.067L350.053,422.805z"/>
	<path fill="#231F20" d="M348.959,422.908c0,0,3.229-3.628,10.656-3.344c0,0-7.051,1.256-9.551,3.229L348.959,422.908z"/>
	<path fill="#231F20" d="M342.18,425.031c0,0,3.605-8.216,14.047-7.635c0,0-8.58,0.16-13.236,7.281L342.18,425.031z"/>
	<path fill="#231F20" d="M339.489,426.719c0,0,2.76-10.839,16.578-8.102c0,0-11.82-2.03-15.804,7.485L339.489,426.719z"/>
	<path fill="#231F20" d="M349.61,417.363c0,0-12.609-1.529-13.076,11.01l0.878-0.673C337.412,427.7,337.081,417.763,349.61,417.363"
		/>
	<path fill="#231F20" d="M334.399,429.789c0,0-0.147-8.82,7.428-11.263c0,0-6.628,4.312-6.549,10.589L334.399,429.789z"/>
	<path fill="#231F20" d="M336.534,428.373l15.824,12.403c0,0-13.564-9.391-16.418-12.129L336.534,428.373z"/>
	<path fill="#231F20" d="M335.29,429.127c0,0,11.478,9.585,21.154,14.992c0,0-13.762-6.8-22.033-14.33L335.29,429.127z"/>
	<path fill="#231F20" d="M333.703,430.097c0,0,11.57,12.266,24.452,17.492c0,0-12.768-3.766-24.977-16.899L333.703,430.097z"/>
	<path fill="#231F20" d="M332.391,431.17c0,0,7.953,9.265,22.17,15.802c0,0-12.357-3.549-22.82-15.198L332.391,431.17z"/>
	<path fill="#231F20" d="M331.067,432.253c0,0,10.646,11.89,20.927,15.038c0,0-10.36-1.494-21.313-14.354L331.067,432.253z"/>
	<path fill="#231F20" d="M329.984,433.108c0,0,7.542,10.566,20.195,16.729c0,0-10.816-2.603-20.492-15.462L329.984,433.108z"/>
	<path fill="#231F20" d="M332.391,431.17c0,0-0.286-6.812,5.317-10.577c0,0-6.412,3.536-5.968,11.181L332.391,431.17z"/>
	<path fill="#231F20" d="M329.984,433.108c0,0,0.798-8.284,7.884-10.771c0,0-8.045,2.591-8.969,11.777L329.984,433.108z"/>
	<path fill="#231F20" d="M325.134,437.73c0,0,2.214-10.418,9.003-14.469c0,0-6.812,6.766-7.885,13.623L325.134,437.73z"/>
	<path fill="#231F20" d="M322.338,441.107c0,0,2.955-12.689,12.289-15.13c0,0-10.52,1.232-14.332,16.979L322.338,441.107z"/>
	<path fill="#231F20" d="M317.649,445.705c0,0-0.49-10.188,7.542-16.511c0,0-6.948,7.555-6.55,15.826L317.649,445.705z"/>
	<path fill="#231F20" d="M328.866,434.74c0,0,5.26,10.359,18.86,15.394c0,0-13.042-1.884-19.956-14.55L328.866,434.74z"/>
	<path fill="#231F20" d="M326.766,436.293c0,0,11.912,16.977,29.438,18.792c0,0-17.252-0.114-29.939-18.211L326.766,436.293z"/>
	<path fill="#231F20" d="M325.134,437.73c0,0,7.37,12.391,20.903,17.754c0,0-15.791-6.127-21.668-16.352L325.134,437.73z"/>
	<path fill="#231F20" d="M323.604,439.624c0,0,8.512,14.811,23.609,19.922c0,0-16.809-5.009-24.213-19.033L323.604,439.624z"/>
	<path fill="#231F20" d="M322.338,441.107c0,0,5.191,11.296,17.412,17.857c0,0-11.832-4.256-17.857-16.843L322.338,441.107z"/>
	<path fill="#231F20" d="M320.295,442.956c0,0,5.078,11.468,16.922,16.476c0,0-12.859-7.312-16.1-17.411L320.295,442.956z"/>
	<path fill="#231F20" d="M323,440.513c0,0,9.242,14.629,18.291,18.691c0,0-13.191-6.345-18.953-18.097L323,440.513z"/>
	<polygon fill="#231F20" points="325.499,438.393 343.47,447.908 324.381,439.122 	"/>
	<path fill="#231F20" d="M318.641,445.01c0,0,7.246,13.794,20.186,16.43c0,0-13.796-4.678-19.238-17.56L318.641,445.01z"/>
	<path fill="#231F20" d="M317.764,446.437c0,0,4.277,11.056,15.037,15.597c0,0-9.139-1.654-15.814-14.365L317.764,446.437z"/>
	<path fill="#231F20" d="M315.916,448.672c0,0,5.009,11.171,19.065,15.951c0,0-13.178-4.838-18.404-16.418L315.916,448.672z"/>
	<path fill="#231F20" d="M314.249,450.577c0,0,5.75,13.236,17.606,15.403c0,0-11.33-3.49-16.956-16.008L314.249,450.577z"/>
	<path fill="#231F20" d="M313.381,452.119c0,0,4.097,14.399,16.283,17.125c0,0-11.444-4.222-15.404-18.667L313.381,452.119z"/>
	<path fill="#231F20" d="M312.31,453.156c0,0,5.248,17.56,18.358,20.606c0,0-12.986-5.315-17.697-21.952L312.31,453.156z"/>
	<path fill="#231F20" d="M310.999,454.948c0,0,6.525,16.236,21.826,15.142c0,0-16.316-0.47-21.268-16.305L310.999,454.948z"/>
	<path fill="#231F20" d="M309.891,456.58c0,0-0.172,9.916,10.668,17.138c0,0-9.072-7.199-10.27-18.576L309.891,456.58z"/>
	<path fill="#231F20" d="M308.27,458.029c0.045-0.468-0.125,12.414,10.578,18.779c0,0-8.479-5.692-10.168-20.08L308.27,458.029z"/>
	<path fill="#231F20" d="M306.877,460.186c0,0-0.238,10.224,7.542,15.473c0,0-7.062-6.95-6.971-16.693L306.877,460.186z"/>
	<path fill="#231F20" d="M315.504,449.22c0,0,4.986,13.122,19.91,17.265c0,0-15.209-5.124-18.838-18.268L315.504,449.22z"/>
	<path fill="#231F20" d="M305.725,462.832c0,0,1.176,13.477,9.197,20.196c0,0-8.467-10.041-8.342-21.725L305.725,462.832z"/>
	<path fill="#231F20" d="M304.516,463.732c0,0,1.906,15.542,9.174,21.521c0,0-7.553-9.948-8.479-22.454L304.516,463.732z"/>
	<path fill="#231F20" d="M303.684,465.457c0,0,1.061,11.238,7.244,18.245c0,0-6.788-10.44-6.412-19.957L303.684,465.457z"/>
	<path fill="#231F20" d="M302.829,466.393c0,0,1.242,12.403,7.598,18.176c0,0-6.4-4.553-8.478-16.761L302.829,466.393z"/>
	<path fill="#231F20" d="M312.137,452.142c0,0,3.617-13.886,14.035-20.779c0,0-10.349,8.046-13.212,20.448L312.137,452.142z"/>
	<path fill="#231F20" d="M310.667,454.457c0,0,5.306-15.654,19.738-24.576c0,0-15.004,12.196-18.848,23.915L310.667,454.457z"/>
	<polygon fill="#231F20" points="337.412,427.7 347.977,436.932 336.817,427.849 	"/>
	<polygon fill="#231F20" points="347.235,423.798 354.994,432.06 345.719,423.719 	"/>
	<path fill="#231F20" d="M310.836,455.562c0,0,4.679,14.55,14.469,19.707c0,0-10.098-4.097-15.414-18.689L310.836,455.562z"/>
	<path fill="#231F20" d="M307.859,459.112c0,0,2.534,11.228,10.782,15.587c0,0-7.679-3.97-10.371-16.67L307.859,459.112z"/>
	<path fill="#231F20" d="M301.708,468.492c0,0-0.034,10.588,5.694,15.038c0,0-4.232-0.297-6.504-14.012L301.708,468.492z"/>
	<path fill="#231F20" d="M300.112,470.979c0,0,0.434,9.731,5.762,14.845c0,0-5.646-7.542-5.248-15.907L300.112,470.979z"/>
	<path fill="#231F20" d="M309.377,457.709c0,0,2.76,14.604,11.934,16.648c0,0-8.442,0.216-12.676-15.93L309.377,457.709z"/>
	<path fill="#231F20" d="M318.63,445.374c0,0,2.419,11.548,10.931,18.358c0,0-8.42-7.244-10.213-19.385L318.63,445.374z"/>
	<path fill="#231F20" d="M285.747,498.158c0,0,30.088-26.152,66.67-21.589c31.297,3.903,35.587,24.293,36.752,37.928
		c0,0-3.754-29.21-26.814-34.185c0,0,17.869,6.401,24.168,31.914c0,0-8.17-28.126-29.53-32.884c0,0,19.454,6.595,25.421,26.015
		c0,0-8.66-22.42-31.491-27.189c0,0,22.524,7.085,23.744,32.587c0,0-1.996-23.801-24.086-31.457c0,0,14.411,4.757,16.155,20.241
		c0,0-1.768-13.544-17.195-19.763c0,0,13.146,9.493,11.98,28.469c0,0-1.607-25.56-18.734-30.352c0,0,16.259,6.299,16.772,31.571
		c0,0-0.399-23.606-18.152-31.319c0,0,15.643,6.274,13.418,31.754c0,0,2.132-23.116-16.591-32.44c0,0,14.696,8.798,14.651,29.404
		c0,0,0.433-17.868-14.766-28.067c0,0,12.425,12.22,13.064,25.922c0,0-2.739-15.151-14.741-25.237c0,0,11.547,9.299,13.145,28.021
		c0,0-2.83-21.542-17.15-28.832c0,0,13.042,8.021,14.48,33.693c0,0-2.123-23.836-15.165-32.872c0,0,11.696,11.694,12.528,32.085
		c0,0-1.346-18.689-13.246-31.126c0,0,12.061,16.304,10.748,35.839c0,0,0.719-20.059-12.095-36.021c0,0,10.565,12.129,9.731,33.215
		c0,0,1.553-16.545-10.474-33.01c0,0,9.117,12.973,8.638,32.793c0,0,0.377-24.396-11.57-33.295c0,0,10.156,13.989,10.338,30.476
		c0,0-0.971-15.825-11.182-29.415c0,0,8.079,10.941,8.877,26.141c0,0-2.236-17.161-9.482-24.589c0,0,14.982,12.232,18.371,26.152
		c0,0-6.242-16.647-20.115-26.084c0,0,6.731,14.926,7.474,29.096c0,0-1.838-15.928-8.866-28.81c0,0,6.434,14.136,7.028,34.652
		c0,0-2.202-23.243-8.456-35.121c0,0,6.711,22.022,5.924,35.384c0,0-1.359-22.524-6.562-33.831c0,0,3.869,10.839,3.24,28.09
		c0,0-0.627-21.403-4.414-28.832c0,0,3.194,21.576-0.445,39.193c0,0,2.533-17.777-0.344-37.083c0,0,1.951,12.973-0.992,29.792
		c0,0,1.827-18.278-0.309-29.072c0,0,1.416,17.799-2.305,34.984c0,0,2.797-26.634,0.617-35.35c0,0,11.09,12.949,12.426,28.834
		c0,0-3.411-17.47-14.264-28.002c0,0,9.368,17.595,9.586,34.973c0,0-1.725-19.923-10.497-34.059c0,0,6.412,15.768,3.595,35.257
		c0,0,1.962-21.087-4.715-35.234c0,0,4.838,14.08,1.416,32.017c0,0,1.973-17.069-2.34-31.4c0,0,2.705,11.444-0.672,29.096
		c0,0,2.795-19.501-0.457-28.811c0,0,0.502,6.892-2.568,16.567c0,0,1.861-8.638,1.541-16.247c0,0,6.505,9.115,5.979,20.73
		c0,0-1.152-13.783-7.393-20.035c0,0,1.05,13.314-4.45,23.903c0,0,4.94-11.102,3.435-23.721c0,0,0.238,11.581-4.542,21.074
		c0,0,4.325-10.132,3.503-20.458c0,0,2.727,12.63,1.712,21.541c0,0,1.323-11.091-2.874-21.245c0,0,0.889,11.387-4.92,22.649
		c0,0,5.078-12.859,3.983-22.911c0,0,2.544,13.349-0.319,20.687c0,0,2.602-14.742-1.666-19.467
		c-1.804-1.996-9.276,4.245-13.293,7.897L285.747,498.158z"/>
	<path fill="none" stroke="#231F20" stroke-width="12.0637" stroke-miterlimit="10" d="M753.369,765.213
		c67.398-67.582,109.262-161.898,109.262-266.245c0-104.71-42.137-199.3-109.924-266.917l-252.05,266.222L753.369,765.213z"/>
	<path fill="none" stroke="#231F20" stroke-width="12.0637" stroke-miterlimit="10" d="M247.294,232.05
		c-67.788,67.628-109.926,162.23-109.926,266.917c0,104.347,41.864,198.663,109.253,266.245l252.734-266.952L247.294,232.05z"/>
	<path fill="none" stroke="#231F20" stroke-width="12.0637" stroke-miterlimit="10" d="M176.551,839.242h176.344
		c-39.685-18.107-75.615-43.291-106.273-74.029L176.551,839.242z"/>
	<path fill="none" stroke="#231F20" stroke-width="12.0637" stroke-miterlimit="10" d="M753.369,765.213
		c-30.648,30.738-66.557,55.922-106.25,74.029h176.33L753.369,765.213z"/>
	<path fill="none" stroke="#231F20" stroke-width="12.0637" stroke-miterlimit="10" d="M179.872,157.314l70.777,74.725
		c31.299-31.218,68.049-56.686,108.67-74.725H179.872z"/>
	<path fill="none" stroke="#231F20" stroke-width="12.0637" stroke-miterlimit="10" d="M819.422,157.314H639.984
		c40.643,18.039,77.396,43.506,108.705,74.725L819.422,157.314z"/>
	<path fill="#231F20" d="M619.996,507.468c1.678-4.974,3.73-6.708,7.404-6.445c3.775,0.25,5.83,1.951,6.379,5.11
		c3.844,0.446,7.656,0.867,11.443,1.325c1.223,0.147,2.477,0.262,3.629,0.661c1.746,0.594,3.172,0.148,4.643-0.788
		c10.121-6.412,20.322-12.664,30.385-19.202c9.277-6.024,18.303-12.392,27.547-18.45c6.49-4.245,13.168-8.204,19.717-12.381
		c9.426-5.978,18.871-11.924,28.193-18.097c4.541-2.989,8.832-6.377,13.203-9.629c0.58-0.411,0.992-1.051,1.393-1.654
		c1.664-2.408,3.705-4.645,4.754-7.292c1.543-3.821,4.566-5.203,7.99-6.173c5.955-1.654,11.809-0.878,17.309,1.609
		c14.115,6.366,22.078,17.32,23.379,32.805c0.627,7.347-2.031,13.839-6.617,19.465c-2.236,2.728-4.734,5.237-7.338,7.61
		c-3.344,3.092-7.564,4.244-11.947,4.895c-9.549,1.472-19.1,2.888-28.641,4.45c-31.898,5.146-63.439,12.323-95.057,18.985
		c-6.184,1.278-12.402,2.512-18.562,3.973c-3.172,0.718-6.207,1.882-8.98,3.709c-4.918,3.252-9.824,6.571-15.541,8.146
		c-5.057,1.392-10.246,2.339-15.393,3.229c-1.369,0.216-3.057-0.217-4.324-0.856c-2.533-1.322-5.02-1.346-7.678-0.65
		c-2.889,0.753-5.799,1.461-8.82,1.403c-1.975-0.012-3.617-0.707-5.148-1.871c-2.314-1.734-4.666-3.389-7.061-4.986
		c-1.998-1.3-4.188-1.528-6.527-0.969c-3.389,0.799-6.801,1.472-9.928,3.217c-1.426,0.811-3,0.515-4.369-0.398
		c-1.199-0.788-1.553-2.204-0.832-3.835c0.535-1.164,1.209-2.282,1.973-3.354c4.906-6.948,11.068-12.723,17.322-18.381
		c4.473-4.075,8.969-8.079,14.137-11.228c1.916-1.187,3.992-2.179,6.104-2.898c1.266-0.445,2.83-0.502,4.152-0.25
		c2.762,0.558,3.848,3.41,2.396,5.795c-0.41,0.65-0.797,1.357-1.357,1.871c-1.711,1.575-2.385,3.641-2.943,5.819
		c-1.256,4.94-0.936,4.245,2.191,6.755C612.291,501.547,616.115,504.435,619.996,507.468 M665.717,502.733
		c3.068-0.878,5.852-1.985,8.773-2.544c6.619-1.289,13.303-2.271,19.934-3.447c25.285-4.483,50.568-9.001,75.867-13.452
		c4.016-0.707,7.963-1.586,11.568-3.549c5.738-3.138,11.479-6.219,17.16-9.424c1.199-0.661,2.34-1.643,3.049-2.75
		c2.602-4.073,4.461-8.512,5.168-13.316c1.768-11.889-2.008-22.396-8.193-32.29c-0.709-1.164-1.734-1.643-3.195-1.528
		c-3.422,0.274-6.48,1.461-9.457,3.092c-4.018,2.168-7.943,4.473-11.57,7.302c-3.299,2.602-6.553,5.363-10.053,7.656
		c-11.787,7.761-23.699,15.404-35.576,23.015c-6.801,4.337-13.783,8.42-20.506,12.826c-9.973,6.514-19.771,13.257-29.668,19.853
		C674.66,497.086,670.258,499.836,665.717,502.733 M583.117,506.989c0.947,0.594,1.711,1.096,2.486,1.518
		c3.184,1.815,6.824,1.495,10.248,1.974c2.842,0.389,5.066-1.459,7.312-2.932c0.662-0.434,0.789-0.821,0.436-1.472
		c-0.57-1.004-1.131-2.009-1.668-2.943c0.275-0.435,0.502-0.765,0.697-1.039c-2.203-2.042-4.336-3.982-6.549-6.014
		C591.893,499.607,587.625,503.201,583.117,506.989 M625.473,513.698c0,0.114-0.012,0.229-0.023,0.331
		c0.971,0.365,1.918,0.821,2.932,1.073c2.979,0.718,5.91,0.262,8.854-0.445c3.834-0.948,7.441-2.442,10.92-4.357
		c-1.607-0.219-3.184-0.32-4.768-0.355c-3.332-0.057-6.664-0.126-9.984-0.079c-0.73,0-1.518,0.262-2.191,0.639
		c-1.506,0.799-2.932,1.733-4.402,2.636C626.385,513.367,625.928,513.493,625.473,513.698 M779.201,424.723
		c3.994-2.031,7.896-4.051,11.604-5.979c-2.783-0.127-5.809,0.343-8.785,1.016c-0.227,0.034-0.469,0.238-0.594,0.443
		C780.684,421.711,779.955,423.217,779.201,424.723 M582.102,509.637c-1.414,1.141-3.035,2.441-4.781,3.846
		c0.332,0.011,0.4,0.022,0.48,0.011c0.217-0.08,0.432-0.126,0.627-0.25c2.088-1.302,4.188-1.222,6.344-0.161
		c0.605,0.297,1.234,0.57,1.895,0.787c0.309,0.104,0.719,0.171,0.971,0.024c0.617-0.435,1.176-1.006,1.666-1.415
		C586.951,511.542,584.623,510.642,582.102,509.637 M604.648,491.129c-1.711,1.62-3.422,3.207-5.215,4.907
		c1.654,1.381,3.195,2.738,4.793,4.131c0.285-0.342,0.49-0.583,0.742-0.891C601.43,496.606,603.645,493.891,604.648,491.129
		 M786.686,480.427c3.584,0.296,8.729-2.567,9.928-5.534C793.338,476.741,790.008,478.602,786.686,480.427"/>
	<path fill="#231F20" d="M466.324,210.189c-19.979,0-36.183,15.095-36.183,33.683c0,37.79,40.997,47.706,68.896,85.096
		c26.413-37.14,68.905-48.492,68.905-85.096c0-18.587-16.213-33.683-36.17-33.683c-14.49,0-26.963,7.963-32.746,19.419
		C493.274,218.153,480.813,210.189,466.324,210.189"/>
	<path fill="none" stroke="#231F20" stroke-width="12.0824" stroke-miterlimit="10" d="M499.995,131.322
		c200.269,0,362.626,165.071,362.626,368.684c0,203.615-162.357,368.674-362.626,368.674
		c-200.271,0-362.626-165.059-362.626-368.674C137.369,296.393,299.723,131.322,499.995,131.322z"/>
</g>
</svg>
