<?xml version="1.0" encoding="iso-8859-1"?>
<!-- Generator: Adobe Illustrator 16.0.0, SVG Export Plug-In . SVG Version: 6.00 Build 0)  -->
<!DOCTYPE svg PUBLIC "-//W3C//DTD SVG 1.0//EN" "http://www.w3.org/TR/2001/REC-SVG-20010904/DTD/svg10.dtd">
<svg version="1.0" id="Layer_1" xmlns="http://www.w3.org/2000/svg" xmlns:xlink="http://www.w3.org/1999/xlink" x="0px" y="0px"
	 width="476.789px" height="476.787px" viewBox="0 0 476.789 476.787" style="enable-background:new 0 0 476.789 476.787;"
	 xml:space="preserve">
<style type="text/css">
<![CDATA[
	.st0{fill:#FFFFFF;stroke:#FFFFFF;stroke-width:9.4701;stroke-miterlimit:10;}
	.st1{clip-path:url(#SVGID_2_);fill:#333333;stroke:#FFFFFF;stroke-width:0.7907;stroke-miterlimit:10;}
	.st2{clip-path:url(#SVGID_2_);fill:#333333;}
]]>
</style>
<circle class="st0" cx="238.395" cy="238.394" r="233.659"/>
<g>
	<defs>
		<path id="SVGID_1_" d="M212.308,286.079v48.766h55.672v-48.766 M225.388,131.983l-90.477,90.556
			c-8.143,8.158-8.143,21.401,0,29.556c3.945,3.945,9.186,6.123,14.764,6.123c2.416,0,4.746-0.485,6.959-1.268v77.895
			c0,7.684,6.244,13.932,13.924,13.932h27.834c7.672,0,13.916-6.248,13.916-13.932h-41.75V245.97l69.59-69.661l69.594,69.661v88.875
			h-41.762c0,7.684,6.242,13.932,13.924,13.932h27.838c7.672,0,13.916-6.248,13.916-13.932V256.95
			c2.211,0.782,4.539,1.268,6.961,1.268c5.578,0,10.812-2.178,14.758-6.123c8.143-8.154,8.143-21.398,0-29.556l-90.467-90.556
			c-3.947-3.942-9.357-5.916-14.762-5.916C234.735,126.067,229.327,128.042,225.388,131.983"/>
	</defs>
	<use xlink:href="#SVGID_1_"  style="overflow:visible;fill:#333333;"/>
	<clipPath id="SVGID_2_">
		<use xlink:href="#SVGID_1_"  style="overflow:visible;"/>
	</clipPath>
	<path class="st2" d="M31.968-62.568c-114.859,0-208.076,86.615-208.076,193.328c0,217.104,235.699,274.026,396.316,488.653
		C372.065,406.099,616.534,340.931,616.534,130.76c0-106.713-93.221-193.328-208.074-193.328
		c-83.316,0-155.023,45.707-188.252,111.467C186.981-16.861,115.28-62.568,31.968-62.568"/>
	<path class="st1" d="M31.968-62.568c-114.859,0-208.076,86.615-208.076,193.328c0,217.104,235.699,274.026,396.316,488.653
		C372.065,406.099,616.534,340.931,616.534,130.76c0-106.713-93.221-193.328-208.074-193.328
		c-83.316,0-155.023,45.707-188.252,111.467C186.981-16.861,115.28-62.568,31.968-62.568z"/>
</g>
</svg>
