<?xml version="1.0" encoding="iso-8859-1"?>
<!-- Generator: Adobe Illustrator 16.0.0, SVG Export Plug-In . SVG Version: 6.00 Build 0)  -->
<!DOCTYPE svg PUBLIC "-//W3C//DTD SVG 1.0//EN" "http://www.w3.org/TR/2001/REC-SVG-20010904/DTD/svg10.dtd">
<svg version="1.0" id="Layer_1" xmlns="http://www.w3.org/2000/svg" xmlns:xlink="http://www.w3.org/1999/xlink" x="0px" y="0px"
	 width="476.789px" height="476.787px" viewBox="0 0 476.789 476.787" style="enable-background:new 0 0 476.789 476.787;"
	 xml:space="preserve">
<style type="text/css">
<![CDATA[
	.st0{fill:#FFFFFF;stroke:#FFFFFF;stroke-width:9.4701;stroke-miterlimit:10;}
	.st1{fill:#333333;}
]]>
</style>
<path class="st0" d="M472.054,238.394c0,129.049-104.613,233.66-233.66,233.66S4.735,367.442,4.735,238.394
	c0-129.043,104.611-233.66,233.658-233.66S472.054,109.35,472.054,238.394z"/>
<path class="st1" d="M182.569,146.957c-33.346,0-60.408,25.18-60.408,56.21c0,63.127,68.424,79.686,115.049,142.092
	c44.088-62.031,115.059-80.973,115.059-142.092c0-31.03-27.061-56.21-60.4-56.21c-24.188,0-45.004,13.287-54.658,32.413
	C227.573,160.244,206.749,146.957,182.569,146.957"/>
</svg>
