<?xml version="1.0" encoding="iso-8859-1"?>
<!-- Generator: Adobe Illustrator 16.0.0, SVG Export Plug-In . SVG Version: 6.00 Build 0)  -->
<!DOCTYPE svg PUBLIC "-//W3C//DTD SVG 1.0//EN" "http://www.w3.org/TR/2001/REC-SVG-20010904/DTD/svg10.dtd">
<svg version="1.0" id="Layer_1" xmlns="http://www.w3.org/2000/svg" xmlns:xlink="http://www.w3.org/1999/xlink" x="0px" y="0px"
	 width="476.789px" height="476.787px" viewBox="0 0 476.789 476.787" style="enable-background:new 0 0 476.789 476.787;"
	 xml:space="preserve">
<style type="text/css">
<![CDATA[
	.st0{fill:#FFFFFF;stroke:#FFFFFF;stroke-width:9.4701;stroke-miterlimit:10;}
	.st1{fill:#333333;}
]]>
</style>
<circle class="st0" cx="238.395" cy="238.395" r="233.66"/>
<path class="st1" d="M133.471,289.758c2.322-7.339,5.174-9.928,10.262-9.545c5.203,0.394,8.023,2.898,8.795,7.587
	c5.324,0.653,10.592,1.271,15.85,1.952c1.684,0.218,3.414,0.391,5.004,0.965c2.426,0.877,4.395,0.211,6.43-1.169
	c14-9.47,28.125-18.726,42.023-28.371c12.816-8.903,25.328-18.316,38.109-27.274c8.975-6.287,18.209-12.135,27.271-18.275
	c13.039-8.852,26.107-17.66,39.008-26.752c6.281-4.428,12.215-9.437,18.256-14.237c0.785-0.622,1.361-1.572,1.926-2.452
	c2.271-3.559,5.121-6.875,6.592-10.787c2.115-5.633,6.289-7.691,11.027-9.101c8.215-2.446,16.334-1.297,23.955,2.368
	c19.52,9.394,30.531,25.605,32.346,48.47c0.869,10.86-2.824,20.45-9.178,28.772c-3.074,4.031-6.551,7.751-10.133,11.271
	c-4.623,4.539-10.475,6.261-16.553,7.251c-13.199,2.147-26.408,4.263-39.594,6.543c-44.152,7.631-87.758,18.207-131.5,28.047
	c-8.561,1.924-17.15,3.722-25.67,5.859c-4.371,1.1-8.594,2.805-12.418,5.52c-6.771,4.812-13.596,9.715-21.496,12.049
	c-6.98,2.053-14.162,3.441-21.311,4.742c-1.889,0.344-4.221-0.27-5.965-1.24c-3.514-1.956-6.951-1.992-10.625-0.945
	c-3.998,1.139-8.01,2.152-12.213,2.094c-2.746-0.036-4.998-1.07-7.15-2.803c-3.172-2.557-6.424-5.002-9.734-7.34
	c-2.748-1.936-5.793-2.258-9.021-1.451c-4.699,1.18-9.408,2.195-13.711,4.765c-1.982,1.187-4.146,0.755-6.045-0.6
	c-1.643-1.177-2.154-3.272-1.166-5.63c0.734-1.742,1.695-3.411,2.723-4.976c6.781-10.274,15.312-18.804,23.977-27.196
	c6.186-5.992,12.4-11.951,19.555-16.609c2.652-1.723,5.512-3.201,8.447-4.288c1.758-0.649,3.914-0.734,5.758-0.337
	c3.826,0.823,5.322,5.025,3.299,8.574c-0.547,0.959-1.104,1.99-1.859,2.741c-2.389,2.347-3.316,5.401-4.08,8.608
	c-1.744,7.299-1.285,6.271,3.02,9.99C122.822,280.999,128.102,285.279,133.471,289.758 M196.738,282.789
	c4.203-1.341,8.084-2.946,12.111-3.78c9.156-1.896,18.393-3.341,27.572-5.085c34.986-6.615,69.951-13.307,104.936-19.891
	c5.57-1.047,11.023-2.336,16.025-5.268c7.926-4.623,15.883-9.178,23.742-13.924c1.617-0.969,3.225-2.4,4.199-4.045
	c3.586-6.03,6.158-12.592,7.148-19.686c2.449-17.566-2.766-33.117-11.32-47.728c-0.996-1.7-2.43-2.413-4.441-2.243
	c-4.723,0.396-8.939,2.158-13.055,4.543c-5.564,3.223-11.002,6.622-16,10.807c-4.596,3.846-9.066,7.91-13.934,11.332
	c-16.322,11.473-32.766,22.756-49.227,34.002c-9.393,6.41-19.029,12.436-28.359,18.962c-13.773,9.634-27.338,19.589-41.035,29.337
	C209.094,274.395,202.971,278.498,196.738,282.789 M82.455,289.057c1.314,0.863,2.359,1.592,3.449,2.248
	c4.41,2.66,9.426,2.188,14.184,2.898c3.922,0.579,6.988-2.14,10.105-4.32c0.908-0.639,1.094-1.245,0.584-2.197
	c-0.771-1.471-1.545-2.945-2.289-4.356c0.381-0.621,0.688-1.115,0.939-1.523c-3.039-2.997-5.986-5.901-9.035-8.905
	C94.586,278.132,88.676,283.455,82.455,289.057 M141.047,298.97c-0.012,0.159-0.027,0.321-0.045,0.483
	c1.344,0.541,2.658,1.236,4.049,1.59c4.131,1.053,8.213,0.4,12.258-0.664c5.301-1.398,10.307-3.611,15.105-6.455
	c-2.223-0.281-4.418-0.461-6.613-0.507c-4.607-0.097-9.215-0.173-13.82-0.12c-1,0.008-2.094,0.402-2.994,0.923
	c-2.082,1.202-4.064,2.608-6.102,3.888C142.311,298.471,141.658,298.686,141.047,298.97 M353.705,167.467
	c5.492-3.028,10.895-6.012,16.043-8.847c-3.877-0.204-8.025,0.472-12.143,1.469c-0.311,0.073-0.668,0.378-0.818,0.683
	C355.738,162.977,354.738,165.201,353.705,167.467 M81.045,292.947c-1.965,1.69-4.188,3.607-6.604,5.686
	c0.443,0.035,0.547,0.074,0.641,0.039c0.303-0.107,0.621-0.194,0.887-0.375c2.881-1.938,5.797-1.783,8.758-0.231
	c0.859,0.445,1.742,0.838,2.645,1.163c0.408,0.143,1.002,0.24,1.305,0.027c0.879-0.648,1.66-1.459,2.336-2.076
	C87.746,295.801,84.564,294.447,81.045,292.947 M112.252,265.617c-2.367,2.375-4.732,4.746-7.197,7.229
	c2.258,2.086,4.404,4.069,6.619,6.119c0.381-0.492,0.656-0.863,1.02-1.332C107.801,273.719,110.852,269.683,112.252,265.617
	 M364.074,249.785c4.936,0.449,12.055-3.781,13.725-8.164C373.242,244.332,368.623,247.08,364.074,249.785"/>
</svg>
