<?xml version="1.0" encoding="utf-8"?>
<!-- Generator: Adobe Illustrator 16.0.0, SVG Export Plug-In . SVG Version: 6.00 Build 0)  -->
<!DOCTYPE svg PUBLIC "-//W3C//DTD SVG 1.1//EN" "http://www.w3.org/Graphics/SVG/1.1/DTD/svg11.dtd">
<svg version="1.1" id="Layer_1" xmlns="http://www.w3.org/2000/svg" xmlns:xlink="http://www.w3.org/1999/xlink" x="0px" y="0px"
	 width="731.415px" height="725.626px" viewBox="322.134 244 731.415 725.626" enable-background="new 322.134 244 731.415 725.626"
	 xml:space="preserve">
<g>
	<circle fill="#FFFFFF" cx="524.303" cy="760.67" r="126.448"/>
	<g>
		<path fill="#333333" d="M523.012,758.519c0.053-0.195,0.213-0.127,0.229,0c1.939,13.685,3.574,35.202-0.396,63.255
			c-1.506,10.639-3.404,20.678-3.137,34.127c0.02,1.01-0.424,2.178-0.65,3.271c-0.248-1.326-0.699-2.637-0.709-3.988
			c-0.123-19.334-0.125-38.787,2.104-56.48C522.055,785.981,523.274,773.188,523.012,758.519"/>
		<path fill="#333333" d="M523.401,759.16c0,0-8.371-23.137-22.811-41.42c-14.748-18.67-31.566-35.701-52.377-21.219
			c0,0,18.219-13.133,37.729,6.631c27.688,28.057,36.887,55.484,37.07,56.729L523.401,759.16z"/>
		<polygon fill="#333333" points="475.54,694.841 455.407,711.31 476.213,695.404 		"/>
		<polygon fill="#333333" points="477.344,696.097 458.987,711.9 476.432,695.705 		"/>
		<polygon fill="#333333" points="474.487,694.583 457.698,707.535 475.54,694.841 		"/>
		<path fill="#333333" d="M468.624,692.357c0,0-8.75,8.227-13.408,14.959c0,0,10.062-11.445,14.205-14.498L468.624,692.357z"/>
		<path fill="#333333" d="M466.54,691.716c0,0-7.492,4.068-12.324,12.469c0,0,7.854-10.023,13.688-12.139L466.54,691.716z"/>
		<path fill="#333333" d="M470.745,692.748c0,0-8.453,8.428-11.227,12.477c0,0,9.811-10.592,12.346-11.943L470.745,692.748z"/>
		<path fill="#333333" d="M473.124,693.591c0,0-7.078,6.143-10.809,11.928c0,0,8.312-9.518,11.523-11.619L473.124,693.591z"/>
		<path fill="#333333" d="M464.458,691.728c0,0-7.314,2.408-12.959,7.85c0,0,8.465-5.932,14.262-7.789L464.458,691.728z"/>
		<path fill="#333333" d="M461.719,691.712c0,0-4.576,1.109-9.24,4.691c0,0,8.146-4.043,11.367-4.301L461.719,691.712z"/>
		<path fill="#333333" d="M469.108,692.082c0,0,0.264-3.48-5.795-4.574c0,0,4.838,1.844,4.594,4.539L469.108,692.082z"/>
		<path fill="#333333" d="M466.936,691.943c0,0-5.947-3.033-14.715,0.197c0,0,8.723-2.324,14.23,0.078L466.936,691.943z"/>
		<path fill="#333333" d="M467.907,692.046c0,0-2.848-3.189-9.357-2.947c0,0,6.164,1.121,8.389,2.844L467.907,692.046z"/>
		<path fill="#333333" d="M473.838,693.902c0,0-3.154-7.211-12.334-6.703c0,0,7.537,0.139,11.619,6.395L473.838,693.902z"/>
		<path fill="#333333" d="M476.213,695.402c0,0-2.43-9.527-14.564-7.123c0,0,10.387-1.779,13.891,6.562L476.213,695.402z"/>
		<path fill="#333333" d="M467.313,687.179c0,0,11.082-1.355,11.504,9.648l-0.773-0.582
			C478.043,696.246,478.323,687.513,467.313,687.179"/>
		<path fill="#333333" d="M480.684,698.076c0,0,0.119-7.723-6.529-9.877c0,0,5.818,3.791,5.752,9.297L480.684,698.076z"/>
		<path fill="#333333" d="M478.817,696.828l-13.92,10.898c0,0,11.932-8.238,14.422-10.641L478.817,696.828z"/>
		<path fill="#333333" d="M479.907,697.496c0,0-10.096,8.414-18.58,13.164c0,0,12.088-5.965,19.355-12.584L479.907,697.496z"/>
		<path fill="#333333" d="M481.295,698.357c0,0-10.17,10.77-21.475,15.348c0,0,11.191-3.291,21.936-14.842L481.295,698.357z"/>
		<path fill="#333333" d="M482.454,699.294c0,0-6.98,8.141-19.473,13.873c0,0,10.832-3.121,20.033-13.34L482.454,699.294z"/>
		<path fill="#333333" d="M483.602,700.24c0,0-9.346,10.443-18.371,13.219c0,0,9.105-1.311,18.707-12.615L483.602,700.24z"/>
		<path fill="#333333" d="M484.571,701.001c0,0-6.629,9.273-17.748,14.684c0,0,9.484-2.268,17.996-13.574L484.571,701.001z"/>
		<path fill="#333333" d="M482.454,699.294c0,0,0.25-5.973-4.662-9.279c0,0,5.607,3.084,5.225,9.812L482.454,699.294z"/>
		<path fill="#333333" d="M484.571,701.001c0,0-0.729-7.275-6.934-9.449c0,0,7.064,2.256,7.877,10.338L484.571,701.001z"/>
		<path fill="#333333" d="M488.811,705.06c0,0-1.945-9.143-7.912-12.713c0,0,5.996,5.941,6.939,11.951L488.811,705.06z"/>
		<path fill="#333333" d="M491.26,708.029c0,0-2.588-11.145-10.771-13.279c0,0,9.238,1.084,12.576,14.906L491.26,708.029z"/>
		<path fill="#333333" d="M495.391,712.064c0,0,0.434-8.955-6.615-14.498c0,0,6.098,6.621,5.732,13.887L495.391,712.064z"/>
		<path fill="#333333" d="M485.534,702.419c0,0-4.627,9.105-16.561,13.533c0,0,11.459-1.654,17.523-12.771L485.534,702.419z"/>
		<path fill="#333333" d="M487.379,703.792c0,0-10.439,14.902-25.836,16.512c0,0,15.141-0.098,26.297-16.002L487.379,703.792z"/>
		<path fill="#333333" d="M488.811,705.06c0,0-6.471,10.891-18.34,15.59c0,0,13.854-5.396,19.006-14.375L488.811,705.06z"/>
		<path fill="#333333" d="M490.168,706.708c0,0-7.484,13.008-20.744,17.494c0,0,14.773-4.379,21.268-16.707L490.168,706.708z"/>
		<path fill="#333333" d="M491.26,708.029c0,0-4.545,9.918-15.287,15.684c0,0,10.395-3.75,15.686-14.803L491.26,708.029z"/>
		<path fill="#333333" d="M493.063,709.656c0,0-4.461,10.062-14.857,14.473c0,0,11.287-6.42,14.125-15.312L493.063,709.656z"/>
		<path fill="#333333" d="M490.69,707.494c0,0-8.115,12.848-16.062,16.41c0,0,11.58-5.557,16.633-15.873L490.69,707.494z"/>
		<polygon fill="#333333" points="488.489,705.64 472.709,713.978 489.475,706.277 		"/>
		<path fill="#333333" d="M494.51,711.449c0,0-6.342,12.105-17.703,14.439c0,0,12.107-4.121,16.889-15.424L494.51,711.449z"/>
		<path fill="#333333" d="M495.284,712.693c0,0-3.744,9.719-13.193,13.705c0,0,8.027-1.445,13.883-12.611L495.284,712.693z"/>
		<path fill="#333333" d="M496.918,714.673c0,0-4.418,9.814-16.754,14.008c0,0,11.576-4.248,16.164-14.416L496.918,714.673z"/>
		<path fill="#333333" d="M498.385,716.343c0,0-5.061,11.631-15.465,13.537c0,0,9.947-3.066,14.896-14.068L498.385,716.343z"/>
		<path fill="#333333" d="M499.135,717.712c0,0-3.584,12.646-14.291,15.008c0,0,10.061-3.705,13.541-16.373L499.135,717.712z"/>
		<path fill="#333333" d="M500.081,718.605c0,0-4.609,15.412-16.137,18.098c0,0,11.43-4.68,15.57-19.291L500.081,718.605z"/>
		<path fill="#333333" d="M501.231,720.195c0,0-5.719,14.227-19.145,13.293c0,0,14.312-0.422,18.668-14.328L501.231,720.195z"/>
		<path fill="#333333" d="M502.194,721.615c0,0,0.158,8.705-9.363,15.041c0,0,7.982-6.316,9.033-16.305L502.194,721.615z"/>
		<path fill="#333333" d="M503.625,722.882c-0.041-0.402,0.104,10.926-9.289,16.498c0,0,7.43-5,8.932-17.637L503.625,722.882z"/>
		<path fill="#333333" d="M504.838,724.761c0,0,0.217,8.98-6.602,13.607c0,0,6.191-6.092,6.121-14.65L504.838,724.761z"/>
		<path fill="#333333" d="M497.272,715.154c0,0-4.383,11.529-17.494,15.143c0,0,13.367-4.465,16.547-16.029L497.272,715.154z"/>
		<path fill="#333333" d="M505.858,727.109c0,0-1.035,11.832-8.068,17.719c0,0,7.422-8.811,7.318-19.08L505.858,727.109z"/>
		<path fill="#333333" d="M506.93,727.9c0,0-1.676,13.641-8.053,18.902c0,0,6.645-8.744,7.424-19.713L506.93,727.9z"/>
		<path fill="#333333" d="M507.659,729.392c0,0-0.924,9.883-6.355,16.035c0,0,5.953-9.176,5.629-17.527L507.659,729.392z"/>
		<path fill="#333333" d="M508.393,730.23c0,0-1.094,10.891-6.672,15.963c0,0,5.615-4.012,7.445-14.723L508.393,730.23z"/>
		<path fill="#333333" d="M500.231,717.718c0,0-3.172-12.207-12.332-18.264c0,0,9.09,7.092,11.617,17.955L500.231,717.718z"/>
		<path fill="#333333" d="M501.53,719.744c0,0-4.664-13.752-17.35-21.598c0,0,13.18,10.723,16.572,21.014L501.53,719.744z"/>
		<polygon fill="#333333" points="478.043,696.244 468.764,704.341 478.563,696.376 		"/>
		<polygon fill="#333333" points="469.42,692.818 462.59,700.072 470.745,692.748 		"/>
		<path fill="#333333" d="M501.368,720.712c0,0-4.105,12.791-12.709,17.309c0,0,8.873-3.605,13.535-16.406L501.368,720.712z"/>
		<path fill="#333333" d="M503.977,723.837c0,0-2.219,9.855-9.475,13.68c0,0,6.766-3.475,9.119-14.635L503.977,723.837z"/>
		<path fill="#333333" d="M509.407,732.07c0,0,0.021,9.297-5.023,13.213c0,0,3.732-0.277,5.713-12.309L509.407,732.07z"/>
		<path fill="#333333" d="M510.799,734.253c0,0-0.389,8.551-5.064,13.016c0,0,4.963-6.6,4.611-13.955L510.799,734.253z"/>
		<path fill="#333333" d="M502.659,722.593c0,0-2.426,12.836-10.488,14.631c0,0,7.422,0.164,11.148-14.01L502.659,722.593z"/>
		<path fill="#333333" d="M494.528,711.767c0,0-2.119,10.148-9.592,16.137c0,0,7.385-6.373,8.98-17.027L494.528,711.767z"/>
		<path fill="#333333" d="M523.264,757.88c0,0-8.623-81.756,7.951-92.018c0,0-15.291,10.738-6.957,92.162
			C524.258,758.027,523.596,760.767,523.264,757.88"/>
		<path fill="#333333" d="M521.432,706.062c0,0-8.145-11.85-19.738-25.789c0,0,14.947,15.787,19.828,25.186L521.432,706.062z"/>
		<path fill="#333333" d="M521.346,706.789c0,0-7.336-11.631-16.234-20.451c0,0,13.238,15.701,16.262,21.893L521.346,706.789z"/>
		<path fill="#333333" d="M521.514,704.615c0,0-8.488-14.014-15.566-22.393c0,0,9.014,9.537,15.746,21.307L521.514,704.615z"/>
		<path fill="#333333" d="M521.372,708.234c0,0-6.855-13.084-19.742-19.766c0,0,13.734,9.188,19.656,20.609L521.372,708.234z"/>
		<path fill="#333333" d="M521.407,710.523c0,0-5.043-13.133-19.18-16.404c0,0,12.727,3.186,19.102,17.611L521.407,710.523z"/>
		<path fill="#333333" d="M521.676,702.326c0,0-6.656-12.736-11.678-18.637c0,0,9.549,11.701,11.754,17.428L521.676,702.326z"/>
		<path fill="#333333" d="M521.733,699.91c0,0-4.748-13.258-13.293-18.832c0,0,9.941,4.934,13.482,18.107L521.733,699.91z"/>
		<path fill="#333333" d="M521.881,696.656c0,0-3.719-11.6-12.992-19.084c0,0,9.463,6.756,13.273,17.988L521.881,696.656z"/>
		<path fill="#333333" d="M521.708,698.464c0,0-1.107-11.9-9.012-21.471c0,0,7.467,7.174,9.275,19.297L521.708,698.464z"/>
		<path fill="#333333" d="M521.741,694.492c0,0-5.562-13.846-4.797-22.059c0,0,0.58,10.348,5.184,20.963L521.741,694.492z"/>
		<path fill="#333333" d="M522.303,691.945c0,0-5.051-13.252-3.023-24.268c0,0-1.355,8.945,3.102,22.941L522.303,691.945z"/>
		<path fill="#333333" d="M522.557,689.166c0,0-4.463-14.348,0.002-23.494c0,0-3.166,8.627,0.385,22.521L522.557,689.166z"/>
		<path fill="#333333" d="M523.022,686.867c0,0-3.354-19.799,4.711-24.697c0,0-6.549,5.102-4.229,23.357L523.022,686.867z"/>
		<path fill="#333333" d="M523.557,682.875c0,0-1.102-11.42,3.836-17.199c0,0-4.037,5.158-3.338,16.824L523.557,682.875z"/>
		<path fill="#333333" d="M504.493,697.074c0,0,14.064,5.324,17.074,16.697l-0.078,1.445
			C521.489,715.216,517.991,704.458,504.493,697.074"/>
		<path fill="#333333" d="M501.256,696.07c0,0,17.684,11.018,20.311,17.701l-0.078,1.443
			C521.489,715.216,519.79,709.718,501.256,696.07"/>
		<path fill="#333333" d="M521.647,724.492c0,0-6.332-17.559-22.914-23.061c0,0,16.779,5.258,22.885,21.258L521.647,724.492z"/>
		<path fill="#333333" d="M521.36,719.56c0,0-7.412-16.086-20.732-19.139c0,0,14.926,2.652,20.605,17.572L521.36,719.56z"/>
		<path fill="#333333" d="M521.647,724.492c0,0-6.771-14.049-22.396-16.443c0,0,17.572,4.635,22.221,18.02L521.647,724.492z"/>
		<path fill="#333333" d="M521.84,730.035c0,0-6.354-12.98-16.859-15.984c0,0,10.797,2.27,16.82,13.811L521.84,730.035z"/>
		<path fill="#333333" d="M521.055,725.353c0,0-4.885-9.521-15.904-13.109c0,0,11.814,3.084,16.197,12.5L521.055,725.353z"/>
		<path fill="#333333" d="M522.104,733.88c0,0-6.277-14.789-23.305-16.545c0,0,14.037-2.27,23.166,14.141L522.104,733.88z"/>
		<path fill="#333333" d="M522.038,735.691c0,0-4.744-13.143-16.959-15.979c0,0,12.656,5.479,17.188,17.781L522.038,735.691z"/>
		<path fill="#333333" d="M521.801,727.861c0,0,6.445-35.334,23.312-36.951c0,0-15.332-2.762-23.348,34.545L521.801,727.861z"/>
		<path fill="#333333" d="M521.647,724.492c0,0,6.225-30.27,16.711-34.262c0,0-10.332,1.455-16.742,32.459L521.647,724.492z"/>
		<path fill="#333333" d="M521.801,727.861c0,0,4.535-23.365,15.594-29.297c0,0-10.238,6.879-15.469,30.381L521.801,727.861z"/>
		<path fill="#333333" d="M521.881,732.32c0,0,3.229-28.879,22.648-33.805c0,0-17.604,5.006-22.426,35.365L521.881,732.32z"/>
		<path fill="#333333" d="M521.6,721.839c0,0,5.24-29.045,16.881-36.436c0,0-11.283,4.854-17.123,34.154L521.6,721.839z"/>
		<path fill="#333333" d="M521.487,715.216c0,0,4.682-26.619,18.045-33.09c0,0-12.805,3.807-18.096,30.082L521.487,715.216z"/>
		<path fill="#333333" d="M521.606,710.158c0,0,3.857-21.545,13.221-26.832c0,0-8.297,3.096-13.271,23.939L521.606,710.158z"/>
		<path fill="#333333" d="M521.514,704.615c0,0,4.605-18.791,12.291-22.229c0,0-7.104,1.982-12.053,18.73L521.514,704.615z"/>
		<path fill="#333333" d="M522.215,698.451c0,0,3.246-15.982,12.434-19.699c0,0-7.221,1.139-12.484,16.809L522.215,698.451z"/>
		<path fill="#333333" d="M522.61,692.417c0,0,4.078-14.799,12.791-16.938c0,0-6.246-0.453-12.248,13.189L522.61,692.417z"/>
		<path fill="#333333" d="M523.5,685.527c0,0,7.086-8.846,9.438-12.758c0,0-4.332,5.406-9.262,11.188L523.5,685.527z"/>
		<path fill="#333333" d="M524.243,681.898c0,0,6.387-8.949,8.199-14.539c0,0-4.188,7.809-8.02,12.965L524.243,681.898z"/>
		<path fill="#333333" d="M525.471,677.046c0,0,5.297-7.844,5.768-9.539c0,0-3.938,4.676-5.395,7.961L525.471,677.046z"/>
		<path fill="#333333" d="M522.227,735.082c0,0,3.836-22.867,18.461-32.02c0,0-13.402,10.088-18.328,33.945
			C522.36,737.009,522.042,736.048,522.227,735.082"/>
		<path fill="#333333" d="M522.215,740.265c0,0,2.867-20.795,15.143-32.059c0,0-9.521,7.82-14.6,34.574L522.215,740.265z"/>
		<path fill="#333333" d="M522.375,743.751c0,0,3.17-20.557,11.484-28.234c0,0-7.297,8.615-11.363,29.559L522.375,743.751z"/>
		<path fill="#333333" d="M522.725,746.759c0,0,1.494-18.836,15.848-26.412c0,0-10.562,5.92-15.627,27.607L522.725,746.759z"/>
		<path fill="#333333" d="M522.211,738.078c0,0-6.545-13.697-19.496-15.764c0,0,13.199,4.1,19.73,17.121L522.211,738.078z"/>
		<path fill="#333333" d="M522.401,741.138c0,0-5.375-11.771-14.15-14.707c0,0,12.127,8.121,14.43,18.354L522.401,741.138z"/>
		<path fill="#333333" d="M522.778,746.398c0,0-4.045-12.572-12.488-16.957c0,0,9.201,7.346,12.438,18.406L522.778,746.398z"/>
		<path fill="#333333" d="M523.049,749.875c0,0,1.729-15.344,11.207-21.1c0,0-8.857,8.721-11.033,22.797L523.049,749.875z"/>
		<path fill="#333333" d="M522.59,748.189c0,0-1.746-19.684-15.256-25.562c0,0,12.754,3.004,15.438,23.348L522.59,748.189z"/>
		<path fill="#333333" d="M523.649,758.554c0,0-26.426-22.984-58.545-18.971c-27.492,3.434-31.254,21.336-32.279,33.302
			c0,0,3.309-25.651,23.561-30.003c0,0-15.689,5.602-21.23,28.024c0,0,7.188-24.704,25.934-28.874c0,0-17.086,5.781-22.334,22.829
			c0,0,7.621-19.688,27.67-23.876c0,0-19.758,6.234-20.854,28.618c0,0,1.768-20.905,21.16-27.622c0,0-12.666,4.188-14.197,17.775
			c0,0,1.566-11.902,15.104-17.367c0,0-11.547,8.338-10.533,24.991c0,0,1.414-22.425,16.467-26.644c0,0-14.281,5.555-14.744,27.729
			c0,0,0.371-20.731,15.963-27.491c0,0-13.746,5.486-11.799,27.882c0,0-1.877-20.317,14.566-28.493c0,0-12.9,7.725-12.852,25.812
			c0,0-0.385-15.694,12.949-24.647c0,0-10.9,10.729-11.482,22.768c0,0,2.43-13.312,12.949-22.17c0,0-10.15,8.158-11.545,24.601
			c0,0,2.48-18.911,15.068-25.3c0,0-11.443,7.021-12.742,29.565c0,0,1.875-20.921,13.342-28.86c0,0-10.289,10.266-11.012,28.179
			c0,0,1.178-16.413,11.625-27.347c0,0-10.58,14.336-9.42,31.491c0,0-0.66-17.614,10.6-31.638c0,0-9.271,10.658-8.531,29.171
			c0,0-1.375-14.532,9.203-28.995c0,0-8.021,11.408-7.594,28.79c0,0-0.346-21.417,10.158-29.239c0,0-8.92,12.303-9.07,26.767
			c0,0,0.854-13.899,9.811-25.819c0,0-7.096,9.605-7.781,22.96c0,0,1.949-15.075,8.33-21.595c0,0-13.18,10.752-16.137,22.96
			c0,0,5.467-14.604,17.664-22.892c0,0-5.92,13.102-6.574,25.546c0,0,1.604-13.993,7.789-25.308c0,0-5.648,12.412-6.148,30.435
			c0,0,1.916-20.407,7.416-30.853c0,0-5.922,19.346-5.225,31.093c0,0,1.213-19.79,5.775-29.729c0,0-3.406,9.531-2.85,24.685
			c0,0,0.539-18.802,3.877-25.337c0,0-2.803,18.959,0.391,34.437c0,0-2.223-15.595,0.316-32.565c0,0-1.723,11.396,0.867,26.171
			c0,0-1.617-16.062,0.273-25.534c0,0-1.25,15.635,2.02,30.714c0,0-2.471-23.374-0.527-31.028c0,0-9.76,11.365-10.938,25.302
			c0,0,3.008-15.341,12.52-24.591c0,0-8.209,15.463-8.404,30.716c0,0,1.52-17.493,9.229-29.907c0,0-5.633,13.844-3.162,30.968
			c0,0-1.717-18.522,4.146-30.958c0,0-4.244,12.367-1.242,28.124c0,0-1.74-15.001,2.053-27.577c0,0-2.383,10.053,0.596,25.554
			c0,0-2.471-17.124,0.402-25.288c0,0-0.451,6.043,2.242,14.551c0,0-1.639-7.598-1.348-14.273c0,0-5.713,8-5.254,18.218
			c0,0,1.01-12.095,6.5-17.591c0,0-0.936,11.693,3.893,20.979c0,0-4.326-9.737-3.014-20.829c0,0-0.195,10.17,4.002,18.487
			c0,0-3.812-8.888-3.082-17.954c0,0-2.4,11.102-1.504,18.923c0,0-1.172-9.743,2.504-18.655c0,0-0.762,9.98,4.336,19.888
			c0,0-4.459-11.284-3.488-20.126c0,0-2.238,11.729,0.279,18.181c0,0-2.277-12.96,1.447-17.097c2.02-2.24,13.291,8.178,11.811,6.836
			L523.649,758.554z"/>
		<path fill="#333333" d="M523.014,759.88c0,0,7.994-23.438,22.436-41.723c14.75-18.666,31.566-35.697,52.377-21.217
			c0,0-18.217-13.133-37.727,6.631c-27.691,28.059-36.088,54.389-36.271,55.633L523.014,759.88z"/>
		<polygon fill="#333333" points="570.502,695.263 590.631,711.728 569.827,695.824 		"/>
		<polygon fill="#333333" points="568.694,696.517 587.053,712.322 569.608,696.126 		"/>
		<polygon fill="#333333" points="571.551,695.003 588.342,707.957 570.502,695.263 		"/>
		<path fill="#333333" d="M577.417,692.777c0,0,8.752,8.227,13.404,14.961c0,0-10.062-11.445-14.199-14.496L577.417,692.777z"/>
		<path fill="#333333" d="M579.5,692.138c0,0,7.492,4.066,12.326,12.467c0,0-7.855-10.021-13.693-12.135L579.5,692.138z"/>
		<path fill="#333333" d="M575.297,693.169c0,0,8.451,8.428,11.223,12.475c0,0-9.807-10.592-12.346-11.943L575.297,693.169z"/>
		<path fill="#333333" d="M572.917,694.013c0,0,7.078,6.145,10.809,11.924c0,0-8.312-9.516-11.521-11.613L572.917,694.013z"/>
		<path fill="#333333" d="M581.586,692.148c0,0,7.311,2.41,12.955,7.852c0,0-8.467-5.934-14.264-7.795L581.586,692.148z"/>
		<path fill="#333333" d="M584.319,692.134c0,0,4.574,1.109,9.24,4.691c0,0-8.143-4.043-11.363-4.303L584.319,692.134z"/>
		<path fill="#333333" d="M576.934,692.505c0,0-0.268-3.482,5.793-4.574c0,0-4.84,1.842-4.596,4.537L576.934,692.505z"/>
		<path fill="#333333" d="M579.1,692.361c0,0,5.949-3.029,14.719,0.201c0,0-8.727-2.326-14.232,0.078L579.1,692.361z"/>
		<path fill="#333333" d="M578.133,692.468c0,0,2.85-3.189,9.355-2.951c0,0-6.16,1.119-8.387,2.844L578.133,692.468z"/>
		<path fill="#333333" d="M572.202,694.324c0,0,3.15-7.211,12.336-6.705c0,0-7.537,0.141-11.623,6.396L572.202,694.324z"/>
		<path fill="#333333" d="M569.827,695.824c0,0,2.428-9.529,14.562-7.125c0,0-10.383-1.777-13.887,6.564L569.827,695.824z"/>
		<path fill="#333333" d="M578.725,687.601c0,0-11.082-1.355-11.506,9.648l0.777-0.582
			C567.997,696.667,567.713,687.935,578.725,687.601"/>
		<path fill="#333333" d="M565.354,698.498c0,0-0.119-7.723,6.529-9.877c0,0-5.818,3.791-5.752,9.295L565.354,698.498z"/>
		<path fill="#333333" d="M567.223,697.25l13.918,10.898c0,0-11.93-8.238-14.42-10.643L567.223,697.25z"/>
		<path fill="#333333" d="M566.131,697.916c0,0,10.096,8.414,18.582,13.164c0,0-12.09-5.961-19.357-12.582L566.131,697.916z"/>
		<path fill="#333333" d="M564.743,698.777c0,0,10.174,10.77,21.475,15.352c0,0-11.191-3.293-21.932-14.842L564.743,698.777z"/>
		<path fill="#333333" d="M563.59,699.714c0,0,6.979,8.141,19.469,13.875c0,0-10.834-3.121-20.035-13.34L563.59,699.714z"/>
		<path fill="#333333" d="M562.436,700.658c0,0,9.35,10.449,18.369,13.223c0,0-9.1-1.312-18.707-12.613L562.436,700.658z"/>
		<path fill="#333333" d="M561.469,701.421c0,0,6.629,9.273,17.748,14.684c0,0-9.486-2.27-17.996-13.572L561.469,701.421z"/>
		<path fill="#333333" d="M563.59,699.714c0,0-0.252-5.973,4.658-9.279c0,0-5.607,3.086-5.225,9.812L563.59,699.714z"/>
		<path fill="#333333" d="M561.469,701.421c0,0,0.727-7.273,6.934-9.451c0,0-7.066,2.262-7.879,10.34L561.469,701.421z"/>
		<path fill="#333333" d="M557.233,705.482c0,0,1.939-9.146,7.904-12.711c0,0-5.996,5.939-6.939,11.949L557.233,705.482z"/>
		<path fill="#333333" d="M554.78,708.451c0,0,2.59-11.145,10.771-13.283c0,0-9.24,1.086-12.576,14.906L554.78,708.451z"/>
		<path fill="#333333" d="M550.647,712.484c0,0-0.436-8.953,6.615-14.494c0,0-6.098,6.621-5.732,13.885L550.647,712.484z"/>
		<path fill="#333333" d="M560.508,702.837c0,0,4.625,9.109,16.559,13.533c0,0-11.461-1.65-17.521-12.77L560.508,702.837z"/>
		<path fill="#333333" d="M558.663,704.214c0,0,10.438,14.9,25.836,16.51c0,0-15.143-0.098-26.301-16.006L558.663,704.214z"/>
		<path fill="#333333" d="M557.233,705.482c0,0,6.467,10.887,18.334,15.59c0,0-13.854-5.396-19.004-14.375L557.233,705.482z"/>
		<path fill="#333333" d="M555.872,707.13c0,0,7.482,13.008,20.74,17.494c0,0-14.771-4.377-21.268-16.709L555.872,707.13z"/>
		<path fill="#333333" d="M554.78,708.451c0,0,4.545,9.914,15.289,15.682c0,0-10.396-3.75-15.686-14.803L554.78,708.451z"/>
		<path fill="#333333" d="M552.975,710.074c0,0,4.461,10.066,14.855,14.477c0,0-11.287-6.422-14.121-15.312L552.975,710.074z"/>
		<path fill="#333333" d="M555.348,707.916c0,0,8.115,12.846,16.066,16.41c0,0-11.582-5.559-16.633-15.873L555.348,707.916z"/>
		<polygon fill="#333333" points="557.551,706.058 573.333,714.398 556.563,706.695 		"/>
		<path fill="#333333" d="M551.528,711.869c0,0,6.346,12.104,17.703,14.438c0,0-12.104-4.121-16.885-15.424L551.528,711.869z"/>
		<path fill="#333333" d="M550.756,713.115c0,0,3.746,9.719,13.191,13.703c0,0-8.027-1.447-13.881-12.613L550.756,713.115z"/>
		<path fill="#333333" d="M549.124,715.091c0,0,4.414,9.818,16.752,14.01c0,0-11.576-4.246-16.162-14.414L549.124,715.091z"/>
		<path fill="#333333" d="M547.653,716.763c0,0,5.061,11.631,15.469,13.539c0,0-9.951-3.07-14.898-14.07L547.653,716.763z"/>
		<path fill="#333333" d="M546.901,718.132c0,0,3.592,12.646,14.295,15.008c0,0-10.061-3.703-13.543-16.373L546.901,718.132z"/>
		<path fill="#333333" d="M545.961,719.025c0,0,4.605,15.412,16.137,18.096c0,0-11.428-4.678-15.572-19.287L545.961,719.025z"/>
		<path fill="#333333" d="M544.807,720.615c0,0,5.723,14.229,19.148,13.293c0,0-14.314-0.422-18.668-14.324L544.807,720.615z"/>
		<path fill="#333333" d="M543.846,722.037c0,0-0.158,8.701,9.363,15.037c0,0-7.982-6.314-9.033-16.301L543.846,722.037z"/>
		<path fill="#333333" d="M542.418,723.306c0.037-0.406-0.107,10.924,9.287,16.496c0,0-7.432-5-8.936-17.635L542.418,723.306z"/>
		<path fill="#333333" d="M541.202,725.181c0,0-0.219,8.98,6.602,13.609c0,0-6.191-6.098-6.121-14.65L541.202,725.181z"/>
		<path fill="#333333" d="M548.766,715.576c0,0,4.383,11.529,17.496,15.145c0,0-13.369-4.469-16.551-16.033L548.766,715.576z"/>
		<path fill="#333333" d="M540.18,727.531c0,0,1.039,11.828,8.072,17.719c0,0-7.422-8.812-7.32-19.082L540.18,727.531z"/>
		<path fill="#333333" d="M539.108,728.318c0,0,1.678,13.645,8.057,18.906c0,0-6.646-8.742-7.426-19.717L539.108,728.318z"/>
		<path fill="#333333" d="M538.379,729.814c0,0,0.924,9.887,6.359,16.037c0,0-5.957-9.178-5.631-17.531L538.379,729.814z"/>
		<path fill="#333333" d="M537.641,730.652c0,0,1.098,10.889,6.676,15.959c0,0-5.617-4.008-7.445-14.723L537.641,730.652z"/>
		<path fill="#333333" d="M545.807,718.14c0,0,3.176-12.207,12.334-18.264c0,0-9.092,7.092-11.617,17.953L545.807,718.14z"/>
		<path fill="#333333" d="M544.51,720.164c0,0,4.666-13.752,17.352-21.598c0,0-13.184,10.725-16.572,21.014L544.51,720.164z"/>
		<polygon fill="#333333" points="567.999,696.666 577.276,704.763 567.477,696.794 		"/>
		<polygon fill="#333333" points="576.622,693.24 583.452,700.492 575.297,693.169 		"/>
		<path fill="#333333" d="M544.67,721.134c0,0,4.105,12.791,12.711,17.307c0,0-8.875-3.605-13.537-16.404L544.67,721.134z"/>
		<path fill="#333333" d="M542.057,724.259c0,0,2.223,9.855,9.48,13.68c0,0-6.77-3.477-9.119-14.633L542.057,724.259z"/>
		<path fill="#333333" d="M536.631,732.49c0,0-0.02,9.299,5.025,13.211c0,0-3.734-0.277-5.713-12.305L536.631,732.49z"/>
		<path fill="#333333" d="M535.241,734.673c0,0,0.387,8.553,5.064,13.018c0,0-4.965-6.602-4.611-13.955L535.241,734.673z"/>
		<path fill="#333333" d="M543.381,723.015c0,0,2.426,12.836,10.486,14.631c0,0-7.422,0.162-11.146-14.008L543.381,723.015z"/>
		<path fill="#333333" d="M551.51,712.185c0,0,2.121,10.152,9.594,16.143c0,0-7.385-6.375-8.979-17.031L551.51,712.185z"/>
		<path fill="#333333" d="M522.641,758.554c0,0,26.424-22.984,58.541-18.971c27.496,3.434,31.256,21.336,32.281,33.302
			c0,0-3.311-25.651-23.561-30.003c0,0,15.689,5.602,21.23,28.024c0,0-7.188-24.704-25.936-28.874c0,0,17.088,5.781,22.334,22.829
			c0,0-7.621-19.688-27.674-23.876c0,0,19.762,6.234,20.855,28.618c0,0-1.764-20.905-21.156-27.622c0,0,12.664,4.188,14.197,17.775
			c0,0-1.568-11.902-15.104-17.367c0,0,11.543,8.338,10.533,24.991c0,0-1.416-22.425-16.471-26.644c0,0,14.287,5.555,14.746,27.729
			c0,0-0.373-20.731-15.961-27.491c0,0,13.744,5.486,11.801,27.882c0,0,1.873-20.317-14.568-28.493c0,0,12.898,7.725,12.848,25.812
			c0,0,0.387-15.694-12.949-24.647c0,0,10.906,10.729,11.482,22.768c0,0-2.426-13.312-12.945-22.17c0,0,10.148,8.158,11.543,24.601
			c0,0-2.48-18.911-15.064-25.3c0,0,11.441,7.021,12.738,29.565c0,0-1.877-20.921-13.342-28.86c0,0,10.287,10.266,11.012,28.179
			c0,0-1.178-16.413-11.625-27.347c0,0,10.584,14.336,9.418,31.491c0,0,0.662-17.614-10.6-31.638c0,0,9.271,10.658,8.533,29.171
			c0,0,1.375-14.532-9.201-28.995c0,0,8.021,11.408,7.594,28.79c0,0,0.344-21.417-10.162-29.239c0,0,8.922,12.303,9.072,26.767
			c0,0-0.854-13.899-9.809-25.819c0,0,7.094,9.605,7.779,22.96c0,0-1.951-15.075-8.332-21.595c0,0,13.184,10.752,16.139,22.96
			c0,0-5.465-14.604-17.662-22.892c0,0,5.922,13.102,6.572,25.546c0,0-1.605-13.993-7.791-25.308c0,0,5.652,12.412,6.15,30.435
			c0,0-1.914-20.407-7.414-30.853c0,0,5.92,19.346,5.221,31.093c0,0-1.211-19.79-5.775-29.729c0,0,3.406,9.531,2.848,24.685
			c0,0-0.533-18.802-3.875-25.337c0,0,2.805,18.959-0.391,34.437c0,0,2.225-15.595-0.312-32.565c0,0,1.721,11.396-0.865,26.171
			c0,0,1.613-16.062-0.275-25.534c0,0,1.248,15.635-2.02,30.714c0,0,2.469-23.374,0.523-31.028c0,0,9.762,11.365,10.938,25.302
			c0,0-3.008-15.341-12.518-24.591c0,0,8.211,15.463,8.402,30.716c0,0-1.52-17.493-9.229-29.907c0,0,5.631,13.844,3.164,30.968
			c0,0,1.719-18.522-4.145-30.958c0,0,4.244,12.367,1.24,28.124c0,0,1.742-15.001-2.055-27.577c0,0,2.383,10.053-0.592,25.554
			c0,0,2.467-17.124-0.404-25.288c0,0,0.451,6.043-2.242,14.551c0,0,1.637-7.598,1.348-14.273c0,0,5.713,8,5.252,18.218
			c0,0-1.01-12.095-6.5-17.591c0,0,0.934,11.693-3.891,20.979c0,0,4.326-9.737,3.012-20.829c0,0,0.195,10.17-4,18.487
			c0,0,3.812-8.888,3.082-17.954c0,0,2.4,11.102,1.504,18.923c0,0,1.172-9.743-2.506-18.655c0,0,0.762,9.98-4.334,19.888
			c0,0,4.459-11.284,3.49-20.126c0,0,2.234,11.729-0.277,18.181c0,0,2.273-12.96-1.451-17.097c-1.584-1.756-8.15,3.729-11.688,6.934
			L522.641,758.554z"/>
	</g>
</g>
<g>
	<circle fill="#FFFFFF" cx="848.7" cy="762.156" r="126.447"/>
	<g>
		<g>
			<path id="SVGID_1_" fill="#333333" d="M834.583,787.962v26.391h30.127v-26.391 M841.661,704.571l-48.963,49.006
				c-4.406,4.416-4.406,11.582,0,15.993c2.135,2.137,4.971,3.314,7.99,3.314c1.307,0,2.566-0.262,3.766-0.686v42.152
				c0,4.156,3.379,7.541,7.535,7.541h15.062c4.152,0,7.531-3.385,7.531-7.541h-22.594v-48.097l37.66-37.697l37.66,37.697v48.097
				h-22.6c0,4.156,3.377,7.541,7.533,7.541h15.066c4.15,0,7.529-3.381,7.529-7.541v-42.152c1.197,0.422,2.457,0.686,3.768,0.686
				c3.02,0,5.852-1.178,7.986-3.314c4.406-4.411,4.406-11.577,0-15.993l-48.957-49.006c-2.137-2.133-5.064-3.201-7.988-3.201
				C846.719,701.37,843.792,702.44,841.661,704.571"/>
		</g>
		<g>
			<g>
				<defs>
					<path id="SVGID_2_" d="M834.583,787.962v26.391h30.127v-26.391 M841.661,704.571l-48.963,49.006
						c-4.406,4.416-4.406,11.582,0,15.993c2.135,2.137,4.971,3.314,7.99,3.314c1.307,0,2.566-0.262,3.766-0.686v42.152
						c0,4.156,3.379,7.541,7.535,7.541h15.062c4.152,0,7.531-3.385,7.531-7.541h-22.594v-48.097l37.66-37.697l37.66,37.697v48.097
						h-22.6c0,4.156,3.377,7.541,7.533,7.541h15.066c4.15,0,7.529-3.381,7.529-7.541v-42.152c1.197,0.422,2.457,0.686,3.768,0.686
						c3.02,0,5.852-1.178,7.986-3.314c4.406-4.411,4.406-11.577,0-15.993l-48.957-49.006c-2.137-2.133-5.064-3.201-7.988-3.201
						C846.719,701.37,843.792,702.44,841.661,704.571"/>
				</defs>
				<clipPath id="SVGID_3_">
					<use xlink:href="#SVGID_2_"  overflow="visible"/>
				</clipPath>
				<path clip-path="url(#SVGID_3_)" fill="#333333" d="M736.989,599.287c-62.158,0-112.604,46.874-112.604,104.622
					c0,117.489,127.551,148.292,214.473,264.44c82.18-115.438,214.477-150.703,214.477-264.44
					c0-57.748-50.445-104.622-112.602-104.622c-45.088,0-83.893,24.735-101.875,60.323
					C820.875,624.024,782.075,599.287,736.989,599.287"/>
			</g>
		</g>
		<g>
			<g>
				<defs>
					<path id="SVGID_4_" d="M834.583,787.962v26.391h30.127v-26.391 M841.661,704.571l-48.963,49.006
						c-4.406,4.416-4.406,11.582,0,15.993c2.135,2.137,4.971,3.314,7.99,3.314c1.307,0,2.566-0.262,3.766-0.686v42.152
						c0,4.156,3.379,7.541,7.535,7.541h15.062c4.152,0,7.531-3.385,7.531-7.541h-22.594v-48.097l37.66-37.697l37.66,37.697v48.097
						h-22.6c0,4.156,3.377,7.541,7.533,7.541h15.066c4.15,0,7.529-3.381,7.529-7.541v-42.152c1.197,0.422,2.457,0.686,3.768,0.686
						c3.02,0,5.852-1.178,7.986-3.314c4.406-4.411,4.406-11.577,0-15.993l-48.957-49.006c-2.137-2.133-5.064-3.201-7.988-3.201
						C846.719,701.37,843.792,702.44,841.661,704.571"/>
				</defs>
				<clipPath id="SVGID_5_">
					<use xlink:href="#SVGID_4_"  overflow="visible"/>
				</clipPath>
				<path clip-path="url(#SVGID_5_)" fill="#333333" stroke="#FFFFFF" stroke-width="0.4279" stroke-miterlimit="10" d="
					M736.989,599.287c-62.158,0-112.604,46.874-112.604,104.622c0,117.489,127.551,148.292,214.473,264.44
					c82.18-115.438,214.477-150.703,214.477-264.44c0-57.748-50.445-104.622-112.602-104.622
					c-45.088,0-83.893,24.735-101.875,60.323C820.875,624.024,782.075,599.287,736.989,599.287z"/>
			</g>
		</g>
	</g>
</g>
<path fill="#FFFFFF" d="M650.751,442.575c0,69.835-56.611,126.447-126.447,126.447c-69.835,0-126.448-56.611-126.448-126.447
	c0-69.834,56.611-126.449,126.447-126.449C594.14,316.126,650.751,372.741,650.751,442.575z"/>
<path fill="#333333" d="M494.094,393.092c-18.047,0-32.69,13.626-32.69,30.419c0,34.162,37.028,43.123,62.261,76.896
	c23.857-33.57,62.265-43.82,62.265-76.896c0-16.793-14.644-30.419-32.687-30.419c-13.09,0-24.354,7.19-29.578,17.541
	C518.448,400.283,507.179,393.092,494.094,393.092"/>
<circle fill="#FFFFFF" cx="848.7" cy="442.574" r="126.448"/>
<path fill="#333333" d="M791.919,470.372c1.257-3.973,2.8-5.373,5.553-5.166c2.815,0.213,4.342,1.568,4.76,4.105
	c2.881,0.354,5.732,0.688,8.578,1.057c0.911,0.119,1.847,0.213,2.708,0.521c1.312,0.477,2.378,0.115,3.479-0.633
	c7.576-5.125,15.221-10.133,22.741-15.354c6.937-4.816,13.707-9.912,20.623-14.76c4.857-3.401,9.854-6.565,14.759-9.89
	c7.057-4.79,14.128-9.557,21.109-14.479c3.398-2.396,6.609-5.105,9.879-7.703c0.426-0.338,0.736-0.852,1.043-1.327
	c1.229-1.927,2.771-3.722,3.567-5.838c1.145-3.049,3.403-4.161,5.968-4.926c4.445-1.322,8.839-0.702,12.963,1.281
	c10.563,5.084,16.522,13.856,17.505,26.23c0.471,5.877-1.527,11.065-4.968,15.569c-1.662,2.183-3.545,4.195-5.482,6.101
	c-2.502,2.456-5.669,3.387-8.959,3.924c-7.143,1.162-14.291,2.307-21.426,3.541c-23.895,4.129-47.492,9.852-71.164,15.178
	c-4.633,1.041-9.28,2.014-13.892,3.17c-2.365,0.596-4.651,1.52-6.72,2.988c-3.665,2.604-7.357,5.258-11.634,6.52
	c-3.776,1.111-7.663,1.863-11.532,2.566c-1.022,0.188-2.284-0.146-3.229-0.67c-1.902-1.061-3.762-1.078-5.75-0.512
	c-2.164,0.615-4.334,1.164-6.608,1.133c-1.486-0.021-2.705-0.578-3.869-1.518c-1.716-1.385-3.478-2.707-5.269-3.973
	c-1.486-1.049-3.135-1.223-4.882-0.785c-2.543,0.641-5.091,1.188-7.42,2.578c-1.073,0.643-2.244,0.41-3.271-0.324
	c-0.89-0.637-1.166-1.77-0.632-3.047c0.397-0.941,0.917-1.846,1.475-2.691c3.669-5.561,8.286-10.178,12.976-14.719
	c3.348-3.242,6.71-6.467,10.583-8.986c1.436-0.934,2.982-1.732,4.571-2.322c0.951-0.35,2.118-0.396,3.116-0.182
	c2.069,0.445,2.88,2.719,1.784,4.641c-0.296,0.518-0.597,1.076-1.006,1.482c-1.293,1.27-1.794,2.924-2.208,4.658
	c-0.943,3.949-0.694,3.395,1.635,5.406C786.156,465.631,789.014,467.948,791.919,470.372 M826.157,466.6
	c2.274-0.727,4.375-1.596,6.554-2.047c4.955-1.025,9.954-1.809,14.922-2.752c18.933-3.578,37.854-7.201,56.787-10.764
	c3.015-0.566,5.966-1.266,8.672-2.852c4.289-2.502,8.596-4.967,12.85-7.536c0.875-0.523,1.744-1.299,2.271-2.188
	c1.94-3.263,3.331-6.813,3.868-10.653c1.324-9.506-1.498-17.921-6.127-25.828c-0.539-0.92-1.313-1.307-2.401-1.214
	c-2.558,0.214-4.838,1.168-7.065,2.458c-3.011,1.745-5.954,3.584-8.659,5.85c-2.485,2.081-4.905,4.279-7.54,6.133
	c-8.833,6.208-17.73,12.313-26.64,18.399c-5.083,3.47-10.298,6.729-15.347,10.263c-7.454,5.213-14.794,10.6-22.207,15.875
	C832.843,462.057,829.53,464.278,826.157,466.6 M764.311,469.993c0.711,0.467,1.276,0.859,1.866,1.217
	c2.387,1.438,5.101,1.184,7.676,1.566c2.123,0.314,3.782-1.156,5.469-2.338c0.491-0.346,0.592-0.674,0.316-1.188
	c-0.417-0.797-0.836-1.594-1.239-2.357c0.207-0.336,0.373-0.604,0.508-0.822c-1.645-1.623-3.239-3.195-4.889-4.82
	C770.876,464.081,767.677,466.961,764.311,469.993 M796.019,475.356c-0.006,0.086-0.014,0.174-0.024,0.262
	c0.728,0.293,1.438,0.668,2.191,0.859c2.236,0.57,4.445,0.217,6.634-0.357c2.869-0.758,5.578-1.955,8.174-3.494
	c-1.203-0.152-2.391-0.25-3.578-0.273c-2.493-0.053-4.987-0.094-7.479-0.064c-0.542,0.004-1.133,0.217-1.621,0.5
	c-1.126,0.648-2.199,1.41-3.302,2.104C796.703,475.086,796.35,475.204,796.019,475.356 M911.102,404.19
	c2.972-1.638,5.896-3.253,8.683-4.786c-2.099-0.11-4.344,0.255-6.571,0.795c-0.169,0.04-0.361,0.204-0.442,0.37
	C912.202,401.761,911.661,402.965,911.102,404.19 M763.548,472.096c-1.063,0.914-2.268,1.951-3.574,3.076
	c0.24,0.02,0.296,0.041,0.347,0.021c0.164-0.059,0.336-0.105,0.48-0.203c1.559-1.049,3.137-0.965,4.739-0.125
	c0.466,0.24,0.942,0.453,1.432,0.631c0.221,0.076,0.542,0.129,0.706,0.014c0.476-0.35,0.897-0.789,1.265-1.123
	C767.174,473.641,765.452,472.909,763.548,472.096 M780.436,457.307c-1.281,1.285-2.562,2.568-3.896,3.912
	c1.223,1.129,2.384,2.201,3.582,3.311c0.207-0.266,0.355-0.467,0.553-0.721C778.027,461.69,779.678,459.506,780.436,457.307
	 M916.714,448.739c2.67,0.242,6.522-2.046,7.427-4.417C921.675,445.788,919.175,447.274,916.714,448.739"/>
<rect x="322.134" y="244" fill="none" width="730.578" height="725.625"/>
</svg>
