<?xml version="1.0" encoding="iso-8859-1"?>
<!-- Generator: Adobe Illustrator 16.0.0, SVG Export Plug-In . SVG Version: 6.00 Build 0)  -->
<!DOCTYPE svg PUBLIC "-//W3C//DTD SVG 1.0//EN" "http://www.w3.org/TR/2001/REC-SVG-20010904/DTD/svg10.dtd">
<svg version="1.0" id="Layer_1" xmlns="http://www.w3.org/2000/svg" xmlns:xlink="http://www.w3.org/1999/xlink" x="0px" y="0px"
	 width="476.789px" height="476.787px" viewBox="0 0 476.789 476.787" style="enable-background:new 0 0 476.789 476.787;"
	 xml:space="preserve">
<style type="text/css">
<![CDATA[
	.st0{fill:#FFFFFF;stroke:#FFFFFF;stroke-width:9.4701;stroke-miterlimit:10;}
	.st1{fill:#333333;}
]]>
</style>
<circle class="st0" cx="238.394" cy="238.394" r="233.659"/>
<g>
	<path class="st1" d="M236.007,234.419c0.096-0.364,0.392-0.236,0.425,0c3.583,25.287,6.606,65.049-0.736,116.886
		c-2.781,19.658-6.291,38.209-5.794,63.062c0.033,1.864-0.783,4.024-1.202,6.044c-0.458-2.45-1.293-4.873-1.31-7.372
		c-0.228-35.723-0.233-71.673,3.886-104.365C234.238,285.163,236.493,261.524,236.007,234.419"/>
	<path class="st1" d="M236.728,235.603c0,0-15.467-42.752-42.153-76.537c-27.254-34.5-58.332-65.971-96.787-39.212
		c0,0,33.667-24.267,69.72,12.253c51.164,51.847,68.16,102.53,68.503,104.828L236.728,235.603z"/>
	<polygon class="st1" points="148.283,116.751 111.083,147.182 149.529,117.79 	"/>
	<polygon class="st1" points="151.619,119.069 117.701,148.271 149.933,118.348 	"/>
	<polygon class="st1" points="146.34,116.276 115.318,140.207 148.284,116.751 	"/>
	<path class="st1" d="M135.503,112.159c0,0-16.169,15.2-24.775,27.643c0,0,18.598-21.149,26.25-26.792L135.503,112.159z"/>
	<path class="st1" d="M131.654,110.975c0,0-13.844,7.518-22.774,23.039c0,0,14.511-18.52,25.297-22.428L131.654,110.975z"/>
	<path class="st1" d="M139.425,112.884c0,0-15.623,15.572-20.744,23.05c0,0,18.126-19.569,22.813-22.067L139.425,112.884z"/>
	<path class="st1" d="M143.819,114.442c0,0-13.079,11.349-19.969,22.04c0,0,15.358-17.586,21.292-21.47L143.819,114.442z"/>
	<path class="st1" d="M127.805,110.998c0,0-13.517,4.45-23.947,14.505c0,0,15.642-10.962,26.357-14.394L127.805,110.998z"/>
	<path class="st1" d="M122.745,110.97c0,0-8.455,2.051-17.072,8.669c0,0,15.05-7.471,21.002-7.948L122.745,110.97z"/>
	<path class="st1" d="M136.401,111.653c0,0,0.486-6.434-10.706-8.453c0,0,8.939,3.405,8.488,8.386L136.401,111.653z"/>
	<path class="st1" d="M132.39,111.394c0,0-10.99-5.605-27.193,0.364c0,0,16.118-4.296,26.296,0.147L132.39,111.394z"/>
	<path class="st1" d="M134.183,111.586c0,0-5.264-5.895-17.294-5.449c0,0,11.39,2.075,15.501,5.257L134.183,111.586z"/>
	<path class="st1" d="M145.142,115.012c0,0-5.831-13.322-22.795-12.385c0,0,13.929,0.257,21.472,11.815L145.142,115.012z"/>
	<path class="st1" d="M149.529,117.786c0,0-4.487-17.605-26.914-13.162c0,0,19.193-3.289,25.667,12.127L149.529,117.786z"/>
	<path class="st1" d="M133.084,102.591c0,0,20.481-2.504,21.26,17.832l-1.434-1.076C152.91,119.347,153.43,103.208,133.084,102.591"
		/>
	<path class="st1" d="M157.792,122.729c0,0,0.22-14.27-12.065-18.251c0,0,10.754,7.006,10.63,17.177L157.792,122.729z"/>
	<path class="st1" d="M154.344,120.423l-25.723,20.139c0,0,22.046-15.224,26.651-19.663L154.344,120.423z"/>
	<path class="st1" d="M156.356,121.655c0,0-18.656,15.548-34.332,24.326c0,0,22.334-11.02,35.767-23.252L156.356,121.655z"/>
	<path class="st1" d="M158.921,123.246c0,0-18.792,19.902-39.681,28.359c0,0,20.68-6.078,40.532-27.423L158.921,123.246z"/>
	<path class="st1" d="M161.059,124.981c0,0-12.899,15.04-35.979,25.634c0,0,20.017-5.766,37.019-24.65L161.059,124.981z"/>
	<path class="st1" d="M163.187,126.727c0,0-17.273,19.297-33.948,24.426c0,0,16.821-2.423,34.566-23.311L163.187,126.727z"/>
	<path class="st1" d="M164.975,128.136c0,0-12.25,17.133-32.795,27.13c0,0,17.527-4.189,33.252-25.084L164.975,128.136z"/>
	<path class="st1" d="M161.059,124.981c0,0,0.463-11.039-8.613-17.148c0,0,10.363,5.697,9.653,18.132L161.059,124.981z"/>
	<path class="st1" d="M164.975,128.136c0,0-1.347-13.447-12.812-17.464c0,0,13.055,4.17,14.557,19.103L164.975,128.136z"/>
	<path class="st1" d="M172.809,135.631c0,0-3.594-16.892-14.618-23.489c0,0,11.081,10.978,12.823,22.085L172.809,135.631z"/>
	<path class="st1" d="M177.333,141.119c0,0-4.782-20.592-19.904-24.539c0,0,17.072,2.003,23.239,27.544L177.333,141.119z"/>
	<path class="st1" d="M184.97,148.576c0,0,0.801-16.548-12.226-26.792c0,0,11.268,12.237,10.596,25.66L184.97,148.576z"/>
	<path class="st1" d="M166.756,130.755c0,0-8.551,16.826-30.604,25.007c0,0,21.176-3.056,32.381-23.598L166.756,130.755z"/>
	<path class="st1" d="M170.163,133.293c0,0-19.29,27.535-47.743,30.508c0,0,27.978-0.178,48.594-29.568L170.163,133.293z"/>
	<path class="st1" d="M172.809,135.631c0,0-11.957,20.125-33.889,28.81c0,0,25.602-9.973,35.121-26.564L172.809,135.631z"/>
	<path class="st1" d="M175.318,138.679c0,0-13.83,24.037-38.335,32.328c0,0,27.303-8.09,39.301-30.871L175.318,138.679z"/>
	<path class="st1" d="M177.333,141.119c0,0-8.399,18.325-28.248,28.979c0,0,19.209-6.926,28.984-27.352L177.333,141.119z"/>
	<path class="st1" d="M180.667,144.125c0,0-8.242,18.596-27.458,26.742c0,0,20.862-11.863,26.102-28.296L180.667,144.125z"/>
	<path class="st1" d="M176.284,140.133c0,0-14.997,23.738-29.685,30.323c0,0,21.399-10.269,30.733-29.333L176.284,140.133z"/>
	<polygon class="st1" points="172.217,136.704 143.054,152.113 174.036,137.883 	"/>
	<path class="st1" d="M183.34,147.439c0,0-11.72,22.366-32.712,26.679c0,0,22.371-7.614,31.205-28.499L183.34,147.439z"/>
	<path class="st1" d="M184.772,149.736c0,0-6.921,17.96-24.384,25.325c0,0,14.839-2.671,25.656-23.303L184.772,149.736z"/>
	<path class="st1" d="M187.788,153.398c0,0-8.161,18.137-30.957,25.884c0,0,21.392-7.85,29.87-26.639L187.788,153.398z"/>
	<path class="st1" d="M190.5,156.484c0,0-9.349,21.492-28.576,25.014c0,0,18.384-5.667,27.529-25.997L190.5,156.484z"/>
	<path class="st1" d="M191.887,159.014c0,0-6.625,23.368-26.409,27.731c0,0,18.594-6.845,25.022-30.256L191.887,159.014z"/>
	<path class="st1" d="M193.631,160.66c0,0-8.516,28.482-29.815,33.444c0,0,21.119-8.646,28.772-35.646L193.631,160.66z"/>
	<path class="st1" d="M195.762,163.601c0,0-10.57,26.287-35.379,24.562c0,0,26.45-0.78,34.497-26.477L195.762,163.601z"/>
	<path class="st1" d="M197.54,166.224c0,0,0.291,16.087-17.303,27.792c0,0,14.753-11.671,16.693-30.127L197.54,166.224z"/>
	<path class="st1" d="M200.183,168.569c-0.076-0.746,0.196,20.187-17.165,30.485c0,0,13.728-9.238,16.504-32.59L200.183,168.569z"/>
	<path class="st1" d="M202.425,172.039c0,0,0.401,16.595-12.198,25.146c0,0,11.441-11.259,11.314-27.074L202.425,172.039z"/>
	<path class="st1" d="M188.445,154.284c0,0-8.098,21.306-32.326,27.983c0,0,24.699-8.253,30.576-29.624L188.445,154.284z"/>
	<path class="st1" d="M204.31,176.375c0,0-1.913,21.866-14.912,32.743c0,0,13.717-16.282,13.526-35.259L204.31,176.375z"/>
	<path class="st1" d="M206.291,177.839c0,0-3.097,25.205-14.882,34.929c0,0,12.278-16.159,13.717-36.427L206.291,177.839z"/>
	<path class="st1" d="M207.638,180.595c0,0-1.705,18.263-11.747,29.633c0,0,11-16.956,10.402-32.389L207.638,180.595z"/>
	<path class="st1" d="M208.997,182.142c0,0-2.024,20.124-12.33,29.499c0,0,10.378-7.413,13.76-27.205L208.997,182.142z"/>
	<path class="st1" d="M193.915,159.025c0,0-5.862-22.558-22.788-33.748c0,0,16.794,13.104,21.467,33.178L193.915,159.025z"/>
	<path class="st1" d="M196.312,162.769c0,0-8.617-25.414-32.06-39.911c0,0,24.357,19.816,30.626,38.829L196.312,162.769z"/>
	<polygon class="st1" points="152.91,119.343 135.764,134.307 153.872,119.589 	"/>
	<polygon class="st1" points="136.977,113.01 124.355,126.414 139.425,112.884 	"/>
	<path class="st1" d="M196.014,164.559c0,0-7.59,23.635-23.485,31.98c0,0,16.398-6.661,25.01-30.315L196.014,164.559z"/>
	<path class="st1" d="M200.837,170.334c0,0-4.102,18.208-17.508,25.275c0,0,12.5-6.42,16.85-27.04L200.837,170.334z"/>
	<path class="st1" d="M210.867,185.543c0,0,0.04,17.181-9.282,24.417c0,0,6.899-0.514,10.554-22.744L210.867,185.543z"/>
	<path class="st1" d="M213.439,189.581c0,0-0.718,15.797-9.357,24.049c0,0,9.17-12.193,8.52-25.786L213.439,189.581z"/>
	<path class="st1" d="M198.398,168.033c0,0-4.482,23.719-19.381,27.034c0,0,13.713,0.304,20.601-25.886L198.398,168.033z"/>
	<path class="st1" d="M183.374,148.027c0,0-3.914,18.755-17.723,29.819c0,0,13.646-11.778,16.591-31.466L183.374,148.027z"/>
	<path class="st1" d="M236.472,233.239c0,0-15.932-151.073,14.695-170.038c0,0-28.256,19.846-12.859,170.307
		C238.308,233.509,237.086,238.573,236.472,233.239"/>
	<path class="st1" d="M233.092,137.486c0,0-15.051-21.898-36.477-47.656c0,0,27.623,29.172,36.64,46.537L233.092,137.486z"/>
	<path class="st1" d="M232.929,138.827c0,0-13.556-21.492-29.999-37.788c0,0,24.461,29.012,30.047,40.451L232.929,138.827z"/>
	<path class="st1" d="M233.239,134.81c0,0-15.685-25.897-28.763-41.379c0,0,16.652,17.626,29.094,39.371L233.239,134.81z"/>
	<path class="st1" d="M232.977,141.498c0,0-12.671-24.178-36.482-36.525c0,0,25.381,16.979,36.321,38.086L232.977,141.498z"/>
	<path class="st1" d="M233.042,145.727c0,0-9.318-24.268-35.441-30.312c0,0,23.513,5.885,35.297,32.542L233.042,145.727z"/>
	<path class="st1" d="M233.537,130.58c0,0-12.298-23.535-21.579-34.438c0,0,17.647,21.622,21.72,32.205L233.537,130.58z"/>
	<path class="st1" d="M233.645,126.117c0,0-8.773-24.497-24.561-34.799c0,0,18.37,9.118,24.913,33.459L233.645,126.117z"/>
	<path class="st1" d="M233.918,120.102c0,0-6.873-21.434-24.01-35.265c0,0,17.488,12.485,24.531,33.241L233.918,120.102z"/>
	<path class="st1" d="M233.596,123.446c0,0-2.044-21.992-16.65-39.673c0,0,13.794,13.253,17.142,35.656L233.596,123.446z"/>
	<path class="st1" d="M233.659,116.103c0,0-10.278-25.584-8.861-40.76c0,0,1.069,19.121,9.574,38.736L233.659,116.103z"/>
	<path class="st1" d="M234.697,111.397c0,0-9.332-24.487-5.588-44.842c0,0-2.506,16.532,5.732,42.394L234.697,111.397z"/>
	<path class="st1" d="M235.167,106.263c0,0-8.246-26.512,0.003-43.415c0,0-5.852,15.944,0.71,41.617L235.167,106.263z"/>
	<path class="st1" d="M236.027,102.012c0,0-6.198-36.585,8.705-45.634c0,0-12.101,9.422-7.817,43.159L236.027,102.012z"/>
	<path class="st1" d="M237.015,94.638c0,0-2.035-21.103,7.086-31.782c0,0-7.459,9.531-6.165,31.089L237.015,94.638z"/>
	<path class="st1" d="M201.789,120.875c0,0,25.987,9.838,31.55,30.855l-0.144,2.671C233.195,154.401,226.73,134.523,201.789,120.875
		"/>
	<path class="st1" d="M195.806,119.021c0,0,32.676,20.357,37.533,32.708l-0.144,2.671
		C233.195,154.401,230.052,144.241,195.806,119.021"/>
	<path class="st1" d="M233.486,171.54c0,0-11.701-32.445-42.342-42.612c0,0,31.009,9.714,42.288,39.282L233.486,171.54z"/>
	<path class="st1" d="M232.957,162.426c0,0-13.697-29.723-38.313-35.363c0,0,27.581,4.9,38.078,32.472L232.957,162.426z"/>
	<path class="st1" d="M233.486,171.54c0,0-12.515-25.961-41.388-30.385c0,0,32.474,8.562,41.06,33.297L233.486,171.54z"/>
	<path class="st1" d="M233.841,181.783c0,0-11.738-23.986-31.154-29.535c0,0,19.953,4.191,31.083,25.519L233.841,181.783z"/>
	<path class="st1" d="M232.392,173.13c0,0-9.026-17.595-29.389-24.222c0,0,21.829,5.697,29.931,23.096L232.392,173.13z"/>
	<path class="st1" d="M234.331,188.889c0,0-11.603-27.327-43.062-30.573c0,0,25.937-4.193,42.805,26.13L234.331,188.889z"/>
	<path class="st1" d="M234.205,192.233c0,0-8.765-24.282-31.336-29.524c0,0,23.39,10.125,31.76,32.86L234.205,192.233z"/>
	<path class="st1" d="M233.771,177.767c0,0,11.909-65.293,43.076-68.283c0,0-28.332-5.101-43.143,63.834L233.771,177.767z"/>
	<path class="st1" d="M233.486,171.54c0,0,11.5-55.937,30.882-63.313c0,0-19.092,2.691-30.937,59.983L233.486,171.54z"/>
	<path class="st1" d="M233.771,177.767c0,0,8.38-43.176,28.814-54.137c0,0-18.92,12.711-28.584,56.137L233.771,177.767z"/>
	<path class="st1" d="M233.918,186.005c0,0,5.967-53.363,41.855-62.467c0,0-32.535,9.249-41.443,65.353L233.918,186.005z"/>
	<path class="st1" d="M233.4,166.64c0,0,9.683-53.671,31.194-67.329c0,0-20.85,8.971-31.641,63.115L233.4,166.64z"/>
	<path class="st1" d="M233.191,154.401c0,0,8.649-49.189,33.345-61.146c0,0-23.662,7.032-33.438,55.59L233.191,154.401z"/>
	<path class="st1" d="M233.411,145.053c0,0,7.127-39.812,24.428-49.581c0,0-15.327,5.719-24.522,44.232L233.411,145.053z"/>
	<path class="st1" d="M233.239,134.81c0,0,8.512-34.723,22.712-41.073c0,0-13.129,3.661-22.273,34.61L233.239,134.81z"/>
	<path class="st1" d="M234.534,123.423c0,0,5.999-29.535,22.975-36.404c0,0-13.342,2.103-23.069,31.059L234.534,123.423z"/>
	<path class="st1" d="M235.268,112.272c0,0,7.534-27.347,23.637-31.3c0,0-11.544-0.837-22.636,24.375L235.268,112.272z"/>
	<path class="st1" d="M236.911,99.537c0,0,13.094-16.343,17.439-23.575c0,0-8.005,9.992-17.116,20.674L236.911,99.537z"/>
	<path class="st1" d="M238.28,92.831c0,0,11.801-16.536,15.155-26.866c0,0-7.74,14.431-14.822,23.958L238.28,92.831z"/>
	<path class="st1" d="M240.55,83.869c0,0,9.791-14.494,10.658-17.629c0,0-7.277,8.642-9.967,14.712L240.55,83.869z"/>
	<path class="st1" d="M234.558,191.112c0,0,7.089-42.256,34.113-59.169c0,0-24.768,18.639-33.867,62.729
		C234.804,194.671,234.212,192.896,234.558,191.112"/>
	<path class="st1" d="M234.534,200.686c0,0,5.298-38.424,27.981-59.238c0,0-17.594,14.451-26.978,63.889L234.534,200.686z"/>
	<path class="st1" d="M234.83,207.13c0,0,5.859-37.986,21.225-52.173c0,0-13.485,15.919-21.002,54.619L234.83,207.13z"/>
	<path class="st1" d="M235.478,212.688c0,0,2.761-34.806,29.285-48.805c0,0-19.52,10.938-28.875,51.016L235.478,212.688z"/>
	<path class="st1" d="M234.528,196.646c0,0-12.094-25.31-36.025-29.13c0,0,24.389,7.578,36.462,31.64L234.528,196.646z"/>
	<path class="st1" d="M234.88,202.299c0,0-9.933-21.751-26.152-27.176c0,0,22.412,15.009,26.666,33.917L234.88,202.299z"/>
	<path class="st1" d="M235.575,212.021c0,0-7.472-23.232-23.078-31.337c0,0,17.005,13.576,22.987,34.014L235.575,212.021z"/>
	<path class="st1" d="M236.077,218.447c0,0,3.192-28.355,20.708-38.989c0,0-16.368,16.112-20.389,42.125L236.077,218.447z"/>
	<path class="st1" d="M235.228,215.328c0,0-3.228-36.371-28.19-47.235c0,0,23.568,5.552,28.525,43.141L235.228,215.328z"/>
	<path class="st1" d="M237.186,234.483c0,0-48.83-42.472-108.181-35.053c-50.805,6.343-57.754,39.425-59.65,61.536
		c0,0,6.112-47.403,43.534-55.442c0,0-28.993,10.351-39.231,51.786c0,0,13.283-45.65,47.923-53.355c0,0-31.574,10.682-41.273,42.185
		c0,0,14.085-36.38,51.133-44.121c0,0-36.512,11.523-38.535,52.885c0,0,3.265-38.632,39.1-51.044c0,0-23.403,7.738-26.235,32.847
		c0,0,2.895-21.994,27.909-32.092c0,0-21.335,15.408-19.464,46.184c0,0,2.612-41.44,30.43-49.235c0,0-26.394,10.265-27.245,51.242
		c0,0,0.684-38.311,29.495-50.803c0,0-25.403,10.142-21.802,51.521c0,0-3.468-37.542,26.917-52.648c0,0-23.838,14.272-23.746,47.694
		c0,0-0.712-29.003,23.927-45.548c0,0-20.144,19.828-21.219,42.074c0,0,4.489-24.602,23.931-40.968c0,0-18.759,15.075-21.334,45.457
		c0,0,4.583-34.947,27.843-46.751c0,0-21.145,12.977-23.544,54.634c0,0,3.462-38.659,24.652-53.328c0,0-19.012,18.966-20.346,52.068
		c0,0,2.175-30.328,21.48-50.533c0,0-19.551,26.493-17.407,58.194c0,0-1.219-32.548,19.589-58.464c0,0-17.137,19.694-15.767,53.906
		c0,0-2.541-26.856,17.006-53.581c0,0-14.821,21.082-14.031,53.202c0,0-0.639-39.578,18.772-54.033c0,0-16.484,22.734-16.762,49.459
		c0,0,1.576-25.683,18.126-47.707c0,0-13.11,17.745-14.378,42.426c0,0,3.604-27.856,15.393-39.903c0,0-24.354,19.868-29.818,42.424
		c0,0,10.101-26.984,32.642-42.3c0,0-10.941,24.21-12.15,47.205c0,0,2.965-25.858,14.394-46.763c0,0-10.439,22.938-11.36,56.237
		c0,0,3.54-37.711,13.702-57.01c0,0-10.943,35.749-9.655,57.457c0,0,2.242-36.573,10.674-54.938c0,0-6.296,17.612-5.264,45.612
		c0,0,0.993-34.74,7.162-46.818c0,0-5.179,35.035,0.722,63.631c0,0-4.108-28.816,0.586-60.174c0,0-3.185,21.056,1.6,48.359
		c0,0-2.987-29.681,0.505-47.186c0,0-2.307,28.891,3.732,56.755c0,0-4.563-43.193-0.973-57.335c0,0-18.036,21-20.211,46.752
		c0,0,5.556-28.345,23.135-45.439c0,0-15.17,28.575-15.53,56.758c0,0,2.806-32.324,17.053-55.264c0,0-10.409,25.581-5.846,57.221
		c0,0-3.173-34.226,7.661-57.205c0,0-7.842,22.854-2.296,51.97c0,0-3.216-27.721,3.793-50.958c0,0-4.404,18.575,1.099,47.219
		c0,0-4.563-31.643,0.745-46.73c0,0-0.834,11.167,4.144,26.89c0,0-3.028-14.042-2.491-26.38c0,0-10.556,14.785-9.707,33.667
		c0,0,1.866-22.351,12.011-32.506c0,0-1.726,21.607,7.191,38.768c0,0-7.993-17.996-5.567-38.49c0,0-0.36,18.792,7.395,34.162
		c0,0-7.047-16.421-5.697-33.174c0,0-4.436,20.509-2.776,34.967c0,0-2.166-18.007,4.625-34.475c0,0-1.406,18.443,8.011,36.747
		c0,0-8.238-20.851-6.446-37.187c0,0-4.135,21.67,0.516,33.595c0,0-4.208-23.95,2.675-31.592
		c3.732-4.14,24.562,15.109,21.829,12.631L237.186,234.483z"/>
	<path class="st1" d="M236.01,236.935c0,0,14.772-43.308,41.459-77.098c27.258-34.493,58.329-65.963,96.785-39.207
		c0,0-33.663-24.267-69.715,12.256c-51.168,51.846-66.684,100.501-67.022,102.799L236.01,236.935z"/>
	<polygon class="st1" points="323.765,117.53 360.958,147.953 322.514,118.564 	"/>
	<polygon class="st1" points="320.423,119.847 354.346,149.05 322.114,119.125 	"/>
	<polygon class="st1" points="325.702,117.053 356.728,140.986 323.765,117.53 	"/>
	<path class="st1" d="M336.541,112.936c0,0,16.169,15.201,24.772,27.645c0,0-18.6-21.148-26.244-26.788L336.541,112.936z"/>
	<path class="st1" d="M340.39,111.754c0,0,13.843,7.518,22.777,23.038c0,0-14.516-18.519-25.303-22.425L340.39,111.754z"/>
	<path class="st1" d="M332.622,113.663c0,0,15.618,15.571,20.739,23.048c0,0-18.122-19.571-22.812-22.068L332.622,113.663z"/>
	<path class="st1" d="M328.226,115.221c0,0,13.076,11.351,19.969,22.034c0,0-15.36-17.583-21.291-21.463L328.226,115.221z"/>
	<path class="st1" d="M344.243,111.774c0,0,13.513,4.452,23.943,14.508c0,0-15.646-10.964-26.357-14.405L344.243,111.774z"/>
	<path class="st1" d="M349.298,111.749c0,0,8.453,2.051,17.074,8.671c0,0-15.049-7.473-20.999-7.951L349.298,111.749z"/>
	<path class="st1" d="M335.649,112.433c0,0-0.494-6.435,10.704-8.454c0,0-8.942,3.405-8.489,8.388L335.649,112.433z"/>
	<path class="st1" d="M339.65,112.168c0,0,10.994-5.601,27.198,0.368c0,0-16.123-4.298-26.298,0.145L339.65,112.168z"/>
	<path class="st1" d="M337.864,112.366c0,0,5.266-5.896,17.289-5.453c0,0-11.385,2.068-15.498,5.254L337.864,112.366z"/>
	<path class="st1" d="M326.903,115.792c0,0,5.826-13.323,22.793-12.388c0,0-13.926,0.258-21.475,11.817L326.903,115.792z"/>
	<path class="st1" d="M322.514,118.564c0,0,4.485-17.606,26.911-13.164c0,0-19.186-3.285-25.66,12.13L322.514,118.564z"/>
	<path class="st1" d="M338.96,103.37c0,0-20.48-2.504-21.26,17.831l1.434-1.074C319.134,120.127,318.61,103.987,338.96,103.37"/>
	<path class="st1" d="M314.253,123.508c0,0-0.223-14.27,12.064-18.251c0,0-10.752,7.004-10.629,17.175L314.253,123.508z"/>
	<path class="st1" d="M317.702,121.201l25.721,20.138c0,0-22.047-15.222-26.647-19.662L317.702,121.201z"/>
	<path class="st1" d="M315.688,122.432c0,0,18.652,15.548,34.334,24.326c0,0-22.34-11.017-35.77-23.25L315.688,122.432z"/>
	<path class="st1" d="M313.12,124.023c0,0,18.799,19.901,39.683,28.366c0,0-20.681-6.085-40.528-27.426L313.12,124.023z"/>
	<path class="st1" d="M310.99,125.758c0,0,12.896,15.039,35.976,25.636c0,0-20.021-5.766-37.021-24.65L310.99,125.758z"/>
	<path class="st1" d="M308.859,127.498c0,0,17.274,19.307,33.944,24.432c0,0-16.814-2.423-34.566-23.308L308.859,127.498z"/>
	<path class="st1" d="M307.071,128.91c0,0,12.248,17.135,32.795,27.134c0,0-17.53-4.193-33.254-25.081L307.071,128.91z"/>
	<path class="st1" d="M310.99,125.758c0,0-0.466-11.039,8.608-17.152c0,0-10.361,5.703-9.653,18.137L310.99,125.758z"/>
	<path class="st1" d="M307.071,128.91c0,0,1.344-13.44,12.814-17.465c0,0-13.059,4.177-14.561,19.107L307.071,128.91z"/>
	<path class="st1" d="M299.245,136.412c0,0,3.586-16.9,14.608-23.488c0,0-11.081,10.978-12.825,22.081L299.245,136.412z"/>
	<path class="st1" d="M294.714,141.897c0,0,4.781-20.592,19.902-24.545c0,0-17.074,2.006-23.238,27.545L294.714,141.897z"/>
	<path class="st1" d="M287.075,149.352c0,0-0.805-16.547,12.226-26.786c0,0-11.271,12.237-10.595,25.658L287.075,149.352z"/>
	<path class="st1" d="M305.294,131.528c0,0,8.549,16.832,30.598,25.007c0,0-21.178-3.052-32.379-23.597L305.294,131.528z"/>
	<path class="st1" d="M301.883,134.07c0,0,19.29,27.537,47.743,30.508c0,0-27.979-0.178-48.596-29.574L301.883,134.07z"/>
	<path class="st1" d="M299.245,136.412c0,0,11.949,20.117,33.881,28.809c0,0-25.6-9.973-35.118-26.565L299.245,136.412z"/>
	<path class="st1" d="M296.726,139.46c0,0,13.832,24.034,38.33,32.327c0,0-27.299-8.09-39.299-30.877L296.726,139.46z"/>
	<path class="st1" d="M294.714,141.897c0,0,8.396,18.322,28.25,28.979c0,0-19.215-6.93-28.986-27.352L294.714,141.897z"/>
	<path class="st1" d="M291.378,144.898c0,0,8.242,18.6,27.451,26.749c0,0-20.857-11.866-26.092-28.298L291.378,144.898z"/>
	<path class="st1" d="M295.761,140.91c0,0,14.994,23.738,29.688,30.325c0,0-21.401-10.272-30.734-29.333L295.761,140.91z"/>
	<polygon class="st1" points="299.829,137.477 328.992,152.888 298.008,138.655 	"/>
	<path class="st1" d="M288.704,148.216c0,0,11.721,22.364,32.711,26.675c0,0-22.365-7.613-31.201-28.497L288.704,148.216z"/>
	<path class="st1" d="M287.274,150.515c0,0,6.921,17.959,24.38,25.323c0,0-14.836-2.675-25.652-23.307L287.274,150.515z"/>
	<path class="st1" d="M284.258,154.172c0,0,8.155,18.143,30.956,25.887c0,0-21.391-7.849-29.867-26.638L284.258,154.172z"/>
	<path class="st1" d="M281.544,157.26c0,0,9.348,21.491,28.58,25.018c0,0-18.387-5.674-27.531-26.001L281.544,157.26z"/>
	<path class="st1" d="M280.155,159.791c0,0,6.633,23.365,26.412,27.73c0,0-18.59-6.844-25.023-30.254L280.155,159.791z"/>
	<path class="st1" d="M278.415,161.437c0,0,8.512,28.48,29.816,33.439c0,0-21.117-8.643-28.773-35.639L278.415,161.437z"/>
	<path class="st1" d="M276.282,164.376c0,0,10.574,26.291,35.385,24.563c0,0-26.453-0.779-34.499-26.47L276.282,164.376z"/>
	<path class="st1" d="M274.505,167.004c0,0-0.291,16.081,17.301,27.789c0,0-14.75-11.671-16.691-30.125L274.505,167.004z"/>
	<path class="st1" d="M271.866,169.35c0.072-0.751-0.197,20.185,17.161,30.482c0,0-13.729-9.237-16.508-32.587L271.866,169.35z"/>
	<path class="st1" d="M269.62,172.814c0,0-0.402,16.597,12.197,25.149c0,0-11.439-11.268-11.309-27.073L269.62,172.814z"/>
	<path class="st1" d="M283.599,155.063c0,0,8.1,21.304,32.33,27.985c0,0-24.705-8.257-30.582-29.627L283.599,155.063z"/>
	<path class="st1" d="M267.731,177.155c0,0,1.92,21.859,14.916,32.742c0,0-13.716-16.284-13.527-35.26L267.731,177.155z"/>
	<path class="st1" d="M265.752,178.612c0,0,3.097,25.211,14.886,34.933c0,0-12.279-16.155-13.721-36.432L265.752,178.612z"/>
	<path class="st1" d="M264.403,181.373c0,0,1.707,18.27,11.753,29.637c0,0-11.007-16.96-10.404-32.397L264.403,181.373z"/>
	<path class="st1" d="M263.044,182.922c0,0,2.027,20.122,12.334,29.492c0,0-10.381-7.407-13.76-27.206L263.044,182.922z"/>
	<path class="st1" d="M278.13,159.802c0,0,5.869-22.558,22.791-33.745c0,0-16.8,13.104-21.467,33.175L278.13,159.802z"/>
	<path class="st1" d="M275.735,163.545c0,0,8.618-25.414,32.062-39.912c0,0-24.361,19.819-30.625,38.831L275.735,163.545z"/>
	<polygon class="st1" points="319.136,120.122 336.282,135.083 318.177,120.36 	"/>
	<polygon class="st1" points="335.069,113.792 347.69,127.193 332.622,113.663 	"/>
	<path class="st1" d="M276.03,165.336c0,0,7.588,23.636,23.486,31.979c0,0-16.4-6.66-25.014-30.311L276.03,165.336z"/>
	<path class="st1" d="M271.204,171.113c0,0,4.104,18.209,17.513,25.275c0,0-12.505-6.42-16.851-27.038L271.204,171.113z"/>
	<path class="st1" d="M261.174,186.321c0,0-0.033,17.18,9.29,24.412c0,0-6.906-0.514-10.559-22.739L261.174,186.321z"/>
	<path class="st1" d="M258.606,190.357c0,0,0.715,15.8,9.361,24.053c0,0-9.178-12.197-8.521-25.788L258.606,190.357z"/>
	<path class="st1" d="M273.647,168.81c0,0,4.482,23.72,19.377,27.038c0,0-13.711,0.3-20.598-25.886L273.647,168.81z"/>
	<path class="st1" d="M288.669,148.8c0,0,3.92,18.759,17.727,29.827c0,0-13.646-11.778-16.591-31.469L288.669,148.8z"/>
	<path class="st1" d="M235.32,234.483c0,0,48.829-42.472,108.177-35.053c50.809,6.343,57.758,39.425,59.652,61.536
		c0,0-6.113-47.403-43.535-55.442c0,0,28.994,10.351,39.231,51.786c0,0-13.28-45.65-47.925-53.355c0,0,31.578,10.682,41.271,42.185
		c0,0-14.082-36.38-51.135-44.121c0,0,36.516,11.523,38.535,52.885c0,0-3.256-38.632-39.094-51.044c0,0,23.404,7.738,26.235,32.847
		c0,0-2.898-21.994-27.905-32.092c0,0,21.328,15.408,19.462,46.184c0,0-2.616-41.44-30.433-49.235c0,0,26.398,10.265,27.248,51.242
		c0,0-0.688-38.311-29.493-50.803c0,0,25.397,10.142,21.804,51.521c0,0,3.463-37.542-26.918-52.648c0,0,23.833,14.272,23.736,47.694
		c0,0,0.714-29.003-23.927-45.548c0,0,20.153,19.828,21.219,42.074c0,0-4.481-24.602-23.921-40.968c0,0,18.753,15.075,21.33,45.457
		c0,0-4.584-34.947-27.84-46.751c0,0,21.143,12.977,23.539,54.634c0,0-3.467-38.659-24.654-53.328c0,0,19.011,18.966,20.348,52.068
		c0,0-2.174-30.328-21.482-50.533c0,0,19.56,26.493,17.406,58.194c0,0,1.223-32.548-19.588-58.464c0,0,17.137,19.694,15.769,53.906
		c0,0,2.542-26.856-17.003-53.581c0,0,14.822,21.082,14.031,53.202c0,0,0.636-39.578-18.779-54.033c0,0,16.487,22.734,16.767,49.459
		c0,0-1.578-25.683-18.124-47.707c0,0,13.105,17.745,14.375,42.426c0,0-3.605-27.856-15.395-39.903c0,0,24.359,19.868,29.818,42.424
		c0,0-10.094-26.984-32.637-42.3c0,0,10.943,24.21,12.147,47.205c0,0-2.968-25.858-14.396-46.763c0,0,10.445,22.938,11.363,56.237
		c0,0-3.535-37.711-13.697-57.01c0,0,10.938,35.749,9.648,57.457c0,0-2.24-36.573-10.676-54.938c0,0,6.293,17.612,5.263,45.612
		c0,0-0.989-34.74-7.16-46.818c0,0,5.181,35.035-0.722,63.631c0,0,4.107-28.816-0.58-60.174c0,0,3.18,21.056-1.6,48.359
		c0,0,2.981-29.681-0.508-47.186c0,0,2.306,28.891-3.732,56.755c0,0,4.562-43.193,0.969-57.335c0,0,18.037,21,20.209,46.752
		c0,0-5.555-28.345-23.131-45.439c0,0,15.172,28.575,15.528,56.758c0,0-2.804-32.324-17.05-55.264c0,0,10.406,25.581,5.848,57.221
		c0,0,3.173-34.226-7.66-57.205c0,0,7.842,22.854,2.293,51.97c0,0,3.219-27.721-3.797-50.958c0,0,4.404,18.575-1.094,47.219
		c0,0,4.558-31.643-0.748-46.73c0,0,0.833,11.167-4.141,26.89c0,0,3.021-14.042,2.49-26.38c0,0,10.554,14.785,9.705,33.667
		c0,0-1.867-22.351-12.012-32.506c0,0,1.725,21.607-7.189,38.768c0,0,7.994-17.996,5.563-38.49c0,0,0.364,18.792-7.389,34.162
		c0,0,7.042-16.421,5.692-33.174c0,0,4.439,20.509,2.779,34.967c0,0,2.167-18.007-4.629-34.475c0,0,1.408,18.443-8.008,36.747
		c0,0,8.239-20.851,6.449-37.187c0,0,4.13,21.67-0.514,33.595c0,0,4.203-23.95-2.681-31.592c-2.926-3.247-15.06,6.89-21.596,12.812
		L235.32,234.483z"/>
</g>
</svg>
