<?xml version="1.0" encoding="iso-8859-1"?>
<!-- Generator: Adobe Illustrator 16.0.0, SVG Export Plug-In . SVG Version: 6.00 Build 0)  -->
<!DOCTYPE svg PUBLIC "-//W3C//DTD SVG 1.0//EN" "http://www.w3.org/TR/2001/REC-SVG-20010904/DTD/svg10.dtd">
<svg version="1.0" id="Layer_1" xmlns="http://www.w3.org/2000/svg" xmlns:xlink="http://www.w3.org/1999/xlink" x="0px" y="0px"
	 width="500px" height="500px" viewBox="0 0 500 500" style="enable-background:new 0 0 500 500;" xml:space="preserve">
<style type="text/css">
<![CDATA[
	.st0{fill-rule:evenodd;clip-rule:evenodd;}
]]>
</style>
<path class="st0" d="M249.392,43.009c95.239,0.576,178.12,67.923,197.033,160.913c21.306,104.756-42.444,207.403-146.015,234.05
	c-55.311,14.232-107.626,5.851-156.384-24.003c-2.567-1.571-4.572-1.952-7.499-0.71c-23.872,10.144-47.826,20.094-71.772,30.06
	c-7.767,3.232-14.2,0.281-15.081-7.154c-0.27-2.283,0.601-4.881,1.519-7.098c9.914-23.967,19.903-47.905,29.997-71.797
	c1.036-2.453,0.885-4.233-0.543-6.45c-15.563-24.145-25.628-50.45-29.285-78.925c-7.589-59.094,7.753-111.807,46.12-157.352
	c29.499-35.02,67.19-57.047,112.015-66.304C222.596,45.533,236.083,44.7,249.392,43.009z M77.228,416.974
	c1.708-0.682,2.635-1.028,3.545-1.417c17.979-7.68,35.986-15.293,53.911-23.097c4.649-2.023,8.845-1.609,13.007,0.941
	c2.113,1.295,4.156,2.701,6.266,4c44.356,27.323,91.968,35.398,142.343,22.016c96.617-25.67,153.609-122.948,129.438-219.691
	C401.517,102.78,302.41,43.774,205.027,68.741c-47.734,12.238-84.538,39.953-110.168,81.935
	c-22.605,37.027-30.226,77.456-24.067,120.293c3.88,26.989,13.853,51.8,29.431,74.242c3.14,4.523,3.562,8.801,1.337,13.903
	c-6.458,14.812-12.588,29.769-18.842,44.671C80.979,407.932,79.261,412.087,77.228,416.974z"/>
<path class="st0" d="M240.361,273.479c0-6.791-0.035-13.581,0.009-20.371c0.047-7.135,3.551-10.776,10.659-11.194
	c24.126-1.417,41.498-20.032,40.3-43.935c-0.813-16.256-9.259-28.17-23.825-35.047c-14.62-6.902-28.968-5.43-42.107,4.25
	c-10.754,7.923-16.226,18.764-16.95,32.08c-0.337,6.194-4.583,10.217-10.259,9.938c-5.492-0.271-9.389-5.055-9.054-11.111
	c1.722-31.103,23.393-54.539,54.108-58.517c32.733-4.237,63.025,18.377,68.412,51.071c5.257,31.903-16.134,62.717-48.208,69.161
	c-2.97,0.597-3.819,1.624-3.78,4.517c0.137,10.183,0.138,20.372-0.028,30.555c-0.08,5.021-3.225,8.747-7.579,9.718
	c-4.167,0.929-8.762-1.263-10.66-5.438c-0.723-1.592-0.937-3.521-0.964-5.303c-0.107-6.789-0.043-13.581-0.043-20.372
	C240.381,273.479,240.371,273.479,240.361,273.479z"/>
<path class="st0" d="M249.185,350.196c-5.803-0.011-10.414-4.585-10.492-10.406c-0.081-5.996,4.604-10.77,10.55-10.746
	c5.719,0.02,10.472,4.696,10.586,10.417C259.945,345.285,255.065,350.207,249.185,350.196z"/>
</svg>
