<?xml version="1.0" encoding="iso-8859-1"?>
<!-- Generator: Adobe Illustrator 16.0.0, SVG Export Plug-In . SVG Version: 6.00 Build 0)  -->
<!DOCTYPE svg PUBLIC "-//W3C//DTD SVG 1.0//EN" "http://www.w3.org/TR/2001/REC-SVG-20010904/DTD/svg10.dtd">
<svg version="1.0" id="Layer_1" xmlns="http://www.w3.org/2000/svg" xmlns:xlink="http://www.w3.org/1999/xlink" x="0px" y="0px"
	 width="500px" height="500px" viewBox="0 0 500 500" style="enable-background:new 0 0 500 500;" xml:space="preserve">
<style type="text/css">
<![CDATA[
	.st0{fill-rule:evenodd;clip-rule:evenodd;stroke:#231F20;stroke-width:4.6289;stroke-miterlimit:10;}
]]>
</style>
<path class="st0" d="M249.369,447.434c-17.071-17.151-33.774-33.979-50.531-50.757c-35.431-35.467-70.848-70.948-106.36-106.331
	c-19.865-19.793-33.135-42.97-36.374-71.116c-4.985-43.34,9.1-79.734,42.822-107.209c43.527-35.465,102.57-35.456,146.942-1.281
	c3.111,2.397,4.925,2.083,7.857-0.17c65.325-50.29,160.106-21.476,184.865,57.02c14.158,44.884,4.295,85.785-28.725,119.48
	c-52.228,53.292-105.383,105.674-158.153,158.433C251.184,446.032,250.559,446.459,249.369,447.434z M248.551,140.413
	c-1.523-1.659-3.485-4.002-5.659-6.13c-37.597-36.771-96.949-38.715-134.733-4.44c-43.513,39.47-44.923,103.049-3.13,144.927
	c46.732,46.827,93.531,93.586,140.309,140.366c1.335,1.338,2.75,2.599,4.324,4.076c0.907-0.776,1.659-1.331,2.312-1.984
	c47.879-47.867,95.891-95.6,143.557-143.671c23.354-23.554,32.663-52.159,27.859-85.097
	c-9.908-67.907-87.856-105.013-146.651-69.542C266.96,124.817,258.436,132.796,248.551,140.413z"/>
</svg>
