<?xml version="1.0" encoding="UTF-8"?>
<svg width="325px" height="102px" viewBox="0 0 325 102" version="1.1" xmlns="http://www.w3.org/2000/svg" xmlns:xlink="http://www.w3.org/1999/xlink">
    <!-- Generator: Sketch 61.2 (89653) - https://sketch.com -->
    <title>Group 2</title>
    <desc>Created with Sketch.</desc>
    <defs>
        <polygon id="path-1" points="0.337932432 13.0995616 22.5624919 25.1513059 36.7824865 16.9965936 51.0436486 25.1513059 72.9626216 13.0995616 72.862 0.21860274 51.4406216 13.0995616 36.8105135 4.97298174 22.5624919 13.0995616 0.337932432 0.209378995"></polygon>
        <linearGradient x1="49.4715798%" y1="58.9618149%" x2="49.9963768%" y2="45.83683%" id="linearGradient-3">
            <stop stop-color="#A1A8B3" offset="0%"></stop>
            <stop stop-color="#E2E7EB" offset="100%"></stop>
        </linearGradient>
        <linearGradient x1="62.561349%" y1="45.3681726%" x2="17.6635879%" y2="44.3030001%" id="linearGradient-4">
            <stop stop-color="#343C4A" offset="0%"></stop>
            <stop stop-color="#595E6A" offset="56.7598828%"></stop>
            <stop stop-color="#72757F" offset="100%"></stop>
        </linearGradient>
        <polygon id="path-5" points="0.378135135 62.4275466 11.6592432 69.3792059 11.7525135 44.8088114 26.3339189 35.8859918 26.3339189 19.7046849 47.1658108 6.94409589 47.4295405 6.6189589 36.1295946 0.201077626 14.3783243 13.2535982 14.3783243 29.1735502 0.378135135 37.7923553"></polygon>
        <linearGradient x1="40.9052507%" y1="53.9573236%" x2="104.839737%" y2="53.9573236%" id="linearGradient-7">
            <stop stop-color="#B1B3B9" offset="0%"></stop>
            <stop stop-color="#D0D2D5" offset="100%"></stop>
        </linearGradient>
        <polygon id="path-8" points="47.1455946 62.4174466 35.9415838 69.4152247 35.9415838 44.7245525 21.3259486 35.8528785 21.1134946 19.7577215 0 6.81865297 11.3950541 0.19047032 33.1459108 13.2434521 33.1459108 29.1634502 47.1455946 37.7815174"></polygon>
    </defs>
    <g id="Page-6" stroke="none" stroke-width="1" fill="none" fill-rule="evenodd">
        <g id="SSUG-Flagship-Fund-I" transform="translate(-135.000000, -1685.000000)">
            <g id="Group-2" transform="translate(135.000000, 1685.000000)">
                <g id="Group" transform="translate(0.730769, 1.000000)">
                    <polygon id="Fill-1" fill="#F0F1F4" points="14.5811757 13.0193151 36.8057351 -1.13686838e-13 51.0537568 7.81251142 65.6861622 -1.13686838e-13 87.1052432 13.0262329 65.6861622 25.9196438 51.0537568 17.7806119 36.8057351 25.9071918"></polygon>
                    <g id="Group-4" transform="translate(14.243243, 12.807630)">
                        <mask id="mask-2" fill="white">
                            <use xlink:href="#path-1"></use>
                        </mask>
                        <g id="Clip-3"></g>
                        <polygon id="Fill-2" fill="url(#linearGradient-3)" mask="url(#mask-2)" points="0.337932432 13.0995616 22.5624919 25.1513059 36.7824865 16.9965936 51.0436486 25.1513059 72.9626216 13.0995616 72.862 0.21860274 51.4406216 13.0995616 36.8105135 4.97298174 22.5624919 13.0995616 0.337932432 0.209378995"></polygon>
                    </g>
                    <polygon id="Fill-5" fill="#ADB2B8" points="37.026827 58.5482703 50.9664595 66.6252726 64.8131892 58.5482703 50.875027 50.470484"></polygon>
                    <polygon id="Fill-6" fill="#F0F1F4" points="50.9172973 34.3981096 37.0698784 42.4762648 37.0246676 58.5518676 50.8718108 50.4741735"></polygon>
                    <polygon id="Fill-7" fill="#454A58" points="64.855 42.4748813 50.9172973 34.396726 50.8718108 50.4741735 64.8095135 58.5504379"></polygon>
                    <g id="Group-10" transform="translate(54.216216, 31.255119)">
                        <mask id="mask-6" fill="white">
                            <use xlink:href="#path-5"></use>
                        </mask>
                        <use id="Clip-9" fill="url(#linearGradient-4)" xlink:href="#path-5"></use>
                    </g>
                    <polygon id="Fill-11" fill="#303645" points="87.2554865 87.7864329 87.2554865 71.5193452 101.645757 63.1224174 101.645757 37.8740776 80.4568649 50.8929315 80.4568649 67.0676434 65.8731622 75.9969658 65.8731622 100.634325"></polygon>
                    <g id="Group-14" transform="translate(0.000000, 31.255119)">
                        <mask id="mask-9" fill="white">
                            <use xlink:href="#path-8"></use>
                        </mask>
                        <use id="Clip-13" fill="url(#linearGradient-7)" xlink:href="#path-8"></use>
                    </g>
                    <polygon id="Fill-15" fill="#CBCED2" points="14.4699405 87.8469868 14.4699405 71.4969776 0.00215945946 63.1563146 0.00215945946 38.0728493 21.3058243 51.0063836 21.3058243 67.0755758 35.9681405 75.9465119 35.9681405 100.683995"></polygon>
                </g>
                <path d="M131.706564,18.6075367 L128.730769,22.9283369 C131.138347,24.9991749 134.824301,27 140.42149,27 C146.549829,27 150.730769,24.3217768 150.730769,18.8921349 C150.730769,11.8931115 144.035117,11.3566485 139.819822,10.4642105 C137.480954,9.96320868 134.681908,9.53494755 134.681908,7.67778545 C134.681908,5.60694741 137.516213,5.1068548 139.145374,5.1068548 C141.661442,5.1068548 144.247577,6.17841688 146.478858,7.7859873 L149.596595,3.50064827 C146.762289,1.3925306 143.892272,0 139.358738,0 C134.787685,0 129.084718,1.67894728 129.084718,7.89237064 C129.084718,14.1430736 136.099061,15.3564802 139.358738,15.8920339 C142.369793,16.4284969 145.13358,16.9640506 145.13358,19.0348886 C145.13358,20.4992507 143.432545,21.9281517 140.350067,21.9281517 C137.374272,21.9281517 133.583897,20.1773729 131.706564,18.6075367 Z" id="Fill-16" fill="#303645"></path>
                <path d="M157.706564,18.6075367 L154.730769,22.9283369 C157.139703,24.9991749 160.824301,27 166.422394,27 C172.551185,27 176.730769,24.3217768 176.730769,18.8921349 C176.730769,11.8931115 170.035117,11.3566485 165.819822,10.4642105 C163.481858,9.96320868 160.68236,9.53494755 160.68236,7.67778545 C160.68236,5.60694741 163.517118,5.1068548 165.145374,5.1068548 C167.66099,5.1068548 170.248481,6.17841688 172.478858,7.7859873 L175.597499,3.50064827 C172.763193,1.3925306 169.893628,0 165.358738,0 C160.789042,0 155.084718,1.67894728 155.084718,7.89237064 C155.084718,14.1430736 162.099965,15.3564802 165.358738,15.8920339 C168.369793,16.4284969 171.134032,16.9640506 171.134032,19.0348886 C171.134032,20.4992507 169.432545,21.9281517 166.351876,21.9281517 C163.374272,21.9281517 159.585253,20.1773729 157.706564,18.6075367 Z" id="Fill-17" fill="#303645"></path>
                <path d="M192.767761,27 C200.033224,27 204.730769,22.5657626 204.730769,15.7719337 L204.730769,0 L198.932822,0 L198.932822,15.7719337 C198.932822,20.7853141 195.04255,22.0578561 192.767761,22.0578561 C190.418989,22.0578561 186.528717,20.7853141 186.528717,15.7719337 L186.528717,0 L180.730769,0 L180.730769,15.7719337 C180.730769,22.5657626 185.465307,27 192.767761,27 Z" id="Fill-18" fill="#303645"></path>
                <path d="M236.657753,12.0036778 L220.751303,12.0036778 L220.751303,16.9551439 L230.576307,16.9551439 C229.747875,19.7337689 226.293625,21.9061566 222.910095,21.9061566 C218.232483,21.9061566 214.381467,17.9522386 214.381467,13.4995466 C214.381467,9.04685453 218.232483,5.12921103 222.910095,5.12921103 C225.753583,5.12921103 228.308222,6.87537366 229.928808,9.08267558 L234.822712,6.2682296 C232.232253,2.45804924 227.805376,0 222.910095,0 C215.100605,0 208.730769,6.09048467 208.730769,13.4995466 C208.730769,20.9435227 215.100605,27 222.910095,27 C230.000446,27 236.08327,22.2616465 236.657753,15.6021059 C236.69495,15.0670574 236.730769,14.5687368 236.730769,14.1057838 C236.730769,13.5349142 236.69495,12.7164713 236.657753,12.0036778 Z" id="Fill-19" fill="#303645"></path>
                <polygon id="Fill-20" fill="#303645" points="135.471838 42.0597934 149.730769 42.0597934 149.730769 37 129.730769 37 129.730769 64 135.471838 64 135.471838 53.0680532 148.071051 53.0680532 148.071051 48.0077896 135.471838 48.0077896"></polygon>
                <polygon id="Fill-21" fill="#303645" points="173.730769 58.9405357 159.597944 58.9405357 159.597944 37 153.730769 37 153.730769 64 173.730769 64"></polygon>
                <path d="M173.730769,64 L180.023161,64 L182.047726,59.9899812 L194.377824,59.9899812 L196.475288,64 L202.730769,64 L188.232153,37 L173.730769,64 Z M184.868183,55.1555395 L188.232153,48.3167265 L191.630266,55.1555395 L184.868183,55.1555395 Z" id="Fill-22" fill="#303645"></path>
                <path d="M230.65821,49.0031741 L214.750779,49.0031741 L214.750779,53.9548065 L224.576106,53.9548065 C223.748565,56.7336608 220.294201,58.9068924 216.9101,58.9068924 C212.231876,58.9068924 208.380734,54.9519347 208.380734,50.4995466 C208.380734,46.046705 212.231876,42.1284764 216.9101,42.1284764 C219.753682,42.1284764 222.308404,43.8746977 223.928585,46.0834341 L228.822649,43.2684401 C226.231187,39.4572249 221.805542,37 216.9101,37 C209.100355,37 202.730769,43.0897823 202.730769,50.4995466 C202.730769,57.9442261 209.100355,64 216.9101,64 C224.000225,64 230.08233,59.2632104 230.65821,52.6017231 C230.69449,52.0675635 230.730769,51.5683192 230.730769,51.1058041 C230.730769,50.5362757 230.69449,49.7159915 230.65821,49.0031741 Z" id="Fill-23" fill="#303645"></path>
                <path d="M237.707468,55.6073045 L234.730769,59.9283138 C237.141059,62 240.824301,64 246.421942,64 C252.550733,64 256.730769,61.3217771 256.730769,55.8935442 C256.730769,48.8928571 250.034665,48.3572944 245.819822,47.4639321 C243.481406,46.9647404 240.682812,46.5355627 240.682812,44.6783694 C240.682812,42.6065872 243.516666,42.1064862 245.14673,42.1064862 C247.661442,42.1064862 250.248029,43.1785209 252.480214,44.7856638 L255.597499,40.5002526 C252.763645,38.3934633 249.893628,37 245.360094,37 C240.789042,37 235.086075,38.6785209 235.086075,44.8920489 C235.086075,51.1428571 242.100417,52.3581026 245.360094,52.8923015 C248.370245,53.4283189 251.13358,53.9638816 251.13358,56.0355728 C251.13358,57.5000505 249.432545,58.929021 246.351423,58.929021 C243.375628,58.929021 239.584801,57.1783037 237.707468,55.6073045 Z" id="Fill-24" fill="#303645"></path>
                <polygon id="Fill-25" fill="#303645" points="284.730769 37 278.995641 37 278.995641 48.4521261 266.466363 48.4521261 266.466363 37 260.730769 37 260.730769 64 266.466363 64 266.466363 53.5109791 278.995641 53.5109791 278.995641 64 284.730769 64"></polygon>
                <polygon id="Fill-26" fill="#303645" points="291.730769 64 297.730769 64 297.730769 37 291.730769 37"></polygon>
                <path d="M314.2663,37 L303.730769,37 L303.730769,64 L309.335959,64 L309.335959,56.1339279 L314.230996,56.1339279 C321.182717,56.1339279 324.730769,51.9964735 324.730769,46.676661 C324.730769,41.3220538 320.793015,37 314.2663,37 Z M315.047061,51.073006 L309.335959,51.073006 L309.335959,42.0597934 L314.479934,42.0597934 C317.494806,42.0597934 319.089823,44.3882106 319.089823,46.676661 C319.089823,48.8936414 317.848751,51.073006 315.047061,51.073006 Z" id="Fill-27" fill="#303645"></path>
                <polygon id="Fill-28" fill="#303645" points="135.471838 79.0608161 149.730769 79.0608161 149.730769 74 129.730769 74 129.730769 101 135.471838 101 135.471838 90.0674824 148.071051 90.0674824 148.071051 85.0066662 135.471838 85.0066662"></polygon>
                <path d="M165.767995,101 C173.033784,101 177.730769,96.5673527 177.730769,89.7716259 L177.730769,74 L171.932935,74 L171.932935,89.7716259 C171.932935,94.7860227 168.042271,96.0585995 165.767995,96.0585995 C163.419268,96.0585995 159.529072,94.7860227 159.529072,89.7716259 L159.529072,74 L153.730769,74 L153.730769,89.7716259 C153.730769,96.5673527 158.465683,101 165.767995,101 Z" id="Fill-29" fill="#303645"></path>
                <polygon id="Fill-30" fill="#303645" points="189.422454 86.1805129 207.730769 102 207.730769 74.8642598 202.003002 74.8642598 202.003002 90.0717464 183.730769 74 183.730769 101.170879 189.422454 101.170879"></polygon>
                <path d="M213.730769,101 L224.784536,101 C228.701251,101 232.105141,99.8181367 234.557175,97.6388647 C237.193227,95.2392157 238.730769,91.618772 238.730769,87.481263 C238.730769,83.30849 237.302518,79.7989635 234.557175,77.3986093 C232.068244,75.1818163 228.737682,74 224.784536,74 L213.730769,74 L213.730769,101 Z M219.514766,95.9399362 L219.514766,79.0975378 L224.784536,79.0975378 C228.408876,79.0975378 232.874846,80.4277452 232.874846,87.5179847 C232.874846,94.610434 228.445306,95.9399362 224.784536,95.9399362 L219.514766,95.9399362 Z" id="Fill-31" fill="#303645"></path>
                <polygon id="Fill-32" fill="#303645" points="254.730769 101 260.730769 101 260.730769 74 254.730769 74"></polygon>
            </g>
        </g>
    </g>
</svg>